<svg height="1000" width="1125" xmlns="http://www.w3.org/2000/svg"><path d="M125 -13.7q-52.7 2 -87.9 37.1Q2 58.6 0 111.3v625q2 52.8 37.1 87.9t87.9 37.1h875q52.7 -1.9 87.9 -37.1t37.1 -87.9v-625q-2 -52.7 -37.1 -87.9T1000 -13.7H125zm156.3 500h125 -125 125q66.4 2 111.3 45 42.9 44.9 44.9 111.3 -2 29.3 -31.2 31.2h-375Q127 671.9 125 642.6q2 -66.4 44.9 -111.3 44.9 -43 111.4 -45zM218.8 298.8q1.9 -70.3 62.5 -107.4 62.5 -35.1 125 0 60.5 37.1 62.5 107.4 -2 70.3 -62.5 107.5 -62.5 35.1 -125 0Q220.7 369.1 218.8 298.8zm500 -62.5h250 -250 250q29.2 2 31.2 31.3 -2 29.3 -31.2 31.2h-250q-29.3 -1.9 -31.3 -31.2 2 -29.3 31.3 -31.3zm0 125h250 -250 250q29.2 2 31.2 31.3 -2 29.3 -31.2 31.2h-250q-29.3 -1.9 -31.3 -31.2 2 -29.3 31.3 -31.3zm0 125h250 -250 250q29.2 2 31.2 31.3 -2 29.3 -31.2 31.2h-250q-29.3 -1.9 -31.3 -31.2 2 -29.3 31.3 -31.3z"/></svg>