<svg height="1000" width="1000" xmlns="http://www.w3.org/2000/svg"><path d="M187.5 -76.2q-52.7 2 -87.9 37.1Q64.5 -3.9 62.5 48.8v750q2 52.8 37.1 87.9t87.9 37.1H750q52.7 -1.9 87.9 -37.1T875 798.8v-750q-2 -52.7 -37.1 -87.9T750 -76.2H187.5zm218.8 562.5h125 -125 125q66.4 2 111.3 45 42.9 44.9 44.9 111.3 -2 29.3 -31.2 31.2h-375Q252 671.9 250 642.6q2 -66.4 44.9 -111.3 44.9 -43 111.4 -45zM343.8 298.8q1.9 -70.3 62.5 -107.4 62.5 -35.1 125 0 60.5 37.1 62.5 107.4 -2 70.3 -62.5 107.5 -62.5 35.1 -125 0Q345.7 369.1 343.8 298.8zM1000 80.1Q998 50.8 968.8 48.8q-29.3 2 -31.3 31.3v125q2 29.3 31.3 31.2 29.2 -1.9 31.2 -31.2v-125zm-31.2 218.7q-29.3 2 -31.3 31.3v125q2 29.3 31.3 31.2 29.2 -1.9 31.2 -31.2v-125q-2 -29.3 -31.2 -31.3zm31.2 281.3q-2 -29.3 -31.2 -31.3 -29.3 2 -31.3 31.3v125q2 29.3 31.3 31.2 29.2 -1.9 31.2 -31.2v-125z"/></svg>