<svg height="1000" width="875" xmlns="http://www.w3.org/2000/svg"><path d="M875 48.8Q875 21.5 857.4 3.9q-17.6 -17.6 -44.9 -17.6h-750q-27.3 0 -44.9 17.6T0 48.8t17.6 45 44.9 17.5h750q27.3 0 44.9 -17.5t17.6 -45zm0 500q0 -27.3 -17.6 -44.9 -17.6 -17.6 -44.9 -17.6h-750q-27.3 0 -44.9 17.6T0 548.8t17.6 45 44.9 17.5h750q27.3 0 44.9 -17.5t17.6 -45zM0 298.8q0 27.4 17.6 45 17.6 17.5 44.9 17.5h750q27.3 0 44.9 -17.5t17.6 -45 -17.6 -44.9 -44.9 -17.6h-750q-27.3 0 -44.9 17.6T0 298.8zm875 500q0 -27.3 -17.6 -44.9 -17.6 -17.6 -44.9 -17.6h-750q-27.3 0 -44.9 17.6T0 798.8t17.6 45 44.9 17.5h750q27.3 0 44.9 -17.5t17.6 -45z"/></svg>