<svg height="1000" width="875" xmlns="http://www.w3.org/2000/svg"><path d="M875 48.8q0 27.4 -17.6 45 -17.6 17.5 -44.9 17.5H375q-27.3 0 -44.9 -17.5t-17.6 -45T330.1 3.9 375 -13.7h437.5q27.3 0 44.9 17.6T875 48.8zm0 500q0 27.4 -17.6 45 -17.6 17.5 -44.9 17.5H375q-27.3 0 -44.9 -17.5t-17.6 -45 17.6 -44.9T375 486.3h437.5q27.3 0 44.9 17.6t17.6 44.9zM0 298.8q0 -27.3 17.6 -44.9 17.6 -17.6 44.9 -17.6h750q27.3 0 44.9 17.6t17.6 44.9 -17.6 45 -44.9 17.5h-750q-27.3 0 -44.9 -17.5T0 298.8zm875 500q0 27.4 -17.6 45 -17.6 17.5 -44.9 17.5h-750q-27.3 0 -44.9 -17.5T0 798.8t17.6 -44.9 44.9 -17.6h750q27.3 0 44.9 17.6t17.6 44.9z"/></svg>