<svg height="1000" width="875" xmlns="http://www.w3.org/2000/svg"><path d="M687.5 48.8q0 -27.3 -17.6 -44.9Q652.3 -13.7 625 -13.7H250q-27.3 0 -44.9 17.6t-17.6 44.9 17.6 45 44.9 17.5h375q27.3 0 44.9 -17.5t17.6 -45zm187.5 250q0 -27.3 -17.6 -44.9 -17.6 -17.6 -44.9 -17.6h-750q-27.3 0 -44.9 17.6T0 298.8t17.6 45 44.9 17.5h750q27.3 0 44.9 -17.5t17.6 -45zM0 798.8q0 27.4 17.6 45 17.6 17.5 44.9 17.5h750q27.3 0 44.9 -17.5t17.6 -45 -17.6 -44.9 -44.9 -17.6h-750q-27.3 0 -44.9 17.6T0 798.8zm687.5 -250q0 -27.3 -17.6 -44.9Q652.3 486.3 625 486.3H250q-27.3 0 -44.9 17.6t-17.6 44.9 17.6 45 44.9 17.5h375q27.3 0 44.9 -17.5t17.6 -45z"/></svg>