<svg height="1000" width="875" xmlns="http://www.w3.org/2000/svg"><path d="M562.5 48.8q0 27.4 -17.6 45 -17.6 17.5 -44.9 17.5H62.5q-27.3 0 -44.9 -17.5T0 48.8 17.6 3.9t44.9 -17.6H500q27.3 0 44.9 17.6t17.6 44.9zm0 500q0 27.4 -17.6 45 -17.6 17.5 -44.9 17.5H62.5q-27.3 0 -44.9 -17.5T0 548.8t17.6 -44.9 44.9 -17.6H500q27.3 0 44.9 17.6t17.6 44.9zM0 298.8q0 -27.3 17.6 -44.9 17.6 -17.6 44.9 -17.6h750q27.3 0 44.9 17.6t17.6 44.9 -17.6 45 -44.9 17.5h-750q-27.3 0 -44.9 -17.5T0 298.8zm875 500q0 27.4 -17.6 45 -17.6 17.5 -44.9 17.5h-750q-27.3 0 -44.9 -17.5T0 798.8t17.6 -44.9 44.9 -17.6h750q27.3 0 44.9 17.6t17.6 44.9z"/></svg>