<svg height="1000" width="1250" xmlns="http://www.w3.org/2000/svg"><path d="M625 111.3q0 27.4 -17.6 45 -17.6 17.5 -44.9 17.5t-44.9 -17.5 -17.6 -45 17.6 -44.9 44.9 -17.6 44.9 17.6 17.6 44.9zm41 156.3q80.1 -54.7 84 -156.3 -2 -80 -54.7 -132.8T562.5 -76.2q-80.1 2 -132.8 54.7T375 111.3q3.9 101.6 84 156.3h-21.5q-27.3 0 -44.9 17.6T375 330.1t17.6 44.9 44.9 17.6H500v406.2h-93.7q-80.1 -1.9 -132.9 -54.7T218.8 611.3v-11.7l13.6 13.7q33.2 27.3 66.4 0 27.4 -33.2 0 -66.4L189.5 437.5q-33.2 -27.3 -66.5 0L13.7 546.9q-27.4 33.2 0 66.4 33.2 27.3 66.4 0l13.7 -13.7v11.7q3.9 132.8 91.7 220.7t220.8 91.8h312.5q23.4 0 46.8 -3.9Q699.2 871.1 662.1 798.8H625V392.6h62.5q27.3 0 44.9 -17.6T750 330.1t-17.6 -44.9 -44.9 -17.6H666zm584 375q0 -76.2 -37.1 -140.6 -37.1 -64.5 -103.5 -103.6Q1043 361.3 968.8 361.3t-140.7 37.1Q761.7 437.5 724.6 502t-37.1 140.6 37.1 140.6 103.5 103.5q66.4 37.1 140.7 37.1t140.6 -37.1q66.4 -39 103.5 -103.5T1250 642.6zm-150.4 -84q19.5 21.5 0 43L959 742.2q-21.5 19.5 -43 0l-78.1 -78.1q-19.5 -21.5 0 -43 21.5 -19.5 43 0l56.6 54.7 119.1 -117.2q21.5 -19.5 43 0z"/></svg>