<svg height="1000" width="1250" xmlns="http://www.w3.org/2000/svg"><path d="M625 111.3q0 27.4 -17.6 45 -17.6 17.5 -44.9 17.5t-44.9 -17.5 -17.6 -45 17.6 -44.9 44.9 -17.6 44.9 17.6 17.6 44.9zm41 156.3q80.1 -54.7 84 -156.3 -2 -80 -54.7 -132.8T562.5 -76.2q-80.1 2 -132.8 54.7T375 111.3q3.9 101.6 84 156.3h-21.5q-27.3 0 -44.9 17.6T375 330.1t17.6 44.9 44.9 17.6H500v406.2h-93.7q-80.1 -1.9 -132.9 -54.7T218.8 611.3v-11.7l13.6 13.7q33.2 27.3 66.4 0 27.4 -33.2 0 -66.4L189.5 437.5q-33.2 -27.3 -66.5 0L13.7 546.9q-27.4 33.2 0 66.4 33.2 27.3 66.4 0l13.7 -13.7v11.7q3.9 132.8 91.7 220.7t220.8 91.8h312.5q23.4 0 46.8 -3.9Q750 894.5 750 861.3v-64.4q-15.6 1.9 -31.2 1.9H625V392.6h62.5q27.3 0 44.9 -17.6T750 330.1t-17.6 -44.9 -44.9 -17.6H666zm365.3 125q27.3 0 44.9 17.6 17.6 17.5 17.6 44.9v93.7h-125v-93.7q0 -27.4 17.5 -44.9t45 -17.6zM875 455.1v93.7 -93.7 93.7q-27.3 0 -44.9 17.6t-17.6 44.9v250q0 27.4 17.6 45t44.9 17.5h312.5q27.3 0 44.9 -17.5t17.6 -45v-250q0 -27.3 -17.6 -44.9t-44.9 -17.6v-93.7q-2 -66.4 -44.9 -111.3 -44.9 -43 -111.3 -45 -66.5 2 -111.4 45Q877 388.7 875 455.1z"/></svg>