<svg height="1000" width="1250" xmlns="http://www.w3.org/2000/svg"><path d="M625 111.3q0 27.4 -17.6 45 -17.6 17.5 -44.9 17.5t-44.9 -17.5 -17.6 -45 17.6 -44.9 44.9 -17.6 44.9 17.6 17.6 44.9zm41 156.3q80.1 -54.7 84 -156.3 -2 -80 -54.7 -132.8T562.5 -76.2q-80.1 2 -132.8 54.7T375 111.3q3.9 101.6 84 156.3h-21.5q-27.3 0 -44.9 17.6T375 330.1t17.6 44.9 44.9 17.6H500v406.2h-93.7q-80.1 -1.9 -132.9 -54.7T218.8 611.3v-11.7l13.6 13.7q33.2 27.3 66.4 0 27.4 -33.2 0 -66.4L189.5 437.5q-33.2 -27.3 -66.5 0L13.7 546.9q-27.4 33.2 0 66.4 33.2 27.3 66.4 0l13.7 -13.7v11.7q3.9 132.8 91.7 220.7t220.8 91.8h312.5q23.4 0 46.8 -3.9Q699.2 871.1 662.1 798.8H625V392.6h62.5q27.3 0 44.9 -17.6T750 330.1t-17.6 -44.9 -44.9 -17.6H666zm302.8 656.2q76.1 0 140.6 -37.1 64.4 -37.1 103.5 -103.5Q1250 716.8 1250 642.6T1212.9 502q-39.1 -66.5 -103.5 -103.6T968.8 361.3t-140.7 37.1T724.6 502q-37.1 66.4 -37.1 140.6t37.1 140.6q39.1 66.4 103.5 103.5t140.7 37.1zm0 -187.5q42.9 3.9 46.8 46.9 -3.9 43 -46.8 46.9 -43 -3.9 -46.9 -46.9 3.9 -43 46.9 -46.9zm0 -281.2q29.2 1.9 31.2 31.2v156.3q-2 29.3 -31.2 31.2 -29.3 -1.9 -31.3 -31.2V486.3q2 -29.3 31.3 -31.2z"/></svg>