<svg height="1000" width="1250" xmlns="http://www.w3.org/2000/svg"><path d="M625 111.3q0 27.4 -17.6 45 -17.6 17.5 -44.9 17.5t-44.9 -17.5 -17.6 -45 17.6 -44.9 44.9 -17.6 44.9 17.6 17.6 44.9zm41 156.3q80.1 -54.7 84 -156.3 -2 -80 -54.7 -132.8T562.5 -76.2q-80.1 2 -132.8 54.7T375 111.3q3.9 101.6 84 156.3h-21.5q-27.3 0 -44.9 17.6T375 330.1t17.6 44.9 44.9 17.6H500v406.2h-93.7q-80.1 -1.9 -132.9 -54.7T218.8 611.3v-11.7l13.6 13.7q33.2 27.3 66.4 0 27.4 -33.2 0 -66.4L189.5 437.5q-33.2 -27.3 -66.5 0L13.7 546.9q-27.4 33.2 0 66.4 33.2 27.3 66.4 0l13.7 -13.7v11.7q3.9 132.8 91.7 220.7t220.8 91.8h312.5q23.4 0 46.8 -3.9Q699.2 871.1 662.1 798.8H625V392.6h62.5q27.3 0 44.9 -17.6T750 330.1t-17.6 -44.9 -44.9 -17.6H666zm302.8 656.2q76.1 0 140.6 -37.1 64.4 -37.1 103.5 -103.5Q1250 716.8 1250 642.6T1212.9 502q-39.1 -66.5 -103.5 -103.6T968.8 361.3t-140.7 37.1T724.6 502q-37.1 66.4 -37.1 140.6t37.1 140.6q39.1 66.4 103.5 103.5t140.7 37.1zM1084 570.3l-70.3 72.3 70.3 -72.3 -70.3 72.3 70.3 72.2q19.5 21.5 0 43 -21.5 19.5 -43 0l-72.2 -70.3 -72.3 70.3q-21.5 19.5 -43 0 -19.5 -21.5 0 -43l70.3 -72.2 -70.3 -72.3q-19.5 -21.5 0 -43 21.5 -19.5 43 0l72.3 70.4 72.2 -70.4q21.5 -19.5 43 0 19.5 21.5 0 43z"/></svg>