<svg height="1000" width="875" xmlns="http://www.w3.org/2000/svg"><path d="M482.4 3.9q-19.5 -17.6 -44.9 -17.6T392.6 3.9L80.1 316.4q-17.6 19.5 -17.6 44.9t17.6 45q19.5 17.5 44.9 17.5t44.9 -17.5L437.5 136.7l267.6 269.6q19.5 17.5 44.9 17.5t44.9 -17.5q17.6 -19.6 17.6 -45t-17.6 -44.9L482.4 3.9zm312.5 687.5L482.4 378.9l312.5 312.5L482.4 378.9q-19.5 -17.6 -44.9 -17.6t-44.9 17.6L80.1 691.4q-17.6 19.5 -17.6 44.9t17.6 45q19.5 17.5 44.9 17.5t44.9 -17.5L437.5 511.7l267.6 269.6q19.5 17.5 44.9 17.5t44.9 -17.5q17.6 -19.6 17.6 -45t-17.6 -44.9z"/></svg>