<svg height="1000" width="1000" xmlns="http://www.w3.org/2000/svg"><path d="M80.1 378.9q-17.6 19.5 -17.6 44.9t17.6 45l312.5 312.5q19.5 17.5 44.9 17.5t44.9 -17.5q17.6 -19.6 17.6 -45t-17.6 -44.9L212.9 423.8 482.4 156.3q17.6 -19.6 17.6 -45T482.4 66.4Q462.9 48.8 437.5 48.8t-44.9 17.6L80.1 378.9zM767.6 66.4L455.1 378.9 767.6 66.4 455.1 378.9q-17.6 19.5 -17.6 44.9t17.6 45l312.5 312.5q19.5 17.5 44.9 17.5t44.9 -17.5q17.6 -19.6 17.6 -45t-17.6 -44.9L587.9 423.8 857.4 156.3q17.6 -19.6 17.6 -45T857.4 66.4Q837.9 48.8 812.5 48.8t-44.9 17.6z"/></svg>