<svg height="1000" width="875" xmlns="http://www.w3.org/2000/svg"><path d="M482.4 843.8q-19.5 17.5 -44.9 17.5t-44.9 -17.5L80.1 531.3q-17.6 -19.6 -17.6 -45t17.6 -44.9Q99.6 423.8 125 423.8t44.9 17.6l267.6 269.5L705.1 441.4q19.5 -17.6 44.9 -17.6t44.9 17.6q17.6 19.5 17.6 44.9t-17.6 45L482.4 843.8zM794.9 156.3L482.4 468.8 794.9 156.3 482.4 468.8q-19.5 17.5 -44.9 17.5t-44.9 -17.5L80.1 156.3q-17.6 -19.6 -17.6 -45T80.1 66.4Q99.6 48.8 125 48.8t44.9 17.6l267.6 269.5L705.1 66.4Q724.6 48.8 750 48.8t44.9 17.6q17.6 19.5 17.6 44.9t-17.6 45z"/></svg>