<svg height="1000" width="1000" xmlns="http://www.w3.org/2000/svg"><path d="M919.9 468.8q17.6 -19.6 17.6 -45t-17.6 -44.9L607.4 66.4Q587.9 48.8 562.5 48.8t-44.9 17.6Q500 85.9 500 111.3t17.6 45l269.5 267.5L517.6 691.4Q500 710.9 500 736.3t17.6 45q19.5 17.5 44.9 17.5t44.9 -17.5L919.9 468.8zM232.4 781.3L544.9 468.8 232.4 781.3 544.9 468.8q17.6 -19.6 17.6 -45t-17.6 -44.9L232.4 66.4Q212.9 48.8 187.5 48.8t-44.9 17.6Q125 85.9 125 111.3t17.6 45l269.5 267.5L142.6 691.4Q125 710.9 125 736.3t17.6 45q19.5 17.5 44.9 17.5t44.9 -17.5z"/></svg>