<svg height="1000" width="625" xmlns="http://www.w3.org/2000/svg"><path d="M187.5 173.8q2 -52.7 37.1 -87.9 35.2 -35.1 87.9 -37.1 52.7 2 87.9 37.1t37.1 87.9q0 60.6 -27.3 111.4 -25.4 50.7 -64.5 91.8l-33.2 33.2L279.3 377q-39.1 -41.1 -64.5 -91.8Q187.5 234.4 187.5 173.8zm125 -250q-105.5 2 -177.7 72.3Q64.5 68.4 62.5 173.8q2 76.2 27.3 138.7 25.4 64.5 64.5 111.3H62.5q-27.3 0 -44.9 17.6T0 486.3t17.6 45 44.9 17.5H250v312.5q0 27.4 17.6 45t44.9 17.5 44.9 -17.5 17.6 -45V548.8h187.5q27.3 0 44.9 -17.5t17.6 -45 -17.6 -44.9 -44.9 -17.6h-91.8Q509.8 377 535.2 312.5 560.5 250 562.5 173.8 560.5 68.4 490.2 -3.9 418 -74.2 312.5 -76.2z"/></svg>