<svg height="1000" width="875" xmlns="http://www.w3.org/2000/svg"><path d="M437.5 142.6q-29.3 -2 -31.2 -31.3V80.1q1.9 -66.4 44.9 -111.4 44.9 -42.9 111.3 -44.9h31.3q29.2 2 31.2 31.3v31.2q-2 66.4 -44.9 111.4 -44.9 42.9 -111.3 44.9h-31.3zM0 486.3Q0 369.1 52.7 273.4q54.7 -93.7 166.1 -99.6 41 0 83.9 11.7t78.2 25.4q56.6 21.5 113.2 0 35.2 -13.6 78.2 -25.4t84 -11.7q111.3 5.9 166 99.6Q875 369.1 875 486.3q-3.9 191.4 -97.7 312.5 -91.8 121.1 -214.8 125 -25.4 0 -52.7 -7.8t-46.9 -13.7q-25.4 -9.7 -48.8 0 -21.5 5.9 -48.9 13.7t-52.7 7.8Q191.4 919.9 97.7 798.8T0 486.3z"/></svg>