<svg height="1000" width="1250" xmlns="http://www.w3.org/2000/svg"><path d="M294.9 906.3L482.4 718.8 294.9 906.3 482.4 718.8q17.6 -19.6 17.6 -45t-17.6 -44.9q-19.5 -17.6 -44.9 -17.6t-44.9 17.6l-80.1 82V486.3h500v-31.2q0 -50.8 21.5 -93.8H687.5V136.7l80.1 82.1q19.5 17.5 44.9 17.5t44.9 -17.5q17.6 -19.6 17.6 -45t-17.6 -44.9L669.9 -58.6Q650.4 -76.2 625 -76.2t-44.9 17.6L392.6 128.9Q375 148.4 375 173.8t17.6 45q19.5 17.5 44.9 17.5t44.9 -17.5l80.1 -82.1v224.6h-500q-27.3 0 -44.9 17.6T0 423.8t17.6 45 44.9 17.5h125v224.6l-80.1 -82Q87.9 611.3 62.5 611.3t-44.9 17.6Q0 648.4 0 673.8t17.6 45l187.5 187.5q19.5 17.5 44.9 17.5t44.9 -17.5zm17.6 -607.5v-250 250 -250q0 -27.3 -17.6 -44.9T250 -13.7 205.1 3.9t-17.6 44.9v250h125zm250 250v250 -250 250q0 27.4 17.6 45t44.9 17.5 44.9 -17.5 17.6 -45v-250h-125zm468.8 -156.2q27.3 0 44.9 17.6 17.6 17.5 17.6 44.9v93.7h-125v-93.7q0 -27.4 17.5 -44.9t45 -17.6zM875 455.1v93.7 -93.7 93.7q-27.3 0 -44.9 17.6t-17.6 44.9v250q0 27.4 17.6 45t44.9 17.5h312.5q27.3 0 44.9 -17.5t17.6 -45v-250q0 -27.3 -17.6 -44.9t-44.9 -17.6v-93.7q-2 -66.4 -44.9 -111.3 -44.9 -43 -111.3 -45 -66.5 2 -111.4 45Q877 388.7 875 455.1z"/></svg>