<svg height="1000" width="1250" xmlns="http://www.w3.org/2000/svg"><path d="M281.3 -76.2q-43 3.9 -46.9 46.9v230.5l-44.9 -44.9q-33.2 -27.4 -66.5 0 -27.3 33.2 0 66.4l125 125q33.3 27.3 66.5 0l125 -125q27.3 -33.2 0 -66.4 -33.2 -27.4 -66.5 0l-44.9 44.9V-29.3q-3.9 -43 -46.8 -46.9zm421.8 390.7q-1.9 -45 -39 -68.4 -39.1 -19.5 -78.2 0 -37.1 23.4 -39 68.4 1.9 44.9 39 68.3 39.1 19.5 78.2 0 37.1 -23.4 39 -68.3zM359.4 502q-2 -45 -39.1 -68.4 -39 -19.5 -78.1 0Q205.1 457 203.1 502q2 44.9 39.1 68.3 39.1 19.5 78.1 0 37.1 -23.4 39.1 -68.3zm609.4 78.1q44.9 -2 68.3 -39.1 19.5 -39 0 -78.1 -23.4 -37.1 -68.3 -39.1 -45 2 -68.4 39.1 -19.5 39.1 0 78.1 23.4 37.1 68.4 39.1zm-578.2 207l52.8 95.7 -52.8 -95.7 52.8 95.7q23.4 37.1 62.5 19.5 37.1 -23.4 19.5 -62.5L455.1 707q3.9 -3.9 7.8 -11.7l52.7 -95.7v105.5q0 27.3 17.6 44.9t44.9 17.6h93.8q27.3 0 44.9 -17.6t17.6 -44.9V599.6l52.7 95.7q3.9 7.8 7.8 11.7l-70.3 132.8q-17.6 39.1 19.5 62.5 39.1 17.6 62.5 -19.5l52.8 -95.7v74.2q0 27.4 17.6 45t44.9 17.5h93.7q27.4 0 44.9 -17.5t17.6 -45v-74.2l52.8 95.7q23.4 37.1 62.5 19.5 37.1 -23.4 19.5 -62.5l-74.2 -138.6q-23.5 -41 -62.5 -64.5 -41 -25.4 -87.9 -25.4h-39.1q-48.8 0 -87.9 25.4l-66.4 -123q-23.4 -41 -62.5 -64.5 -41 -25.4 -87.9 -25.4h-39q-46.9 0 -87.9 25.4 -39.1 23.5 -62.5 64.5l-66.4 123q-39.1 -25.4 -87.9 -25.4h-39.1q-46.9 0 -87.9 25.4 -39 23.5 -62.5 64.5L37.1 839.8q-17.6 39.1 19.5 62.5 39.1 17.6 62.5 -19.5l52.8 -95.7v74.2q0 27.4 17.6 45t44.9 17.5h93.7q27.4 0 44.9 -17.5t17.6 -45v-74.2zM810.5 222.7l125 125 -125 -125 125 125q33.3 27.3 66.5 0l125 -125q27.3 -33.2 0 -66.4 -33.2 -27.4 -66.5 0l-44.9 44.9V-29.3q-3.9 -43 -46.8 -46.9 -43 3.9 -46.9 46.9v230.5L877 156.3q-33.2 -27.4 -66.5 0 -27.3 33.2 0 66.4z"/></svg>