<svg height="1000" width="1125" xmlns="http://www.w3.org/2000/svg"><path d="M267.6 906.3q19.5 17.5 44.9 17.5t44.9 -17.5L544.9 718.8q17.6 -19.6 17.6 -45t-17.6 -44.9Q525.4 611.3 500 611.3t-44.9 17.6l-80.1 82V486.3h687.5q27.3 0 44.9 -17.5t17.6 -45 -17.6 -44.9 -44.9 -17.6H875V136.7l80.1 82.1q19.5 17.5 44.9 17.5t44.9 -17.5q17.6 -19.6 17.6 -45t-17.6 -44.9L857.4 -58.6q-19.5 -17.6 -44.9 -17.6t-44.9 17.6L580.1 128.9q-17.6 19.5 -17.6 44.9t17.6 45q19.5 17.5 44.9 17.5t44.9 -17.5L750 136.7v224.6H62.5q-27.3 0 -44.9 17.6T0 423.8t17.6 45 44.9 17.5H250v224.6l-80.1 -82Q150.4 611.3 125 611.3t-44.9 17.6q-17.6 19.5 -17.6 44.9t17.6 45l187.5 187.5zM250 298.8h125H250h125v-250Q375 21.5 357.4 3.9t-44.9 -17.6T267.6 3.9 250 48.8v250zm625 250H750h125H750v250q0 27.4 17.6 45t44.9 17.5 44.9 -17.5 17.6 -45v-250z"/></svg>