<svg height="1000" width="1125" xmlns="http://www.w3.org/2000/svg"><path d="M880.9 -2q-27.4 -17.5 -56.7 -7.8l-93.7 31.3q-25.4 7.8 -37.1 31.2 -9.8 21.5 -2 46.9t31.3 37.1q21.4 9.8 46.8 2l11.8 -3.9v101.5H750q-27.3 0 -44.9 17.6t-17.6 44.9 17.6 45 44.9 17.5h187.5q27.3 0 44.9 -17.5t17.6 -45 -17.6 -44.9 -44.9 -17.6h-31.2V48.8q0 -31.2 -25.4 -50.8zM312.5 861.3q27.3 0 46.9 -19.5L531.3 654.3q17.5 -21.5 15.6 -44.9 -2 -25.4 -19.6 -44.9 -21.4 -17.6 -44.9 -15.7 -25.4 2 -44.9 19.6L375 638.7V48.8Q375 21.5 357.4 3.9t-44.9 -17.6T267.6 3.9 250 48.8v589.9l-62.5 -70.3Q168 550.8 142.6 548.8q-23.5 -1.9 -44.9 15.7Q80.1 584 78.1 609.4q-1.9 23.4 15.7 44.9l171.8 187.5q19.6 19.5 46.9 19.5zM816.4 523.4q25.4 -11.7 48.8 -1.9 23.5 7.8 35.2 31.2 9.8 25.4 1.9 48.9t-31.2 35.1q-25.4 9.8 -48.8 2t-35.2 -31.3q-9.8 -25.4 -1.9 -48.8t31.2 -35.2zM791 744.1l-13.7 17.6L791 744.1l-13.7 17.6q-15.6 21.5 -11.7 46.9 3.9 23.4 25.4 41 21.5 15.6 46.9 11.7 23.4 -3.9 41 -25.4L974.6 707q41 -56.6 41 -126.9Q1013.7 507.8 964.8 459t-121 -50.8q-72.3 2 -121.1 50.8t-50.8 121.1q1.9 58.6 33.2 101.5 33.2 45 85.9 62.5z"/></svg>