<svg height="1000" width="1250" xmlns="http://www.w3.org/2000/svg"><path d="M17.6 -58.6q19.5 -17.6 44.9 -17.6t44.9 17.6l205.1 207v-37.1q0 -27.3 17.6 -44.9T375 48.8t44.9 17.6 17.6 44.9v187.5q0 13.7 -3.9 23.5 -5.9 11.7 -13.7 21.5 -9.7 7.8 -21.5 13.6 -9.7 3.9 -23.4 3.9H187.5q-27.3 0 -44.9 -17.5t-17.6 -45 17.6 -44.9 44.9 -17.6h37.1l-207 -205Q0 11.7 0 -13.7t17.6 -44.9zM500 423.8q2 -70.3 62.5 -107.4 62.5 -35.1 125 0Q748 353.5 750 423.8q-2 70.3 -62.5 107.5 -62.5 35.1 -125 0Q502 494.1 500 423.8zM224.6 611.3h-37.1 37.1 -37.1q-27.3 0 -44.9 -17.5t-17.6 -45 17.6 -44.9 44.9 -17.6H375q27.3 0 44.9 17.6 7.8 9.8 13.7 21.5 3.9 9.8 3.9 23.4v187.5q0 27.4 -17.6 45T375 798.8t-44.9 -17.5 -17.6 -45v-37.1L107.4 906.3q-19.5 17.5 -44.9 17.5T17.6 906.3Q0 886.7 0 861.3t17.6 -44.9l207 -205.1zm587.9 -500q0 -27.3 17.6 -44.9Q847.7 48.8 875 48.8t44.9 17.6 17.6 44.9v37.1l205.1 -207q19.5 -17.6 44.9 -17.6t44.9 17.6q17.6 19.5 17.6 44.9t-17.6 45l-207 205h37.1q27.3 0 44.9 17.6t17.6 44.9 -17.6 45 -44.9 17.5H875q-27.3 0 -44.9 -17.5 -7.8 -9.8 -13.7 -21.5 -3.9 -9.8 -3.9 -23.5V111.3zm212.9 500l207 205.1 -207 -205.1 207 205.1q17.6 19.5 17.6 44.9t-17.6 45q-19.5 17.5 -44.9 17.5t-44.9 -17.5L937.5 699.2v37.1q0 27.4 -17.6 45T875 798.8t-44.9 -17.5 -17.6 -45V548.8q0 -13.6 3.9 -23.4 5.9 -11.7 13.7 -21.5 17.6 -17.6 44.9 -17.6h187.5q27.3 0 44.9 17.6t17.6 44.9 -17.6 45 -44.9 17.5h-37.1z"/></svg>