<svg height="1000" width="1125" xmlns="http://www.w3.org/2000/svg"><path d="M62.5 111.3h1000H62.5h1000q27.3 0 44.9 -17.5t17.6 -45T1107.4 3.9t-44.9 -17.6H62.5q-27.3 0 -44.9 17.6T0 48.8t17.6 45 44.9 17.5zM17.6 378.9Q0 398.4 0 423.8t17.6 45q19.5 17.5 44.9 17.5t44.9 -17.5l80.1 -82.1v412.1q0 27.4 17.6 45t44.9 17.5 44.9 -17.5 17.6 -45V386.7l80.1 82.1q19.5 17.5 44.9 17.5t44.9 -17.5q17.6 -19.6 17.6 -45t-17.6 -44.9L294.9 191.4Q275.4 173.8 250 173.8t-44.9 17.6L17.6 378.9zm625 89.9q19.5 17.5 44.9 17.5t44.9 -17.5l80.1 -82.1v412.1q0 27.4 17.6 45t44.9 17.5 44.9 -17.5 17.6 -45V386.7l80.1 82.1q19.5 17.5 44.9 17.5t44.9 -17.5q17.6 -19.6 17.6 -45t-17.6 -44.9L919.9 191.4Q900.4 173.8 875 173.8t-44.9 17.6L642.6 378.9Q625 398.4 625 423.8t17.6 45z"/></svg>