<svg height="1000" width="1000" xmlns="http://www.w3.org/2000/svg"><path d="M482.4 218.8q-19.5 17.5 -44.9 17.5t-44.9 -17.5Q375 199.2 375 173.8t17.6 -44.9L580.1 -58.6q19.5 -17.6 44.9 -17.6t44.9 17.6l187.5 187.5q17.6 19.5 17.6 44.9t-17.6 45q-19.5 17.5 -44.9 17.5t-44.9 -17.5l-80.1 -82.1v537.1q2 52.8 37.1 87.9t87.9 37.1h125q27.3 0 44.9 17.6t17.6 44.9 -17.6 45 -44.9 17.5h-125Q707 921.9 634.8 851.6 564.5 779.3 562.5 673.8q-2 -52.7 -37.1 -87.9t-87.9 -37.1H212.9l82 80.1q17.6 19.5 17.6 44.9t-17.6 45q-19.5 17.5 -44.9 17.5t-44.9 -17.5L17.6 531.3Q0 511.7 0 486.3t17.6 -44.9L205.1 253.9q19.5 -17.6 44.9 -17.6t44.9 17.6q17.6 19.5 17.6 44.9t-17.6 45l-82 80h224.6q68.4 0 125 33.2V136.7l-80.1 82.1z"/></svg>