<svg height="1000" width="1000" xmlns="http://www.w3.org/2000/svg"><path d="M205.1 320.3q23.4 -66.4 74.2 -117.2Q375 111.3 500 111.3t220.7 91.8l33.2 33.2h-66.4q-27.3 0 -44.9 17.6T625 298.8t17.6 45 44.9 17.5h218.8q27.3 0 44.9 -17.5t17.6 -45V80.1q0 -27.4 -17.6 -44.9T906.3 17.6t-45 17.6 -17.5 44.9v68.3l-35.2 -33.2Q722.7 29.3 611.3 0 500 -27.3 388.7 0 277.3 29.3 191.4 115.2 119.1 187.5 87.9 277.3q-7.8 25.4 1.9 48.9 11.8 21.5 35.2 31.2 25.4 7.8 48.8 -1.9 21.5 -11.7 31.3 -35.2zm-128.9 168q-15.7 5.8 -27.4 17.6t-15.6 27.3q0 2 -1.9 5.9v228.5q0 27.3 17.5 44.9t45 17.6 44.9 -17.6 17.6 -44.9v-68.4l35.1 33.2q85.9 86 197.3 115.3 111.3 27.3 222.6 0Q722.7 818.4 808.6 732.4q72.3 -72.2 103.5 -162.1 7.8 -25.4 -1.9 -48.8Q898.4 500 875 490.2q-25.4 -7.8 -48.8 2 -21.5 11.7 -31.3 35.1 -23.4 64.5 -74.2 117.2Q625 736.3 500 736.3T279.3 644.5l-33.2 -33.2h66.4q27.3 0 44.9 -17.5t17.6 -45 -17.6 -44.9 -44.9 -17.6H85.9q-5.8 2 -9.7 2z"/></svg>