<svg height="1000" width="1000" xmlns="http://www.w3.org/2000/svg"><path d="M246.1 236.3h97.7 -97.7 97.7q27.3 0 44.9 17.6t17.6 44.9 -17.6 45 -44.9 17.5h-250q-27.4 0 -45 -17.5t-17.5 -45v-250q0 -27.3 17.5 -44.9t45 -17.6 44.9 17.6 17.6 44.9v99.6l35.1 -33.2Q277.3 29.3 388.7 0 500 -27.3 611.3 0q111.4 29.3 197.3 115.2t115.2 197.3q27.4 111.3 0 222.7Q894.5 646.5 808.6 732.4T611.3 847.7Q500 875 388.7 847.7 277.3 818.4 191.4 732.4q-19.5 -17.6 -19.5 -42.9t19.5 -45Q209 627 234.4 627t44.9 17.5Q375 736.3 500 736.3t220.7 -91.8q91.8 -95.7 91.8 -220.7T720.7 203.1Q625 111.3 500 111.3t-220.7 91.8l-33.2 33.2z"/></svg>