<svg height="1000" width="1125" xmlns="http://www.w3.org/2000/svg"><path d="M218.8 -76.2q-39.1 2 -66.5 27.4Q127 -21.5 125 17.6v406.2H93.8q-39.1 2 -66.5 27.4Q2 478.5 0 517.6v187.5q0 23.4 9.8 42.9l23.4 -7.8q41 -9.7 74.2 -35.1 33.2 -29.3 74.2 -29.3 41.1 -2 78.2 21.5 56.6 39 115.2 39 64.5 -1.9 115.2 -39 33.2 -23.5 72.3 -23.5t72.3 23.5q56.6 39 115.2 39t115.2 -39q37.1 -23.5 78.2 -21.5 41 0 74.2 29.3 33.2 25.4 74.2 35.1l23.4 7.8q9.8 -19.5 9.8 -42.9V517.6q-2 -39.1 -27.3 -66.4 -27.4 -25.4 -66.4 -27.4h-93.8V136.7l48.8 50.8q19.6 17.6 45 17.6t44.9 -17.6q17.6 -19.5 17.6 -44.9t-17.6 -44.9L919.9 -58.6Q900.4 -76.2 875 -76.2t-44.9 17.6L673.8 97.7q-17.5 19.5 -17.5 44.9t17.5 44.9q19.6 17.6 45 17.6t44.9 -17.6l48.8 -50.8v287.1h-250V17.6q-2 -39.1 -27.3 -66.4 -27.4 -25.4 -66.4 -27.4h-250zM599.6 748q-37.1 -23.4 -72.3 0Q459 796.9 375 798.8 293 794.9 224.6 748q-41 -25.3 -78.1 4 -43 35.1 -97.7 48.8 -25.4 5.8 -39 27.3T2 875t27.3 39.1 46.9 7.8Q150.4 902.3 191.4 873q85.9 48.9 183.6 50.8 95.7 -5.8 156.3 -37.1 17.5 -7.8 31.2 -15.6 13.7 7.8 31.3 15.6Q654.3 918 750 923.8q97.7 -1.9 185.5 -50.8 39.1 29.3 113.3 48.9 25.4 5.8 46.9 -7.8T1123 875t-7.8 -46.9 -39 -27.3Q1021.5 787.1 978.5 752q-37.1 -27.4 -78.1 -4Q832 794.9 750 798.8 668 796.9 599.6 748z"/></svg>