<svg height="1000" width="1000" xmlns="http://www.w3.org/2000/svg"><path d="M687.5 111.3h125 -125 125q27.3 0 44.9 17.6t17.6 44.9v500q0 27.4 -17.6 45t-44.9 17.5h-125q-27.3 0 -44.9 17.6T625 798.8t17.6 45 44.9 17.5h125q80.1 -1.9 132.8 -54.7T1000 673.8v-500Q998 93.8 945.3 41T812.5 -13.7h-125q-27.3 0 -44.9 17.6T625 48.8t17.6 45 44.9 17.5zm-17.6 357.5q17.6 -19.6 17.6 -45t-17.6 -44.9l-250 -250Q400.4 111.3 375 111.3t-44.9 17.6q-17.6 19.5 -17.6 44.9t17.6 45l144.5 142.5H62.5q-27.3 0 -44.9 17.6T0 423.8t17.6 45 44.9 17.5h412.1L330.1 628.9q-17.6 19.5 -17.6 44.9t17.6 45q19.5 17.5 44.9 17.5t44.9 -17.5l250 -250z"/></svg>