<svg height="1000" width="1125" xmlns="http://www.w3.org/2000/svg"><path d="M1062.5 736.3H62.5h1000H62.5q-27.3 0 -44.9 17.6T0 798.8t17.6 45 44.9 17.5h1000q27.3 0 44.9 -17.5t17.6 -45 -17.6 -44.9 -44.9 -17.6zm44.9 -267.5q17.6 -19.6 17.6 -45t-17.6 -44.9q-19.5 -17.6 -44.9 -17.6t-44.9 17.6l-80.1 82V48.8q0 -27.3 -17.6 -44.9T875 -13.7 830.1 3.9t-17.6 44.9v412.1l-80.1 -82q-19.5 -17.6 -44.9 -17.6t-44.9 17.6Q625 398.4 625 423.8t17.6 45l187.5 187.5q19.5 17.5 44.9 17.5t44.9 -17.5l187.5 -187.5zm-625 -89.9q-19.5 -17.6 -44.9 -17.6t-44.9 17.6l-80.1 82V48.8q0 -27.3 -17.6 -44.9T250 -13.7 205.1 3.9t-17.6 44.9v412.1l-80.1 -82Q87.9 361.3 62.5 361.3t-44.9 17.6Q0 398.4 0 423.8t17.6 45l187.5 187.5q19.5 17.5 44.9 17.5t44.9 -17.5L482.4 468.8q17.6 -19.6 17.6 -45t-17.6 -44.9z"/></svg>