<svg height="1000" width="1000" xmlns="http://www.w3.org/2000/svg"><path d="M500 111.3q115.2 2 197.3 70.3l-62.5 64.5q-13.7 13.7 -7.8 33.2 9.7 17.6 29.3 19.5H875q29.3 -1.9 31.3 -31.2V48.8q0 -19.5 -19.6 -29.3 -19.5 -5.8 -33.2 7.8l-66.4 66.5Q668 -9.8 500 -13.7q-31.2 0 -62.5 3.9v127q29.3 -5.9 62.5 -5.9zM257.8 226.6l64.5 62.5 -64.5 -62.5 64.5 62.5q13.6 13.6 33.2 7.8Q373 287.1 375 267.6V48.8Q373 19.5 343.8 17.6H125q-19.5 0 -29.3 19.5 -5.9 19.5 7.8 33.2l66.4 66.4Q66.4 255.9 62.5 423.8q0 31.3 3.9 62.5h127q-5.9 -29.3 -5.9 -62.5 2 -115.2 70.3 -197.2zm675.8 134.7h-127 127 -127q5.9 29.3 5.9 62.5 -2 115.3 -70.3 197.3l-64.5 -62.5q-13.6 -13.7 -33.2 -7.8Q627 560.5 625 580.1v218.7q2 29.3 31.3 31.3H875q19.5 0 29.3 -19.6 5.9 -19.5 -7.8 -33.2l-66.4 -66.4Q933.6 591.8 937.5 423.8q0 -31.2 -3.9 -62.5zM500 736.3Q384.8 734.4 302.7 666l62.5 -64.4q13.7 -13.7 7.8 -33.2 -9.7 -17.6 -29.2 -19.6H125q-29.3 2 -31.2 31.3v218.7q0 19.6 19.5 29.3 19.5 5.9 33.2 -7.8l66.4 -66.4Q332 857.4 500 861.3q31.3 0 62.5 -3.9V730.5q-29.3 5.8 -62.5 5.8z"/></svg>