<svg height="1000" width="1000" xmlns="http://www.w3.org/2000/svg"><path d="M753.9 236.3h-97.6 97.6 -97.6q-27.4 0 -45 17.6t-17.5 44.9 17.5 45 45 17.5h250q27.3 0 44.9 -17.5t17.6 -45v-250q0 -27.3 -17.6 -44.9t-44.9 -17.6 -45 17.6 -17.5 44.9v99.6l-35.2 -33.2Q722.7 29.3 611.3 0 500 -27.3 388.7 0 277.3 29.3 191.4 115.2T76.2 312.5q-27.4 111.3 0 222.7 29.3 111.3 115.2 197.2t197.3 115.3q111.3 27.3 222.6 0Q722.7 818.4 808.6 732.4q19.5 -17.6 19.5 -42.9t-19.5 -45Q791 627 765.6 627t-44.9 17.5Q625 736.3 500 736.3T279.3 644.5Q187.5 548.8 187.5 423.8t91.8 -220.7Q375 111.3 500 111.3t220.7 91.8l33.2 33.2z"/></svg>