<svg height="1000" width="1125" xmlns="http://www.w3.org/2000/svg"><path d="M296.9 5.9Q277.3 -13.7 250 -13.7T203.1 5.9L31.3 193.4q-17.6 21.4 -15.7 44.9 2 25.4 19.6 44.9 21.4 17.6 44.9 15.6 25.4 -1.9 44.9 -19.5L187.5 209v589.8q0 27.4 17.6 45t44.9 17.5 44.9 -17.5 17.6 -45V209l62.5 70.3q19.5 17.6 44.9 19.5 23.5 2 44.9 -15.6 17.6 -19.5 19.6 -43 1.9 -25.4 -15.6 -46.8L296.9 5.9zM625 861.3h62.5H625h62.5q27.3 0 44.9 -17.5t17.6 -45 -17.6 -44.9 -44.9 -17.6H625q-27.3 0 -44.9 17.6t-17.6 44.9 17.6 45 44.9 17.5zm0 -250h187.5H625h187.5q27.3 0 44.9 -17.5t17.6 -45 -17.6 -44.9 -44.9 -17.6H625q-27.3 0 -44.9 17.6t-17.6 44.9 17.6 45 44.9 17.5zm0 -250h312.5H625h312.5q27.3 0 44.9 -17.5t17.6 -45 -17.6 -44.9 -44.9 -17.6H625q-27.3 0 -44.9 17.6t-17.6 44.9 17.6 45 44.9 17.5zm0 -250h437.5H625h437.5q27.3 0 44.9 -17.5t17.6 -45T1107.4 3.9t-44.9 -17.6H625q-27.3 0 -44.9 17.6t-17.6 44.9 17.6 45 44.9 17.5z"/></svg>