<svg height="1000" width="1125" xmlns="http://www.w3.org/2000/svg"><path d="M880.9 -2q25.4 19.6 25.4 50.8v187.5h31.2q27.3 0 44.9 17.6t17.6 44.9 -17.6 45 -44.9 17.5H750q-27.3 0 -44.9 -17.5t-17.6 -45 17.6 -44.9T750 236.3h31.3V134.8l-11.8 3.9q-25.4 7.8 -46.8 -2Q699.2 125 691.4 99.6t2 -46.9q11.7 -23.4 37.1 -31.2l93.7 -31.3q29.3 -9.7 56.7 7.8zM312.5 -13.7q27.3 0 46.9 19.6l171.9 187.5q17.5 21.4 15.6 44.9 -2 25.4 -19.6 44.9 -21.4 17.6 -44.9 15.6Q457 296.9 437.5 279.3L375 209v589.8q0 27.4 -17.6 45t-44.9 17.5 -44.9 -17.5 -17.6 -45V209l-62.5 70.3q-19.5 17.6 -44.9 19.5 -23.5 2 -44.9 -15.6Q80.1 263.7 78.1 238.3q-1.9 -23.5 15.7 -44.9L265.6 5.9q19.6 -19.6 46.9 -19.6zm558.6 650.4q23.4 -11.7 31.2 -35.1 7.9 -23.5 -1.9 -48.9 -11.7 -23.4 -35.2 -31.2 -23.4 -9.8 -48.8 1.9 -23.4 11.8 -31.2 35.2t1.9 48.8q11.7 23.5 35.2 31.3t48.8 -2zM791 744.1q-52.7 -17.5 -85.9 -62.5Q671.9 638.7 671.9 580.1q1.9 -72.3 50.8 -121.1t121.1 -50.8q72.2 2 121 50.8t50.8 121.1q0 70.3 -41 126.9l-95.7 128.9q-17.6 21.5 -41 25.4 -25.4 3.9 -46.9 -11.7 -21.5 -17.6 -25.4 -41 -3.9 -25.4 11.7 -46.9L791 744.1z"/></svg>