<svg height="1000" width="1125" xmlns="http://www.w3.org/2000/svg"><path d="M296.9 841.8q-19.6 19.5 -46.9 19.5t-46.9 -19.5L31.3 654.3Q13.7 632.8 15.6 609.4q2 -25.4 19.6 -44.9 21.4 -17.6 44.9 -15.7 25.4 2 44.9 19.6l62.5 70.3V48.8q0 -27.3 17.6 -44.9T250 -13.7t44.9 17.6 17.6 44.9v589.9L375 568.4q19.5 -17.6 44.9 -19.6 23.5 -1.9 44.9 15.7 17.6 19.5 19.6 42.9 1.9 25.4 -15.6 46.9L296.9 841.8zM625 861.3q-27.3 0 -44.9 -17.5 -17.6 -17.6 -17.6 -45t17.6 -44.9T625 736.3h62.5q27.3 0 44.9 17.6t17.6 44.9 -17.6 45 -44.9 17.5H625zm0 -250q-27.3 0 -44.9 -17.5 -17.6 -17.6 -17.6 -45t17.6 -44.9T625 486.3h187.5q27.3 0 44.9 17.6t17.6 44.9 -17.6 45 -44.9 17.5H625zm0 -250q-27.3 0 -44.9 -17.5 -17.6 -17.6 -17.6 -45t17.6 -44.9T625 236.3h312.5q27.3 0 44.9 17.6t17.6 44.9 -17.6 45 -44.9 17.5H625zm0 -250q-27.3 0 -44.9 -17.5 -17.6 -17.6 -17.6 -45T580.1 3.9 625 -13.7h437.5q27.3 0 44.9 17.6t17.6 44.9 -17.6 45 -44.9 17.5H625z"/></svg>