<svg height="1000" width="1000" xmlns="http://www.w3.org/2000/svg"><path d="M982.4 468.8q17.6 -19.6 17.6 -45t-17.6 -44.9l-250 -250q-19.5 -17.6 -44.9 -17.6t-44.9 17.6Q625 148.4 625 173.8t17.6 45l144.5 142.5H375q-27.3 0 -44.9 17.6t-17.6 44.9 17.6 45 44.9 17.5h412.1L642.6 628.9Q625 648.4 625 673.8t17.6 45q19.5 17.5 44.9 17.5t44.9 -17.5l250 -250zM312.5 111.3q27.3 0 44.9 -17.5Q375 76.2 375 48.8T357.4 3.9t-44.9 -17.6h-125q-80.1 2 -132.8 54.7T0 173.8v500q2 80.1 54.7 132.8t132.8 54.7h125q27.3 0 44.9 -17.5t17.6 -45 -17.6 -44.9 -44.9 -17.6h-125q-27.3 0 -44.9 -17.5t-17.6 -45v-500q0 -27.3 17.6 -44.9t44.9 -17.6h125z"/></svg>