<svg height="1000" width="875" xmlns="http://www.w3.org/2000/svg"><path d="M482.4 -58.6q-19.5 -17.6 -44.9 -17.6t-44.9 17.6l-250 250Q125 210.9 125 236.3t17.6 45q19.5 17.5 44.9 17.5t44.9 -17.5L375 136.7v412.1q0 27.4 17.6 45t44.9 17.5 44.9 -17.5 17.6 -45V136.7l142.6 144.6q19.5 17.5 44.9 17.5t44.9 -17.5q17.6 -19.6 17.6 -45t-17.6 -44.9l-250 -250zM125 611.3q0 -27.3 -17.6 -44.9Q89.8 548.8 62.5 548.8t-44.9 17.6T0 611.3v125q2 80.1 54.7 132.8t132.8 54.7h500q80.1 -1.9 132.8 -54.7T875 736.3v-125q0 -27.3 -17.6 -44.9t-44.9 -17.6 -44.9 17.6T750 611.3v125q0 27.4 -17.6 45t-44.9 17.5h-500q-27.3 0 -44.9 -17.5t-17.6 -45v-125z"/></svg>