<svg height="1000" width="1000" xmlns="http://www.w3.org/2000/svg"><path d="M794.9 656.3L982.4 468.8 794.9 656.3 982.4 468.8q17.6 -19.6 17.6 -45t-17.6 -44.9L794.9 191.4Q775.4 173.8 750 173.8t-44.9 17.6q-17.6 19.5 -17.6 44.9t17.6 45l82 80H212.9l82 -80q17.6 -19.6 17.6 -45t-17.6 -44.9Q275.4 173.8 250 173.8t-44.9 17.6L17.6 378.9Q0 398.4 0 423.8t17.6 45l187.5 187.5q19.5 17.5 44.9 17.5t44.9 -17.5q17.6 -19.6 17.6 -45t-17.6 -44.9l-82 -80.1h574.2l-82 80.1q-17.6 19.5 -17.6 44.9t17.6 45q19.5 17.5 44.9 17.5t44.9 -17.5z"/></svg>