<svg height="1000" width="1250" xmlns="http://www.w3.org/2000/svg"><path d="M29.3 -46.9q33.2 -27.3 66.4 0L218.8 76.2V2q3.9 -43 46.8 -46.9 43 3.9 46.9 46.9v187.5q-3.9 42.9 -46.9 46.8H78.1Q35.2 232.4 31.3 189.5q3.9 -43 46.8 -46.9h74.2L29.3 19.5Q2 -13.7 29.3 -46.9zm232.4 447.3Q285.2 349.6 334 289.1q50.8 -58.6 123 -101.6 72.3 -43 168 -44.9 95.7 1.9 168 44.9t123 101.6q48.8 60.5 74.2 111.3 9.8 23.4 0 46.9Q964.8 498 916 558.6q-50.8 58.6 -123 101.6t-168 44.9q-95.7 -2 -168 -44.9T334 558.6Q285.2 498 261.7 447.3q-11.7 -23.5 0 -46.9zM625 548.8q70.3 -1.9 107.4 -62.5 35.2 -62.5 0 -125Q695.3 300.8 625 298.8q-70.3 2 -107.4 62.5 -35.2 62.5 0 125 37.1 60.6 107.4 62.5zm529.3 -595.7q33.2 -27.3 66.4 0 27.3 33.2 0 66.4l-123 123.1h74.2q42.9 3.9 46.9 46.9 -4 42.9 -46.9 46.8H984.4q-43 -3.9 -46.9 -46.8V2q3.9 -43 46.9 -46.9 42.9 3.9 46.9 46.9v74.2l123 -123.1zM29.3 894.5Q2 861.3 29.3 828.1l123 -123H78.1Q35.2 701.2 31.3 658.2q3.9 -43 46.8 -46.9h187.5q43 3.9 46.9 46.9v187.5q-3.9 43 -46.9 46.9 -42.9 -3.9 -46.8 -46.9v-74.2l-123.1 123q-33.2 27.4 -66.4 0zm1125 0l-123 -123 123 123 -123 -123v74.2q-4 43 -46.9 46.9 -43 -3.9 -46.9 -46.9V658.2q3.9 -43 46.9 -46.9h187.5q42.9 3.9 46.9 46.9 -4 43 -46.9 46.9h-74.2l123 123q27.3 33.2 0 66.4 -33.2 27.4 -66.4 0z"/></svg>