<svg height="1000" width="1125" xmlns="http://www.w3.org/2000/svg"><path d="M312.5 -76.2q-27.3 0 -44.9 17.6Q250 -41 250 -13.7t17.6 45 44.9 17.5h99.6L17.6 441.4Q0 460.9 0 486.3t17.6 45q19.5 17.5 44.9 17.5t44.9 -17.5L500 136.7v99.6q0 27.4 17.6 45t44.9 17.5 44.9 -17.5 17.6 -45v-250q0 -27.3 -17.6 -44.9t-44.9 -17.6h-250zM1125 80.1Q1123 27.3 1078.1 -2q-46.8 -23.4 -93.7 0 -44.9 29.3 -46.9 82.1 2 52.7 46.9 82 46.9 23.4 93.7 0 44.9 -29.3 46.9 -82zm-250 250Q873 277.3 828.1 248q-46.8 -23.4 -93.7 0 -44.9 29.3 -46.9 82.1 2 52.7 46.9 82 46.9 23.4 93.7 0 44.9 -29.3 46.9 -82zm-93.7 343.7q52.7 -1.9 82 -46.8 23.4 -46.9 0 -93.8 -29.3 -44.9 -82 -46.9 -52.8 2 -82.1 46.9 -23.4 46.9 0 93.8 29.3 44.9 82.1 46.8zM875 830.1Q873 777.3 828.1 748q-46.8 -23.4 -93.7 0 -44.9 29.3 -46.9 82.1 2 52.7 46.9 82 46.9 23.4 93.7 0 44.9 -29.3 46.9 -82zm250 0q-2 -52.8 -46.9 -82.1 -46.8 -23.4 -93.7 0 -44.9 29.3 -46.9 82.1 2 52.7 46.9 82 46.9 23.4 93.7 0 44.9 -29.3 46.9 -82zM531.3 673.8q52.7 -1.9 82 -46.8 23.4 -46.9 0 -93.8 -29.3 -44.9 -82 -46.9 -52.8 2 -82.1 46.9 -23.4 46.9 0 93.8 29.3 44.9 82.1 46.8zM625 830.1Q623 777.3 578.1 748q-46.8 -23.4 -93.7 0 -44.9 29.3 -46.9 82.1 2 52.7 46.9 82 46.9 23.4 93.7 0 44.9 -29.3 46.9 -82zm-343.7 93.7q52.7 -1.9 82 -46.8 23.4 -46.9 0 -93.8 -29.3 -44.9 -82 -46.9 -52.8 2 -82.1 46.9 -23.4 46.9 0 93.8 29.3 44.9 82.1 46.8zM1125 580.1q-2 -52.8 -46.9 -82.1 -46.8 -23.4 -93.7 0 -44.9 29.3 -46.9 82.1 2 52.7 46.9 82 46.9 23.4 93.7 0 44.9 -29.3 46.9 -82zm-93.7 -156.3q52.7 -1.9 82 -46.8 23.4 -46.9 0 -93.8 -29.3 -44.9 -82 -46.9 -52.8 2 -82.1 46.9 -23.4 46.9 0 93.8 29.3 44.9 82.1 46.8z"/></svg>