<svg height="1000" width="1125" xmlns="http://www.w3.org/2000/svg"><path d="M312.5 -13.7q27.3 0 46.9 19.6l171.9 187.5q17.5 21.4 15.6 44.9 -2 25.4 -19.6 44.9 -21.4 17.6 -44.9 15.6Q457 296.9 437.5 279.3L375 209v589.8q0 27.4 -17.6 45t-44.9 17.5 -44.9 -17.5 -17.6 -45V209l-62.5 70.3q-19.5 17.6 -44.9 19.5 -23.5 2 -44.9 -15.6Q80.1 263.7 78.1 238.3q-1.9 -23.5 15.7 -44.9L265.6 5.9q19.6 -19.6 46.9 -19.6zM880.9 498q25.4 19.6 25.4 50.8v187.5h31.2q27.3 0 44.9 17.6t17.6 44.9 -17.6 45 -44.9 17.5H750q-27.3 0 -44.9 -17.5t-17.6 -45 17.6 -44.9T750 736.3h31.3V634.8l-11.8 3.9q-25.4 7.8 -46.8 -2Q699.2 625 691.4 599.6t2 -46.9q11.7 -23.4 37.1 -31.2l93.7 -31.3q29.3 -9.7 56.7 7.8zm-9.8 -283.2q23.4 -11.7 31.2 -35.1 7.9 -23.4 -1.9 -48.8Q888.7 107.4 865.2 99.6q-23.4 -9.8 -48.8 2 -23.4 11.7 -31.2 35.1t1.9 48.8q11.7 23.5 35.2 31.3t48.8 -2zM791 322.3q-52.7 -17.6 -85.9 -62.5 -33.2 -43 -33.2 -101.6 1.9 -72.3 50.8 -121.1t121.1 -50.8q72.2 2 121 50.8t50.8 121.1q0 70.3 -41 127l-95.7 128.9q-17.6 21.4 -41 25.4 -25.4 3.9 -46.9 -11.8 -21.5 -17.5 -25.4 -41 -3.9 -25.4 11.7 -46.9L791 322.3z"/></svg>