<svg height="1000" width="1250" xmlns="http://www.w3.org/2000/svg"><path d="M62.5 48.8q27.3 0 44.9 17.6Q125 84 125 111.3v625q0 27.4 -17.6 45t-44.9 17.5T17.6 781.3 0 736.3v-625Q0 84 17.6 66.4T62.5 48.8zm419.9 142.6q17.6 19.5 17.6 44.9t-17.6 45l-82 80h449.2l-82 -80Q750 261.7 750 236.3t17.6 -44.9q19.5 -17.6 44.9 -17.6t44.9 17.6l187.5 187.5q17.6 19.5 17.6 44.9t-17.6 45L857.4 656.3q-19.5 17.5 -44.9 17.5t-44.9 -17.5Q750 636.7 750 611.3t17.6 -44.9l82 -80.1H400.4l82 80.1q17.6 19.5 17.6 44.9t-17.6 45q-19.5 17.5 -44.9 17.5t-44.9 -17.5L205.1 468.8q-17.6 -19.6 -17.6 -45t17.6 -44.9L392.6 191.4q19.5 -17.6 44.9 -17.6t44.9 17.6zM1250 111.3v625 -625 625q0 27.4 -17.6 45t-44.9 17.5 -44.9 -17.5 -17.6 -45v-625q0 -27.3 17.6 -44.9t44.9 -17.6 44.9 17.6 17.6 44.9z"/></svg>