<svg height="1000" width="625" xmlns="http://www.w3.org/2000/svg"><path d="M357.4 -58.6q-19.5 -17.6 -44.9 -17.6t-44.9 17.6L80.1 128.9q-17.6 19.5 -17.6 44.9t17.6 45q19.5 17.5 44.9 17.5t44.9 -17.5L250 136.7v574.2l-80.1 -82Q150.4 611.3 125 611.3t-44.9 17.6q-17.6 19.5 -17.6 44.9t17.6 45l187.5 187.5q19.5 17.5 44.9 17.5t44.9 -17.5L544.9 718.8q17.6 -19.6 17.6 -45t-17.6 -44.9Q525.4 611.3 500 611.3t-44.9 17.6l-80.1 82V136.7l80.1 82.1q19.5 17.5 44.9 17.5t44.9 -17.5q17.6 -19.6 17.6 -45t-17.6 -44.9L357.4 -58.6z"/></svg>