<svg height="1000" width="1000" xmlns="http://www.w3.org/2000/svg"><path d="M625 -76.2q-27.3 0 -44.9 17.6 -17.6 17.6 -17.6 44.9t17.6 45T625 48.8h162.1L392.6 441.4Q375 460.9 375 486.3t17.6 45q19.5 17.5 44.9 17.5t44.9 -17.5L875 136.7v162.1q0 27.4 17.6 45t44.9 17.5 44.9 -17.5 17.6 -45V-13.7q0 -27.3 -17.6 -44.9t-44.9 -17.6H625zm-468.7 62.5q-66.5 2 -111.4 45Q2 76.2 0 142.6v625Q2 834 44.9 878.9q44.9 43 111.4 44.9h625q66.4 -1.9 111.3 -44.9Q935.5 834 937.5 767.6V548.8q0 -27.3 -17.6 -44.9T875 486.3t-44.9 17.6 -17.6 44.9v218.8q-2 29.3 -31.2 31.2h-625Q127 796.9 125 767.6v-625q2 -29.3 31.3 -31.3H375q27.3 0 44.9 -17.5t17.6 -45T419.9 3.9 375 -13.7H156.3z"/></svg>