<svg height="1000" width="1125" xmlns="http://www.w3.org/2000/svg"><path d="M359.4 5.9q-19.6 -19.6 -46.9 -19.6T265.6 5.9L93.8 193.4q-17.6 21.4 -15.7 44.9 2 25.4 19.6 44.9 21.4 17.6 44.9 15.6 25.4 -1.9 44.9 -19.5L250 209v589.8q0 27.4 17.6 45t44.9 17.5 44.9 -17.5 17.6 -45V209l62.5 70.3q19.5 17.6 44.9 19.5 23.5 2 44.9 -15.6 17.6 -19.5 19.6 -43 1.9 -25.4 -15.6 -46.8L359.4 5.9zM625 548.8q0 27.4 17.6 45 17.6 17.5 44.9 17.5h99.6L642.6 753.9q-27.4 31.3 -13.7 68.4 17.6 37.1 58.6 39h250q27.3 0 44.9 -17.5t17.6 -45 -17.6 -44.9 -44.9 -17.6h-99.6L982.4 593.8q27.4 -31.3 13.7 -68.4 -17.6 -37.1 -58.6 -39.1h-250q-27.3 0 -44.9 17.6T625 548.8zM812.5 -13.7q-37.1 2 -56.6 35.2l-125 250L599.6 334q-9.8 23.4 -1.9 46.9t31.2 37.1q23.4 9.7 46.9 1.9t37.1 -31.2l13.7 -27.4h171.8l13.7 27.4q13.7 23.4 37.1 31.2t46.9 -1.9q23.4 -13.7 31.2 -37.1t-1.9 -46.9l-31.3 -62.5 -125 -250q-19.5 -33.2 -56.6 -35.2zm-39.1 281.3l39.1 -78.1 -39.1 78.1 39.1 -78.1 39.1 78.1h-78.2z"/></svg>