<svg height="1000" width="1125" xmlns="http://www.w3.org/2000/svg"><path d="M562.5 611.3q27.3 0 44.9 -17.5 17.6 -17.6 17.6 -45V136.7l48.8 50.8q19.6 17.6 45 17.6t44.9 -17.6q17.6 -19.5 17.6 -44.9T763.7 97.7L607.4 -58.6q-19.5 -17.6 -44.9 -17.6t-44.9 17.6L361.3 97.7q-17.5 19.5 -17.5 44.9t17.5 44.9q19.6 17.6 45 17.6t44.9 -17.6L500 136.7v412.1q0 27.4 17.6 45t44.9 17.5zM527.3 748Q459 796.9 375 798.8 293 794.9 224.6 748q-41 -25.3 -78.1 4 -43 35.1 -97.7 48.8 -25.4 5.8 -39 27.3T2 875t27.3 39.1 46.9 7.8Q150.4 902.3 191.4 873q85.9 48.9 183.6 50.8 95.7 -5.8 156.3 -37.1 17.5 -7.8 31.2 -15.6 13.7 7.8 31.3 15.6Q654.3 918 750 923.8q97.7 -1.9 185.5 -50.8 39.1 29.3 113.3 48.9 25.4 5.8 46.9 -7.8T1123 875t-7.8 -46.9 -39 -27.3Q1021.5 787.1 978.5 752q-37.1 -27.4 -78.1 -4Q832 794.9 750 798.8 668 796.9 599.6 748q-37.1 -23.4 -72.3 0zM375 298.8H93.8 375 93.8q-39.1 2 -66.5 27.4Q2 353.5 0 392.6v361.3q15.6 -9.8 35.2 -13.7 39 -9.7 72.2 -35.1 33.2 -29.3 74.2 -29.3 41.1 -2 78.2 21.5 56.6 39 115.2 39V298.8zm750 93.8q-2 -39.1 -27.3 -66.4 -27.4 -25.4 -66.4 -27.4H750v439.5q58.6 -2 115.2 -41 37.1 -23.5 78.2 -21.5 41 0 74.2 29.3 33.2 25.4 74.2 35.1 17.6 3.9 33.2 13.7V392.6z"/></svg>