<svg height="1000" width="1250" xmlns="http://www.w3.org/2000/svg"><path d="M562.5 17.6q2 -39.1 27.3 -66.4 27.4 -25.4 66.5 -27.4h187.5q39 2 66.4 27.4 25.3 27.3 27.3 66.4v281.2h78.1V158.2q3.9 -43 46.9 -46.9 43 3.9 46.9 46.9v140.6h46.9q39 2 66.4 27.4 25.3 27.3 27.3 66.4v437.5q-2 39 -27.3 66.4 -27.4 25.4 -66.4 27.3h-500q-39.1 -1.9 -66.5 -27.3 -25.3 -27.4 -27.3 -66.4V17.6zm125 62.5v62.5V80.1v62.5q2 29.3 31.3 31.2h62.5q29.2 -1.9 31.2 -31.2V80.1q-2 -29.3 -31.2 -31.3h-62.5q-29.3 2 -31.3 31.3zm31.3 156.2q-29.3 2 -31.3 31.3v62.5q2 29.3 31.3 31.2h62.5q29.2 -1.9 31.2 -31.2v-62.5q-2 -29.3 -31.2 -31.3h-62.5zm-31.3 218.8v62.5 -62.5 62.5q2 29.3 31.3 31.2h62.5q29.2 -1.9 31.2 -31.2v-62.5q-2 -29.3 -31.2 -31.3h-62.5q-29.3 2 -31.3 31.3zm343.8 -31.3q-29.3 2 -31.3 31.3v62.5q2 29.3 31.3 31.2h62.5q29.2 -1.9 31.2 -31.2v-62.5q-2 -29.3 -31.2 -31.3h-62.5zM1000 642.6v62.5 -62.5 62.5q2 29.3 31.3 31.2h62.5q29.2 -1.9 31.2 -31.2v-62.5q-2 -29.3 -31.2 -31.3h-62.5q-29.3 2 -31.3 31.3zM326.2 222.7l156.2 156.2L326.2 222.7l156.2 156.2q17.6 19.5 17.6 44.9t-17.6 45L326.2 625q-19.6 17.6 -44.9 17.6t-45 -17.6q-17.5 -19.5 -17.5 -44.9t17.5 -44.9l50.8 -48.9H62.5q-27.3 0 -44.9 -17.5T0 423.8t17.6 -44.9 44.9 -17.6h224.6l-50.8 -48.8Q218.8 293 218.8 267.6t17.5 -44.9q19.6 -17.6 45 -17.6t44.9 17.6z"/></svg>