<svg height="1000" width="875" xmlns="http://www.w3.org/2000/svg"><path d="M857.4 218.8q17.6 -19.6 17.6 -45t-17.6 -44.9L669.9 -58.6Q650.4 -76.2 625 -76.2t-44.9 17.6q-17.6 19.5 -17.6 44.9t17.6 45l82 80H62.5q-27.3 0 -44.9 17.6T0 173.8t17.6 45 44.9 17.5h599.6l-82 80.1q-17.6 19.5 -17.6 44.9t17.6 45q19.5 17.5 44.9 17.5t44.9 -17.5L857.4 218.8zM205.1 906.3q19.5 17.5 44.9 17.5t44.9 -17.5q17.6 -19.6 17.6 -45t-17.6 -44.9l-82 -80.1h599.6q27.3 0 44.9 -17.5t17.6 -45 -17.6 -44.9 -44.9 -17.6H212.9l82 -80q17.6 -19.6 17.6 -45t-17.6 -44.9Q275.4 423.8 250 423.8t-44.9 17.6L17.6 628.9Q0 648.4 0 673.8t17.6 45l187.5 187.5z"/></svg>