<svg height="1000" width="1000" xmlns="http://www.w3.org/2000/svg"><path d="M500 -76.2q27.3 0 44.9 17.6 17.6 17.6 17.6 44.9v62.5H625q41 2 58.6 39.1 13.7 37.1 -13.7 68.4l-125 125q-19.5 17.5 -44.9 17.5t-44.9 -17.5l-125 -125Q302.7 125 318.4 87.9T375 48.8h62.5v-62.5q0 -27.3 17.6 -44.9T500 -76.2zM330.1 691.4l125 -125 -125 125 125 -125q19.5 -17.6 44.9 -17.6t44.9 17.6l125 125q27.4 31.3 13.7 68.4 -17.6 37.1 -58.6 39h-62.5v62.5q0 27.4 -17.6 45T500 923.8t-44.9 -17.5 -17.6 -45v-62.5H375q-41 -1.9 -58.6 -39 -13.7 -37.1 13.7 -68.4zM62.5 361.3H125 62.5 125v-62.5q2 -41 39.1 -58.6 37.1 -13.6 68.3 13.7l125 125q17.6 19.5 17.6 44.9t-17.6 45l-125 125q-31.2 27.3 -68.3 11.7T125 548.8v-62.5H62.5q-27.3 0 -44.9 -17.5T0 423.8t17.6 -44.9 44.9 -17.6zm580.1 107.5Q625 449.2 625 423.8t17.6 -44.9l125 -125q31.2 -27.3 68.3 -13.7 37.1 17.6 39.1 58.6v62.5h62.5q27.3 0 44.9 17.6t17.6 44.9 -17.6 45 -44.9 17.5H875v62.5q-2 41 -39.1 58.6 -37.1 13.7 -68.3 -13.6l-125 -125zM500 361.3q27.3 0 44.9 17.6 17.6 17.6 17.6 44.9t-17.6 45T500 486.3t-44.9 -17.5 -17.6 -45 17.6 -44.9T500 361.3z"/></svg>