<svg height="1000" width="875" xmlns="http://www.w3.org/2000/svg"><path d="M580.1 -58.6q19.5 -17.6 44.9 -17.6t44.9 17.6l187.5 187.5q17.6 19.5 17.6 44.9t-17.6 45L669.9 406.3q-19.5 17.5 -44.9 17.5t-44.9 -17.5q-17.6 -19.6 -17.6 -45t17.6 -44.9l82 -80.1H250q-52.7 2 -87.9 37.1T125 361.3v62.5q0 27.4 -17.6 45t-44.9 17.5T17.6 468.8 0 423.8v-62.5Q2 255.9 72.3 183.6 144.5 113.3 250 111.3h412.1l-82 -80q-17.6 -19.6 -17.6 -45t17.6 -44.9zm-187.5 500q19.5 -17.6 44.9 -17.6t44.9 17.6l187.5 187.5q17.6 19.5 17.6 44.9t-17.6 45L482.4 906.3q-19.5 17.5 -44.9 17.5t-44.9 -17.5Q375 886.7 375 861.3t17.6 -44.9l82 -80.1H187.5q-27.3 0 -44.9 17.6T125 798.8v62.5q0 27.4 -17.6 45t-44.9 17.5T17.6 906.3 0 861.3v-62.5Q2 718.8 54.7 666t132.8 -54.7h287.1l-82 -80Q375 511.7 375 486.3t17.6 -44.9z"/></svg>