<svg height="1000" width="1000" xmlns="http://www.w3.org/2000/svg"><path d="M544.9 -58.6Q525.4 -76.2 500 -76.2t-44.9 17.6l-125 125q-17.6 19.5 -17.6 44.9t17.6 45q19.5 17.5 44.9 17.5t44.9 -17.5l17.6 -19.6v224.6H212.9l19.5 -17.5q17.6 -19.6 17.6 -45t-17.6 -44.9q-19.5 -17.6 -44.9 -17.6t-44.9 17.6l-125 125Q0 398.4 0 423.8t17.6 45l125 125q19.5 17.5 44.9 17.5t44.9 -17.5q17.6 -19.6 17.6 -45t-17.6 -44.9l-19.5 -17.6h224.6v224.6l-17.6 -19.5Q400.4 673.8 375 673.8t-44.9 17.6q-17.6 19.5 -17.6 44.9t17.6 45l125 125q19.5 17.5 44.9 17.5t44.9 -17.5l125 -125q17.6 -19.6 17.6 -45t-17.6 -44.9Q650.4 673.8 625 673.8t-44.9 17.6l-17.6 19.5V486.3h224.6l-19.5 17.6Q750 523.4 750 548.8t17.6 45q19.5 17.5 44.9 17.5t44.9 -17.5l125 -125q17.6 -19.6 17.6 -45t-17.6 -44.9l-125 -125q-19.5 -17.6 -44.9 -17.6t-44.9 17.6Q750 273.4 750 298.8t17.6 45l19.5 17.5H562.5V136.7l17.6 19.6q19.5 17.5 44.9 17.5t44.9 -17.5q17.6 -19.6 17.6 -45T669.9 66.4l-125 -125z"/></svg>