<svg height="1000" width="1125" xmlns="http://www.w3.org/2000/svg"><path d="M359.4 841.8q-19.6 19.5 -46.9 19.5t-46.9 -19.5L93.8 654.3Q76.2 632.8 78.1 609.4q2 -25.4 19.6 -44.9 21.4 -17.6 44.9 -15.7 25.4 2 44.9 19.6l62.5 70.3V48.8q0 -27.3 17.6 -44.9t44.9 -17.6 44.9 17.6T375 48.8v589.9l62.5 -70.3q19.5 -17.6 44.9 -19.6 23.5 -1.9 44.9 15.7 17.6 19.5 19.6 42.9 1.9 25.4 -15.6 46.9L359.4 841.8zM625 548.8q0 -27.3 17.6 -44.9 17.6 -17.6 44.9 -17.6h250q41 2 58.6 39.1 13.7 37.1 -13.7 68.4L837.9 736.3h99.6q27.3 0 44.9 17.6t17.6 44.9 -17.6 45 -44.9 17.5h-250q-41 -1.9 -58.6 -39 -13.7 -37.1 13.7 -68.4L787.1 611.3h-99.6q-27.3 0 -44.9 -17.5t-17.6 -45zM812.5 -13.7q37.1 2 56.6 35.2l125 250 31.3 62.5q9.8 23.4 1.9 46.9T996.1 418q-23.4 9.7 -46.9 1.9t-37.1 -31.2l-13.7 -27.4H726.6l-13.7 27.4q-13.7 23.4 -37.1 31.2T628.9 418q-23.4 -13.7 -31.2 -37.1t1.9 -46.9l31.3 -62.5 125 -250q19.5 -33.2 56.6 -35.2zm-39.1 281.3h78.2 -78.2 78.2l-39.1 -78.1 -39.1 78.1z"/></svg>