<svg height="1000" width="750" xmlns="http://www.w3.org/2000/svg"><path d="M375 -13.7q27.3 0 44.9 17.6 17.6 17.6 17.6 44.9v265.7L656.3 183.6q21.4 -13.7 46.8 -7.8 23.5 5.8 37.1 29.3 13.7 21.5 7.8 46.9 -5.8 23.4 -29.2 39L496.1 423.8l224.6 134.8q21.5 13.7 27.3 37.1 5.9 25.4 -5.8 48.8 -15.6 21.5 -39.1 27.4 -25.4 5.8 -46.8 -5.9L437.5 535.2v263.6q0 27.4 -17.6 45T375 861.3t-44.9 -17.5 -17.6 -45V535.2L95.7 664.1q-23.4 13.6 -48.8 7.8Q23.4 666 9.8 642.6 -3.9 621.1 2 595.7q5.8 -23.4 29.3 -37.1L253.9 423.8 31.3 289.1Q7.8 275.4 2 252q-5.9 -25.4 7.8 -46.9 13.6 -23.5 37.1 -29.3 25.4 -5.9 46.9 7.8l218.7 130.9V48.8q0 -27.3 17.6 -44.9T375 -13.7z"/></svg>