<svg height="1000" width="1000" xmlns="http://www.w3.org/2000/svg"><path d="M500 48.8Q339.8 52.7 234.4 158.2 128.9 263.7 125 423.8q3.9 160.2 109.4 265.7T500 798.8q27.3 0 44.9 17.6t17.6 44.9 -17.6 45T500 923.8Q359.4 921.9 248 855.5 134.8 789.1 68.4 675.8 2 564.5 0 423.8 2 283.2 68.4 171.9 134.8 58.6 248 -7.8q111.4 -66.4 252 -68.4 140.6 2 252 68.4 113.2 66.4 179.6 179.7Q998 283.2 1000 423.8v62.5q-2 80.1 -54.7 132.8t-132.8 54.7q-87.9 -1.9 -142.6 -66.4Q599.6 671.9 500 673.8 394.5 671.9 322.3 601.6 252 529.3 250 423.8q2 -105.4 72.3 -177.7Q394.5 175.8 500 173.8q84 2 146.5 46.9 15.6 -15.6 41 -15.6 27.3 0 44.9 17.6t17.6 44.9v218.7q0 27.4 17.6 45t44.9 17.5 44.9 -17.5 17.6 -45v-62.5Q871.1 263.7 765.6 158.2T500 48.8zm125 375q-2 -70.3 -62.5 -107.4 -62.5 -35.1 -125 0Q377 353.5 375 423.8q2 70.3 62.5 107.5 62.5 35.1 125 0Q623 494.1 625 423.8z"/></svg>