<svg height="1000" width="1000" xmlns="http://www.w3.org/2000/svg"><path d="M500 703.1q-35.2 15.7 -68.4 25.4 25.4 48.8 43 60.6 19.5 11.7 25.4 9.7 5.9 2 25.4 -9.7 17.6 -11.8 43 -60.6Q535.2 716.8 500 703.1zM871.1 423.8q48.8 66.4 62.5 130.9 13.7 64.4 -15.6 119.1 -66.4 103.5 -226.6 84 -31.2 78.1 -80.1 121.1Q562.5 923.8 500 923.8T388.7 878.9q-48.9 -43 -80.1 -121.1Q148.4 777.3 82 673.8 52.7 619.1 66.4 554.7t62.5 -130.9Q80.1 357.4 66.4 293T82 173.8q66.4 -103.5 226.6 -84 31.2 -78.1 80.1 -121.1Q437.5 -76.2 500 -76.2t111.3 44.9q48.9 43 80.1 121.1 160.2 -19.5 226.6 84 29.3 54.7 15.6 119.2t-62.5 130.8zM742.2 554.7q-3.9 43 -11.7 82 44.9 0 60.5 -9.7 15.6 -7.9 17.6 -13.7 3.9 -5.9 3.9 -27.4 -2 -23.4 -27.3 -66.4 -19.6 17.6 -43 35.2zM730.5 212.9q7.8 37.1 11.7 80.1 23.4 17.5 43 35.1 25.3 -42.9 27.3 -66.4 0 -21.5 -3.9 -27.3 -2 -5.9 -17.6 -13.7 -15.6 -9.8 -60.5 -7.8zM568.4 119.1Q543 70.3 525.4 58.6 505.9 46.9 500 48.8q-5.9 -1.9 -25.4 9.8 -17.6 11.7 -43 60.5 33.2 11.8 68.4 25.4 35.2 -15.6 68.4 -25.4zM257.8 293q3.9 -43 13.7 -82.1 -46.9 0 -62.5 9.8 -15.6 7.8 -17.6 13.7 -3.9 5.8 -3.9 27.3 2 23.5 27.3 66.4l43 -35.1zm-43 226.5q-25.3 43 -27.3 66.4 0 21.5 3.9 27.4 2 5.8 17.6 13.7 15.6 9.7 62.5 9.7 -9.8 -39 -13.7 -82 -23.4 -17.6 -43 -35.2zm441.5 -95.7q-2 -87.9 -78.2 -134.7 -78.1 -43 -156.2 0 -76.2 46.8 -78.1 134.7 1.9 87.9 78.1 134.8 78.1 43 156.2 0 76.2 -46.9 78.2 -134.8zM500 361.3q27.3 0 44.9 17.6 17.6 17.6 17.6 44.9t-17.6 45T500 486.3t-44.9 -17.5 -17.6 -45 17.6 -44.9T500 361.3z"/></svg>