<svg height="1000" width="1125" xmlns="http://www.w3.org/2000/svg"><path d="M125 -13.7q-52.7 2 -87.9 37.1Q2 58.6 0 111.3v625q2 52.8 37.1 87.9t87.9 37.1h875q52.7 -1.9 87.9 -37.1t37.1 -87.9v-625q-2 -52.7 -37.1 -87.9T1000 -13.7H125zm293 275.4L558.6 543 418 261.7 558.6 543q13.7 41 -21.5 64.4 -41 13.7 -62.5 -21.5l-19.5 -37.1H294.9l-17.6 37.1q-23.4 37.1 -64.4 21.5Q177.7 584 193.4 543L334 261.7q13.7 -23.4 41 -25.4 29.3 0 43 25.4zm-2 209l-41 -82 41 82 -41 -82 -41 82h82zM593.8 283.2q3.9 -43 46.8 -46.9H750q80.1 2 132.8 54.7t54.7 132.8q-2 80.1 -54.7 132.8T750 611.3H640.6q-42.9 -3.9 -46.8 -46.8V283.2zm93.7 46.9v187.5V330.1v187.5H750q39.1 -2 66.4 -27.4 25.4 -27.3 27.4 -66.4 -2 -39 -27.4 -66.4Q789.1 332 750 330.1h-62.5z"/></svg>