<svg height="1000" width="875" xmlns="http://www.w3.org/2000/svg"><path d="M496.1 25.4q-17.6 -37.1 -58.6 -39.1 -41 2 -56.6 39.1L240.2 361.3H62.5q-27.3 0 -44.9 17.6T0 423.8t17.6 45 44.9 17.5h125l-25.4 62.5H62.5q-27.3 0 -44.9 17.6T0 611.3t17.6 45 44.9 17.5h46.9l-41 101.6q-9.8 23.4 -2 46.9 9.8 23.4 35.2 35.1 23.4 7.8 46.8 0 23.5 -9.7 35.2 -35.1l60.5 -148.5h386.8l60.5 148.5q11.7 25.4 35.2 35.1 23.4 7.8 46.8 0 25.4 -11.7 33.2 -35.1 9.8 -23.5 0 -46.9l-41 -101.6h46.9q27.3 0 44.9 -17.5t17.6 -45 -17.6 -44.9 -44.9 -17.6h-99.6l-25.4 -62.5h125q27.3 0 44.9 -17.5t17.6 -45 -17.6 -44.9 -44.9 -17.6H634.8L496.1 25.4zm3.9 335.9H375h125H375l62.5 -150.4L500 361.3zm-177.7 125h230.4H322.3h230.4l25.4 62.5H296.9l25.4 -62.5z"/></svg>