<svg height="1000" width="750" xmlns="http://www.w3.org/2000/svg"><path d="M339.8 -64.5q35.2 -21.4 70.4 0l35.1 21.5q17.6 11.7 39.1 11.7l41 -3.9q43 0 62.5 37.2l19.5 37.1q9.8 17.5 27.4 27.3l39 19.5q35.2 19.6 35.2 62.5l-3.9 41.1q0 21.4 11.7 39l23.4 35.2q21.5 35.1 0 70.3l-23.4 35.1q-11.7 17.6 -11.7 39.1l3.9 41q0 43 -37.1 62.5l-37.1 19.6q-17.6 9.7 -27.4 27.3l-19.5 39.1q-19.5 35.1 -60.6 35.1l-42.9 -3.9q-21.5 0 -39.1 11.7l-35.1 23.5q-35.2 21.4 -70.4 0l-35.1 -23.5q-17.6 -11.7 -39.1 -11.7l-41 3.9q-43 0 -62.5 -37.1l-19.5 -37.1Q132.8 541 115.2 531.3L78.1 511.7Q41 492.2 41 451.2l3.9 -43q0 -21.5 -11.7 -39.1L11.7 334q-21.5 -35.2 0 -70.3l21.5 -35.2q11.7 -17.6 11.7 -39L41 148.4q0 -42.9 37.1 -62.5l37.1 -19.5q17.6 -9.8 27.4 -27.3L162.1 2q19.5 -37.2 62.5 -37.2l41 3.9q21.5 0 39.1 -11.7l35.1 -21.5zm191.5 363.3q-2 -87.9 -78.2 -134.7 -78.1 -43 -156.2 0 -76.2 46.8 -78.1 134.7 1.9 87.9 78.1 134.8 78.1 43 156.2 0 76.2 -46.9 78.2 -134.8zM2 787.1L85.9 585.9 2 787.1 85.9 585.9q2 0 2 2l17.6 37.1q41 70.3 121.1 70.3l42.9 -3.9v2l35.2 21.4q15.6 9.8 31.2 15.7l-72.2 173.8q-7.8 17.6 -27.4 19.5 -17.5 2 -27.3 -13.6l-64.5 -95.7L35.2 830.1Q17.6 832 5.9 818.4 -3.9 802.7 2 787.1zm484.3 117.2L414.1 730.5l72.2 173.8L414.1 730.5q15.6 -5.9 31.2 -15.7l35.2 -21.4v-2l42.9 3.9q80.1 0 121.1 -70.3l17.6 -37.1q0 -2 2 -2L748 787.1q5.9 15.6 -3.9 31.3 -11.7 13.6 -29.3 11.7L605.5 814.5 541 910.2q-9.7 13.6 -27.3 13.6 -19.6 -1.9 -27.4 -19.5z"/></svg>