<svg height="1000" width="1000" xmlns="http://www.w3.org/2000/svg"><path d="M500 298.8H0h500H0Q5.9 189.5 56.6 99.6T193.4 -48.8q19.5 -11.7 42.9 -7.8 21.5 5.8 35.2 25.3L500 298.8zm250 -62.5q2 -52.7 37.1 -87.9 35.2 -35.1 87.9 -37.1h62.5q27.3 0 44.9 17.6t17.6 44.9 -17.6 45 -44.9 17.5H875v125q0 74.2 -33.2 144.6Q808.6 574.2 746.1 627q-60.6 52.7 -140.6 80 -80.1 29.3 -168 29.3 -85.9 0 -168 -29.3 -80 -27.3 -140.6 -80Q66.4 574.2 33.2 505.9 0 435.5 0 361.3h750v-125zm-593.7 500q52.7 2 82 46.9 23.4 46.9 0 93.8 -29.3 44.9 -82 46.8Q103.5 921.9 74.2 877q-23.4 -46.9 0 -93.8 29.3 -44.9 82.1 -46.9zM625 830.1q2 -52.8 46.9 -82.1 46.9 -23.4 93.7 0 44.9 29.3 46.9 82.1 -2 52.7 -46.9 82 -46.8 23.4 -93.7 0Q627 882.8 625 830.1z"/></svg>