<svg height="1000" width="875" xmlns="http://www.w3.org/2000/svg"><path d="M296.9 95.7q1.9 -80.1 70.3 -121.1 70.3 -39.1 140.6 0 68.4 41 70.3 121.1 -1.9 80.1 -70.3 121.1 -70.3 39.1 -140.6 0 -68.4 -41 -70.3 -121.1zM78.1 207q19.6 -27.3 50.8 -31.2 31.3 -5.9 58.6 13.7l70.3 50.7q80.1 58.6 179.7 58.6t179.7 -58.6l70.3 -50.7q27.3 -19.6 58.6 -15.7 31.2 5.9 50.8 31.3 19.5 27.3 13.6 58.6 -3.9 31.2 -29.2 50.8L709 367.2q-39.1 29.3 -84 48.8v70.3H250V416q-44.9 -19.5 -84 -48.8L95.7 314.5Q68.4 294.9 64.5 263.7q-5.9 -31.3 13.6 -58.6v1.9zm175.8 359.4l117.2 103.5L253.9 566.4l117.2 103.5 -50.8 74.2 46.9 46.9q23.4 23.5 23.4 54.7t-23.4 54.7 -54.7 23.4 -54.7 -23.4l-93.7 -93.8q-21.5 -19.5 -23.5 -46.8 -1.9 -29.3 13.7 -52.8L252 566.4h1.9zm250 103.5L623 566.4 503.9 669.9 623 566.4 720.7 707q15.6 23.5 13.7 52.8 -2 27.3 -23.5 46.8l-93.7 93.8q-23.4 23.4 -54.7 23.4t-54.7 -23.4 -23.4 -54.7T507.8 791l46.9 -48.8 -50.8 -72.3z"/></svg>