<svg height="1000" width="1125" xmlns="http://www.w3.org/2000/svg"><path d="M857.4 -74.2q35.2 -7.8 62.5 15.6l91.8 93.8 -50.8 15.6Q794.9 99.6 707 181.6T560.5 359.4l-3.9 5.8h-1.9Q498 457 406.3 552.7q-89.9 95.7 -263.7 187.5l-68.4 33.2L17.6 718.8Q-3.9 695.3 0 664.1q5.9 -31.3 35.2 -46.9Q203.1 531.3 291 437.5q87.9 -91.8 144.5 -183.6l5.9 -5.9Q500 152.3 591.8 64.5q93.7 -87.9 265.6 -138.7zM121.1 820.3l48.8 -25.4 -48.8 25.4 48.8 -25.4Q355.5 699.2 451.2 597.7T607.4 400.4l3.9 -5.9q60.6 -93.7 136.7 -166T976.6 109.4h1.9l84 -25.4 44.9 44.9q23.5 25.4 15.6 60.6 -9.7 33.2 -42.9 44.9Q931.6 279.3 863.3 345.7 791 412.1 730.5 505.9l-3.9 5.8Q666 607.4 568.4 712.9 468.8 818.4 277.3 918q-39 17.5 -72.2 -11.7l-84 -86z"/></svg>