<svg height="1000" width="1000" xmlns="http://www.w3.org/2000/svg"><path d="M826.2 -15.6q7.8 -43 -31.3 -58.6Q752 -82 736.3 -43l-7.8 29.3q-29.3 -1.9 -58.6 5.9Q634.8 0 601.6 9.8l-11.8 -25.4Q570.3 -54.7 529.3 -41q-39.1 19.5 -25.4 60.5l9.8 23.5q-64.5 27.3 -117.2 62.5L382.8 85.9Q355.5 52.7 318.4 72.3q-33.2 27.3 -13.7 64.4l15.6 23.5q-52.7 42.9 -91.8 91.8l-27.3 -21.5Q166 207 134.8 238.3q-23.5 35.1 7.8 66.4l29.3 23.4q-5.9 9.8 -11.7 17.6 -27.4 46.9 -45 89.8l-19.5 -7.8Q54.7 416 35.2 453.1q-11.8 41 25.3 60.6l23.5 9.7q-2 3.9 -2 5.9 -9.7 37.1 -13.6 60.5 -2 13.7 -3.9 21.5V623q-4 0 7.8 0 13.6 2 68.3 5.9L64.5 623q-2 13.7 -2 29.3l-29.3 7.9Q-5.9 675.8 2 718.8q15.6 39 58.5 31.2l25.4 -7.8q33.2 62.5 95.7 95.7l-7.8 25.4q-7.8 43 33.2 58.6 41 7.8 56.7 -31.3l7.8 -29.3q72.3 2 128.9 -35.1l19.5 21.5q33.2 27.3 66.4 0 27.4 -33.2 0 -66.4l-21.5 -19.6Q492.2 718.8 498 666v-1.9q2 -3.9 5.9 -17.6v-2l25.4 9.8q41 13.7 60.5 -23.4 13.7 -41.1 -25.3 -62.5L543 558.6q27.3 -44.9 95.7 -89.8l3.9 15.6q15.6 39 58.6 31.2 39 -15.6 31.2 -56.6l-7.8 -29.3q19.5 -5.9 43 -11.7 39 -7.8 68.3 -29.3l21.5 21.5q33.2 27.3 66.4 0 27.4 -33.2 0 -66.4l-21.5 -19.6q37.2 -58.6 35.2 -128.9l29.3 -7.8q39.1 -15.6 31.2 -56.6Q982.4 89.8 939.5 97.7l-25.4 7.8Q880.9 43 818.4 9.8l7.8 -25.4zM179.7 632.8l101.6 9.8 -101.6 -9.8zm39.1 -84q1.9 -52.7 46.8 -82 46.9 -23.4 93.8 0 44.9 29.3 46.9 82 -2 52.8 -46.9 82.1 -46.9 23.4 -93.8 0 -44.9 -29.3 -46.8 -82.1zm250 -265.6q42.9 3.9 46.8 46.9Q511.7 373 468.8 377q-43 -4 -46.9 -46.9 3.9 -43 46.9 -46.9z"/></svg>