<svg height="1000" width="1250" xmlns="http://www.w3.org/2000/svg"><path d="M595.7 -74.2q-31.2 -5.9 -43 23.4l-9.7 29.3q-23.5 -1.9 -48.9 3.9 -21.4 5.9 -41 11.7l-9.7 -25.4q-15.7 -29.2 -46.9 -19.5Q367.2 -35.2 377 -3.9l9.7 21.5q-48.8 19.5 -89.8 42.9l-9.8 -15.6Q267.6 19.5 238.3 35.2 212.9 54.7 228.5 84l11.7 17.6q-39 33.2 -70.3 68.3l-19.5 -15.6q-27.4 -17.6 -48.8 5.9Q84 187.5 107.4 209l21.5 17.6q-5.9 7.8 -9.8 17.5 -19.5 33.2 -31.2 64.5l-15.6 -7.8Q41 293 25.4 320.3q-7.8 31.3 19.5 46.9l21.5 7.8q-1.9 2 -1.9 3.9 -5.9 27.4 -7.9 46.9v11.7l-1.9 2v9.7q-2 0 7.8 0 7.8 0 48.8 2l-56.6 -2v17.6l-29.3 9.8Q-3.9 488.3 2 519.5q11.7 29.3 42.9 23.5l31.3 -7.8q21.5 41 62.5 62.5l-7.8 31.2q-5.9 31.3 23.4 43 31.2 5.8 43 -23.5l9.7 -29.3h5.9q46.9 0 84 -19.5l17.6 17.6q25.3 19.5 50.7 0 19.6 -25.4 0 -50.8l-13.6 -13.7q27.3 -37.1 31.2 -87.9l13.7 5.9q31.2 11.7 46.9 -17.6 9.7 -31.2 -19.6 -46.8l-15.6 -5.9q15.6 -31.3 70.3 -66.4l3.9 9.8q11.7 29.2 43 23.4 29.3 -11.7 23.4 -43l-3.9 -15.6q11.7 -3.9 23.5 -5.9 35.1 -9.7 60.5 -29.3l13.7 13.7q25.4 21.5 50.8 0 19.5 -23.4 0 -48.8l-17.6 -17.6q21.5 -41 19.5 -91.8l29.3 -7.8q31.3 -11.7 25.4 -43Q736.3 48.8 705.1 54.7l-31.3 7.8Q650.4 21.5 611.3 0l7.8 -31.3q5.9 -31.2 -23.4 -42.9zM218.8 455.1l-93.8 -2 93.8 2 -93.8 -2h37.1q25.4 2 56.7 2zM250 298.8q27.3 0 44.9 17.6 17.6 17.6 17.6 44.9t-17.6 45T250 423.8t-44.9 -17.5 -17.6 -45 17.6 -44.9T250 298.8zm125 -93.7q2 -29.3 31.3 -31.3 29.2 2 31.2 31.3 -2 29.3 -31.2 31.2Q377 234.4 375 205.1zm255.9 673.8q-5.9 31.3 23.4 43 31.2 5.8 43 -23.5l9.7 -29.3q23.5 2 48.9 -3.9 21.4 -5.8 41 -11.7l9.7 25.4q15.7 29.3 46.9 19.5 29.3 -15.6 19.5 -46.8L863.3 832q48.8 -21.5 89.8 -44.9l9.8 15.6q19.5 25.4 48.8 9.8 25.4 -19.5 9.8 -48.8l-11.7 -17.6q39 -33.2 70.3 -68.4l19.5 15.7q27.4 17.5 48.8 -5.9 17.6 -27.3 -5.8 -48.8l-21.5 -17.6q5.9 -7.8 9.8 -15.6 19.5 -35.2 31.2 -64.5l15.6 5.9q31.3 7.8 46.9 -19.6 7.8 -31.2 -19.5 -46.8l-21.5 -7.8q1.9 -2 1.9 -3.9 5.9 -27.4 7.9 -46.9v-11.7l1.9 -2v-9.8q2 0 -7.8 0 -7.8 0 -48.8 -1.9l56.6 1.9v-17.5l29.3 -9.8q29.3 -11.7 23.4 -43 -11.7 -29.3 -42.9 -23.4l-31.3 7.8q-21.5 -41 -62.5 -62.5l7.8 -31.2q5.9 -31.3 -23.4 -43 -31.2 -5.9 -43 23.4l-9.7 29.3h-5.9q-46.9 0 -84 19.5l-17.6 -17.5q-25.3 -19.6 -50.7 0 -19.6 25.4 0 50.8l15.6 13.6q-29.3 37.1 -33.2 86L853.5 375q-31.2 -9.8 -44.9 19.5 -11.7 31.3 17.6 46.9l17.6 5.9q-17.6 31.2 -72.3 66.4l-3.9 -9.8q-11.7 -29.3 -43 -23.4 -29.3 11.7 -23.4 42.9l3.9 15.7q-11.7 3.9 -23.5 5.8 -33.2 9.8 -60.5 29.3l-13.7 -15.6q-25.4 -19.5 -50.8 0 -19.5 25.4 0 50.8l17.6 17.6q-21.5 41 -19.5 91.8l-29.3 7.8q-29.3 11.7 -23.4 42.9 11.7 29.3 42.9 23.5l31.3 -7.8q21.5 41 62.5 64.4l-7.8 29.3zM1125 396.5q-15.6 -2 -37.1 -2 -25.4 -1.9 -56.6 -1.9l93.7 1.9v2zM875 673.8q0 27.4 -17.6 45 -17.6 17.5 -44.9 17.5t-44.9 -17.5 -17.6 -45 17.6 -44.9 44.9 -17.6 44.9 17.6 17.6 44.9z"/></svg>