<svg height="1000" width="1125" xmlns="http://www.w3.org/2000/svg"><path d="M562.5 -76.2q46.9 2 60.5 46.9l46.9 173.8L818.4 41q39 -23.4 76.1 3.9 33.2 31.3 15.7 74.2L834 283.2l179.7 15.6q44.9 5.9 56.6 50.8 5.9 46.9 -35.1 68.4l-164.1 76.1 128.9 127q29.3 35.2 9.8 76.2 -25.4 39 -70.3 29.3L763.7 679.7l15.6 179.7q2 46.9 -41 64.4 -43 13.7 -72.3 -23.4L562.5 752 459 900.4q-29.3 37.1 -72.3 23.4 -42.9 -17.5 -41 -64.4l15.6 -179.7 -175.8 46.9q-44.9 9.7 -70.3 -29.3 -19.5 -41 11.8 -76.2l126.9 -127L89.8 418q-41 -21.5 -35.1 -68.4 9.8 -44.9 56.6 -50.8L291 283.2 214.8 119.1Q197.3 76.2 230.5 44.9 267.6 17.6 306.6 41l148.5 103.5L502 -29.3q13.6 -44.9 60.5 -46.9zm0 304.7l-9.8 35.2 9.8 -35.2 -9.8 35.2q-7.8 31.2 -39 42.9 -29.3 9.8 -56.7 -7.8l-29.3 -21.5 15.7 33.2q11.7 29.3 -3.9 58.6 -15.7 27.4 -48.9 31.3l-35.1 1.9 33.2 15.7q27.3 13.6 35.1 46.8 3.9 31.3 -17.5 54.7l-25.4 25.4 33.2 -9.7q31.2 -7.9 56.6 13.6 25.4 19.6 23.4 52.8l-3.9 35.1 21.5 -29.3q17.6 -25.4 50.8 -27.3 31.3 1.9 50.8 27.3l21.5 29.3 -3.9 -35.1q-2 -33.2 21.4 -52.8 25.4 -21.5 56.7 -13.6l35.1 9.7 -25.3 -25.4q-21.5 -23.4 -17.6 -54.7Q707 431.6 736.3 418l33.2 -15.7 -37.1 -1.9q-31.2 -3.9 -48.8 -31.3 -15.6 -29.3 -2 -58.6l15.7 -33.2L668 298.8q-27.4 17.6 -58.6 7.8 -29.3 -11.7 -39.1 -42.9l-7.8 -35.2z"/></svg>