<svg height="1000" width="625" xmlns="http://www.w3.org/2000/svg"><path d="M281.3 -76.2q-27.4 0 -45 17.6 -17.5 17.6 -17.5 44.9v62.5H74.2Q43 48.8 21.5 70.3T0 123v593.8q0 35.2 23.4 58.6T82 798.8h136.8v62.5q0 27.4 17.5 45t45 17.5 44.9 -17.5 17.6 -45v-62.5h62.5q93.7 -1.9 154.2 -64.4Q623 673.8 625 580.1q0 -58.6 -27.3 -107.4 -29.3 -48.9 -76.2 -78.2 39 -54.7 41 -126.9 -2 -93.8 -64.5 -154.3Q437.5 50.8 343.8 48.8v-62.5q0 -27.3 -17.6 -44.9t-44.9 -17.6zm-62.5 250v187.5V173.8v187.5H125V173.8h93.8zm125 187.5V173.8v187.5V173.8q39 2 66.4 27.4 25.3 27.3 27.3 66.4 -2 39 -27.3 66.4 -27.4 25.4 -66.4 27.3zm-125 125v187.5V486.3v187.5H125V486.3h93.8zm125 187.5V486.3v187.5V486.3h62.5q39 2 66.4 27.4Q498 541 500 580.1q-2 39 -27.3 66.4 -27.4 25.4 -66.4 27.3h-62.5z"/></svg>