<svg height="1000" width="1000" xmlns="http://www.w3.org/2000/svg"><path d="M195.3 207l154.3 154.3L195.3 207l154.3 154.3 187.5 187.5 179.7 181.7Q623 796.9 500 798.8 339.8 794.9 234.4 689.5T125 423.8q2 -123 70.3 -216.8zm455.1 279.3l-62.5 -62.5 62.5 62.5 -62.5 -62.5H750v62.5h-99.6zm62.5 62.5h68.4 -68.4 68.4q29.2 -1.9 31.2 -31.2v-125q-2 -29.3 -31.2 -31.3H525.4L283.2 119.1Q377 50.8 500 48.8q160.2 3.9 265.6 109.4T875 423.8q-2 123.1 -68.4 216.8l-93.7 -91.8zM500 923.8q136.7 -1.9 250 -66.4Q863.3 791 933.6 673.8q66.4 -119.1 66.4 -250t-66.4 -250Q863.3 56.6 750 -9.8 636.7 -74.2 500 -76.2q-136.7 2 -250 66.4Q136.7 56.6 66.4 173.8 0 293 0 423.8t66.4 250Q136.7 791 250 857.4q113.3 64.5 250 66.4zm31.3 -812.5q-29.3 2 -31.3 31.3 2 39 27.3 66.4 27.4 25.4 66.5 27.3h62.5q29.2 2 31.2 31.3t31.3 31.2Q748 296.9 750 267.6q-2 -39.1 -27.3 -66.4 -27.4 -25.4 -66.4 -27.4h-62.5q-29.3 -1.9 -31.3 -31.2t-31.2 -31.3zm-82.1 437.5L261.7 361.3l187.5 187.5L261.7 361.3h-42.9q-29.3 2 -31.3 31.3v125q2 29.3 31.3 31.2h230.4z"/></svg>