<svg height="1000" width="1000" xmlns="http://www.w3.org/2000/svg"><path d="M716.8 730.5L195.3 207l521.5 523.5L195.3 207Q127 300.8 125 423.8q3.9 160.2 109.4 265.7T500 798.8q123 -1.9 216.8 -68.3zm89.8 -89.9Q873 546.9 875 423.8 871.1 263.7 765.6 158.2T500 48.8q-123 2 -216.8 70.3l523.4 521.5zM0 423.8q2 -136.7 66.4 -250Q132.8 60.5 250 -9.8q119.1 -66.4 250 -66.4t250 66.4q117.2 70.3 183.6 183.6 64.4 113.3 66.4 250 -2 136.7 -66.4 250Q867.2 787.1 750 857.4q-119.1 66.4 -250 66.4T250 857.4Q132.8 787.1 66.4 673.8 2 560.5 0 423.8z"/></svg>