<svg height="1000" width="1250" xmlns="http://www.w3.org/2000/svg"><path d="M937.5 736.3H1125 937.5 1125q52.7 -1.9 87.9 -37.1t37.1 -87.9v-375q-2 -52.7 -37.1 -87.9T1125 111.3H937.5v625zM875 111.3H375h500H375v625h500v-625zm-750 0q-52.7 2 -87.9 37.1Q2 183.6 0 236.3v375q2 52.8 37.1 87.9t87.9 37.1h187.5v-625H125zm359.4 218.8q3.9 -43 46.9 -46.9 42.9 3.9 46.8 46.9Q574.2 373 531.3 377q-43 -4 -46.9 -46.9zm234.4 -46.9q42.9 3.9 46.8 46.9Q761.7 373 718.8 377q-43 -4 -46.9 -46.9 3.9 -43 46.9 -46.9zM484.4 517.6q3.9 -43 46.9 -46.9 42.9 3.9 46.8 46.9 -3.9 42.9 -46.8 46.9 -43 -4 -46.9 -46.9zm234.4 -46.9q42.9 3.9 46.8 46.9 -3.9 42.9 -46.8 46.9 -43 -4 -46.9 -46.9 3.9 -43 46.9 -46.9z"/></svg>