<svg height="1000" width="750" xmlns="http://www.w3.org/2000/svg"><path d="M70.3 -13.7Q43 -15.6 23.4 0 3.9 15.6 0 41q-2 27.4 13.7 46.9t41 23.4l15.6 2q50.8 9.7 54.7 62.5v60.5H62.5q-27.3 0 -44.9 17.6T0 298.8t17.6 45 44.9 17.5H125v312.5q2 80.1 54.7 132.8t132.8 54.7H375Q535.2 857.4 640.6 752T750 486.3v-62.5q-2 -80 -54.7 -132.8T562.5 236.3h-31.2q-27.4 0 -45 17.6t-17.5 44.9 17.5 45 45 17.5h31.2q27.3 0 44.9 17.6t17.6 44.9v62.5q-2 105.5 -72.3 177.8Q480.5 734.4 375 736.3h-62.5q-27.3 0 -44.9 -17.5t-17.6 -45V361.3h62.5q27.3 0 44.9 -17.5t17.6 -45 -17.6 -44.9 -44.9 -17.6H250v-60.5q-2 -74.2 -46.9 -125T85.9 -11.7l-15.6 -2z"/></svg>