<svg height="1000" width="1000" xmlns="http://www.w3.org/2000/svg"><path d="M46.9 -13.7Q3.9 -9.8 0 33.2v781.3q3.9 42.9 46.9 46.8h31.2q43 -3.9 46.9 -46.8V33.2q-3.9 -43 -46.9 -46.9H46.9zm171.9 0q-29.3 2 -31.3 31.3v812.5q2 29.3 31.3 31.2Q248 859.4 250 830.1V17.6q-2 -29.3 -31.2 -31.3zm140.6 0q-43 3.9 -46.9 46.9v781.3q3.9 42.9 46.9 46.8h31.2q43 -3.9 46.9 -46.8V33.2q-3.9 -43 -46.9 -46.9h-31.2zm187.5 0q-43 3.9 -46.9 46.9v781.3q3.9 42.9 46.9 46.8h31.2q43 -3.9 46.9 -46.8V33.2q-3.9 -43 -46.9 -46.9h-31.2zM875 33.2v781.3V33.2v781.3q3.9 42.9 46.9 46.8h31.2q43 -3.9 46.9 -46.8V33.2q-3.9 -43 -46.9 -46.9h-31.2q-43 3.9 -46.9 46.9zM750 17.6v812.5V17.6v812.5q2 29.3 31.3 31.2 29.2 -1.9 31.2 -31.2V17.6q-2 -29.3 -31.2 -31.3 -29.3 2 -31.3 31.3z"/></svg>