<svg height="1000" width="1000" xmlns="http://www.w3.org/2000/svg"><path d="M875 236.3H625h250H625v-62.5h250v62.5zM93.8 48.8q-39.1 2 -66.5 27.4Q2 103.5 0 142.6v125q2 39 27.3 66.4 27.4 25.4 66.5 27.3h812.5q39 -1.9 66.4 -27.3Q998 306.6 1000 267.6v-125q-2 -39.1 -27.3 -66.4Q945.3 50.8 906.3 48.8H93.8zM875 611.3v62.5 -62.5 62.5H375v-62.5h500zM93.8 486.3q-39.1 2 -66.5 27.4Q2 541 0 580.1v125q2 39 27.3 66.4 27.4 25.4 66.5 27.3h812.5q39 -1.9 66.4 -27.3Q998 744.1 1000 705.1v-125Q998 541 972.7 513.7q-27.4 -25.4 -66.4 -27.4H93.8z"/></svg>