<svg height="1000" width="1000" xmlns="http://www.w3.org/2000/svg"><path d="M828.1 -76.2q-37.1 0 -64.4 27.4L457 257.8q-31.2 31.3 -54.7 68.4L259.8 552.7q-21.5 33.2 -50.8 62.5l-72.3 72.3 99.6 99.6 74.2 -72.3q27.4 -29.3 60.6 -50.7L597.7 521.5Q634.8 498 666 466.8L972.7 160.2Q1000 132.8 1000 95.7T972.7 31.3l-80.1 -80.1q-27.4 -27.4 -64.5 -27.4zM1000 767.6q-2 -87.9 -78.1 -134.8 -78.1 -43 -156.3 0 -76.1 46.9 -78.1 134.8 2 87.9 78.1 134.7 78.2 43 156.3 0Q998 855.5 1000 767.6zM29.3 703.1q-27.3 33.2 0 66.4l125 125q33.2 27.4 66.4 0 27.3 -33.2 0 -66.4l-125 -125q-33.2 -27.3 -66.4 0z"/></svg>