<svg height="1000" width="1000" xmlns="http://www.w3.org/2000/svg"><path d="M123 359.4q-13.6 1.9 -29.2 1.9 -45 0 -87.9 -11.7Q33.2 183.6 146.5 70.3T425.8 -70.3q11.7 43 11.7 87.9 0 13.7 -2 29.3 2 27.3 29.3 33.2 29.3 0 33.2 -29.3 2 -15.6 2 -33.2 0 -48.9 -11.7 -93.8H500q140.6 2 252 68.4 113.2 66.4 179.6 179.7Q998 283.2 1000 423.8v11.7q-44.9 -11.7 -93.7 -11.7 -17.6 0 -33.3 2 -29.2 3.9 -29.2 33.2 5.8 29.3 33.2 29.3 15.6 -2 29.3 -2 46.8 0 87.8 11.7Q966.8 664.1 853.5 777.3T574.2 918q-11.7 -43 -11.7 -87.9 0 -13.7 2 -29.3 -2 -27.4 -29.3 -33.2 -29.3 0 -33.2 29.3 -2 15.6 -2 33.2 0 48.8 11.7 93.7H500Q359.4 921.9 248 855.5 134.8 789.1 68.4 675.8 2 564.5 0 423.8v-11.7q44.9 11.7 93.8 11.7 17.5 0 33.2 -1.9 29.3 -3.9 29.3 -33.2Q150.4 361.3 123 359.4zm113.3 -29.3q-23.4 13.7 -15.6 41 15.6 25.4 43 15.6Q398.4 322.3 462.9 187.5q9.8 -27.3 -15.6 -43 -27.4 -7.8 -41 15.7 -54.7 115.2 -170 169.9zm543 146.5q-15.6 -25.4 -43 -15.7Q601.6 525.4 537.1 660.2q-9.8 27.3 15.6 42.9 27.4 7.8 41.1 -15.6Q648.4 572.3 763.7 517.6q23.4 -13.7 13.6 -41h2z"/></svg>