<svg height="1000" width="1125" xmlns="http://www.w3.org/2000/svg"><path d="M494.1 -7.8q17.6 -39.1 -19.5 -62.5 -39.1 -17.6 -62.5 19.5L230.5 298.8h-168q-27.3 0 -44.9 17.6T0 361.3t17.6 45 44.9 17.5l101.6 406.3q11.7 41 44.9 66.4 31.2 27.3 76.2 27.3h554.6q45 0 76.2 -27.3 33.2 -25.4 44.9 -66.4l101.6 -406.3q27.3 0 44.9 -17.5t17.6 -45 -17.6 -44.9 -44.9 -17.6h-168L712.9 -50.8q-23.4 -37.1 -62.5 -19.5 -37.1 23.4 -19.5 62.5l158.2 306.6H335.9L494.1 -7.8zM375 517.6v187.5V517.6v187.5q-2 29.3 -31.2 31.2 -29.3 -1.9 -31.3 -31.2V517.6q2 -29.3 31.3 -31.3 29.2 2 31.2 31.3zm187.5 -31.3q29.3 2 31.3 31.3v187.5q-2 29.3 -31.3 31.2 -29.3 -1.9 -31.2 -31.2V517.6q1.9 -29.3 31.2 -31.3zm250 31.3v187.5V517.6v187.5q-2 29.3 -31.2 31.2Q752 734.4 750 705.1V517.6q2 -29.3 31.3 -31.3 29.2 2 31.2 31.3z"/></svg>