<svg height="1000" width="1000" xmlns="http://www.w3.org/2000/svg"><path d="M169.9 48.8l166 166 -166 -166 166 166q68.4 -82 70.4 -197.2 0 -43 -11.8 -82.1Q265.6 -37.1 169.9 48.8zm-44.9 45Q39.1 189.5 11.7 318.4q39.1 11.7 82.1 11.7Q209 328.1 291 259.8L125 93.8zm375 -170q-21.5 0 -43 2 11.8 44.9 11.8 91.8 -2 140.6 -87.9 242.2L500 378.9 830.1 48.8Q693.4 -72.3 500 -76.2zM93.8 392.6Q46.9 392.6 2 380.9q-2 21.4 -2 42.9 3.9 193.4 125 330.1L455.1 423.8 335.9 304.7Q234.4 390.6 93.8 392.6zM998 466.8q2 -21.5 2 -43Q996.1 230.5 875 93.8l-330.1 330L664.1 543q101.5 -86 242.2 -87.9 46.8 0 91.7 11.7zm-9.7 62.5q-39.1 -11.7 -82 -11.7Q791 519.5 709 587.9l166 166q85.9 -95.7 113.3 -224.6zM664.1 632.8q-68.4 82 -70.3 197.3 0 42.9 11.7 82Q734.4 884.8 830.1 798.8l-166 -166zm-45 -44.9L500 468.8l119.1 119.1L500 468.8l-330.1 330q134.8 121.1 330.1 125 21.5 0 43 -1.9Q531.3 877 531.3 830.1q1.9 -140.6 87.8 -242.2z"/></svg>