<svg height="1000" width="1000" xmlns="http://www.w3.org/2000/svg"><path d="M187.5 74.2q2 -23.4 25.4 -25.4 11.7 0 19.5 7.8l29.3 29.3Q250 111.3 250 142.6q2 58.6 37.1 101.5 -15.6 29.3 7.8 56.7 33.2 27.3 66.4 0L564.5 97.7q27.3 -33.2 0 -66.4Q537.1 7.8 507.8 23.4q-43 -35.1 -101.5 -37.1 -31.3 0 -56.7 11.7l-29.3 -29.3Q275.4 -76.2 212.9 -76.2q-64.5 2 -105.5 44.9Q64.5 9.8 62.5 74.2v349.6q-27.3 0 -44.9 17.6T0 486.3t17.6 45 44.9 17.5h875q27.3 0 44.9 -17.5t17.6 -45 -17.6 -44.9 -44.9 -17.6h-750V74.2zm-125 537.1v31.3 -31.3 31.3q2 85.9 62.5 140.6v78.1q0 27.4 17.6 45t44.9 17.5 44.9 -17.5 17.6 -45v-31.2h500v31.2q0 27.4 17.6 45t44.9 17.5 44.9 -17.5 17.6 -45v-78.1q60.5 -54.7 62.5 -140.6v-31.3h-875z"/></svg>