<svg height="1000" width="1250" xmlns="http://www.w3.org/2000/svg"><path d="M943.4 -56.6l80 105.4 -80 -105.4 80 105.4h179.7q43 3.9 46.9 46.9 -3.9 43 -46.9 46.9H1000q-23.4 0 -37.1 -19.6L916 60.5l-91.8 195.4q-13.7 23.4 -39 27.3 -27.4 0 -43 -21.5L662.1 142.6H421.9q-43 -3.9 -46.9 -46.9 3.9 -43 46.9 -46.9h265.6q25.4 0 39.1 21.5l46.8 70.3 89.9 -189.4q11.7 -23.5 39 -27.4 25.4 -1.9 41.1 19.6zM625 236.3h25.4H625h25.4l39.1 60.6q37.1 50.8 99.6 48.8 62.5 -5.9 91.8 -62.5l21.4 -46.9h160.2q80.1 2 132.8 54.7t54.7 132.8v437.5q0 27.4 -17.6 45t-44.9 17.5 -44.9 -17.5 -17.6 -45v-62.5H125v62.5q0 27.4 -17.6 45t-44.9 17.5T17.6 906.3 0 861.3v-750Q0 84 17.6 66.4T62.5 48.8t44.9 17.6 17.6 44.9v500h437.5V298.8q0 -27.3 17.6 -44.9T625 236.3zm-281.2 0q87.8 2 134.7 78.2 43 78.1 0 156.2 -46.9 76.2 -134.7 78.1Q255.9 546.9 209 470.7q-43 -78.1 0 -156.2 46.9 -76.2 134.8 -78.2z"/></svg>