<svg height="1000" width="1000" xmlns="http://www.w3.org/2000/svg"><path d="M62.5 48.8q0 -27.3 17.6 -44.9Q97.7 -13.7 125 -13.7h562.5q27.3 0 44.9 17.6T750 48.8v62.5h99.6q64.5 2 107.4 43 41 43 43 107.4v199.2q0 45 -23.4 82.1 -25.4 35.1 -66.4 54.7L750 669.9v66.4q-2 52.8 -37.1 87.9T625 861.3H187.5q-52.7 -1.9 -87.9 -37.1T62.5 736.3V48.8zM750 533.2l109.4 -48.8L750 533.2l109.4 -48.8Q875 476.6 875 460.9V261.7q-2 -23.4 -25.4 -25.4H750v296.9zM312.5 205.1q-2 -29.3 -31.2 -31.3 -29.3 2 -31.3 31.3v437.5q2 29.3 31.3 31.2 29.2 -1.9 31.2 -31.2V205.1zm125 0q-2 -29.3 -31.2 -31.3 -29.3 2 -31.3 31.3v437.5q2 29.3 31.3 31.2 29.2 -1.9 31.2 -31.2V205.1zm125 0q-2 -29.3 -31.2 -31.3 -29.3 2 -31.3 31.3v437.5q2 29.3 31.3 31.2 29.2 -1.9 31.2 -31.2V205.1z"/></svg>