<svg height="1000" width="1250" xmlns="http://www.w3.org/2000/svg"><path d="M76.2 -66.4Q39.1 -89.8 9.8 -58.6q-23.5 37.1 7.8 66.4l1156.2 906.3q37.1 23.4 66.4 -7.8 23.5 -37.2 -7.8 -66.5L1056.6 701.2v-2q15.7 -37.1 -9.7 -66.4l-13.7 -17.6q-93.7 -105.4 -95.7 -248v-37.1q-2 -115.3 -72.3 -199.2Q796.9 46.9 687.5 23.4v-37.1q0 -27.3 -17.6 -44.9T625 -76.2t-44.9 17.6 -17.6 44.9v37.1Q433.6 52.7 363.3 160.2L76.2 -66.4zM793 736.3L312.5 357.4 793 736.3 312.5 357.4v9.8q-2 142.6 -93.7 250l-15.7 15.6q-25.4 29.3 -9.7 66.4 17.5 35.2 56.6 37.1h543zm-80.1 150.4Q750 849.6 750 798.8H500q0 50.8 37.1 87.9t87.9 37.1 87.9 -37.1z"/></svg>