<svg height="1000" width="875" xmlns="http://www.w3.org/2000/svg"><path d="M437.5 -76.2q-27.3 0 -44.9 17.6Q375 -41 375 -13.7v37.1Q265.6 46.9 197.3 130.9 127 214.8 125 330.1v37.1q-2 140.6 -93.7 248l-15.7 17.6q-25.4 29.3 -9.7 66.4 17.5 35.2 56.6 37.1h750q39.1 -1.9 56.6 -37.1 15.7 -37.1 -9.7 -66.4l-13.7 -17.6Q752 509.8 750 367.2v-37.1Q748 214.8 677.7 130.9 609.4 46.9 500 23.4v-37.1q0 -27.3 -17.6 -44.9t-44.9 -17.6zm87.9 962.9q37.1 -37.1 37.1 -87.9h-250q0 50.8 37.1 87.9t87.9 37.1 87.9 -37.1z"/></svg>