<svg height="1000" width="1250" xmlns="http://www.w3.org/2000/svg"><path d="M578.1 189.5V95.7v93.8V95.7h93.8v93.8h-93.8zM562.5 -13.7q-39.1 2 -66.4 27.4Q470.7 41 468.8 80.1v7.8H238.3Q203.1 21.5 125 17.6 72.3 19.5 37.1 54.7T0 142.6q2 52.7 37.1 87.9t87.9 37.1q78.1 -3.9 113.3 -70.3h130.8q-87.8 58.6 -142.5 150.4Q173.8 437.5 166 548.8h-9.7q-39.1 2 -66.5 27.4 -25.3 27.3 -27.3 66.4v125q2 39 27.3 66.4 27.4 25.4 66.5 27.3h125q39 -1.9 66.4 -27.3Q373 806.6 375 767.6v-125q-2 -39.1 -27.3 -66.4 -27.4 -25.4 -66.4 -27.4h-5.9q9.8 -99.6 66.4 -175.8 54.7 -76.1 142.6 -115.2 27.3 39.1 78.1 41h125q50.8 -1.9 78.1 -41 87.9 39.1 142.6 115.2 56.6 76.2 66.4 175.8h-5.8q-39.1 2 -66.5 27.4Q877 603.5 875 642.6v125q2 39 27.3 66.4 27.4 25.4 66.5 27.3h125q39 -1.9 66.4 -27.3 25.3 -27.4 27.3 -66.4v-125q-2 -39.1 -27.3 -66.4 -27.4 -25.4 -66.4 -27.4h-7.9q-9.7 -111.3 -62.5 -201.1Q968.8 255.9 882.8 197.3h128.9q35.2 66.4 113.3 70.3 52.7 -2 87.9 -37.1t37.1 -87.9q-2 -52.8 -37.1 -87.9T1125 17.6q-78.1 3.9 -113.3 70.3H781.3v-7.8Q779.3 41 753.9 13.7q-27.3 -25.4 -66.4 -27.4h-125zM171.9 658.2h93.7 -93.7 93.7V752h-93.7v-93.8zM984.4 752v-93.8V752v-93.8h93.7V752h-93.7z"/></svg>