<svg height="1000" width="1250" xmlns="http://www.w3.org/2000/svg"><path d="M609.4 -13.7q-43 3.9 -46.9 46.9 3.9 43 46.9 46.9h50.8l66.4 125H435.5l-52.7 -74.2q-15.6 -19.6 -39 -19.6H234.4q-43 3.9 -46.9 46.9 3.9 43 46.9 46.9h85.9l43 60.5 -52.8 103.5q-29.2 -7.8 -60.5 -7.8 -105.5 2 -177.7 72.3Q2 505.9 0 611.3q2 105.5 72.3 177.8 72.2 70.3 177.7 72.2 97.7 -1.9 166 -62.5 68.4 -62.5 82 -156.2h95.8q25.3 0 41 -23.5l166 -279.3 41 78.2Q753.9 490.2 750 611.3q2 105.5 72.3 177.8 72.2 70.3 177.7 72.2 105.5 -1.9 177.7 -72.2Q1248 716.8 1250 611.3q-2 -105.4 -72.3 -177.7Q1105.5 363.3 1000 361.3q-39.1 0 -76.2 11.7L732.4 19.5q-17.6 -31.2 -54.7 -33.2h-68.3zm287.1 531.3L959 632.8 896.5 517.6 959 632.8q23.4 37.1 62.5 19.5 37.1 -23.4 19.5 -62.5L978.5 472.7q9.8 -2 21.5 -2 60.5 2 99.6 41t41 99.6q-1.9 60.6 -41 99.6T1000 752q-60.5 -2 -99.6 -41.1t-41 -99.6q1.9 -54.7 37.1 -93.7zm-636.7 125h126.9H259.8h126.9q-11.7 48.8 -48.8 78.1Q300.8 752 250 752q-60.5 -2 -99.6 -41.1t-41 -99.6q1.9 -60.5 41 -99.6t99.6 -41h9.8l-46.9 95.7q-11.7 27.4 1.9 50.8 15.7 23.4 45 25.4zm66.4 -93.8l99.6 -197.2 -99.6 197.2 99.6 -197.2 142.6 197.2H326.2zm177.7 -250h210.9H503.9h210.9l-95.7 162.1L502 298.8h1.9z"/></svg>