<svg height="1000" width="1000" xmlns="http://www.w3.org/2000/svg"><path d="M250 -13.7h62.5H250h62.5q27.3 0 44.9 17.6T375 48.8v62.5H187.5V48.8q0 -27.3 17.6 -44.9T250 -13.7zm125 187.5v625 -625 625q0 27.4 -17.6 45t-44.9 17.5h-250q-27.3 0 -44.9 -17.5T0 798.8V683.6Q0 580.1 52.7 492.2q41.1 -68.4 50.8 -146.5l15.6 -117.2q9.8 -50.8 60.6 -54.7H375zm445.3 0q50.8 3.9 62.5 54.7l13.7 117.2q9.8 78.1 50.8 146.5 52.7 87.9 52.7 191.4v115.2q0 27.4 -17.6 45t-44.9 17.5h-250q-27.3 0 -44.9 -17.5t-17.6 -45v-625h195.3zM625 48.8q0 -27.3 17.6 -44.9 17.6 -17.6 44.9 -17.6H750q27.3 0 44.9 17.6t17.6 44.9v62.5H625V48.8zm-62.5 125v312.5V173.8v312.5h-125V173.8h125z"/></svg>