<svg height="1000" width="1125" xmlns="http://www.w3.org/2000/svg"><path d="M337.9 -76.2q-5.9 0 -9.8 3.9 -89.8 91.8 -93.7 230.5 0 78.1 33.2 142.6 -66.4 7.8 -127 41Q39.1 400.4 0 502q-2 5.8 2 9.7 7.8 11.7 21.4 3.9 82.1 -74.2 191.4 -72.2 111.4 0 185.6 113.2 64.4 119.2 9.8 212.9T248 894.5q-11.7 5.9 -7.8 19.6 3.9 3.9 9.8 5.8 109.4 17.6 214.8 -37.1 58.6 -35.1 97.7 -85.9 39.1 50.8 99.6 85.9 103.5 54.7 212.9 37.1 5.9 -1.9 9.8 -5.8 3.9 -13.7 -7.8 -19.6Q769.5 863.3 714.8 769.5t9.8 -212.9Q798.8 443.4 910.2 443.4q109.3 -2 193.3 72.2 11.7 7.8 19.5 -3.9 4 -3.9 2 -9.7Q1085.9 400.4 982.4 341.8q-58.6 -33.2 -125 -41 33.2 -64.5 33.2 -142.6Q886.7 19.5 796.9 -72.3q-3.9 -3.9 -9.8 -3.9 -17.6 2 -13.7 19.6 25.4 70.3 9.8 144.5t-70.3 126.9q-54.7 50.8 -150.4 52.8 -95.7 -2 -150.4 -52.8Q357.4 162.1 341.8 87.9t9.8 -144.5q3.9 -17.6 -13.7 -19.6zm130.9 531.3q1.9 -52.8 46.8 -82.1 46.9 -23.4 93.8 0 44.9 29.3 46.9 82.1 -2 52.7 -46.9 82 -46.9 23.4 -93.8 0 -44.9 -29.3 -46.8 -82zM355.5 740.2q19.5 -35.1 15.6 -78.1Q312.5 607.4 291 529.3q-37.1 -23.4 -78.1 -23.4 -25.4 -2 -52.7 3.9 11.7 84 54.6 154.3 41.1 70.3 107.5 119.1 19.5 -19.5 33.2 -43zm207 -691.4q-85.9 0 -158.2 33.2 5.9 23.5 17.6 45 19.5 37.1 58.6 58.5 39 -11.7 82 -11.7t82 11.7q39.1 -21.4 58.6 -58.5 11.7 -21.5 17.6 -45Q646.5 48.8 562.5 48.8zM834 529.3q-21.5 78.1 -80.1 132.8 -3.9 43 15.6 78.1 13.7 23.5 33.2 43 66.4 -48.8 107.5 -119.1 42.9 -70.3 54.6 -154.3 -27.3 -5.9 -52.7 -3.9 -41 0 -78.1 23.4z"/></svg>