<svg height="1000" width="625" xmlns="http://www.w3.org/2000/svg"><path d="M93.8 -13.7q0 -27.3 17.5 -44.9 17.6 -17.6 45 -17.6t44.9 17.6 17.6 44.9v62.5h62.5v-62.5q0 -27.3 17.5 -44.9t45 -17.6 44.9 17.6 17.6 44.9v72.3q68.3 19.5 111.3 76.2t44.9 132.8q-2 72.2 -41 126.9 46.9 29.3 76.2 78.2Q625 521.5 625 580.1q-2 93.7 -64.5 154.3Q500 796.9 406.3 798.8v62.5q0 27.4 -17.6 45t-44.9 17.5 -45 -17.5 -17.5 -45v-62.5h-62.5v62.5q0 27.4 -17.6 45t-44.9 17.5 -45 -17.5 -17.5 -45v-62.5H82q-35.1 0 -58.6 -23.4T0 716.8V123Q0 91.8 21.5 70.3T74.2 48.8h19.6v-62.5zm31.2 375h218.8H125h218.8q39 -1.9 66.4 -27.3 25.3 -27.4 27.3 -66.4 -2 -39.1 -27.3 -66.4 -27.4 -25.4 -66.4 -27.4H125v187.5zm218.8 125H125h218.8H125v187.5h281.3q39 -1.9 66.4 -27.3Q498 619.1 500 580.1 498 541 472.7 513.7q-27.4 -25.4 -66.4 -27.4h-62.5z"/></svg>