<svg height="1000" width="1125" xmlns="http://www.w3.org/2000/svg"><path d="M437.5 611.3L384.8 25.4l52.7 585.9L384.8 25.4q-3.9 -41 23.4 -70.3t70.3 -31.3H1043q31.2 2 50.8 25.4 17.5 23.5 9.7 52.8l-11.7 46.8H781.3Q752 50.8 750 80.1q2 29.3 31.3 31.2h292.9l-35.1 125H781.3q-29.3 2 -31.3 31.3 2 29.3 31.3 31.2h242.1l-35.1 125h-207q-29.3 2 -31.3 31.3 2 29.3 31.3 31.2h191.4l-35.2 125h-500zm-31.2 62.5h562.5H406.3h562.5q39 2 66.4 27.4 25.3 27.3 27.3 66.4v62.5q-2 39 -27.3 66.4 -27.4 25.4 -66.4 27.3H406.3q-39.1 -1.9 -66.5 -27.3 -25.3 -27.4 -27.3 -66.4v-62.5q2 -39.1 27.3 -66.4 27.4 -25.4 66.5 -27.4zm281.2 187.5q27.3 0 44.9 -17.5 17.6 -17.6 17.6 -45t-17.6 -44.9 -44.9 -17.6 -44.9 17.6T625 798.8t17.6 45 44.9 17.5zM289.1 -15.6q31.2 23.4 19.5 64.4l-43 113.3q-15.6 33.2 -48.8 31.3l-64.5 -5.9q-41 127 0 253.9l64.5 -5.9q35.2 -1.9 48.8 31.3l43 113.3q11.7 41 -19.5 64.4l-86 54.7q-33.2 15.6 -58.6 -9.7Q48.8 584 15.6 449.2q-31.2 -134.7 0 -269.5Q48.8 44.9 144.5 -60.5q25.4 -25.4 58.6 -7.9l86 52.8z"/></svg>