<svg height="1000" width="1000" xmlns="http://www.w3.org/2000/svg"><path d="M0 48.8Q2 -3.9 37.1 -39.1 72.3 -74.2 125 -76.2h793q31.2 2 50.8 25.4 17.5 23.5 9.7 52.8l-11.7 46.8H656.3Q627 50.8 625 80.1q2 29.3 31.3 31.2h292.9l-35.1 125H656.3q-29.3 2 -31.3 31.3 2 29.3 31.3 31.2h242.1l-35.1 125h-207q-29.3 2 -31.3 31.3 2 29.3 31.3 31.2h191.4l-35.2 125h-500L294.9 423.8H125Q72.3 421.9 37.1 386.7T0 298.8v-250zm285.2 250l-23.5 -250 23.5 250 -23.5 -250H125v250h160.2zm-3.9 375h562.5H281.3h562.5q39 2 66.4 27.4 25.3 27.3 27.3 66.4v62.5q-2 39 -27.3 66.4 -27.4 25.4 -66.4 27.3H281.3q-39.1 -1.9 -66.5 -27.3 -25.3 -27.4 -27.3 -66.4v-62.5q2 -39.1 27.3 -66.4 27.4 -25.4 66.5 -27.4zm281.2 187.5q27.3 0 44.9 -17.5 17.6 -17.6 17.6 -45t-17.6 -44.9 -44.9 -17.6 -44.9 17.6T500 798.8t17.6 45 44.9 17.5z"/></svg>