<svg height="1000" width="1000" xmlns="http://www.w3.org/2000/svg"><path d="M375 -13.7q0 27.4 17.6 45 17.6 17.5 44.9 17.5 123 2 220.7 60.6 99.6 56.6 156.3 156.2Q873 363.3 875 486.3q0 27.4 17.6 45t44.9 17.5 44.9 -17.5 17.6 -45Q998 330.1 923.8 203.1 847.7 76.2 720.7 0 593.8 -74.2 437.5 -76.2q-27.3 0 -44.9 17.6T375 -13.7zm0 187.5q0 27.4 17.6 45 17.6 17.5 44.9 17.5 105.5 2 177.7 72.3 70.3 72.3 72.3 177.7 0 27.4 17.6 45t44.9 17.5 44.9 -17.5 17.6 -45Q808.6 326.2 703.1 220.7T437.5 111.3q-27.3 0 -44.9 17.6T375 173.8zm-187.5 31.3q-2 -39.1 -27.3 -66.4Q132.8 113.3 93.8 111.3q-39.1 2 -66.5 27.4Q2 166 0 205.1v437.5q3.9 119.1 82 199.2 80.1 78.1 199.3 82 119.1 -3.9 199.2 -82 78.1 -80.1 82 -199.2 -3.9 -119.2 -82 -199.2Q400.4 365.2 281.3 361.3H250v187.5h31.3q39 2 66.4 27.4 25.3 27.3 27.3 66.4 -2 39 -27.3 66.4 -27.4 25.4 -66.4 27.3Q242.2 734.4 214.8 709q-25.3 -27.4 -27.3 -66.4V205.1z"/></svg>