<svg height="1000" width="750" xmlns="http://www.w3.org/2000/svg"><path d="M0 48.8Q0 21.5 17.6 3.9q17.6 -17.6 44.9 -17.6h375q105.5 2 177.7 72.3 70.3 72.3 72.3 177.7 -2 93.8 -58.6 160.2 54.7 33.2 87.9 89.8t33.2 125q-2 105.5 -72.3 177.8Q605.5 859.4 500 861.3H62.5q-27.3 0 -44.9 -17.5T0 798.8t17.6 -44.9 44.9 -17.6h31.3v-625H62.5q-27.3 0 -44.9 -17.5T0 48.8zm437.5 312.5q52.7 -1.9 87.9 -37.1 35.1 -35.1 37.1 -87.9 -2 -52.7 -37.1 -87.9t-87.9 -37.1H218.8v250h218.7zm-218.7 125v250 -250 250H500q52.7 -1.9 87.9 -37.1T625 611.3q-2 -52.7 -37.1 -87.9T500 486.3H218.8z"/></svg>