<svg height="1000" width="1000" xmlns="http://www.w3.org/2000/svg"><path d="M896.5 25.4l-31.3 -87.9 31.3 87.9 -31.3 -87.9q-7.8 -13.7 -21.4 -13.7t-19.6 13.7L791 25.4l-89.8 33.2q-13.7 5.9 -13.7 21.5 0 13.7 13.7 19.5l89.8 33.2 33.2 87.9q5.9 13.7 19.6 15.6 15.6 -1.9 21.4 -15.6l31.3 -87.9 89.8 -33.2Q998 93.8 1000 80.1 998 64.5 986.3 58.6L896.5 25.4zM638.7 128.9q-19.6 -17.6 -44.9 -17.6 -25.4 0 -45 17.6l-3.9 5.9Q478.5 111.3 406.3 111.3q-171.9 3.9 -287.2 119.2T0 517.6q3.9 171.9 119.1 287.1t287.2 119.1q171.8 -3.9 287.1 -119.1T812.5 517.6q0 -72.3 -23.4 -136.7l5.8 -5.9q17.6 -19.5 17.6 -44.9t-17.6 -44.9L638.7 128.9zM390.6 298.8q-85.9 2 -144.5 58.6Q189.5 416 187.5 502v15.6q-2 29.3 -31.2 31.2Q127 546.9 125 517.6V502q2 -113.3 78.1 -187.5 74.2 -76.2 187.5 -78.2h15.7q29.2 2 31.2 31.3 -2 29.3 -31.2 31.2h-15.7z"/></svg>