<svg height="1000" width="1125" xmlns="http://www.w3.org/2000/svg"><path d="M300.8 207q9.7 23.5 29.3 43 19.5 17.6 44.9 17.6h375q25.4 0 44.9 -17.6 19.6 -19.5 29.3 -43 19.6 -42.9 56.7 -68.3 39 -27.4 87.9 -27.4 66.4 2 111.3 45 42.9 44.9 44.9 111.3 -3.9 93.7 -82 136.7 -11.7 7.8 -11.7 19.5t11.7 19.6q78.1 42.9 82 136.7 -2 66.4 -44.9 111.3 -44.9 43 -111.3 44.9 -48.9 0 -87.9 -27.3 -37.1 -25.4 -56.7 -68.4 -9.7 -23.4 -29.3 -42.9Q775.4 580.1 750 580.1H375q-25.4 0 -44.9 17.6 -19.6 19.5 -29.3 42.9 -19.5 43 -56.7 68.4 -39 27.3 -87.8 27.3Q89.8 734.4 44.9 691.4 2 646.5 0 580.1 3.9 486.3 82 443.4q11.8 -7.9 11.8 -19.6T82 404.3Q3.9 361.3 0 267.6 2 201.2 44.9 156.3q44.9 -43 111.4 -45 48.8 0 87.8 27.4 37.2 25.4 56.7 68.3z"/></svg>