<svg height="1000" width="875" xmlns="http://www.w3.org/2000/svg"><path d="M312.5 332q-3.9 87.9 -72.3 130.9 -50.7 33.2 -82 85.9h433.6q-31.3 -52.7 -82 -85.9 -68.4 -43 -72.3 -132.8V48.8h-125V332zm250 -283.2V332 48.8 332q0 15.7 15.6 27.4 33.2 19.5 60.6 46.9l76.1 -76.2 -13.6 -13.7q-27.4 -33.2 0 -66.4 33.2 -27.3 66.4 0l46.9 46.9 46.8 46.9q27.4 33.2 0 66.4 -33.2 27.3 -66.4 0l-13.6 -13.7 -84 84Q748 566.4 750 673.8q-2 117.2 -62.5 209 -31.2 41 -85.9 41H148.4q-54.6 0 -85.9 -41Q2 791 0 673.8 2 574.2 46.9 492.2q46.9 -82 125 -132.8 15.6 -11.7 15.6 -27.4V48.8q-27.3 0 -44.9 -17.5t-17.6 -45 17.6 -44.9 44.9 -17.6h375q27.3 0 44.9 17.6t17.6 44.9 -17.6 45 -44.9 17.5z"/></svg>