<svg height="1000" width="875" xmlns="http://www.w3.org/2000/svg"><path d="M187.5 -76.2q-80.1 2 -132.8 54.7Q2 31.3 0 111.3v625q2 80.1 54.7 132.8t132.8 54.7h625q27.3 0 44.9 -17.5t17.6 -45 -17.6 -44.9 -44.9 -17.6v-125q27.3 0 44.9 -17.5t17.6 -45v-625q0 -27.3 -17.6 -44.9t-44.9 -17.6h-625zm0 750h500 -500 500v125h-500q-27.3 0 -44.9 -17.5t-17.6 -45 17.6 -44.9 44.9 -17.6zM406.3 80.1q1.9 -29.3 31.2 -31.3H500q29.3 2 31.3 31.3v93.7H625q29.3 2 31.3 31.3v62.5q-2 29.3 -31.3 31.2h-93.7v218.8q-2 29.3 -31.3 31.2h-62.5q-29.3 -1.9 -31.2 -31.2V298.8h-93.8q-29.3 -1.9 -31.2 -31.2v-62.5q1.9 -29.3 31.2 -31.3h93.8V80.1z"/></svg>