<svg height="1000" width="875" xmlns="http://www.w3.org/2000/svg"><path d="M0 111.3q2 -80 54.7 -132.8 52.7 -52.7 132.8 -54.7h625q27.3 0 44.9 17.6t17.6 44.9v625q0 27.4 -17.6 45t-44.9 17.5v125q27.3 0 44.9 17.6t17.6 44.9 -17.6 45 -44.9 17.5h-625Q107.4 921.9 54.7 869.1T0 736.3v-625zm125 625q0 27.4 17.6 45 17.6 17.5 44.9 17.5h500v-125h-500q-27.3 0 -44.9 17.6T125 736.3zM406.3 142.6v93.7 -93.7 93.7h-93.8q-29.3 2 -31.2 31.3v62.5q1.9 29.3 31.2 31.2h93.8v93.8q1.9 29.3 31.2 31.2H500q29.3 -1.9 31.3 -31.2v-93.8H625q29.3 -1.9 31.3 -31.2v-62.5q-2 -29.3 -31.3 -31.3h-93.7v-93.7q-2 -29.3 -31.3 -31.3h-62.5q-29.3 2 -31.2 31.3z"/></svg>