<svg height="1000" width="1000" xmlns="http://www.w3.org/2000/svg"><path d="M312.5 111.3q0 -50.8 25.4 -93.7 25.4 -43 68.4 -68.4 44.9 -25.4 93.7 -25.4t93.8 25.4q42.9 25.4 68.3 68.4t25.4 93.7 -25.4 93.8 -68.3 68.3q-45 25.4 -93.8 25.4t-93.7 -25.4q-43 -25.4 -68.4 -68.3t-25.4 -93.8zm156.3 296.9v515.6V408.2v515.6L375 877Q312.5 845.7 244.1 839.8L56.6 820.3Q3.9 810.5 0 757.8V361.3Q0 334 17.6 316.4t44.9 -17.6h58.6q191.4 2 347.7 109.4zm62.5 515.6V408.2v515.6V408.2Q687.5 300.8 878.9 298.8h58.6q27.3 0 44.9 17.6t17.6 44.9v396.5q-3.9 52.7 -56.6 62.5l-187.5 17.6Q687.5 845.7 625 877l-93.7 46.8z"/></svg>