<svg height="1000" width="875" xmlns="http://www.w3.org/2000/svg"><path d="M0 111.3q2 -80 54.7 -132.8 52.7 -52.7 132.8 -54.7h625q27.3 0 44.9 17.6t17.6 44.9v625q0 27.4 -17.6 45t-44.9 17.5v125q27.3 0 44.9 17.6t17.6 44.9 -17.6 45 -44.9 17.5h-625Q107.4 921.9 54.7 869.1T0 736.3v-625zm125 625q0 27.4 17.6 45 17.6 17.5 44.9 17.5h500v-125h-500q-27.3 0 -44.9 17.6T125 736.3zM625 142.6Q623 89.8 580.1 54.7 535.2 19.5 468.8 17.6q-66.5 1.9 -111.4 37.1 -42.9 35.1 -44.9 87.9 2 62.5 62.5 99.6v25.4q2 29.3 31.3 31.2h125q29.2 -1.9 31.2 -31.2v-25.4Q623 207 625 142.6zM406.3 111.3q29.2 2 31.2 31.3 -2 29.3 -31.2 31.2Q377 171.9 375 142.6q2 -29.3 31.3 -31.3zm93.7 31.3q2 -29.3 31.3 -31.3 29.2 2 31.2 31.3 -2 29.3 -31.2 31.2Q502 171.9 500 142.6zM261.7 332q-27.3 -7.8 -41 17.6 -7.8 27.4 17.6 41l150.4 64.5 -150.4 64.4q-25.4 13.7 -17.6 41 13.7 25.4 41 17.6l207.1 -89.8 207 89.8q27.3 7.8 41 -17.6 7.8 -27.3 -17.6 -41L548.8 455.1l150.4 -64.5q25.4 -13.6 17.6 -41 -13.7 -25.4 -41 -17.6l-207 89.9L261.7 332z"/></svg>