<svg height="1000" width="875" xmlns="http://www.w3.org/2000/svg"><path d="M0 111.3q2 -80 54.7 -132.8 52.7 -52.7 132.8 -54.7h625q27.3 0 44.9 17.6t17.6 44.9v625q0 27.4 -17.6 45t-44.9 17.5v125q27.3 0 44.9 17.6t17.6 44.9 -17.6 45 -44.9 17.5h-625Q107.4 921.9 54.7 869.1T0 736.3v-625zm125 625q0 27.4 17.6 45 17.6 17.5 44.9 17.5h500v-125h-500q-27.3 0 -44.9 17.6T125 736.3zM482.4 478.5q-9.7 9.8 -13.6 7.8 -4 2 -13.7 -7.8 -11.7 -11.7 -23.5 -37.1 -19.5 -43 -23.4 -111.3h123.1q-5.9 68.3 -25.4 111.3 -11.8 25.4 -21.5 37.1h-2zm84 -19.5q21.5 -54.7 27.4 -128.9h60.5q-17.6 84 -87.9 128.9zm0 -320.3q70.3 44.9 87.9 128.9h-60.5q-5.9 -74.2 -27.4 -128.9zm152.4 160.1q0 -68.3 -33.3 -125Q652.3 117.2 593.8 82 535.2 48.8 468.8 48.8T343.8 82q-58.6 35.2 -91.8 91.8t-33.2 125 33.2 125 91.8 91.8q58.5 33.2 125 33.2t125 -33.2q58.5 -35.1 91.7 -91.8t33.3 -125zm-435.6 31.3h60.6 -60.6 60.6q5.8 74.2 27.3 128.9Q300.8 414.1 283.2 330.1zm60.6 -62.5h-60.6 60.6 -60.6q17.6 -84 87.9 -128.9 -21.5 54.7 -27.3 128.9zM455.1 119.1q9.7 -9.7 13.7 -7.8 3.9 -1.9 13.6 7.8 11.7 11.8 23.5 37.2 19.5 42.9 23.4 111.3h-123q5.8 -68.4 23.4 -111.3 11.7 -25.4 23.4 -37.2h2z"/></svg>