<svg height="1000" width="875" xmlns="http://www.w3.org/2000/svg"><path d="M0 111.3q2 -80 54.7 -132.8 52.7 -52.7 132.8 -54.7h625q27.3 0 44.9 17.6t17.6 44.9v625q0 27.4 -17.6 45t-44.9 17.5v125q27.3 0 44.9 17.6t17.6 44.9 -17.6 45 -44.9 17.5h-625Q107.4 921.9 54.7 869.1T0 736.3v-625zm125 625q0 27.4 17.6 45 17.6 17.5 44.9 17.5h500v-125h-500q-27.3 0 -44.9 17.6T125 736.3zm175.8 -457l-41 -43 41 43 -41 -43q-9.8 31.3 -9.8 62.5v3.9l72.3 62.5q7.8 7.8 5.8 17.6 -5.8 9.8 -15.6 9.8 -5.9 0 -9.8 -3.9l-46.8 -41q19.5 74.2 76.1 121.1t136.8 48.8q80 -2 136.7 -48.8t76.1 -121.1l-46.8 41q-3.9 3.9 -9.8 3.9t-11.7 -5.9q-3.9 -3.9 -3.9 -9.7t5.8 -11.8l72.3 -62.5v-3.9q0 -33.2 -9.8 -62.5l-41 41q-11.7 9.8 -21.5 0t0 -21.4L666 205.1q-25.4 -50.8 -70.3 -84 -9.8 -2 -9.8 9.8 23.5 70.3 -25.4 126.9 -9.7 11.7 -1.9 25.4 29.3 43 15.6 93.8 -21.5 60.5 -82 76.1l-3.9 -68.3 25.4 17.5q1.9 2 3.9 2 3.9 0 7.8 -3.9 1.9 -3.9 0 -7.8l-17.6 -29.3 35.2 -5.9q5.8 -1.9 5.8 -7.8t-5.8 -7.8L507.8 334l17.6 -27.4q1.9 -3.9 0 -7.8 -3.9 -3.9 -7.8 -3.9h-3.9l-27.4 19.6L476.6 95.7q0 -7.8 -7.8 -7.8 -5.9 0 -7.9 7.8l-9.7 216.8 -23.5 -15.6q-3.9 -3.9 -9.7 0 -3.9 3.9 0 9.7l15.6 27.4 -35.2 7.8q-5.8 2 -5.8 7.8t5.8 7.8l35.2 7.8L418 392.6q-2 1.9 -2 3.9 0 3.9 2 5.8 3.9 2 5.8 2t3.9 -2l21.5 -13.6 -3.9 64.4q-60.5 -15.6 -82 -74.2 -13.7 -50.8 15.6 -95.7 7.8 -13.7 -1.9 -25.4Q328.1 201.2 351.6 130.9q0 -11.8 -9.8 -9.8 -44.9 33.2 -70.3 84l52.7 52.7q7.8 9.8 0 21.5 -11.7 7.8 -23.4 0z"/></svg>