<svg height="1000" width="875" xmlns="http://www.w3.org/2000/svg"><path d="M187.5 -76.2q-80.1 2 -132.8 54.7Q2 31.3 0 111.3v625q2 80.1 54.7 132.8t132.8 54.7h625q27.3 0 44.9 -17.5t17.6 -45 -17.6 -44.9 -44.9 -17.6v-125q27.3 0 44.9 -17.5t17.6 -45v-625q0 -27.3 -17.6 -44.9t-44.9 -17.6h-625zm0 750h500 -500 500v125h-500q-27.3 0 -44.9 -17.5t-17.6 -45 17.6 -44.9 44.9 -17.6zM250 205.1q2 -29.3 31.3 -31.3h375q29.2 2 31.2 31.3 -2 29.3 -31.2 31.2h-375Q252 234.4 250 205.1zm31.3 93.7h375 -375 375q29.2 2 31.2 31.3 -2 29.3 -31.2 31.2h-375Q252 359.4 250 330.1q2 -29.3 31.3 -31.3z"/></svg>