<svg height="1000" width="1125" xmlns="http://www.w3.org/2000/svg"><path d="M488.3 845.7q15.6 3.9 29.3 -5.9 13.7 -7.8 13.7 -25.3V78.1q0 -13.6 -9.8 -21.5Q492.2 31.3 429.7 9.8T281.3 -13.7Q207 -13.7 142.6 2T35.2 33.2Q2 48.8 0 87.9v722.6q0 17.6 15.6 27.4 13.7 9.8 31.3 5.9 48.8 -17.6 111.3 -31.3 64.5 -13.7 123.1 -13.7 50.7 2 109.3 15.7 56.7 15.6 97.7 31.2zm148.4 0q41 -15.6 97.7 -31.2Q793 800.8 843.8 798.8q58.5 0 123 13.7 62.5 13.7 111.3 31.3 17.6 3.9 31.3 -5.9 15.6 -9.8 15.6 -27.4V87.9q-2 -39.1 -35.2 -54.7Q1046.9 17.6 982.4 2T843.8 -13.7q-86 2 -148.5 23.5t-91.8 46.8q-9.7 7.9 -9.7 21.5v736.4q0 17.5 13.6 25.3 13.7 9.8 29.3 5.9z"/></svg>