<svg height="1000" width="875" xmlns="http://www.w3.org/2000/svg"><path d="M687.5 -76.2q80.1 2 132.8 54.7Q873 31.3 875 111.3v625q-2 80.1 -54.7 132.8t-132.8 54.7h-625q-27.3 0 -44.9 -17.5T0 861.3t17.6 -44.9 44.9 -17.6v-125q-27.3 0 -44.9 -17.5T0 611.3v-625Q0 -41 17.6 -58.6t44.9 -17.6h625zm0 750h-500 500 -500v125h500q27.3 0 44.9 -17.5t17.6 -45 -17.6 -44.9 -44.9 -17.6zm-152.3 -457l-17.6 43 17.6 -43 -17.6 43 -44.9 1.9q-17.6 7.8 -7.9 23.5l35.2 29.3 -9.8 42.9q0 19.6 17.6 13.7l39.1 -23.4 39 23.4q17.6 5.9 17.6 -13.7l-9.7 -42.9 35.1 -29.3q9.8 -15.7 -7.8 -21.5l-44.9 -3.9 -17.6 -43q-11.7 -15.6 -23.4 0zm-347.7 82q2 105.5 72.3 177.8 72.2 70.3 177.7 72.2 76.2 0 136.7 -39 9.8 -7.8 5.9 -19.6 -5.9 -11.7 -17.6 -9.7 -19.5 3.9 -37.1 3.9 -80.1 -2 -130.9 -54.7Q341.8 377 339.8 298.8q2 -78.1 54.7 -130.8 50.8 -52.8 130.9 -54.7 17.6 0 37.1 3.9 11.7 1.9 17.6 -9.8Q584 95.7 574.2 89.8q-60.5 -39 -136.7 -41 -105.5 2 -177.7 72.3 -70.3 72.3 -72.3 177.7z"/></svg>