<svg height="1000" width="875" xmlns="http://www.w3.org/2000/svg"><path d="M0 798.8q0 27.4 17.6 45 17.6 17.5 44.9 17.5t44.9 -17.5 17.6 -45V142.6q2 -29.3 31.3 -31.3h656.2q27.3 0 44.9 -17.5t17.6 -45T857.4 3.9t-44.9 -17.6H156.3q-66.5 2 -111.4 45Q2 76.2 0 142.6v656.2zm312.5 0q0 -27.3 -17.6 -44.9Q277.3 736.3 250 736.3t-44.9 17.6 -17.6 44.9 17.6 45 44.9 17.5 44.9 -17.5 17.6 -45zm375 0q0 -27.3 -17.6 -44.9Q652.3 736.3 625 736.3t-44.9 17.6 -17.6 44.9 17.6 45 44.9 17.5 44.9 -17.5 17.6 -45zm-187.5 0q0 -27.3 -17.6 -44.9 -17.6 -17.6 -44.9 -17.6t-44.9 17.6T375 798.8t17.6 45 44.9 17.5 44.9 -17.5 17.6 -45zm375 0q0 -27.3 -17.6 -44.9 -17.6 -17.6 -44.9 -17.6t-44.9 17.6T750 798.8t17.6 45 44.9 17.5 44.9 -17.5 17.6 -45zM812.5 486.3q27.3 0 44.9 -17.5 17.6 -17.6 17.6 -45t-17.6 -44.9 -44.9 -17.6 -44.9 17.6T750 423.8t17.6 45 44.9 17.5zm0 62.5q-27.3 0 -44.9 17.6Q750 584 750 611.3t17.6 45 44.9 17.5 44.9 -17.5 17.6 -45 -17.6 -44.9 -44.9 -17.6zm0 -250q27.3 0 44.9 -17.5 17.6 -17.6 17.6 -45t-17.6 -44.9 -44.9 -17.6 -44.9 17.6T750 236.3t17.6 45 44.9 17.5z"/></svg>