<svg height="1000" width="875" xmlns="http://www.w3.org/2000/svg"><path d="M62.5 861.3q-27.3 0 -44.9 -17.5Q0 826.2 0 798.8t17.6 -44.9 44.9 -17.6 44.9 17.6 17.6 44.9 -17.6 45 -44.9 17.5zM250 736.3q27.3 0 44.9 17.6 17.6 17.6 17.6 44.9t-17.6 45T250 861.3t-44.9 -17.5 -17.6 -45 17.6 -44.9T250 736.3zm0 -750q27.3 0 44.9 17.6 17.6 17.6 17.6 44.9t-17.6 45T250 111.3 205.1 93.8t-17.6 -45T205.1 3.9 250 -13.7zm0 500q-27.3 0 -44.9 -17.5 -17.6 -17.6 -17.6 -45t17.6 -44.9T250 361.3t44.9 17.6 17.6 44.9 -17.6 45T250 486.3zm375 250q27.3 0 44.9 17.6 17.6 17.6 17.6 44.9t-17.6 45T625 861.3t-44.9 -17.5 -17.6 -45 17.6 -44.9T625 736.3zm0 -625q-27.3 0 -44.9 -17.5 -17.6 -17.6 -17.6 -45T580.1 3.9 625 -13.7t44.9 17.6 17.6 44.9 -17.6 45T625 111.3zm0 250q27.3 0 44.9 17.6 17.6 17.6 17.6 44.9t-17.6 45T625 486.3t-44.9 -17.5 -17.6 -45 17.6 -44.9T625 361.3zm-187.5 500q-27.3 0 -44.9 -17.5Q375 826.2 375 798.8t17.6 -44.9 44.9 -17.6 44.9 17.6 17.6 44.9 -17.6 45 -44.9 17.5zm0 -875q27.3 0 44.9 17.6Q500 21.5 500 48.8t-17.6 45 -44.9 17.5T392.6 93.8 375 48.8 392.6 3.9t44.9 -17.6zm0 500q-27.3 0 -44.9 -17.5Q375 451.2 375 423.8t17.6 -44.9 44.9 -17.6 44.9 17.6 17.6 44.9 -17.6 45 -44.9 17.5zm375 250q27.3 0 44.9 17.6 17.6 17.6 17.6 44.9t-17.6 45 -44.9 17.5 -44.9 -17.5 -17.6 -45 17.6 -44.9 44.9 -17.6zm0 -750q27.3 0 44.9 17.6Q875 21.5 875 48.8t-17.6 45 -44.9 17.5T767.6 93.8 750 48.8 767.6 3.9t44.9 -17.6zm-750 125q-27.3 0 -44.9 -17.5Q0 76.2 0 48.8T17.6 3.9t44.9 -17.6 44.9 17.6T125 48.8t-17.6 45 -44.9 17.5zm750 250q27.3 0 44.9 17.6 17.6 17.6 17.6 44.9t-17.6 45 -44.9 17.5 -44.9 -17.5 -17.6 -45 17.6 -44.9 44.9 -17.6zm-750 125q-27.3 0 -44.9 -17.5Q0 451.2 0 423.8t17.6 -44.9 44.9 -17.6 44.9 17.6 17.6 44.9 -17.6 45 -44.9 17.5zm375 62.5q27.3 0 44.9 17.6Q500 584 500 611.3t-17.6 45 -44.9 17.5 -44.9 -17.5 -17.6 -45 17.6 -44.9 44.9 -17.6zm375 125q-27.3 0 -44.9 -17.5Q750 638.7 750 611.3t17.6 -44.9 44.9 -17.6 44.9 17.6 17.6 44.9 -17.6 45 -44.9 17.5zm-750 -125q27.3 0 44.9 17.6Q125 584 125 611.3t-17.6 45 -44.9 17.5T17.6 656.3 0 611.3t17.6 -44.9 44.9 -17.6zm750 -250q-27.3 0 -44.9 -17.5Q750 263.7 750 236.3t17.6 -44.9 44.9 -17.6 44.9 17.6 17.6 44.9 -17.6 45 -44.9 17.5zm-750 -125q27.3 0 44.9 17.6Q125 209 125 236.3t-17.6 45 -44.9 17.5T17.6 281.3 0 236.3t17.6 -44.9 44.9 -17.6zm375 125q-27.3 0 -44.9 -17.5Q375 263.7 375 236.3t17.6 -44.9 44.9 -17.6 44.9 17.6 17.6 44.9 -17.6 45 -44.9 17.5z"/></svg>