<svg height="1000" width="1000" xmlns="http://www.w3.org/2000/svg"><path d="M500 -76.2q-27.3 0 -44.9 17.6 -17.6 17.6 -17.6 44.9v517.6Q378.9 539.1 375 611.3q2 52.8 37.1 87.9t87.9 37.1q52.7 -1.9 87.9 -37.1T625 611.3q-3.9 -72.2 -62.5 -107.4V-13.7q0 -27.3 -17.6 -44.9T500 -76.2zm-406.2 250q-39.1 2 -66.5 27.4Q2 228.5 0 267.6v562.5q2 39 27.3 66.4 27.4 25.4 66.5 27.3h812.5q39 -1.9 66.4 -27.3Q998 869.1 1000 830.1V267.6q-2 -39.1 -27.3 -66.4 -27.4 -25.4 -66.4 -27.4H750q-27.3 0 -44.9 17.6t-17.6 44.9v375q-2 80.1 -54.7 132.8T500 798.8q-80.1 -1.9 -132.8 -54.7T312.5 611.3v-375q0 -27.3 -17.6 -44.9T250 173.8H93.8z"/></svg>