<svg height="1000" width="625" xmlns="http://www.w3.org/2000/svg"><path d="M187.5 -76.2q-43 3.9 -46.9 46.9 3.9 43 46.9 46.9 13.7 1.9 15.6 15.6v127q-1.9 37.1 -33.2 58.6 -48.8 35.1 -78.1 87.8T62.5 423.8v375q2 52.8 37.1 87.9t87.9 37.1h250q52.7 -1.9 87.9 -37.1t37.1 -87.9v-375q0 -64.4 -29.3 -117.2t-78.1 -87.8q-31.3 -21.5 -33.2 -58.6v-127q1.9 -13.7 15.6 -15.6 43 -3.9 46.9 -46.9 -3.9 -43 -46.9 -46.9h-250zm125 746.1q-39.1 0 -66.4 -25.4Q220.7 619.1 218.8 582q1.9 -25.4 25.3 -64.4 23.5 -37.1 45 -64.5 23.4 -23.4 46.8 0 21.5 27.4 45 64.5 23.4 39 25.4 64.4 -2 37.1 -27.4 62.5 -27.3 25.4 -66.4 25.4z"/></svg>