<svg height="1000" width="625" xmlns="http://www.w3.org/2000/svg"><path d="M234.4 -76.2h156.2H234.4h156.2q43 3.9 46.9 46.9v78.1h-250v-78.1q3.9 -43 46.9 -46.9zM62.5 252q2 -60.6 52.7 -93.8l29.3 -19.5q43 -27.4 93.8 -27.4h148.4q50.8 0 93.8 27.4l29.3 19.5q50.7 33.2 52.7 93.8 -2 50.7 -37.1 82 35.1 35.1 37.1 89.8 -2 58.6 -43 93.8 41 35.1 43 93.7 -2 58.6 -43 93.8 41 35.1 43 93.7 -2 52.8 -37.1 87.9t-87.9 37.1h-250q-52.7 -1.9 -87.9 -37.1T62.5 798.8q2 -58.6 43 -93.7 -41 -35.2 -43 -93.8 2 -58.6 43 -93.7 -41 -35.2 -43 -93.8 2 -54.7 37.1 -89.8Q64.5 302.7 62.5 252zm125 140.6q2 29.3 31.3 31.2h187.5q29.2 -1.9 31.2 -31.2 -2 -29.3 -31.2 -31.3H218.8q-29.3 2 -31.3 31.3zm31.3 218.7q-29.3 2 -31.3 31.3 2 29.3 31.3 31.2h187.5q29.2 -1.9 31.2 -31.2 -2 -29.3 -31.2 -31.3H218.8z"/></svg>