<svg height="1000" width="1000" xmlns="http://www.w3.org/2000/svg"><path d="M343.8 33.2q3.9 -43 46.8 -46.9h31.3q42.9 3.9 46.9 46.9 -4 43 -46.9 46.9h-31.3Q347.7 76.2 343.8 33.2zm46.8 93.8h31.3 -31.3 31.3q42.9 3.9 46.9 46.8 -4 43 -46.9 46.9h-31.3q-42.9 -3.9 -46.8 -46.9 3.9 -42.9 46.8 -46.8zM109.4 267.6h31.2 -31.2 31.2q43 3.9 46.9 46.9 -3.9 42.9 -46.9 46.8h-31.2q-43 -3.9 -46.9 -46.8 3.9 -43 46.9 -46.9zM0 476.6q0 -21.5 15.6 -37.1 15.7 -15.7 37.1 -15.7h894.6q21.5 0 37.1 15.7t15.6 37.1Q998 582 941.4 662.1T791 779.3l-1.9 27.3q-11.8 50.8 -62.5 54.7H273.4q-50.7 -3.9 -62.5 -54.7L209 779.3Q115.2 742.2 58.6 662.1T0 476.6zM437.5 314.5q3.9 -43 46.9 -46.9h31.2q43 3.9 46.9 46.9 -3.9 42.9 -46.9 46.8h-31.2q-43 -3.9 -46.9 -46.8zm-187.5 0q3.9 -43 46.9 -46.9h31.2q43 3.9 46.9 46.9 -3.9 42.9 -46.9 46.8h-31.2q-43 -3.9 -46.9 -46.8zM203.1 127h31.3 -31.3 31.3q42.9 3.9 46.9 46.8 -4 43 -46.9 46.9h-31.3q-42.9 -3.9 -46.8 -46.9 3.9 -42.9 46.8 -46.8zM625 314.5q3.9 -43 46.9 -46.9h31.2q43 3.9 46.9 46.9 -3.9 42.9 -46.9 46.8h-31.2q-43 -3.9 -46.9 -46.8zM578.1 127h31.3 -31.3 31.3q42.9 3.9 46.9 46.8 -4 43 -46.9 46.9h-31.3q-42.9 -3.9 -46.8 -46.9 3.9 -42.9 46.8 -46.8zm234.4 187.5q3.9 -43 46.9 -46.9h31.2q43 3.9 46.9 46.9 -3.9 42.9 -46.9 46.8h-31.2q-43 -3.9 -46.9 -46.8zM765.6 127h31.3 -31.3 31.3q42.9 3.9 46.9 46.8 -4 43 -46.9 46.9h-31.3q-42.9 -3.9 -46.8 -46.9 3.9 -42.9 46.8 -46.8zM578.1 -13.7h31.3 -31.3 31.3q42.9 3.9 46.9 46.9 -4 43 -46.9 46.9h-31.3Q535.2 76.2 531.3 33.2q3.9 -43 46.8 -46.9z"/></svg>