<svg height="1000" width="1000" xmlns="http://www.w3.org/2000/svg"><path d="M500 923.8q136.7 -1.9 250 -66.4Q863.3 791 933.6 673.8q66.4 -119.1 66.4 -250t-66.4 -250Q863.3 56.6 750 -9.8 636.7 -74.2 500 -76.2q-136.7 2 -250 66.4Q136.7 56.6 66.4 173.8 0 293 0 423.8t66.4 250Q136.7 791 250 857.4q113.3 64.5 250 66.4zM468.8 80.1q27.3 0 44.9 17.6 17.6 17.5 17.6 44.9t-17.6 44.9 -44.9 17.6 -45 -17.6 -17.5 -44.9 17.5 -44.9 45 -17.6zm-62.5 250q0 -27.4 17.5 -44.9 17.6 -17.6 45 -17.6t44.9 17.6 17.6 44.9T513.7 375t-44.9 17.6 -45 -17.6 -17.5 -44.9zm-125 -125q27.3 0 44.9 17.6 17.6 17.5 17.6 44.9t-17.6 44.9 -44.9 17.6 -45 -17.6 -17.5 -44.9 17.5 -44.9 45 -17.6z"/></svg>