<svg height="1000" width="1000" xmlns="http://www.w3.org/2000/svg"><path d="M0 298.8q2 -52.7 37.1 -87.9Q72.3 175.8 125 173.8h3.9Q140.6 119.1 181.6 84q41.1 -33.2 99.7 -35.2 44.9 0 80 21.5Q380.9 33.2 418 9.8t82 -23.5 82 23.5 56.7 60.5q35.1 -21.5 80.1 -21.5 58.5 2 99.6 35.2 41 35.1 52.7 89.8h3.9q52.7 2 87.9 37.1t37.1 87.9q0 35.2 -17.6 62.5H17.6Q0 334 0 298.8zm0 177.8q0 -21.5 15.6 -37.1 15.7 -15.7 37.1 -15.7h894.6q21.5 0 37.1 15.7t15.6 37.1Q998 582 941.4 662.1T791 779.3l-1.9 27.3q-11.8 50.8 -62.5 54.7H273.4q-50.7 -3.9 -62.5 -54.7L209 779.3Q115.2 742.2 58.6 662.1T0 476.6z"/></svg>