<svg height="1000" width="1000" xmlns="http://www.w3.org/2000/svg"><path d="M181.6 -76.2h224.7H181.6h224.7q56.6 2 83.9 29.3 25.4 27.4 41.1 64.5T574.2 82q25.4 27.4 82.1 29.3h166q23.4 0 37.1 15.7 15.6 13.6 15.6 37.1 0 9.7 -3.9 19.5l-70.3 177.7 -50.8 125H250l-31.2 -125L127 -7.8q-2 -5.9 -2 -11.7 0 -25.4 15.6 -41t41 -15.7zm-27.3 437.5l31.2 125 -31.2 -125 31.2 125h-29.2q-29.3 2 -31.3 31.3 2 29.3 31.3 31.2h687.5Q873 546.9 875 517.6q-2 -29.3 -31.2 -31.3h-25.4l48.8 -125h39.1q39 2 66.4 27.4Q998 416 1000 455.1v218.7H0V455.1Q2 416 27.3 388.7q27.4 -25.4 66.5 -27.4h60.5zM0 736.3h1000H0h1000v93.8q-2 39 -27.3 66.4 -27.4 25.4 -66.4 27.3H93.8Q54.7 921.9 27.3 896.5 2 869.1 0 830.1v-93.8z"/></svg>