<svg height="1000" width="1250" xmlns="http://www.w3.org/2000/svg"><path d="M115.2 5.9q9.8 -17.6 31.3 -17.6L625 48.8l478.5 -60.5q21.5 0 31.3 17.6l82 164q11.7 27.4 0 52.8 -9.8 25.3 -39.1 35.1l-318.3 89.9q-44.9 9.7 -72.3 -27.4L625 48.8 462.9 320.3q-27.4 37.1 -72.3 27.4L72.3 257.8Q43 248 33.2 222.7q-11.7 -25.4 0 -52.8l82 -164zM627 173.8l107.4 177.8L627 173.8l107.4 177.8q23.4 37.1 60.5 52.7 39.1 15.6 82.1 3.9l248 -70.3v326.2q0 31.2 -19.5 56.6t-50.8 33.2l-400.4 99.6q-29.3 7.8 -60.5 0L195.3 753.9q-31.2 -7.8 -50.8 -33.2T125 664.1V337.9l250 70.3q41 11.7 80.1 -3.9 37.1 -15.6 60.5 -52.7L623 173.8h4z"/></svg>