<svg height="1000" width="1250" xmlns="http://www.w3.org/2000/svg"><path d="M500 17.6q2 -39.1 27.3 -66.4 27.4 -25.4 66.5 -27.4h562.5q39 2 66.4 27.4 25.3 27.3 27.3 66.4v812.5q-2 39 -27.3 66.4 -27.4 25.4 -66.4 27.3H744.1q5.9 -15.6 5.9 -31.2V418q58.6 -23.5 62.5 -87.9v-62.5q-2 -39.1 -27.3 -66.4 -27.4 -25.4 -66.4 -27.4H500V17.6zm615.2 584q19.6 -21.5 0 -43l-125 -125q-21.4 -19.5 -42.9 0l-125 125q-19.6 21.5 0 43 21.5 19.5 42.9 0l72.3 -70.3v236.3q2 29.3 31.3 31.2 29.2 -1.9 31.2 -31.2V531.3l72.3 70.3q21.5 19.5 42.9 0zM0 267.6q2 -29.3 31.3 -31.3h687.5q29.2 2 31.2 31.3v62.5q-2 29.3 -31.2 31.2H31.3Q2 359.4 0 330.1v-62.5zm687.5 156.2v437.5V423.8v437.5q0 27.4 -17.6 45T625 923.8H125q-27.3 0 -44.9 -17.5t-17.6 -45V423.8h625zm-406.2 125q-29.3 2 -31.3 31.3 2 29.3 31.3 31.2h187.5Q498 609.4 500 580.1q-2 -29.3 -31.2 -31.3H281.3z"/></svg>