<svg height="1000" width="1125" xmlns="http://www.w3.org/2000/svg"><path d="M484.4 -76.2h-78.1 78.1 -78.1q-39.1 2 -66.5 27.4 -25.3 27.3 -27.3 66.4v218.7q2 52.8 37.1 87.9t87.9 37.1h250q52.7 -1.9 87.9 -37.1t37.1 -87.9V17.6q-2 -39.1 -27.3 -66.4 -27.4 -25.4 -66.4 -27.4h-78.2V80.1q-1.9 29.3 -31.2 31.2h-93.8q-29.3 -1.9 -31.2 -31.2V-76.2zM125 423.8q-52.7 2 -87.9 37.1Q2 496.1 0 548.8v250q2 52.8 37.1 87.9t87.9 37.1h312.5q52.7 -1.9 87.9 -37.1t37.1 -87.9v-250q-2 -52.7 -37.1 -87.9t-87.9 -37.1h-78.1v156.3q-2 29.3 -31.3 31.2h-93.7q-29.3 -1.9 -31.3 -31.2V423.8H125zm562.5 500H1000 687.5 1000q52.7 -1.9 87.9 -37.1t37.1 -87.9v-250q-2 -52.7 -37.1 -87.9T1000 423.8h-78.1v156.3q-2 29.3 -31.3 31.2h-93.7q-29.3 -1.9 -31.3 -31.2V423.8h-78.1q-44.9 0 -78.1 27.4 15.6 31.2 15.6 66.4v312.5q0 35.1 -15.6 66.4 33.2 27.3 78.1 27.3z"/></svg>