<svg height="1000" width="1250" xmlns="http://www.w3.org/2000/svg"><path d="M0 111.3Q2 41 62.5 3.9q62.5 -35.2 125 0Q248 41 250 111.3q-2 70.3 -62.5 107.5 -62.5 35.1 -125 0Q2 181.6 0 111.3zm437.5 343.8q29.3 -2 31.3 -31.3 -2 -29.3 -31.3 -31.2 -29.3 1.9 -31.2 31.2 1.9 29.3 31.2 31.3zm0 -156.3q70.3 2 107.4 62.5 35.2 62.5 0 125 -37.1 60.6 -107.4 62.5 -70.3 -1.9 -107.4 -62.5 -35.2 -62.5 0 -125 37.1 -60.5 107.4 -62.5zM156.3 736.3Q154.3 707 125 705.1 95.7 707 93.8 736.3q1.9 29.3 31.2 31.3 29.3 -2 31.3 -31.3zM0 736.3Q2 666 62.5 628.9q62.5 -35.1 125 0Q248 666 250 736.3q-2 70.3 -62.5 107.5 -62.5 35.1 -125 0Q2 806.6 0 736.3zm468.8 0q-2 -29.3 -31.3 -31.2 -29.3 1.9 -31.2 31.2 1.9 29.3 31.2 31.3 29.3 -2 31.3 -31.3zm-156.3 0q2 -70.3 62.5 -107.4 62.5 -35.1 125 0 60.5 37.1 62.5 107.4 -2 70.3 -62.5 107.5 -62.5 35.1 -125 0Q314.5 806.6 312.5 736.3zM125 298.8q70.3 2 107.4 62.5 35.2 62.5 0 125Q195.3 546.9 125 548.8 54.7 546.9 17.6 486.3q-35.2 -62.5 0 -125Q54.7 300.8 125 298.8zM437.5 -13.7q70.3 2 107.4 62.5 35.2 62.5 0 125 -37.1 60.6 -107.4 62.5 -70.3 -1.9 -107.4 -62.5 -35.2 -62.5 0 -125 37.1 -60.5 107.4 -62.5zm250 125Q689.5 41 750 3.9q62.5 -35.2 125 0 60.5 37.1 62.5 107.4 -2 70.3 -62.5 107.5 -62.5 35.1 -125 0Q689.5 181.6 687.5 111.3zm468.8 0Q1154.3 82 1125 80.1q-29.3 1.9 -31.2 31.2 1.9 29.3 31.2 31.3 29.3 -2 31.3 -31.3zm-156.3 0Q1002 41 1062.5 3.9q62.5 -35.2 125 0Q1248 41 1250 111.3q-2 70.3 -62.5 107.5 -62.5 35.1 -125 0Q1002 181.6 1000 111.3zm125 343.8q29.3 -2 31.3 -31.3 -2 -29.3 -31.3 -31.2 -29.3 1.9 -31.2 31.2 1.9 29.3 31.2 31.3zm0 -156.3q70.3 2 107.4 62.5 35.2 62.5 0 125 -37.1 60.6 -107.4 62.5 -70.3 -1.9 -107.4 -62.5 -35.2 -62.5 0 -125 37.1 -60.5 107.4 -62.5zm31.3 437.5q-2 -29.3 -31.3 -31.2 -29.3 1.9 -31.2 31.2 1.9 29.3 31.2 31.3 29.3 -2 31.3 -31.3zm-156.3 0q2 -70.3 62.5 -107.4 62.5 -35.1 125 0Q1248 666 1250 736.3q-2 70.3 -62.5 107.5 -62.5 35.1 -125 0Q1002 806.6 1000 736.3zM812.5 455.1q29.3 -2 31.3 -31.3 -2 -29.3 -31.3 -31.2 -29.3 1.9 -31.2 31.2 1.9 29.3 31.2 31.3zm0 -156.3q70.3 2 107.4 62.5 35.2 62.5 0 125 -37.1 60.6 -107.4 62.5 -70.3 -1.9 -107.4 -62.5 -35.2 -62.5 0 -125 37.1 -60.5 107.4 -62.5zm31.3 437.5q-2 -29.3 -31.3 -31.2 -29.3 1.9 -31.2 31.2 1.9 29.3 31.2 31.3 29.3 -2 31.3 -31.3zm-156.3 0q2 -70.3 62.5 -107.4 62.5 -35.1 125 0 60.5 37.1 62.5 107.4 -2 70.3 -62.5 107.5 -62.5 35.1 -125 0Q689.5 806.6 687.5 736.3z"/></svg>