<svg height="1000" width="1000" xmlns="http://www.w3.org/2000/svg"><path d="M359.4 -76.2q46.9 2 78.1 31.3 29.3 31.2 31.3 78.1v781.3q-2 46.8 -31.3 78.1 -31.2 29.3 -78.1 31.2 -43 0 -74.2 -27.3Q255.9 869.1 250 826.2q-15.6 3.9 -31.2 3.9Q166 828.1 130.9 793T93.8 705.1q0 -21.5 7.8 -41 -45 -17.6 -74.3 -56.7Q0 568.4 0 517.6q0 -46.9 25.4 -84Q48.8 396.5 89.8 377 62.5 343.8 62.5 298.8t27.3 -78.1 70.4 -44.9q-3.9 -15.6 -3.9 -33.2 0 -44.9 27.3 -78.1Q209 33.2 250 21.5q5.9 -43 35.2 -70.3 31.2 -27.4 74.2 -27.4zm281.2 0q43 0 74.2 27.4 29.3 27.3 35.2 70.3 41 11.7 66.4 43 27.4 33.2 27.4 78.1 0 17.6 -4 33.2 43 11.7 70.4 44.9t27.3 78.1T910.2 377q41 19.5 64.4 56.6 25.4 37.1 25.4 84 0 50.8 -27.3 89.8 -29.3 39.1 -74.3 56.7 7.9 19.5 7.9 41 -2 52.7 -37.2 87.9t-87.8 37.1q-15.7 0 -31.3 -3.9 -5.9 42.9 -35.2 70.3 -31.2 27.3 -74.2 27.3 -46.8 -1.9 -78.1 -31.2 -29.3 -31.3 -31.2 -78.1V33.2q1.9 -46.9 31.2 -78.1 31.3 -29.3 78.1 -31.3z"/></svg>