<svg height="1000" width="1000" xmlns="http://www.w3.org/2000/svg"><path d="M781.3 -76.2q27.3 0 44.9 17.6 17.6 17.6 17.6 44.9v35.2q37.1 7.8 70.3 23.4l19.5 9.8q23.4 13.7 31.2 37.1t-1.9 46.9q-13.7 23.4 -37.1 31.2T878.9 168l-19.5 -9.8q-31.3 -15.6 -62.5 -15.6H793q-45 1.9 -74.2 31.2 -31.3 29.3 -31.3 74.2 2 68.4 66.4 97.7l101.6 41q66.4 27.4 105.4 84 37.1 56.6 39.1 128.9v7.8q-2 76.2 -44.9 132.8t-111.3 80.1v41q0 27.4 -17.6 45t-44.9 17.5 -45 -17.5 -17.5 -45v-37.1q-45 -11.7 -82.1 -37.1l-46.9 -29.3q-21.4 -15.6 -25.3 -41 -5.9 -23.4 7.8 -46.9 15.6 -21.5 41 -25.4 23.4 -5.8 46.9 7.8l44.9 31.3q33.2 21.5 72.2 21.5 41.1 -2 68.4 -29.3T875 607.4v-7.8Q871.1 531.3 808.6 502L707 460.9Q640.6 433.6 601.6 377T562.5 248q2 -78.1 44.9 -134.7 41 -58.6 111.4 -84v-43q0 -27.3 17.5 -44.9t45 -17.6zM0 48.8Q0 21.5 17.6 3.9q17.6 -17.6 44.9 -17.6h156.3Q337.9 -9.8 418 68.4q78.1 80 82 199.2 -2 87.9 -46.9 156.2Q408.2 490.2 332 525.4l101.6 250q7.8 25.4 -2 48.8 -9.7 21.5 -33.2 33.2 -25.4 7.8 -48.8 -1.9 -21.5 -9.8 -33.2 -33.2L207 548.8h-82v250q0 27.4 -17.6 45t-44.9 17.5T17.6 843.8 0 798.8v-750zm125 375h93.8H125h93.8q66.4 -1.9 111.3 -44.9Q373 334 375 267.6q-2 -66.4 -44.9 -111.3 -44.9 -43 -111.3 -45H125v312.5z"/></svg>