<svg height="1000" width="1250" xmlns="http://www.w3.org/2000/svg"><path d="M62.5 48.8q0 -27.3 17.6 -44.9Q97.7 -13.7 125 -13.7h1000q27.3 0 44.9 17.6t17.6 44.9 -17.6 45 -44.9 17.5h-78.1v125h-15.6q-93.8 2 -154.3 64.5 -62.5 60.5 -64.5 154.3v48.8q-29.3 15.6 -46.9 46.9Q710.9 488.3 625 486.3q-80.1 2 -132.8 54.7t-54.7 132.8v125q0 27.4 -17.6 45T375 861.3h-62.5q-27.3 0 -44.9 -17.5t-17.6 -45v-125q-2 -80 -54.7 -132.8T62.5 486.3v-250h140.6v-125H125q-27.3 0 -44.9 -17.5t-17.6 -45zm734.4 62.5v125 -125 125h156.2v-125H796.9zm-93.8 125v-125 125 -125H546.9v125h156.2zm-406.2 -125v125 -125 125h156.2v-125H296.9zm734.4 281.3q-27.4 0 -45 17.6 -17.5 17.5 -17.5 44.9v93.7h125v-93.7q0 -27.4 -17.6 -44.9t-44.9 -17.6zM875 455.1q2 -66.4 44.9 -111.3 44.9 -43 111.4 -45 66.4 2 111.3 45 42.9 44.9 44.9 111.3v93.7q27.3 0 44.9 17.6t17.6 44.9v250q0 27.4 -17.6 45t-44.9 17.5H875q-27.3 0 -44.9 -17.5t-17.6 -45v-250q0 -27.3 17.6 -44.9T875 548.8v-93.7z"/></svg>