<svg height="1000" width="1125" xmlns="http://www.w3.org/2000/svg"><path d="M62.5 -13.7q-27.3 0 -44.9 17.6Q0 21.5 0 48.8t17.6 45 44.9 17.5h78.1v125H0v250q80.1 2 132.8 54.7t54.7 132.8v125q0 27.4 17.6 45t44.9 17.5h62.5q27.3 0 44.9 -17.5t17.6 -45v-125q2 -80 54.7 -132.8t132.8 -54.7q80.1 2 132.8 54.7T750 673.8v125q0 27.4 17.6 45t44.9 17.5H875q27.3 0 44.9 -17.5t17.6 -45v-125q2 -80 54.7 -132.8T1125 486.3v-250H984.4v-125h78.1q27.3 0 44.9 -17.5t17.6 -45T1107.4 3.9t-44.9 -17.6H62.5zm828.1 125v125 -125 125H734.4v-125h156.2zm-250 0v125 -125 125H484.4v-125h156.2zm-250 0v125 -125 125H234.4v-125h156.2z"/></svg>