<svg height="1000" width="1250" xmlns="http://www.w3.org/2000/svg"><path d="M125 -13.7q-27.3 0 -44.9 17.6Q62.5 21.5 62.5 48.8t17.6 45 44.9 17.5h78.1v125H62.5v250q80.1 2 132.8 54.7T250 673.8v125q0 27.4 17.6 45t44.9 17.5H375q27.3 0 44.9 -17.5t17.6 -45v-125q2 -80 54.7 -132.8T625 486.3q17.6 0 35.2 3.9 44.9 -85.9 125 -138.6 80 -50.8 183.6 -52.8 126.9 2 218.7 78.2V236.3h-140.6v-125h78.1q27.3 0 44.9 -17.5t17.6 -45T1169.9 3.9 1125 -13.7H125zm828.1 125v125 -125 125H796.9v-125h156.2zm-250 0v125 -125 125H546.9v-125h156.2zm-250 0v125 -125 125H296.9v-125h156.2zM1250 642.6q0 -76.2 -37.1 -140.6 -37.1 -64.5 -103.5 -103.6Q1043 361.3 968.8 361.3t-140.7 37.1Q761.7 437.5 724.6 502t-37.1 140.6 37.1 140.6 103.5 103.5q66.4 37.1 140.7 37.1t140.6 -37.1q66.4 -39 103.5 -103.5T1250 642.6zm-150.4 -84q19.5 21.5 0 43L959 742.2q-21.5 19.5 -43 0l-78.1 -78.1q-19.5 -21.5 0 -43 21.5 -19.5 43 0l56.6 54.7 119.1 -117.2q21.5 -19.5 43 0z"/></svg>