<svg height="1000" width="1250" xmlns="http://www.w3.org/2000/svg"><path d="M125 -13.7q-27.3 0 -44.9 17.6Q62.5 21.5 62.5 48.8t17.6 45 44.9 17.5h78.1v125H62.5v250q80.1 2 132.8 54.7T250 673.8v125q0 27.4 17.6 45t44.9 17.5H375q27.3 0 44.9 -17.5t17.6 -45v-125q2 -80 54.7 -132.8T625 486.3q17.6 0 35.2 3.9 44.9 -85.9 125 -138.6 80 -50.8 183.6 -52.8 126.9 2 218.7 78.2V236.3h-140.6v-125h78.1q27.3 0 44.9 -17.5t17.6 -45T1169.9 3.9 1125 -13.7H125zm828.1 125v125 -125 125H796.9v-125h156.2zm-250 0v125 -125 125H546.9v-125h156.2zm-250 0v125 -125 125H296.9v-125h156.2zm515.7 812.5q76.1 0 140.6 -37.1 64.4 -37.1 103.5 -103.5Q1250 716.8 1250 642.6T1212.9 502q-39.1 -66.5 -103.5 -103.6T968.8 361.3t-140.7 37.1T724.6 502q-37.1 66.4 -37.1 140.6t37.1 140.6q39.1 66.4 103.5 103.5t140.7 37.1zm0 -187.5q42.9 3.9 46.8 46.9 -3.9 43 -46.8 46.9 -43 -3.9 -46.9 -46.9 3.9 -43 46.9 -46.9zm0 -281.2q29.2 1.9 31.2 31.2v156.3q-2 29.3 -31.2 31.2 -29.3 -1.9 -31.3 -31.2V486.3q2 -29.3 31.3 -31.2z"/></svg>