<svg height="1000" width="1125" xmlns="http://www.w3.org/2000/svg"><path d="M0 111.3Q0 84 17.6 66.4 35.2 48.8 62.5 48.8h1000q27.3 0 44.9 17.6t17.6 44.9v70.3q0 23.5 -15.6 39.1t-39.1 15.6q-56.6 2 -93.7 39.1t-39.1 93.7v244.2q-39.1 0 -72.3 21.5 -56.6 39 -115.2 41v-252q-2 -80 -54.7 -132.8T562.5 236.3q-80.1 2 -132.8 54.7T375 423.8v252q-58.6 -2 -115.2 -41 -33.2 -21.5 -72.3 -21.5V369.1q-2 -56.6 -39.1 -93.7T54.7 236.3q-23.4 0 -39.1 -15.6T0 181.6v-70.3zm599.6 574.2Q668 734.4 750 736.3q82 -3.9 150.4 -50.8 41 -25.3 78.1 4 43 35.1 97.7 48.8 25.4 5.8 39 27.3t7.8 46.9 -27.3 39.1 -46.9 7.8Q974.6 839.8 935.5 810.5 847.7 859.4 750 861.3q-95.7 -5.8 -156.2 -37.1 -17.6 -7.8 -31.3 -15.6 -13.7 7.8 -31.2 15.6Q470.7 855.5 375 861.3q-97.7 -1.9 -183.6 -50.8 -41 29.3 -115.2 48.9 -25.4 5.8 -46.9 -7.8T2 812.5t7.8 -46.9 39 -27.3q54.7 -13.7 97.7 -48.8 37.1 -27.4 78.1 -4Q293 732.4 375 736.3q84 -1.9 152.3 -50.8 35.2 -23.4 72.3 0z"/></svg>