<svg height="1000" width="1000" xmlns="http://www.w3.org/2000/svg"><path d="M359.4 17.6h281.2H359.4h281.2q13.7 1.9 15.7 15.6v78.1H343.8V33.2q1.9 -13.7 15.6 -15.6zM250 33.2v78.1V33.2v78.1H125q-52.7 2 -87.9 37.1T0 236.3v500q2 52.8 37.1 87.9t87.9 37.1h750q52.7 -1.9 87.9 -37.1t37.1 -87.9v-500q-2 -52.7 -37.1 -87.9T875 111.3H750V33.2q-2 -46.9 -31.2 -78.1 -31.3 -29.3 -78.2 -31.3H359.4q-46.9 2 -78.1 31.3Q252 -13.7 250 33.2zm187.5 296.9q2 -29.3 31.3 -31.3h62.5q29.2 2 31.2 31.3v93.7h93.8q29.2 2 31.2 31.3v62.5q-2 29.3 -31.2 31.2h-93.8v93.8q-2 29.3 -31.2 31.2h-62.5q-29.3 -1.9 -31.3 -31.2v-93.8h-93.7q-29.3 -1.9 -31.3 -31.2v-62.5q2 -29.3 31.3 -31.3h93.7v-93.7z"/></svg>