<svg height="1000" width="1000" xmlns="http://www.w3.org/2000/svg"><path d="M359.4 17.6h281.2H359.4h281.2q13.7 1.9 15.7 15.6v78.1H343.8V33.2q1.9 -13.7 15.6 -15.6zM250 33.2v78.1V33.2v78.1H125q-52.7 2 -87.9 37.1T0 236.3v187.5h1000V236.3q-2 -52.7 -37.1 -87.9T875 111.3H750V33.2q-2 -46.9 -31.2 -78.1 -31.3 -29.3 -78.2 -31.3H359.4q-46.9 2 -78.1 31.3Q252 -13.7 250 33.2zm750 453.1H625h375H625v62.5q0 27.4 -17.6 45t-44.9 17.5h-125q-27.3 0 -44.9 -17.5t-17.6 -45v-62.5H0v250q2 52.8 37.1 87.9t87.9 37.1h750q52.7 -1.9 87.9 -37.1t37.1 -87.9v-250z"/></svg>