<svg height="1000" width="1125" xmlns="http://www.w3.org/2000/svg"><path d="M1107.4 31.3q17.6 -19.6 17.6 -45t-17.6 -44.9q-19.5 -17.6 -44.9 -17.6t-44.9 17.6l-375 375L576.2 250q-13.7 -13.7 -31.3 -13.7 -41 3.9 -44.9 45v56.6l210.9 210.9h56.7q41 -3.9 44.9 -44.9 0 -17.6 -13.7 -31.2l-66.4 -66.4 375 -375zM666 613.3L435.5 382.8 666 613.3 435.5 382.8Q304.7 373 209 464.8l-15.6 15.7Q127 548.8 125 644.5q3.9 23.5 25.4 15.7L250 611.3q7.8 -3.9 11.7 2 5.9 7.8 0 13.7l-248 220.7Q0 861.3 0 880.9q3.9 39 43 42.9h337.9Q500 921.9 584 839.8q91.8 -95.7 82 -226.5z"/></svg>