<svg height="1000" width="1125" xmlns="http://www.w3.org/2000/svg"><path d="M1107.4 -58.6q17.6 19.5 17.6 44.9t-17.6 45l-375 375 66.4 66.4q13.7 13.6 13.7 31.2 -3.9 41 -44.9 44.9h-56.7L500 337.9v-56.6q3.9 -41.1 44.9 -45 17.6 0 31.3 13.7l66.4 66.4 375 -375q19.5 -17.6 44.9 -17.6t44.9 17.6zM435.5 382.8L666 613.3 435.5 382.8 666 613.3q9.8 130.8 -82 226.5 -84 82.1 -201.2 84H43Q3.9 919.9 0 880.9q0 -19.6 13.7 -33.2L261.7 627q5.9 -5.9 0 -13.7 -3.9 -5.9 -11.7 -2l-99.6 48.9Q128.9 668 125 644.5q2 -95.7 68.4 -164L209 464.8q95.7 -91.8 226.5 -82zm470.8 228.5q87.8 2 134.7 78.2 43 78.1 0 156.2 -46.9 76.2 -134.7 78.1 -87.9 -1.9 -134.8 -78.1 -43 -78.1 0 -156.2 46.9 -76.2 134.8 -78.2z"/></svg>