<svg height="1000" width="750" xmlns="http://www.w3.org/2000/svg"><path d="M316.4 -64.5q-3.9 -11.7 -15.6 -11.7h-37.1q-13.7 0 -17.6 11.7l-41 101.6q-5.9 11.7 -17.6 11.7T169.9 37.1l-41 -101.6Q125 -76.2 113.3 -76.2H93.8q-39.1 2 -66.5 27.4Q2 -21.5 0 17.6v406.2h750V17.6q-2 -39.1 -27.3 -66.4 -27.4 -25.4 -66.4 -27.4H451.2q-13.7 0 -17.6 11.7l-41 101.6Q386.7 48.8 375 48.8T357.4 37.1l-41 -101.6zM0 486.3v62.5 -62.5 62.5q2 52.8 37.1 87.9t87.9 37.1h125v125q2 52.8 37.1 87.9t87.9 37.1q52.7 -1.9 87.9 -37.1T500 798.8v-125h125q52.7 -1.9 87.9 -37.1T750 548.8v-62.5H0zm375 281.3q29.3 1.9 31.3 31.2 -2 29.3 -31.3 31.3 -29.3 -2 -31.2 -31.3 1.9 -29.3 31.2 -31.2z"/></svg>