<svg height="1000" width="875" xmlns="http://www.w3.org/2000/svg"><path d="M187.5 220.7v15.6 -15.6 15.6H93.8v-15.6q3.9 -126.9 87.8 -209 82.1 -84 209 -87.9h93.8q126.9 3.9 209 87.9 83.9 82.1 87.9 209v15.6h-93.8v-15.6q-2 -85.9 -58.6 -144.5Q570.3 19.5 484.4 17.6h-93.8q-85.9 1.9 -144.5 58.6 -56.6 58.6 -58.6 144.5zM0 361.3Q0 334 17.6 316.4q17.6 -17.6 44.9 -17.6h750q27.3 0 44.9 17.6t17.6 44.9 -17.6 45 -44.9 17.5h-9.8l-42.9 416q-5.9 37.2 -31.3 60.6T666 923.8H209q-37.1 0 -62.5 -23.4t-31.3 -60.6l-42.9 -416h-9.8q-27.3 0 -44.9 -17.5T0 361.3z"/></svg>