<svg height="1000" width="1250" xmlns="http://www.w3.org/2000/svg"><path d="M76.2 -66.4Q39.1 -89.8 9.8 -58.6q-23.5 37.1 7.8 66.4l1156.2 906.3q37.1 23.4 66.4 -7.8 23.5 -37.2 -7.8 -66.5L931.6 605.5q5.9 -27.4 5.9 -56.7h125q27.3 0 44.9 -17.5t17.6 -45 -17.6 -44.9 -44.9 -17.6h-125q-3.9 -41 -21.5 -76.1l3.9 -3.9 125 -125q17.6 -19.6 17.6 -45t-17.6 -44.9q-19.5 -17.6 -44.9 -17.6t-44.9 17.6l-125 125q-2 2 -2 3.9 -42.9 -21.5 -93.7 -21.5H515.6q-23.4 0 -46.8 5.9L76.2 -66.4zM625 -76.2q-80.1 2 -132.8 54.7 -52.7 52.8 -54.7 132.8v7.8q0 23.5 15.6 39.1t39.1 15.6h265.6q23.5 0 39.1 -15.6t15.6 -39.1v-7.8q-2 -80 -54.7 -132.8T625 -76.2zm-312.5 500h-125 125 -125q-27.3 0 -44.9 17.6T125 486.3t17.6 45 44.9 17.5h125q0 72.3 29.3 134.8l-11.7 7.8 -125 125q-17.6 19.5 -17.6 44.9t17.6 45q19.5 17.5 44.9 17.5t44.9 -17.5L418 783.2q72.2 64.5 175.8 76.2V580.1L326.2 367.2q-9.8 27.3 -13.7 56.6zm343.8 435.6q109.3 -11.7 185.5 -86L656.3 628.9v230.5z"/></svg>