<svg height="1000" width="1000" xmlns="http://www.w3.org/2000/svg"><path d="M500 -76.2q80.1 2 132.8 54.7 52.7 52.8 54.7 132.8v7.8q0 23.5 -15.6 39.1t-39.1 15.6H369.1q-25.3 0 -41 -15.6t-15.6 -39.1v-7.8q2 -80 54.7 -132.8T500 -76.2zM80.1 128.9Q99.6 111.3 125 111.3t44.9 17.6l125 125 3.9 3.9v2q41 -23.5 91.8 -23.5h218.8q50.8 0 93.7 23.5 0 -3.9 2 -5.9l125 -125q19.5 -17.6 44.9 -17.6t44.9 17.6q17.6 19.5 17.6 44.9t-17.6 45l-125 125 -3.9 3.9q17.6 35.1 21.5 76.1h125q27.3 0 44.9 17.6t17.6 44.9 -17.6 45 -44.9 17.5h-125q0 72.3 -29.3 134.8l11.7 7.8 125 125q17.6 19.5 17.6 44.9t-17.6 45q-19.5 17.5 -44.9 17.5t-44.9 -17.5L707 783.2q-72.2 64.5 -175.7 76.2V392.6q-2 -29.3 -31.3 -31.3 -29.3 2 -31.2 31.3v466.8Q365.2 847.7 293 783.2L169.9 906.3q-19.5 17.5 -44.9 17.5T80.1 906.3q-17.6 -19.6 -17.6 -45t17.6 -44.9l125 -125 11.7 -7.8Q187.5 621.1 187.5 548.8h-125q-27.3 0 -44.9 -17.5T0 486.3t17.6 -44.9 44.9 -17.6h125q3.9 -41 21.5 -76.1l-3.9 -3.9 -125 -125q-17.6 -19.6 -17.6 -45t17.6 -44.9z"/></svg>