<svg height="1000" width="1125" xmlns="http://www.w3.org/2000/svg"><path d="M322.3 132.8L386.7 -9.8l-64.4 142.6L386.7 -9.8q13.7 -41 -23.4 -62.5 -41 -13.6 -62.5 23.5L250 64.5 199.2 -48.8q-21.5 -37.1 -62.5 -23.5 -37.1 21.5 -23.4 62.5l66.4 142.6q-31.3 21.5 -44.9 56.7h-33.2l-7.8 -41.1q-13.7 -41 -56.7 -35.1Q-3.9 125 2 168l15.6 78.1q7.8 35.2 44.9 37.1H125v44.9l-74.2 19.6q-29.3 7.8 -35.2 39L0 496.1q-2 43 41 52.7 43 2 52.8 -39l11.7 -78.2 35.1 -9.7q35.2 60.5 109.4 64.4 74.2 -3.9 109.4 -64.4l37.1 7.8 9.8 78.1q9.7 43 52.7 41 43 -9.7 41 -52.7L484.4 386.7q-5.9 -31.2 -35.2 -39L375 328.1v-44.9h62.5q37.1 -1.9 46.9 -37.1L500 168q3.9 -43 -37.1 -54.7 -43 -5.9 -54.7 35.1l-9.8 41.1h-33.2q-13.6 -35.2 -44.9 -56.7h2zm646.5 351.6l128.9 -91.8 -128.9 91.8 128.9 -91.8q31.2 -29.3 9.7 -66.4Q1080.1 293 1043 314.5l-101.6 72.2 11.7 -123q0 -43 -41 -50.8 -43 0 -50.8 43l-15.6 156.2q-37.1 3.9 -66.4 25.4L750 421.9l13.7 -39.1q9.7 -43 -29.3 -60.5 -43 -9.8 -60.6 29.3l-25.4 76.1q-9.7 35.2 21.5 56.7l54.7 31.2 -23.4 39.1 -72.3 -21.5q-31.2 -7.8 -50.8 15.6l-68.3 87.9q-23.5 35.2 7.8 66.4 37.1 21.5 66.4 -9.7l48.8 -60.6 35.2 9.8q0 70.3 62.5 111.3 66.4 33.2 126.9 -1.9l27.4 25.3 -29.3 74.3q-11.7 41 25.4 60.5 41 11.7 60.5 -25.4l43 -103.5q9.7 -29.3 -11.7 -50.8L918 679.7l23.4 -39.1 52.7 31.3q33.2 15.6 58.6 -9.8l52.8 -60.5q25.4 -35.2 -3.9 -66.4 -35.2 -25.4 -66.4 3.9l-27.4 31.2 -29.3 -15.6q5.9 -37.1 -9.7 -70.3z"/></svg>