<svg height="1000" width="1250" xmlns="http://www.w3.org/2000/svg"><path d="M0 17.6q2 -39.1 27.3 -66.4 27.4 -25.4 66.5 -27.4h562.5q39 2 66.4 27.4Q748 -21.5 750 17.6V377q-58.6 48.8 -91.8 117.1T625 642.6q3.9 148.4 103.5 246.1 -27.3 33.2 -72.2 35.1H468.8V767.6q-2 -39.1 -27.4 -66.4Q414.1 675.8 375 673.8q-39.1 2 -66.4 27.4 -25.4 27.3 -27.3 66.4v156.2H93.8Q54.7 921.9 27.3 896.5 2 869.1 0 830.1V17.6zm156.3 343.7q-29.3 2 -31.3 31.3v62.5q2 29.3 31.3 31.2h62.5Q248 484.4 250 455.1v-62.5q-2 -29.3 -31.2 -31.3h-62.5zm156.2 31.3v62.5 -62.5 62.5q2 29.3 31.3 31.2h62.5q29.2 -1.9 31.2 -31.2v-62.5q-2 -29.3 -31.2 -31.3h-62.5q-29.3 2 -31.3 31.3zm218.8 -31.3q-29.3 2 -31.3 31.3v62.5q2 29.3 31.3 31.2h62.5Q623 484.4 625 455.1v-62.5q-2 -29.3 -31.2 -31.3h-62.5zM125 142.6v62.5 -62.5 62.5q2 29.3 31.3 31.2h62.5Q248 234.4 250 205.1v-62.5q-2 -29.3 -31.2 -31.3h-62.5q-29.3 2 -31.3 31.3zm218.8 -31.3q-29.3 2 -31.3 31.3v62.5q2 29.3 31.3 31.2h62.5q29.2 -1.9 31.2 -31.2v-62.5q-2 -29.3 -31.2 -31.3h-62.5zM500 142.6v62.5 -62.5 62.5q2 29.3 31.3 31.2h62.5Q623 234.4 625 205.1v-62.5q-2 -29.3 -31.2 -31.3h-62.5q-29.3 2 -31.3 31.3zm187.5 500q0 -76.2 37.1 -140.6 37.1 -64.5 103.5 -103.6 66.4 -37.1 140.7 -37.1t140.6 37.1q66.4 39.1 103.5 103.6t37.1 140.6 -37.1 140.6 -103.5 103.5q-66.4 37.1 -140.6 37.1T828.1 886.7q-66.4 -39 -103.5 -103.5T687.5 642.6zM962.9 511.7q-19.5 21.5 0 43l54.7 56.6H843.8q-29.3 2 -31.3 31.3 2 29.3 31.3 31.2h173.8l-54.7 56.7q-19.5 21.5 0 42.9 21.5 19.6 43 0l109.3 -109.3q19.6 -21.5 0 -43L1005.9 511.7q-21.5 -19.5 -43 0z"/></svg>