<svg height="1000" width="750" xmlns="http://www.w3.org/2000/svg"><path d="M93.8 -76.2q-39.1 2 -66.5 27.4Q2 -21.5 0 17.6v812.5q2 39 27.3 66.4 27.4 25.4 66.5 27.3h187.5V767.6q1.9 -39.1 27.3 -66.4 27.3 -25.4 66.4 -27.4 39.1 2 66.4 27.4 25.4 27.3 27.4 66.4v156.2h187.5q39 -1.9 66.4 -27.3Q748 869.1 750 830.1V17.6q-2 -39.1 -27.3 -66.4 -27.4 -25.4 -66.4 -27.4H93.8zM125 392.6q2 -29.3 31.3 -31.3h62.5q29.2 2 31.2 31.3v62.5q-2 29.3 -31.2 31.2h-62.5Q127 484.4 125 455.1v-62.5zm218.8 -31.3h62.5 -62.5 62.5q29.2 2 31.2 31.3v62.5q-2 29.3 -31.2 31.2h-62.5q-29.3 -1.9 -31.3 -31.2v-62.5q2 -29.3 31.3 -31.3zM500 392.6q2 -29.3 31.3 -31.3h62.5q29.2 2 31.2 31.3v62.5q-2 29.3 -31.2 31.2h-62.5Q502 484.4 500 455.1v-62.5zM328.1 48.8h93.8 -93.8 93.8q29.3 2 31.2 31.3 -1.9 29.3 -31.2 31.2h-62.5v125h31.2v-31.2q2 -29.3 31.3 -31.3 29.3 2 31.2 31.3V252q-3.9 42.9 -46.8 46.8h-62.5q-43 -3.9 -46.9 -46.8V80.1q1.9 -29.3 31.2 -31.3zm265.7 62.5q-29.3 2 -31.3 31.3v62.5q2 29.3 31.3 31.2Q623 234.4 625 205.1v-62.5q-2 -29.3 -31.2 -31.3zM500 142.6q2 -39.1 27.3 -66.4 27.4 -25.4 66.5 -27.4 39 2 66.4 27.4 25.3 27.3 27.3 66.4v62.5q-2 39 -27.3 66.4 -27.4 25.4 -66.4 27.3 -39.1 -1.9 -66.5 -27.3Q502 244.1 500 205.1v-62.5zM119.1 62.5l68.4 101.6L119.1 62.5l68.4 101.6v-84q2 -29.3 31.3 -31.3 29.2 2 31.2 31.3v187.5q-2 21.5 -21.5 29.3 -23.4 5.8 -35.1 -11.7L125 183.6v84q-2 29.3 -31.2 31.2Q64.5 296.9 62.5 267.6V80.1Q64.5 58.6 84 50.8q23.4 -5.9 35.1 11.7z"/></svg>