<svg height="1000" width="750" xmlns="http://www.w3.org/2000/svg"><path d="M93.8 -76.2q-39.1 2 -66.5 27.4Q2 -21.5 0 17.6v812.5q2 39 27.3 66.4 27.4 25.4 66.5 27.3h187.5V767.6q1.9 -39.1 27.3 -66.4 27.3 -25.4 66.4 -27.4 39.1 2 66.4 27.4 25.4 27.3 27.4 66.4v156.2h187.5q39 -1.9 66.4 -27.3Q748 869.1 750 830.1V17.6q-2 -39.1 -27.3 -66.4 -27.4 -25.4 -66.4 -27.4H93.8zM125 392.6q2 -29.3 31.3 -31.3h62.5q29.2 2 31.2 31.3v62.5q-2 29.3 -31.2 31.2h-62.5Q127 484.4 125 455.1v-62.5zm218.8 -31.3h62.5 -62.5 62.5q29.2 2 31.2 31.3v62.5q-2 29.3 -31.2 31.2h-62.5q-29.3 -1.9 -31.3 -31.2v-62.5q2 -29.3 31.3 -31.3zM500 392.6q2 -29.3 31.3 -31.3h62.5q29.2 2 31.2 31.3v62.5q-2 29.3 -31.2 31.2h-62.5Q502 484.4 500 455.1v-62.5zM156.3 111.3h62.5 -62.5 62.5q29.2 2 31.2 31.3v62.5q-2 29.3 -31.2 31.2h-62.5Q127 234.4 125 205.1v-62.5q2 -29.3 31.3 -31.3zm156.2 31.3q2 -29.3 31.3 -31.3h62.5q29.2 2 31.2 31.3v62.5q-2 29.3 -31.2 31.2h-62.5q-29.3 -1.9 -31.3 -31.2v-62.5zm218.8 -31.3h62.5 -62.5 62.5q29.2 2 31.2 31.3v62.5q-2 29.3 -31.2 31.2h-62.5Q502 234.4 500 205.1v-62.5q2 -29.3 31.3 -31.3z"/></svg>