<svg height="1000" width="1250" xmlns="http://www.w3.org/2000/svg"><path d="M0 17.6q2 -39.1 27.3 -66.4 27.4 -25.4 66.5 -27.4h562.5q39 2 66.4 27.4Q748 -21.5 750 17.6v812.5q-2 39 -27.3 66.4 -27.4 25.4 -66.4 27.3H468.8V767.6q-2 -39.1 -27.4 -66.4Q414.1 675.8 375 673.8q-39.1 2 -66.4 27.4 -25.4 27.3 -27.3 66.4v156.2H93.8Q54.7 921.9 27.3 896.5 2 869.1 0 830.1V17.6zm156.3 343.7q-29.3 2 -31.3 31.3v62.5q2 29.3 31.3 31.2h62.5Q248 484.4 250 455.1v-62.5q-2 -29.3 -31.2 -31.3h-62.5zm156.2 31.3v62.5 -62.5 62.5q2 29.3 31.3 31.2h62.5q29.2 -1.9 31.2 -31.2v-62.5q-2 -29.3 -31.2 -31.3h-62.5q-29.3 2 -31.3 31.3zm218.8 -31.3q-29.3 2 -31.3 31.3v62.5q2 29.3 31.3 31.2h62.5Q623 484.4 625 455.1v-62.5q-2 -29.3 -31.2 -31.3h-62.5zM125 142.6v62.5 -62.5 62.5q2 29.3 31.3 31.2h62.5Q248 234.4 250 205.1v-62.5q-2 -29.3 -31.2 -31.3h-62.5q-29.3 2 -31.3 31.3zm218.8 -31.3q-29.3 2 -31.3 31.3v62.5q2 29.3 31.3 31.2h62.5q29.2 -1.9 31.2 -31.2v-62.5q-2 -29.3 -31.2 -31.3h-62.5zM500 142.6v62.5 -62.5 62.5q2 29.3 31.3 31.2h62.5Q623 234.4 625 205.1v-62.5q-2 -29.3 -31.2 -31.3h-62.5q-29.3 2 -31.3 31.3zm750 156.2v31.3 -31.3 31.3q-2 66.4 -44.9 111.3 -44.9 43 -111.3 44.9h-31.3v-31.2q2 -66.4 44.9 -111.3 44.9 -43 111.4 -45h31.2zm0 250q-2 66.4 -44.9 111.4 -44.9 42.9 -111.3 44.9h-31.3v-31.3q2 -66.4 44.9 -111.3 44.9 -43 111.4 -44.9h31.2v31.2zm0 218.8q-2 66.4 -44.9 111.3 -44.9 43 -111.3 44.9h-31.3v-31.2q2 -66.4 44.9 -111.3 44.9 -43 111.4 -45h31.2v31.3zm-250 125v31.2 -31.2 31.2h-31.2q-66.5 -1.9 -111.4 -44.9Q814.5 834 812.5 767.6v-31.3h31.3q66.4 2 111.3 45 42.9 44.9 44.9 111.3zm0 -187.5h-31.2 31.2 -31.2q-66.5 -2 -111.4 -44.9 -42.9 -45 -44.9 -111.4v-31.2h31.3q66.4 1.9 111.3 44.9 42.9 44.9 44.9 111.3v31.3zm0 -250v31.2 -31.2 31.2h-31.2q-66.5 -1.9 -111.4 -44.9Q814.5 396.5 812.5 330.1v-31.3h31.3q66.4 2 111.3 45 42.9 44.9 44.9 111.3zm31.3 -468.8q42.9 3.9 46.8 46.9v203.1q-3.9 43 -46.8 46.9 -43 -3.9 -46.9 -46.9V33.2q3.9 -43 46.9 -46.9zm187.5 125v62.5 -62.5 62.5q-4 43 -46.9 46.9 -43 -3.9 -46.9 -46.9v-62.5q3.9 -42.9 46.9 -46.8 42.9 3.9 46.9 46.8zM890.6 64.5q43 3.9 46.9 46.8v62.5q-3.9 43 -46.9 46.9 -42.9 -3.9 -46.8 -46.9v-62.5q3.9 -42.9 46.8 -46.8z"/></svg>