<svg height="1000" width="1250" xmlns="http://www.w3.org/2000/svg"><path d="M93.8 -76.2q-39.1 2 -66.5 27.4Q2 -21.5 0 17.6v812.5q2 39 27.3 66.4 27.4 25.4 66.5 27.3h187.5V767.6q1.9 -39.1 27.3 -66.4 27.3 -25.4 66.4 -27.4 39.1 2 66.4 27.4 25.4 27.3 27.4 66.4v156.2h175.7Q625 892.6 625 855.5q0 -70.3 35.2 -125 33.2 -56.7 89.8 -87.9v-625q-2 -39.1 -27.3 -66.4 -27.4 -25.4 -66.4 -27.4H93.8zM125 392.6q2 -29.3 31.3 -31.3h62.5q29.2 2 31.2 31.3v62.5q-2 29.3 -31.2 31.2h-62.5Q127 484.4 125 455.1v-62.5zm218.8 -31.3h62.5 -62.5 62.5q29.2 2 31.2 31.3v62.5q-2 29.3 -31.2 31.2h-62.5q-29.3 -1.9 -31.3 -31.2v-62.5q2 -29.3 31.3 -31.3zM500 392.6q2 -29.3 31.3 -31.3h62.5q29.2 2 31.2 31.3v62.5q-2 29.3 -31.2 31.2h-62.5Q502 484.4 500 455.1v-62.5zM156.3 111.3h62.5 -62.5 62.5q29.2 2 31.2 31.3v62.5q-2 29.3 -31.2 31.2h-62.5Q127 234.4 125 205.1v-62.5q2 -29.3 31.3 -31.3zm156.2 31.3q2 -29.3 31.3 -31.3h62.5q29.2 2 31.2 31.3v62.5q-2 29.3 -31.2 31.2h-62.5q-29.3 -1.9 -31.3 -31.2v-62.5zm218.8 -31.3h62.5 -62.5 62.5q29.2 2 31.2 31.3v62.5q-2 29.3 -31.2 31.2h-62.5Q502 234.4 500 205.1v-62.5q2 -29.3 31.3 -31.3zM1125 455.1q-2 -87.9 -78.1 -134.8 -78.1 -43 -156.3 0 -76.1 46.9 -78.1 134.8 2 87.9 78.1 134.7 78.2 43 156.3 0Q1123 543 1125 455.1zM687.5 855.5q0 29.3 19.5 48.8 19.6 19.5 48.9 19.5h425.7q29.3 0 48.9 -19.5t19.5 -48.8q-2 -76.2 -52.7 -128.9 -52.8 -50.8 -128.9 -52.8H869.1q-76.1 2 -128.9 52.8 -50.7 52.7 -52.7 128.9z"/></svg>