<svg height="1000" width="1000" xmlns="http://www.w3.org/2000/svg"><path d="M474.6 -70.3L37.1 117.2 474.6 -70.3 37.1 117.2Q-5.9 138.7 2 185.5q11.7 46.9 60.5 50.8V252q3.9 42.9 46.9 46.8h781.2q43 -3.9 46.9 -46.8v-15.7q48.8 -3.9 60.5 -50.8 7.9 -46.8 -35.1 -68.3L525.4 -70.3q-25.4 -11.7 -50.8 0zM250 361.3H125h125H125v382.8q-2 2 -3.9 2l-93.8 62.5Q-7.8 835.9 2 878.9q15.6 43 60.5 44.9h875q44.9 -1.9 60.5 -44.9 9.8 -43 -25.3 -70.3l-93.8 -62.5H877q-2 0 -2 -2V361.3H750v375h-78.1v-375h-125v375h-93.8v-375h-125v375H250v-375zM500 48.8q27.3 0 44.9 17.6 17.6 17.6 17.6 44.9t-17.6 45T500 173.8t-44.9 -17.5 -17.6 -45 17.6 -44.9T500 48.8z"/></svg>