<svg height="1000" width="1125" xmlns="http://www.w3.org/2000/svg"><path d="M93.8 -76.2q-39.1 2 -66.5 27.4Q2 -21.5 0 17.6v812.5q2 39 27.3 66.4 27.4 25.4 66.5 27.3h187.5V767.6q1.9 -39.1 27.3 -66.4 27.3 -25.4 66.4 -27.4 39.1 2 66.4 27.4 25.4 27.3 27.4 66.4v156.2h173.8Q625 896.5 625 861.3v-250q3.9 -72.2 62.5 -107.4v-48.8q2 -91.8 62.5 -152.4V17.6q-2 -39.1 -27.3 -66.4 -27.4 -25.4 -66.4 -27.4H93.8zM125 392.6q2 -29.3 31.3 -31.3h62.5q29.2 2 31.2 31.3v62.5q-2 29.3 -31.2 31.2h-62.5Q127 484.4 125 455.1v-62.5zm218.8 -31.3h62.5 -62.5 62.5q29.2 2 31.2 31.3v62.5q-2 29.3 -31.2 31.2h-62.5q-29.3 -1.9 -31.3 -31.2v-62.5q2 -29.3 31.3 -31.3zM500 392.6q2 -29.3 31.3 -31.3h62.5q29.2 2 31.2 31.3v62.5q-2 29.3 -31.2 31.2h-62.5Q502 484.4 500 455.1v-62.5zM156.3 111.3h62.5 -62.5 62.5q29.2 2 31.2 31.3v62.5q-2 29.3 -31.2 31.2h-62.5Q127 234.4 125 205.1v-62.5q2 -29.3 31.3 -31.3zm156.2 31.3q2 -29.3 31.3 -31.3h62.5q29.2 2 31.2 31.3v62.5q-2 29.3 -31.2 31.2h-62.5q-29.3 -1.9 -31.3 -31.2v-62.5zm218.8 -31.3h62.5 -62.5 62.5q29.2 2 31.2 31.3v62.5q-2 29.3 -31.2 31.2h-62.5Q502 234.4 500 205.1v-62.5q2 -29.3 31.3 -31.3zm375 281.3q27.3 0 44.9 17.6 17.6 17.5 17.6 44.9v93.7h-125v-93.7q0 -27.4 17.5 -44.9t45 -17.6zM750 455.1v93.7 -93.7 93.7q-27.3 0 -44.9 17.6t-17.6 44.9v250q0 27.4 17.6 45t44.9 17.5h312.5q27.3 0 44.9 -17.5t17.6 -45v-250q0 -27.3 -17.6 -44.9t-44.9 -17.6v-93.7q-2 -66.4 -44.9 -111.3 -44.9 -43 -111.3 -45 -66.5 2 -111.4 45Q752 388.7 750 455.1z"/></svg>