<svg height="1000" width="1125" xmlns="http://www.w3.org/2000/svg"><path d="M0 17.6q2 -39.1 27.3 -66.4 27.4 -25.4 66.5 -27.4h562.5q39 2 66.4 27.4Q748 -21.5 750 17.6v310.5l-82 33.2H531.3q-29.3 2 -31.3 31.3v130.8q2 87.9 43 197.3Q585.9 830.1 693.4 916q-17.6 7.8 -37.1 7.8H468.8V767.6q-2 -39.1 -27.4 -66.4Q414.1 675.8 375 673.8q-39.1 2 -66.4 27.4 -25.4 27.3 -27.3 66.4v156.2H93.8Q54.7 921.9 27.3 896.5 2 869.1 0 830.1V17.6zm156.3 343.7q-29.3 2 -31.3 31.3v62.5q2 29.3 31.3 31.2h62.5Q248 484.4 250 455.1v-62.5q-2 -29.3 -31.2 -31.3h-62.5zm156.2 31.3v62.5 -62.5 62.5q2 29.3 31.3 31.2h62.5q29.2 -1.9 31.2 -31.2v-62.5q-2 -29.3 -31.2 -31.3h-62.5q-29.3 2 -31.3 31.3zM125 142.6v62.5 -62.5 62.5q2 29.3 31.3 31.2h62.5Q248 234.4 250 205.1v-62.5q-2 -29.3 -31.2 -31.3h-62.5q-29.3 2 -31.3 31.3zm218.8 -31.3q-29.3 2 -31.3 31.3v62.5q2 29.3 31.3 31.2h62.5q29.2 -1.9 31.2 -31.2v-62.5q-2 -29.3 -31.2 -31.3h-62.5zM500 142.6v62.5 -62.5 62.5q2 29.3 31.3 31.2h62.5Q623 234.4 625 205.1v-62.5q-2 -29.3 -31.2 -31.3h-62.5q-29.3 2 -31.3 31.3zm326.2 222.6q17.6 -7.8 35.1 0l234.4 93.8q27.3 11.7 29.3 43 2 64.4 -21.5 144.5 -21.5 80.1 -78.1 154.3Q966.8 875 861.3 919.9q-17.5 7.8 -35.1 0Q720.7 875 662.1 800.8 605.5 726.6 584 646.5 560.5 566.4 562.5 502q2 -31.3 29.3 -43l234.4 -93.8zm203.1 168L843.8 459l185.5 74.2L843.8 459v367.2q97.6 -52.8 140.6 -134.8 41 -82 44.9 -158.2z"/></svg>