<svg height="1000" width="1000" xmlns="http://www.w3.org/2000/svg"><path d="M875 423.8q0 -101.5 -50.8 -187.5Q775.4 150.4 687.5 99.6T500 48.8 312.5 99.6 175.8 236.3Q125 322.3 125 423.8t50.8 187.5q48.8 86 136.7 136.7T500 798.8 687.5 748 824.2 611.3Q875 525.4 875 423.8zm-875 0q2 -136.7 66.4 -250Q132.8 60.5 250 -9.8q119.1 -66.4 250 -66.4t250 66.4q117.2 70.3 183.6 183.6 64.4 113.3 66.4 250 -2 136.7 -66.4 250Q867.2 787.1 750 857.4q-119.1 66.4 -250 66.4T250 857.4Q132.8 787.1 66.4 673.8 2 560.5 0 423.8zm500 156.3q87.9 -2 134.8 -78.1 42.9 -78.2 0 -156.3Q587.9 269.5 500 267.6q-87.9 1.9 -134.8 78.1 -42.9 78.1 0 156.3 46.9 76.1 134.8 78.1zm0 -437.5q76.2 0 140.6 37.1 64.5 37.1 103.5 103.5 37.2 66.4 37.2 140.6t-37.2 140.7q-39 66.4 -103.5 103.5T500 705.1 359.4 668 255.9 564.5Q218.8 498 218.8 423.8t37.1 -140.6q39 -66.4 103.5 -103.5T500 142.6zm-62.5 281.2q0 -27.3 17.6 -44.9 17.6 -17.6 44.9 -17.6t44.9 17.6 17.6 44.9 -17.6 45T500 486.3t-44.9 -17.5 -17.6 -45z"/></svg>