<svg height="1000" width="1000" xmlns="http://www.w3.org/2000/svg"><path d="M937.5 -13.7q-2 -41 -39.1 -58.6 -37.1 -13.6 -68.3 13.7l-84 85.9Q673.8 97.7 584 136.7q-91.8 37.1 -191.4 37.1H125q-52.7 2 -87.9 37.1T0 298.8v187.5q2 52.8 37.1 87.9t87.9 37.1v250q0 27.4 17.6 45t44.9 17.5h125q27.3 0 44.9 -17.5t17.6 -45v-250h17.6q99.6 0 191.4 39.1 89.8 37.1 162.1 107.4l84 86q31.2 27.3 68.3 13.6 37.1 -17.6 39.1 -58.6v-289q27.3 -13.7 44.9 -45t17.6 -72.2 -17.6 -72.3q-17.6 -33.2 -44.9 -44.9V-13.7zm-125 150.4v255.9V136.7 648.4Q724.6 570.3 617.2 529.3q-107.4 -43 -224.6 -43H375V298.8h17.6q117.2 0 224.6 -42.9Q724.6 214.8 812.5 136.7z"/></svg>