<svg height="1000" width="1000" xmlns="http://www.w3.org/2000/svg"><path d="M119.1 361.3q-23.4 0 -39 -17.5Q62.5 328.1 62.5 304.7q0 -5.9 2 -11.7 1.9 -25.4 39 -97.7Q142.6 123 236.3 56.6 328.1 -9.8 500 -13.7q171.9 3.9 263.7 70.3 93.7 66.4 132.8 138.7 37.1 72.3 39 97.7 2 5.8 2 11.7 0 23.4 -17.6 39.1 -15.6 17.5 -39 17.5H119.1zM281.3 173.8q-2 -29.3 -31.3 -31.2 -29.3 1.9 -31.2 31.2 1.9 29.3 31.2 31.3 29.3 -2 31.3 -31.3zM750 205.1q29.3 -2 31.3 -31.3 -2 -29.3 -31.3 -31.2 -29.3 1.9 -31.2 31.2 1.9 29.3 31.2 31.3zM531.3 111.3Q529.3 82 500 80.1q-29.3 1.9 -31.2 31.2 1.9 29.3 31.2 31.3 29.3 -2 31.3 -31.3zm-500 406.3q1.9 -39.1 27.3 -66.4Q85.9 425.8 125 423.8h750q39.1 2 66.4 27.4 25.4 27.3 27.4 66.4 -2 39 -27.4 66.4 -27.3 25.4 -66.4 27.3H125Q85.9 609.4 58.6 584 33.2 556.6 31.3 517.6zm31.2 187.5q2 -29.3 31.3 -31.3h812.5q29.2 2 31.2 31.3v31.2q-2 52.8 -37.1 87.9t-87.9 37.1h-625q-52.7 -1.9 -87.9 -37.1T62.5 736.3v-31.2z"/></svg>