<svg height="1000" width="1000" xmlns="http://www.w3.org/2000/svg"><path d="M74.2 -68.4Q41 -85.9 13.7 -62.5 -9.8 -35.2 7.8 -2l218.8 318.4L33.2 378.9Q2 390.6 0 423.8q2 33.2 33.2 45l201.2 64.4L130.9 730.5q-13.7 29.3 7.8 54.7 25.4 21.4 54.7 7.8L390.6 689.5l64.5 201.1q11.7 31.3 44.9 33.2 33.2 -1.9 44.9 -33.2l64.5 -201.1L806.6 793q29.3 13.6 54.7 -7.8 21.5 -25.4 7.8 -54.7L765.6 533.2l201.2 -64.4Q998 457 1000 423.8q-2 -33.2 -33.2 -44.9l-207 -66.4 50.7 -138.7q7.9 -27.3 -11.7 -48.8Q777.3 105.5 750 113.3l-138.7 50.8L544.9 -43Q533.2 -74.2 500 -76.2q-33.2 2 -44.9 33.2l-62.5 193.4L74.2 -68.4z"/></svg>