<svg height="1000" width="1125" xmlns="http://www.w3.org/2000/svg"><path d="M562.5 -76.2q199.2 2 316.4 44.9Q998 13.7 1000 80.1v93.7q27.3 0 44.9 17.6t17.6 44.9v125q0 27.4 -17.6 45t-44.9 17.5v312.5q0 27.4 -17.6 45t-44.9 17.5v62.5q0 27.4 -17.6 45T875 923.8h-62.5q-27.3 0 -44.9 -17.5t-17.6 -45v-62.5H375v62.5q0 27.4 -17.6 45t-44.9 17.5H250q-27.3 0 -44.9 -17.5t-17.6 -45v-62.5q-27.3 0 -44.9 -17.5t-17.6 -45V423.8q-27.3 0 -44.9 -17.5t-17.6 -45v-125q0 -27.3 17.6 -44.9T125 173.8V80.1q2 -66.4 121.1 -111.4 117.2 -42.9 316.4 -44.9zM250 236.3v187.5V236.3v187.5q0 27.4 17.6 45t44.9 17.5h218.8V173.8H312.5q-27.3 0 -44.9 17.6T250 236.3zm343.8 250h218.7H593.8h218.7q27.3 0 44.9 -17.5t17.6 -45V236.3q0 -27.3 -17.6 -44.9t-44.9 -17.6H593.8v312.5zM281.3 705.1q27.3 0 44.9 -17.6 17.6 -17.6 17.6 -44.9t-17.6 -44.9 -44.9 -17.6 -45 17.6 -17.5 44.9 17.5 44.9 45 17.6zm562.5 0q27.3 0 44.9 -17.6 17.6 -17.6 17.6 -44.9t-17.6 -44.9 -44.9 -17.6 -45 17.6 -17.5 44.9 17.5 44.9 45 17.6zM750 80.1Q748 50.8 718.8 48.8H406.3Q377 50.8 375 80.1q2 29.3 31.3 31.2h312.5Q748 109.4 750 80.1z"/></svg>