<svg height="1000" width="1250" xmlns="http://www.w3.org/2000/svg"><path d="M359.4 17.6h281.2H359.4h281.2q13.7 1.9 15.7 15.6v78.1H343.8V33.2q1.9 -13.7 15.6 -15.6zM250 33.2v78.1V33.2v78.1H125q-52.7 2 -87.9 37.1T0 236.3v187.5h703.1Q752 365.2 820.3 332t148.5 -33.2q15.6 0 31.2 2v-64.5q-2 -52.7 -37.1 -87.9T875 111.3H750V33.2q-2 -46.9 -31.2 -78.1 -31.3 -29.3 -78.2 -31.3H359.4q-46.9 2 -78.1 31.3Q252 -13.7 250 33.2zm375 578.1H437.5 625 437.5q-27.3 0 -44.9 -17.5t-17.6 -45v-62.5H0v250q2 52.8 37.1 87.9t87.9 37.1h578.1Q627 769.5 625 642.6q0 -15.6 2 -31.3h-2zm625 31.3q0 -76.2 -37.1 -140.6 -37.1 -64.5 -103.5 -103.6Q1043 361.3 968.8 361.3t-140.7 37.1Q761.7 437.5 724.6 502t-37.1 140.6 37.1 140.6 103.5 103.5q66.4 37.1 140.7 37.1t140.6 -37.1q66.4 -39 103.5 -103.5T1250 642.6zM968.8 486.3q29.2 2 31.2 31.3v93.7h62.5q29.3 2 31.3 31.3 -2 29.3 -31.3 31.2h-93.7q-29.3 -1.9 -31.3 -31.2v-125q2 -29.3 31.3 -31.3z"/></svg>