<svg height="1000" width="1000" xmlns="http://www.w3.org/2000/svg"><path d="M562.5 -76.2q27.3 0 44.9 17.6Q625 -41 625 -13.7t-17.6 45 -44.9 17.5T517.6 31.3t-17.6 -45 17.6 -44.9 44.9 -17.6zm-250 109.4q0 -27.3 17.6 -44.9 17.6 -17.6 44.9 -17.6t44.9 17.6 17.6 44.9 -17.6 44.9T375 95.7 330.1 78.1 312.5 33.2zm-250 453.1q2 -52.7 37.1 -87.9 35.2 -35.1 87.9 -37.1h265.6V232.4L56.6 314.5Q13.7 318.4 0 277.3q-3.9 -42.9 37.1 -54.6l453.1 -93.8L943.4 35.2q42.9 -5.9 54.6 35.1 5.9 43 -35.1 56.7l-416 85.9v148.4h265.6q52.7 2 87.9 37.1t37.1 87.9v312.5q-2 52.8 -37.1 87.9t-87.9 37.1h-625q-52.7 -1.9 -87.9 -37.1T62.5 798.8V486.3zm125 0q-29.3 2 -31.2 31.3v125q1.9 29.3 31.2 31.2h125q29.3 -1.9 31.3 -31.2v-125q-2 -29.3 -31.3 -31.3h-125zm218.8 31.3v125 -125 125q1.9 29.3 31.2 31.2h125q29.3 -1.9 31.3 -31.2v-125q-2 -29.3 -31.3 -31.3h-125q-29.3 2 -31.2 31.3zm281.2 -31.3q-29.3 2 -31.2 31.3v125q1.9 29.3 31.2 31.2h125q29.3 -1.9 31.3 -31.2v-125q-2 -29.3 -31.3 -31.3h-125z"/></svg>