<svg height="1000" width="875" xmlns="http://www.w3.org/2000/svg"><path d="M168 -64.5l-46.9 82.1L168 -64.5l-46.9 82.1q-11.7 19.5 -11.7 41v5.9q0 33.2 23.4 54.6 21.5 23.5 54.7 23.5t54.7 -23.5q23.4 -21.4 23.4 -54.6v-5.9q0 -21.5 -11.7 -41L207 -64.5q-7.8 -11.7 -19.5 -11.7T168 -64.5zm250 0l-46.9 82.1L418 -64.5l-46.9 82.1q-11.7 19.5 -11.7 41v5.9q0 33.2 23.4 54.6 21.5 23.5 54.7 23.5t54.7 -23.5q23.4 -21.4 23.4 -54.6v-5.9q0 -21.5 -11.7 -41L457 -64.5q-7.8 -11.7 -19.5 -11.7T418 -64.5zm203.1 82.1q-11.7 19.5 -11.7 41v5.9q0 33.2 23.4 54.6 21.5 23.5 54.7 23.5t54.7 -23.5q23.4 -21.4 23.4 -54.6v-5.9q0 -21.5 -11.7 -41L707 -64.5q-7.8 -11.7 -19.5 -11.7T668 -64.5l-46.9 82.1zM250 267.6q0 -27.4 -17.6 -44.9 -17.6 -17.6 -44.9 -17.6t-44.9 17.6T125 267.6v93.7q-52.7 2 -87.9 37.1T0 486.3V625q25.4 15.6 56.6 17.6 41.1 -2 74.3 -25.4 15.6 -11.7 25.4 -19.5 3.9 -2 5.8 -3.9 0 -2 2 -2v-2h1.9q7.8 -9.7 23.5 -9.7 11.7 0 21.4 11.7h2l5.9 5.9q7.8 7.8 23.4 19.5 31.2 23.4 70.3 25.4 41 -2 70.3 -25.4 15.6 -11.7 23.5 -19.5l5.8 -5.9h2q9.7 -11.7 23.4 -11.7t23.4 11.7h2l5.9 5.9q7.8 7.8 23.4 19.5 31.2 23.4 70.3 25.4 41 -2 70.3 -25.4 15.6 -11.7 23.5 -19.5l5.8 -5.9h2q9.7 -11.7 23.4 -11.7t23.4 9.7q0 2 2 2v2q1.9 1.9 5.9 3.9 9.7 7.8 25.3 19.5 33.2 23.4 74.3 25.4 33.2 -2 56.6 -17.6V486.3q0 -52.7 -37.1 -87.9Q802.7 363.3 750 361.3v-93.7q0 -27.4 -17.6 -44.9t-44.9 -17.6q-25.4 0 -43 17.6T625 267.6v93.7H500v-93.7q0 -27.4 -17.6 -44.9t-44.9 -17.6q-25.4 0 -43 17.6T375 267.6v93.7H250v-93.7zm625 427.7q-25.4 9.8 -56.6 9.8Q750 699.2 709 668q-11.7 -7.8 -19.5 -13.7 -9.8 5.9 -19.6 13.7 -39 31.2 -107.4 37.1Q494.1 699.2 455.1 668q-9.8 -7.8 -17.6 -13.7 -7.8 5.9 -17.6 13.7 -39 31.2 -107.4 37.1Q244.1 699.2 205.1 668q-9.8 -7.8 -17.6 -13.7 -9.8 5.9 -21.5 13.7 -43 31.2 -109.4 37.1 -31.2 0 -56.6 -9.8v166q0 27.4 17.6 45t44.9 17.5h750q27.3 0 44.9 -17.5t17.6 -45v-166z"/></svg>