<svg height="1000" width="750" xmlns="http://www.w3.org/2000/svg"><path d="M125 -76.2q-52.7 2 -87.9 37.1Q2 -3.9 0 48.8v750q2 52.8 37.1 87.9t87.9 37.1h500q52.7 -1.9 87.9 -37.1T750 798.8v-750q-2 -52.7 -37.1 -87.9T625 -76.2H125zm62.5 125h375 -375 375q27.3 0 44.9 17.6t17.6 44.9v62.5q0 27.4 -17.6 45t-44.9 17.5h-375q-27.3 0 -44.9 -17.5t-17.6 -45v-62.5Q125 84 142.6 66.4t44.9 -17.6zM250 361.3q0 27.4 -17.6 45 -17.6 17.5 -44.9 17.5t-44.9 -17.5 -17.6 -45 17.6 -44.9 44.9 -17.6 44.9 17.6 17.6 44.9zm-62.5 250q-27.3 0 -44.9 -17.5Q125 576.2 125 548.8t17.6 -44.9 44.9 -17.6 44.9 17.6 17.6 44.9 -17.6 45 -44.9 17.5zm-62.5 125q0 -27.3 17.6 -44.9 17.6 -17.6 44.9 -17.6H375q27.3 0 44.9 17.6t17.6 44.9 -17.6 45T375 798.8H187.5q-27.3 0 -44.9 -17.5t-17.6 -45zM375 423.8q-27.3 0 -44.9 -17.5 -17.6 -17.6 -17.6 -45t17.6 -44.9T375 298.8t44.9 17.6 17.6 44.9 -17.6 45T375 423.8zm62.5 125q0 27.4 -17.6 45 -17.6 17.5 -44.9 17.5t-44.9 -17.5 -17.6 -45 17.6 -44.9T375 486.3t44.9 17.6 17.6 44.9zm125 -125q-27.3 0 -44.9 -17.5Q500 388.7 500 361.3t17.6 -44.9 44.9 -17.6 44.9 17.6 17.6 44.9 -17.6 45 -44.9 17.5zm62.5 125q0 27.4 -17.6 45 -17.6 17.5 -44.9 17.5t-44.9 -17.5 -17.6 -45 17.6 -44.9 44.9 -17.6 44.9 17.6 17.6 44.9zm-62.5 250q-27.3 0 -44.9 -17.5Q500 763.7 500 736.3t17.6 -44.9 44.9 -17.6 44.9 17.6 17.6 44.9 -17.6 45 -44.9 17.5z"/></svg>