<svg height="1000" width="875" xmlns="http://www.w3.org/2000/svg"><path d="M250 -76.2q27.3 0 44.9 17.6 17.6 17.6 17.6 44.9v62.5h250v-62.5q0 -27.3 17.6 -44.9T625 -76.2t44.9 17.6 17.6 44.9v62.5h93.8q39 2 66.4 27.4 25.3 27.3 27.3 66.4v93.7H0v-93.7Q2 103.5 27.3 76.2 54.7 50.8 93.8 48.8h93.7v-62.5q0 -27.3 17.6 -44.9T250 -76.2zM0 298.8h875H0h875v531.3q-2 39 -27.3 66.4 -27.4 25.4 -66.4 27.3H93.8Q54.7 921.9 27.3 896.5 2 869.1 0 830.1V298.8zm125 156.3v62.5 -62.5 62.5q2 29.3 31.3 31.2h62.5Q248 546.9 250 517.6v-62.5q-2 -29.3 -31.2 -31.3h-62.5q-29.3 2 -31.3 31.3zm250 0v62.5 -62.5 62.5q2 29.3 31.3 31.2h62.5Q498 546.9 500 517.6v-62.5q-2 -29.3 -31.2 -31.3h-62.5q-29.3 2 -31.3 31.3zm281.3 -31.3q-29.3 2 -31.3 31.3v62.5q2 29.3 31.3 31.2h62.5Q748 546.9 750 517.6v-62.5q-2 -29.3 -31.2 -31.3h-62.5zM125 705.1v62.5 -62.5 62.5q2 29.3 31.3 31.2h62.5Q248 796.9 250 767.6v-62.5q-2 -29.3 -31.2 -31.3h-62.5q-29.3 2 -31.3 31.3zm281.3 -31.3q-29.3 2 -31.3 31.3v62.5q2 29.3 31.3 31.2h62.5Q498 796.9 500 767.6v-62.5q-2 -29.3 -31.2 -31.3h-62.5zM625 705.1v62.5 -62.5 62.5q2 29.3 31.3 31.2h62.5Q748 796.9 750 767.6v-62.5q-2 -29.3 -31.2 -31.3h-62.5q-29.3 2 -31.3 31.3z"/></svg>