<svg height="1000" width="875" xmlns="http://www.w3.org/2000/svg"><path d="M187.5 -13.7v62.5 -62.5 62.5H93.8q-39.1 2 -66.5 27.4Q2 103.5 0 142.6v93.7h875v-93.7q-2 -39.1 -27.3 -66.4Q820.3 50.8 781.3 48.8h-93.8v-62.5q0 -27.3 -17.6 -44.9T625 -76.2t-44.9 17.6 -17.6 44.9v62.5h-250v-62.5q0 -27.3 -17.6 -44.9T250 -76.2t-44.9 17.6 -17.6 44.9zM875 298.8H0h875H0v531.3q2 39 27.3 66.4 27.4 25.4 66.5 27.3h687.5q39 -1.9 66.4 -27.3Q873 869.1 875 830.1V298.8zM437.5 408.2q43 3.9 46.9 46.9v109.4h109.4q42.9 3.9 46.8 46.8 -3.9 43 -46.8 46.9H484.4v109.4q-3.9 42.9 -46.9 46.9 -43 -4 -46.9 -46.9V658.2H281.3q-43 -3.9 -46.9 -46.9 3.9 -42.9 46.9 -46.8h109.3V455.1q3.9 -43 46.9 -46.9z"/></svg>