<svg height="1000" width="1000" xmlns="http://www.w3.org/2000/svg"><path d="M431.6 160.2l97.7 -48.9 -97.7 48.9 97.7 -48.9H875v187.5H650.4Q585.9 253.9 500 252q-85.9 1.9 -150.4 46.8H125v-125h250q29.3 0 56.6 -13.6zM0 173.8v562.5V173.8v562.5q2 52.8 37.1 87.9t87.9 37.1h750q52.7 -1.9 87.9 -37.1t37.1 -87.9v-625Q998 58.6 962.9 23.4T875 -13.7H529.3Q500 -13.7 474.6 0L375 48.8h-62.5V17.6q-2 -29.3 -31.2 -31.3h-125q-29.3 2 -31.3 31.3v31.2q-52.7 2 -87.9 37.1T0 173.8zm328.1 343.8q3.9 -97.7 86 -148.5 85.9 -46.8 171.8 0 82.1 50.8 86 148.5 -3.9 97.6 -86 148.4 -85.9 46.9 -171.8 0Q332 615.2 328.1 517.6z"/></svg>