<svg height="1000" width="1250" xmlns="http://www.w3.org/2000/svg"><path d="M416 50.8l-19.5 60.5L416 50.8l-19.5 60.5H250q-52.7 2 -87.9 37.1T125 236.3v500q2 52.8 37.1 87.9t87.9 37.1h750q52.7 -1.9 87.9 -37.1t37.1 -87.9v-500q-2 -52.7 -37.1 -87.9T1000 111.3H853.5L834 50.8Q810.5 -9.8 744.1 -13.7H505.9Q439.5 -9.8 416 50.8zm459 373q-2 29.3 -31.2 31.3H693.4q-19.6 -2 -21.5 -21.5 0 -9.8 5.8 -15.6l46.9 -46.9q-41 -41 -99.6 -41t-99.6 41l-39.1 39.1q-33.2 27.3 -66.4 0 -27.3 -33.2 0 -66.4L459 304.7q68.3 -66.4 166 -68.4 95.7 2 166 68.4l46.9 -46.9q5.9 -5.8 15.6 -5.8 19.5 1.9 21.5 21.4v150.4zm-500 125q2 -29.3 31.3 -31.2h150.3q19.6 1.9 21.5 21.5 0 9.7 -5.8 15.6l-46.9 46.9q41 41 99.6 41t99.6 -41l39.1 -39.1q33.2 -27.3 66.4 0 27.3 33.2 0 66.4L791 668q-68.3 66.4 -166 68.3Q529.3 734.4 459 668l-46.9 46.8q-5.8 5.9 -15.6 5.9Q377 718.8 375 699.2V548.8z"/></svg>