<svg height="1000" width="1125" xmlns="http://www.w3.org/2000/svg"><path d="M736.3 25.4Q752 3.9 750 -21.5q-3.9 -23.4 -23.4 -41 -21.5 -15.6 -46.9 -13.7 -23.4 3.9 -41 23.5L562.5 43l-76.2 -95.7q-17.5 -19.6 -41 -23.5 -25.4 -1.9 -46.9 13.7 -19.5 17.6 -23.4 41 -2 25.4 13.7 46.9l93.7 117.2 -459 572.2Q0 746.1 0 783.2v46.9q2 39 27.3 66.4 27.4 25.4 66.5 27.3h937.5q39 -1.9 66.4 -27.3 25.3 -27.4 27.3 -66.4v-46.9q0 -37.1 -23.4 -68.4l-459 -572.2L736.3 25.4zM562.5 798.8H330.1h232.4H330.1L562.5 494.1l234.4 304.7H562.5z"/></svg>