<svg height="1000" width="1000" xmlns="http://www.w3.org/2000/svg"><path d="M681.6 181.6q9.8 -7.8 23.5 -7.8 41 3.9 44.9 45v11.7q0 29.3 -25.4 46.8l-666 416.1Q13.7 722.7 3.9 771.5q-11.7 46.9 15.6 93.7 29.3 45 78.2 54.7 46.8 11.7 93.7 -15.6L855.5 490.2q68.3 -44.9 105.4 -111.3Q1000 310.5 1000 230.5v-11.7q-3.9 -125 -85.9 -209 -84 -82.1 -209 -86 -84 0 -156.3 44.9L496.1 2q-44.9 29.3 -54.7 78.1Q429.7 127 457 173.8q29.3 45 78.2 54.7 46.8 11.7 93.7 -15.6l52.7 -33.2v1.9zM582 21.5Q609.4 3.9 640.6 -3.9l39.1 119.1q-17.6 3.9 -31.3 11.8L623 142.6 582 21.5zM755.9 125l89.8 -91.8L755.9 125l89.8 -91.8q25.4 19.5 44.9 44.9L800.8 168q-15.6 -29.3 -44.9 -43zm56.6 115.2l119.1 39.1L812.5 240.2l119.1 39.1q-5.8 31.2 -19.5 60.5L791 298.8q17.6 -27.3 21.5 -58.6zm-168 160.2l117.2 74.2L644.5 400.4l117.2 74.2 -58.6 37.1L584 437.5l60.5 -37.1zM433.6 531.3l119.1 74.2L433.6 531.3l119.1 74.2 -58.6 37.1L375 568.4l58.6 -37.1zM232.4 658.2l119.2 72.3L232.4 658.2l119.2 72.3L293 767.6 173.8 695.3l58.6 -37.1z"/></svg>