<svg height="1000" width="1000" xmlns="http://www.w3.org/2000/svg"><path d="M500 -76.2q15.6 0 25.4 13.7 25.4 35.2 50.8 89.8Q603.5 84 623 150.4q21.5 78.1 19.6 164.1 33.2 -25.4 70.3 -45Q773.4 234.4 832 214.8q56.7 -21.4 99.6 -29.3 15.7 -1.9 27.4 7.9 11.7 13.6 9.8 29.3 -7.9 41 -29.3 99.6Q918 378.9 884.8 441.4q-27.4 46.9 -62.5 89.9 84 21.4 130.8 48.8 15.7 9.7 15.7 27.3 0 19.6 -15.7 27.4 -48.8 29.3 -136.7 50.7 -60.5 15.7 -126.9 9.8l15.6 64.5q3.9 19.5 -9.8 33.2 -15.6 11.7 -35.1 1.9L546.9 738.3V877Q543 919.9 500 923.8 457 919.9 453.1 877V738.3l-113.3 56.6q-19.5 7.8 -35.1 -3.9Q291 779.3 294.9 759.8l15.6 -64.5q-66.4 5.9 -126.9 -9.8Q95.7 664.1 46.9 634.8 31.3 625 31.3 607.4t15.6 -27.3q46.9 -27.4 130.8 -48.8 -35.1 -43 -62.5 -89.9Q82 378.9 60.5 322.3 39.1 263.7 31.3 222.7 29.3 207 41 193.4q11.7 -9.8 27.4 -7.9 42.9 7.9 99.6 29.3 58.6 19.6 119.1 54.7 37.1 19.6 70.3 45 -1.9 -86 19.6 -164.1Q396.5 84 423.8 27.3q25.4 -54.6 50.8 -89.8 9.8 -13.7 25.4 -13.7z"/></svg>