<svg height="1000" width="1125" xmlns="http://www.w3.org/2000/svg"><path d="M125 205.1q2 -39.1 27.3 -66.4 27.4 -25.4 66.5 -27.4 39 2 66.4 27.4 25.3 27.3 27.3 66.4v218.7H125V205.1zm-125 0v437.5V205.1v437.5q2 93.7 64.5 154.3 60.5 62.5 154.3 64.4 93.7 -1.9 154.2 -64.4 62.5 -60.6 64.5 -154.3V294.9q5.9 56.7 39.1 105.5l250 367.2q56.6 76.2 142.5 91.8t162.2 -37.1q76.1 -56.7 89.8 -144.6 15.6 -87.9 -35.2 -166L834 144.5Q779.3 68.4 693.4 52.7T529.3 89.8q-82 64.5 -91.8 162.2v-46.9Q435.5 111.3 373 50.8 312.5 -11.7 218.8 -13.7q-93.8 2 -154.3 64.5Q2 111.3 0 205.1zm580.1 125q-23.5 -35.2 -17.6 -74.2 7.8 -39.1 41 -64.5 31.3 -21.5 68.4 -15.6 35.1 5.8 60.5 39l130.9 191.5L707 515.6 580.1 330.1zM959 720.7q-2 2 -3.9 2l7.8 -3.9q-2 0 -3.9 1.9z"/></svg>