<svg height="1000" width="1250" xmlns="http://www.w3.org/2000/svg"><path d="M334 111.3h103.5H334h103.5v187.5H216.8l60.5 -148.4Q293 113.3 334 111.3zm197.3 187.5V111.3v187.5V111.3h158.2q29.3 0 48.8 23.5l130.8 164H531.3zm500 2L835.9 56.6l195.4 244.2L835.9 56.6Q779.3 -11.7 689.5 -13.7H334q-58.6 0 -105.5 33.2 -44.9 31.3 -68.3 84L80.1 306.6Q43 322.3 21.5 353.5 0 382.8 0 423.8v218.8q0 27.3 17.6 44.9t44.9 17.6H127q13.6 68.3 64.4 111.3t121.1 44.9q70.3 -1.9 121.1 -44.9T498 705.1h254q13.6 68.3 64.4 111.3t121.1 44.9q72.3 -1.9 121.1 -44.9 50.8 -43 64.4 -111.3h64.5q27.3 0 44.9 -17.6t17.6 -44.9v-93.8q-2 -97.6 -62.5 -166t-156.2 -82zM849.6 642.6q17.6 -50.8 70.3 -62.5 52.8 -7.8 89.9 31.2 33.2 43 15.6 93.8t-70.3 62.5q-52.8 7.8 -89.9 -31.3Q832 693.4 849.6 642.6zM312.5 580.1q52.7 1.9 82 46.9 23.5 46.8 0 93.7 -29.3 44.9 -82 46.9 -52.7 -2 -82 -46.9 -23.5 -46.9 0 -93.7 29.3 -45 82 -46.9z"/></svg>