<svg height="1000" width="1000" xmlns="http://www.w3.org/2000/svg"><path d="M500 -76.2q-140.6 2 -252 68.4Q134.8 58.6 68.4 171.9 2 283.2 0 423.8v375q2 52.8 37.1 87.9t87.9 37.1h84Q187.5 906.3 187.5 877V658.2q2 -64.4 54.7 -95.7l41 -125q11.7 -35.2 39.1 -54.7 29.3 -21.5 64.4 -21.5h226.6q35.1 0 64.4 21.5 27.4 19.5 39.1 54.7l41 125q52.7 31.3 54.7 95.7V877q0 29.3 -21.5 46.8h84q52.7 -1.9 87.9 -37.1t37.1 -87.9v-375Q998 283.2 931.6 171.9 865.2 58.6 752 -7.8 640.6 -74.2 500 -76.2zm209 1000Q687.5 906.3 687.5 877v-78.2h-375V877q0 29.3 -21.5 46.8h418zm-336 -457l-27.3 82 27.3 -82 -27.3 82h308.6l-27.3 -82q-4 -11.7 -13.7 -11.7H386.7q-9.7 0 -13.7 11.7zm-44.9 253.9q43 -3.9 46.9 -46.9Q371.1 630.9 328.1 627q-42.9 3.9 -46.8 46.8 3.9 43 46.8 46.9zm390.7 -46.9q-4 -42.9 -46.9 -46.8 -43 3.9 -46.9 46.8 3.9 43 46.9 46.9 42.9 -3.9 46.9 -46.9z"/></svg>