<svg height="1000" width="1000" xmlns="http://www.w3.org/2000/svg"><path d="M322.3 111.3h355.4H322.3h355.4q43 2 58.6 41l50.8 146.5H212.9l50.8 -146.5q15.6 -39 58.6 -41zm-175.8 0L78.1 308.6l68.4 -197.3L78.1 308.6Q43 322.3 21.5 353.5T0 423.8v156.3q3.9 72.2 62.5 107.4v111.3q0 27.4 17.6 45t44.9 17.5h62.5q27.3 0 44.9 -17.5t17.6 -45v-93.7h500v93.7q0 27.4 17.6 45t44.9 17.5H875q27.3 0 44.9 -17.5t17.6 -45V687.5q58.6 -35.2 62.5 -107.4V423.8q0 -39 -21.5 -70.3t-56.6 -44.9L853.5 111.3Q834 54.7 785.2 21.5 738.3 -13.7 677.7 -13.7H322.3q-60.6 0 -107.5 35.2Q166 54.7 146.5 111.3zm259.8 343.8h187.5H406.3h187.5Q623 457 625 486.3v62.5q-2 29.3 -31.2 31.3H406.3Q377 578.1 375 548.8v-62.5q2 -29.3 31.3 -31.2zM93.8 470.7q3.9 -43 46.8 -46.9h62.5q43 3.9 46.9 46.9 -3.9 43 -46.9 46.9h-62.5Q97.7 513.7 93.8 470.7zm703.1 -46.9h62.5 -62.5 62.5q42.9 3.9 46.9 46.9 -4 43 -46.9 46.9h-62.5q-43 -3.9 -46.9 -46.9 3.9 -43 46.9 -46.9z"/></svg>