<svg height="1000" width="1250" xmlns="http://www.w3.org/2000/svg"><path d="M343.8 -60.5q-21.5 0 -29.3 19.5l-56.7 144.5L109.4 58.6Q87.9 52.7 74.2 68.4q-11.7 17.5 -1.9 35.1l78.1 134.8L21.5 326.2Q3.9 339.8 7.8 359.4q5.9 19.5 27.4 23.4l152.3 23.5 -9.8 156.2q-1.9 21.5 17.6 31.3 17.6 7.8 33.2 -5.9l70.3 -64.5 17.6 -68.3 21.5 -76.2q27.3 -89.8 113.3 -117.2l80.1 -117.2q33.2 -46.8 83.9 -72.2 -1.9 -2 -1.9 -3.9Q599.6 52.7 580.1 58.6l-150.4 44.9L373 -41q-7.8 -19.5 -29.2 -19.5zm375 300.7l263.6 70.3L718.8 240.2l263.6 70.3q21.5 5.9 23.5 27.4l9.7 111.3L621.1 343.8 683.6 252q13.7 -17.6 35.2 -11.8zM582 181.6l-93.7 134.8L582 181.6l-93.7 134.8q-68.4 11.7 -89.9 80.1L377 470.7l-31.3 121.1 -17.6 60.5q-5.8 25.4 7.8 46.9 11.8 21.5 37.1 29.3l29.3 7.8q27.4 7.8 48.9 -5.8 21.5 -11.7 29.3 -37.1l15.6 -60.6 482.4 128.9 -15.6 60.6q-5.9 25.4 5.9 46.8 13.6 21.5 39 29.3l29.3 7.9q25.4 7.8 46.9 -5.9 21.5 -11.7 29.3 -37.1l17.6 -60.6 31.2 -121.1 19.5 -76.1q15.7 -70.3 -37.1 -113.3l-13.6 -164.1q-3.9 -50.8 -35.2 -87.9t-80.1 -50.7L750 119.1q-48.8 -13.6 -93.7 3.9 -45 15.7 -74.3 58.6zm-33.2 255.9q39.1 13.7 33.2 56.6 -15.6 41.1 -58.6 33.2 -39 -15.6 -33.2 -56.6 15.7 -41 58.6 -33.2zm425.8 162.1q5.9 -27.3 33.2 -35.1 25.4 -7.9 44.9 11.7 19.6 21.5 11.8 46.8 -15.7 41.1 -56.7 33.3 -41 -15.7 -33.2 -56.7z"/></svg>