<svg height="1000" width="1000" xmlns="http://www.w3.org/2000/svg"><path d="M546.9 -29.3Q543 -72.3 500 -76.2q-43 3.9 -46.9 46.9V127q3.9 42.9 46.9 46.8 43 -3.9 46.9 -46.8V-29.3zM363.3 361.3h273.4H363.3h273.4q21.5 2 29.3 21.5l37.1 103.5H296.9L334 382.8q7.8 -19.5 29.3 -21.5zM216.8 339.8l-56.6 154.3 56.6 -154.3 -56.6 154.3Q97.7 523.4 93.8 595.7v265.6q0 27.4 17.5 45t45 17.5h31.2q27.3 0 44.9 -17.5t17.6 -45v-62.5h500v62.5q0 27.4 17.6 45t44.9 17.5h31.3q27.3 0 44.9 -17.5t17.6 -45V595.7q-4 -72.3 -66.5 -101.6L785.2 339.8Q765.6 293 726.6 265.6q-39.1 -29.3 -89.9 -29.3H363.3q-50.8 0 -89.9 29.3 -39 27.4 -56.6 74.2zM250 595.7q43 3.9 46.9 46.9Q293 685.5 250 689.5q-43 -4 -46.9 -46.9 3.9 -43 46.9 -46.9zm453.1 46.9q3.9 -43 46.9 -46.9 43 3.9 46.9 46.9Q793 685.5 750 689.5q-43 -4 -46.9 -46.9zM76.2 0q-27.4 33.2 0 66.4l93.7 93.8q33.2 27.3 66.4 0 27.4 -33.2 0 -66.4L142.6 0Q109.4 -27.3 76.2 0zm781.2 0l-93.7 93.8L857.4 0l-93.7 93.8q-27.4 33.2 0 66.4 33.2 27.3 66.4 0l93.7 -93.8q27.4 -33.2 0 -66.4 -33.2 -27.3 -66.4 0z"/></svg>