<svg height="1000" width="1000" xmlns="http://www.w3.org/2000/svg"><path d="M156.3 111.3q0 -27.3 17.5 -44.9 17.6 -17.6 45 -17.6h125q27.3 0 44.9 17.6t17.6 44.9h187.5q0 -27.3 17.5 -44.9t45 -17.6h125q27.3 0 44.9 17.6t17.6 44.9H875q52.7 2 87.9 37.1t37.1 87.9v437.5q-2 52.8 -37.1 87.9T875 798.8H125Q72.3 796.9 37.1 761.7T0 673.8V236.3q2 -52.7 37.1 -87.9T125 111.3h31.3zM750 298.8q-2 -29.3 -31.2 -31.2 -29.3 1.9 -31.3 31.2v62.5H625q-29.3 2 -31.2 31.3 1.9 29.3 31.2 31.2h62.5v62.5q2 29.3 31.3 31.3 29.2 -2 31.2 -31.3v-62.5h62.5q29.3 -1.9 31.3 -31.2 -2 -29.3 -31.3 -31.3H750v-62.5zm-593.7 93.8q1.9 29.3 31.2 31.2H375q29.3 -1.9 31.3 -31.2 -2 -29.3 -31.3 -31.3H187.5q-29.3 2 -31.2 31.3z"/></svg>