<svg height="1000" width="1000" xmlns="http://www.w3.org/2000/svg"><path d="M263.7 152.3l-50.8 146.5 50.8 -146.5 -50.8 146.5h574.2L736.3 152.3q-15.6 -39 -58.6 -41H322.3q-43 2 -58.6 41zM78.1 308.6l68.4 -197.3L78.1 308.6l68.4 -197.3Q166 54.7 214.8 21.5q46.9 -35.2 107.5 -35.2h355.4q60.6 0 107.5 35.2 48.8 33.2 68.3 89.8l68.4 197.3q35.1 13.7 56.6 44.9t21.5 70.3v375q0 27.4 -17.6 45t-44.9 17.5H875q-27.3 0 -44.9 -17.5t-17.6 -45v-93.7h-625v93.7q0 27.4 -17.6 45T125 861.3H62.5q-27.3 0 -44.9 -17.5T0 798.8v-375q0 -39 21.5 -70.3t56.6 -44.9zM250 486.3q0 -27.3 -17.6 -44.9 -17.6 -17.6 -44.9 -17.6t-44.9 17.6T125 486.3t17.6 45 44.9 17.5 44.9 -17.5 17.6 -45zm562.5 62.5q27.3 0 44.9 -17.5 17.6 -17.6 17.6 -45t-17.6 -44.9 -44.9 -17.6 -44.9 17.6T750 486.3t17.6 45 44.9 17.5z"/></svg>