<svg height="1000" width="1250" xmlns="http://www.w3.org/2000/svg"><path d="M0 142.6Q2 76.2 44.9 31.3q44.9 -43 111.4 -45h656.2q132.8 3.9 220.7 91.8t91.8 220.7v312.5h62.5q27.3 0 44.9 17.6t17.6 44.9 -17.6 45 -44.9 17.5h-625q-2 80.1 -54.7 132.8T375 923.8q-80.1 -1.9 -132.8 -54.7T187.5 736.3h-31.2Q89.8 734.4 44.9 691.4 2 646.5 0 580.1V142.6zm625 468.7h250H625h250V423.8h-62.5q-29.3 -1.9 -31.2 -31.2 1.9 -29.3 31.2 -31.3H875v-125q0 -27.3 -17.6 -44.9t-44.9 -17.6h-125q-27.3 0 -44.9 17.6T625 236.3v375zM187.5 173.8q-27.3 0 -44.9 17.6Q125 209 125 236.3v125q0 27.4 17.6 45t44.9 17.5h250q27.3 0 44.9 -17.5t17.6 -45v-125q0 -27.3 -17.6 -44.9t-44.9 -17.6h-250zM375 830.1q52.7 -2 82 -46.9 23.5 -46.9 0 -93.7 -29.3 -45 -82 -46.9 -52.7 1.9 -82 46.9 -23.5 46.8 0 93.7 29.3 44.9 82 46.9z"/></svg>