<svg height="1000" width="1000" xmlns="http://www.w3.org/2000/svg"><path d="M677.7 -64.5q-15.6 17.6 -33.2 50.8Q627 19.5 625 64.5q0 56.6 21.5 89.8 19.5 33.2 56.6 66.4 33.2 37.1 66.4 56.6 33.2 21.5 89.9 21.5 44.9 -1.9 78.1 -19.5t50.8 -33.2q11.7 -9.8 11.7 -25.4t-11.7 -25.4q-17.6 -15.6 -54.7 -33.2t-89.8 -19.5q-45 1.9 -62.5 7.8l-15.7 7.8q2 2 7.8 -15.6 7.9 -15.6 7.9 -62.5 -2 -52.8 -19.6 -89.9t-33.2 -54.7q-9.7 -11.7 -25.4 -11.7t-25.4 11.7zm-199.2 254q-123 3.9 -199.2 93.7l117.2 119.1q19.5 21.5 0 43 -21.5 19.5 -43 0L246.1 337.9 3.9 857.4q-11.7 29.3 9.8 52.8 23.4 21.4 52.7 9.7l263.7 -123L228.5 695.3q-19.5 -21.5 0 -43 21.5 -19.5 43 0l119.1 117.2 195.3 -89.8Q654.3 646.5 693.4 584q41 -62.5 41 -138.7 -2 -107.4 -74.2 -181.6Q585.9 191.4 478.5 189.5z"/></svg>