<svg height="1000" width="1125" xmlns="http://www.w3.org/2000/svg"><path d="M0 -29.3q3.9 -43 46.9 -46.9h89.8q66.4 3.9 97.7 62.5h802.7q39.1 2 62.5 31.3 21.5 29.3 13.7 66.4l-80.1 298.8q-13.7 46.9 -50.8 74.2 -37.1 29.3 -85.9 29.3H334l9.8 56.7q9.7 35.1 46.8 37.1h562.5q43 3.9 46.9 46.9 -3.9 42.9 -46.9 46.8H390.6q-52.7 0 -89.8 -33.2Q261.7 609.4 252 560.5L150.4 31.3q-2 -13.7 -13.7 -13.7H46.9Q3.9 13.7 0 -29.3zm250 859.4q2 -52.8 46.9 -82.1 46.9 -23.4 93.7 0 44.9 29.3 46.9 82.1 -2 52.7 -46.9 82 -46.8 23.4 -93.7 0Q252 882.8 250 830.1zm656.3 -93.8q52.7 2 82 46.9 23.4 46.9 0 93.8 -29.3 44.9 -82 46.8Q853.5 921.9 824.2 877q-23.4 -46.9 0 -93.8 29.3 -44.9 82.1 -46.9zm-414.1 -500q3.9 35.2 39.1 39.1h85.9v85.9q3.9 35.2 39.1 39.1 35.1 -3.9 39 -39.1v-85.9h86q35.1 -3.9 39 -39.1 -3.9 -35.1 -39 -39h-86v-86q-3.9 -35.1 -39 -39 -35.2 3.9 -39.1 39v86h-85.9q-35.2 3.9 -39.1 39z"/></svg>