<svg height="1000" width="1125" xmlns="http://www.w3.org/2000/svg"><path d="M46.9 -76.2Q3.9 -72.3 0 -29.3q3.9 43 46.9 46.9h89.8q11.7 0 13.7 13.7L252 560.5q9.7 48.9 48.8 82.1 37.1 31.2 89.8 31.2h562.5q43 -3.9 46.9 -46.8 -3.9 -43 -46.9 -46.9H390.6q-37.1 -2 -46.8 -37.1L334 486.3h562.5q48.8 0 85.9 -29.3 37.1 -27.3 50.8 -74.2L1113.3 84q7.8 -37.1 -13.7 -66.4 -23.4 -29.3 -62.5 -31.3h-334v199.2L748 140.6q33.3 -27.3 66.5 0 27.3 33.2 0 66.4l-125 125q-33.2 27.4 -66.5 0L498 207q-27.3 -33.2 0 -66.4 33.3 -27.3 66.5 0l44.9 44.9V-13.7h-375q-29.3 -58.6 -97.7 -62.5H46.9zm296.9 1000q52.7 -1.9 82 -46.8 23.4 -46.9 0 -93.8 -29.3 -44.9 -82 -46.9 -52.8 2 -82.1 46.9 -23.4 46.9 0 93.8 29.3 44.9 82.1 46.8zM1000 830.1Q998 777.3 953.1 748q-46.8 -23.4 -93.7 0 -44.9 29.3 -46.9 82.1 2 52.7 46.9 82 46.9 23.4 93.7 0 44.9 -29.3 46.9 -82z"/></svg>