<svg height="1000" width="1250" xmlns="http://www.w3.org/2000/svg"><path d="M62.5 -76.2q-27.3 0 -44.9 17.6Q0 -41 0 -13.7t17.6 45 44.9 17.5h31.3q29.2 2 31.2 31.3v562.5q2 66.4 44.9 111.3 44.9 43 111.4 44.9h37.1q-5.9 15.7 -5.9 31.3 2 39 27.3 66.4 27.4 25.4 66.5 27.3 39 -1.9 66.4 -27.3Q498 869.1 500 830.1q0 -15.6 -5.9 -31.3h386.8q-5.9 15.7 -5.9 31.3 2 39 27.3 66.4 27.4 25.4 66.5 27.3 39 -1.9 66.4 -27.3 27.3 -27.4 27.3 -66.4 0 -15.6 -5.9 -31.3h130.9q27.3 0 44.9 -17.5t17.6 -45 -17.6 -44.9 -44.9 -17.6H281.3Q252 671.9 250 642.6V80.1Q248 13.7 205.1 -31.3 160.2 -74.2 93.8 -76.2H62.5zM375 80.1v375 -375 375q2 39 27.3 66.4 27.4 25.4 66.5 27.3h625q39 -1.9 66.4 -27.3 25.3 -27.4 27.3 -66.4v-375q-2 -39.1 -27.3 -66.4 -27.4 -25.4 -66.4 -27.4H906.3v281.3q0 17.6 -15.7 27.3Q873 302.7 857.4 293l-76.1 -50.8L705.1 293q-15.6 9.7 -31.3 1.9 -17.5 -9.7 -17.5 -27.3V-13.7H468.8q-39.1 2 -66.5 27.4Q377 41 375 80.1z"/></svg>