<svg height="1000" width="1250" xmlns="http://www.w3.org/2000/svg"><path d="M0 -13.7Q0 -41 17.6 -58.6q17.6 -17.6 44.9 -17.6h31.3q66.4 2 111.3 44.9Q248 13.7 250 80.1v562.5q2 29.3 31.3 31.2h906.2q27.3 0 44.9 17.6t17.6 44.9 -17.6 45 -44.9 17.5h-130.9q5.9 15.7 5.9 31.3 -2 39 -27.3 66.4 -27.4 25.4 -66.4 27.3 -39.1 -1.9 -66.5 -27.3Q877 869.1 875 830.1q0 -15.6 5.9 -31.3H494.1q5.9 15.7 5.9 31.3 -2 39 -27.3 66.4 -27.4 25.4 -66.4 27.3 -39.1 -1.9 -66.5 -27.3 -27.3 -27.4 -27.3 -66.4 0 -15.6 5.9 -31.3h-37.1q-66.5 -1.9 -111.4 -44.9Q127 709 125 642.6V80.1Q123 50.8 93.8 48.8H62.5q-27.3 0 -44.9 -17.5T0 -13.7zm843.8 125V33.2v78.1V33.2q-2 -13.7 -15.7 -15.6H671.9q-13.7 1.9 -15.6 15.6v78.1h187.5zm-281.3 0V33.2v78.1V33.2q2 -46.9 31.3 -78.1 31.2 -29.3 78.1 -31.3h156.2q46.9 2 78.2 31.3 29.2 31.2 31.2 78.1v515.6h-375V111.3zM1000 548.8V111.3v437.5V111.3h31.3q39 2 66.4 27.4 25.3 27.3 27.3 66.4v250q-2 39 -27.3 66.4 -27.4 25.4 -66.4 27.3H1000zM468.8 111.3H500h-31.2H500v437.5h-31.2q-39.1 -1.9 -66.5 -27.3Q377 494.1 375 455.1v-250q2 -39.1 27.3 -66.4 27.4 -25.4 66.5 -27.4z"/></svg>