<svg height="1000" width="1000" xmlns="http://www.w3.org/2000/svg"><path d="M125 -76.2q-27.3 0 -44.9 17.6Q62.5 -41 62.5 -13.7v125q0 27.4 17.6 45t44.9 17.5h156.3v62.5H169.9q-46.9 0 -82 29.3 -33.2 29.3 -41 76.2L2 634.8q-2 13.6 -2 27.3v136.7q2 52.8 37.1 87.9t87.9 37.1h750q52.7 -1.9 87.9 -37.1t37.1 -87.9V662.1q0 -13.7 -2 -27.3l-44.9 -293q-7.8 -46.9 -41 -76.2 -35.1 -29.3 -82 -29.3H406.3v-62.5h156.2q27.3 0 44.9 -17.5t17.6 -45v-125q0 -27.3 -17.6 -44.9t-44.9 -17.6H125zm62.5 93.8H500 187.5 500q29.3 1.9 31.3 31.2 -2 29.3 -31.3 31.3H187.5q-29.3 -2 -31.2 -31.3 1.9 -29.3 31.2 -31.2zm-62.5 750q2 -29.3 31.3 -31.3h687.5q29.2 2 31.2 31.3 -2 29.3 -31.2 31.2H156.3Q127 796.9 125 767.6zm93.8 -328.1q-43 -4 -46.9 -46.9 3.9 -43 46.9 -46.9 42.9 3.9 46.8 46.9 -3.9 42.9 -46.8 46.9zm234.3 -46.9q-3.9 42.9 -46.8 46.9 -43 -4 -46.9 -46.9 3.9 -43 46.9 -46.9 42.9 3.9 46.8 46.9zM312.5 595.7q-43 -3.9 -46.9 -46.9 3.9 -42.9 46.9 -46.8 43 3.9 46.9 46.8 -3.9 43 -46.9 46.9zM640.6 392.6q-3.9 42.9 -46.8 46.9 -43 -4 -46.9 -46.9 3.9 -43 46.9 -46.9 42.9 3.9 46.8 46.9zM500 595.7q-43 -3.9 -46.9 -46.9Q457 505.9 500 502q43 3.9 46.9 46.8 -3.9 43 -46.9 46.9zM828.1 392.6q-3.9 42.9 -46.8 46.9 -43 -4 -46.9 -46.9 3.9 -43 46.9 -46.9 42.9 3.9 46.8 46.9zM687.5 595.7q-43 -3.9 -46.9 -46.9 3.9 -42.9 46.9 -46.8 43 3.9 46.9 46.8 -3.9 43 -46.9 46.9z"/></svg>