<svg height="1000" width="1125" xmlns="http://www.w3.org/2000/svg"><path d="M625 298.8h33.2H625h33.2q33.2 56.7 89.8 89.9 56.7 35.1 127 35.1 33.2 0 62.5 -7.8v445.3q0 27.4 -17.6 45T875 923.8t-44.9 -17.5 -17.6 -45V585.9L546.9 798.8h109.4q27.3 0 44.9 17.6t17.6 44.9 -17.6 45 -44.9 17.5H375q-80.1 -1.9 -132.8 -54.7T187.5 736.3V300.8Q183.6 248 132.8 238.3l-15.6 -2q-25.4 -3.9 -41 -23.4T62.5 166q3.9 -25.4 23.4 -41t46.9 -13.7l15.6 2q72.3 11.7 117.2 62.5t46.9 125v166q50.8 -76.2 132.8 -121.1Q525.4 300.8 625 298.8zm312.5 52.8q-29.3 9.7 -62.5 9.7 -85.9 -1.9 -140.6 -62.5 -9.8 -11.7 -17.6 -25.4 -29.3 -44.9 -29.3 -99.6V-54.7q2 -19.5 21.5 -21.5 9.8 0 15.6 7.8l25.4 33.2 52.7 72.3 9.8 11.7h125l9.8 -11.7 52.7 -72.3 25.4 -33.2q5.9 -7.8 15.6 -7.8 19.5 2 21.5 21.5v228.5q0 50.8 -25.4 93.8 -33.2 58.6 -99.6 84zM843.8 173.8q-2 -29.3 -31.3 -31.2 -29.3 1.9 -31.2 31.2 1.9 29.3 31.2 31.3 29.3 -2 31.3 -31.3zm93.7 31.3q29.3 -2 31.3 -31.3 -2 -29.3 -31.3 -31.2 -29.3 1.9 -31.2 31.2 1.9 29.3 31.2 31.3z"/></svg>