<svg height="1000" width="750" xmlns="http://www.w3.org/2000/svg"><path d="M500 -13.7q0 -27.3 -17.6 -44.9 -17.6 -17.6 -44.9 -17.6t-44.9 17.6T375 -13.7v68.4q-136.7 25.4 -222.7 125Q64.5 281.3 62.5 423.8q2 142.6 89.8 244.2 86 99.6 222.7 125v68.3q0 27.4 17.6 45t44.9 17.5 44.9 -17.5 17.6 -45V793q91.8 -15.7 162.1 -68.4 21.5 -17.6 25.4 -43 2 -23.4 -11.7 -44.9 -17.6 -21.5 -41 -25.4 -25.4 -3.9 -46.9 11.7 -39.1 29.3 -87.9 43V181.6q48.8 11.8 87.9 43 21.5 13.7 46.9 11.7 23.4 -3.9 41 -25.4 13.7 -21.4 11.7 -46.8Q683.6 140.6 662.1 123 591.8 70.3 500 54.7v-68.4zM375 181.6V666 181.6 666Q293 644.5 240.2 578.1 189.5 513.7 187.5 423.8q2 -89.8 52.7 -154.3Q293 203.1 375 181.6z"/></svg>