<svg height="1000" width="750" xmlns="http://www.w3.org/2000/svg"><path d="M437.5 -76.2q27.3 0 44.9 17.6Q500 -41 500 -13.7v68.4q91.8 15.6 162.1 70.3 21.5 15.6 25.4 41 2 23.5 -11.7 44.9 -17.6 21.5 -41 25.4 -25.4 3.9 -46.9 -11.7Q523.4 175.8 437.5 173.8q-105.5 2 -177.7 72.3 -70.3 72.3 -72.3 177.7 2 105.5 72.3 177.8 72.2 70.3 177.7 72.2 85.9 -1.9 150.4 -50.8 21.5 -13.6 46.9 -11.7 23.4 3.9 41 25.4 13.7 21.5 11.7 46.9 -3.9 23.4 -25.4 41Q591.8 777.3 500 793v68.3q0 27.4 -17.6 45t-44.9 17.5 -44.9 -17.5 -17.6 -45V793Q238.3 767.6 152.3 668 64.5 566.4 62.5 423.8q2 -142.5 89.8 -244.1 86 -99.6 222.7 -125v-68.4q0 -27.3 17.6 -44.9t44.9 -17.6z"/></svg>