<svg height="1000" width="1000" xmlns="http://www.w3.org/2000/svg"><path d="M412.1 -62.5q-19.5 -17.6 -44.9 -11.7Q339.8 -66.4 334 -41L302.7 82 181.6 46.9Q154.3 41 134.8 58.6 117.2 78.1 123 105.5l35.2 121.1 -123 31.2Q9.8 263.7 2 291q-5.9 25.4 11.7 44.9l91.8 87.9 -91.8 87.9Q-3.9 531.3 2 556.6q7.8 27.4 33.2 35.2l123 29.3L123 742.2q-5.8 27.3 11.8 46.9 19.5 17.5 46.8 11.7l121.1 -35.2L334 888.7q5.8 25.4 33.2 33.2 25.4 5.8 44.9 -11.7L500 820.3l87.9 89.9q19.5 17.5 44.9 11.7 27.4 -7.8 35.2 -33.2l29.3 -123.1 121.1 35.2q27.3 5.8 46.8 -11.7 17.6 -19.6 11.8 -46.9L841.8 621.1l123 -29.3Q990.2 584 998 556.6q5.9 -25.3 -11.7 -44.9l-89.8 -87.9 89.8 -87.9Q1003.9 316.4 998 291q-7.8 -27.3 -33.2 -33.2l-123 -31.2L877 105.5q5.8 -27.4 -11.8 -46.9Q845.7 41 818.4 46.9L697.3 82 666 -41q-5.8 -25.4 -33.2 -33.2 -25.4 -5.9 -44.9 11.7L500 29.3l-87.9 -91.8z"/></svg>