<svg height="1000" width="875" xmlns="http://www.w3.org/2000/svg"><path d="M484.4 17.6v406.2V17.6v406.2h93.7V39.1q74.2 44.9 78.2 134.7v250H750v-250Q748 68.4 677.7 -3.9 605.5 -74.2 500 -76.2H375q-105.5 2 -177.7 72.3Q127 68.4 125 173.8v250h93.8v-250Q222.7 84 296.9 39.1v384.7h93.7V17.6h93.8zM93.8 486.3q-37.2 2 -56.7 35.2L5.9 584q-13.7 31.2 3.9 60.5 17.5 27.4 52.7 29.3v187.5q0 27.4 17.6 45t44.9 17.5 44.9 -17.5 17.6 -45V673.8h500v187.5q0 27.4 17.6 45t44.9 17.5 44.9 -17.5 17.6 -45V673.8q35.2 0 52.7 -29.3t3.9 -60.5l-31.2 -62.5q-19.5 -33.2 -56.6 -35.2H93.8z"/></svg>