<svg height="1000" width="1250" xmlns="http://www.w3.org/2000/svg"><path d="M312.5 48.8q2 -52.7 37.1 -87.9 35.2 -35.1 87.9 -37.1H1125q52.7 2 87.9 37.1t37.1 87.9v562.5q-2 52.8 -37.1 87.9t-87.9 37.1H658.2Q623 660.2 554.7 611.3H750v-62.5q0 -27.3 17.6 -44.9t44.9 -17.6h125q27.3 0 44.9 17.6t17.6 44.9v62.5h125V48.8H437.5v95.7q-56.6 -33.2 -125 -33.2V48.8zm0 125q50.8 0 93.8 25.4 42.9 25.4 68.3 68.4 25.4 44.9 25.4 93.7t-25.4 93.8q-25.4 42.9 -68.3 68.3t-93.8 25.4 -93.7 -25.4 -68.4 -68.3Q125 410.2 125 361.3t25.4 -93.7q25.4 -43 68.4 -68.4t93.7 -25.4zm-52.7 437.5h105.4H259.8h105.4q109.4 2 183.6 76.2T625 871.1q-3.9 48.8 -52.7 52.7H52.7Q3.9 919.9 0 871.1 2 761.7 76.2 687.5t183.6 -76.2z"/></svg>