<svg height="1000" width="1250" xmlns="http://www.w3.org/2000/svg"><path d="M304.7 -43q27.3 -42.9 76.2 -29.3L625 17.6l244.1 -89.9Q918 -85.9 945.3 -43l154.3 298.9q41 83.9 19.5 169.9 -21.4 84 -93.7 136.7l60.5 168 80.1 -29.3q25.4 -7.8 48.8 1.9 21.5 9.8 31.3 35.2 7.8 25.4 -2 48.8 -9.7 21.5 -35.1 31.3l-138.7 50.7 -138.7 50.8q-25.3 7.8 -48.8 -1.9 -21.5 -9.8 -31.2 -35.2t1.9 -48.8q9.8 -21.5 35.2 -31.3l80.1 -29.3L908.2 605.5q-89.8 5.8 -160.2 -45Q675.8 509.8 654.3 419.9L625 293l-29.3 126.9q-21.5 89.9 -91.8 140.6 -72.3 50.8 -162.1 45l-60.5 167.9 80 29.3q25.4 9.8 35.2 31.3 11.7 23.4 1.9 48.8T367.2 918q-23.4 9.7 -48.8 1.9L179.7 869.1 41 818.4Q15.6 808.6 5.9 787.1q-9.8 -23.4 -2 -48.8 9.8 -23.5 33.2 -35.2 21.5 -9.7 46.9 -1.9l80.1 29.3 60.5 -168Q152.3 509.8 130.9 425.8q-21.5 -86 19.5 -169.9L304.7 -43zm85.9 107.5L335.9 168 390.6 64.5 335.9 168l175.8 62.5 25.4 -113.3L390.6 64.5zm470.7 0l-148.4 52.7L861.3 64.5l-148.4 52.7 27.3 113.3L914.1 168 861.3 64.5z"/></svg>