<svg height="1000" width="875" xmlns="http://www.w3.org/2000/svg"><path d="M312.5 80.1q2 -39.1 27.3 -66.4 27.4 -25.4 66.5 -27.4h62.5q39 2 66.4 27.4 25.3 27.3 27.3 66.4v687.5q-2 39 -27.3 66.4 -27.4 25.4 -66.4 27.3h-62.5Q367.2 859.4 339.8 834q-25.3 -27.4 -27.3 -66.4V80.1zM0 455.1Q2 416 27.3 388.7q27.4 -25.4 66.5 -27.4h62.5q39 2 66.4 27.4Q248 416 250 455.1v312.5q-2 39 -27.3 66.4 -27.4 25.4 -66.4 27.3H93.8Q54.7 859.4 27.3 834 2 806.6 0 767.6V455.1zM718.8 111.3h62.5 -62.5 62.5q39 2 66.4 27.4Q873 166 875 205.1v562.5q-2 39 -27.3 66.4 -27.4 25.4 -66.4 27.3h-62.5Q679.7 859.4 652.3 834 627 806.6 625 767.6V205.1q2 -39.1 27.3 -66.4 27.4 -25.4 66.5 -27.4z"/></svg>