<svg height="1000" width="1125" xmlns="http://www.w3.org/2000/svg"><path d="M187.5 -76.2q-52.7 2 -87.9 37.1Q64.5 -3.9 62.5 48.8v750q-27.3 0 -44.9 17.6T0 861.3t17.6 45 44.9 17.5H625q27.3 0 44.9 -17.5t17.6 -45 -17.6 -44.9T625 798.8V517.6h31.3q33.2 0 54.6 23.4 23.5 21.5 23.5 54.7v62.5q1.9 60.6 41 99.6t99.6 41q60.5 -1.9 99.6 -41t41 -99.6V416q48.9 -15.6 78.2 -54.7 31.2 -41 31.2 -93.7v-62.5q-2 -29.3 -31.2 -31.3h-31.3V80.1q-2 -29.3 -31.2 -31.3 -29.3 2 -31.3 31.3v93.7h-62.5V80.1q-2 -29.3 -31.2 -31.3Q877 50.8 875 80.1v93.7h-31.2q-29.3 2 -31.3 31.3v62.5q0 52.7 31.3 93.7 29.2 39.1 78.1 54.7v242.2q-3.9 43 -46.9 46.9 -43 -3.9 -46.9 -46.9v-62.5q-1.9 -72.3 -50.8 -121.1t-121 -50.8H625v-375q-2 -52.7 -37.1 -87.9T500 -76.2H187.5zM423.8 85.9q17.6 13.7 11.7 35.2l-48.8 146.5H500q21.5 0 29.3 19.5 5.9 19.5 -9.8 35.2L300.8 509.8q-17.6 13.6 -37.1 1.9Q246.1 498 252 476.6l48.8 -146.5H187.5q-21.5 -2 -29.3 -19.6 -5.9 -21.4 9.8 -35.1L386.7 87.9q17.6 -13.7 37.1 -2z"/></svg>