<svg height="1000" width="1000" xmlns="http://www.w3.org/2000/svg"><path d="M125 48.8Q125 21.5 107.4 3.9 89.8 -13.7 62.5 -13.7T17.6 3.9 0 48.8v656.3q2 66.4 44.9 111.3 44.9 43 111.4 44.9h781.2q27.3 0 44.9 -17.5t17.6 -45 -17.6 -44.9 -44.9 -17.6H156.3Q127 734.4 125 705.1V48.8zm187.5 562.5H875 312.5 875q27.3 0 44.9 -17.5t17.6 -45V416q0 -23.4 -15.6 -41l-127 -150.4Q775.4 205.1 748 203.1q-25.3 0 -44.9 17.6l-41 41q-15.6 15.6 -35.1 13.7 -21.5 0 -35.2 -15.6L515.6 168q-19.5 -23.5 -46.8 -23.5T419.9 166L265.6 343.8q-15.6 17.5 -15.6 41v164q0 27.4 17.6 45t44.9 17.5z"/></svg>