<svg height="1000" width="1000" xmlns="http://www.w3.org/2000/svg"><path d="M62.5 -13.7q27.3 0 44.9 17.6Q125 21.5 125 48.8v656.3q2 29.3 31.3 31.2h781.2q27.3 0 44.9 17.6t17.6 44.9 -17.6 45 -44.9 17.5H156.3Q89.8 859.4 44.9 816.4 2 771.5 0 705.1V48.8Q0 21.5 17.6 3.9t44.9 -17.6zm250 375q27.3 0 44.9 17.6 17.6 17.6 17.6 44.9v125q0 27.4 -17.6 45t-44.9 17.5 -44.9 -17.5 -17.6 -45v-125q0 -27.3 17.6 -44.9t44.9 -17.6zm250 -125v312.5V236.3v312.5q0 27.4 -17.6 45T500 611.3t-44.9 -17.5 -17.6 -45V236.3q0 -27.3 17.6 -44.9T500 173.8t44.9 17.6 17.6 44.9zm125 62.5q27.3 0 44.9 17.6Q750 334 750 361.3v187.5q0 27.4 -17.6 45t-44.9 17.5 -44.9 -17.5 -17.6 -45V361.3q0 -27.3 17.6 -44.9t44.9 -17.6zm250 -187.5v437.5V111.3v437.5q0 27.4 -17.6 45T875 611.3t-44.9 -17.5 -17.6 -45V111.3q0 -27.3 17.6 -44.9T875 48.8t44.9 17.6 17.6 44.9z"/></svg>