<svg height="1000" width="1125" xmlns="http://www.w3.org/2000/svg"><path d="M187.5 80.1q2 -39.1 27.3 -66.4 27.4 -25.4 66.5 -27.4h562.5q39 2 66.4 27.4 25.3 27.3 27.3 66.4v593.7h-750V80.1zm611.3 91.8q-33.2 -27.4 -66.4 0L515.6 388.7l-91.8 -91.8q-33.2 -27.4 -66.4 0 -27.3 33.2 0 66.4l125 125q33.2 27.3 66.4 0l250 -250q27.4 -33.2 0 -66.4zM0 580.1Q2 541 27.3 513.7q27.4 -25.4 66.5 -27.4H125v250h875v-250h31.3q39 2 66.4 27.4 25.3 27.3 27.3 66.4v187.5q-2 39 -27.3 66.4 -27.4 25.4 -66.4 27.3H93.8Q54.7 859.4 27.3 834 2 806.6 0 767.6V580.1z"/></svg>