<svg height="1000" width="875" xmlns="http://www.w3.org/2000/svg"><path d="M669.9 93.8q17.6 -19.6 17.6 -45T669.9 3.9Q650.4 -13.7 625 -13.7T580.1 3.9L312.5 273.4 201.2 160.2q-19.6 -17.6 -44.9 -17.6t-45 17.6q-17.5 19.5 -17.5 44.9t17.5 44.9l156.3 156.3q19.5 17.5 44.9 17.5t44.9 -17.5L669.9 93.8zm187.5 250q17.6 -19.6 17.6 -45t-17.6 -44.9q-19.5 -17.6 -44.9 -17.6t-44.9 17.6l-455.1 457 -205.1 -207Q87.9 486.3 62.5 486.3t-44.9 17.6Q0 523.4 0 548.8t17.6 45l250 250q19.5 17.5 44.9 17.5t44.9 -17.5l500 -500z"/></svg>