<svg height="1000" width="625" xmlns="http://www.w3.org/2000/svg"><path d="M421.9 361.3q42.9 -27.3 68.3 -72.2 25.4 -45 25.4 -99.6Q513.7 103.5 457 44.9 398.4 -11.7 312.5 -13.7q-85.9 2 -144.5 58.6 -56.7 58.6 -58.6 144.6 0 54.6 25.4 99.6t70.3 72.2h-17.6q-27.3 0 -44.9 17.6T125 423.8q3.9 52.8 56.6 62.5l-25.3 218.8h312.5L445.3 486.3q50.8 -9.7 54.7 -62.5 0 -27.3 -17.6 -44.9t-44.9 -17.6h-15.6zm-377 486.4q-13.6 13.6 -13.6 31.2 3.9 41 44.9 44.9h472.6q41 -3.9 45 -44.9 0 -17.6 -13.7 -31.2L500 767.6H125l-80.1 80.1z"/></svg>