<svg height="1000" width="875" xmlns="http://www.w3.org/2000/svg"><path d="M437.5 -76.2q27.3 0 44.9 17.6Q500 -41 500 -13.7v31.3h31.3q27.3 0 44.9 17.6t17.6 44.9T576.2 125t-44.9 17.6H500v93.7h296.9q33.2 0 54.7 23.5 23.4 21.5 23.4 54.7 0 15.6 -5.9 29.3L718.8 705.1H156.3L5.9 343.8Q0 330.1 0 314.5q0 -33.2 23.4 -54.7 21.5 -23.5 54.7 -23.5H375v-93.7h-31.2q-27.4 0 -45 -17.6T281.3 80.1t17.5 -44.9 45 -17.6H375v-31.3q0 -27.3 17.6 -44.9t44.9 -17.6zM76.2 847.7l80.1 -80.1 -80.1 80.1 80.1 -80.1h562.5l80 80.1q13.7 13.6 13.7 31.2 -3.9 41 -44.9 44.9H107.4q-41 -3.9 -44.9 -44.9 0 -17.6 13.7 -31.2z"/></svg>