<svg height="1000" width="875" xmlns="http://www.w3.org/2000/svg"><path d="M187.5 17.6L162.1 43l25.4 -25.4L162.1 43Q125 80.1 125 132.8v257.8q0 33.2 27.3 52.8l21.5 13.6q45 27.4 93.8 5.9l5.8 -3.9q7.9 -3.9 13.7 -9.8L384.8 377q21.5 -13.7 42.9 0 15.7 13.6 15.7 31.2 -2 17.6 -17.6 29.3l-250 169.9Q127 642.6 125 705.1h625l56.6 -310.6q5.9 -33.2 5.9 -66.4v-29.3Q808.6 138.7 703.1 33.2T437.5 -76.2H164.1q-35.2 3.9 -39.1 39.1 0 23.4 21.5 35.1l41 19.6zm46.9 132.8q3.9 -35.2 39 -39.1 35.2 3.9 39.1 39.1 -3.9 35.1 -39.1 39.1 -35.1 -4 -39 -39.1zM44.9 847.7q-13.6 13.6 -13.6 31.2 3.9 41 44.9 44.9h722.6q41 -3.9 45 -44.9 0 -17.6 -13.7 -31.2L750 767.6H125l-80.1 80.1z"/></svg>