<svg height="1000" width="1000" xmlns="http://www.w3.org/2000/svg"><path d="M281.3 -44.9q-2 -29.3 -31.3 -31.3 -29.3 2 -31.2 31.3v31.2h-31.3q-29.3 2 -31.2 31.3 1.9 29.3 31.2 31.2h31.3v62.5H117.2Q82 115.2 78.1 150.4q0 7.8 2 15.6l64.4 164.1h-3.9Q97.7 334 93.8 377q3.9 42.9 46.8 46.8h7.8l-31.2 250h265.6l-31.2 -250h7.8q42.9 -3.9 46.9 -46.8 -4 -43 -46.9 -46.9h-3.9L419.9 166q2 -7.8 2 -15.6Q418 115.2 382.8 111.3H281.3V48.8h31.2q29.3 -1.9 31.3 -31.2 -2 -29.3 -31.3 -31.3h-31.2v-31.2zM93.8 736.3l-84 113.3 84 -113.3 -84 113.3Q0 861.3 0 877q3.9 42.9 46.9 46.8h406.2q43 -3.9 46.9 -46.8 0 -15.7 -9.8 -27.4L406.3 736.3H93.8zm562.5 0l-84 113.3 84 -113.3 -84 113.3q-9.8 11.7 -9.8 27.4 3.9 42.9 46.9 46.8h343.7q43 -3.9 46.9 -46.8 0 -15.7 -9.8 -27.4L906.3 736.3h-250zM593.8 330.1v101.5V330.1v101.5q0 23.5 15.6 41.1l52.7 60.5 -3.9 140.6h246.1l-7.8 -140.6 56.6 -60.5q15.7 -17.6 15.7 -41.1V330.1q-2 -29.3 -31.3 -31.3h-31.2q-29.3 2 -31.3 31.3v31.2h-46.9v-31.2q-1.9 -29.3 -31.2 -31.3h-31.3q-29.3 2 -31.2 31.3v31.2h-46.9v-31.2q-2 -29.3 -31.2 -31.3H625q-29.3 2 -31.2 31.3zM750 517.6q2 -29.3 31.3 -31.3 29.2 2 31.2 31.3v62.5H750v-62.5z"/></svg>