<svg height="1000" width="875" xmlns="http://www.w3.org/2000/svg"><path d="M125 -13.7q-52.7 2 -87.9 37.1Q2 58.6 0 111.3v625q2 52.8 37.1 87.9t87.9 37.1h625q52.7 -1.9 87.9 -37.1T875 736.3v-625Q873 58.6 837.9 23.4T750 -13.7H125zm125 125v125 -125 125h125v-125h125v125h125v-125h125v125H625v125h125v125H625v125h125v125H625v-125H500v125H375v-125H250v125H125v-125h125v-125H125v-125h125v-125H125v-125h125zm125 250h125H375h125v-125H375v125zm0 125v-125 125 -125H250v125h125zm125 0H375h125H375v125h125v-125zm0 0h125H500h125v-125H500v125z"/></svg>