<svg height="1000" width="875" xmlns="http://www.w3.org/2000/svg"><path d="M62.5 298.8V17.6v281.2V17.6q2 -29.3 31.3 -31.3h125q29.2 2 31.2 31.3v78.1q2 13.7 15.6 15.6h62.5q13.7 -1.9 15.7 -15.6V17.6q1.9 -29.3 31.2 -31.3h125q29.3 2 31.3 31.3v78.1q1.9 13.7 15.6 15.6h62.5Q623 109.4 625 95.7V17.6q2 -29.3 31.3 -31.3h125q29.2 2 31.2 31.3v281.2q0 31.3 -25.4 50.8l-99.6 74.2 31.3 281.3H156.3l31.2 -281.3L87.9 349.6Q62.5 330.1 62.5 298.8zm343.8 187.5h62.5 -62.5 62.5Q498 484.4 500 455.1v-93.8q0 -27.3 -17.6 -44.9t-44.9 -17.6 -44.9 17.6T375 361.3v93.8q2 29.3 31.3 31.2zM44.9 847.7L125 767.6l-80.1 80.1L125 767.6h625l80.1 80.1q13.7 13.6 13.7 31.2 -4 41 -45 44.9H76.2q-41 -3.9 -44.9 -44.9 0 -17.6 13.6 -31.2z"/></svg>