<svg height="1000" width="1000" xmlns="http://www.w3.org/2000/svg"><path d="M500 -76.2q62.5 2 93.8 54.7 31.2 54.7 0 109.4 -31.3 52.7 -93.8 54.7 -62.5 -2 -93.7 -54.7 -31.3 -54.7 0 -109.4 31.2 -52.7 93.7 -54.7zM261.7 205.1q11.7 -43 58.6 -46.9 39.1 2 54.7 33.2 39.1 72.3 125 76.2 85.9 -3.9 125 -76.2 15.6 -31.2 54.7 -33.2 46.9 3.9 58.6 46.9 11.7 41 43 66.4 33.2 27.3 78.1 27.3 31.2 0 58.6 -13.6 25.4 -13.7 52.7 1.9 19.5 11.7 25.4 33.2 3.9 19.5 -5.9 41L781.3 705.1H218.8L9.8 361.3Q0 339.8 3.9 320.3q5.9 -21.5 25.4 -33.2Q56.6 271.5 82 285.2q27.4 13.6 58.6 13.6 44.9 0 78.2 -27.3 31.2 -25.4 42.9 -66.4zM500 361.3zM218.8 767.6h562.5H218.8h562.5l80 80.1q13.7 13.6 13.7 31.2 -3.9 41 -44.9 44.9H169.9q-41 -3.9 -44.9 -44.9 0 -17.6 13.7 -31.2l80.1 -80.1z"/></svg>