<svg height="1000" width="625" xmlns="http://www.w3.org/2000/svg"><path d="M250 -76.2q-27.3 0 -44.9 17.6 -17.6 17.6 -17.6 44.9 3.9 50.8 52.7 62.5Q169.9 113.3 95.7 226.6 21.5 341.8 15.6 486.3q2 68.4 37.1 107.5 33.2 41 72.3 58.5v52.8h375v-52.8q39.1 -17.5 72.3 -58.5 35.1 -39.1 37.1 -107.5Q607.4 377 560.5 283.2L365.2 476.6q-21.4 19.5 -42.9 0 -19.6 -21.5 0 -43l207 -207Q455.1 113.3 384.8 48.8q48.8 -11.7 52.7 -62.5 0 -27.3 -17.6 -44.9T375 -76.2H250zM93.8 767.6l-80.1 80.1 80.1 -80.1 -80.1 80.1Q0 861.3 0 878.9q3.9 41 44.9 44.9h535.2q41 -3.9 44.9 -44.9 0 -17.6 -13.7 -31.2l-80 -80.1H93.8z"/></svg>