<svg height="1000" width="1125" xmlns="http://www.w3.org/2000/svg"><path d="M343.8 173.8q70.3 -1.9 107.4 -62.5 35.1 -62.5 0 -125Q414.1 -74.2 343.8 -76.2q-70.4 2 -107.5 62.5 -35.1 62.5 0 125 37.1 60.6 107.5 62.5zm-15.7 687.5v-250 250 -250h31.3v250q0 27.4 17.6 45t44.9 17.5 44.9 -17.5 17.6 -45V511.7l25.4 39.1q13.6 21.5 39 27.3 23.5 5.9 46.9 -7.8 21.5 -15.6 27.3 -39t-7.8 -46.9L513.7 324.2Q457 238.3 355.5 236.3H332q-101.5 2 -158.2 87.9L72.3 484.4q-13.7 23.4 -7.8 46.9 5.8 25.3 27.3 39 23.4 13.7 46.9 7.8t39 -27.3l25.4 -39.1v349.6q0 27.4 17.6 45t44.9 17.5 44.9 -17.5 17.6 -45zM875 -76.2h-31.2H875h-62.5q-29.3 2 -31.2 31.3 1.9 29.3 31.2 31.2v195.3q-29.3 17.6 -31.2 54.7v62.5q-27.4 0 -45 17.6t-17.5 44.9v281.3q0 27.3 17.5 44.9t45 17.6h31.2v187.5q2 29.3 31.3 31.2h117.1q33.2 -3.9 29.3 -39L945.3 705.1h86q29.2 -2 31.2 -31.3v-31.2q-2 -29.3 -31.2 -31.3h-93.8v-52.7L1041 525.4q19.5 -7.8 21.5 -31.3v-164q-2 -29.3 -31.2 -31.3H1000q-29.3 2 -31.2 31.3v109.4l-31.3 9.7V236.3q-2 -37.1 -31.2 -54.7V-44.9q-2 -29.3 -31.3 -31.3z"/></svg>