<svg height="1000" width="625" xmlns="http://www.w3.org/2000/svg"><path d="M437.5 48.8q-2 -70.3 -62.5 -107.4 -62.5 -35.2 -125 0 -60.5 37.1 -62.5 107.4 2 70.3 62.5 107.5 62.5 35.1 125 0 60.5 -37.2 62.5 -107.5zM171.9 705.1v156.2V705.1v156.2q0 27.4 17.6 45t44.9 17.5 44.9 -17.5 17.6 -45V705.1h31.2v156.2q0 27.4 17.6 45t44.9 17.5 44.9 -17.5 17.6 -45V705.1h35.2q15.6 0 25.4 -13.7 7.8 -11.7 3.9 -27.3L457 482.4l56.7 72.3q15.6 21.5 41 25.4 23.4 1.9 44.9 -11.7 21.5 -17.6 25.4 -43 2 -23.4 -11.7 -44.9L498 328.1Q425.8 238.3 312.5 236.3q-113.3 2 -185.5 91.8L13.7 480.5Q-2 502 0 525.4q3.9 25.4 25.4 43 21.5 13.6 44.9 11.7 25.4 -3.9 43 -25.4L168 482.4l-60.6 181.7q-3.9 15.6 3.9 27.3 9.8 13.7 25.4 13.7h35.2z"/></svg>