<svg height="1000" width="750" xmlns="http://www.w3.org/2000/svg"><path d="M500 48.8q-2 -70.3 -62.5 -107.4 -62.5 -35.2 -125 0Q252 -21.5 250 48.8q2 70.3 62.5 107.5 62.5 35.1 125 0Q498 119.1 500 48.8zM298.8 253.9Q226.6 228.5 183.6 166l-37.1 -58.6Q130.9 85.9 105.5 82 82 76.2 58.6 89.8q-21.5 15.7 -25.4 41.1 -5.9 23.4 7.8 46.8l39.1 56.7q54.7 80.1 138.7 121.1v505.8q0 27.4 17.5 45t45 17.5 44.9 -17.5 17.6 -45V673.8h62.5v187.5q0 27.4 17.5 45t45 17.5 44.9 -17.5 17.6 -45V357.4q85.9 -42.9 142.5 -126.9L709 177.7q13.7 -23.4 7.8 -48.8 -3.9 -23.4 -25.4 -39.1Q668 76.2 642.6 82q-23.5 3.9 -39.1 27.4l-35.1 52.7q-33.2 50.8 -84 78.1Q435.5 267.6 375 267.6q-37.1 0 -70.3 -11.7h-2q-1.9 0 -3.9 -2z"/></svg>