<svg height="1000" width="1250" xmlns="http://www.w3.org/2000/svg"><path d="M312.5 -76.2q70.3 2 107.4 62.5 35.2 62.5 0 125 -37.1 60.6 -107.4 62.5 -70.3 -1.9 -107.4 -62.5 -35.2 -62.5 0 -125 37.1 -60.5 107.4 -62.5zM171.9 861.3V705.1v156.2V705.1h-35.2q-15.6 0 -25.4 -13.7 -7.8 -11.7 -3.9 -27.3L168 482.4l-54.7 72.3q-17.6 21.5 -43 25.4Q46.9 582 25.4 568.4 3.9 550.8 0 525.4 -2 502 13.7 480.5L127 328.1q72.2 -89.8 185.5 -91.8 113.3 2 185.5 91.8l115.3 152.4Q627 502 625 525.4q-3.9 25.4 -25.4 43 -21.5 13.6 -44.9 11.7 -25.4 -3.9 -41 -25.4L457 482.4l60.6 181.7q3.9 15.6 -3.9 27.3 -9.8 13.7 -25.4 13.7h-35.2v156.2q0 27.4 -17.6 45t-44.9 17.5 -44.9 -17.5 -17.6 -45V705.1h-31.2v156.2q0 27.4 -17.6 45t-44.9 17.5 -44.9 -17.5 -17.6 -45zM937.5 -76.2q70.3 2 107.4 62.5 35.2 62.5 0 125 -37.1 60.6 -107.4 62.5 -70.3 -1.9 -107.4 -62.5 -35.2 -62.5 0 -125 37.1 -60.5 107.4 -62.5zm-15.6 750v187.5V673.8v187.5q0 27.4 -17.6 45t-44.9 17.5 -44.9 -17.5 -17.6 -45V511.7l-25.4 39.1q-13.7 21.5 -39.1 27.3Q709 584 685.5 570.3q-21.4 -15.6 -27.3 -39t7.8 -46.9L767.6 324.2q56.6 -85.9 158.2 -87.9h23.4q101.6 2 158.2 87.9L1209 484.4q13.7 23.4 7.8 46.9 -5.9 25.3 -27.3 39 -23.5 13.7 -46.9 7.8t-39.1 -27.3l-25.4 -39.1v349.6q0 27.4 -17.6 45t-44.9 17.5 -44.9 -17.5 -17.6 -45V673.8h-31.2z"/></svg>