<svg height="1000" width="625" xmlns="http://www.w3.org/2000/svg"><path d="M187.5 48.8q2 -70.3 62.5 -107.4 62.5 -35.2 125 0 60.5 37.1 62.5 107.4 -2 70.3 -62.5 107.5 -62.5 35.1 -125 0Q189.5 119.1 187.5 48.8zm93.8 625v187.5V673.8v187.5q0 27.4 -17.6 45t-44.9 17.5 -45 -17.5 -17.5 -45v-375l-41.1 64.5q-13.6 21.5 -39 27.3Q52.7 584 29.3 570.3 7.8 554.7 2 531.3t7.8 -46.9L87.9 361.3q37.1 -58.6 95.7 -91.8t128.9 -33.2 128.9 33.2 95.7 91.8l78.1 123.1q13.7 23.4 7.8 46.9 -5.8 25.3 -27.3 39 -23.4 13.7 -46.9 7.8t-39 -27.3l-41 -64.5v375q0 27.4 -17.6 45t-44.9 17.5 -45 -17.5 -17.5 -45V673.8h-62.5z"/></svg>