<svg height="1000" width="1250" xmlns="http://www.w3.org/2000/svg"><path d="M671.9 -29.3Q668 -72.3 625 -76.2q-43 3.9 -46.9 46.9v46.9h-62.5q-42.9 3.9 -46.8 46.9 3.9 42.9 46.8 46.8h62.5v89.9L357.4 334q-42.9 27.3 -44.9 80.1v509.7H500V736.3q2 -52.7 37.1 -87.9T625 611.3q52.7 2 87.9 37.1t37.1 87.9v187.5h187.5V414.1q-2 -52.8 -44.9 -80.1L671.9 201.2v-89.9h62.5q42.9 -3.9 46.9 -46.8 -4 -43 -46.9 -46.9h-62.5v-46.9zM48.8 568.4Q2 597.7 0 650.4v179.7q2 39 27.3 66.4 27.4 25.4 66.5 27.3H250V459L48.8 568.4zm1107.5 355.4q39 -1.9 66.4 -27.3 25.3 -27.4 27.3 -66.4V650.4q-2 -52.7 -48.8 -82L1000 459v464.8h156.3z"/></svg>