<svg height="1000" width="1000" xmlns="http://www.w3.org/2000/svg"><path d="M435.5 -13.7q5.9 25.4 -5.8 46.9Q418 56.6 392.6 64.5 275.4 101.6 201.2 197.3 127 294.9 125 423.8q3.9 160.2 109.4 265.7T500 798.8q160.2 -3.9 265.6 -109.3T875 423.8Q873 294.9 798.8 197.3 726.6 101.6 607.4 64.5 582 56.6 570.3 33.2q-11.7 -21.5 -5.8 -46.9 9.7 -25.4 31.2 -37.1t46.9 -3.9Q800.8 -5.9 898.4 123q97.7 127 101.6 300.8 -2 140.7 -68.4 252Q865.2 789.1 752 855.5q-111.4 66.4 -252 68.3Q359.4 921.9 248 855.5 134.8 789.1 68.4 675.8 2 564.5 0 423.8 3.9 250 101.6 123 199.2 -5.9 357.4 -54.7q25.4 -7.8 46.9 3.9 23.4 11.7 31.2 37.1z"/></svg>