<svg height="1000" width="1000" xmlns="http://www.w3.org/2000/svg"><path d="M500 923.8q136.7 -1.9 250 -66.4Q863.3 791 933.6 673.8q66.4 -119.1 66.4 -250t-66.4 -250Q863.3 56.6 750 -9.8 636.7 -74.2 500 -76.2q-136.7 2 -250 66.4Q136.7 56.6 66.4 173.8 0 293 0 423.8t66.4 250Q136.7 791 250 857.4q113.3 64.5 250 66.4zm21.5 -771.5l218.7 218.8L521.5 152.3l218.7 218.8q13.7 13.7 7.8 33.2 -9.7 17.6 -29.2 19.5h-125v187.5q0 27.4 -17.6 45t-44.9 17.5h-62.5q-27.4 0 -45 -17.5t-17.5 -45V423.8h-125q-19.6 0 -29.3 -19.5 -5.9 -19.5 7.8 -33.2L478.5 152.3q21.5 -19.5 43 0z"/></svg>