<svg height="1000" width="1000" xmlns="http://www.w3.org/2000/svg"><path d="M638.7 712.9Q572.3 736.3 500 736.3T361.3 712.9v-2Q271.5 677.7 207 611.3 97.7 498 93.8 330.1 97.7 158.2 212.9 43T500 -76.2Q671.9 -72.3 787.1 43t119.2 287.1Q902.3 498 793 611.3q-2 2 -2 3.9 -1.9 0 -3.9 2 -62.5 64.4 -148.4 95.7zM500 103.5q-35.2 3.9 -39.1 39.1v11.7q-17.5 3.9 -31.2 9.8 -46.9 19.5 -60.6 74.2 -5.8 29.3 5.9 56.6 13.7 25.4 35.2 37.1 37.1 23.5 74.2 31.3l3.9 1.9q41 11.8 58.6 23.5 5.8 3.9 5.8 7.8 2 1.9 2 11.7 -2 11.7 -15.6 17.6 -19.6 9.7 -56.7 3.9 -21.5 -3.9 -50.8 -15.6 -3.9 0 -5.8 -2 -3.9 0 -7.8 -1.9 -35.2 -7.9 -48.9 25.3 -7.8 35.2 25.4 48.9 2 1.9 7.8 3.9 27.4 9.7 58.6 17.6v11.7q3.9 35.1 39.1 39 35.2 -3.9 39.1 -39v-9.8q15.6 -3.9 29.3 -9.8 50.7 -19.5 62.5 -76.1 5.8 -29.3 -5.9 -56.7 -11.7 -25.4 -33.2 -41Q552.7 300.8 513.7 291h-2q-41 -11.7 -58.6 -23.4 -7.8 -3.9 -7.8 -5.9V252q0 -5.9 17.6 -15.7t54.7 -5.8q7.8 1.9 21.5 3.9 13.6 3.9 21.4 3.9 35.2 7.8 46.9 -27.4 5.9 -35.1 -27.3 -46.8 -17.6 -3.9 -41 -9.8v-11.7Q535.2 107.4 500 103.5zM93.8 611.3H125 93.8 125q58.6 76.2 140.6 125H125v62.5h750v-62.5H734.4q84 -48.8 140.6 -125h31.3q39 2 66.4 27.4Q998 666 1000 705.1v125q-2 39 -27.3 66.4 -27.4 25.4 -66.4 27.3H93.8Q54.7 921.9 27.3 896.5 2 869.1 0 830.1v-125Q2 666 27.3 638.7q27.4 -25.4 66.5 -27.4z"/></svg>