<svg height="1000" width="1000" xmlns="http://www.w3.org/2000/svg"><path d="M0 423.8q2 136.7 66.4 250Q132.8 787.1 250 857.4q119.1 66.4 250 66.4t250 -66.4Q867.2 787.1 933.6 673.8 998 560.5 1000 423.8q-2 -136.7 -66.4 -250Q867.2 60.5 750 -9.8 630.9 -76.2 500 -76.2T250 -9.8Q132.8 60.5 66.4 173.8 2 287.1 0 423.8zm771.5 21.5L552.7 664.1 771.5 445.3 552.7 664.1q-13.6 13.6 -33.2 7.8Q502 662.1 500 642.6v-125H312.5q-27.3 0 -44.9 -17.6T250 455.1v-62.5q0 -27.4 17.6 -44.9t44.9 -17.6H500v-125q0 -19.6 19.5 -29.3 19.6 -5.9 33.2 7.8l218.8 218.7q19.5 21.5 0 43z"/></svg>