<svg height="1000" width="1000" xmlns="http://www.w3.org/2000/svg"><path d="M500 923.8q136.7 -1.9 250 -66.4Q863.3 791 933.6 673.8q66.4 -119.1 66.4 -250t-66.4 -250Q863.3 56.6 750 -9.8 636.7 -74.2 500 -76.2q-136.7 2 -250 66.4Q136.7 56.6 66.4 173.8 0 293 0 423.8t66.4 250Q136.7 791 250 857.4q113.3 64.5 250 66.4zM332 246.1q11.8 -33.2 39.1 -52.7 27.3 -19.6 64.4 -19.6h113.3q52.8 2 87.9 37.1 33.2 33.2 35.2 86 -2 70.3 -62.5 107.4l-62.5 35.2Q543 482.4 500 486.3q-43 -3.9 -46.9 -46.8v-25.4q0 -27.4 23.5 -41.1l85.9 -50.7q15.6 -7.8 15.6 -25.4 -1.9 -27.4 -29.3 -29.3H435.5q-11.7 0 -15.6 9.7v4q-19.5 39 -60.5 27.3Q320.3 291 330.1 250l1.9 -3.9zm105.5 365.2q0 -27.3 17.6 -44.9 17.6 -17.6 44.9 -17.6t44.9 17.6 17.6 44.9 -17.6 45T500 673.8t-44.9 -17.5 -17.6 -45z"/></svg>