<svg height="1000" width="1000" xmlns="http://www.w3.org/2000/svg"><path d="M500 -76.2q-136.7 2 -250 66.4Q136.7 56.6 66.4 173.8 0 293 0 423.8t66.4 250Q136.7 791 250 857.4q113.3 64.5 250 66.4 136.7 -1.9 250 -66.4Q863.3 791 933.6 673.8q66.4 -119.1 66.4 -250t-66.4 -250Q863.3 56.6 750 -9.8 636.7 -74.2 500 -76.2zm-21.5 771.5L259.8 476.6l218.7 218.7L259.8 476.6Q246.1 462.9 252 443.4q9.7 -17.6 29.3 -19.6h125V236.3q0 -27.3 17.5 -44.9t45 -17.6h62.5q27.3 0 44.9 17.6t17.6 44.9v187.5h125q19.5 0 29.2 19.6 5.9 19.5 -7.8 33.2L521.5 695.3q-21.5 19.5 -43 0z"/></svg>