<svg height="1000" width="1000" xmlns="http://www.w3.org/2000/svg"><path d="M500 923.8q136.7 -1.9 250 -66.4Q863.3 791 933.6 673.8q66.4 -119.1 66.4 -250t-66.4 -250Q863.3 56.6 750 -9.8 636.7 -74.2 500 -76.2q-136.7 2 -250 66.4Q136.7 56.6 66.4 173.8 0 293 0 423.8t66.4 250Q136.7 791 250 857.4q113.3 64.5 250 66.4zm0 -687.5q50.8 0 93.8 25.4 42.9 25.4 68.3 68.4 25.4 44.9 25.4 93.7t-25.4 93.8q-25.4 42.9 -68.3 68.3T500 611.3t-93.7 -25.4 -68.4 -68.3q-25.4 -44.9 -25.4 -93.8t25.4 -93.7q25.4 -43 68.4 -68.4T500 236.3z"/></svg>