<svg height="1000" width="1000" xmlns="http://www.w3.org/2000/svg"><path d="M816.4 232.4q52.7 -13.6 85.9 -54.7 33.2 -41 35.2 -97.6 -2 -66.4 -44.9 -111.4Q847.7 -74.2 781.3 -76.2q-64.5 2 -109.4 44.9Q628.9 9.8 625 74.2L265.6 218.8q-42.9 -43 -109.3 -45 -66.5 2 -111.4 45Q2 263.7 0 330.1q2 66.4 44.9 111.3 44.9 43 111.4 44.9 35.1 0 66.4 -15.6l285.1 250q-7.8 21.5 -7.8 46.9 2 66.4 44.9 111.3 44.9 43 111.4 44.9 66.4 -1.9 111.3 -44.9Q810.5 834 812.5 767.6q-3.9 -84 -68.4 -128.9l72.3 -406.3zM304.7 377q7.8 -19.6 7.8 -41.1L671.9 191.4q9.7 9.8 21.5 19.5l-72.3 404.3q-17.6 3.9 -31.3 11.8L304.7 377z"/></svg>