<svg height="1000" width="1000" xmlns="http://www.w3.org/2000/svg"><path d="M0 423.8q2 136.7 66.4 250Q132.8 787.1 250 857.4q119.1 66.4 250 66.4t250 -66.4Q867.2 787.1 933.6 673.8 998 560.5 1000 423.8q-2 -136.7 -66.4 -250Q867.2 60.5 750 -9.8 630.9 -76.2 500 -76.2T250 -9.8Q132.8 60.5 66.4 173.8 2 287.1 0 423.8zm580.1 252q-33.2 27.3 -66.4 0 -27.4 -33.2 0 -66.4L652.3 470.7H234.4q-43 -3.9 -46.9 -46.9 3.9 -42.9 46.9 -46.8h417.9L513.7 238.3q-27.4 -33.2 0 -66.4 33.2 -27.4 66.4 0l218.7 218.7q27.4 33.2 0 66.4L580.1 675.8z"/></svg>