<svg height="1000" width="1000" xmlns="http://www.w3.org/2000/svg"><path d="M500 923.8q136.7 -1.9 250 -66.4Q863.3 791 933.6 673.8q66.4 -119.1 66.4 -250t-66.4 -250Q863.3 56.6 750 -9.8 636.7 -74.2 500 -76.2q-136.7 2 -250 66.4Q136.7 56.6 66.4 173.8 0 293 0 423.8t66.4 250Q136.7 791 250 857.4q113.3 64.5 250 66.4zm-62.5 -625v250 -250 250q0 27.4 -17.6 45T375 611.3t-44.9 -17.5 -17.6 -45v-250q0 -27.3 17.6 -44.9T375 236.3t44.9 17.6 17.6 44.9zm250 0v250 -250 250q0 27.4 -17.6 45T625 611.3t-44.9 -17.5 -17.6 -45v-250q0 -27.3 17.6 -44.9T625 236.3t44.9 17.6 17.6 44.9z"/></svg>