<svg height="1000" width="1000" xmlns="http://www.w3.org/2000/svg"><path d="M500 48.8q101.6 0 187.5 50.8 85.9 48.8 136.7 136.7T875 423.8t-50.8 187.5T687.5 748Q601.6 798.8 500 798.8T312.5 748Q226.6 699.2 175.8 611.3T125 423.8t50.8 -187.5T312.5 99.6Q398.4 48.8 500 48.8zm0 875q136.7 -1.9 250 -66.4Q863.3 791 933.6 673.8q66.4 -119.1 66.4 -250t-66.4 -250Q863.3 56.6 750 -9.8 636.7 -74.2 500 -76.2q-136.7 2 -250 66.4Q136.7 56.6 66.4 173.8 0 293 0 423.8t66.4 250Q136.7 791 250 857.4q113.3 64.5 250 66.4zm-109.4 -500q2 -62.5 54.7 -93.7L375 207q-13.7 -23.4 -37.1 -27.3 -23.4 -5.9 -44.9 9.8 -76.2 68.3 -99.6 171.8 -3.9 27.4 13.6 45 15.7 17.5 43 17.5h140.6zm54.7 95.7L375 640.6l70.3 -121.1L375 640.6q-13.7 23.5 -5.9 46.9 5.9 23.4 31.3 33.2 46.9 15.6 99.6 15.6t99.6 -15.6q25.4 -9.8 31.3 -33.2 7.8 -23.4 -5.9 -46.9L554.7 519.5q-23.4 13.7 -54.7 13.7 -29.3 0 -54.7 -13.7zm164.1 -95.7H750 609.4 750q27.3 0 43 -17.5 17.5 -17.6 13.6 -45Q783.2 257.8 707 189.5q-21.5 -15.7 -44.9 -11.8Q638.7 183.6 625 207l-70.3 121.1q50.8 31.3 54.7 95.7zM500 486.3q27.3 0 44.9 -17.5 17.6 -17.6 17.6 -45t-17.6 -44.9T500 361.3t-44.9 17.6 -17.6 44.9 17.6 45 44.9 17.5z"/></svg>