<svg height="1000" width="1000" xmlns="http://www.w3.org/2000/svg"><path d="M500 -76.2q-136.7 2 -250 66.4Q136.7 56.6 66.4 173.8 0 293 0 423.8t66.4 250Q136.7 791 250 857.4q113.3 64.5 250 66.4 136.7 -1.9 250 -66.4Q863.3 791 933.6 673.8q66.4 -119.1 66.4 -250t-66.4 -250Q863.3 56.6 750 -9.8 636.7 -74.2 500 -76.2zM248 503.9q-27.3 -33.2 0 -66.4 33.3 -27.3 66.5 0l138.6 138.7v-418q3.9 -43 46.9 -46.9 43 3.9 46.9 46.9v418L685.5 437.5q33.3 -27.3 66.5 0 27.3 33.2 0 66.4L533.2 722.7q-33.2 27.3 -66.4 0L248 503.9z"/></svg>