<svg height="1000" width="1000" xmlns="http://www.w3.org/2000/svg"><path d="M779.3 673.8Q746.1 617.2 689.5 584q-56.7 -35.2 -127 -35.2h-125q-70.3 0 -127 35.2 -56.6 33.2 -89.8 89.8 52.7 58.6 123.1 91.8Q416 798.8 500 798.8t156.3 -33.2q70.3 -33.2 123 -91.8zM0 423.8q2 -136.7 66.4 -250Q132.8 60.5 250 -9.8q119.1 -66.4 250 -66.4t250 66.4q117.2 70.3 183.6 183.6 64.4 113.3 66.4 250 -2 136.7 -66.4 250Q867.2 787.1 750 857.4q-119.1 66.4 -250 66.4T250 857.4Q132.8 787.1 66.4 673.8 2 560.5 0 423.8zm500 31.3q80.1 -2 121.1 -70.3 39.1 -70.3 0 -140.7Q580.1 175.8 500 173.8q-80.1 2 -121.1 70.3 -39.1 70.4 0 140.7 41 68.3 121.1 70.3z"/></svg>