<svg height="1000" width="1000" xmlns="http://www.w3.org/2000/svg"><path d="M1000 423.8q-2 -136.7 -66.4 -250Q867.2 60.5 750 -9.8 630.9 -76.2 500 -76.2T250 -9.8Q132.8 60.5 66.4 173.8 2 287.1 0 423.8q2 136.7 66.4 250Q132.8 787.1 250 857.4q119.1 66.4 250 66.4t250 -66.4Q867.2 787.1 933.6 673.8 998 560.5 1000 423.8zM228.5 402.3L447.3 183.6 228.5 402.3 447.3 183.6q13.6 -13.7 33.2 -7.8 17.5 9.7 19.5 29.3v125h187.5q27.3 0 44.9 17.6t17.6 44.9v62.5q0 27.3 -17.6 44.9t-44.9 17.6H500v125q0 19.5 -19.5 29.3 -19.6 5.8 -33.2 -7.8L228.5 445.3q-19.5 -21.5 0 -43z"/></svg>