<svg height="1000" width="1250" xmlns="http://www.w3.org/2000/svg"><path d="M937.5 17.6q-2 -39.1 -27.3 -66.4 -27.4 -25.4 -66.4 -27.4H656.3q-39.1 2 -66.5 27.4 -25.3 27.3 -27.3 66.4v93.7h-125V-29.3q-3.9 -43 -46.9 -46.9 -42.9 3.9 -46.8 46.9v140.6h-125V-29.3q-4 -43 -46.9 -46.9 -43 3.9 -46.9 46.9v140.6H93.8q-39.1 2 -66.5 27.4Q2 166 0 205.1v625q2 39 27.3 66.4 27.4 25.4 66.5 27.3h1062.5q39 -1.9 66.4 -27.3 25.3 -27.4 27.3 -66.4V392.6q-2 -39.1 -27.3 -66.4 -27.4 -25.4 -66.4 -27.4H937.5V17.6zm187.5 625v62.5 -62.5 62.5q-2 29.3 -31.2 31.2h-62.5Q1002 734.4 1000 705.1v-62.5q2 -29.3 31.3 -31.3h62.5q29.2 2 31.2 31.3zm-656.2 93.7h-62.5 62.5 -62.5Q377 734.4 375 705.1v-62.5q2 -29.3 31.3 -31.3h62.5q29.2 2 31.2 31.3v62.5q-2 29.3 -31.2 31.2zM250 705.1q-2 29.3 -31.2 31.2h-62.5Q127 734.4 125 705.1v-62.5q2 -29.3 31.3 -31.3h62.5q29.2 2 31.2 31.3v62.5zm843.8 -281.3q29.2 2 31.2 31.3v62.5q-2 29.3 -31.2 31.2h-62.5Q1002 546.9 1000 517.6v-62.5q2 -29.3 31.3 -31.3h62.5zM500 267.6v62.5 -62.5 62.5q-2 29.3 -31.2 31.2h-62.5Q377 359.4 375 330.1v-62.5q2 -29.3 31.3 -31.3h62.5q29.2 2 31.2 31.3zM218.8 236.3q29.2 2 31.2 31.3v62.5q-2 29.3 -31.2 31.2h-62.5Q127 359.4 125 330.1v-62.5q2 -29.3 31.3 -31.3h62.5zM500 517.6q-2 29.3 -31.2 31.2h-62.5Q377 546.9 375 517.6v-62.5q2 -29.3 31.3 -31.3h62.5q29.2 2 31.2 31.3v62.5zm-281.2 31.2h-62.5 62.5 -62.5Q127 546.9 125 517.6v-62.5q2 -29.3 31.3 -31.3h62.5q29.2 2 31.2 31.3v62.5q-2 29.3 -31.2 31.2zm593.7 -93.7v62.5 -62.5 62.5q-2 29.3 -31.2 31.2h-62.5q-29.3 -1.9 -31.3 -31.2v-62.5q2 -29.3 31.3 -31.3h62.5q29.2 2 31.2 31.3zM781.3 48.8q29.2 2 31.2 31.3v62.5q-2 29.3 -31.2 31.2h-62.5q-29.3 -1.9 -31.3 -31.2V80.1q2 -29.3 31.3 -31.3h62.5zm31.2 218.8v62.5 -62.5 62.5q-2 29.3 -31.2 31.2h-62.5q-29.3 -1.9 -31.3 -31.2v-62.5q2 -29.3 31.3 -31.3h62.5q29.2 2 31.2 31.3z"/></svg>