<svg height="1000" width="750" xmlns="http://www.w3.org/2000/svg"><path d="M375 -76.2q-62.5 2 -109.4 35.2 -46.8 35.1 -66.4 89.8H125q-52.7 2 -87.9 37.1T0 173.8v625q2 52.8 37.1 87.9t87.9 37.1h500q52.7 -1.9 87.9 -37.1T750 798.8v-625q-2 -52.7 -37.1 -87.9T625 48.8h-72.3Q531.3 -5.9 484.4 -41 437.5 -74.2 375 -76.2zm0 125q27.3 0 44.9 17.6 17.6 17.6 17.6 44.9t-17.6 45T375 173.8t-44.9 -17.5 -17.6 -45 17.6 -44.9T375 48.8zM595.7 457l-250 250 250 -250 -250 250q-33.2 27.4 -66.4 0l-125 -125q-27.3 -33.2 0 -66.4 33.2 -27.3 66.4 0l91.8 91.8L529.3 390.6q33.2 -27.3 66.4 0 27.3 33.2 0 66.4z"/></svg>