<svg height="1000" width="750" xmlns="http://www.w3.org/2000/svg"><path d="M375 -76.2q-62.5 2 -109.4 35.2 -46.8 35.1 -66.4 89.8H125q-52.7 2 -87.9 37.1T0 173.8v625q2 52.8 37.1 87.9t87.9 37.1h500q52.7 -1.9 87.9 -37.1T750 798.8v-625q-2 -52.7 -37.1 -87.9T625 48.8h-72.3Q531.3 -5.9 484.4 -41 437.5 -74.2 375 -76.2zm0 125q27.3 0 44.9 17.6 17.6 17.6 17.6 44.9t-17.6 45T375 173.8t-44.9 -17.5 -17.6 -45 17.6 -44.9T375 48.8zM207 371.1q11.8 -33.2 39.1 -52.7 27.3 -19.6 64.4 -19.6h113.3q52.8 2 87.9 37.1 33.2 33.2 35.2 86 -2 70.3 -62.5 107.4l-62.5 35.2Q418 607.4 375 611.3q-43 -3.9 -46.9 -46.8v-25.4q0 -27.4 23.5 -41.1l85.9 -50.7q15.6 -7.8 15.6 -25.4 -1.9 -27.4 -29.3 -29.3H310.5q-11.7 0 -15.6 9.7v4q-19.5 39 -60.5 27.3Q195.3 416 207 375v-3.9zm105.5 365.2q0 -27.3 17.6 -44.9 17.6 -17.6 44.9 -17.6t44.9 17.6 17.6 44.9 -17.6 45T375 798.8t-44.9 -17.5 -17.6 -45z"/></svg>