<svg height="1000" width="1000" xmlns="http://www.w3.org/2000/svg"><path d="M146.5 70.3L80.1 3.9l66.4 66.4L80.1 3.9Q56.6 -17.6 29.3 -5.9 2 3.9 0 37.1V252q3.9 42.9 46.9 46.8h214.8q33.2 -1.9 43 -29.3 11.7 -27.3 -9.8 -50.7l-60.5 -60.6Q339.8 52.7 500 48.8q160.2 3.9 265.6 109.4T875 423.8Q871.1 584 765.6 689.5T500 798.8Q378.9 796.9 285.2 732.4q-21.5 -15.6 -46.9 -11.7 -23.5 5.9 -39.1 27.3t-11.7 45q5.9 25.4 27.3 41 123.1 87.9 285.2 89.8 140.6 -1.9 252 -68.3Q865.2 789.1 931.6 675.8 998 564.5 1000 423.8 998 283.2 931.6 171.9 865.2 58.6 752 -7.8 640.6 -74.2 500 -76.2q-103.5 0 -195.3 39.1Q214.8 2 146.5 70.3zM500 173.8q-43 3.9 -46.9 46.9v203.1q0 19.6 13.7 33.2l140.6 140.7q33.2 27.3 66.4 0 27.4 -33.2 0 -66.4l-126.9 -127V220.7Q543 177.7 500 173.8z"/></svg>