<svg height="1000" width="1125" xmlns="http://www.w3.org/2000/svg"><path d="M0 111.3Q2 58.6 37.1 23.4 72.3 -11.7 125 -13.7h875q52.7 2 87.9 37.1t37.1 87.9v625q-2 52.8 -37.1 87.9t-87.9 37.1H125Q72.3 859.4 37.1 824.2T0 736.3v-625zm390.6 218.8q43 1.9 70.3 31.2 31.3 29.3 66.4 3.9 29.3 -31.2 4 -66.4Q476.6 238.3 390.6 236.3q-80.1 2 -132.8 54.7t-54.7 132.8q2 80.1 54.7 132.8t132.8 54.7q86 -1.9 140.7 -62.5 25.3 -35.1 -4 -66.4 -35.1 -25.4 -66.4 3.9 -27.3 29.3 -70.3 31.3 -39 -2 -66.4 -27.4 -25.4 -27.3 -27.3 -66.4 1.9 -39 27.3 -66.4 27.4 -25.4 66.4 -27.3zm281.3 93.7q1.9 -39 27.3 -66.4 27.4 -25.4 66.4 -27.3 43 1.9 70.3 31.2 31.3 29.3 66.4 3.9 29.3 -31.2 4 -66.4Q851.6 238.3 765.6 236.3q-80.1 2 -132.8 54.7t-54.7 132.8q2 80.1 54.7 132.8t132.8 54.7q86 -1.9 140.7 -62.5 25.3 -35.1 -4 -66.4 -35.1 -25.4 -66.4 3.9 -27.3 29.3 -70.3 31.3 -39 -2 -66.4 -27.4 -25.4 -27.3 -27.3 -66.4z"/></svg>