<svg height="1000" width="1250" xmlns="http://www.w3.org/2000/svg"><path d="M574.2 -74.2q15.6 7.8 19.6 23.4l27.3 166 166 27.4q15.6 3.9 23.4 19.5 5.9 15.6 -3.9 29.3l-74.2 107.4h-13.6q-68.4 0 -125 33.2v-1.9q-2 -80.1 -54.7 -132.8T406.3 142.6q-80.1 1.9 -132.9 54.7t-54.6 132.8q1.9 80.1 54.6 132.8t132.9 54.7q23.4 0 44.9 -5.9 -52.8 27.4 -89.9 76.2 -35.1 46.9 -44.9 109.4l-48.8 33.2q-13.7 9.7 -29.3 3.9Q222.7 726.6 218.8 709L191.4 544.9l-166 -27.3Q9.8 513.7 2 498q-5.9 -15.6 3.9 -29.2l97.6 -138.7L5.9 191.4Q-3.9 177.7 2 162.1q7.8 -15.6 23.4 -19.5l166 -27.4 27.4 -166q3.9 -15.6 19.5 -23.4 15.6 -5.9 29.3 3.9l138.7 97.6 138.6 -97.6q13.7 -9.8 29.3 -3.9zM281.3 330.1q1.9 -70.3 62.5 -107.4 62.5 -35.2 125 0 60.5 37.1 62.5 107.4 -2 70.3 -62.5 107.4 -62.5 35.2 -125 0Q283.2 400.4 281.3 330.1zM1250 767.6q-2 66.4 -46.9 109.4 -42.9 44.9 -109.3 46.8H562.5q-80.1 -1.9 -132.8 -54.7T375 736.3q2 -72.2 44.9 -121.1 43 -50.7 111.4 -64.4v-2q1.9 -80 54.6 -132.8t132.9 -54.7q50.7 0 93.7 25.4 41 23.5 66.4 64.5 39.1 -27.4 89.9 -27.4 66.4 2 111.3 45 42.9 44.9 44.9 111.3 0 17.6 -3.9 33.2 56.6 11.7 91.8 52.7 35.1 43 37.1 101.6z"/></svg>