<svg height="1000" width="1000" xmlns="http://www.w3.org/2000/svg"><path d="M0 361.3q2 80.1 54.7 132.8 52.7 52.8 132.8 54.7h91.8L566.4 320.3q27.4 -21.5 58.6 -21.5 33.2 0 58.6 21.5t33.2 52.7q5.9 31.3 -7.8 62.5l-56.7 113.3h160.2q80.1 -1.9 132.8 -54.7T1000 361.3q-2 -80 -54.7 -132.8T812.5 173.8h-3.9q3.9 -15.6 3.9 -31.2 -2 -66.4 -44.9 -111.3 -44.9 -43 -111.3 -45Q582 -11.7 537.1 41 509.8 -11.7 459 -43 408.2 -76.2 343.8 -76.2q-93.8 2 -154.3 64.5Q127 48.8 125 142.6q0 21.5 3.9 41Q72.3 203.1 37.1 250 2 298.8 0 361.3zm644.5 7.8q-19.5 -13.6 -39 0L293 619.1q-15.7 13.7 -9.8 33.2 7.8 19.6 29.3 21.5h136.7L347.7 878.9q-9.8 21.5 7.8 37.1 19.5 13.7 39 2L707 668q15.7 -15.7 9.8 -35.2Q709 613.3 687.5 611.3H550.8l101.5 -205q9.8 -21.5 -7.8 -37.2z"/></svg>