<svg height="1000" width="1125" xmlns="http://www.w3.org/2000/svg"><path d="M437.5 -76.2q56.6 0 101.6 31.3 44.9 29.3 68.3 78.1 44.9 -44.9 111.4 -46.9 58.5 2 99.6 35.2 41 35.1 52.7 89.8h3.9q52.7 2 87.9 37.1t37.1 87.9q-2 52.8 -37.1 87.9T875 361.3H250q-52.7 -1.9 -87.9 -37.1T125 236.3q2 -52.7 37.1 -87.9T250 111.3q2 -80 54.7 -132.8t132.8 -54.7zM275.4 494.1l-93.8 156.3 93.8 -156.3 -93.8 156.3q-25.3 35.1 -64.4 17.6Q82 640.6 101.6 603.5l93.7 -156.2q25.4 -35.2 62.5 -17.6 35.2 27.3 17.6 64.4zm638.7 -64.4q35.1 25.4 17.5 64.4l-93.7 156.3q-25.4 35.1 -64.5 17.6 -35.1 -27.4 -15.6 -64.5l93.8 -156.2q25.4 -35.2 62.5 -17.6zm-420 64.4l-93.7 156.3 93.7 -156.3 -93.7 156.3Q375 685.5 335.9 668q-35.1 -27.4 -15.6 -64.5l93.8 -156.2q25.4 -35.2 62.5 -17.6 35.1 27.3 17.5 64.4zm201.2 -64.4q35.2 25.4 17.6 64.4l-93.8 156.3q-25.3 35.1 -64.4 17.6 -35.2 -27.4 -15.6 -64.5l93.7 -156.2q25.4 -35.2 62.5 -17.6zM599.6 748Q668 796.9 750 798.8q82 -3.9 150.4 -50.8 41 -25.3 78.1 4 43 35.1 97.7 48.8 25.4 5.8 39 27.3t7.8 46.9 -27.3 39.1 -46.9 7.8Q974.6 902.3 935.5 873 847.7 921.9 750 923.8 654.3 918 593.8 886.7q-17.6 -7.8 -31.3 -15.6 -13.7 7.8 -31.2 15.6Q470.7 918 375 923.8 277.3 921.9 191.4 873q-41 29.3 -115.2 48.9 -25.4 5.8 -46.9 -7.8T2 875t7.8 -46.9 39 -27.3q54.7 -13.7 97.7 -48.8 37.1 -27.4 78.1 -4Q293 794.9 375 798.8q84 -1.9 152.3 -50.8 35.2 -23.4 72.3 0z"/></svg>