<svg height="1000" width="1000" xmlns="http://www.w3.org/2000/svg"><path d="M187.5 548.8Q107.4 546.9 54.7 494.1 2 441.4 0 361.3 2 298.8 37.1 250q35.2 -46.9 91.8 -66.4 -3.9 -19.5 -3.9 -41 2 -93.8 64.5 -154.3Q250 -74.2 343.8 -76.2q64.4 0 115.2 33.2 50.8 31.3 78.1 84Q582 -11.7 656.3 -13.7q66.4 2 111.3 45 42.9 44.9 44.9 111.3 0 15.6 -3.9 31.2h3.9q80.1 2 132.8 54.7t54.7 132.8q-2 80.1 -54.7 132.8t-132.8 54.7h-625zm-27.3 66.4q37.1 19.6 23.4 60.6L89.8 894.5q-19.5 39.1 -60.5 25.4Q-9.8 900.4 3.9 859.4L97.7 640.6q19.5 -39 60.5 -25.4h2zm234.3 0q37.1 19.6 23.5 60.6l-93.8 218.7q-19.5 39.1 -60.5 25.4 -39.1 -19.5 -25.4 -60.5L332 640.6q21.5 -39 62.5 -25.4zm476.6 60.6l-93.8 218.7 93.8 -218.7 -93.8 218.7q-19.5 39.1 -60.5 25.4 -39.1 -19.5 -25.4 -60.5l93.8 -218.8q21.4 -39 62.5 -25.4 37.1 19.6 23.4 60.6zM613.3 615.2q37.1 19.6 23.4 60.6L543 894.5q-19.6 39.1 -60.6 25.4 -39 -19.5 -25.4 -60.5l93.8 -218.8q21.5 -39 62.5 -25.4z"/></svg>