<svg height="1000" width="1000" xmlns="http://www.w3.org/2000/svg"><path d="M187.5 548.8Q107.4 546.9 54.7 494.1 2 441.4 0 361.3 2 298.8 37.1 250q35.2 -46.9 91.8 -66.4 -3.9 -19.5 -3.9 -41 2 -93.8 64.5 -154.3Q250 -74.2 343.8 -76.2q64.4 0 115.2 33.2 50.8 31.3 78.1 84Q582 -11.7 656.3 -13.7q66.4 2 111.3 45 42.9 44.9 44.9 111.3 0 15.6 -3.9 31.2h3.9q80.1 2 132.8 54.7t54.7 132.8q-2 80.1 -54.7 132.8t-132.8 54.7h-625zm-13.7 101.6q3.9 -7.8 13.7 -7.8t13.7 7.8l68.3 126.9q11.8 21.5 11.8 46.9v5.9q0 39 -27.4 66.4 -27.3 25.4 -66.4 27.3 -39.1 -1.9 -66.4 -27.3Q95.7 869.1 93.8 830.1v-5.9q0 -25.4 11.7 -46.9l68.3 -126.9zm312.5 0q3.9 -7.8 13.7 -7.8t13.7 7.8L582 777.3q11.8 21.5 11.8 46.9v5.9q0 39 -27.4 66.4 -27.3 25.4 -66.4 27.3 -39.1 -1.9 -66.4 -27.3 -25.4 -27.4 -27.3 -66.4v-5.9q0 -25.4 11.7 -46.9l68.3 -126.9zm244.2 126.9l68.3 -126.9 -68.3 126.9 68.3 -126.9q3.9 -7.8 13.7 -7.8t13.7 7.8l68.3 126.9q11.8 21.5 11.8 46.9v5.9q0 39 -27.4 66.4 -27.3 25.4 -66.4 27.3 -39.1 -1.9 -66.4 -27.3 -25.4 -27.4 -27.3 -66.4v-5.9q0 -25.4 11.7 -46.9z"/></svg>