<svg height="1000" width="1250" xmlns="http://www.w3.org/2000/svg"><path d="M281.3 861.3Q162.1 857.4 82 779.3 3.9 699.2 0 580.1 2 486.3 52.7 416T187.5 314.5v-15.7Q191.4 166 279.3 78.1T500 -13.7q87.9 2 158.2 43 70.3 43 113.3 113.3Q816.4 111.3 875 111.3q80.1 2 132.8 54.7t54.7 132.8q0 35.2 -11.7 68.4 85.9 17.6 142.6 85.9 54.6 66.4 56.6 158.2 -2 105.5 -72.3 177.8 -72.2 70.3 -177.7 72.2H281.3zM435.5 535.2l156.3 156.2L435.5 535.2l156.3 156.2q33.2 27.4 66.4 0L814.5 535.2q27.3 -33.2 0 -66.4 -33.2 -27.4 -66.5 0l-76.1 76.1V283.2Q668 240.2 625 236.3q-43 3.9 -46.9 46.9v261.7L502 468.8q-33.2 -27.4 -66.5 0 -27.3 33.2 0 66.4z"/></svg>