<svg height="1000" width="1000" xmlns="http://www.w3.org/2000/svg"><path d="M0 361.3q2 80.1 54.7 132.8 52.7 52.8 132.8 54.7h87.9q13.7 -35.1 44.9 -56.6t70.3 -21.5h11.7q37.2 -44.9 97.7 -46.9 60.5 2 97.7 46.9h11.7q39 0 70.3 21.5t44.9 56.6h87.9q80.1 -1.9 132.8 -54.7T1000 361.3q-2 -80 -54.7 -132.8T812.5 173.8h-3.9q3.9 -15.6 3.9 -31.2 -2 -66.4 -44.9 -111.3 -44.9 -43 -111.3 -45Q582 -11.7 537.1 41 509.8 -11.7 459 -43 408.2 -76.2 343.8 -76.2q-93.8 2 -154.3 64.5Q127 48.8 125 142.6q0 21.5 3.9 41Q72.3 203.1 37.1 250 2 298.8 0 361.3zm562.5 187.5q0 -27.3 -17.6 -44.9Q527.3 486.3 500 486.3t-44.9 17.6 -17.6 44.9v5.9l-3.9 -3.9q-19.5 -19.5 -44.9 -19.5 -23.5 0 -43 19.5t-19.5 43q0 25.3 19.5 44.9l3.9 3.9h-5.8q-27.4 0 -45 17.6t-17.5 44.9 17.5 44.9 45 17.6h5.8l-1.9 1.9q-2 0 -2 2 -19.5 19.5 -19.5 44.9t19.5 43q19.5 19.5 43 19.5 25.4 0 44.9 -19.5l3.9 -3.9v5.8q0 27.4 17.6 45t44.9 17.5 44.9 -17.5 17.6 -45v-5.8 1.9q2 2 3.9 2 19.5 19.5 44.9 19.5 23.5 0 43 -19.5 19.5 -17.6 19.5 -43t-19.5 -44.9l-3.9 -3.9h5.9q27.3 0 44.9 -17.6t17.6 -44.9 -17.6 -44.9 -44.9 -17.6h-5.9 1.9q2 -2 2 -3.9 19.5 -19.6 19.5 -44.9 0 -23.5 -19.5 -43t-43 -19.5q-25.4 0 -44.9 19.5l-3.9 3.9v-5.9zm-468.7 250q52.7 -1.9 82 -46.8 23.4 -46.9 0 -93.8 -29.3 -44.9 -82 -46.9 -52.8 2 -82.1 46.9 -23.4 46.9 0 93.8 29.3 44.9 82.1 46.8zm812.5 0q52.7 -1.9 82 -46.8 23.4 -46.9 0 -93.8 -29.3 -44.9 -82 -46.9 -52.8 2 -82.1 46.9 -23.4 46.9 0 93.8 29.3 44.9 82.1 46.8z"/></svg>