<svg height="1000" width="1250" xmlns="http://www.w3.org/2000/svg"><path d="M574.2 -74.2q15.6 7.8 19.6 23.4l19.5 123.1q-68.4 33.2 -109.4 97.6 -43 -27.3 -97.6 -27.3 -80.1 1.9 -132.9 54.7t-54.6 132.8q0 52.7 25.3 95.7 25.4 41 68.4 66.4 3.9 95.7 64.5 162.1l-109.4 76.2q-13.7 9.7 -29.3 3.9 -15.6 -7.8 -19.5 -23.5l-27.4 -166 -166 -27.3Q9.8 513.7 2 498q-5.9 -15.6 3.9 -29.2l97.6 -138.7L5.9 191.4Q-3.9 177.7 2 162.1q7.8 -15.6 23.4 -19.5l166 -27.4 27.4 -166q3.9 -15.6 19.5 -23.4 15.6 -5.9 29.3 3.9l138.7 97.6 138.6 -97.6q13.7 -9.8 29.3 -3.9zM406.3 205.1q41 0 72.2 23.4 -3.9 11.7 -5.8 25.4Q416 275.4 377 318.4q-39.1 44.9 -56.7 103.5 -37.1 -37.1 -39 -91.8 1.9 -52.8 37.1 -87.9t87.9 -37.1zm134.7 539q33.2 27.4 13.7 64.5l-62.5 93.7q-27.4 33.2 -64.5 13.7 -33.2 -27.3 -13.6 -64.4l62.5 -93.8q27.3 -33.2 64.4 -13.7zm187.5 0q33.2 27.4 13.7 64.5l-62.5 93.7q-27.4 33.2 -64.5 13.7Q582 888.7 601.6 851.6l62.5 -93.8q27.3 -33.2 64.4 -13.7zm187.5 0q33.2 27.4 13.7 64.5l-62.5 93.7q-27.4 33.2 -64.5 13.7 -33.2 -27.3 -13.6 -64.4l62.5 -93.8q27.3 -33.2 64.4 -13.7zm187.5 0q33.2 27.4 13.7 64.5l-62.5 93.7q-27.4 33.2 -64.5 13.7Q957 888.7 976.6 851.6l62.5 -93.8q27.3 -33.2 64.4 -13.7zM1250 517.6q-2 66.4 -46.9 109.4 -42.9 44.9 -109.3 46.8H562.5q-80.1 -1.9 -132.8 -54.7T375 486.3q2 -72.2 44.9 -121.1 43 -50.7 111.4 -64.4v-2q1.9 -80 54.6 -132.8t132.9 -54.7q50.7 0 93.7 25.4 41 23.5 66.4 64.5 39.1 -27.4 89.9 -27.4 66.4 2 111.3 45 42.9 44.9 44.9 111.3 0 17.6 -3.9 33.2 56.6 11.7 91.8 52.7 35.1 43 37.1 101.6z"/></svg>