<svg height="1000" width="1125" xmlns="http://www.w3.org/2000/svg"><path d="M939.5 -76.2q-95.7 2 -164.1 60.6Q707 43 691.4 134.8q52.7 25.4 84 74.2 33.2 48.8 37.1 111.3 68.4 33.2 103.5 101.6 11.7 1.9 23.5 1.9 105.4 -1.9 175.7 -70.3 15.7 -15.6 5.9 -37.1 -9.8 -19.5 -33.2 -15.6 -13.7 1.9 -29.3 1.9Q984.4 300.8 937.5 252 888.7 205.1 886.7 130.9q0 -46.9 23.5 -86t64.4 -62.5q17.6 -11.7 13.7 -33.2 -5.9 -21.5 -27.4 -25.4h-21.4zm-220.7 750q66.4 -1.9 109.3 -46.8Q873 584 875 517.6 873 459 837.9 416q-35.2 -41 -91.8 -52.7 3.9 -15.6 3.9 -33.2 -2 -66.4 -44.9 -111.3 -44.9 -43 -111.3 -45 -50.8 0 -89.9 27.4 -25.4 -41 -66.4 -64.5 -43 -25.4 -93.7 -25.4 -80.1 2 -132.9 54.7t-54.6 132.8v2Q87.9 314.5 44.9 365.2T0 486.3q2 80.1 54.7 132.8t132.8 54.7h531.3zM166 744.1q-37.1 -19.5 -64.4 13.7l-62.5 93.8Q19.5 888.7 52.7 916q37.1 21.5 64.5 -13.7l62.5 -93.7Q201.2 771.5 166 744.1zm187.5 0q-37.1 -19.5 -64.4 13.7l-62.5 93.8Q207 888.7 240.2 916q37.1 21.5 64.5 -13.7l62.5 -93.7q21.5 -37.1 -13.7 -64.5zm187.5 0q-37.1 -19.5 -64.4 13.7l-62.5 93.8q-19.6 37.1 13.6 64.4 37.1 21.5 64.5 -13.7l62.5 -93.7Q576.2 771.5 541 744.1zm187.5 0q-37.1 -19.5 -64.4 13.7l-62.5 93.8Q582 888.7 615.2 916q37.1 21.5 64.5 -13.7l62.5 -93.7q21.5 -37.1 -13.7 -64.5z"/></svg>