<svg height="1000" width="1250" xmlns="http://www.w3.org/2000/svg"><path d="M968.8 -76.2q15.6 0 31.2 2 21.5 1.9 27.3 23.4 4 21.5 -13.6 35.2Q947.3 21.5 908.2 85.9q-39.1 66.4 -41 146.5 3.9 123.1 84 203.1t201.1 84q25.4 0 50.8 -3.9 21.5 -3.9 33.2 15.7 7.8 21.4 -7.8 37.1Q1125 669.9 968.8 673.8q-27.4 0 -54.7 -1.9Q880.9 603.5 812.5 570.3q-5.9 -87.9 -66.4 -146.5Q687.5 365.2 599.6 361.3q-5.8 -29.3 -5.8 -62.5Q597.7 140.6 703.1 33.2 808.6 -72.3 968.8 -76.2zM875 767.6Q873 834 828.1 877q-42.9 44.9 -109.3 46.8H187.5Q107.4 921.9 54.7 869.1T0 736.3Q2 664.1 44.9 615.2q43 -50.7 111.4 -64.4v-2q1.9 -80 54.6 -132.8t132.9 -54.7q50.7 0 93.7 25.4 41 23.5 66.4 64.5 39.1 -27.4 89.9 -27.4 66.4 2 111.3 45Q748 513.7 750 580.1q0 17.6 -3.9 33.2 56.6 11.7 91.8 52.7Q873 709 875 767.6z"/></svg>