<svg height="1000" width="875" xmlns="http://www.w3.org/2000/svg"><path d="M423.8 21.5q-37.1 -35.2 -85.9 -35.2 -50.8 2 -84 35.2t-35.1 84v9.7q0 35.2 17.5 66.4l37.1 62.5q3.9 3.9 2 7.9 0 3.9 -3.9 5.8 -3.9 3.9 -5.9 3.9 -3.9 2 -9.7 -1.9l-60.6 -35.2q-31.2 -19.5 -66.4 -19.5h-9.8Q68.4 207 35.2 240.2T0 324.2q0 48.8 35.2 86l1.9 1.9q9.8 11.7 0 23.4l-1.9 2Q0 474.6 0 523.4q2 50.8 35.2 84t83.9 35.2h9.8q35.2 0 66.4 -17.6l62.5 -37.1q3.9 -3.9 7.8 -2 3.9 0 5.9 3.9 3.9 4 3.9 5.9 1.9 3.9 -2 9.8L238.3 666q-19.5 31.3 -19.5 66.4v9.8q1.9 50.8 35.1 84t84 35.1q50.8 0 85.9 -35.1l2 -2q11.7 -9.7 23.4 0l2 2q37.1 35.1 85.9 35.1 50.8 -1.9 84 -35.1t35.2 -84v-9.8q0 -35.1 -17.6 -66.4l-37.1 -60.5q-3.9 -5.9 -2 -9.8 0 -1.9 3.9 -5.9t7.8 -3.9q2 -1.9 7.8 2l60.6 37.1q31.2 17.6 66.4 17.6h9.8q50.7 -2 83.9 -35.2 35.2 -33.2 35.2 -84 0 -48.8 -35.2 -85.9l-1.9 -2q-9.8 -11.7 0 -23.4l1.9 -1.9Q875 373 875 324.2q0 -50.8 -35.2 -84Q806.6 207 755.9 205.1h-9.8q-35.2 0 -66.4 17.6l-60.6 37.1q-5.8 3.9 -7.8 1.9 -3.9 0 -7.8 -3.9t-3.9 -5.8q-1.9 -4 2 -9.8l37.1 -60.6q17.6 -31.2 17.6 -66.4v-9.7q-2 -50.8 -35.2 -84t-84 -35.2q-48.8 0 -85.9 35.2l-2 1.9q-11.7 9.8 -23.4 0l-2 -1.9z"/></svg>