<svg height="1000" width="1250" xmlns="http://www.w3.org/2000/svg"><path d="M625 580.1q87.9 -2 134.8 -78.1 42.9 -78.2 0 -156.3Q712.9 269.5 625 267.6q-87.9 1.9 -134.8 78.1 -42.9 78.1 0 156.3 46.9 76.1 134.8 78.1zm306.6 -93.8Q908.2 595.7 824.2 664.1q-84 70.3 -199.2 72.2Q509.8 734.4 425.8 664.1q-84 -68.4 -107.4 -177.8H62.5q-27.3 0 -44.9 -17.5T0 423.8t17.6 -44.9 44.9 -17.6h255.9Q341.8 252 425.8 183.6q84 -70.3 199.2 -72.3 115.2 2 199.2 72.3 84 68.4 107.4 177.7h255.9q27.3 0 44.9 17.6t17.6 44.9 -17.6 45 -44.9 17.5H931.6z"/></svg>