<svg height="1000" width="875" xmlns="http://www.w3.org/2000/svg"><path d="M156.3 127q42.9 -4 46.8 -46.9 -3.9 -43 -46.8 -46.9 -43 3.9 -46.9 46.9 3.9 42.9 46.9 46.9zM312.5 80.1q0 48.8 -25.4 85.9 -25.4 39.1 -68.3 56.7v76.1q0 27.4 17.5 45t45 17.5h312.5q27.3 0 44.9 -17.5t17.6 -45v-76.1q-43 -17.6 -68.4 -56.7Q562.5 128.9 562.5 80.1q2 -66.4 44.9 -111.4 44.9 -42.9 111.4 -44.9 66.4 2 111.3 44.9Q873 13.7 875 80.1q0 48.8 -25.4 85.9 -25.4 39.1 -68.3 56.7v76.1q-2 80.1 -54.7 132.8t-132.8 54.7H500V625q43 17.6 68.4 56.6 25.4 37.2 25.4 86 -2 66.4 -45 111.3 -44.9 43 -111.3 44.9 -66.4 -1.9 -111.3 -44.9Q283.2 834 281.3 767.6q0 -48.8 25.3 -86Q332 642.6 375 625V486.3h-93.7q-80.1 -1.9 -132.9 -54.7T93.8 298.8v-76.1Q50.8 205.1 25.4 166 0 128.9 0 80.1 2 13.7 44.9 -31.3q44.9 -42.9 111.4 -44.9 66.4 2 111.3 44.9 42.9 45 44.9 111.4zM718.8 127q42.9 -4 46.8 -46.9 -3.9 -43 -46.8 -46.9 -43 3.9 -46.9 46.9 3.9 42.9 46.9 46.9zM484.4 767.6q-3.9 -43 -46.9 -46.9 -43 3.9 -46.9 46.9 3.9 42.9 46.9 46.9 43 -4 46.9 -46.9z"/></svg>