<svg height="1000" width="1000" xmlns="http://www.w3.org/2000/svg"><path d="M625 877q-2 29.3 -27.3 42.9 -27.4 9.8 -50.8 -7.8L390.6 771.5Q375 757.8 375 736.3t15.6 -35.1L546.9 560.5q23.4 -17.5 50.8 -7.8 25.3 13.7 27.3 43v78.1h31.3q52.7 -1.9 87.8 -37.1t37.2 -87.9V222.7q-43 -17.6 -68.4 -56.7Q687.5 128.9 687.5 80.1q2 -66.4 44.9 -111.4 44.9 -42.9 111.4 -44.9 66.4 2 111.3 44.9 42.9 45 44.9 111.4 0 48.8 -25.4 85.9 -25.4 39.1 -68.3 56.7v326.1q-2 105.5 -72.3 177.8 -72.3 70.3 -177.7 72.2H625V877zM890.6 80.1q-3.9 -43 -46.8 -46.9 -43 3.9 -46.9 46.9 3.9 42.9 46.9 46.9 42.9 -4 46.8 -46.9zM375 -29.3q2 -29.3 27.3 -43 27.4 -9.7 50.8 7.8L609.4 76.2Q625 89.8 625 111.3t-15.6 35.2L453.1 287.1q-23.4 17.6 -50.8 7.8Q377 281.3 375 252v-78.2h-31.2q-52.8 2 -87.9 37.1t-37.1 87.9V625q42.9 17.6 68.3 56.6 25.4 37.2 25.4 86 -2 66.4 -44.9 111.3 -44.9 43 -111.3 44.9Q89.8 921.9 44.9 878.9 2 834 0 767.6q0 -48.8 25.4 -86 25.4 -39 68.4 -56.6V298.8Q95.7 193.4 166 121.1 238.3 50.8 343.8 48.8H375v-78.1zM109.4 767.6q3.9 42.9 46.9 46.9 42.9 -4 46.8 -46.9 -3.9 -43 -46.8 -46.9 -43 3.9 -46.9 46.9z"/></svg>