<svg height="1000" width="875" xmlns="http://www.w3.org/2000/svg"><path d="M156.3 33.2q42.9 3.9 46.8 46.9Q199.2 123 156.3 127q-43 -4 -46.9 -46.9 3.9 -43 46.9 -46.9zm62.5 189.5q42.9 -17.6 68.3 -56.7 25.4 -37.1 25.4 -85.9 -2 -66.4 -44.9 -111.4Q222.7 -74.2 156.3 -76.2q-66.5 2 -111.4 44.9Q2 13.7 0 80.1q0 48.8 25.4 85.9 25.4 39.1 68.4 56.7V625q-43 17.6 -68.4 56.6Q0 718.8 0 767.6 2 834 44.9 878.9q44.9 43 111.4 44.9 66.4 -1.9 111.3 -44.9Q310.5 834 312.5 767.6q0 -48.8 -25.4 -86 -25.4 -39 -68.3 -56.6V455.1q80 60.5 187.5 62.5h169.9q17.6 42.9 56.6 68.3 37.1 25.4 86 25.4 66.4 -1.9 111.3 -44.9Q873 521.5 875 455.1q-2 -66.4 -44.9 -109.4Q785.2 300.8 718.8 298.8q-48.9 0 -86 25.4 -39 27.4 -56.6 68.4H406.3q-74.3 -2 -127 -48.8Q228.5 296.9 218.8 222.7zm-62.5 498q42.9 3.9 46.8 46.9 -3.9 42.9 -46.8 46.9 -43 -4 -46.9 -46.9 3.9 -43 46.9 -46.9zM671.9 455.1q3.9 -43 46.9 -46.9 42.9 3.9 46.8 46.9Q761.7 498 718.8 502q-43 -4 -46.9 -46.9z"/></svg>