<svg height="1000" width="875" xmlns="http://www.w3.org/2000/svg"><path d="M156.3 127q42.9 -4 46.8 -46.9 -3.9 -43 -46.8 -46.9 -43 3.9 -46.9 46.9 3.9 42.9 46.9 46.9zM312.5 80.1q0 48.8 -25.4 85.9 -25.4 39.1 -68.3 56.7v171.8q56.6 -33.2 125 -33.2h187.5q52.7 -1.9 87.8 -37.1t37.2 -87.9v-13.6q-43 -17.6 -68.4 -56.7Q562.5 128.9 562.5 80.1q2 -66.4 44.9 -111.4 44.9 -42.9 111.4 -44.9 66.4 2 111.3 44.9Q873 13.7 875 80.1q0 48.8 -25.4 85.9 -25.4 39.1 -68.3 56.7v13.6q-2 105.5 -72.3 177.8 -72.3 70.3 -177.7 72.2H343.8q-52.8 2 -87.9 37.1t-37.1 87.9V625q42.9 17.6 68.3 56.6 25.4 37.2 25.4 86 -2 66.4 -44.9 111.3 -44.9 43 -111.3 44.9Q89.8 921.9 44.9 878.9 2 834 0 767.6q0 -48.8 25.4 -86 25.4 -39 68.4 -56.6V222.7Q50.8 205.1 25.4 166 0 128.9 0 80.1 2 13.7 44.9 -31.3q44.9 -42.9 111.4 -44.9 66.4 2 111.3 44.9 42.9 45 44.9 111.4zm453.1 0q-3.9 -43 -46.8 -46.9 -43 3.9 -46.9 46.9 3.9 42.9 46.9 46.9 42.9 -4 46.8 -46.9zM156.3 814.5q42.9 -4 46.8 -46.9 -3.9 -43 -46.8 -46.9 -43 3.9 -46.9 46.9 3.9 42.9 46.9 46.9z"/></svg>