<svg height="1000" width="1250" xmlns="http://www.w3.org/2000/svg"><path d="M767.6 -74.2q-25.4 -5.9 -48.8 5.8 -21.5 11.8 -29.3 37.1l-250 875.1q-5.9 25.3 5.8 48.8 11.7 21.5 37.1 29.3 25.4 5.8 48.9 -5.9 21.4 -11.7 29.2 -37.1l250 -875q5.9 -25.4 -5.8 -48.8Q793 -66.4 767.6 -74.2zm156.2 234.4q-17.5 19.5 -17.5 44.9t17.5 44.9l175.8 173.8L923.8 597.7q-17.5 19.5 -17.5 44.9t17.5 44.9q19.6 17.6 45 17.6t44.9 -17.6l218.7 -218.7q17.6 -19.6 17.6 -45t-17.6 -44.9L1013.7 160.2q-19.6 -17.6 -44.9 -17.6t-45 17.6zm-597.6 0q-19.6 -17.6 -44.9 -17.6 -25.4 0 -45 17.6L17.6 378.9Q0 398.4 0 423.8t17.6 45l218.7 218.7q19.6 17.6 45 17.6t44.9 -17.6q17.6 -19.5 17.6 -44.9t-17.6 -44.9L150.4 423.8 326.2 250q17.6 -19.5 17.6 -44.9t-17.6 -44.9z"/></svg>