<svg height="1000" width="1000" xmlns="http://www.w3.org/2000/svg"><path d="M597.7 -72.3q25.3 13.7 27.3 43v78.1h31.3q105.4 2 177.7 72.3 70.3 72.3 72.3 177.7V625q42.9 17.6 68.3 56.6 25.4 37.2 25.4 86 -2 66.4 -44.9 111.3 -44.9 43 -111.3 44.9 -66.5 -1.9 -111.4 -44.9Q689.5 834 687.5 767.6q0 -48.8 25.4 -86 25.4 -39 68.4 -56.6V298.8q-2 -52.7 -37.2 -87.9t-87.8 -37.1H625V252q-2 29.3 -27.3 42.9 -27.4 9.8 -50.8 -7.8L390.6 146.5Q375 132.8 375 111.3t15.6 -35.1L546.9 -64.5q23.4 -17.5 50.8 -7.8zM203.1 80.1q-3.9 -43 -46.8 -46.9 -43 3.9 -46.9 46.9 3.9 42.9 46.9 46.9 42.9 -4 46.8 -46.9zm15.7 142.6V625 222.7 625q42.9 17.6 68.3 56.6 25.4 37.2 25.4 86 -2 66.4 -44.9 109.4 -44.9 44.9 -111.3 46.8Q89.8 921.9 44.9 877 2 834 0 767.6q0 -48.8 25.4 -86 25.4 -39 68.4 -56.6V222.7Q50.8 205.1 25.4 166 0 128.9 0 80.1 2 13.7 44.9 -31.3q44.9 -42.9 111.4 -44.9 66.4 2 111.3 44.9 42.9 45 44.9 111.4 0 48.8 -25.4 85.9 -25.4 39.1 -68.3 56.7zm-15.7 544.9q-3.9 -43 -46.8 -46.9 -43 3.9 -46.9 46.9 3.9 42.9 46.9 46.9 42.9 -4 46.8 -46.9zm640.7 46.9q42.9 -4 46.8 -46.9 -3.9 -43 -46.8 -46.9 -43 3.9 -46.9 46.9 3.9 42.9 46.9 46.9z"/></svg>