<svg height="1000" width="1000" xmlns="http://www.w3.org/2000/svg"><path d="M1000 80.1q-2 52.7 -74.2 93.7 -89.9 48.9 -240.3 60.6 -9.7 -5.9 -21.4 -9.8Q544.9 175.8 375 173.8q-23.4 0 -46.9 2l-3.9 -2Q252 132.8 250 80.1q3.9 -66.4 109.4 -111.4Q464.8 -74.2 625 -76.2q160.2 2 265.6 44.9 105.5 45 109.4 111.4zM314.5 238.3q29.3 -2 60.5 -2 91.8 0 168 17.6 78.1 15.6 130.8 43 74.2 41 76.2 95.7 0 11.7 -3.9 23.4 -15.6 39.1 -68.4 68.4l-1.9 1.9q-52.8 29.3 -130.9 45Q468.8 548.8 375 548.8 195.3 546.9 85.9 492.2q-5.8 -3.9 -11.7 -5.9Q2 445.3 0 392.6q2 -52.8 70.3 -91.8T250 246.1q31.3 -5.9 64.5 -7.8zm498 154.3q-3.9 -64.5 -46.9 -103.5 84 -13.7 148.5 -41.1 48.8 -19.5 85.9 -48.8v68.4q-2 58.6 -85.9 99.6 -43 21.5 -101.6 35.1v-9.7zM750 580.1q-2 52.7 -74.2 93.7l-7.8 3.9q-2 0 -3.9 2Q554.7 734.4 375 736.3q-93.7 0 -169.9 -17.5Q127 703.1 74.2 673.8 2 632.8 0 580.1v-68.4q37.1 29.3 85.9 48.8 119.2 48.9 289.1 50.8 169.9 -1.9 289.1 -50.8 23.4 -9.7 44.9 -21.4 17.6 -9.8 33.2 -21.5 1.9 -2 5.8 -3.9 0 -2 2 -2v68.4zm62.5 0v-62.5 62.5V466.8q56.6 -11.7 101.6 -31.3Q962.9 416 1000 386.7v68.4q0 31.2 -29.3 60.5 -50.8 48.9 -158.2 74.2v-9.7zM375 798.8Q544.9 796.9 664.1 748q48.8 -19.5 85.9 -48.8v68.4Q746.1 834 640.6 878.9q-105.4 43 -265.6 44.9Q214.8 921.9 109.4 878.9 3.9 834 0 767.6v-68.4q37.1 29.3 85.9 48.8 119.2 48.9 289.1 50.8z"/></svg>