<svg height="1000" width="750" xmlns="http://www.w3.org/2000/svg"><path d="M498 2q5.9 -25.4 -7.8 -46.9 -11.7 -21.5 -37.1 -29.3 -27.3 -5.9 -48.8 7.8 -19.5 11.7 -27.3 37.1l-21.5 87.9q-128.9 29.3 -209 128.9 -82 99.6 -84 236.3 0 86 35.2 158.2 35.1 74.3 95.7 125l-35.2 138.7q-5.9 25.4 7.8 46.9 11.7 21.5 37.1 29.3 27.4 5.8 48.9 -7.8 19.5 -11.8 27.3 -37.1l25.4 -101.6q27.3 9.8 54.7 15.6l-13.7 54.7q-5.9 25.4 7.8 46.9 11.7 21.5 37.1 29.3 27.4 5.8 48.9 -7.8Q459 902.3 466.8 877l21.5 -82.1q97.6 -13.6 173.8 -70.3 21.5 -17.6 25.4 -41 3.9 -25.4 -11.7 -46.9 -17.6 -21.5 -41 -25.4 -25.4 -1.9 -46.9 11.7 -31.3 23.5 -66.4 37.2L627 236.3q29.3 -1.9 48.8 -25.4 13.7 -21.4 11.7 -46.8Q683.6 140.6 662.1 123h-1.9l-3.9 -3.9L685.5 2q5.9 -25.4 -7.8 -46.9Q666 -66.4 640.6 -74.2q-27.3 -5.9 -48.8 7.8 -19.5 11.7 -27.3 37.1L541 64.5Q513.7 56.6 486.3 52.7L498 2zM318.4 203.1l-89.9 359.4 89.9 -359.4 -89.9 359.4q-39 -60.5 -41 -138.7 0 -72.2 37.1 -128.9 35.2 -58.6 93.8 -91.8zm17.5 449.2L455.1 173.8 335.9 652.3 455.1 173.8q29.3 2 56.6 9.8L390.6 669.9q-29.3 -5.8 -54.7 -17.6z"/></svg>