<svg height="1000" width="1000" xmlns="http://www.w3.org/2000/svg"><path d="M500 798.8q140.6 -1.9 252 -54.7Q865.2 689.5 931.6 597.7 998 505.9 1000 392.6 998 279.3 931.6 187.5T752 41Q640.6 -11.7 500 -13.7q-140.6 2 -252 54.7Q134.8 95.7 68.4 187.5T0 392.6q2 134.7 93.8 236.3Q84 701.2 50.8 752q-15.6 27.3 -29.3 41 -5.9 7.8 -9.8 11.7 0 1.9 -1.9 1.9v2Q-3.9 822.3 2 841.8q9.7 19.5 29.3 19.5 85.9 -3.9 160.1 -37.1Q259.8 793 296.9 763.7q93.7 35.1 203.1 35.1zm39.1 -609.3v27.3 -27.3 27.3q21.4 3.9 41 9.8 33.2 11.7 27.3 46.8 -11.7 33.2 -46.9 27.4Q527.3 293 500 291q-25.4 0 -43 9.8 -13.6 7.8 -11.7 17.6 -1.9 5.8 9.8 13.6 17.6 9.8 56.6 21.5h2q35.1 9.8 70.3 29.3 43 21.5 48.8 80.1 -3.9 62.5 -48.8 87.9 -21.5 13.7 -44.9 17.6v27.3q-3.9 35.2 -39.1 39.1 -35.2 -3.9 -39.1 -39.1v-27.3q-31.2 -7.9 -54.6 -17.6l-11.8 -3.9Q361.3 533.2 369.1 498q13.7 -33.2 48.9 -25.3 3.9 1.9 7.8 1.9l7.8 3.9q37.1 13.7 68.4 15.6 25.3 0 41 -9.7 11.7 -5.9 11.7 -19.6Q556.6 457 543 449.2q-17.6 -11.7 -54.7 -21.5l-3.9 -1.9Q449.2 418 416 398.4q-43 -19.5 -48.8 -78.1 3.9 -62.5 50.8 -85.9 19.5 -11.7 42.9 -17.6v-27.3q3.9 -35.2 39.1 -39.1 35.2 3.9 39.1 39.1z"/></svg>