<svg height="1000" width="1000" xmlns="http://www.w3.org/2000/svg"><path d="M500 798.8q140.6 -1.9 252 -54.7Q865.2 689.5 931.6 597.7 998 505.9 1000 392.6 998 279.3 931.6 187.5T752 41Q640.6 -11.7 500 -13.7q-140.6 2 -252 54.7Q134.8 95.7 68.4 187.5T0 392.6q2 134.7 93.8 236.3Q84 701.2 50.8 752q-15.6 27.3 -29.3 41 -5.9 7.8 -9.8 11.7 0 1.9 -1.9 1.9v2Q-3.9 822.3 2 841.8q9.7 19.5 29.3 19.5 85.9 -3.9 160.1 -37.1Q259.8 793 296.9 763.7q93.7 35.1 203.1 35.1zM437.5 236.3q2 -29.3 31.3 -31.2h62.5q29.2 1.9 31.2 31.2v93.8h93.8q29.2 1.9 31.2 31.2v62.5q-2 29.3 -31.2 31.3h-93.8v93.7q-2 29.3 -31.2 31.3h-62.5q-29.3 -2 -31.3 -31.3v-93.7h-93.7q-29.3 -2 -31.3 -31.3v-62.5q2 -29.3 31.3 -31.2h93.7v-93.8z"/></svg>