<svg height="1000" width="1250" xmlns="http://www.w3.org/2000/svg"><path d="M406.3 611.3q171.8 -3.9 287.1 -101.5Q808.6 414.1 812.5 267.6 808.6 121.1 693.4 25.4 578.1 -72.3 406.3 -76.2 234.4 -72.3 119.1 25.4 3.9 121.1 0 267.6q2 115.2 78.1 201.2Q66.4 498 48.8 517.6q-13.6 17.6 -25.4 27.3l-7.8 7.8 -1.9 2h-2Q-3.9 568.4 2 589.8q7.8 19.6 29.3 21.5 66.4 -1.9 121 -23.4 27.4 -11.7 48.9 -23.4 91.8 44.9 205.1 46.8zM875 267.6q-5.9 167.9 -125 277.3 -121.1 109.4 -296.9 127 37.1 111.3 142.6 179.7 105.5 70.3 248.1 72.2 113.2 -1.9 205 -46.8 21.5 11.7 48.9 23.4 54.6 21.5 121.1 23.4 21.4 -1.9 29.2 -21.5 5.9 -21.4 -11.7 -35.1v-2h-1.9l-7.8 -7.8q-11.8 -9.7 -25.4 -27.3 -17.6 -21.5 -29.3 -48.8 76.1 -86 78.1 -201.2 -3.9 -138.7 -109.4 -234.4T873 236.3q2 15.7 2 31.3z"/></svg>