<svg height="1000" width="1250" xmlns="http://www.w3.org/2000/svg"><path d="M812.5 267.6q-3.9 146.5 -119.1 242.2Q578.1 607.4 406.3 611.3 293 609.4 201.2 564.5q-21.5 11.7 -48.9 23.4 -54.6 21.5 -121 23.4Q9.8 609.4 2 589.8q-5.9 -21.4 11.7 -35.1v-2h1.9l7.8 -7.8q11.8 -9.7 27.4 -27.3 15.6 -21.5 27.3 -48.8Q2 382.8 0 267.6 3.9 121.1 119.1 25.4 234.4 -72.3 406.3 -76.2q171.8 3.9 287.1 101.6 115.2 95.7 119.1 242.2zM453.1 671.9Q628.9 654.3 750 544.9 869.1 435.5 875 267.6q0 -15.6 -2 -29.3 162.2 11.7 267.6 107.4T1250 580.1q-2 115.2 -78.1 201.2 11.7 29.2 29.3 48.8 13.6 17.6 25.4 27.3l7.8 7.8 1.9 2h2q15.6 13.7 9.7 35.1 -7.8 21.5 -29.2 21.5 -66.5 -1.9 -121.1 -23.4 -27.4 -11.7 -48.9 -23.4 -91.8 44.9 -205 46.8Q701.2 921.9 595.7 851.6 490.2 783.2 453.1 671.9zM445.3 64.5q-3.9 -35.2 -39 -39.1 -35.2 3.9 -39.1 39.1v27.3q-23.4 3.9 -43 17.6 -46.9 23.4 -50.8 84 5.9 58.6 48.9 80 35.1 19.6 68.3 27.4l3.9 1.9q37.1 9.8 54.7 19.6 13.7 9.7 11.7 15.6 0 15.6 -11.7 21.5 -15.6 9.7 -41 9.7Q377 367.2 339.8 351.6l-15.6 -3.9q-35.1 -7.9 -48.8 23.4 -7.8 35.2 25.4 50.8l11.7 3.9q23.4 9.7 54.7 15.6v29.3q3.9 35.2 39.1 39.1 35.1 -3.9 39 -39.1v-27.3q23.5 -3.9 44.9 -17.6 45 -25.4 48.9 -87.9 -5.9 -58.6 -48.9 -82Q455.1 236.3 418 226.6h-2Q380.9 216.8 361.3 207q-11.7 -9.7 -9.7 -13.6 -2 -9.8 11.7 -17.6 17.6 -9.8 43 -9.8 27.3 0 60.5 9.8 35.2 5.8 46.9 -27.4 5.8 -35.1 -27.4 -48.8 -19.5 -3.9 -41 -7.8V64.5z"/></svg>