<svg height="1000" width="1000" xmlns="http://www.w3.org/2000/svg"><path d="M500 798.8q140.6 -1.9 252 -54.7Q865.2 689.5 931.6 597.7 998 505.9 1000 392.6 998 279.3 931.6 187.5T752 41Q640.6 -11.7 500 -13.7q-140.6 2 -252 54.7Q134.8 95.7 68.4 187.5T0 392.6q2 134.7 93.8 236.3Q84 701.2 50.8 752q-15.6 27.3 -29.3 41 -5.9 7.8 -9.8 11.7 0 1.9 -1.9 1.9v2Q-3.9 822.3 2 841.8q9.7 19.5 29.3 19.5 85.9 -3.9 160.1 -37.1Q259.8 793 296.9 763.7q93.7 35.1 203.1 35.1zm-312.5 -459q0 -31.2 21.5 -50.7 19.5 -21.5 50.8 -21.5h37.1q29.3 1.9 31.2 31.2 -1.9 29.3 -31.2 31.3h-37.1q-9.8 0 -9.8 9.7 0 4 3.9 7.9l58.6 37.1q31.3 23.4 31.3 60.5 0 31.3 -21.5 50.8 -19.6 21.5 -50.8 21.5h-52.7q-29.3 -2 -31.3 -31.3 2 -29.3 31.3 -31.2h52.7q9.8 0 9.8 -9.8 0 -3.9 -4 -7.8l-58.5 -37.1Q189.5 377 187.5 339.8zm541 -72.2h37.1 -37.1 37.1q29.3 1.9 31.3 31.2 -2 29.3 -31.3 31.3h-37.1q-9.7 0 -9.7 9.7 0 4 3.9 7.9l58.6 37.1q29.2 23.4 31.2 60.5 0 31.3 -21.5 50.8 -19.5 21.5 -50.8 21.5h-52.7q-29.3 -2 -31.2 -31.3 1.9 -29.3 31.2 -31.2h52.7q9.8 0 9.8 -9.8 0 -3.9 -3.9 -7.8l-58.6 -37.1Q658.2 377 656.3 339.8q0 -31.2 21.4 -50.7 19.6 -21.5 50.8 -21.5zm-296.9 11.7l68.4 91.8 -68.4 -91.8 68.4 91.8 68.4 -91.8q13.6 -15.6 35.1 -9.8 21.5 7.8 21.5 29.3v187.5q-2 29.3 -31.2 31.3 -29.3 -2 -31.3 -31.3v-93.7l-37.1 50.8q-9.8 11.7 -25.4 11.7t-25.4 -11.7l-37.1 -50.8v93.7q-2 29.3 -31.2 31.3Q377 515.6 375 486.3V298.8q2 -21.5 21.5 -29.3 21.5 -5.8 35.1 9.8z"/></svg>