<svg height="1000" width="1250" xmlns="http://www.w3.org/2000/svg"><path d="M76.2 -66.4Q39.1 -89.8 9.8 -58.6q-23.5 37.1 7.8 66.4l1156.2 906.3q37.1 23.4 66.4 -7.8 23.5 -37.2 -7.8 -66.5L1002 660.2q119.1 -111.4 123 -267.6 -2 -113.3 -68.4 -205.1T877 41Q765.6 -11.7 625 -13.7 421.9 -9.8 283.2 95.7L76.2 -66.4zm751.9 830.1l-666 -525.4 666 525.4 -666 -525.4Q125 310.5 125 392.6q2 134.7 93.8 236.3 -9.8 72.3 -43 123.1 -15.6 27.3 -29.3 41 -5.9 7.8 -9.8 11.7 0 1.9 -1.9 1.9v2q-13.7 13.7 -7.8 33.2 9.7 19.5 29.3 19.5 85.9 -3.9 160.1 -37.1Q384.8 793 421.9 763.7q93.7 35.1 203.1 35.1t203.1 -35.1z"/></svg>