<svg height="1000" width="1000" xmlns="http://www.w3.org/2000/svg"><path d="M687.5 111.3q0 43 -17.6 78.2l103.5 177.7q-70.3 76.2 -171.8 105.5L500 298.8 367.2 529.3q62.5 19.5 132.8 19.5 105.5 0 193.4 -44.9 87.9 -43 148.4 -119.1 17.6 -19.6 41 -23.5 25.4 -1.9 46.9 13.7 19.5 17.6 23.4 41 2 25.4 -13.6 46.9Q861.3 560.5 748 617.2q-113.2 54.7 -248 56.6 -103.5 0 -197.3 -35.1L193.4 830.1q-15.7 23.4 -39.1 37.1L44.9 919.9q-15.6 7.8 -29.3 0Q0 910.2 0 892.6V785.2q0 -25.4 13.7 -46.9L130.9 535.2Q91.8 502 60.5 462.9 44.9 441.4 46.9 416q3.9 -23.4 23.4 -41 21.5 -15.6 46.9 -13.7 23.4 3.9 41 23.5 17.6 21.5 35.2 39L330.1 189.5q-17.6 -35.2 -17.6 -78.2 2 -80 54.7 -132.8T500 -76.2q80.1 2 132.8 54.7t54.7 132.8zm41 582.1q95.7 -39.1 173.8 -103.6l86 148.5q11.7 21.5 11.7 46.9v107.4q0 17.6 -15.6 27.3 -13.7 7.8 -29.3 0L845.7 867.2q-23.4 -13.7 -39.1 -37.1L728.5 693.4zM500 173.8q27.3 0 44.9 -17.5 17.6 -17.6 17.6 -45T544.9 66.4 500 48.8t-44.9 17.6 -17.6 44.9 17.6 45 44.9 17.5z"/></svg>