<svg height="1000" width="1000" xmlns="http://www.w3.org/2000/svg"><path d="M500 923.8q136.7 -1.9 250 -66.4Q863.3 791 933.6 673.8q66.4 -119.1 66.4 -250t-66.4 -250Q863.3 56.6 750 -9.8 636.7 -74.2 500 -76.2q-136.7 2 -250 66.4Q136.7 56.6 66.4 173.8 0 293 0 423.8t66.4 250Q136.7 791 250 857.4q113.3 64.5 250 66.4zm99.6 -365.2L316.4 668 599.6 558.6 316.4 668q-29.3 7.8 -48.8 -11.7t-11.7 -48.9L365.2 324.2q9.8 -25.4 35.2 -35.1L683.6 179.7q29.3 -7.8 48.8 11.7t11.7 48.8L634.8 523.4q-9.8 25.4 -35.2 35.2zM562.5 423.8q0 -27.3 -17.6 -44.9Q527.3 361.3 500 361.3t-44.9 17.6 -17.6 44.9 17.6 45 44.9 17.5 44.9 -17.5 17.6 -45z"/></svg>