<svg height="1000" width="875" xmlns="http://www.w3.org/2000/svg"><path d="M312.5 48.8q0 -27.3 -17.6 -44.9Q277.3 -13.7 250 -13.7T205.1 3.9t-17.6 44.9v125h-125q-27.3 0 -44.9 17.6T0 236.3t17.6 45 44.9 17.5H250q27.3 0 44.9 -17.5t17.6 -45V48.8zm-250 500q-27.3 0 -44.9 17.6Q0 584 0 611.3t17.6 45 44.9 17.5h125v125q0 27.4 17.6 45t44.9 17.5 44.9 -17.5 17.6 -45V611.3q0 -27.3 -17.6 -44.9T250 548.8H62.5zm625 -500q0 -27.3 -17.6 -44.9Q652.3 -13.7 625 -13.7T580.1 3.9t-17.6 44.9v187.5q0 27.4 17.6 45t44.9 17.5h187.5q27.3 0 44.9 -17.5t17.6 -45 -17.6 -44.9 -44.9 -17.6h-125v-125zm-62.5 500q-27.3 0 -44.9 17.6 -17.6 17.6 -17.6 44.9v187.5q0 27.4 17.6 45t44.9 17.5 44.9 -17.5 17.6 -45v-125h125q27.3 0 44.9 -17.5t17.6 -45 -17.6 -44.9 -44.9 -17.6H625z"/></svg>