<svg height="1000" width="1250" xmlns="http://www.w3.org/2000/svg"><path d="M750 111.3v437.5V111.3v437.5H125V111.3h625zm-625 -125q-52.7 2 -87.9 37.1Q2 58.6 0 111.3v437.5q2 52.8 37.1 87.9t87.9 37.1h228.5L334 736.3H187.5q-27.3 0 -44.9 17.6T125 798.8t17.6 45 44.9 17.5h500q27.3 0 44.9 -17.5t17.6 -45 -17.6 -44.9 -44.9 -17.6H541l-19.5 -62.5H750q52.7 -1.9 87.9 -37.1T875 548.8V111.3Q873 58.6 837.9 23.4T750 -13.7H125zm906.3 0q-39.1 2 -66.5 27.4Q939.5 41 937.5 80.1v687.5q2 39 27.3 66.4 27.4 25.4 66.5 27.3h125q39 -1.9 66.4 -27.3 25.3 -27.4 27.3 -66.4V80.1Q1248 41 1222.7 13.7q-27.4 -25.4 -66.4 -27.4h-125zm31.2 125h62.5 -62.5 62.5q29.3 2 31.3 31.3 -2 29.3 -31.3 31.2h-62.5q-29.3 -1.9 -31.2 -31.2 1.9 -29.3 31.2 -31.3zm-31.2 156.3q1.9 -29.3 31.2 -31.3h62.5q29.3 2 31.3 31.3 -2 29.3 -31.3 31.2h-62.5q-29.3 -1.9 -31.2 -31.2zm62.5 312.5q27.3 0 44.9 17.6 17.6 17.5 17.6 44.9t-17.6 44.9 -44.9 17.6 -45 -17.6 -17.5 -44.9 17.5 -44.9 45 -17.6z"/></svg>