<svg height="1000" width="1000" xmlns="http://www.w3.org/2000/svg"><path d="M0 423.8q2 -136.7 66.4 -250Q132.8 60.5 250 -9.8q119.1 -66.4 250 -66.4t250 66.4q117.2 70.3 183.6 183.6 64.4 113.3 66.4 250 -2 136.7 -66.4 250Q867.2 787.1 750 857.4q-119.1 66.4 -250 66.4T250 857.4Q132.8 787.1 66.4 673.8 2 560.5 0 423.8zm500 62.5q-27.3 0 -44.9 -17.5 -17.6 -17.6 -17.6 -45t17.6 -44.9T500 361.3t44.9 17.6 17.6 44.9 -17.6 45T500 486.3zM312.5 423.8q0 50.8 25.4 93.8 25.4 42.9 68.4 68.3 44.9 25.4 93.7 25.4t93.8 -25.4q42.9 -25.4 68.3 -68.3t25.4 -93.8 -25.4 -93.7 -68.3 -68.4q-45 -25.4 -93.8 -25.4t-93.7 25.4q-43 25.4 -68.4 68.4t-25.4 93.7zm-125 -31.2q3.9 -107.4 87.9 -193.4 85.9 -84 193.4 -87.9Q498 109.4 500 80.1 498 50.8 468.8 48.8q-66.5 0 -129 29.3 -60.5 29.3 -107.4 78.2 -48.8 46.8 -78.1 107.4Q125 326.2 125 392.6q2 29.3 31.3 31.2 29.2 -1.9 31.2 -31.2z"/></svg>