<svg height="1000" width="1000" xmlns="http://www.w3.org/2000/svg"><path d="M503.9 -21.5Q500 -39.1 482.4 -43q-66.4 -9.7 -125 21.5L212.9 56.6Q154.3 87.9 123 148.4L52.7 296.9Q23.4 357.4 35.2 423.8L62.5 584q11.7 66.4 60.5 113.3l117.2 115.2q48.9 44.9 115.3 54.7l162.1 23.4q66.4 9.8 125 -21.5L787.1 791q58.6 -31.2 89.9 -91.8l70.3 -148.4q29.3 -60.6 17.5 -125 -3.9 -17.6 -19.5 -21.5Q869.1 392.6 814.5 339.8q-54.7 -50.7 -74.3 -125 -5.8 -23.4 -29.3 -29.3 -82 -13.6 -138.6 -70.3T502 -21.5h1.9zm-97.6 226.6q27.3 0 44.9 17.6 17.6 17.5 17.6 44.9t-17.6 44.9 -44.9 17.6 -45 -17.6 -17.5 -44.9 17.5 -44.9 45 -17.6zm-125 375q0 -27.4 17.5 -44.9 17.6 -17.6 45 -17.6t44.9 17.6 17.6 44.9T388.7 625t-44.9 17.6 -45 -17.6 -17.5 -44.9zm437.5 -125q27.3 0 44.9 17.6 17.6 17.5 17.6 44.9t-17.6 44.9 -44.9 17.6 -45 -17.6 -17.5 -44.9 17.5 -44.9 45 -17.6z"/></svg>