<svg height="1000" width="1000" xmlns="http://www.w3.org/2000/svg"><path d="M500 923.8q136.7 -1.9 250 -66.4Q863.3 791 933.6 673.8q66.4 -119.1 66.4 -250t-66.4 -250Q863.3 56.6 750 -9.8 636.7 -74.2 500 -76.2q-136.7 2 -250 66.4Q136.7 56.6 66.4 173.8 0 293 0 423.8t66.4 250Q136.7 791 250 857.4q113.3 64.5 250 66.4zM388.7 535.2q48.8 44.9 111.3 44.9t111.3 -44.9q33.2 -27.4 64.5 0 27.3 33.2 0 66.4Q599.6 673.8 500 673.8T322.3 601.6Q250 523.4 250 423.8T322.3 248Q400.4 173.8 500 173.8T675.8 248q27.3 33.3 0 64.5 -33.2 27.3 -64.5 0Q562.5 267.6 500 267.6t-111.3 44.9q-44.9 48.8 -44.9 111.3t44.9 111.4z"/></svg>