<svg height="1000" width="1250" xmlns="http://www.w3.org/2000/svg"><path d="M125 236.3q2 -105.4 72.3 -177.7Q269.5 -11.7 375 -13.7h500q105.5 2 177.7 72.3 70.3 72.3 72.3 177.7v66.4q-54.7 11.8 -89.8 52.8 -33.2 41 -35.2 99.6v93.7H250v-93.7q-2 -58.6 -35.2 -99.6 -35.1 -41 -89.8 -52.8v-66.4zm937.5 218.8q3.9 -64.5 62.5 -87.9 15.6 -5.9 31.3 -5.9 39 2 66.4 27.4 25.3 27.3 27.3 66.4v343.7q0 27.4 -17.6 45t-44.9 17.5H1125q-27.3 0 -44.9 -17.5t-17.6 -45h-875q0 27.4 -17.6 45T125 861.3H62.5q-27.3 0 -44.9 -17.5T0 798.8V455.1Q2 416 27.3 388.7q27.4 -25.4 66.5 -27.4 15.6 0 31.2 5.9 58.6 23.4 62.5 87.9v156.2h875V455.1z"/></svg>