<svg height="1000" width="1250" xmlns="http://www.w3.org/2000/svg"><path d="M187.5 361.3v62.5 -62.5 375q0 27.4 17.6 45t44.9 17.5h62.5q27.3 0 44.9 -17.5t17.6 -45V564.5q29.3 19.5 62.5 31.2v46.9q2 29.3 31.3 31.2Q498 671.9 500 642.6v-33.2q15.6 1.9 31.3 1.9t31.2 -1.9v33.2q2 29.3 31.3 31.2Q623 671.9 625 642.6v-46.9q33.2 -11.7 62.5 -31.2v171.8q0 27.4 17.6 45t44.9 17.5h62.5q27.3 0 44.9 -17.5t17.6 -45V423.8l62.5 62.5V584q0 27.3 15.6 50.8l82.1 123q27.3 39.1 76.1 41 35.2 0 58.6 -21.5 25.4 -19.5 33.2 -52.7l39.1 -199.2q7.8 -39.1 -15.6 -72.3l-7.8 -9.7V283.2q-4 -43 -46.9 -46.9 -43 3.9 -46.9 46.9v27.3L1021.5 166q-41 -54.7 -99.6 -85.9Q861.3 48.8 793 48.8H281.3q-99.7 2 -166.1 68.4t-68.3 166v105.5Q2 425.8 0 486.3v35.2q2 25.4 27.3 27.3 48.9 -1.9 80.1 -33.2t33.2 -80.1V283.2q2 -74.2 60.6 -115.2 -13.7 31.2 -13.7 68.3v125zm906.3 218.8q1.9 -29.3 31.2 -31.3 29.3 2 31.3 31.3 -2 29.3 -31.3 31.2 -29.3 -1.9 -31.2 -31.2zM326.2 250q-13.7 -13.7 -13.7 -31.2 3.9 -41.1 44.9 -45h347.7q41 3.9 44.9 45 0 17.5 -13.7 31.2l-44.9 44.9Q625 359.4 531.3 361.3q-93.8 -1.9 -160.2 -66.4L326.2 250z"/></svg>