<svg height="1000" width="1000" xmlns="http://www.w3.org/2000/svg"><path d="M875 136.7L982.4 31.3 875 136.7 982.4 31.3q17.6 -19.6 17.6 -45t-17.6 -44.9q-19.5 -17.6 -44.9 -17.6t-44.9 17.6L787.1 48.8H312.5v125h349.6L250 585.9V-13.7q0 -27.3 -17.6 -44.9t-44.9 -17.6 -44.9 17.6T125 -13.7v62.5H62.5q-27.3 0 -44.9 17.6T0 111.3t17.6 45 44.9 17.5H125v500q2 52.8 37.1 87.9t87.9 37.1h437.5v-125H337.9L750 261.7v599.6q0 27.4 17.6 45t44.9 17.5 44.9 -17.5 17.6 -45v-62.5h62.5q27.3 0 44.9 -17.5t17.6 -45 -17.6 -44.9 -44.9 -17.6H875V136.7z"/></svg>