<svg height="1000" width="1000" xmlns="http://www.w3.org/2000/svg"><path d="M500 -76.2q27.3 0 44.9 17.6 17.6 17.6 17.6 44.9V5.9Q703.1 29.3 798.8 125q95.7 97.7 119.2 236.3h19.5q27.3 0 44.9 17.6t17.6 44.9 -17.6 45 -44.9 17.5H918Q894.5 627 798.8 722.7q-97.6 95.7 -236.3 119.1v19.5q0 27.4 -17.6 45T500 923.8t-44.9 -17.5 -17.6 -45v-19.5Q296.9 818.4 201.2 722.7T82 486.3H62.5q-27.3 0 -44.9 -17.5T0 423.8t17.6 -44.9 44.9 -17.6H82Q105.5 220.7 201.2 125T437.5 5.9v-19.6q0 -27.3 17.6 -44.9T500 -76.2zM209 486.3q19.5 86 82 146.5 60.6 62.5 146.5 82v-41q0 -27.3 17.6 -44.9T500 611.3t44.9 17.6 17.6 44.9v41q85.9 -19.5 146.5 -82 62.5 -60.5 82 -146.5h-41q-27.3 0 -44.9 -17.5t-17.6 -45 17.6 -44.9T750 361.3h41Q771.5 275.4 709 214.8q-60.6 -62.5 -146.5 -82v41q0 27.4 -17.6 45T500 236.3t-44.9 -17.5 -17.6 -45v-41q-85.9 19.5 -146.5 82 -62.5 60.6 -82 146.5h41q27.3 0 44.9 17.6t17.6 44.9 -17.6 45T250 486.3h-41zm291 -125q27.3 0 44.9 17.6 17.6 17.6 17.6 44.9t-17.6 45T500 486.3t-44.9 -17.5 -17.6 -45 17.6 -44.9T500 361.3z"/></svg>