<svg height="1000" width="1125" xmlns="http://www.w3.org/2000/svg"><path d="M603.5 130.9q35.2 -23.5 37.1 -66.4 0 -33.2 -23.4 -54.7 -21.5 -23.5 -54.7 -23.5T507.8 9.8q-23.4 21.5 -23.4 54.7 1.9 44.9 37.1 66.4L410.2 355.5q-15.7 25.4 -43 33.2 -27.4 5.8 -52.7 -13.7L140.6 236.3q15.7 -19.5 15.7 -46.8 0 -33.2 -23.5 -54.7Q111.3 111.3 78.1 111.3t-54.7 23.5Q0 156.3 0 189.5t23.4 54.6q21.5 23.5 54.7 23.5h2L168 757.8q9.7 46.9 42.9 74.2 35.2 29.3 80.1 29.3h543q44.9 0 80.1 -29.3 33.2 -27.3 42.9 -74.2l87.9 -490.2h2q33.2 0 54.7 -23.5 23.4 -21.4 23.4 -54.6t-23.4 -54.7q-21.5 -23.5 -54.7 -23.5t-54.7 23.5q-23.4 21.5 -23.4 54.7 0 27.3 15.6 46.8L810.5 375q-25.3 19.5 -52.7 13.7 -27.3 -7.8 -43 -33.2L603.5 130.9z"/></svg>