<svg height="1000" width="1250" xmlns="http://www.w3.org/2000/svg"><path d="M890.6 -76.2q-72.2 2 -121.1 50.8Q720.7 23.4 718.8 95.7v56.6L25.4 687.5Q3.9 703.1 0 728.5q-2 25.4 13.7 46.9 15.6 19.5 41 23.4 25.4 2 46.9 -13.6L246.1 673.8h259.8l91.8 220.7q19.5 39.1 60.5 25.4 39.1 -19.5 25.4 -60.5L607.4 673.8h86l91.8 220.7q19.5 39.1 60.5 25.4 39.1 -19.5 25.4 -60.5l-82 -199.2Q910.2 625 984.4 527.3q76.1 -97.6 78.1 -228.5V158.2l158.2 -39.1q25.4 -9.7 21.5 -37.1 -11.7 -42.9 -44.9 -68.3 -31.3 -27.4 -76.2 -27.4h-97.7Q972.7 -74.2 890.6 -76.2zm0 125q43 3.9 46.9 46.9 -3.9 43 -46.9 46.9 -42.9 -3.9 -46.8 -46.9 3.9 -43 46.8 -46.9z"/></svg>