<svg height="1000" width="875" xmlns="http://www.w3.org/2000/svg"><path d="M187.5 423.8Q191.4 291 279.3 203.1 367.2 115.2 500 111.3q123 2 209 80.1 19.5 17.6 44.9 15.6t43 -21.5 15.6 -44.9T791 97.7Q671.9 -9.8 500 -13.7q-123 2 -220.7 60.6Q179.7 103.5 123 203.1 64.5 300.8 62.5 423.8q2 123.1 60.5 220.7 56.7 99.6 156.3 156.3Q377 859.4 500 861.3 671.9 857.4 791 750q19.5 -17.6 21.5 -43t-15.6 -44.9q-19.6 -19.5 -43 -21.5 -25.4 -1.9 -44.9 15.7 -86 78.1 -209 80v-205q3.9 -41.1 44.9 -45 13.7 0 25.4 7.8l19.5 13.7q23.5 13.7 46.9 7.8 25.4 -3.9 41 -25.4 13.7 -23.4 7.8 -46.8Q681.6 418 660.2 402.3l-19.6 -11.7q-42.9 -29.3 -95.7 -29.3 -35.1 0 -68.3 13.7 -15.7 -13.7 -39.1 -13.7 -27.3 0 -44.9 17.6T375 423.8v287.1q-84 -39 -134.8 -113.2Q189.5 521.5 187.5 423.8z"/></svg>