<svg height="1000" width="875" xmlns="http://www.w3.org/2000/svg"><path d="M375 48.8v125 -125 125q0 27.4 17.6 45t44.9 17.5h125q27.3 0 44.9 -17.5t17.6 -45v-125Q625 21.5 607.4 3.9t-44.9 -17.6h-125q-27.3 0 -44.9 17.6T375 48.8zM162.1 328.1q-23.4 13.7 -29.3 37.1 -5.8 25.4 5.9 48.9l62.5 107.4q13.6 23.4 37.1 29.3 25.4 5.8 48.8 -5.9l107.4 -62.5q23.5 -13.6 29.3 -39 5.9 -23.5 -5.8 -46.9L355.5 289.1q-13.7 -23.5 -39.1 -29.3 -23.4 -5.9 -46.9 5.8l-107.4 62.5zm400.4 -29.3q-27.3 0 -44.9 17.6Q500 334 500 361.3v125q0 27.4 17.6 45t44.9 17.5h125q27.3 0 44.9 -17.5t17.6 -45v-125q0 -27.3 -17.6 -44.9t-44.9 -17.6h-125zm125 312.5q-27.3 0 -44.9 17.6Q625 646.5 625 673.8v125q0 27.4 17.6 45t44.9 17.5h125q27.3 0 44.9 -17.5t17.6 -45v-125q0 -27.3 -17.6 -44.9t-44.9 -17.6h-125zm-375 62.5v125 -125 125q0 27.4 17.6 45t44.9 17.5h125q27.3 0 44.9 -17.5t17.6 -45v-125q0 -27.3 -17.6 -44.9T500 611.3H375q-27.3 0 -44.9 17.6t-17.6 44.9zm-250 -62.5q-27.3 0 -44.9 17.6Q0 646.5 0 673.8v125q0 27.4 17.6 45t44.9 17.5h125q27.3 0 44.9 -17.5t17.6 -45v-125q0 -27.3 -17.6 -44.9t-44.9 -17.6h-125z"/></svg>