<svg height="1000" width="1125" xmlns="http://www.w3.org/2000/svg"><path d="M568.4 19.5l152.3 56.7L568.4 19.5l152.3 56.7 -158.2 62.5L404.3 76.2 556.6 19.5q5.9 -1.9 11.8 0zm-302.8 86v218.7V105.5v218.7q-3.9 0 -7.8 2L70.3 396.5Q3.9 425.8 0 500v232.4q2 68.4 66.4 99.6l187.5 82.1q43 19.5 87.9 0l220.7 -95.7 222.7 95.7q42.9 19.5 87.8 0L1060.5 832q62.5 -29.3 64.5 -99.6V500q-3.9 -74.2 -70.3 -103.5L867.2 326.2q-3.9 -2 -7.8 -2V105.5Q855.5 31.3 789.1 2L601.6 -68.4q-39.1 -15.6 -78.2 0L335.9 2q-66.4 29.3 -70.3 103.5zm500 230.4l-160.1 60.6 160.1 -60.6 -160.1 60.6V222.7l160.1 -62.5v175.7zm-462.9 78.2l152.4 58.6L302.7 414.1l152.4 58.6 -158.2 60.5L138.7 472.7 291 414.1q5.9 -2 11.7 0zm37.1 398.4V617.2v195.3V617.2L500 554.7v187.5l-160.2 70.3zM822.3 414.1q5.8 -2 11.7 0l152.3 58.6 -158.2 60.5L669.9 472.7l152.4 -58.6zm199.2 332l-150.4 66.4 150.4 -66.4 -150.4 66.4V617.2l160.2 -62.5v177.7q0 9.8 -9.8 13.7z"/></svg>