<svg height="1000" width="875" xmlns="http://www.w3.org/2000/svg"><path d="M875 80.1v93.7V80.1v93.7q-3.9 66.4 -128.9 111.4Q623 328.1 437.5 330.1 252 328.1 128.9 285.2 3.9 240.2 0 173.8V80.1Q3.9 13.7 128.9 -31.3 252 -74.2 437.5 -76.2q185.5 2 308.6 44.9 125 45 128.9 111.4zM767.6 343.8Q830.1 322.3 875 287.1v199.2q-3.9 66.4 -128.9 111.4Q623 640.6 437.5 642.6 252 640.6 128.9 597.7 3.9 552.7 0 486.3V287.1q44.9 35.2 107.4 56.7 136.7 46.8 330.1 48.8 193.4 -2 330.1 -48.8zM0 599.6q44.9 35.2 107.4 56.7 136.7 46.8 330.1 48.8 193.4 -2 330.1 -48.8Q830.1 634.8 875 599.6v168Q871.1 834 746.1 878.9q-123.1 43 -308.6 44.9Q252 921.9 128.9 878.9 3.9 834 0 767.6v-168z"/></svg>