<svg height="1000" width="1250" xmlns="http://www.w3.org/2000/svg"><path d="M125 -13.7q2 -31.2 11.7 -52.7 3.9 -9.8 13.7 -9.8 5.9 0 9.8 3.9l89.8 86 89.8 -86q4 -3.9 9.8 -3.9 9.8 0 13.7 9.8Q373 -43 375 -13.7q-2 39.1 -23.4 62.5 -21.5 21.5 -33.2 29.3l148.4 140.7q17.6 17.5 43 17.5H1000q123 2 199.2 99.6l39.1 50.8q13.7 21.5 11.7 46.9 -3.9 23.4 -25.4 41 -21.5 13.7 -46.9 11.7 -23.4 -3.9 -41 -25.4l-37.1 -48.8q-15.6 -21.5 -37.1 -33.2v169.9H375L296.9 365.2Q279.3 335.9 250 351.6l-82 54.7q-27.4 17.5 -60.6 17.5h-3.9q-43 -1.9 -72.2 -31.2T0 320.3q0 -37.1 23.4 -66.4L171.9 70.3Q156.3 58.6 140.6 39.1 127 17.6 125 -13.7zm750 625h187.5H875h187.5v250q0 27.4 -17.6 45t-44.9 17.5h-62.5q-27.3 0 -44.9 -17.5t-17.6 -45v-125H562.5v125q0 27.4 -17.6 45T500 923.8h-62.5q-27.3 0 -44.9 -17.5t-17.6 -45v-250h500zM509.8 335.9q-3.9 -5.8 -9.8 -5.8t-9.8 5.8L470.7 375l-46.9 7.8q-5.8 0 -7.8 5.9t2 11.7l33.2 31.2 -7.8 43q0 5.9 3.9 9.8 5.8 3.9 11.7 1.9l41 -21.5 41 21.5q5.9 2 11.7 -1.9 3.9 -3.9 3.9 -9.8l-7.8 -43L582 400.4q3.9 -5.9 2 -11.7t-7.8 -5.9L529.3 375l-19.5 -39.1zm209 -5.8q-5.9 0 -9.8 5.8L689.5 375l-46.9 7.8q-5.9 0 -7.8 5.9t1.9 11.7l33.2 31.2 -7.8 43q0 5.9 3.9 9.8 5.9 3.9 11.7 1.9l41.1 -21.5 41 21.5q5.8 2 11.7 -1.9 3.9 -3.9 3.9 -9.8l-7.8 -43 33.2 -31.2q3.9 -5.9 1.9 -11.7t-7.8 -5.9L748 375l-19.5 -39.1q-3.9 -5.8 -9.7 -5.8zm228.5 5.8q-3.9 -5.8 -9.8 -5.8t-9.8 5.8L908.2 375l-46.9 7.8q-5.8 0 -7.8 5.9t2 11.7l33.2 31.2 -7.8 43q0 5.9 3.9 9.8 5.8 3.9 11.7 1.9l41 -21.5 41 21.5q5.9 2 11.7 -1.9 3.9 -3.9 3.9 -9.8l-7.8 -43 33.2 -31.2q3.9 -5.9 2 -11.7t-7.8 -5.9L966.8 375l-19.5 -39.1z"/></svg>