<svg height="1000" width="1125" xmlns="http://www.w3.org/2000/svg"><path d="M0 80.1Q2 41 27.3 13.7q27.4 -25.4 66.5 -27.4h187.5q39 2 66.4 27.4Q373 41 375 80.1v31.2h375V80.1Q752 41 777.3 13.7q27.4 -25.4 66.5 -27.4h187.5q39 2 66.4 27.4Q1123 41 1125 80.1v187.5q-2 39 -27.3 66.4 -27.4 25.4 -66.4 27.3H843.8Q804.7 359.4 777.3 334 752 306.6 750 267.6v-31.3H375v41l156.3 209h187.5q39 2 66.4 27.4 25.3 27.3 27.3 66.4v187.5q-2 39 -27.3 66.4 -27.4 25.4 -66.4 27.3H531.3Q492.2 859.4 464.8 834q-25.3 -27.4 -27.3 -66.4V570.3l-156.2 -209H93.8Q54.7 359.4 27.3 334 2 306.6 0 267.6V80.1z"/></svg>