<svg height="1000" width="1000" xmlns="http://www.w3.org/2000/svg"><path d="M1000 736.3v-125 125 -125q-2 -52.7 -37.1 -87.9T875 486.3H125q-52.7 2 -87.9 37.1T0 611.3v125q2 52.8 37.1 87.9t87.9 37.1h750q52.7 -1.9 87.9 -37.1t37.1 -87.9zm-875 -500v-125 125 -125h312.5v125H125zm437.5 0v-125 125 -125h156.3q29.2 2 31.2 31.3v31.2h-74.2q-33.2 2 -43 29.3 -11.7 27.4 9.8 50.8l136.7 136.7q33.2 27.4 66.4 0L982.4 253.9q21.5 -23.4 9.8 -50.8 -9.8 -27.3 -43 -29.3H875v-31.2Q873 76.2 830.1 31.3q-44.9 -43 -111.3 -45H125q-52.7 2 -87.9 37.1T0 111.3v125q2 52.8 37.1 87.9t87.9 37.1h312.5q52.7 -1.9 87.9 -37.1t37.1 -87.9z"/></svg>