<svg height="1000" width="1000" xmlns="http://www.w3.org/2000/svg"><path d="M875 736.3v-125 125 -125H125v125h750zm0 125H125h750H125Q72.3 859.4 37.1 824.2T0 736.3v-125q2 -52.7 37.1 -87.9T125 486.3h750q52.7 2 87.9 37.1t37.1 87.9v125q-2 52.8 -37.1 87.9T875 861.3zm-312.5 -625q-2 52.8 -37.1 87.9 -35.2 35.2 -87.9 37.1H125Q72.3 359.4 37.1 324.2T0 236.3v-125Q2 58.6 37.1 23.4T125 -13.7h593.8q66.4 2 111.3 45Q873 76.2 875 142.6v31.2h74.2q33.2 2 43 29.3 11.7 27.4 -9.8 50.8L845.7 390.6q-33.2 27.4 -66.4 0L642.6 253.9q-21.5 -23.4 -9.8 -50.8 9.8 -27.3 43 -29.3H750v-31.2q-2 -29.3 -31.2 -31.3H562.5v125z"/></svg>