<svg height="1000" width="1000" xmlns="http://www.w3.org/2000/svg"><path d="M1000 236.3q-2 52.8 -37.1 87.9 -35.2 35.2 -87.9 37.1H546.9v125h89.8q33.2 2 43 29.3 11.7 27.4 -9.8 50.8L533.2 703.1q-33.2 27.4 -66.4 0L330.1 566.4Q308.6 543 320.3 515.6q9.8 -27.3 43 -29.3h89.8v-125H125Q72.3 359.4 37.1 324.2T0 236.3v-125Q2 58.6 37.1 23.4T125 -13.7h750q52.7 2 87.9 37.1t37.1 87.9v125zm-125 500v-125 125 -125H712.9h1.9q25.4 -29.3 31.3 -62.5 3.9 -33.2 -9.8 -62.5H875q52.7 2 87.9 37.1t37.1 87.9v125q-2 52.8 -37.1 87.9T875 861.3H125Q72.3 859.4 37.1 824.2T0 736.3v-125q2 -52.7 37.1 -87.9T125 486.3h138.7q-13.7 29.3 -9.8 62.5 5.9 33.2 31.3 62.5h1.9H125v125h287.1l9.8 11.7q35.1 31.3 78.1 31.3T578.1 748l9.8 -11.7H875z"/></svg>