<svg height="1000" width="1000" xmlns="http://www.w3.org/2000/svg"><path d="M445.3 -52.7q23.5 -23.5 54.7 -23.5 31.3 0 54.7 23.5l421.9 421.8q23.4 23.5 23.4 54.7t-23.4 54.7L554.7 900.4q-23.4 23.4 -54.7 23.4t-54.7 -23.4L23.4 478.5Q0 455.1 0 423.8t23.4 -54.7L445.3 -52.7zm169.9 267.5Q601.6 201.2 582 207q-17.5 9.8 -19.5 29.3v109.4h-125q-52.7 2 -87.9 37.1t-37.1 87.9v93.8q3.9 42.9 46.9 46.8 42.9 -3.9 46.9 -46.8v-93.8q1.9 -29.3 31.2 -31.2h125v109.3q0 19.6 19.5 29.3 19.6 5.9 33.2 -7.8L771.5 414.1q19.5 -21.5 0 -43L615.2 214.8z"/></svg>