<svg height="1000" width="1000" xmlns="http://www.w3.org/2000/svg"><path d="M95.7 169.9l103.5 62.5L95.7 169.9l103.5 62.5q27.4 11.7 43 -11.7L394.5 -52.7q5.9 -19.6 -13.6 -23.5 -5.9 0 -9.8 2L93.8 117.2Q80.1 127 80.1 142.6q0 17.6 15.6 27.3zm-64.4 89.9V500 259.8 500q1.9 11.7 11.7 15.6 9.7 2 17.5 -5.8L177.7 330.1q13.7 -27.4 -9.7 -44.9L78.1 232.4q-15.6 -9.7 -31.2 0 -13.7 7.8 -15.6 27.4zM605.5 -52.7l152.3 273.4L605.5 -52.7l152.3 273.4q17.6 23.4 43 11.7l103.5 -62.5q15.6 -9.7 15.6 -27.3 0 -15.6 -13.6 -25.4L628.9 -74.2q-3.9 -2 -7.8 -2 -21.5 3.9 -15.6 23.5zm363.3 312.5q-2 -19.6 -15.7 -27.4 -15.6 -9.7 -31.2 0L834 285.2q-25.4 17.5 -11.7 44.9l117.2 179.7q7.8 9.7 17.5 5.8T968.8 500V259.8zM873 740.2l-314.4 37.1L873 740.2l-314.4 37.1q-25.4 4 -27.3 31.3v101.6q1.9 11.7 13.6 13.6h3.9l337.9 -125q19.6 -7.8 19.6 -29.3 -4 -29.3 -33.3 -29.3zM455.1 923.8q11.7 -1.9 13.7 -13.6V808.6q-2 -27.3 -27.4 -31.3L127 740.2q-29.3 0 -33.2 29.3 0 21.5 19.5 29.3l337.9 125h3.9zM82 671.9l334 39 -334 -39 334 39q11.7 0 17.6 -7.8 5.9 -9.7 0 -19.5l-168 -293Q255.9 375 240.2 375t-27.3 13.7L58.6 623q-7.8 15.7 -2 31.3Q64.5 668 82 671.9zM939.5 623L787.1 388.7 939.5 623 787.1 388.7Q775.4 375 759.8 375t-25.4 15.6l-168 293q-7.8 23.4 19.5 27.3l332.1 -39q17.5 -3.9 23.4 -17.6 7.8 -15.6 -1.9 -31.3zm-423.9 21.5L669.9 377 515.6 644.5 669.9 377q7.8 -17.6 0 -31.3 -9.7 -15.6 -27.3 -15.6H357.4q-17.6 1.9 -27.3 15.6 -7.8 13.7 0 31.3l154.3 267.5q15.6 19.6 31.2 0zM339.8 267.6h320.4H339.8h320.4q17.5 0 25.3 -15.6 9.8 -13.7 2 -31.3L531.3 -60.5q-9.8 -15.7 -27.4 -15.7h-7.8q-17.6 0 -27.3 15.7L312.5 220.7q-7.8 17.6 2 31.3 7.8 15.6 25.3 15.6z"/></svg>