<svg height="1000" width="1250" xmlns="http://www.w3.org/2000/svg"><path d="M537.1 -9.8q-43 -41 -99.6 -41 -56.6 0 -99.6 41L66.4 261.7q-41 43 -41 99.6t41 99.6l271.5 271.5q43 41 99.6 41t99.6 -41L808.6 460.9q41 -42.9 41 -99.6t-41 -99.6L537.1 -9.8zM390.6 361.3q3.9 -42.9 46.9 -46.8 43 3.9 46.9 46.8 -3.9 43 -46.9 46.9 -43 -3.9 -46.9 -46.9zM187.5 314.5q43 3.9 46.9 46.8 -3.9 43 -46.9 46.9 -43 -3.9 -46.9 -46.9 3.9 -42.9 46.9 -46.8zm250 343.7q-43 -3.9 -46.9 -46.9 3.9 -42.9 46.9 -46.8 43 3.9 46.9 46.8 -3.9 43 -46.9 46.9zm250 -343.7q43 3.9 46.9 46.8 -3.9 43 -46.9 46.9 -43 -3.9 -46.9 -46.9 3.9 -42.9 46.9 -46.8zm-250 -156.3q-43 -3.9 -46.9 -46.9 3.9 -42.9 46.9 -46.8 43 3.9 46.9 46.8 -3.9 43 -46.9 46.9zM625 798.8q2 52.8 37.1 87.9 35.2 35.2 87.9 37.1h375q52.7 -1.9 87.9 -37.1t37.1 -87.9v-375q-2 -52.7 -37.1 -87.9T1125 298.8H902.3q15.7 54.7 4 109.4t-54.7 97.7L625 732.4v66.4zM937.5 564.5q43 3.9 46.9 46.8 -3.9 43 -46.9 46.9 -43 -3.9 -46.9 -46.9 3.9 -42.9 46.9 -46.8z"/></svg>