<svg height="1000" width="875" xmlns="http://www.w3.org/2000/svg"><path d="M0 111.3Q2 58.6 37.1 23.4 72.3 -11.7 125 -13.7h625q52.7 2 87.9 37.1t37.1 87.9v625q-2 52.8 -37.1 87.9T750 861.3H125Q72.3 859.4 37.1 824.2T0 736.3v-625zm312.5 125q0 -27.3 -17.6 -44.9Q277.3 173.8 250 173.8t-44.9 17.6 -17.6 44.9 17.6 45 44.9 17.5 44.9 -17.5 17.6 -45zM250 673.8q27.3 0 44.9 -17.5 17.6 -17.6 17.6 -45t-17.6 -44.9T250 548.8t-44.9 17.6 -17.6 44.9 17.6 45 44.9 17.5zM687.5 236.3q0 -27.3 -17.6 -44.9Q652.3 173.8 625 173.8t-44.9 17.6 -17.6 44.9 17.6 45 44.9 17.5 44.9 -17.5 17.6 -45zM625 673.8q27.3 0 44.9 -17.5 17.6 -17.6 17.6 -45t-17.6 -44.9T625 548.8t-44.9 17.6 -17.6 44.9 17.6 45 44.9 17.5z"/></svg>