<svg height="1000" width="875" xmlns="http://www.w3.org/2000/svg"><path d="M392.6 -56.6q44.9 -21.5 89.8 0l341.8 187.5q15.6 9.7 17.6 27.3 -2 17.6 -17.6 27.3L453.1 388.7q-15.6 7.8 -31.2 0L50.8 185.5Q35.2 175.8 33.2 158.2q2 -17.6 17.6 -27.3L392.6 -56.6zM46.9 255.9l343.7 187.5L46.9 255.9l343.7 187.5q15.7 9.7 15.7 27.3v421.9q0 17.6 -15.7 27.3 -15.6 7.8 -31.2 0L48.8 750Q2 722.7 0 668V283.2q0 -17.6 15.6 -27.3 15.7 -7.9 31.3 0zm781.2 0q15.7 -7.9 31.3 0 15.6 9.7 15.6 27.3V668q-2 54.7 -48.8 82L515.6 919.9q-15.6 7.8 -31.2 0 -15.6 -9.7 -15.6 -27.3V470.7q0 -17.6 15.6 -27.3L828.1 255.9z"/></svg>