<svg height="1000" width="1000" xmlns="http://www.w3.org/2000/svg"><path d="M460.9 43l-17.5 29.3L460.9 43l-17.5 29.3q-33.2 46.8 -82.1 68.3 -50.8 21.5 -107.4 13.7L136.7 134.8Q82 127 41 160.2 2 193.4 0 250q0 48.8 35.2 84l56.6 56.6q33.2 33.2 33.2 80.1 0 48.8 -35.2 82l-25.3 25.4q-33.2 33.2 -33.2 80.1 1.9 56.6 42.9 87.9 39.1 33.2 93.8 21.5l121.1 -25.4q23.4 -5.9 46.8 -5.9h19.6q82 0 146.5 50.8l60.5 48.8q31.3 25.4 72.3 25.4 48.8 -1.9 82 -33.2 31.2 -33.2 33.2 -82v-48.8q0 -52.8 29.3 -93.8 27.3 -41 76.2 -60.5l72.2 -29.3q68.4 -29.3 72.3 -105.5 0 -41 -25.4 -72.3 -27.3 -31.2 -68.3 -39l-54.7 -9.8q-52.8 -11.7 -91.8 -48.8Q720.7 203.1 709 148.4L695.3 87.9Q683.6 43 648.4 13.7q-33.2 -27.4 -80 -27.4Q502 -11.7 460.9 43zM312.5 298.8q27.3 0 44.9 17.6Q375 334 375 361.3t-17.6 45 -44.9 17.5 -44.9 -17.5 -17.6 -45 17.6 -44.9 44.9 -17.6zm250 31.3q2 -29.3 31.3 -31.3 29.2 2 31.2 31.3 -2 29.3 -31.2 31.2 -29.3 -1.9 -31.3 -31.2zm0 156.2q27.3 0 44.9 17.6 17.6 17.6 17.6 44.9t-17.6 45 -44.9 17.5 -44.9 -17.5 -17.6 -45 17.6 -44.9 44.9 -17.6z"/></svg>