<svg height="1000" width="875" xmlns="http://www.w3.org/2000/svg"><path d="M812.5 -76.2q27.3 0 44.9 17.6Q875 -41 875 -13.7q-2 87.9 -39.1 158.2t-95.7 128.9q-85.9 80.1 -191.4 150.4l-3.9 3.9 -70.3 46.9 -1.9 2q-5.9 1.9 -9.8 5.8 -11.7 7.8 -25.4 17.6Q375 539.1 322.3 580.1h230.4q-29.3 -21.5 -60.5 -43l13.7 -9.8 5.8 -3.9q5.9 -3.9 11.7 -5.8 39.1 -27.4 80.1 -54.7 74.2 52.7 134.8 111.3t97.6 128.9T875 861.3q0 27.4 -17.6 45t-44.9 17.5 -44.9 -17.5 -17.6 -45H125q0 27.4 -17.6 45t-44.9 17.5T17.6 906.3 0 861.3Q2 773.4 39.1 703.1t95.7 -128.9q85.9 -80.1 191.4 -150.4Q220.7 353.5 134.8 273.4 76.2 214.8 39.1 144.5T0 -13.7Q0 -41 17.6 -58.6t44.9 -17.6 44.9 17.6 17.6 44.9h625q0 -27.3 17.6 -44.9t44.9 -17.6zm-150.4 750H212.9h449.2H212.9q-29.3 31.3 -48.8 62.5h546.8q-19.5 -31.2 -48.8 -62.5zm-449.2 -500h449.2H212.9h449.2q29.3 -31.2 48.8 -62.5H164.1q19.5 31.3 48.8 62.5zm109.4 93.8q54.7 41 115.2 82 62.5 -41 115.2 -82H322.3z"/></svg>