<svg height="1000" width="1125" xmlns="http://www.w3.org/2000/svg"><path d="M605.5 234.4l44.9 -271.5 -44.9 271.5 44.9 -271.5q7.8 -37.1 44.9 -39.1 23.5 0 37.1 19.6l33.2 42.9h101.6q39.1 0 66.4 27.4l35.2 35.1h109.3q43 3.9 46.9 46.9v46.9q-2 66.4 -44.9 111.3 -44.9 43 -111.3 44.9H834l-9.8 60.6 -218.7 -125zm207 189.4v437.5V423.8v437.5q0 27.4 -17.6 45T750 923.8h-62.5q-27.3 0 -44.9 -17.5t-17.6 -45V636.7q-70.3 37.1 -156.2 37.1T312.5 636.7v224.6q0 27.4 -17.6 45T250 923.8h-62.5q-27.3 0 -44.9 -17.5t-17.6 -45V412.1Q37.1 377 9.8 281.3L2 252q-5.9 -25.4 7.8 -46.9 11.7 -21.5 37.1 -29.3 27.3 -5.9 48.8 7.8 19.5 11.7 27.3 37.1l7.9 31.3q13.6 44.9 60.5 46.8H593.8l218.7 125zM906.3 80.1Q904.3 50.8 875 48.8q-29.3 2 -31.2 31.3 1.9 29.3 31.2 31.2 29.3 -1.9 31.3 -31.2z"/></svg>