<svg height="1000" width="1125" xmlns="http://www.w3.org/2000/svg"><path d="M0 -13.7Q0 -41 17.6 -58.6q17.6 -17.6 44.9 -17.6h142.6q41 0 72.2 23.5 33.2 23.4 46.9 62.5l179.7 539q89.9 3.9 144.5 72.3L1043 490.2q25.4 -7.8 46.8 2 23.5 11.7 31.3 37.1t-2 46.9q-11.7 23.4 -37.1 31.2L687.5 740.2q-3.9 78.2 -56.6 128.9Q578.1 921.9 500 923.8q-80.1 -1.9 -132.8 -54.7T312.5 736.3q3.9 -93.7 72.3 -148.4L205.1 48.8H62.5q-27.3 0 -44.9 -17.5T0 -13.7zm478.5 201.2q-7.8 -27.3 3.9 -48.8 9.8 -21.5 35.2 -31.3l89.8 -29.3 39.1 119.2 119.1 -37.1L726.6 41l89.8 -29.3q25.4 -7.8 46.9 3.9 21.5 9.8 31.2 35.2l95.7 298.8q7.8 25.4 -3.9 46.9 -9.7 21.5 -35.1 31.2l-296.9 95.7q-27.3 7.9 -48.8 -3.9Q584 509.8 574.2 484.4L478.5 187.5z"/></svg>