<svg height="1000" width="625" xmlns="http://www.w3.org/2000/svg"><path d="M312.5 -76.2q27.3 0 44.9 17.6Q375 -41 375 -13.7v70.3h9.8l1.9 2 93.8 15.6q25.4 5.9 39 27.4 15.7 19.5 11.8 46.8 -5.9 25.4 -27.4 39.1 -19.5 13.7 -46.9 9.8l-91.8 -15.7Q271.5 168 212.9 193.4q-54.7 23.4 -56.6 54.6 -5.9 29.3 1.9 39.1 3.9 11.7 25.4 25.4 46.9 29.3 142.6 52.7l5.8 2h2q43 9.8 87.9 25.4 46.9 15.6 85.9 39 43 27.4 70.3 78.2 23.5 52.7 11.7 115.2 -11.7 56.6 -44.9 93.8 -35.1 37.1 -84 56.6 -39 15.6 -85.9 21.5v64.4q0 27.4 -17.6 45t-44.9 17.5 -44.9 -17.5 -17.6 -45V793h-3.9Q209 787.1 160.2 773.4 109.4 759.8 68.4 742.2 44.9 730.5 35.2 707q-7.9 -23.4 1.9 -46.8Q48.8 634.8 72.3 627q21.5 -9.8 46.8 0 33.2 15.6 74.3 27.3 41 9.8 72.2 15.6 95.7 11.7 148.5 -9.7 48.8 -21.5 52.7 -56.7 3.9 -31.2 -2 -41Q459 550.8 439.5 537.1 390.6 507.8 294.9 486.3l-5.8 -1.9q-2 0 -3.9 -2 -43 -9.7 -87.9 -25.4t-84 -39q-43 -27.4 -68.4 -78.2Q19.5 287.1 33.2 224.6 43 169.9 80.1 132.8T166 76.2q39.1 -15.7 84 -21.5v-68.4q0 -27.3 17.6 -44.9t44.9 -17.6z"/></svg>