<svg height="1000" width="750" xmlns="http://www.w3.org/2000/svg"><path d="M562.5 -13.7q-27.3 0 -44.9 17.6Q500 21.5 500 48.8h-62.5q-27.3 0 -44.9 17.6T375 111.3t17.6 45 44.9 17.5H500v95.7Q443.4 236.3 375 236.3q-105.5 2 -177.7 72.3Q127 380.9 125 486.3q2 105.5 72.3 177.8 72.2 70.3 177.7 72.2 72.3 0 130.9 -37.1 15.6 35.2 56.6 37.1 27.3 0 44.9 -17.5t17.6 -45v-500q27.3 0 44.9 -17.5t17.6 -45T669.9 66.4 625 48.8Q625 21.5 607.4 3.9t-44.9 -17.6zM250 486.3q2 -70.3 62.5 -107.4 62.5 -35.1 125 0Q498 416 500 486.3q-2 70.3 -62.5 107.5 -62.5 35.1 -125 0Q252 556.6 250 486.3zM62.5 798.8q-27.3 0 -44.9 17.6Q0 834 0 861.3t17.6 45 44.9 17.5h625q27.3 0 44.9 -17.5t17.6 -45 -17.6 -44.9 -44.9 -17.6h-625z"/></svg>