<svg height="1000" width="1125" xmlns="http://www.w3.org/2000/svg"><path d="M625 -13.7q0 -31.2 -23.4 -48.8 -25.4 -17.6 -54.7 -11.7L195.3 13.7q-31.2 7.8 -50.8 33.2T125 105.5v693.3H62.5q-27.3 0 -44.9 17.6T0 861.3t17.6 45 44.9 17.5H625V-13.7zM500 423.8q0 27.4 -13.7 45 -13.6 17.5 -33.2 17.5t-33.2 -17.5 -13.6 -45 13.6 -44.9 33.2 -17.6 33.2 17.6 13.7 44.9zm187.5 -250H875 687.5 875v687.5q0 27.4 17.6 45t44.9 17.5h125q27.3 0 44.9 -17.5t17.6 -45 -17.6 -44.9 -44.9 -17.6H1000v-625q-2 -52.7 -37.1 -87.9T875 48.8H687.5v125z"/></svg>