<svg height="1000" width="1000" xmlns="http://www.w3.org/2000/svg"><path d="M314.5 113.3q41 48.8 95.7 82 80 44.9 152.3 60.6v-60.6Q494.1 105.5 486.3 -21.5q-3.9 -35.1 -37.1 -46.9 -23.4 -5.8 -41 9.8 -43 46.9 -93.7 171.9zM625 205.1v60.5 -60.5 125q-62.5 -3.9 -148.4 -35.2Q388.7 265.6 310.5 199.2T197.3 23.4q-11.8 -35.1 -46.9 -37.1 -25.4 0 -37.1 21.5Q95.7 41 80.1 107.4T62.5 267.6q2 113.3 43 195.3 41 80.1 95.7 128.9 52.7 50.8 91.8 72.3L23.4 738.3Q7.8 742.2 2 757.8t3.9 29.3q27.3 39.1 107.4 85.9 78.1 46.9 199.2 50.8 11.7 0 19.5 -5.8L480.5 798.8H625Q757.8 794.9 845.7 707t91.8 -220.7V173.8l58.6 -87.9q3.9 -5.8 3.9 -13.6Q998 50.8 976.6 48.8H781.3q-66.5 2 -111.4 45Q627 138.7 625 205.1zm156.3 -31.3q29.2 2 31.2 31.3 -2 29.3 -31.2 31.2Q752 234.4 750 205.1q2 -29.3 31.3 -31.3z"/></svg>