<svg height="1000" width="1000" xmlns="http://www.w3.org/2000/svg"><path d="M857.4 -62.5q33.2 -27.3 66.4 0L986.3 0q27.4 33.2 0 66.4L816.4 236.3l76.2 76.2q19.5 21.5 9.7 50.8 -11.7 27.3 -42.9 29.3H578.1q-42.9 -3.9 -46.8 -46.9V64.5q1.9 -31.3 29.2 -43t50.8 9.8l76.2 76.1L857.4 -62.5zM140.6 455.1h281.3H140.6h281.3q42.9 3.9 46.9 46.9v281.2q-2 31.3 -29.3 43t-50.8 -9.8l-76.2 -76.2 -169.9 170q-33.2 27.3 -66.4 0L13.7 847.7q-27.4 -33.2 0 -66.4l169.9 -170 -76.2 -76.1Q85.9 511.7 97.7 484.4t42.9 -29.3z"/></svg>