<svg height="1000" width="1000" xmlns="http://www.w3.org/2000/svg"><path d="M562.5 -13.7q0 -27.3 -17.6 -44.9Q527.3 -76.2 500 -76.2t-44.9 17.6 -17.6 44.9v474.6L294.9 316.4Q275.4 298.8 250 298.8t-44.9 17.6q-17.6 19.5 -17.6 44.9t17.6 45l250 250q19.5 17.5 44.9 17.5t44.9 -17.5l250 -250q17.6 -19.6 17.6 -45t-17.6 -44.9Q775.4 298.8 750 298.8t-44.9 17.6L562.5 460.9V-13.7zM125 611.3q-52.7 2 -87.9 37.1Q2 683.6 0 736.3v62.5q2 52.8 37.1 87.9t87.9 37.1h750q52.7 -1.9 87.9 -37.1t37.1 -87.9v-62.5q-2 -52.7 -37.1 -87.9T875 611.3H677.7l-89.8 87.9q-39.1 37.1 -87.9 37.1 -50.8 0 -87.9 -37.1l-87.9 -87.9H125zm718.8 109.4q42.9 3.9 46.8 46.9 -3.9 42.9 -46.8 46.9 -43 -4 -46.9 -46.9 3.9 -43 46.9 -46.9z"/></svg>