<svg height="1000" width="1250" xmlns="http://www.w3.org/2000/svg"><path d="M687.5 168L585.9 142.6 687.5 168 585.9 142.6q-19.5 -7.8 -23.4 -27.4 -2 -21.4 17.6 -31.2l80.1 -41 -86 -62.5q-15.6 -13.7 -9.7 -35.2 7.8 -21.5 29.3 -21.5h312.5q91.7 2 150.3 74.2L1168 148.4q19.5 25.4 19.5 56.7 -2 39 -27.3 66.4 -27.4 25.4 -66.4 27.3h-43q-50.8 0 -87.9 -37.1l-25.4 -25.4H875v43q2 76.2 66.4 119.1l207 128.9q48.9 31.3 74.3 78.2Q1250 652.3 1250 709q-2 91.8 -62.5 152.3t-152.3 62.5H62.5q-9.8 0 -17.6 -1.9 -29.3 -9.8 -41 -37.1Q0 875 0 863.3q0 -9.8 2 -19.5 9.7 -29.3 37.1 -41.1 7.8 -3.9 17.5 -3.9l789.1 -70.3Q873 724.6 875 697.3q0 -13.7 -9.8 -21.5l-85.9 -87.9Q689.5 496.1 687.5 367.2V168zM1000 64.5zm-2 15.6L906.3 56.6 998 80.1 906.3 56.6v7.9q3.9 42.9 46.8 46.8 33.2 -1.9 44.9 -31.2zm-742.1 72.2q25.4 -21.4 54.6 -25.3 31.3 -2 58.6 15.6L625 312.5v54.7q0 97.6 46.9 181.6H218.8q-21.5 -1.9 -29.3 -19.5 -5.9 -21.5 9.7 -35.2L334 377 35.2 423.8q-21.5 2 -31.3 -17.5 -9.8 -21.5 5.9 -37.2L255.9 152.3z"/></svg>