<svg height="1000" width="875" xmlns="http://www.w3.org/2000/svg"><path d="M187.5 218.8v410.1V218.8v410.1q29.3 15.6 44.9 44.9h410.2l-9.8 -15.6L570.3 548.8h-7.8q-52.7 -1.9 -87.9 -37.1t-37.1 -87.9q2 -52.7 37.1 -87.9 35.2 -37.1 87.9 -37.1h7.8l62.5 -109.3 9.8 -15.7H232.4q-15.6 27.4 -44.9 45zM750 611.3q52.7 2 87.9 37.1 35.1 35.2 37.1 87.9 -2 52.8 -37.1 87.9T750 861.3q-72.3 -3.9 -107.4 -62.5H234.4Q197.3 857.4 125 861.3 72.3 859.4 37.1 824.2T0 736.3Q3.9 664.1 62.5 628.9V220.7Q3.9 183.6 0 111.3 2 58.6 37.1 23.4T125 -13.7q72.3 3.9 107.4 62.5h410.2Q677.7 -9.8 750 -13.7q52.7 2 87.9 37.1t37.1 87.9q-2 52.8 -37.1 87.9T750 236.3l-7.8 15.7 -62.5 109.3 -5.9 7.8q13.7 25.4 13.7 54.7t-13.7 54.7l5.9 7.8 62.5 109.4 7.8 15.6z"/></svg>