<svg height="1000" width="1250" xmlns="http://www.w3.org/2000/svg"><path d="M625 923.8q160.2 -3.9 265.6 -111.3l-582 -459Q253.9 464.8 250 548.8q3.9 160.2 109.4 265.7T625 923.8zM986.3 648.4q13.7 -48.8 13.7 -99.6Q996.1 457 931.6 334T791 103.5 673.8 -52.7Q656.3 -76.2 627 -76.2h-4q-29.2 0 -46.8 23.5Q548.8 -21.5 502 43t-99.7 146.5L76.2 -66.4Q39.1 -89.8 9.8 -58.6q-23.5 37.1 7.8 66.4l1156.2 906.3q37.1 23.4 66.4 -7.8 23.5 -37.2 -7.8 -66.5L986.3 648.4zM437.5 580.1q2 66.4 44.9 111.3 44.9 43 111.4 44.9 29.2 2 31.2 31.3 -2 29.3 -31.2 31.2Q500 796.9 439.5 734.4 377 673.8 375 580.1q2 -29.3 31.3 -31.3 29.2 2 31.2 31.3z"/></svg>