<svg height="1000" width="1000" xmlns="http://www.w3.org/2000/svg"><path d="M312.5 441.4q0 25.4 -17.6 44.9l-52.7 52.8q-19.5 17.5 -44.9 17.5 -27.4 2 -52.8 -3.9 -11.7 -3.9 -27.3 -3.9 -48.8 2 -82 35.2T0 666q2 48.8 35.2 82t82 35.2q21.5 2 23.4 23.4 2 48.9 35.2 82.1t82 35.1q48.8 -1.9 82 -35.1T375 806.6q0 -13.6 -3.9 -27.3 -5.9 -27.3 -3.9 -52.7 0 -25.4 17.6 -45l52.7 -52.7q19.5 -17.6 44.9 -17.6h173.9q17.5 0 37.1 -1.9 17.5 -3.9 21.4 -19.6 5.9 -15.6 -1.9 -31.2Q687.5 511.7 687.5 455.1q2 -93.8 64.5 -154.3 60.5 -62.5 154.3 -64.5 23.4 0 44.9 3.9 17.6 3.9 31.2 -5.8T994.1 207Q970.7 84 878.9 5.9 785.2 -74.2 656.3 -76.2 509.8 -72.3 414.1 25.4q-97.7 95.7 -101.6 242.2v173.8z"/></svg>