<svg height="1000" width="1125" xmlns="http://www.w3.org/2000/svg"><path d="M562.5 -13.7q238.3 2 398.4 66.4 158.2 66.4 164.1 183.6v375q-5.9 119.2 -164.1 183.6 -160.1 66.4 -398.4 66.4T164.1 794.9Q5.9 730.5 0 611.3v-375Q5.9 119.1 164.1 52.7q160.1 -64.4 398.4 -66.4zm468.8 250q1.9 -15.6 -19.6 -41Q990.2 168 923.8 138.7 869.1 115.2 794.9 101.6l-54.7 83.9q-21.4 35.2 -21.4 76.2 0 52.8 35.1 91.8l19.5 21.5q87.9 -15.6 150.4 -41 66.4 -29.3 87.9 -56.7 21.5 -25.3 19.6 -41zM681.6 386.7q-11.7 -39 -44.9 -62.5 -31.2 -25.4 -74.2 -25.4t-74.2 25.4q-33.2 23.5 -44.9 62.5 56.6 5.9 119.1 5.9t119.1 -5.9zM330.1 101.6q-74.2 13.6 -128.9 37.1 -66.4 29.3 -87.9 56.6 -21.5 25.4 -19.5 41 -2 15.7 19.5 41 21.5 27.4 87.9 56.7 62.5 25.4 150.4 41l19.5 -21.5q35.2 -39 35.2 -91.8 0 -41 -21.5 -76.2l-54.7 -83.9zM439.5 85.9q-2 11.8 -2 25.4 2 52.8 37.1 87.9t87.9 37.1q52.7 -1.9 87.9 -37.1t37.1 -87.9q0 -13.6 -2 -25.4Q627 80.1 562.5 80.1t-123 5.8z"/></svg>