<svg height="1000" width="1250" xmlns="http://www.w3.org/2000/svg"><path d="M187.5 48.8q0 -27.3 17.6 -44.9 17.6 -17.6 44.9 -17.6h62.5q27.3 0 44.9 17.6T375 48.8v750q0 27.4 -17.6 45t-44.9 17.5H250q-27.3 0 -44.9 -17.5t-17.6 -45v-125H125q-27.3 0 -44.9 -17.5t-17.6 -45v-125q-27.3 0 -44.9 -17.5T0 423.8t17.6 -44.9 44.9 -17.6v-125q0 -27.3 17.6 -44.9T125 173.8h62.5v-125zm875 0v125 -125 125h62.5q27.3 0 44.9 17.6t17.6 44.9v125q27.3 0 44.9 17.6t17.6 44.9 -17.6 45 -44.9 17.5v125q0 27.4 -17.6 45t-44.9 17.5h-62.5v125q0 27.4 -17.6 45t-44.9 17.5h-62.5q-27.3 0 -44.9 -17.5t-17.6 -45v-750q0 -27.3 17.6 -44.9t44.9 -17.6h62.5q27.3 0 44.9 17.6t17.6 44.9zm-250 312.5v125 -125 125h-375v-125h375z"/></svg>