<svg height="1000" width="1125" xmlns="http://www.w3.org/2000/svg"><path d="M97.7 -13.7q-33.2 2 -45 33.2L2 183.6q-2 5.9 -2 11.7 3.9 37.1 41 41h183.6l50.8 -250H97.7zm433.6 250v-250 250 -250H337.9l-48.8 250h242.2zm62.5 0h244.1H593.8h244.1l-50.8 -250H593.8v250zm306.6 0H1084 900.4 1084q37.1 -3.9 41 -41 0 -5.8 -2 -11.7L1072.3 19.5q-11.8 -31.2 -45 -33.2H851.6l48.8 250zM62.5 298.8l7.8 62.5 -7.8 -62.5 7.8 62.5h-7.8q-27.3 0 -44.9 17.6T0 423.8t17.6 45 44.9 17.5h23.4L125 798.8q0 27.4 17.6 45t44.9 17.5 44.9 -17.5 17.6 -45h625q0 27.4 17.6 45t44.9 17.5 44.9 -17.5 17.6 -45l39.1 -312.5h23.4q27.3 0 44.9 -17.5t17.6 -45 -17.6 -44.9 -44.9 -17.6h-7.8l7.8 -62.5H62.5z"/></svg>