<svg height="1000" width="1000" xmlns="http://www.w3.org/2000/svg"><path d="M658.2 230.5l2 1.9q1.9 2 5.8 3.9 29.3 25.4 64.5 5.9l132.8 -87.9q15.6 -11.7 19.5 -29.3 2 -19.5 -9.8 -35.2Q824.2 35.2 761.7 -2q-19.5 -11.7 -37.1 -3.9Q707 0 699.2 19.5L638.7 168q-9.8 37.1 19.5 62.5zM640.6 -3.9q7.8 -19.5 -1.9 -37.1 -7.8 -17.6 -27.4 -23.5Q556.6 -76.2 500 -76.2t-111.3 11.7q-19.6 5.9 -29.3 23.5 -7.8 17.6 0 37.1L418 144.5q17.5 33.2 56.6 31.3 13.7 -2 25.4 -2t25.4 2q39.1 1.9 56.6 -31.3L640.6 -3.9zM128.9 89.8q-13.7 15.7 -11.7 35.2 3.9 17.6 21.5 29.3l130.8 89.8q35.2 17.6 66.4 -7.8 0 -1.9 2 -1.9 1.9 -2 5.9 -3.9Q373 205.1 361.3 168L300.8 19.5Q293 0 275.4 -5.9q-17.6 -7.8 -37.1 3.9Q175.8 35.2 128.9 89.8zm613.3 267.6l3.9 19.6q9.8 42.9 50.8 46.8h156.2q43 -3.9 44.9 -46.8 -7.8 -80.1 -39 -150.4Q951.2 207 931.6 203.1q-19.5 -5.8 -37.1 5.9l-134.7 89.8q-27.4 21.5 -19.6 58.6h2zM105.5 209Q87.9 197.3 68.4 201.2 48.8 207 41 226.6 9.8 296.9 2 377q1.9 42.9 44.9 46.8h156.2q41 -3.9 50.8 -46.8 2 -9.8 5.9 -19.6 7.8 -37.1 -19.6 -58.6L105.5 209zm97.6 277.3H46.9h156.2H46.9Q3.9 490.2 0 533.2V627q3.9 42.9 46.9 46.8h156.2q43 -3.9 46.9 -46.8v-93.8q-3.9 -43 -46.9 -46.9zm593.8 0q-43 3.9 -46.9 46.9V627q3.9 42.9 46.9 46.8h156.2q43 -3.9 46.9 -46.8v-93.8q-3.9 -43 -46.9 -46.9H796.9zm-750 250Q3.9 740.2 0 783.2V877q3.9 42.9 46.9 46.8h156.2q43 -3.9 46.9 -46.8v-93.8q-3.9 -43 -46.9 -46.9H46.9zm750 0q-43 3.9 -46.9 46.9V877q3.9 42.9 46.9 46.8h156.2q43 -3.9 46.9 -46.8v-93.8q-3.9 -43 -46.9 -46.9H796.9zM531.3 298.8q-2 -29.3 -31.3 -31.2 -29.3 1.9 -31.2 31.2v531.3q1.9 29.3 31.2 31.2 29.3 -1.9 31.3 -31.2V298.8zm-125 62.5Q404.3 332 375 330.1q-29.3 1.9 -31.2 31.2v468.8q1.9 29.3 31.2 31.2 29.3 -1.9 31.3 -31.2V361.3zm250 0Q654.3 332 625 330.1q-29.3 1.9 -31.2 31.2v468.8q1.9 29.3 31.2 31.2 29.3 -1.9 31.3 -31.2V361.3z"/></svg>