<svg height="1000" width="1000" xmlns="http://www.w3.org/2000/svg"><path d="M777.3 -70.3q-23.4 -9.8 -46.8 -2Q707 -64.5 693.4 -41q-9.8 23.4 -2 46.9T722.7 43q1.9 0 3.9 1.9l17.5 11.7q23.5 13.7 54.7 46.9 29.3 31.3 52.8 80.1Q873 232.4 875 298.8q0 27.4 17.6 45t44.9 17.5 44.9 -17.5 17.6 -45q-2 -95.7 -35.2 -166T890.6 17.6q-42.9 -43 -76.1 -64.5 -15.7 -9.7 -25.4 -15.6 -3.9 -3.9 -7.8 -3.9v-2h-4q2 0 0 0L750 -13.7l27.3 -56.6zM252 369.1q9.7 -83.9 70.3 -138.6 60.5 -54.7 146.5 -56.7 93.7 2 154.2 64.5 62.5 60.5 64.5 154.3 -2 87.9 -58.6 148.4 -25.4 27.4 -44.9 64.5 -19.5 39 -21.5 87.9v11.7q-2 39 -27.3 66.4 -27.4 25.4 -66.4 27.3 -27.4 0 -45 17.6t-17.5 44.9 17.5 45 45 17.5q93.7 -1.9 154.2 -64.4 62.5 -60.6 64.5 -154.3v-11.7q0 -29.3 33.2 -68.4 87.9 -93.7 91.8 -232.4Q808.6 246.1 710.9 150.4 615.2 52.7 468.8 48.8 334 52.7 238.3 136.7q-93.8 86 -111.3 218.8 -2 25.4 13.6 44.9t41 23.4q27.4 2 46.9 -13.6T252 369.1zM62.5 923.8q27.3 0 44.9 -17.5 17.6 -17.6 17.6 -45t-17.6 -44.9T62.5 798.8t-44.9 17.6T0 861.3t17.6 45 44.9 17.5zM375 611.3q0 -27.3 -17.6 -44.9 -17.6 -17.6 -44.9 -17.6t-44.9 17.6T250 611.3t17.6 45 44.9 17.5 44.9 -17.5 17.6 -45zM80.1 628.9q-17.6 19.5 -17.6 44.9t17.6 45l125 125q19.5 17.5 44.9 17.5t44.9 -17.5q17.6 -19.6 17.6 -45t-17.6 -44.9l-125 -125Q150.4 611.3 125 611.3t-44.9 17.6zM406.3 392.6q0 -27.4 17.5 -44.9 17.6 -17.6 45 -17.6t44.9 17.6 17.6 44.9q3.9 42.9 46.8 46.9 43 -4 46.9 -46.9 -2 -66.4 -44.9 -111.3 -44.9 -43 -111.3 -45 -66.5 2 -111.4 45 -42.9 44.9 -44.9 111.3 3.9 42.9 46.9 46.9 42.9 -4 46.9 -46.9z"/></svg>