<svg height="1000" width="1000" xmlns="http://www.w3.org/2000/svg"><path d="M982.4 31.3l-78.1 78.1 78.1 -78.1 -78.1 78.1Q884.8 127 859.4 127t-44.9 -17.6Q796.9 89.8 796.9 64.5t17.6 -45l78.1 -78.1q19.5 -17.6 44.9 -17.6t44.9 17.6q17.6 19.5 17.6 44.9t-17.6 45zm-625 625l-250 250 250 -250 -250 250q-19.5 17.5 -44.9 17.5T17.6 906.3Q0 886.7 0 861.3t17.6 -44.9l250 -250q19.5 -17.6 44.9 -17.6t44.9 17.6q17.6 19.5 17.6 44.9t-17.6 45zM468.8 173.8q-86 2 -146.5 56.7Q261.7 285.2 252 369.1q-4 25.4 -23.5 41.1t-46.9 13.6q-25.3 -3.9 -41 -23.4T127 355.5Q144.5 222.7 238.3 136.7 334 52.7 468.8 48.8q146.4 3.9 242.1 101.6 97.7 95.7 101.6 242.2Q808.6 531.3 720.7 625q-33.2 39.1 -33.2 68.4v11.7q-2 93.7 -64.5 154.3 -60.5 62.5 -154.2 64.4 -27.4 0 -45 -17.5t-17.5 -45 17.5 -44.9 45 -17.6q39 0 66.4 -27.3 25.3 -27.4 27.3 -66.4v-11.7q2 -48.9 21.5 -86 19.5 -39 44.9 -66.4 56.6 -60.5 58.6 -148.4 -2 -93.8 -64.5 -154.3Q562.5 175.8 468.8 173.8zm0 156.3q-27.4 0 -45 17.6 -17.5 17.5 -17.5 44.9 -4 42.9 -46.9 46.9 -43 -4 -46.9 -46.9 2 -66.4 44.9 -111.3 44.9 -43 111.4 -45 66.4 2 111.3 45Q623 326.2 625 392.6q-3.9 42.9 -46.9 46.9 -42.9 -4 -46.8 -46.9 0 -27.4 -17.6 -44.9t-44.9 -17.6z"/></svg>