<svg height="1000" width="1000" xmlns="http://www.w3.org/2000/svg"><path d="M347.7 46.9L367.2 82 347.7 46.9 367.2 82q7.8 13.7 7.8 31.3v80.1q0 11.7 7.8 19.5 23.5 19.5 43 -2l27.3 -33.2q15.7 -17.5 39.1 -7.8l29.3 13.7q9.8 5.9 21.5 5.9 19.5 0 33.2 -13.7L584 168q9.8 -9.8 21.5 -3.9l56.6 29.3q23.4 11.7 25.4 39 -2 33.2 -33.2 43L584 293q-21.5 5.8 -43 -2l-62.5 -19.5q-9.7 -3.9 -19.5 -3.9 -21.5 0 -39.1 11.7l-76.1 58.6q-31.3 23.4 -31.3 62.5v54.7q2 39 27.3 66.4 27.4 25.4 66.5 27.3h62.5q29.2 2 31.2 31.3v93.7q0 27.4 17.6 45t44.9 17.5q31.3 0 50.8 -25.4l48.8 -66.4q25.4 -33.2 25.4 -74.2v-23.4q0 -13.7 11.7 -17.6l11.7 -2Q748 515.6 750 476.6q0 -21.5 -15.6 -37.1L669.9 375q-11.7 -13.7 0 -27.3 17.6 -15.7 41 -9.8l29.3 9.8q39.1 9.7 60.6 -25.4 11.7 -21.5 37.1 -17.6l52.7 9.8Q853.5 183.6 748 101.6t-248 -84q-82 0 -152.3 29.3zM0 423.8q2 -136.7 66.4 -250Q132.8 60.5 250 -9.8q119.1 -66.4 250 -66.4t250 66.4q117.2 70.3 183.6 183.6 64.4 113.3 66.4 250 -2 136.7 -66.4 250Q867.2 787.1 750 857.4q-119.1 66.4 -250 66.4T250 857.4Q132.8 787.1 66.4 673.8 2 560.5 0 423.8z"/></svg>