<svg height="1000" width="1000" xmlns="http://www.w3.org/2000/svg"><path d="M500 923.8q136.7 -1.9 250 -66.4Q863.3 791 933.6 673.8q66.4 -119.1 66.4 -250t-66.4 -250Q863.3 56.6 750 -9.8 636.7 -74.2 500 -76.2q-136.7 2 -250 66.4Q136.7 56.6 66.4 173.8 0 293 0 423.8t66.4 250Q136.7 791 250 857.4q113.3 64.5 250 66.4zM408.2 621.1L332 595.7l76.2 25.4L332 595.7q-19.5 -7.8 -39 0l-31.3 7.8q-27.3 9.8 -52.7 -1.9 -25.4 -9.8 -39.1 -35.2l-7.8 -11.7q-13.7 -31.3 -3.9 -62.5 9.8 -29.3 41 -44.9l68.4 -33.2q5.8 -3.9 11.7 -9.8l9.8 -13.7q23.4 -27.3 60.5 -29.3 37.1 2 58.6 29.3l9.8 11.7q5.8 9.8 15.6 11.8 25.4 3.9 39.1 -15.7l21.4 -29.3q5.9 -7.8 17.6 -7.8 13.7 0 19.6 13.7l19.5 50.8q7.8 21.5 21.5 39l35.1 45q17.6 21.5 17.6 50.7 0 27.4 -17.6 50.8L584 640.6q-25.4 33.2 -66.4 33.2 -25.4 0 -46.9 -13.6l-48.8 -31.3q-7.8 -3.9 -13.7 -7.8zm127 -419.9l42.9 44.9 -42.9 -44.9 42.9 44.9q13.7 15.6 5.9 33.2 -5.9 17.6 -27.4 19.5H498q-17.5 0 -31.2 -5.8l-84 -37.1q-21.5 -11.8 -19.5 -33.2 3.9 -19.6 25.4 -27.4l76.1 -13.7q41.1 -7.8 70.4 21.5v-1.9zm-50.8 566.4q1.9 -29.3 31.2 -31.3h31.3q29.3 2 31.2 31.3 -1.9 29.3 -31.2 31.2h-31.3q-29.3 -1.9 -31.2 -31.2zM841.8 507.8l15.6 46.9 -15.6 -46.9 15.6 46.9q7.8 27.3 -19.5 39.1 -27.4 5.8 -39.1 -19.6l-15.6 -46.9q-5.9 -27.3 19.5 -39 27.4 -7.8 39.1 19.5zm-39.1 156.3l-62.5 62.5 62.5 -62.5 -62.5 62.5q-21.4 19.5 -42.9 0 -19.6 -21.5 0 -43l62.5 -62.5q21.5 -19.5 42.9 0 19.6 21.5 0 43z"/></svg>