<svg height="1000" width="1000" xmlns="http://www.w3.org/2000/svg"><path d="M113.3 300.8l17.6 31.2 -17.6 -31.2 17.6 31.2q25.4 45 74.2 58.6l113.3 33.2q52.7 17.6 56.6 74.2v78.2q2 35.1 31.3 50.8t31.2 50.7v76.2q0 23.4 17.6 37.1 17.6 11.7 41 7.8 48.8 -17.5 64.4 -66.4l4 -21.5q13.6 -52.7 60.5 -78.1l15.6 -9.8q44.9 -27.3 46.9 -82v-15.6q0 -39.1 -27.3 -66.4l-7.9 -7.8Q625 423.8 585.9 423.8H502q-33.2 0 -62.5 -15.6L373 369.1q-13.6 -7.8 -17.5 -21.4 -9.8 -31.3 19.5 -48.9l11.7 -5.8q19.6 -9.8 41 -2l45 13.7q27.3 7.8 42.9 -13.7 13.7 -23.4 -1.9 -44.9l-27.4 -31.3q-29.3 -41 0 -80l31.3 -37.1q27.3 -33.2 7.8 -72.3l-5.9 -7.8H500Q361.3 19.5 257.8 97.7T113.3 300.8zm793 123q-2 -109.3 -50.8 -197.2l-50.8 19.5q-23.4 9.8 -33.2 31.2t-2 46.9l31.3 97.7q11.7 33.2 44.9 41l56.6 15.6q4 -27.3 4 -54.7zM0 423.8q2 -136.7 66.4 -250Q132.8 60.5 250 -9.8q119.1 -66.4 250 -66.4t250 66.4q117.2 70.3 183.6 183.6 64.4 113.3 66.4 250 -2 136.7 -66.4 250Q867.2 787.1 750 857.4q-119.1 66.4 -250 66.4T250 857.4Q132.8 787.1 66.4 673.8 2 560.5 0 423.8z"/></svg>