<svg height="1000" width="1000" xmlns="http://www.w3.org/2000/svg"><path d="M519.5 17.6l-64.4 50.8 64.4 -50.8 -64.4 50.8q-17.6 11.7 -17.6 33.2v17.5q2 21.5 23.4 23.5 7.9 0 13.7 -3.9l82 -54.7q5.9 -3.9 13.7 -3.9h2q19.5 1.9 21.5 21.5 0 9.7 -5.9 15.6l-39.1 39.1q-17.5 17.5 -41 25.3L457 199.2q-19.5 5.9 -19.5 25.4 0 11.7 -7.8 19.5l-35.2 35.2Q375 298.8 375 326.2v7.8q0 25.4 17.6 41 15.6 17.6 41 17.6 35.2 -2 50.8 -31.3l7.8 -15.6q7.8 -15.6 25.4 -15.6 13.7 0 21.5 11.7l33.2 41q5.8 9.8 17.5 9.8 27.4 -5.9 19.6 -31.3l-2 -5.8q-9.7 -23.5 13.7 -35.2l41 -13.7q23.4 -7.8 25.4 -33.2 3.9 -33.2 37.1 -37.1h56.7q29.2 2 31.2 31.3 -2 29.3 -31.2 31.2h-41.1q-21.4 0 -37.1 15.7l-9.7 9.7q-5.9 5.9 -5.9 15.6 2 19.6 21.5 21.5h23.4q17.6 0 31.3 13.7l11.7 11.7q5.9 5.9 5.9 13.7t-5.9 13.7l-13.7 13.6Q750 439.5 750 455.1t11.7 27.3l35.2 35.2q31.2 31.2 76.1 31.2h13.7q19.6 -58.6 19.6 -125Q902.3 255.9 793 142.6 685.5 29.3 519.5 17.6zm336 601.5q-9.8 -7.8 -25.4 -7.8 -17.6 0 -31.3 -13.6l-25.4 -25.4Q750 548.8 716.8 548.8q-29.3 0 -50.8 -19.5l-52.7 -44.9q-35.2 -29.3 -82 -29.3h-41.1q-37.1 0 -68.3 21.5l-52.8 35.1q-54.6 39.1 -56.6 103.5v7.8q0 50.8 37.1 87.9l31.3 31.3q25.4 25.4 62.5 25.4h41q42.9 3.9 46.9 46.9 0 7.8 1.9 13.6 105.5 -9.7 189.5 -64.4Q806.6 707 855.5 619.1zM0 423.8q2 -136.7 66.4 -250Q132.8 60.5 250 -9.8q119.1 -66.4 250 -66.4t250 66.4q117.2 70.3 183.6 183.6 64.4 113.3 66.4 250 -2 136.7 -66.4 250Q867.2 787.1 750 857.4q-119.1 66.4 -250 66.4T250 857.4Q132.8 787.1 66.4 673.8 2 560.5 0 423.8zM365.2 121.1q-21.4 -19.5 -42.9 0l-62.5 62.5q-19.6 21.5 0 43 21.5 19.5 42.9 0l62.5 -62.5q19.6 -21.5 0 -43z"/></svg>