<svg height="1000" width="1000" xmlns="http://www.w3.org/2000/svg"><path d="M259.8 -66.4l-125 125 125 -125 -125 125Q121.1 72.3 127 91.8q9.7 17.6 29.3 19.5h250q19.5 0 29.2 -19.5 5.9 -19.5 -7.8 -33.2l-125 -125q-21.4 -19.5 -42.9 0zM125 173.8q-52.7 2 -87.9 37.1Q2 246.1 0 298.8v500q2 52.8 37.1 87.9t87.9 37.1h750q52.7 -1.9 87.9 -37.1t37.1 -87.9v-500q-2 -52.7 -37.1 -87.9T875 173.8H125zm187.5 187.5q52.7 2 82 46.9 23.5 46.9 0 93.8 -29.3 44.9 -82 46.8 -52.7 -1.9 -82 -46.8 -23.5 -46.9 0 -93.8 29.3 -44.9 82 -46.9zM156.3 705.1q1.9 -39.1 27.3 -66.4 27.3 -25.4 66.4 -27.4h125q39.1 2 66.4 27.4 25.4 27.3 27.4 66.4v31.2q0 27.4 -17.6 45t-44.9 17.5H218.8q-27.4 0 -45 -17.5t-17.5 -45v-31.2zm375 0q1.9 -39.1 27.3 -66.4 27.3 -25.4 66.4 -27.4h125q39.1 2 66.4 27.4 25.4 27.3 27.4 66.4v31.2q0 27.4 -17.6 45t-44.9 17.5H593.8q-27.4 0 -45 -17.5t-17.5 -45v-31.2zm62.5 -250q1.9 -52.8 46.8 -82.1 46.9 -23.4 93.8 0 44.9 29.3 46.9 82.1 -2 52.7 -46.9 82 -46.9 23.4 -93.8 0 -44.9 -29.3 -46.8 -82zM697.3 101.6q21.5 19.5 42.9 0l125 -125q13.7 -13.7 7.8 -33.2 -9.7 -17.6 -29.2 -19.6h-250q-19.6 0 -29.3 19.6 -5.9 19.5 7.8 33.2l125 125z"/></svg>