<svg height="1000" width="1000" xmlns="http://www.w3.org/2000/svg"><path d="M419.9 111.3H281.3h138.6H187.5V457L0 320.3q5.9 -56.6 50.8 -89.8l43 -33.2v-86q1.9 -39 27.3 -66.4 27.3 -25.4 66.4 -27.3h150.4l97.6 -72.3q27.4 -21.5 64.5 -21.5t66.4 21.5l95.7 72.3h150.4q39.1 1.9 66.4 27.3 25.4 27.4 27.4 66.4v86l42.9 33.2q44.9 33.2 50.8 89.8L812.5 457V111.3H419.9zM0 798.8V396.5v402.3V396.5l425.8 314.4q33.2 25.4 74.2 25.4t74.2 -25.4L1000 396.5v402.3q-2 52.8 -37.1 87.9T875 923.8H125Q72.3 921.9 37.1 886.7T0 798.8zM343.8 236.3h312.5H343.8h312.5q29.2 2 31.2 31.3 -2 29.3 -31.2 31.2H343.8q-29.3 -1.9 -31.3 -31.2 2 -29.3 31.3 -31.3zm0 125h312.5H343.8h312.5q29.2 2 31.2 31.3 -2 29.3 -31.2 31.2H343.8q-29.3 -1.9 -31.3 -31.2 2 -29.3 31.3 -31.3z"/></svg>