<svg height="1000" width="1250" xmlns="http://www.w3.org/2000/svg"><path d="M93.8 48.8q-39.1 2 -66.5 27.4Q2 103.5 0 142.6q2 46.9 37.1 74.2l425.8 320.3q37.1 23.4 74.2 0l113.3 -84q35.1 -89.8 111.3 -146.5Q835.9 248 935.5 238.3l27.4 -21.5Q998 189.5 1000 142.6q-2 -39.1 -27.3 -66.4Q945.3 50.8 906.3 48.8H93.8zm480.4 537.1Q541 611.3 500 611.3t-74.2 -25.4L0 267.6v406.2q2 52.8 37.1 87.9t87.9 37.1h578.1Q627 707 625 580.1q0 -15.6 2 -33.2l-52.8 39zm675.8 -5.8q0 -76.2 -37.1 -140.6Q1175.8 375 1109.4 335.9 1043 298.8 968.8 298.8t-140.7 37.1Q761.7 375 724.6 439.5t-37.1 140.6 37.1 140.6 103.5 103.5q66.4 37.1 140.7 37.1t140.6 -37.1q66.4 -39 103.5 -103.5T1250 580.1zm-150.4 -84q19.5 21.5 0 43L959 679.7q-21.5 19.5 -43 0l-78.1 -78.1q-19.5 -21.5 0 -43 21.5 -19.5 43 0l56.6 54.7 119.1 -117.2q21.5 -19.5 43 0z"/></svg>