<svg height="1000" width="1250" xmlns="http://www.w3.org/2000/svg"><path d="M250 -76.2q-27.3 0 -44.9 17.6 -17.6 17.6 -17.6 44.9v375H375v-62.5q2 -52.7 37.1 -87.9T500 173.8h437.5V-13.7q0 -27.3 -17.6 -44.9T875 -76.2H250zm250 312.5q-27.3 0 -44.9 17.6 -17.6 17.6 -17.6 44.9v62.5H625q52.7 2 87.9 37.1t37.1 87.9v250h375q27.3 0 44.9 -17.5t17.6 -45v-375q0 -27.3 -17.6 -44.9T1125 236.3H500zm468.8 125h62.5 -62.5 62.5q29.2 2 31.2 31.3v62.5q-2 29.3 -31.2 31.2h-62.5q-29.3 -1.9 -31.3 -31.2v-62.5q2 -29.3 31.3 -31.3zM125 423.8q-27.3 0 -44.9 17.6Q62.5 459 62.5 486.3v25.4l302.7 224.6q3.9 2 9.8 3.9 5.9 -1.9 9.8 -3.9L687.5 511.7v-25.4q0 -27.3 -17.6 -44.9T625 423.8H125zm562.5 166L421.9 787.1 687.5 589.8 421.9 787.1q-21.5 13.7 -46.9 15.6 -25.4 -1.9 -46.9 -15.6L62.5 589.8v271.5q0 27.4 17.6 45t44.9 17.5h500q27.3 0 44.9 -17.5t17.6 -45V589.8z"/></svg>