<svg height="1000" width="1000" xmlns="http://www.w3.org/2000/svg"><path d="M0 361.3v375 -375 375q0 27.4 17.6 45t44.9 17.5h125V580.1q2 -29.3 31.3 -31.3 29.2 2 31.2 31.3v218.7h125V580.1q2 -29.3 31.3 -31.3 29.2 2 31.2 31.3v218.7h125V580.1q2 -29.3 31.3 -31.3 29.2 2 31.2 31.3v218.7h125V580.1q2 -29.3 31.3 -31.3 29.2 2 31.2 31.3v218.7h125q27.3 0 44.9 -17.5t17.6 -45v-375q0 -27.3 -17.6 -44.9t-44.9 -17.6H875v-62.5q0 -27.3 -17.6 -44.9t-44.9 -17.6H750v-62.5Q750 84 732.4 66.4T687.5 48.8h-375q-27.3 0 -44.9 17.6T250 111.3v62.5h-62.5q-27.3 0 -44.9 17.6T125 236.3v62.5H62.5q-27.3 0 -44.9 17.6T0 361.3z"/></svg>