<svg height="1000" width="625" xmlns="http://www.w3.org/2000/svg"><path d="M93.8 392.6v62.5H62.5q-27.3 0 -44.9 17.6T0 517.6t17.6 44.9 44.9 17.6h54.7q46.9 125 152.3 201.2 105.5 78.1 246.1 80h46.9q27.3 0 44.9 -17.5t17.6 -45 -17.6 -44.9 -44.9 -17.6h-46.9q-85.9 -1.9 -154.3 -42.9Q293 650.4 253.9 580.1H500q27.3 0 44.9 -17.6t17.6 -44.9 -17.6 -44.9T500 455.1H218.8v-62.5H500q27.3 0 44.9 -17.6t17.6 -44.9 -17.6 -44.9T500 267.6H253.9Q293 197.3 361.3 154.3q68.4 -41 154.3 -43h46.9q27.3 0 44.9 -17.5t17.6 -45T607.4 3.9t-44.9 -17.6h-46.9q-140.6 2 -246.1 80.1Q164.1 142.6 117.2 267.6H62.5q-27.3 0 -44.9 17.6T0 330.1 17.6 375t44.9 17.6h31.3z"/></svg>