<svg height="1000" width="875" xmlns="http://www.w3.org/2000/svg"><path d="M62.5 -13.7q-27.3 0 -44.9 17.6Q0 21.5 0 48.8v187.5q0 27.4 17.6 45t44.9 17.5 44.9 -17.5 17.6 -45v-125h125q27.3 0 44.9 -17.5t17.6 -45T294.9 3.9 250 -13.7H62.5zm62.5 625q0 -27.3 -17.6 -44.9Q89.8 548.8 62.5 548.8t-44.9 17.6T0 611.3v187.5q0 27.4 17.6 45t44.9 17.5H250q27.3 0 44.9 -17.5t17.6 -45 -17.6 -44.9T250 736.3H125v-125zm500 -625q-27.3 0 -44.9 17.6 -17.6 17.6 -17.6 44.9t17.6 45 44.9 17.5h125v125q0 27.4 17.6 45t44.9 17.5 44.9 -17.5 17.6 -45V48.8Q875 21.5 857.4 3.9t-44.9 -17.6H625zm250 625q0 -27.3 -17.6 -44.9 -17.6 -17.6 -44.9 -17.6t-44.9 17.6T750 611.3v125H625q-27.3 0 -44.9 17.6t-17.6 44.9 17.6 45 44.9 17.5h187.5q27.3 0 44.9 -17.5t17.6 -45V611.3z"/></svg>