<svg height="1000" width="1125" xmlns="http://www.w3.org/2000/svg"><path d="M976.6 -54.7q23.4 -31.2 60.5 -15.6 35.2 21.5 21.5 60.5L791 585.9q5.9 5.9 11.7 13.7L992.2 492.2q35.1 -15.6 60.5 11.7 21.5 33.2 -3.9 62.5L878.9 736.3H740.2q-21.4 -56.6 -68.3 -89.8Q625 611.3 562.5 611.3t-109.4 35.2q-46.8 33.2 -66.4 89.8H230.5L82 634.8Q52.7 611.3 66.4 574.2 85.9 543 123 550.8l189.5 58.6q9.8 -9.8 19.5 -21.5L209 384.8q-15.6 -33.2 11.7 -58.6 29.3 -23.5 60.6 0L480.5 498q1.9 -1.9 3.9 -1.9h5.8l25.4 -279.3q7.8 -39.1 46.9 -43 39.1 3.9 46.9 43l25.4 277.3L976.6 -54.7zM125 798.8h937.5q27.3 0 44.9 17.6t17.6 44.9 -17.6 45 -44.9 17.5H62.5q-27.3 0 -44.9 -17.5T0 861.3t17.6 -44.9 44.9 -17.6H125zm437.5 -875q43 3.9 46.9 46.9v93.8q-3.9 42.9 -46.9 46.8 -43 -3.9 -46.9 -46.8v-93.8q3.9 -43 46.9 -46.9z"/></svg>