<svg height="1000" width="1250" xmlns="http://www.w3.org/2000/svg"><path d="M76.2 -66.4Q39.1 -89.8 9.8 -58.6q-23.5 37.1 7.8 66.4l1156.2 906.3q37.1 23.4 66.4 -7.8 23.5 -37.2 -7.8 -66.5L1027.3 679.7Q1084 619.1 1123 556.6q39.1 -60.5 60.6 -109.3 7.8 -23.5 0 -46.9 -23.4 -54.7 -68.4 -123.1T1002 144.5Q931.6 78.1 837.9 33.2T625 -13.7q-99.6 2 -183.6 33.2 -82 33.2 -146.5 86L76.2 -66.4zm359.3 283.2Q513.7 144.5 625 142.6q119.1 3.9 199.2 82 78.1 80.1 82.1 199.2 0 74.2 -33.3 134.8L796.9 500q25.4 -58.6 9.7 -125 -17.5 -60.5 -64.4 -97.7 -48.8 -37.1 -109.4 -41 -17.6 3.9 -13.7 23.5 5.9 17.5 5.9 39 0 31.3 -13.7 54.7L435.5 216.8zm293 468.7Q679.7 705.1 625 705.1 505.9 701.2 425.8 623q-78.1 -80 -82 -199.2 0 -19.5 1.9 -39L162.1 240.2Q95.7 330.1 68.4 400.4q-9.8 23.4 0 46.9 21.4 54.7 66.4 123T250 703.1q68.4 66.4 162.1 111.4T625 861.3q140.6 -3.9 246.1 -62.5L728.5 685.5z"/></svg>