<svg height="1000" width="1000" xmlns="http://www.w3.org/2000/svg"><path d="M668 -19.5L468.8 179.7 668 -19.5 468.8 179.7l-17.6 -19.5q-19.6 -17.6 -44.9 -17.6t-45 17.6q-17.5 19.5 -17.5 44.9t17.5 44.9l312.5 312.5q19.6 17.6 45 17.6t44.9 -17.6q17.6 -19.5 17.6 -44.9t-17.6 -44.9l-19.6 -17.6L943.4 255.9Q1000 197.3 1000 119.1T943.4 -19.5Q882.8 -76.2 804.7 -76.2T668 -19.5zM107.4 554.7Q62.5 601.6 62.5 666v82L9.8 826.2q-23.5 42.9 7.8 80.1 37.1 31.2 80.1 7.8l78.1 -52.8h82q64.5 0 111.3 -44.9L603.5 580.1l-87.9 -87.9L279.3 726.6q-7.8 9.7 -21.5 9.7h-70.3V666q0 -13.7 9.8 -21.5L431.6 408.2l-87.8 -87.9L107.4 554.7z"/></svg>