<svg height="1000" width="1250" xmlns="http://www.w3.org/2000/svg"><path d="M76.2 -66.4Q39.1 -89.8 9.8 -58.6q-23.5 37.1 7.8 66.4l1156.2 906.3q37.1 23.4 66.4 -7.8 23.5 -37.2 -7.8 -66.5L1027.3 679.7Q1084 619.1 1123 556.6q39.1 -60.5 60.6 -109.3 7.8 -23.5 0 -46.9 -23.4 -54.7 -68.4 -123.1T1002 144.5Q931.6 78.1 837.9 33.2T625 -13.7q-99.6 2 -183.6 33.2 -82 33.2 -146.5 86L76.2 -66.4zm359.3 283.2q74.3 -66.4 170 -74.2 95.7 -5.9 179.7 50.8 89.8 64.4 113.2 166T873 558.6L796.9 500q25.4 -58.6 9.7 -125 -17.5 -60.5 -64.4 -97.7 -48.8 -37.1 -109.4 -41 -17.6 3.9 -13.7 23.5 5.9 17.5 5.9 39 0 31.3 -13.7 54.7L435.5 216.8zm435.6 582l-709 -558.6 709 558.6 -709 -558.6q-31.2 41.1 -54.7 82.1l662.1 517.5q54.7 -15.6 101.6 -41zM68.4 447.3q21.4 54.7 66.4 123 44.9 68.4 115.2 132.8 68.4 66.4 162.1 111.4T625 861.3h17.6L64.5 408.2q-5.9 19.5 3.9 39.1z"/></svg>