<svg height="1000" width="1125" xmlns="http://www.w3.org/2000/svg"><path d="M562.5 -13.7q-119.1 2 -212.9 46.9Q255.9 78.1 185.5 144.5 117.2 209 72.3 277.3T5.9 400.4q-9.8 23.4 0 46.9 21.4 54.7 66.4 123t113.2 132.8q70.4 66.4 164.1 111.4t212.9 46.8q119.1 -1.9 212.9 -46.8T939.5 703.1q68.3 -64.4 113.2 -132.8t68.4 -123q9.8 -23.5 0 -46.9 -23.4 -54.7 -68.4 -123.1T939.5 144.5Q869.1 78.1 775.4 33.2T562.5 -13.7zM281.3 423.8q0 -76.1 37.1 -140.6 37.1 -64.4 103.5 -103.5 66.4 -37.1 140.6 -37.1t140.6 37.1q66.4 39.1 103.5 103.5t37.2 140.6 -37.2 140.7T703.1 668q-66.4 37.1 -140.6 37.1T421.9 668Q355.5 628.9 318.4 564.5T281.3 423.8zm281.2 -125q-2 52.8 -37.1 87.9 -35.2 35.2 -87.9 37.1 -21.5 0 -39.1 -5.8 -19.5 -3.9 -23.4 13.6 0 19.6 5.9 41.1 23.4 76.1 87.9 113.2t142.5 19.6Q687.5 582 724.6 517.6T744.1 375q-17.5 -60.5 -64.4 -97.7 -48.8 -37.1 -109.4 -41 -17.6 3.9 -13.7 23.5 5.9 17.5 5.9 39z"/></svg>