<svg height="1000" width="1000" xmlns="http://www.w3.org/2000/svg"><path d="M500 923.8q136.7 -1.9 250 -66.4Q863.3 791 933.6 673.8q66.4 -119.1 66.4 -250t-66.4 -250Q863.3 56.6 750 -9.8 636.7 -74.2 500 -76.2q-136.7 2 -250 66.4Q136.7 56.6 66.4 173.8 0 293 0 423.8t66.4 250Q136.7 791 250 857.4q113.3 64.5 250 66.4zM320.3 560.5q27.4 31.3 70.3 56.7 44.9 23.4 109.4 25.4 64.5 -2 109.4 -25.4 42.9 -25.4 70.3 -56.7 21.5 -21.4 44.9 -3.9 19.5 21.5 2 45 -33.2 39 -89.9 70.3T500 705.1q-80.1 -2 -136.7 -33.2t-89.9 -70.3q-17.5 -23.5 3.9 -45 21.5 -17.5 43 3.9zM425.8 371.1h-2v-2q-1.9 -3.9 -5.8 -7.8l-19.6 -19.5q-27.3 -25.4 -54.6 -27.3 -27.4 1.9 -54.7 27.3l-19.6 19.5q-3.9 3.9 -5.8 7.8v2h-2q-5.8 7.8 -15.6 5.9 -11.7 -4 -11.7 -15.7 1.9 -54.7 33.2 -95.7 29.3 -41 76.2 -44.9 46.8 3.9 76.1 44.9 31.3 41 33.2 95.7 0 11.7 -9.7 15.7 -11.8 1.9 -17.6 -5.9zm312.5 0h-2v-2q-1.9 -3.9 -5.8 -7.8l-19.6 -19.5q-27.3 -25.4 -54.6 -27.3 -27.4 1.9 -54.7 27.3L582 361.3q-3.9 3.9 -5.8 7.8v2h-2q-5.8 7.8 -17.6 5.9 -9.7 -4 -9.7 -15.7 1.9 -54.7 33.2 -95.7 29.3 -41 76.2 -44.9 46.8 3.9 76.1 44.9 31.3 41 33.2 95.7 0 11.7 -11.7 15.7 -9.8 1.9 -15.6 -5.9z"/></svg>