<svg height="1000" width="1000" xmlns="http://www.w3.org/2000/svg"><path d="M500 923.8q136.7 -1.9 250 -66.4Q863.3 791 933.6 673.8q66.4 -119.1 66.4 -250t-66.4 -250Q863.3 56.6 750 -9.8 636.7 -74.2 500 -76.2q-136.7 2 -250 66.4Q136.7 56.6 66.4 173.8 0 293 0 423.8t66.4 250Q136.7 791 250 857.4q113.3 64.5 250 66.4zm0 -437.5q70.3 2 107.4 62.5 35.2 62.5 0 125Q570.3 734.4 500 736.3q-70.3 -1.9 -107.4 -62.5 -35.2 -62.5 0 -125Q429.7 488.3 500 486.3zM197.3 183.6q21.5 -19.5 42.9 0l72.3 70.3 72.3 -70.3q21.5 -19.5 42.9 0 19.6 21.5 0 43l-70.3 72.2 70.3 72.3q19.6 21.5 0 43 -21.4 19.5 -42.9 0l-72.3 -70.3 -72.3 70.3q-21.4 19.5 -42.9 0 -19.6 -21.5 0 -43l70.3 -72.3 -70.3 -72.2q-19.6 -21.5 0 -43zm375 0q21.5 -19.5 42.9 0l72.3 70.3 72.3 -70.3q21.5 -19.5 42.9 0 19.6 21.5 0 43l-70.3 72.2 70.3 72.3q19.6 21.5 0 43 -21.4 19.5 -42.9 0l-72.3 -70.3 -72.3 70.3q-21.4 19.5 -42.9 0 -19.6 -21.5 0 -43l70.3 -72.3 -70.3 -72.2q-19.6 -21.5 0 -43z"/></svg>