<svg height="1000" width="1000" xmlns="http://www.w3.org/2000/svg"><path d="M500 923.8q136.7 -1.9 250 -66.4Q863.3 791 933.6 673.8q66.4 -119.1 66.4 -250t-66.4 -250Q863.3 56.6 750 -9.8 636.7 -74.2 500 -76.2q-136.7 2 -250 66.4Q136.7 56.6 66.4 173.8 0 293 0 423.8t66.4 250Q136.7 791 250 857.4q113.3 64.5 250 66.4zM189.5 537.1q-5.9 -21.5 7.8 -35.1 11.7 -15.7 33.2 -15.7h539q21.5 0 33.2 15.7 13.7 13.6 7.8 35.1 -29.2 101.6 -113.2 166 -84 62.5 -197.3 64.5 -113.3 -2 -197.3 -64.5 -83.9 -64.4 -113.2 -166zm91.8 -238.3q1.9 -27.3 19.5 -44.9 17.6 -17.6 43 -17.6 27.3 0 44.9 17.6t17.6 44.9 -17.6 45 -44.9 17.5q-25.4 0 -43 -17.5t-19.5 -45zm306.6 50.8q-19.5 21.5 -44.9 5.9 -19.6 -19.6 -5.9 -45Q585.9 252 656.3 252t119.1 58.5q13.7 25.4 -5.9 45 -25.4 13.6 -44.9 -5.9 -27.3 -35.1 -68.3 -35.1t-68.4 35.1z"/></svg>