<svg height="1000" width="1000" xmlns="http://www.w3.org/2000/svg"><path d="M834 -48.8q29.3 -27.4 68.3 -27.4 39.1 0 68.4 29.3t29.3 68.4 -27.3 68.3q-23.5 19.6 -74.3 33.2t-89.8 17.6h-3.9q-2 2 -3.9 2 -17.6 0 -19.5 -15.6v-4q5.8 -37.1 17.5 -91.7 0 -2 2 -4v-3.9q11.7 -48.8 33.2 -72.2zm-87.9 37.1Q742.2 2 738.3 17.6q-13.7 58.6 -19.5 97.6 -4 41.1 23.4 66.4 25.4 27.4 66.4 23.5 39.1 -5.9 97.7 -19.6 13.6 -3.9 29.2 -7.8 80.1 146.5 60.6 310.6 -21.5 162.1 -142.6 289 -126.9 121.1 -289 142.6Q400.4 939.5 253.9 859.4l7.8 -27.4q13.7 -60.5 17.6 -99.6 5.9 -41 -21.5 -66.4 -25.4 -27.3 -66.4 -23.4 -39.1 5.8 -99.6 19.5l-27.3 7.8Q-15.6 523.4 3.9 359.4 25.4 197.3 146.5 70.3q126.9 -121.1 289 -142.6 164.1 -19.5 310.6 60.6zM101.6 724.6q58.6 -13.7 97.6 -19.5h2q17.6 1.9 17.6 19.5 -5.9 39.1 -19.6 99.6Q185.5 873 166 896.5q-29.3 27.3 -68.3 27.3T29.3 894.5 0 826.2t27.3 -68.4q23.5 -19.5 74.3 -33.2zM814.5 332q-7.9 -17.5 -25.4 -17.5 -17.6 1.9 -27.4 17.5Q705.1 437.5 611.3 535.2q-97.6 95.7 -203.1 150.3 -15.6 9.8 -17.6 27.4 0 17.6 17.6 25.4 85.9 33.2 175.8 15.6T744.1 668q68.4 -70.3 86 -160.2T814.5 332zM169.9 480.5q5.9 5.8 13.7 7.8l111.3 9.7 9.8 109.4q0 7.8 5.8 13.7 9.8 9.8 21.5 5.9 11.8 -2 17.6 -15.7l58.6 -189.4q3.9 -17.6 -7.8 -29.3t-29.3 -7.8l-191.4 56.6Q166 447.3 164.1 459q-3.9 11.7 5.8 21.5zm347.7 -377L460.9 293l56.7 -189.5L460.9 293q-5.8 19.5 5.9 31.2t31.2 5.9l189.5 -56.7q13.7 -5.8 15.6 -17.5 3.9 -11.8 -5.8 -21.5 -5.9 -5.9 -13.7 -5.9L574.2 216.8 562.5 107.4q0 -7.8 -5.9 -13.6Q546.9 84 535.2 87.9q-11.8 1.9 -17.6 15.6z"/></svg>