<svg height="1000" width="1000" xmlns="http://www.w3.org/2000/svg"><path d="M0 423.8q2 -136.7 66.4 -250Q132.8 60.5 250 -9.8q119.1 -66.4 250 -66.4t250 66.4q117.2 70.3 183.6 183.6 64.4 113.3 66.4 250 -2 136.7 -66.4 250Q867.2 787.1 750 857.4q-119.1 66.4 -250 66.4T250 857.4Q132.8 787.1 66.4 673.8 2 560.5 0 423.8zm406.3 -93.7q0 -27.4 -17.6 -44.9 -17.6 -17.6 -44.9 -17.6 -25.4 0 -43 17.6t-19.5 44.9q1.9 27.3 19.5 44.9t43 17.6q27.3 0 44.9 -17.6t17.6 -44.9zm250 62.5q27.3 0 44.9 -17.6 17.6 -17.6 17.6 -44.9t-17.6 -44.9 -44.9 -17.6q-25.4 0 -43 17.6t-19.5 44.9q1.9 27.3 19.5 44.9t43 17.6z"/></svg>