<svg height="1000" width="1000" xmlns="http://www.w3.org/2000/svg"><path d="M500 923.8q136.7 -1.9 250 -66.4Q863.3 791 933.6 673.8q66.4 -119.1 66.4 -250t-66.4 -250Q863.3 56.6 750 -9.8 636.7 -74.2 500 -76.2q-136.7 2 -250 66.4Q136.7 56.6 66.4 173.8 0 293 0 423.8t66.4 250Q136.7 791 250 857.4q113.3 64.5 250 66.4zM757.8 535.2q19.5 -5.9 31.3 5.8 13.6 11.7 5.8 31.3 -37.1 87.9 -115.2 140.6T500 767.6q-99.6 -2 -177.7 -54.7T205.1 572.3q-5.9 -19.6 5.8 -31.3 13.7 -11.7 31.3 -5.8 119.1 35.1 257.8 37.1 140.6 -2 257.8 -37.1zM724.6 380.9q-27.3 -35.2 -68.3 -35.2 -41.1 0 -68.4 35.2 -19.5 21.4 -44.9 5.8 -19.6 -19.5 -5.9 -44.9 48.8 -58.6 119.2 -58.6t119.1 58.6q15.6 25.4 -5.9 44.9 -25.4 15.6 -44.9 -5.8zM343.8 267.6q27.3 0 44.9 17.6 17.6 17.5 17.6 44.9T388.7 375t-44.9 17.6q-25.4 0 -43 -17.6t-19.5 -44.9q1.9 -27.4 19.5 -44.9t43 -17.6z"/></svg>