<svg height="1000" width="1250" xmlns="http://www.w3.org/2000/svg"><path d="M1072.3 648.4q-64.5 125 -181.7 199.3Q773.4 921.9 625 923.8 476.6 921.9 359.4 847.7T177.7 648.4q13.7 -7.8 25.4 -19.5 23.5 -25.4 33.2 -50.8 9.8 -27.3 15.7 -54.7 13.6 -56.6 19.5 -93.7 3.9 -41 -23.5 -66.4 -25.3 -27.4 -64.4 -23.5 -21.5 4 -52.7 9.8 31.2 -185.5 166 -302.7Q433.6 -72.3 625 -76.2q191.4 3.9 328.1 123.1 134.8 117.2 166 302.7 -31.2 -5.8 -50.7 -9.8 -41.1 -3.9 -66.4 23.5 -27.4 25.4 -23.5 66.4 5.9 37.1 19.5 93.7 5.9 27.4 17.6 52.8 7.8 27.3 31.3 52.7 11.7 11.7 25.4 19.5zM209 419.9q-3.9 35.2 -17.6 87.9 -11.7 52.7 -31.2 78.1 -3.9 2 -5.9 3.9Q125 613.3 89.8 611.3T27.3 584Q0 554.7 0 517.6t27.3 -64.5q11.8 -13.6 39.1 -23.4T125 414.1q39.1 -7.8 66.4 -11.8 17.6 0 17.6 17.6zm888.7 169.9q-2 0 -3.9 -1.9l-2 -2q-21.5 -25.4 -33.2 -78.1 -13.7 -52.7 -17.6 -87.9 0 -17.6 17.6 -17.6 3.9 0 5.9 2 25.3 2 60.5 9.8 31.3 5.8 58.6 15.6t39.1 23.4q27.3 27.4 27.3 64.5t-27.3 66.4q-27.4 25.4 -62.5 27.3t-64.5 -21.5h2zM919.9 572.3q7.8 -19.6 -5.8 -31.3 -11.8 -11.7 -31.3 -5.8Q765.6 570.3 625 572.3q-138.7 -2 -257.8 -37.1 -17.6 -5.9 -31.3 5.8 -11.7 11.7 -5.8 31.3 39 87.9 117.2 140.6T625 767.6q101.6 -2 179.7 -54.7T919.9 572.3zM550.8 371.1q5.8 7.8 17.6 5.9 9.7 -4 9.7 -15.7 -1.9 -54.7 -33.2 -95.7 -29.3 -41 -76.1 -44.9 -46.9 3.9 -76.2 44.9 -31.3 41 -33.2 95.7 0 11.7 11.7 15.7 9.8 1.9 15.6 -5.9h2v-2q1.9 -3.9 5.8 -7.8l19.6 -19.5q27.3 -25.4 54.7 -27.3 27.3 1.9 54.6 27.3l19.6 19.5q3.9 3.9 5.8 7.8v2h2zm312.5 0q5.8 7.8 17.6 5.9 9.7 -4 9.7 -15.7 -1.9 -54.7 -33.2 -95.7 -29.3 -41 -76.1 -44.9 -46.9 3.9 -76.2 44.9 -31.3 41 -33.2 95.7 0 11.7 11.7 15.7 9.8 1.9 15.6 -5.9h2v-2q1.9 -3.9 5.8 -7.8l19.6 -19.5q27.3 -25.4 54.7 -27.3 27.3 1.9 54.6 27.3l19.6 19.5q3.9 3.9 5.8 7.8v2h2z"/></svg>