<svg height="1000" width="1000" xmlns="http://www.w3.org/2000/svg"><path d="M972.7 587.9Q1000 509.8 1000 423.8 998 283.2 931.6 171.9 865.2 58.6 752 -7.8 640.6 -74.2 500 -76.2q-140.6 2 -252 68.4Q134.8 58.6 68.4 171.9 2 283.2 0 423.8q2 140.7 68.4 252Q134.8 789.1 248 855.5q111.4 66.4 252 68.3 103.5 0 195.3 -39 -15.6 -17.6 -21.5 -39.1L628.9 671.9q-13.7 -60.6 15.6 -111.4 27.4 -50.7 86 -68.3Q787.1 476.6 834 502t68.3 76.1q37.2 -3.9 70.4 9.8zM578.1 572.3q-1.9 21.5 -13.6 35.1 -13.7 15.6 -33.2 27.4 -7.9 3.9 -17.6 7.8 9.7 3.9 17.6 7.8 19.5 11.7 33.2 27.3t13.6 35.2q-1.9 19.5 -13.6 35.1 -13.7 15.7 -33.2 27.4 -41.1 21.5 -93.8 23.4 -11.7 0 -15.6 -11.7 -2 -11.7 7.8 -17.6h1.9v-1.9h2q1.9 -2 5.9 -3.9 7.8 -5.9 19.5 -13.7 11.7 -9.8 17.6 -19.5 7.8 -11.7 7.8 -17.6t-7.8 -17.6q-7.8 -9.8 -17.6 -19.5Q447.3 668 439.5 662.1q-4 -1.9 -5.9 -3.9h-2v-1.9h-1.9q-7.8 -4 -7.8 -13.7t7.8 -13.7h1.9V627h2q1.9 -2 5.9 -4 7.8 -5.8 19.5 -13.6 11.7 -9.8 17.6 -21.5 7.8 -9.8 7.8 -15.6t-7.8 -17.6q-7.8 -9.8 -17.6 -19.5 -11.7 -9.8 -19.5 -13.7 -4 -2 -5.9 -3.9l-2 -2h-1.9q-9.8 -5.8 -7.8 -17.6 3.9 -11.7 15.6 -11.7 52.7 0 93.8 23.5 19.5 11.7 33.2 27.3 11.7 13.7 13.6 35.2zM343.8 267.6q27.3 0 44.9 17.6 17.6 17.5 17.6 44.9T388.7 375t-44.9 17.6q-25.4 0 -43 -17.6t-19.5 -44.9q1.9 -27.4 19.5 -44.9t43 -17.6zm380.8 113.3q-27.3 -35.2 -68.3 -35.2 -41.1 0 -68.4 35.2 -19.5 21.4 -44.9 5.8 -19.6 -19.5 -5.9 -44.9 48.8 -58.6 119.2 -58.6t119.1 58.6q15.6 25.4 -5.9 44.9 -25.4 13.7 -44.9 -5.8zm123.1 230.4q-9.8 -33.2 -37.2 -50.8Q781.3 543 748 552.7t-48.8 39.1q-17.6 29.3 -9.7 64.5l44.9 173.8q9.7 27.3 39 23.4l166.1 -46.9q33.2 -9.7 48.8 -39 17.6 -31.3 7.8 -66.4Q988.3 668 959 650.4q-27.4 -17.6 -62.5 -7.8l-39.1 9.7 -9.7 -41z"/></svg>