<svg height="1000" width="1000" xmlns="http://www.w3.org/2000/svg"><path d="M0 423.8q2 -136.7 66.4 -250Q132.8 60.5 250 -9.8q119.1 -66.4 250 -66.4t250 66.4q117.2 70.3 183.6 183.6 64.4 113.3 66.4 250 -2 136.7 -66.4 250Q867.2 787.1 750 857.4q-119.1 66.4 -250 66.4T250 857.4Q132.8 787.1 66.4 673.8 2 560.5 0 423.8zm662.1 273.5q19.5 -21.5 2 -45Q640.6 625 599.6 603.5T500 580.1q-58.6 1.9 -99.6 23.4t-64.5 48.8q-17.5 23.5 2 45 23.4 17.5 44.9 -2 17.6 -19.5 46.9 -37.1Q459 642.6 500 642.6t70.3 15.6q29.3 17.6 46.9 37.1 21.5 19.5 44.9 2zM343.8 455.1q27.3 0 44.9 -17.6 17.6 -17.6 17.6 -44.9v-7.8l21.4 5.8q27.4 7.8 39.1 -19.5 7.8 -27.3 -19.5 -39.1L259.8 269.5q-27.4 -5.8 -39.1 19.6 -5.9 27.3 19.5 39l60.6 19.6q-17.6 17.5 -19.5 44.9 1.9 27.3 19.5 44.9t43 17.6zm375 -62.5q0 -27.4 -17.6 -44.9l58.6 -19.6q27.3 -11.7 19.5 -39 -11.7 -25.4 -39.1 -19.6L552.7 332q-25.4 11.8 -19.5 39.1 11.7 25.4 39.1 19.5l23.4 -7.8v9.8q0 27.3 17.6 44.9t44.9 17.6q25.4 0 43 -17.6t19.5 -44.9h-1.9z"/></svg>