<svg height="1000" width="1000" xmlns="http://www.w3.org/2000/svg"><path d="M931.6 169.9q-11.7 3.9 -25.3 3.9 -39.1 0 -66.5 -27.3Q814.5 121.1 812.5 82q0 -15.6 9.8 -35.1V43h1.9q13.7 -31.3 33.2 -62.5 21.5 -31.3 37.1 -50.8 11.8 -11.7 23.5 0 23.4 29.3 50.8 74.2Q998 50.8 1000 82q0 33.2 -19.5 56.7t-48.9 31.2zM500 -76.2q152.3 2 271.5 80.1l-7.8 19.5Q752 46.9 750 82q2 66.4 46.9 109.4t109.4 44.9q27.3 0 52.7 -9.7 41 91.8 41 197.2 -2 140.7 -68.4 252Q865.2 789.1 752 855.5q-111.4 66.4 -252 68.3Q359.4 921.9 248 855.5 134.8 789.1 68.4 675.8 2 564.5 0 423.8 2 283.2 68.4 171.9 134.8 58.6 248 -7.8q111.4 -66.4 252 -68.4zm250 621.1q-115.2 35.2 -250 35.2T250 544.9q-19.5 -5.8 -31.2 5.9t-5.9 31.2q37.1 84 113.3 134.8T500 769.5q97.7 -1.9 173.8 -52.7T787.1 582q5.9 -19.5 -5.8 -31.2T750 544.9zM425.8 371.1q5.8 7.8 15.6 5.9 11.7 -4 11.7 -15.7 -1.9 -54.7 -33.2 -95.7 -29.3 -41 -76.1 -44.9 -46.9 3.9 -76.2 44.9 -31.3 41 -33.2 95.7 0 11.7 11.7 15.7 9.8 1.9 15.6 -5.9h2v-2q1.9 -3.9 5.8 -7.8l19.6 -19.5q27.3 -25.4 54.7 -27.3 27.3 1.9 54.6 27.3l19.6 19.5q3.9 3.9 5.8 7.8v2h2zm312.5 0q5.8 7.8 15.6 5.9 11.7 -4 11.7 -15.7 -1.9 -54.7 -33.2 -95.7 -29.3 -41 -76.1 -44.9 -46.9 3.9 -76.2 44.9 -31.3 41 -33.2 95.7 0 11.7 11.7 15.7 9.8 1.9 15.6 -5.9h2v-2q1.9 -3.9 5.8 -7.8l19.6 -19.5q27.3 -25.4 54.7 -27.3 27.3 1.9 54.6 27.3l19.6 19.5q3.9 3.9 5.8 7.8v2h2z"/></svg>