<svg height="1000" width="1000" xmlns="http://www.w3.org/2000/svg"><path d="M500 923.8q136.7 -1.9 250 -66.4Q863.3 791 933.6 673.8q66.4 -119.1 66.4 -250t-66.4 -250Q863.3 56.6 750 -9.8 636.7 -74.2 500 -76.2q-136.7 2 -250 66.4Q136.7 56.6 66.4 173.8 0 293 0 423.8t66.4 250Q136.7 791 250 857.4q113.3 64.5 250 66.4zM320.3 560.5q27.4 31.3 70.3 56.7 44.9 23.4 109.4 25.4 64.5 -2 109.4 -25.4 42.9 -25.4 70.3 -56.7 21.5 -21.4 44.9 -3.9 19.5 21.5 2 45 -33.2 39 -89.9 70.3T500 705.1q-80.1 -2 -136.7 -33.2t-89.9 -70.3q-17.5 -23.5 3.9 -45 21.5 -17.5 43 3.9zm-39 -230.4q1.9 -27.4 19.5 -44.9 17.6 -17.6 43 -17.6 27.3 0 44.9 17.6t17.6 44.9T388.7 375t-44.9 17.6q-25.4 0 -43 -17.6t-19.5 -44.9zm306.6 50.8q-19.5 21.4 -44.9 5.8 -19.6 -19.5 -5.9 -44.9 48.8 -58.6 119.2 -58.6t119.1 58.6q13.7 25.4 -5.9 44.9 -25.4 13.7 -44.9 -5.8 -27.3 -35.2 -68.3 -35.2t-68.4 35.2z"/></svg>