<svg height="1000" width="1000" xmlns="http://www.w3.org/2000/svg"><path d="M341.8 898.4Q189.5 845.7 95.7 718.8 2 591.8 0 423.8 2 283.2 68.4 171.9 134.8 58.6 248 -7.8q111.4 -66.4 252 -68.4 140.6 2 252 68.4 113.2 66.4 179.6 179.7Q998 283.2 1000 423.8q-2 168 -95.7 295T660.2 898.4q27.3 -44.9 27.3 -99.6V707q72.3 -52.7 107.4 -134.7 7.8 -19.6 -5.8 -31.3 -11.8 -11.7 -31.3 -5.8Q640.6 570.3 500 572.3q-138.7 -2 -257.8 -37.1 -17.6 -5.9 -31.3 5.8 -11.7 11.7 -5.8 31.3 35.1 82 107.4 134.7v91.8q0 54.7 27.3 99.6h2zm39.1 -517.5q19.5 19.5 44.9 5.8 21.5 -19.5 5.8 -44.9Q382.8 283.2 312.5 283.2t-119.1 58.6q-15.7 25.4 5.8 44.9 25.4 13.7 44.9 -5.8 27.4 -35.2 68.4 -35.2t68.4 35.2zm275.4 74.2q70.3 -2 107.4 -62.5 35.1 -62.5 0 -125Q726.6 207 656.3 205.1q-70.4 1.9 -107.5 62.5 -35.1 62.5 0 125 37.1 60.5 107.5 62.5zM625 710.9v87.9 -87.9 87.9q-2 52.8 -37.1 87.9T500 923.8q-52.7 -1.9 -87.9 -37.1T375 798.8v-87.9q3.9 -48.8 52.7 -52.7h3.9q35.2 2 45 37.1 5.8 17.6 23.4 17.6t23.4 -17.6q9.8 -35.1 45 -37.1h3.9q48.8 3.9 52.7 52.7zm31.3 -427.7q42.9 3.9 46.8 46.9Q699.2 373 656.3 377q-43 -4 -46.9 -46.9 3.9 -43 46.9 -46.9z"/></svg>