<svg height="1000" width="1000" xmlns="http://www.w3.org/2000/svg"><path d="M500 923.8q136.7 -1.9 250 -66.4Q863.3 791 933.6 673.8q66.4 -119.1 66.4 -250t-66.4 -250Q863.3 56.6 750 -9.8 636.7 -74.2 500 -76.2q-136.7 2 -250 66.4Q136.7 56.6 66.4 173.8 0 293 0 423.8t66.4 250Q136.7 791 250 857.4q113.3 64.5 250 66.4zM189.5 537.1q-5.9 -21.5 7.8 -35.1 11.7 -15.7 33.2 -15.7h539q21.5 0 33.2 15.7 13.7 13.6 7.8 35.1 -29.2 101.6 -113.2 166 -84 62.5 -197.3 64.5 -113.3 -2 -197.3 -64.5 -83.9 -64.4 -113.2 -166zM425.8 339.8h-2v-1.9q-1.9 -3.9 -5.8 -7.8l-19.6 -19.6q-27.3 -25.3 -54.6 -27.3 -27.4 2 -54.7 27.3l-19.6 19.6q-3.9 3.9 -5.8 7.8v1.9h-2q-5.8 7.9 -15.6 5.9 -11.7 -3.9 -11.7 -15.6 1.9 -54.7 33.2 -95.7 29.3 -41 76.2 -44.9 46.8 3.9 76.1 44.9 31.3 41 33.2 95.7 0 11.7 -9.7 15.6 -11.8 2 -17.6 -5.9zm312.5 0h-2v-1.9q-1.9 -3.9 -5.8 -7.8l-19.6 -19.6q-27.3 -25.3 -54.6 -27.3 -27.4 2 -54.7 27.3L582 330.1q-3.9 3.9 -5.8 7.8v1.9h-2q-5.8 7.9 -17.6 5.9 -9.7 -3.9 -9.7 -15.6 1.9 -54.7 33.2 -95.7 29.3 -41 76.2 -44.9 46.8 3.9 76.1 44.9 31.3 41 33.2 95.7 0 11.7 -11.7 15.6 -9.8 2 -15.6 -5.9z"/></svg>