<svg height="1000" width="1000" xmlns="http://www.w3.org/2000/svg"><path d="M500 923.8q136.7 -1.9 250 -66.4Q863.3 791 933.6 673.8q66.4 -119.1 66.4 -250t-66.4 -250Q863.3 56.6 750 -9.8 636.7 -74.2 500 -76.2q-136.7 2 -250 66.4Q136.7 56.6 66.4 173.8 0 293 0 423.8t66.4 250Q136.7 791 250 857.4q113.3 64.5 250 66.4zm95.7 -386.7q13.7 15.6 13.7 35.2 -2 21.5 -13.7 35.1Q582 623 562.5 634.8q-7.8 3.9 -17.6 7.8 9.8 3.9 17.6 7.8 19.5 11.7 33.2 27.3t13.7 35.2q-2 19.5 -13.7 35.1 -13.7 15.7 -33.2 27.4 -41 21.5 -93.7 23.4 -11.8 0 -15.7 -11.7 -1.9 -11.7 7.8 -17.6h2v-1.9h1.9q2 -2 5.9 -3.9 7.8 -5.9 19.5 -13.7 11.8 -9.8 17.6 -19.5 7.8 -11.7 7.8 -17.6t-7.8 -17.6q-5.8 -9.8 -17.6 -19.5Q478.5 668 470.7 662.1q-3.9 -1.9 -5.9 -3.9h-1.9v-1.9h-2q-7.8 -4 -7.8 -13.7t7.8 -13.7h2V627h1.9q2 -2 5.9 -4 7.8 -5.8 19.5 -13.6 11.8 -9.8 17.6 -21.5 7.8 -9.8 7.8 -15.6t-7.8 -17.6q-5.8 -9.8 -17.6 -19.5t-19.5 -13.7q-3.9 -2 -5.9 -3.9l-1.9 -2h-2q-9.7 -5.8 -7.8 -17.6 3.9 -11.7 15.7 -11.7 52.7 0 93.7 23.5 19.5 11.7 33.2 25.4v1.9zm-169.9 -166h-2v-2q-1.9 -3.9 -5.8 -7.8l-19.6 -19.5q-27.3 -25.4 -54.6 -27.3 -27.4 1.9 -54.7 27.3l-19.6 19.5q-3.9 3.9 -5.8 7.8v2h-2q-5.8 7.8 -15.6 5.9 -11.7 -4 -11.7 -15.7 1.9 -54.7 33.2 -95.7 29.3 -41 76.2 -44.9 46.8 3.9 76.1 44.9 31.3 41 33.2 95.7 0 11.7 -9.7 15.7 -11.8 1.9 -17.6 -5.9zm312.5 0h-2v-2q-1.9 -3.9 -5.8 -7.8l-19.6 -19.5q-27.3 -25.4 -54.6 -27.3 -27.4 1.9 -54.7 27.3L582 361.3q-3.9 3.9 -5.8 7.8v2h-2q-5.8 7.8 -17.6 5.9 -9.7 -4 -9.7 -15.7 1.9 -54.7 33.2 -95.7 29.3 -41 76.2 -44.9 46.8 3.9 76.1 44.9 31.3 41 33.2 95.7 0 11.7 -11.7 15.7 -9.8 1.9 -15.6 -5.9z"/></svg>