<svg height="1000" width="1000" xmlns="http://www.w3.org/2000/svg"><path d="M500 923.8q136.7 -1.9 250 -66.4Q863.3 791 933.6 673.8q66.4 -119.1 66.4 -250t-66.4 -250Q863.3 56.6 750 -9.8 636.7 -74.2 500 -76.2q-136.7 2 -250 66.4Q136.7 56.6 66.4 173.8 0 293 0 423.8t66.4 250Q136.7 791 250 857.4q113.3 64.5 250 66.4zM375 642.6h250H375h250q29.3 1.9 31.3 31.2 -2 29.3 -31.3 31.3H375q-29.3 -2 -31.2 -31.3 1.9 -29.3 31.2 -31.2zm62.5 -281.3q-2 52.8 -37.1 87.9 -35.2 35.2 -87.9 37.1 -52.7 -1.9 -87.9 -37.1t-37.1 -87.9q3.9 -80 74.2 -113.3Q250 263.7 250 283.2q0 27.3 17.6 44.9t44.9 17.6 44.9 -17.6T375 283.2q0 -19.5 -11.7 -35.2 70.3 33.3 74.2 113.3zm250 125q-52.7 -1.9 -87.9 -37.1 -35.1 -35.1 -37.1 -87.9 3.9 -80 74.2 -113.3Q625 263.7 625 283.2q0 27.3 17.6 44.9t44.9 17.6 44.9 -17.6T750 283.2q0 -19.5 -11.7 -35.2 70.3 33.3 74.2 113.3 -2 52.8 -37.1 87.9t-87.9 37.1z"/></svg>