<svg height="1000" width="1000" xmlns="http://www.w3.org/2000/svg"><path d="M500 923.8q136.7 -1.9 250 -66.4Q863.3 791 933.6 673.8q66.4 -119.1 66.4 -250t-66.4 -250Q863.3 56.6 750 -9.8 636.7 -74.2 500 -76.2q-136.7 2 -250 66.4Q136.7 56.6 66.4 173.8 0 293 0 423.8t66.4 250Q136.7 791 250 857.4q113.3 64.5 250 66.4zM757.8 535.2q19.5 -5.9 31.3 5.8 13.6 11.7 5.8 31.3 -37.1 87.9 -115.2 140.6T500 767.6q-99.6 -2 -177.7 -54.7T205.1 572.3q-5.9 -19.6 5.8 -31.3 13.7 -11.7 31.3 -5.8 119.1 35.1 257.8 37.1 140.6 -2 257.8 -37.1zM388.7 175.8q27.3 7.8 41 31.2 11.7 21.5 5.8 48.9l-33.2 126.9q-11.7 27.4 -39 21.5l-127 -33.2q-27.3 -7.8 -39 -31.3Q183.6 318.4 189.5 291q7.8 -27.3 31.2 -39 21.5 -13.7 48.8 -7.9l31.3 9.8 7.8 -31.2q7.8 -27.4 31.2 -41.1 21.5 -11.7 48.9 -5.8zm302.7 46.9l7.8 31.2 -7.8 -31.2 7.8 31.2 31.3 -7.8q27.3 -7.8 48.8 5.9 23.4 11.7 31.2 39 5.9 27.4 -7.8 48.8 -11.7 23.5 -39 31.3l-127 33.2q-27.3 5.9 -39 -21.5L564.5 255.9q-5.9 -27.4 5.8 -48.9 13.7 -23.4 41 -31.2 25.4 -5.9 48.9 7.8 23.4 11.7 31.2 39.1z"/></svg>