<svg height="1000" width="1000" xmlns="http://www.w3.org/2000/svg"><path d="M500 923.8q136.7 -1.9 250 -66.4Q863.3 791 933.6 673.8q66.4 -119.1 66.4 -250t-66.4 -250Q863.3 56.6 750 -9.8 636.7 -74.2 500 -76.2q-136.7 2 -250 66.4Q136.7 56.6 66.4 173.8 0 293 0 423.8t66.4 250Q136.7 791 250 857.4q113.3 64.5 250 66.4zM757.8 535.2q19.5 -5.9 31.3 5.8 13.6 11.7 5.8 31.3 -37.1 87.9 -115.2 140.6T500 767.6q-99.6 -2 -177.7 -54.7T205.1 572.3q-5.9 -19.6 5.8 -31.3 13.7 -11.7 31.3 -5.8 119.1 35.1 257.8 37.1 140.6 -2 257.8 -37.1zM406.3 298.8q0 52.8 -17.6 87.9 -17.6 35.2 -44.9 37.1 -27.4 -1.9 -45 -37.1t-17.5 -87.9 17.5 -87.9 45 -37.1q27.3 2 44.9 37.1t17.6 87.9zm250 125q-27.4 -1.9 -45 -37.1 -17.5 -35.1 -17.5 -87.9t17.5 -87.9 45 -37.1q27.3 2 44.9 37.1t17.6 87.9 -17.6 87.9 -44.9 37.1z"/></svg>