<svg height="1000" width="1000" xmlns="http://www.w3.org/2000/svg"><path d="M0 423.8q2 136.7 66.4 250Q132.8 787.1 250 857.4q119.1 66.4 250 66.4t250 -66.4Q867.2 787.1 933.6 673.8 998 560.5 1000 423.8q-2 -136.7 -66.4 -250Q867.2 60.5 750 -9.8 630.9 -76.2 500 -76.2T250 -9.8Q132.8 60.5 66.4 173.8 2 287.1 0 423.8zm468.8 156.3q1.9 -29.3 31.2 -31.3 134.8 3.9 226.6 103.5 17.5 23.5 -2 45 -23.4 17.5 -44.9 -2 -76.2 -82 -179.7 -84 -29.3 -1.9 -31.2 -31.2zM312.5 736.3q-39.1 0 -66.4 -27.3 -25.4 -25.4 -27.3 -64.5 1.9 -31.2 31.2 -78.1 27.3 -44.9 50.8 -74.2 11.7 -11.7 23.4 0 23.5 29.3 50.8 74.2 29.3 46.9 31.3 78.1 -2 39.1 -27.4 64.5 -27.3 27.3 -66.4 27.3zM718.8 330.1q-2 27.3 -19.6 44.9 -17.6 17.6 -42.9 17.6 -27.4 0 -45 -17.6t-17.5 -44.9 17.5 -44.9 45 -17.6q25.3 0 42.9 17.6t19.6 44.9zm-375 -62.5q25.3 0 42.9 17.6 17.6 17.5 19.6 44.9 -2 27.3 -19.6 44.9t-42.9 17.6q-27.4 0 -45 -17.6t-17.5 -44.9 17.5 -44.9 45 -17.6z"/></svg>