<svg height="1000" width="1000" xmlns="http://www.w3.org/2000/svg"><path d="M500 923.8q136.7 -1.9 250 -66.4Q863.3 791 933.6 673.8q66.4 -119.1 66.4 -250t-66.4 -250Q863.3 56.6 750 -9.8 636.7 -74.2 500 -76.2q-136.7 2 -250 66.4Q136.7 56.6 66.4 173.8 0 293 0 423.8t66.4 250Q136.7 791 250 857.4q113.3 64.5 250 66.4zM687.5 705.1h-15.6 15.6 -15.6V627h107.4q-5.9 33.2 -31.3 56.6 -25.3 21.5 -60.5 21.5zm91.8 -109.4H671.9h107.4H671.9v-78.1h15.6q35.2 0 60.5 21.5 25.4 23.4 31.3 56.6zm-138.7 0h-125 125 -125v-78.1h125v78.1zm0 109.4h-125 125 -125V627h125v78.1zM484.4 517.6v78.1 -78.1 78.1h-125v-78.1h125zm0 109.4v78.1V627v78.1h-125V627h125zM328.1 595.7H220.7h107.4H220.7q5.9 -33.2 31.3 -56.6 25.3 -21.5 60.5 -21.5h15.6v78.1zm0 109.4h-15.6 15.6 -15.6q-35.2 0 -60.5 -21.5Q226.6 660.2 220.7 627h107.4v78.1zm-46.8 -375q1.9 -27.4 19.5 -44.9 17.6 -17.6 43 -17.6 27.3 0 44.9 17.6t17.6 44.9T388.7 375t-44.9 17.6q-25.4 0 -43 -17.6t-19.5 -44.9zm375 -62.5q27.3 0 44.9 17.6 17.6 17.5 17.6 44.9T701.2 375t-44.9 17.6q-25.4 0 -43 -17.6t-19.5 -44.9q1.9 -27.4 19.5 -44.9t43 -17.6z"/></svg>