<svg height="1000" width="1000" xmlns="http://www.w3.org/2000/svg"><path d="M687.5 886.7Q599.6 923.8 500 923.8T312.5 886.7V486.3q-2 -29.3 -31.2 -31.2Q252 457 250 486.3v371.1Q136.7 791 68.4 677.7 2 564.5 0 423.8 2 283.2 68.4 171.9 134.8 58.6 248 -7.8q111.4 -66.4 252 -68.4 140.6 2 252 68.4 113.2 66.4 179.6 179.7Q998 283.2 1000 423.8q-2 140.7 -68.4 253.9Q863.3 791 750 857.4V486.3Q748 457 718.8 455.1q-29.3 1.9 -31.3 31.2v400.4zM380.9 380.9q19.5 21.4 44.9 5.8 21.5 -19.5 5.8 -44.9Q382.8 283.2 312.5 283.2t-119.1 58.6q-15.7 25.4 5.8 44.9 25.4 13.7 44.9 -5.8 27.4 -35.2 68.4 -35.2t68.4 35.2zm238.2 0q27.4 -35.2 68.4 -35.2 41 0 68.4 35.2 19.5 21.4 44.9 5.8 21.5 -19.5 5.8 -44.9Q757.8 283.2 687.5 283.2t-119.1 58.6q-15.7 25.4 5.8 44.9 25.4 13.7 44.9 -5.8zM406.3 580.1v62.5 -62.5 62.5q1.9 39 27.3 66.4 27.3 25.4 66.4 27.3 39.1 -1.9 66.4 -27.3 25.4 -27.4 27.4 -66.4v-62.5q-2 -39.1 -27.4 -66.4Q539.1 488.3 500 486.3q-39.1 2 -66.4 27.4 -25.4 27.3 -27.3 66.4z"/></svg>