<svg height="1000" width="1000" xmlns="http://www.w3.org/2000/svg"><path d="M500 923.8q136.7 -1.9 250 -66.4Q863.3 791 933.6 673.8q66.4 -119.1 66.4 -250t-66.4 -250Q863.3 56.6 750 -9.8 636.7 -74.2 500 -76.2q-136.7 2 -250 66.4Q136.7 56.6 66.4 173.8 0 293 0 423.8t66.4 250Q136.7 791 250 857.4q113.3 64.5 250 66.4zM757.8 535.2q19.5 -5.9 31.3 5.8 13.6 11.7 5.8 31.3 -37.1 87.9 -115.2 140.6T500 767.6q-99.6 -2 -177.7 -54.7T205.1 572.3q-5.9 -19.6 5.8 -31.3 13.7 -11.7 31.3 -5.8 119.1 35.1 257.8 37.1 140.6 -2 257.8 -37.1zM261.7 210.9l173.8 93.8L261.7 210.9l173.8 93.8q15.7 7.8 15.7 25.4t-15.7 25.4l-173.8 93.7q-13.7 5.9 -23.4 0 -11.7 -5.8 -11.7 -19.5 0 -9.8 5.8 -15.6l70.3 -84 -70.3 -84q-5.8 -5.9 -5.8 -15.6 0 -13.7 11.7 -19.6 9.7 -5.8 23.4 0zm511.7 19.6q0 7.8 -5.8 15.6l-70.3 84 70.3 84q5.8 5.8 5.8 15.6 0 13.7 -11.7 19.5 -9.7 5.9 -21.5 0L564.5 355.5q-15.7 -9.8 -15.7 -25.4 0 -17.6 15.7 -25.4l175.7 -93.8q11.8 -5.8 21.5 0 11.7 5.9 11.7 19.6z"/></svg>