<svg height="1000" width="1000" xmlns="http://www.w3.org/2000/svg"><path d="M500 923.8q136.7 -1.9 250 -66.4Q863.3 791 933.6 673.8q66.4 -119.1 66.4 -250t-66.4 -250Q863.3 56.6 750 -9.8 636.7 -74.2 500 -76.2q-136.7 2 -250 66.4Q136.7 56.6 66.4 173.8 0 293 0 423.8t66.4 250Q136.7 791 250 857.4q113.3 64.5 250 66.4zM189.5 537.1q-5.9 -21.5 7.8 -35.1 11.7 -15.7 33.2 -15.7h539q21.5 0 33.2 15.7 13.7 13.6 7.8 35.1 -29.2 101.6 -113.2 166 -84 62.5 -197.3 64.5 -113.3 -2 -197.3 -64.5 -83.9 -64.4 -113.2 -166zm72.2 -388.7l173.8 93.8L261.7 148.4l173.8 93.8q15.7 7.8 15.7 25.4T435.5 293l-173.8 93.7q-13.7 5.9 -23.4 0 -11.7 -5.8 -11.7 -19.5 0 -9.8 5.8 -15.6l70.3 -84 -70.3 -84q-5.8 -5.9 -5.8 -15.6 0 -13.7 11.7 -19.6 9.7 -5.8 23.4 0zM773.4 168q0 7.8 -5.8 15.6l-70.3 84 70.3 84q5.8 5.8 5.8 15.6 0 13.7 -11.7 19.5 -9.7 5.9 -21.5 0L564.5 293q-15.7 -9.8 -15.7 -25.4 0 -17.6 15.7 -27.4l175.7 -91.8q11.8 -5.8 21.5 0 11.7 5.9 11.7 19.6z"/></svg>