<svg height="1000" width="1000" xmlns="http://www.w3.org/2000/svg"><path d="M0 423.8q2 168 95.7 295 93.8 126.9 246.1 179.6 -29.3 -44.9 -29.3 -99.6V707Q240.2 654.3 205.1 572.3q-5.9 -19.6 5.8 -31.3 13.7 -11.7 33.2 -5.8 117.2 35.1 255.9 37.1 140.6 -2 257.8 -37.1 19.5 -5.9 31.3 5.8 13.6 11.7 5.8 31.3 -35.1 82 -107.4 134.7v91.8q0 54.7 -29.3 99.6Q810.5 845.7 904.3 718.8t95.7 -295Q998 283.2 931.6 171.9 865.2 58.6 752 -7.8 640.6 -74.2 500 -76.2q-140.6 2 -252 68.4Q134.8 58.6 68.4 171.9 2 283.2 0 423.8zM343.8 267.6q27.3 0 44.9 17.6 17.6 17.5 17.6 44.9T388.7 375t-44.9 17.6q-25.4 0 -43 -17.6t-19.5 -44.9q1.9 -27.4 19.5 -44.9t43 -17.6zm250 62.5q1.9 -27.4 19.5 -44.9 17.6 -17.6 43 -17.6 27.3 0 44.9 17.6t17.6 44.9T701.2 375t-44.9 17.6q-25.4 0 -43 -17.6t-19.5 -44.9zM625 798.8v-87.9 87.9 -87.9q-3.9 -48.8 -52.7 -52.7h-3.9q-35.2 2 -45 37.1 -5.8 17.6 -23.4 17.6t-23.4 -17.6q-9.8 -35.1 -45 -37.1h-3.9q-48.8 3.9 -52.7 52.7v87.9q2 52.8 37.1 87.9t87.9 37.1q52.7 -1.9 87.9 -37.1T625 798.8z"/></svg>