<svg height="1000" width="1000" xmlns="http://www.w3.org/2000/svg"><path d="M0 423.8q2 -136.7 66.4 -250Q132.8 60.5 250 -9.8q119.1 -66.4 250 -66.4t250 66.4q117.2 70.3 183.6 183.6 64.4 113.3 66.4 250 -2 136.7 -66.4 250Q867.2 787.1 750 857.4q-119.1 66.4 -250 66.4T250 857.4Q132.8 787.1 66.4 673.8 2 560.5 0 423.8zm343.8 250q1.9 29.3 31.2 31.3h250q29.3 -2 31.3 -31.3 -2 -29.3 -31.3 -31.2H375q-29.3 1.9 -31.2 31.2zM312.5 502q80.1 -2 121.1 -70.4 39.1 -70.3 0 -140.6 -41 -68.3 -121.1 -70.3 -80.1 2 -121.1 70.3 -39.1 70.3 0 140.6 41 68.4 121.1 70.4zM828.1 361.3q-1.9 -80 -70.3 -121.1 -70.3 -39 -140.6 0 -68.4 41.1 -70.3 121.1 1.9 80.1 70.3 121.1 70.3 39.1 140.6 0 68.4 -41 70.3 -121.1zm-562.5 0q3.9 -42.9 46.9 -46.8 43 3.9 46.9 46.8 -3.9 43 -46.9 46.9 -43 -3.9 -46.9 -46.9zm375 0q3.9 -42.9 46.9 -46.8 43 3.9 46.9 46.8 -3.9 43 -46.9 46.9 -43 -3.9 -46.9 -46.9z"/></svg>