<svg height="1000" width="1000" xmlns="http://www.w3.org/2000/svg"><path d="M505.9 -76.2q-5.9 0 -9.8 2Q367.2 -46.9 300.8 56.6 234.4 162.1 255.9 293q7.8 50.8 29.3 93.7L62.5 361.3h-5.9q-23.4 0 -39 17.6Q0 394.5 0 418q0 5.8 2 11.7Q29.3 556.6 132.8 623q105.5 66.5 236.3 46.9 50.8 -9.7 93.8 -31.2l-25.4 222.6v5.9q0 23.4 17.6 39.1 15.6 17.5 39 17.5h11.8Q632.8 894.5 699.2 791q66.4 -105.5 46.9 -236.3 -9.8 -50.8 -31.3 -93.8l222.7 25.4h5.9q23.4 0 39 -17.5 17.6 -15.7 17.6 -39.1v-9.8Q970.7 291 867.2 224.6 761.7 158.2 630.9 179.7q-50.8 7.8 -93.8 29.3l25.4 -222.7v-5.8q0 -23.5 -17.6 -39.1 -15.6 -17.6 -39 -17.6zM500 361.3q27.3 0 44.9 17.6 17.6 17.6 17.6 44.9t-17.6 45T500 486.3t-44.9 -17.5 -17.6 -45 17.6 -44.9T500 361.3z"/></svg>