<svg height="1000" width="1000" xmlns="http://www.w3.org/2000/svg"><path d="M437.5 -76.2q27.3 0 44.9 17.6Q500 -41 500 -13.7V9.8l187.5 -23.5q27.3 0 44.9 17.6T750 48.8t-17.6 45 -44.9 17.5L500 87.9l-60.5 -7.8h-4L375 87.9l-187.5 23.4q-27.3 0 -44.9 -17.5T125 48.8 142.6 3.9t44.9 -17.6L375 9.8v-23.5q0 -27.3 17.6 -44.9t44.9 -17.6zM0 361.3Q0 334 17.6 316.4q17.6 -17.6 44.9 -17.6H250l44.9 -44.9q17.6 -17.6 43 -17.6H375v-85.9l62.5 -7.8 62.5 7.8v85.9h37.1q25.4 0 43 17.6l44.9 44.9h62.5q132.8 3.9 220.7 91.8t91.8 220.7q0 27.4 -17.6 45t-44.9 17.5h-125q-27.3 0 -44.9 -17.5t-17.6 -45 -17.6 -44.9 -44.9 -17.6h-70.3q-64.5 89.9 -179.7 93.8Q322.3 638.7 257.8 548.8H62.5q-27.3 0 -44.9 -17.5T0 486.3v-125zM853.5 750q5.9 -13.7 21.5 -13.7t21.5 13.7l35.1 84q5.9 11.7 5.9 25.4v1.9q0 27.4 -17.6 45T875 923.8t-44.9 -17.5 -17.6 -45v-1.9q0 -13.7 5.9 -25.4l35.1 -84z"/></svg>