<svg height="1000" width="1000" xmlns="http://www.w3.org/2000/svg"><path d="M375 111.3v23.5 -23.5 23.5L187.5 111.3q-27.3 0 -44.9 17.6T125 173.8t17.6 45 44.9 17.5L375 212.9l60.5 -7.8h4l60.5 7.8 187.5 23.4q27.3 0 44.9 -17.5t17.6 -45 -17.6 -44.9 -44.9 -17.6L500 134.8v-23.5Q500 84 482.4 66.4T437.5 48.8t-44.9 17.6T375 111.3zM62.5 423.8q-27.3 0 -44.9 17.6Q0 459 0 486.3v125q0 27.4 17.6 45t44.9 17.5h195.3q64.5 89.9 179.7 93.8 115.2 -3.9 179.7 -93.8h70.3q27.3 0 44.9 17.6t17.6 44.9 17.6 45 44.9 17.5h125q27.3 0 44.9 -17.5t17.6 -45Q996.1 603.5 908.2 515.6T687.5 423.8H625l-44.9 -44.9q-17.6 -17.6 -43 -17.6H500v-85.9l-62.5 -7.8 -62.5 7.8v85.9h-37.1q-25.4 0 -43 17.6L250 423.8H62.5z"/></svg>