<svg height="1000" width="1000" xmlns="http://www.w3.org/2000/svg"><path d="M250 48.8v187.5V48.8v187.5h125V48.8h380.9l56.6 56.7v130.8h125V105.5q0 -50.8 -37.1 -87.9l-56.6 -56.7q-37.2 -37.1 -87.9 -37.1H375q-52.7 2 -87.9 37.1T250 48.8zM0 236.3v625 -625 625q0 27.4 17.6 45t44.9 17.5H125q27.3 0 44.9 -17.5t17.6 -45v-625q0 -27.3 -17.6 -44.9T125 173.8H62.5q-27.3 0 -44.9 17.6T0 236.3zm937.5 62.5H250h687.5H250v562.5q0 27.4 17.6 45t44.9 17.5h625q27.3 0 44.9 -17.5t17.6 -45v-500q0 -27.3 -17.6 -44.9t-44.9 -17.6zM500 423.8q27.3 0 44.9 17.6 17.6 17.6 17.6 44.9t-17.6 45T500 548.8t-44.9 -17.5 -17.6 -45 17.6 -44.9T500 423.8zm187.5 62.5q0 -27.3 17.6 -44.9 17.6 -17.6 44.9 -17.6t44.9 17.6 17.6 44.9 -17.6 45T750 548.8t-44.9 -17.5 -17.6 -45zM750 673.8q27.3 0 44.9 17.6 17.6 17.6 17.6 44.9t-17.6 45T750 798.8t-44.9 -17.5 -17.6 -45 17.6 -44.9T750 673.8zm-312.5 62.5q0 -27.3 17.6 -44.9 17.6 -17.6 44.9 -17.6t44.9 17.6 17.6 44.9 -17.6 45T500 798.8t-44.9 -17.5 -17.6 -45z"/></svg>