<svg height="1000" width="1000" xmlns="http://www.w3.org/2000/svg"><path d="M544.9 345.7l-500 498.1 500 -498.1 -500 498.1q-27.3 33.2 0 66.4 33.2 27.3 66.4 0L257.8 763.7q21.5 13.6 46.9 21.5 66.4 19.5 160.1 9.7 93.8 -7.8 195.4 -72.2 17.5 -13.7 11.7 -29.3 -7.8 -17.6 -29.3 -19.6h-31.3q-15.6 -1.9 -17.5 -17.5 0 -13.7 11.7 -17.6L796.9 582q9.7 -3.9 15.6 -11.7 13.7 -19.5 25.4 -39 7.8 -15.7 0 -29.3 -7.8 -15.7 -25.4 -15.7h-76.2q-15.6 -1.9 -17.5 -17.5 0 -13.7 11.7 -17.6l158.2 -46.9q13.6 -5.9 19.5 -19.5 43 -109.4 64.5 -211Q994.1 70.3 1000 -3.9q2 -31.3 -19.5 -52.7t-52.8 -19.6q-83.9 5.9 -203.1 33.2Q603.5 -15.6 482.4 39.1q-123 52.7 -214.8 142.5Q154.3 300.8 134.8 419.9q-21.5 117.2 3.9 199.2 11.7 25.4 35.1 7.9L496.1 306.6q21.5 -17.5 43 0 15.6 17.6 3.9 39.1h1.9z"/></svg>