<svg height="1000" width="1000" xmlns="http://www.w3.org/2000/svg"><path d="M544.9 345.7l-500 498.1 500 -498.1 -500 498.1q-27.3 33.2 0 66.4 33.2 27.3 66.4 0L222.7 798.8h132.8q148.4 -1.9 271.5 -80 15.6 -11.8 9.7 -27.4t-25.4 -17.6q-15.6 -1.9 -17.5 -17.5 0 -13.7 11.7 -17.6l158.2 -46.9q7.8 -3.9 13.6 -7.8l45 -44.9q13.6 -15.7 5.8 -33.2t-29.3 -19.6h-62.5q-15.6 -1.9 -17.5 -17.5 0 -13.7 11.7 -17.6l218.7 -66.4q13.7 -3.9 19.6 -13.7Q1000 308.6 1000 236.3q-2 -125 -87.9 -212.9L900.4 11.7Q812.5 -74.2 687.5 -76.2q-125 2 -212.9 87.9L271.5 214.8Q201.2 285.2 164.1 377 125 468.8 125 568.4v107.4L496.1 306.6q21.5 -17.5 43 0 15.6 17.6 3.9 39.1h1.9z"/></svg>