<svg height="1000" width="1125" xmlns="http://www.w3.org/2000/svg"><path d="M437.5 -76.2h250 -250 250q27.3 0 44.9 17.6t17.6 44.9h146.5q31.2 2 43 27.4t-7.9 50.8l-41 46.8H234.4l-41 -46.8Q173.8 39.1 185.5 13.7t43 -27.4H375q0 -27.3 17.6 -44.9t44.9 -17.6zm-250 250h750 -750 750q27.3 0 44.9 17.6t17.6 44.9v242.2q0 39.1 -23.4 72.3L877 691.4q-5.9 2 -11.8 5.9 -46.8 33.2 -99.6 39h-31.2q-52.8 -5.8 -99.6 -39 -33.2 -23.5 -72.3 -23.5t-72.3 23.5q-44.9 31.2 -97.6 39h-33.2q-52.8 -5.8 -99.6 -39 -5.9 -3.9 -11.8 -5.9L148.4 550.8Q125 517.6 125 478.5V236.3q0 -27.3 17.6 -44.9t44.9 -17.6zm62.5 125v187.5V298.8v187.5h625V298.8H250zM599.6 748Q668 796.9 750 798.8q82 -3.9 150.4 -50.8 41 -25.3 78.1 4 43 35.1 97.7 48.8 25.4 5.8 39 27.3t7.8 46.9 -27.3 39.1 -46.9 7.8Q974.6 902.3 935.5 873 847.7 921.9 750 923.8 654.3 918 593.8 886.7q-17.6 -7.8 -31.3 -15.6 -13.7 7.8 -31.2 15.6Q470.7 918 375 923.8 277.3 921.9 191.4 873q-41 29.3 -115.2 48.9 -25.4 5.8 -46.9 -7.8T2 875t7.8 -46.9 39 -27.3q54.7 -13.7 97.7 -48.8 37.1 -27.4 78.1 -4Q293 794.9 375 798.8q84 -1.9 152.3 -50.8 35.2 -23.4 72.3 0z"/></svg>