<svg height="1000" width="1000" xmlns="http://www.w3.org/2000/svg"><path d="M0 48.8Q2 -3.9 37.1 -39.1 72.3 -74.2 125 -76.2h312.5v250q0 27.4 17.6 45t44.9 17.5h250v281.3H343.8q-52.8 1.9 -87.9 37.1t-37.1 87.9v281.2H125Q72.3 921.9 37.1 886.7T0 798.8v-750zm750 125H500h250H500v-250l250 250zM343.8 611.3h62.5 -62.5 62.5q46.8 2 78.1 31.3 29.3 31.2 31.2 78.1 -1.9 46.9 -31.2 78.1 -31.3 29.3 -78.1 31.3H375v62.5q-2 29.3 -31.2 31.2 -29.3 -1.9 -31.3 -31.2v-250q2 -29.3 31.3 -31.3zm62.5 156.3q42.9 -3.9 46.8 -46.9 -3.9 -43 -46.8 -46.9H375v93.8h31.3zM593.8 611.3h62.5 -62.5 62.5q39 2 66.4 27.4Q748 666 750 705.1v125q-2 39 -27.3 66.4 -27.4 25.4 -66.4 27.3h-62.5q-29.3 -1.9 -31.3 -31.2v-250q2 -29.3 31.3 -31.3zm62.5 250q29.2 -1.9 31.2 -31.2v-125q-2 -29.3 -31.2 -31.3H625v187.5h31.3zM812.5 642.6q2 -29.3 31.3 -31.3h93.7q29.3 2 31.3 31.3 -2 29.3 -31.3 31.2H875v62.5h62.5q29.3 2 31.3 31.3 -2 29.3 -31.3 31.2H875v93.8q-2 29.3 -31.2 31.2 -29.3 -1.9 -31.3 -31.2v-250z"/></svg>