<svg height="1000" width="1125" xmlns="http://www.w3.org/2000/svg"><path d="M0 48.8Q2 -3.9 37.1 -39.1 72.3 -74.2 125 -76.2h312.5v250q0 27.4 17.6 45t44.9 17.5h250v76.2Q640.6 343.8 570.3 433.6 502 521.5 500 642.6q0 87.9 39.1 160.1t105.4 119.2q-9.7 1.9 -19.5 1.9H125Q72.3 921.9 37.1 886.7T0 798.8v-750zm750 125H500h250H500v-250l250 250zm93.8 187.5q76.1 0 140.6 37.1 64.4 37.1 103.5 103.6 37.1 66.4 37.1 140.6t-37.1 140.6q-39.1 66.4 -103.5 103.5t-140.6 37.1T703.1 886.7 599.6 783.2Q562.5 716.8 562.5 642.6T599.6 502q39.1 -66.5 103.5 -103.6t140.7 -37.1zm0 468.8q42.9 -3.9 46.8 -46.9 -3.9 -43 -46.8 -46.9 -43 3.9 -46.9 46.9 3.9 43 46.9 46.9zm0 -375q-29.3 1.9 -31.3 31.2v156.3q2 29.3 31.3 31.2Q873 671.9 875 642.6V486.3Q873 457 843.8 455.1z"/></svg>