<svg height="1000" width="750" xmlns="http://www.w3.org/2000/svg"><path d="M125 -76.2q-52.7 2 -87.9 37.1Q2 -3.9 0 48.8v750q2 52.8 37.1 87.9t87.9 37.1h500q52.7 -1.9 87.9 -37.1T750 798.8V236.3H500q-27.3 0 -44.9 -17.5t-17.6 -45v-250H125zm375 0v250 -250 250h250l-250 -250zM125 486.3q0 -27.3 17.6 -44.9 17.6 -17.6 44.9 -17.6H375q27.3 0 44.9 17.6t17.6 44.9v187.5q0 27.4 -17.6 45T375 736.3H187.5q-27.3 0 -44.9 -17.5t-17.6 -45V486.3zm462.9 214.9L500 642.6l87.9 58.6L500 642.6v-125L587.9 459q5.9 -3.9 13.7 -3.9Q623 457 625 478.5v203.1q-2 21.5 -23.4 23.5 -7.8 0 -13.7 -3.9z"/></svg>