<svg height="1000" width="750" xmlns="http://www.w3.org/2000/svg"><path d="M125 -76.2q-52.7 2 -87.9 37.1Q2 -3.9 0 48.8v750q2 52.8 37.1 87.9t87.9 37.1h500q52.7 -1.9 87.9 -37.1T750 798.8V236.3H500q-27.3 0 -44.9 -17.5t-17.6 -45v-250H125zm375 0v250 -250 250h250l-250 -250zM312.5 392.6q2 -29.3 31.3 -31.3h62.5q29.2 2 31.2 31.3v93.7h93.8q29.2 2 31.2 31.3v62.5q-2 29.3 -31.2 31.2h-93.8v93.8q-2 29.3 -31.2 31.2h-62.5q-29.3 -1.9 -31.3 -31.2v-93.8h-93.7q-29.3 -1.9 -31.3 -31.2v-62.5q2 -29.3 31.3 -31.3h93.7v-93.7z"/></svg>