<svg height="1000" width="750" xmlns="http://www.w3.org/2000/svg"><path d="M125 -76.2q-52.7 2 -87.9 37.1Q2 -3.9 0 48.8v750q2 52.8 37.1 87.9t87.9 37.1h500q52.7 -1.9 87.9 -37.1T750 798.8V236.3H500q-27.3 0 -44.9 -17.5t-17.6 -45v-250H125zm375 0v250 -250 250h250l-250 -250zm-281.2 500h312.5H218.8h312.5q29.2 2 31.2 31.3 -2 29.3 -31.2 31.2H218.8q-29.3 -1.9 -31.3 -31.2 2 -29.3 31.3 -31.3zm0 125h312.5H218.8h312.5q29.2 2 31.2 31.3 -2 29.3 -31.2 31.2H218.8q-29.3 -1.9 -31.3 -31.2 2 -29.3 31.3 -31.3zm0 125h312.5H218.8h312.5q29.2 2 31.2 31.3 -2 29.3 -31.2 31.2H218.8q-29.3 -1.9 -31.3 -31.2 2 -29.3 31.3 -31.3z"/></svg>