<svg height="1000" width="750" xmlns="http://www.w3.org/2000/svg"><path d="M125 -76.2q-52.7 2 -87.9 37.1Q2 -3.9 0 48.8v750q2 52.8 37.1 87.9t87.9 37.1h500q52.7 -1.9 87.9 -37.1T750 798.8V236.3H500q-27.3 0 -44.9 -17.5t-17.6 -45v-250H125zm375 0v250 -250 250h250l-250 -250zm-283.2 502l52.7 173.8L216.8 425.8l52.7 173.8 60.6 -175.8q13.7 -29.3 44.9 -31.2 33.2 1.9 44.9 31.2l60.6 175.8 52.7 -173.8q15.6 -39.1 58.6 -31.3 39.1 15.7 31.2 58.6l-93.7 312.5q-11.7 31.3 -43 33.2 -33.2 0 -46.8 -31.2L375 582l-64.5 185.6q-13.6 29.3 -44.9 31.2 -33.2 -1.9 -44.9 -33.2L127 453.1q-7.9 -42.9 31.2 -58.6 43 -7.8 58.6 31.3z"/></svg>