<svg height="1000" width="750" xmlns="http://www.w3.org/2000/svg"><path d="M125 -76.2q-52.7 2 -87.9 37.1Q2 -3.9 0 48.8v750q2 52.8 37.1 87.9t87.9 37.1h500q52.7 -1.9 87.9 -37.1T750 798.8V236.3H500q-27.3 0 -44.9 -17.5t-17.6 -45v-250H125zm375 0v250 -250 250h250l-250 -250zm3.9 441.4q54.7 33.2 87.9 89.9 33.2 56.6 33.2 125t-33.2 125 -87.9 89.8q-25.4 11.7 -43 -11.7 -11.7 -25.4 9.8 -43 43 -25.4 66.4 -66.4 25.4 -42.9 25.4 -93.7t-25.4 -93.8q-23.4 -41 -64.4 -66.4Q449.2 402.3 460.9 377q17.6 -23.5 43 -11.8zm-179.7 60.6q19.6 9.7 19.6 29.3v250q0 19.5 -19.6 29.3 -19.5 5.8 -33.2 -7.8l-70.3 -68.4h-64.4Q127 656.3 125 627v-93.8q2 -29.3 31.3 -31.2h64.4L291 433.6q13.7 -13.7 33.2 -7.8zm99.6 68.3q23.5 -17.5 45 2 29.2 35.2 31.2 84 -2 48.8 -31.2 84 -21.5 19.5 -45 1.9 -19.5 -21.5 -1.9 -44.9 15.6 -15.6 15.6 -41 0 -23.5 -15.6 -41 -17.6 -23.5 1.9 -45z"/></svg>