<svg height="1000" width="750" xmlns="http://www.w3.org/2000/svg"><path d="M125 -76.2q-52.7 2 -87.9 37.1Q2 -3.9 0 48.8v750q2 52.8 37.1 87.9t87.9 37.1h500q52.7 -1.9 87.9 -37.1T750 798.8V236.3H500q-27.3 0 -44.9 -17.5t-17.6 -45v-250H125zm375 0v250 -250 250h250l-250 -250zM203.1 306.6h140.7H203.1h140.7q48.8 2 82 35.2t35.1 82q0 37.1 -21.4 66.4 -19.6 29.3 -52.8 43l84 78.1 66.4 -60.5q27.4 -21.5 54.7 1.9 21.5 29.3 -2 56.7L527.3 666l62.5 56.7q23.5 27.3 2 56.6 -27.3 23.4 -56.6 2l-66.4 -62.5 -66.5 62.5q-29.3 21.4 -56.6 -2 -21.5 -29.3 2 -56.6l64.4 -58.6L285.2 546.9q-2 -3.9 -3.9 -5.9h-39.1v86q-3.9 35.1 -39.1 39 -35.1 -3.9 -39 -39V345.7q3.9 -35.2 39 -39.1zm140.7 156.3q35.1 -3.9 39 -39.1 -3.9 -35.1 -39 -39H242.2v78.1h101.6z"/></svg>