<svg height="1000" width="1125" xmlns="http://www.w3.org/2000/svg"><path d="M125 -76.2q-52.7 2 -87.9 37.1Q2 -3.9 0 48.8v750q2 52.8 37.1 87.9t87.9 37.1h500q52.7 -1.9 87.9 -37.1T750 798.8v-37.1l-15.6 3.9 -117.2 29.3q-9.8 2 -17.6 3.9H468.8q-19.6 0 -27.4 -17.5L423.8 748Q418 736.3 406.3 736.3T388.7 748l-17.6 33.3q-9.8 17.5 -29.3 17.5 -21.5 -1.9 -27.3 -21.5L281.3 668l-19.6 64.4q-21.5 62.5 -89.8 66.4h-15.6Q127 796.9 125 767.6q2 -29.3 31.3 -31.3h15.6q23.4 -1.9 31.2 -21.5l27.4 -97.6q13.6 -35.2 50.8 -37.1 37.1 1.9 50.7 37.1l21.5 76.2q23.5 -19.6 52.8 -19.6 48.8 2 74.2 45l7.8 17.5h17.6q-9.8 -25.4 -3.9 -54.7l29.3 -117.1q9.7 -33.2 33.2 -58.6L750 322.3v-86H500q-27.3 0 -44.9 -17.5t-17.6 -45v-250H125zm375 0v250 -250 250h250l-250 -250zm574.2 273.5q-25.4 -23.5 -54.7 -23.5 -31.2 0 -56.6 23.5l-56.6 56.6 138.6 138.7 56.7 -56.7q23.4 -25.4 23.4 -56.6t-23.4 -54.7l-27.4 -27.3zM609.4 550.8q-11.7 11.7 -15.6 29.3l-29.3 117.2q-4 17.5 7.8 29.3t29.3 7.8l117.2 -29.3q17.5 -3.9 29.2 -15.6l252 -252L861.3 298.8l-251.9 252z"/></svg>