<svg height="1000" width="750" xmlns="http://www.w3.org/2000/svg"><path d="M125 -76.2q-52.7 2 -87.9 37.1Q2 -3.9 0 48.8v750q2 52.8 37.1 87.9t87.9 37.1h500q52.7 -1.9 87.9 -37.1T750 798.8V236.3H500q-27.3 0 -44.9 -17.5t-17.6 -45v-250H125zm375 0v250 -250 250h250l-250 -250zM125 80.1q2 -29.3 31.3 -31.3h125q29.2 2 31.2 31.3 -2 29.3 -31.2 31.2h-125Q127 109.4 125 80.1zm0 125q2 -29.3 31.3 -31.3h125q29.2 2 31.2 31.3 -2 29.3 -31.2 31.2h-125Q127 234.4 125 205.1zm250 140.6q29.3 2 31.3 31.3v33.2q25.3 3.9 46.8 9.7 27.4 9.8 21.5 39.1 -9.8 27.3 -37.1 21.5 -33.2 -9.8 -62.5 -9.8 -27.3 0 -46.9 11.7 -15.6 7.8 -15.6 23.5 -2 9.7 13.7 19.5 21.5 11.7 58.6 21.5 35.1 9.7 70.3 29.3 41 21.5 44.9 74.2 -2 56.6 -44.9 82 -23.5 13.7 -48.8 17.6v33.2q-2 29.3 -31.3 31.3 -29.3 -2 -31.2 -31.3V748q-33.3 -5.8 -60.6 -17.5l-11.7 -3.9Q244.1 714.8 252 687.5q11.7 -25.4 39 -19.5 7.8 1.9 13.7 3.9 1.9 0 1.9 1.9 37.2 13.7 68.4 15.7 29.3 0 46.9 -9.8 15.6 -9.8 15.6 -27.4 0 -13.6 -15.6 -23.4 -19.6 -11.7 -56.7 -21.5l-1.9 -1.9q-35.2 -7.8 -68.4 -25.4 -39 -21.5 -44.9 -74.2 3.9 -56.7 46.9 -78.2 21.5 -13.6 46.9 -17.5V377q1.9 -29.3 31.2 -31.3z"/></svg>