<svg height="1000" width="750" xmlns="http://www.w3.org/2000/svg"><path d="M125 -76.2q-52.7 2 -87.9 37.1Q2 -3.9 0 48.8v750q2 52.8 37.1 87.9t87.9 37.1h500q52.7 -1.9 87.9 -37.1T750 798.8V236.3H500q-27.3 0 -44.9 -17.5t-17.6 -45v-250H125zm375 0v250 -250 250h250l-250 -250zM187.5 17.6q2 -29.3 31.3 -31.3h62.5q29.2 2 31.2 31.3 -2 29.3 -31.2 31.2h-62.5Q189.5 46.9 187.5 17.6zm0 125q2 -29.3 31.3 -31.3h62.5q29.2 2 31.2 31.3 -2 29.3 -31.2 31.2h-62.5q-29.3 -1.9 -31.3 -31.2zm0 125q2 -29.3 31.3 -31.3h62.5q29.2 2 31.2 31.3 -2 29.3 -31.2 31.2h-62.5q-29.3 -1.9 -31.3 -31.2zm-11.7 140.6q13.7 -44.9 60.5 -46.9h27.4q46.8 2 60.5 46.9l46.9 171.9q3.9 15.6 3.9 31.2 -2 52.8 -37.1 87.9T250 736.3q-52.7 -1.9 -87.9 -37.1T125 611.3q0 -15.6 3.9 -31.2l44.9 -171.9h2zm43 171.9q-29.3 1.9 -31.3 31.2 2 29.3 31.3 31.3h62.5q29.2 -2 31.2 -31.3 -2 -29.3 -31.2 -31.2h-62.5z"/></svg>