<svg height="1000" width="750" xmlns="http://www.w3.org/2000/svg"><path d="M125 -76.2q-52.7 2 -87.9 37.1Q2 -3.9 0 48.8v750q2 52.8 37.1 87.9t87.9 37.1h500q52.7 -1.9 87.9 -37.1T750 798.8V236.3H500q-27.3 0 -44.9 -17.5t-17.6 -45v-250H125zm375 0v250 -250 250h250l-250 -250zm-375 500q0 -27.3 17.6 -44.9 17.6 -17.6 44.9 -17.6t44.9 17.6 17.6 44.9 -17.6 45 -44.9 17.5 -44.9 -17.5 -17.6 -45zm296.9 62.5q15.6 0 25.4 13.7l171.8 250q9.8 15.6 2 31.3 -7.8 17.5 -27.3 17.5H156.3q-17.6 0 -27.4 -15.6 -7.8 -15.6 0 -31.2l93.8 -156.3q9.7 -15.6 27.3 -15.6t27.3 15.6l25.4 41L396.5 500q9.8 -13.7 25.4 -13.7z"/></svg>