<svg height="1000" width="1125" xmlns="http://www.w3.org/2000/svg"><path d="M0 48.8Q2 -3.9 37.1 -39.1 72.3 -74.2 125 -76.2h312.5v250q0 27.4 17.6 45t44.9 17.5h250v76.2Q640.6 343.8 570.3 433.6 502 521.5 500 642.6q0 87.9 39.1 160.1t105.4 119.2q-9.7 1.9 -19.5 1.9H125Q72.3 921.9 37.1 886.7T0 798.8v-750zm750 125H500h250H500v-250l250 250zM562.5 642.6q0 -76.2 37.1 -140.6 37.1 -64.5 103.5 -103.6 66.4 -37.1 140.7 -37.1t140.6 37.1q66.4 39.1 103.5 103.6t37.1 140.6 -37.1 140.6T984.4 886.7Q918 923.8 843.8 923.8T703.1 886.7q-66.4 -39 -103.5 -103.5T562.5 642.6zm412.1 -84q-21.5 -19.5 -43 0L812.5 675.8l-56.6 -54.7q-21.5 -19.5 -43 0 -19.5 21.5 0 43l78.1 78.1q21.5 19.5 43 0L974.6 601.6q19.5 -21.5 0 -43z"/></svg>