<svg height="1000" width="1125" xmlns="http://www.w3.org/2000/svg"><path d="M0 48.8Q2 -3.9 37.1 -39.1 72.3 -74.2 125 -76.2h312.5v250q0 27.4 17.6 45t44.9 17.5h250v246.1L580.1 652.3q-29.3 29.3 -41 72.3l-35.2 146.5q-7.8 27.3 2 52.7H125Q72.3 921.9 37.1 886.7T0 798.8v-750zm750 125H500h250H500v-250l250 250zm324.2 211l27.4 27.3 -27.4 -27.3 27.4 27.3q23.4 23.4 23.4 54.7t-23.4 56.6l-56.7 56.7L906.3 441.4l56.6 -56.6q25.4 -23.5 54.7 -23.5 31.2 0 56.6 23.5zM609.4 738.3l251.9 -252 -251.9 252 251.9 -252L1000 625 748 877q-11.7 11.7 -29.2 15.6l-117.2 29.3q-17.6 3.9 -29.3 -7.8t-9.8 -29.3l29.3 -117.2q5.9 -17.6 17.6 -29.3z"/></svg>