<svg height="1000" width="750" xmlns="http://www.w3.org/2000/svg"><path d="M125 -76.2q-52.7 2 -87.9 37.1Q2 -3.9 0 48.8v750q2 52.8 37.1 87.9t87.9 37.1h500q52.7 -1.9 87.9 -37.1T750 798.8V236.3H500q-27.3 0 -44.9 -17.5t-17.6 -45v-250H125zm375 0v250 -250 250h250l-250 -250zM304.7 412.1L375 513.7 304.7 412.1 375 513.7l70.3 -101.6q29.3 -33.2 66.4 -11.7 31.3 29.3 11.7 66.4l-91.8 128.9 91.8 128.9q21.5 37.1 -11.7 66.4 -37.1 21.5 -66.4 -11.7L375 677.7l-70.3 101.6q-29.3 33.2 -66.4 11.7Q207 761.7 226.6 724.6l91.8 -128.9L226.6 466.8q-21.5 -37.1 11.7 -66.4 37.1 -21.5 66.4 11.7z"/></svg>