<svg height="1000" width="1000" xmlns="http://www.w3.org/2000/svg"><path d="M0 48.8Q2 -3.9 37.1 -39.1 72.3 -74.2 125 -76.2h312.5v250q0 27.4 17.6 45t44.9 17.5h250v281.3H343.8q-52.8 1.9 -87.9 37.1t-37.1 87.9v281.2H125Q72.3 921.9 37.1 886.7T0 798.8v-750zm750 125H500h250H500v-250l250 250zM390.6 611.3h31.3 -31.3 31.3q33.2 0 54.7 23.5 23.4 21.5 23.4 54.7v15.6q-2 29.3 -31.2 31.2 -29.3 -1.9 -31.3 -31.2v-15.6q-2 -13.7 -15.6 -15.7h-31.3q-13.6 2 -15.6 15.7v156.2q2 13.7 15.6 15.6h31.3q13.6 -1.9 15.6 -15.6v-15.6q2 -29.3 31.3 -31.3 29.2 2 31.2 31.3v15.6q0 33.2 -23.4 54.7 -21.5 23.4 -54.7 23.4h-31.3q-33.2 0 -54.7 -23.4 -23.4 -21.5 -23.4 -54.7V689.5q0 -33.2 23.4 -54.7 21.5 -23.5 54.7 -23.5zm259.8 0h68.4 -68.4 68.4q29.2 2 31.2 31.3 -2 29.3 -31.2 31.2h-68.4q-23.4 2 -25.4 25.4 0 15.6 15.6 23.5l72.3 33.2q50.8 23.4 52.7 80 0 37.1 -25.4 62.5t-62.5 25.4h-83.9q-29.3 -1.9 -31.3 -31.2 2 -29.3 31.3 -31.3h83.9q23.5 -1.9 25.4 -25.4 0 -15.6 -15.6 -23.4l-72.3 -33.2q-50.7 -23.4 -52.7 -80.1 0 -37.1 25.4 -62.5t62.5 -25.4zm193.4 0q29.2 2 31.2 31.3v62.5q0 68.3 31.3 128.9 31.2 -60.6 31.2 -128.9v-62.5q2 -29.3 31.3 -31.3 29.2 2 31.2 31.3v62.5q0 103.5 -58.6 189.4l-9.8 15.7q-9.7 13.6 -25.3 13.6t-25.4 -13.6l-9.8 -15.7Q812.5 808.6 812.5 705.1v-62.5q2 -29.3 31.3 -31.3z"/></svg>