<svg height="1000" width="750" xmlns="http://www.w3.org/2000/svg"><path d="M125 -76.2q-52.7 2 -87.9 37.1Q2 -3.9 0 48.8v750q2 52.8 37.1 87.9t87.9 37.1h500q52.7 -1.9 87.9 -37.1T750 798.8V236.3H500q-27.3 0 -44.9 -17.5t-17.6 -45v-250H125zm375 0v250 -250 250h250l-250 -250zm-343.7 125h125 -125 125q29.2 2 31.2 31.3 -2 29.3 -31.2 31.2h-125Q127 109.4 125 80.1q2 -29.3 31.3 -31.3zm0 125h125 -125 125q29.2 2 31.2 31.3 -2 29.3 -31.2 31.2h-125Q127 234.4 125 205.1q2 -29.3 31.3 -31.3zm105.4 496.1q-21.5 62.5 -89.8 66.4h-15.6Q127 734.4 125 705.1q2 -29.3 31.3 -31.3h15.6q23.4 -1.9 31.2 -21.5l27.4 -97.6q13.6 -35.2 50.8 -37.1 37.1 1.9 50.7 37.1l21.5 76.2q23.5 -19.6 52.8 -19.6 48.8 2 74.2 45l7.8 17.5h105.5q29.2 2 31.2 31.3 -2 29.3 -31.2 31.2h-125q-19.6 0 -27.4 -17.5l-17.6 -33.3Q418 673.8 406.3 673.8t-17.6 11.7l-17.6 33.3q-9.8 17.5 -29.3 17.5 -21.5 -1.9 -27.3 -21.5L281.3 605.5l-19.6 64.4z"/></svg>