<svg height="1000" width="875" xmlns="http://www.w3.org/2000/svg"><path d="M187.5 -76.2q-52.7 2 -87.9 37.1Q64.5 -3.9 62.5 48.8v437.5h218.8q19.5 0 27.3 17.6l35.2 68.4 97.6 -193.4q7.8 -17.6 27.4 -17.6t27.3 17.6l54.7 107.4h136.7q29.3 2 31.3 31.3 -2 29.3 -31.3 31.2H531.3q-19.6 0 -27.4 -17.5l-35.1 -68.4 -97.7 193.4q-7.8 17.5 -27.3 17.5t-27.4 -17.5L261.7 548.8H62.5v250q2 52.8 37.1 87.9t87.9 37.1h500q52.7 -1.9 87.9 -37.1t37.1 -87.9V236.3h-250q-27.3 0 -44.9 -17.5t-17.6 -45v-250H187.5zm375 0v250 -250 250h250l-250 -250z"/></svg>