<svg height="1000" width="1000" xmlns="http://www.w3.org/2000/svg"><path d="M250 48.8q2 -52.7 37.1 -87.9 35.2 -35.1 87.9 -37.1h312.5v250q0 27.4 17.6 45t44.9 17.5h250v562.5q-2 52.8 -37.1 87.9T875 923.8H375q-52.7 -1.9 -87.9 -37.1T250 798.8V580.1h339.8l-76.1 76.2q-27.4 33.2 0 66.4 33.2 27.3 66.4 0L736.3 566.4q27.4 -33.2 0 -66.4L580.1 343.8q-33.2 -27.4 -66.4 0 -27.4 33.2 0 66.4l76.1 76.1H250V48.8zm0 437.5v93.8 -93.8 93.8H46.9Q3.9 576.2 0 533.2q3.9 -43 46.9 -46.9H250zm750 -312.5H750h250H750v-250l250 250z"/></svg>