<svg height="1000" width="750" xmlns="http://www.w3.org/2000/svg"><path d="M125 -76.2q-52.7 2 -87.9 37.1Q2 -3.9 0 48.8v750q2 52.8 37.1 87.9t87.9 37.1h500q52.7 -1.9 87.9 -37.1T750 798.8V236.3H500q-27.3 0 -44.9 -17.5t-17.6 -45v-250H125zm375 0v250 -250 250h250l-250 -250zm-343.7 125h125 -125 125q29.2 2 31.2 31.3 -2 29.3 -31.2 31.2h-125Q127 109.4 125 80.1q2 -29.3 31.3 -31.3zm0 125h125 -125 125q29.2 2 31.2 31.3 -2 29.3 -31.2 31.2h-125Q127 234.4 125 205.1q2 -29.3 31.3 -31.3zm31.2 187.5h375 -375 375q27.3 0 44.9 17.6t17.6 44.9v125q0 27.4 -17.6 45t-44.9 17.5h-375q-27.3 0 -44.9 -17.5t-17.6 -45v-125q0 -27.3 17.6 -44.9t44.9 -17.6zm0 62.5v125 -125 125h375v-125h-375zm281.3 312.5h125 -125 125q29.2 2 31.2 31.3 -2 29.3 -31.2 31.2h-125q-29.3 -1.9 -31.3 -31.2 2 -29.3 31.3 -31.3z"/></svg>