<svg height="1000" width="1125" xmlns="http://www.w3.org/2000/svg"><path d="M0 48.8Q2 -3.9 37.1 -39.1 72.3 -74.2 125 -76.2h312.5v250q0 27.4 17.6 45t44.9 17.5h250v250H421.9q-43 3.9 -46.9 46.9 3.9 43 46.9 46.9H750v218.7q-2 52.8 -37.1 87.9T625 923.8H125Q72.3 921.9 37.1 886.7T0 798.8v-750zm750 531.3v-93.8 93.8 -93.8h214.8l-76.1 -76.1q-27.4 -33.2 0 -66.4 33.2 -27.4 66.4 0L1111.3 500q27.4 33.2 0 66.4L955.1 722.7q-33.2 27.3 -66.4 0 -27.4 -33.2 0 -66.4l76.1 -76.2H750zm0 -406.3H500h250H500v-250l250 250z"/></svg>