<svg height="1000" width="750" xmlns="http://www.w3.org/2000/svg"><path d="M125 -76.2q-52.7 2 -87.9 37.1Q2 -3.9 0 48.8v750q2 52.8 37.1 87.9t87.9 37.1h500q52.7 -1.9 87.9 -37.1T750 798.8V236.3H500q-27.3 0 -44.9 -17.5t-17.6 -45v-250H125zm375 0v250 -250 250h250l-250 -250zM265.6 392.6h132.8H265.6h132.8q62.5 1.9 105.5 42.9 41 43 43 105.5 -2 62.5 -43 105.5 -43 41 -105.5 43h-85.9V752q-3.9 42.9 -46.9 46.8Q222.7 794.9 218.8 752V439.5q3.9 -43 46.8 -46.9zm132.8 203.1q23.5 0 39.1 -15.6 15.6 -15.6 15.6 -39.1t-15.6 -39 -39.1 -15.7h-85.9v109.4h85.9z"/></svg>