<svg height="1000" width="1125" xmlns="http://www.w3.org/2000/svg"><path d="M0 48.8Q2 -3.9 37.1 -39.1 72.3 -74.2 125 -76.2h312.5v250q0 27.4 17.6 45t44.9 17.5h250v91.8l-181.6 72.3Q503.9 429.7 500 502q-2 87.8 37.1 201.1t146.5 205.1q-25.4 15.6 -58.6 15.6H125Q72.3 921.9 37.1 886.7T0 798.8v-750zm750 125H500h250H500v-250l250 250zm76.2 191.4q17.6 -7.8 35.1 0l234.4 93.8q27.3 11.7 29.3 43 2 64.4 -21.5 144.5 -21.5 80.1 -78.1 154.3Q966.8 875 861.3 919.9q-17.5 7.8 -35.1 0Q720.7 875 662.1 800.8 605.5 726.6 584 646.5 560.5 566.4 562.5 502q2 -31.3 29.3 -43l234.4 -93.8zm203.1 168L843.8 459l185.5 74.2L843.8 459v367.2q97.6 -52.8 140.6 -134.8 41 -82 44.9 -158.2z"/></svg>