<svg height="1000" width="750" xmlns="http://www.w3.org/2000/svg"><path d="M125 -76.2q-52.7 2 -87.9 37.1Q2 -3.9 0 48.8v750q2 52.8 37.1 87.9t87.9 37.1h500q52.7 -1.9 87.9 -37.1T750 798.8V236.3H500q-27.3 0 -44.9 -17.5t-17.6 -45v-250H125zm375 0v250 -250 250h250l-250 -250zM298.8 488.3l-60.5 60.5 60.5 -60.5 -60.5 60.5 60.5 60.6q27.4 33.2 0 66.4 -33.2 27.3 -66.4 0L138.7 582q-27.4 -33.2 0 -66.4l93.7 -93.7q33.2 -27.4 66.4 0 27.4 33.2 0 66.4zm218.8 -66.4l93.7 93.7 -93.7 -93.7 93.7 93.7q27.4 33.2 0 66.4l-93.7 93.8q-33.2 27.3 -66.4 0 -27.4 -33.2 0 -66.4l60.5 -60.6 -60.5 -60.5q-27.4 -33.2 0 -66.4 33.2 -27.4 66.4 0z"/></svg>