<svg height="1000" width="1125" xmlns="http://www.w3.org/2000/svg"><path d="M80.1 -58.6Q99.6 -76.2 125 -76.2t44.9 17.6l158.2 160.2L431.6 -2q43 -41 99.7 -41t99.6 41l294.9 295q41 42.9 41 99.6t-41 99.6L554.7 863.3q-58.6 56.6 -132.8 56.6T289.1 863.3L60.5 634.8Q3.9 576.2 3.9 502T60.5 369.1L240.2 189.5 80.1 31.3Q62.5 11.7 62.5 -13.7t17.6 -44.9zM423.8 375l-95.7 -97.7 95.7 97.7 -95.7 -97.7L148.4 457q-11.7 13.7 -15.6 29.3h623.1l82 -82q9.8 -11.7 0 -23.4L543 85.9q-11.7 -9.7 -23.5 0L416 189.5l97.7 95.7q17.6 19.5 17.6 44.9T513.7 375q-19.6 17.6 -44.9 17.6t-45 -17.6zM1000 923.8q-52.7 -1.9 -87.9 -37.1Q877 851.6 875 798.8q2 -41 37.1 -103.5 33.2 -62.5 62.5 -109.4 9.8 -13.6 25.4 -13.6t25.4 13.6q29.3 46.9 62.5 109.4 35.1 62.5 37.1 103.5 -2 52.8 -37.1 87.9t-87.9 37.1z"/></svg>