<svg height="1000" width="1000" xmlns="http://www.w3.org/2000/svg"><path d="M169.9 -58.6Q150.4 -76.2 125 -76.2t-44.9 17.6q-17.6 19.5 -17.6 44.9t17.6 45l160.1 158.2L60.5 369.1Q3.9 427.7 3.9 502t56.6 132.8l228.6 228.5q58.6 56.6 132.8 56.6t132.8 -56.6L925.8 492.2q41 -43 41 -99.6t-41 -99.6L630.9 -2q-43 -41 -99.6 -41t-99.7 41L328.1 101.6 169.9 -58.6zm158.2 335.9l95.7 97.7 -95.7 -97.7 95.7 97.7q19.6 17.6 45 17.6T513.7 375q17.6 -19.5 17.6 -44.9t-17.6 -44.9L416 189.5 519.5 85.9q11.8 -9.7 23.5 0l294.9 295q9.8 11.7 0 23.4l-82 82H132.8q3.9 -15.6 15.6 -29.3L328.1 277.3z"/></svg>