<svg height="1000" width="1000" xmlns="http://www.w3.org/2000/svg"><path d="M0 111.3Q2 58.6 37.1 23.4 72.3 -11.7 125 -13.7h750q52.7 2 87.9 37.1t37.1 87.9v625q-2 52.8 -37.1 87.9T875 861.3H125Q72.3 859.4 37.1 824.2T0 736.3v-625zm93.8 531.3v62.5 -62.5 62.5q1.9 29.3 31.2 31.2h62.5q29.3 -1.9 31.3 -31.2v-62.5q-2 -29.3 -31.3 -31.3H125q-29.3 2 -31.2 31.3zm718.7 -31.3q-29.3 2 -31.2 31.3v62.5q1.9 29.3 31.2 31.2H875q29.3 -1.9 31.3 -31.2v-62.5q-2 -29.3 -31.3 -31.3h-62.5zM93.8 392.6v62.5 -62.5 62.5q1.9 29.3 31.2 31.2h62.5q29.3 -1.9 31.3 -31.2v-62.5q-2 -29.3 -31.3 -31.3H125q-29.3 2 -31.2 31.3zm718.7 -31.3q-29.3 2 -31.2 31.3v62.5q1.9 29.3 31.2 31.2H875q29.3 -1.9 31.3 -31.2v-62.5q-2 -29.3 -31.3 -31.3h-62.5zM93.8 142.6v62.5 -62.5 62.5q1.9 29.3 31.2 31.2h62.5q29.3 -1.9 31.3 -31.2v-62.5q-2 -29.3 -31.3 -31.3H125q-29.3 2 -31.2 31.3zm718.7 -31.3q-29.3 2 -31.2 31.3v62.5q1.9 29.3 31.2 31.2H875q29.3 -1.9 31.3 -31.2v-62.5q-2 -29.3 -31.3 -31.3h-62.5zm-500 62.5v125 -125 125q0 27.4 17.6 45t44.9 17.5h250q27.3 0 44.9 -17.5t17.6 -45v-125q0 -27.3 -17.6 -44.9T625 111.3H375q-27.3 0 -44.9 17.6t-17.6 44.9zM375 486.3q-27.3 0 -44.9 17.6 -17.6 17.6 -17.6 44.9v125q0 27.4 17.6 45t44.9 17.5h250q27.3 0 44.9 -17.5t17.6 -45v-125q0 -27.3 -17.6 -44.9T625 486.3H375z"/></svg>