<svg height="1000" width="1125" xmlns="http://www.w3.org/2000/svg"><path d="M7.8 -31.3q21.5 -42.9 70.3 -44.9h843.8q48.8 2 70.3 44.9 19.5 45 -9.8 82.1l-209 255.8Q654.3 332 578.1 423.8T500 642.6q0 80.1 35.2 150.4 -5.9 -3.9 -9.8 -5.9l-125 -93.7Q375 673.8 375 642.6V488.3L17.6 50.8Q-11.7 13.7 7.8 -31.3zm554.7 673.9q0 -76.2 37.1 -140.6 37.1 -64.5 103.5 -103.6 66.4 -37.1 140.7 -37.1t140.6 37.1q66.4 39.1 103.5 103.6t37.1 140.6 -37.1 140.6T984.4 886.7Q918 923.8 843.8 923.8T703.1 886.7q-66.4 -39 -103.5 -103.5T562.5 642.6zm236.3 -64.5q2 -1.9 7.8 -5.8 17.6 -7.8 37.2 -7.8 23.4 0 50.7 7.8 29.3 3.9 39.1 -23.5 3.9 -27.3 -23.4 -37.1L875 503.9v-17.6Q871.1 457 843.8 455.1q-29.3 1.9 -31.3 31.2v17.6q-17.6 3.9 -35.2 13.7 -41 17.6 -42.9 72.2 7.8 45 42.9 60.6 27.4 11.7 54.7 19.5h3.9q29.3 7.8 45 17.6 11.7 5.9 9.7 9.8 0 7.8 -1.9 9.7t-7.8 5.9q-15.7 7.8 -35.2 7.8Q818.4 718.8 787.1 707l-11.7 -3.9q-29.3 -5.8 -39.1 21.5 -5.8 27.4 19.6 39.1h1.9q3.9 1.9 7.8 1.9 21.5 7.8 46.9 13.7v21.5q2 29.3 31.3 31.2Q873 830.1 875 800.8v-21.5q17.6 -2 35.2 -11.7 41 -17.6 42.9 -72.3 -5.8 -44.9 -39 -62.5 -31.3 -15.6 -60.6 -21.5 -31.2 -9.7 -46.9 -17.5 -11.7 -7.9 -9.7 -7.9 0 -5.8 1.9 -7.8z"/></svg>