<svg height="1000" width="1125" xmlns="http://www.w3.org/2000/svg"><path d="M7.8 -31.3q21.5 -42.9 70.3 -44.9h843.8q48.8 2 70.3 44.9 19.5 45 -9.8 82.1l-209 255.8Q654.3 332 578.1 423.8T500 642.6q0 80.1 35.2 150.4 -5.9 -3.9 -9.8 -5.9l-125 -93.7Q375 673.8 375 642.6V488.3L17.6 50.8Q-11.7 13.7 7.8 -31.3zm836 392.6q76.1 0 140.6 37.1 64.4 37.1 103.5 103.6 37.1 66.4 37.1 140.6t-37.1 140.6q-39.1 66.4 -103.5 103.5t-140.6 37.1T703.1 886.7 599.6 783.2Q562.5 716.8 562.5 642.6T599.6 502q39.1 -66.5 103.5 -103.6t140.7 -37.1zm115.2 209q19.5 -21.5 0 -43 -21.5 -19.5 -43 0l-72.2 70.4 -72.3 -70.4q-21.5 -19.5 -43 0 -19.5 21.5 0 43l70.3 72.3 -70.3 72.2q-19.5 21.5 0 43 21.5 19.5 43 0l72.3 -70.3 72.2 70.3q21.5 19.5 43 0 19.5 -21.5 0 -43l-70.3 -72.2L959 570.3z"/></svg>