<svg height="1000" width="1000" xmlns="http://www.w3.org/2000/svg"><path d="M93.8 423.8Q97.7 252 212.9 136.7 328.1 21.5 500 17.6q93.8 0 171.9 39Q752 93.8 808.6 160.2q31.2 29.3 66.4 3.9 29.3 -31.3 3.9 -66.4 -68.4 -80.1 -166 -127T500 -76.2q-140.6 2 -252 68.4Q134.8 58.6 68.4 171.9 2 283.2 0 423.8V502q3.9 42.9 46.9 46.8Q89.8 544.9 93.8 502v-78.2zM990.2 320.3q-13.6 -41 -56.6 -35.1 -41 11.7 -35.2 54.6 7.9 41.1 7.9 84V502q3.9 42.9 46.8 46.8 43 -3.9 46.9 -46.8v-78.2q0 -52.7 -9.8 -103.5zM500 80.1q-56.6 0 -105.5 17.6 -23.4 7.8 -27.3 29.3 -5.9 21.4 9.8 41 23.4 23.4 58.5 13.6 31.3 -7.8 64.5 -7.8 105.5 2 177.7 72.3Q748 318.4 750 423.8v48.9q0 74.2 -7.8 146.4 -2 23.5 11.7 39.1 11.7 15.6 35.2 15.6 37.1 -1.9 44.9 -39 9.8 -80.1 9.8 -162.1v-48.9q-4 -146.5 -99.7 -242.2Q646.5 84 500 80.1zM294.9 214.8q-15.6 -15.6 -33.2 -17.5 -19.5 0 -33.2 15.6 -70.3 89.8 -72.2 210.9v48.9q0 70.3 -15.7 140.6 -3.9 23.4 9.8 41 13.7 19.5 37.1 19.5 33.2 -1.9 43 -33.2Q250 556.6 250 472.7v-48.9q2 -80 44.9 -142.5 21.5 -35.2 0 -66.5zM500 236.3q-80.1 2 -132.8 54.7 -52.7 52.8 -54.7 132.8v48.9q0 105.4 -27.3 207 -3.9 21.5 7.8 39.1t35.1 17.5q29.3 -1.9 39.1 -29.3 31.2 -115.2 31.2 -234.3v-48.9q2 -42.9 29.3 -72.2Q457 324.2 500 322.3q43 1.9 72.3 29.3 27.3 29.3 29.3 72.2v48.9q0 105.4 -19.6 210.9 -3.9 21.5 7.8 37.1 13.7 15.6 33.2 15.6 33.3 -1.9 41.1 -33.2 23.4 -113.3 23.4 -230.4v-48.9q-2 -80 -54.7 -132.8T500 236.3zm46.9 187.5Q543 380.9 500 377q-43 3.9 -46.9 46.8v48.9q0 177.7 -62.5 341.8l-11.7 29.3q-11.7 42.9 25.4 60.5 43 11.7 60.5 -25.4l11.8 -31.2q70.3 -181.7 70.3 -375v-48.9z"/></svg>