<svg height="1000" width="1000" xmlns="http://www.w3.org/2000/svg"><path d="M976.6 -62.5q23.4 19.5 23.4 48.8v187.5q0 29.3 -23.4 48.9 -23.5 17.5 -50.8 11.7L613.3 171.9Q574.2 164.1 564.5 127h-127v68.3q56.6 27.4 89.8 78.1 35.2 52.8 35.2 119.2v281.2H125V392.6q0 -66.4 35.2 -119.2 33.2 -50.7 89.8 -78.1v-56.6Q140.6 173.8 89.8 277.3q-23.4 35.2 -62.5 21.5Q-9.8 275.4 5.9 236.3q35.1 -74.2 99.6 -125Q168 60.5 250 41v-54.7q0 -27.3 17.6 -44.9t44.9 -17.6H375q27.3 0 44.9 17.6t17.6 44.9v46.9h127q9.7 -37.1 48.8 -44.9l312.5 -62.5q27.3 -5.9 50.8 11.7zM562.5 736.3v62.5 -62.5 62.5q-2 52.8 -37.1 87.9t-87.9 37.1H250q-52.7 -1.9 -87.9 -37.1T125 798.8v-62.5h437.5zm-218.7 -625Q373 109.4 375 80.1 373 50.8 343.8 48.8q-29.3 2 -31.3 31.3 2 29.3 31.3 31.2z"/></svg>