<svg height="1000" width="750" xmlns="http://www.w3.org/2000/svg"><path d="M300.8 -17.6l31.2 -41 -31.2 41 31.2 -41q11.8 -17.6 33.2 -17.6 37.1 3.9 41.1 41v45q0 39 29.2 66.4l166.1 158.2q70.3 68.3 109.3 160.1Q750 484.4 750 584q-3.9 144.5 -99.6 240.2t-240.2 99.6H375Q214.8 919.9 109.4 814.5T0 548.8V541Q2 392.6 105.5 287.1l5.8 -5.8q13.7 -13.7 31.3 -13.7 41 3.9 44.9 44.9v173.8q2 52.8 37.1 87.9t87.9 37.1q52.7 -1.9 87.9 -37.1t37.1 -87.9v-7.8q0 -54.7 -39.1 -93.7l-74.2 -74.3Q252 236.3 250 132.8q0 -84 50.8 -150.4z"/></svg>