<svg height="1000" width="875" xmlns="http://www.w3.org/2000/svg"><path d="M310.5 -66.4q27.4 -21.5 54.7 1.9Q445.3 9.8 517.6 99.6q31.2 -44.9 72.2 -84 27.4 -23.4 54.7 0 50.8 48.9 91.8 109.4 43 58.6 72.3 121.1 31.2 60.5 48.8 117.2T875 464.8q-2 125 -58.6 228.6 -58.6 103.5 -158.2 166 -97.7 62.5 -220.7 64.4 -123 -1.9 -222.7 -64.4Q117.2 796.9 58.6 693.4 2 589.8 0 464.8 3.9 347.7 87.9 207q84 -142.5 222.6 -273.4zm130.9 802.7q72.3 0 134.8 -41 60.5 -44.9 76.1 -119.1Q666 503.9 630.9 433.6q-19.6 -27.3 -45 -3.9l-48.8 56.6q-25.4 21.5 -48.8 -1.9 -25.4 -31.3 -60.6 -76.2t-62.5 -78.1q-23.4 -23.5 -46.8 -2 -50.8 62.5 -74.3 107.4 -25.3 45 -25.3 87.9 1.9 101.6 64.4 156.3 62.5 56.6 158.2 56.6z"/></svg>