<svg height="1000" width="1250" xmlns="http://www.w3.org/2000/svg"><path d="M675.8 17.6l23.4 -25.4 -23.4 25.4 23.4 -25.4q17.6 -17.6 41 -17.6 21.5 0 39.1 13.7Q839.8 44.9 886.7 127t50.8 171.8q-3.9 132.8 -91.8 220.7T625 611.3Q490.2 607.4 402.3 519.5 316.4 431.6 312.5 298.8q5.9 -111.3 72.3 -203.1Q449.2 2 523.4 -60.5q17.6 -15.7 39.1 -15.7 39.1 5.9 64.5 43l5.8 5.9q2 3.9 5.9 5.8l37.1 39.1zm74.2 375Q746.1 337.9 709 291q-37.1 -46.9 -66.4 -70.3 -17.6 -13.7 -35.2 0Q578.1 244.1 541 291t-41 101.6q2 52.7 37.1 87.9 35.2 37.1 87.9 37.1t87.9 -37.1Q748 445.3 750 392.6zM62.5 486.3q0 -27.3 17.6 -44.9Q97.7 423.8 125 423.8h62.5q27.3 0 44.9 17.6t17.6 44.9 -17.6 45 -44.9 17.5v125h875v-125q-27.3 0 -44.9 -17.5t-17.6 -45 17.6 -44.9 44.9 -17.6h62.5q27.3 0 44.9 17.6t17.6 44.9v187.5q27.3 0 44.9 17.6t17.6 44.9v125q0 27.4 -17.6 45t-44.9 17.5H62.5q-27.3 0 -44.9 -17.5T0 861.3v-125Q0 709 17.6 691.4t44.9 -17.6V486.3zm562.5 375q27.3 0 44.9 -17.5 17.6 -17.6 17.6 -45t-17.6 -44.9T625 736.3t-44.9 17.6 -17.6 44.9 17.6 45 44.9 17.5zm312.5 -62.5q0 -27.3 -17.6 -44.9Q902.3 736.3 875 736.3t-44.9 17.6 -17.6 44.9 17.6 45 44.9 17.5 44.9 -17.5 17.6 -45zM375 861.3q27.3 0 44.9 -17.5 17.6 -17.6 17.6 -45t-17.6 -44.9T375 736.3t-44.9 17.6 -17.6 44.9 17.6 45 44.9 17.5z"/></svg>