<svg height="1000" width="750" xmlns="http://www.w3.org/2000/svg"><path d="M728.5 425.8l-1.9 -3.9 1.9 3.9 -1.9 -3.9Q625 142.6 408.2 -58.6l-5.9 -5.9Q390.6 -76.2 375 -76.2t-27.3 11.7l-5.9 5.9Q125 142.6 23.4 421.9v3.9Q0 486.3 0 552.7 3.9 709 111.3 814.5 216.8 919.9 375 923.8q158.2 -3.9 263.7 -109.3Q746.1 709 750 552.7q0 -66.4 -21.5 -126.9zm-177.7 95.7q11.7 27.3 11.7 58.6 -2 78.1 -54.7 132.8Q455.1 765.6 375 767.6q-80.1 -2 -132.8 -54.7Q189.5 658.2 187.5 580.1q0 -31.3 11.7 -58.6l3.9 -7.8Q250 408.2 330.1 328.1l17.6 -17.6q11.7 -11.7 27.3 -11.7t25.4 11.7l17.6 17.6q82 80.1 128.9 185.6l3.9 7.8z"/></svg>