<svg height="1000" width="1125" xmlns="http://www.w3.org/2000/svg"><path d="M353.5 201.2q56.7 -50.8 132.8 -86Q562.5 82 656.3 80.1 750 82 826.2 115.2q76.1 35.2 134.7 86 56.7 48.8 95.7 101.5 41.1 50.8 62.5 91.8 13.7 29.3 0 58.6 -21.4 41 -62.5 91.8 -39 52.8 -95.7 101.6 -58.6 50.8 -134.7 85.9Q750 765.6 656.3 767.6q-93.8 -2 -170 -35.2 -76.1 -35.1 -132.8 -84 -48.8 -41 -84 -85.9L93.8 666q-41.1 19.5 -76.2 -9.7Q-11.7 621.1 7.8 580.1L97.7 423.8 7.8 267.6q-19.5 -41 11.7 -76.2 33.2 -29.3 74.3 -9.8l175.7 103.6q35.2 -45 84 -84zM875 423.8q0 -27.3 -17.6 -44.9 -17.6 -17.6 -44.9 -17.6t-44.9 17.6T750 423.8t17.6 45 44.9 17.5 44.9 -17.5 17.6 -45z"/></svg>