<svg height="1000" width="1125" xmlns="http://www.w3.org/2000/svg"><path d="M537.1 -2q-33.2 -23.4 -70.3 -1.9 -35.2 23.4 -27.3 64.4l17.5 95.8q-56.6 27.3 -101.5 60.5 -45 35.2 -80.1 72.3L93.8 181.6q-41.1 -19.5 -74.3 9.8 -31.2 35.2 -11.7 76.2l89.9 156.2L7.8 580.1q-19.5 41 11.7 76.2 33.2 29.2 74.3 9.7L275.4 558.6q35.1 37.1 80.1 72.3 44.9 33.2 101.5 60.5l-17.5 95.7q-7.9 41 27.3 64.5 35.2 21.4 70.3 -2L689.5 734.4q80 -5.9 148.4 -35.2Q904.3 669.9 957 630.9q56.7 -45 97.7 -91.8t62.5 -84q15.6 -31.3 0 -62.5 -21.5 -37.1 -62.5 -84T957 216.8Q904.3 177.7 837.9 148.4 769.5 119.1 689.5 113.3L537.1 -2zM750 423.8q0 -27.3 17.6 -44.9 17.6 -17.6 44.9 -17.6t44.9 17.6 17.6 44.9 -17.6 45 -44.9 17.5 -44.9 -17.5 -17.6 -45z"/></svg>