<svg height="1000" width="875" xmlns="http://www.w3.org/2000/svg"><path d="M62.5 -76.2q27.3 0 44.9 17.6Q125 -41 125 -13.7v31.3l134.8 -33.2Q375 -43 482.4 7.8 550.8 43 625 43T769.5 7.8L787.1 0q33.2 -15.6 58.6 2Q873 17.6 875 52.7v546.9q-2 41 -41 58.6l-66.4 25.4Q625 734.4 490.2 668 375 613.3 250 642.6l-125 31.2v187.5q0 27.4 -17.6 45t-44.9 17.5T17.6 906.3 0 861.3v-875Q0 -41 17.6 -58.6t44.9 -17.6zM125 289.1l125 -27.4 -125 27.4 125 -27.4v128.9L125 418v126.9l95.7 -23.4q13.7 -3.9 29.3 -5.9v-125L326.2 373q23.4 -5.8 48.8 -3.9v-125q41 2 78.1 13.7l46.9 11.7v130.9L418 377q-21.5 -5.9 -43 -7.9v138.7q64.5 5.9 125 29.3V400.4l44.9 13.7q39.1 11.7 80.1 13.6v-125q-23.4 -1.9 -44.9 -9.7L500 269.5V148.4q-39.1 -9.7 -74.2 -29.3Q400.4 107.4 375 103.5v140.6q-39.1 -1.9 -76.2 7.9l-48.8 9.7V115.2l-125 31.3v142.6zm500 291q50.8 3.9 97.7 -13.7l27.3 -9.8V416l-15.6 3.9q-54.7 11.7 -109.4 7.8v152.4zm125 -293V150.4v136.7V150.4Q689.5 168 625 168v134.7q41 3.9 82 -5.8l43 -9.8z"/></svg>