<svg height="1000" width="875" xmlns="http://www.w3.org/2000/svg"><path d="M62.5 -76.2q27.3 0 44.9 17.6Q125 -41 125 -13.7v31.3l134.8 -33.2Q375 -43 482.4 7.8 550.8 43 625 43T769.5 7.8L787.1 0q33.2 -15.6 58.6 2Q873 17.6 875 52.7V123l-87.9 31.3q-128.9 46.9 -255.8 -7.8L500 132.8Q439.5 105.5 375 99.6v62.5q50.8 5.9 99.6 27.4l31.3 13.6q148.4 64.5 302.7 9.8L875 189.5v121l-87.9 33.3Q658.2 388.7 531.3 334L500 320.3Q378.9 267.6 248 293l-123 27.3v64.5l136.7 -29.3Q371.1 332 474.6 377l31.3 13.6q148.4 64.5 302.7 11.7L875 377v121l-87.9 33.3q-128.9 44.9 -255.8 -9.8L500 507.8Q378.9 455.1 248 480.5l-123 27.3v64.5L261.7 543q109.4 -23.5 212.9 21.5l31.3 13.6q148.4 64.5 302.7 11.7L875 564.5v66.4q-2 41 -41 58.6l-66.4 25.3Q625 765.6 490.2 699.2 375 644.5 250 673.8l-125 31.3v156.2q0 27.4 -17.6 45t-44.9 17.5T17.6 906.3 0 861.3v-875Q0 -41 17.6 -58.6t44.9 -17.6zm156.3 187.5Q216.8 82 187.5 80.1q-29.3 1.9 -31.2 31.2 1.9 29.3 31.2 31.3 29.3 -2 31.3 -31.3zm62.5 0q29.2 -1.9 31.2 -31.2 -2 -29.3 -31.2 -31.3Q252 50.8 250 80.1q2 29.3 31.3 31.2zm-62.5 93.8q-2 -29.3 -31.3 -31.3 -29.3 2 -31.2 31.3 1.9 29.3 31.2 31.2 29.3 -1.9 31.3 -31.2zm62.5 0q29.2 -2 31.2 -31.3 -2 -29.3 -31.2 -31.2Q252 144.5 250 173.8q2 29.3 31.3 31.3z"/></svg>