<svg height="1000" width="1250" xmlns="http://www.w3.org/2000/svg"><path d="M341.8 683.6q-29.3 48.8 -29.3 105.5 -29.3 9.7 -62.5 9.7 -80.1 -1.9 -132.8 -54.7T62.5 611.3V48.8q-27.3 0 -44.9 -17.5T0 -13.7t17.6 -44.9 44.9 -17.6h375q27.3 0 44.9 17.6t17.6 44.9 -17.6 45 -44.9 17.5v480.5l-95.7 156.2v-1.9zM187.5 48.8v187.5V48.8v187.5h125V48.8h-125zm500 -125h250 -250H1000q27.3 0 44.9 17.6t17.6 44.9 -17.6 45T1000 48.8v295l230.5 373q19.5 33.2 19.5 72.3 -2 56.6 -39.1 95.7 -39 37.1 -95.7 39H509.8q-56.7 -1.9 -95.7 -39Q377 845.7 375 789.1q0 -39.1 19.5 -72.3L625 343.8v-295q-27.3 0 -44.9 -17.5t-17.6 -45 17.6 -44.9T625 -76.2h62.5zm62.5 125v312.5V48.8v312.5q0 17.6 -9.8 33.2l-93.7 154.3h334L884.8 394.5Q875 378.9 875 361.3V48.8H750z"/></svg>