<svg height="1000" width="875" xmlns="http://www.w3.org/2000/svg"><path d="M125 -13.7q-52.7 2 -87.9 37.1Q2 58.6 0 111.3v625q2 52.8 37.1 87.9t87.9 37.1h625q52.7 -1.9 87.9 -37.1T875 736.3V261.7q0 -50.8 -37.1 -87.9L687.5 23.4q-37.1 -37.1 -87.9 -37.1H125zm0 187.5q0 -27.3 17.6 -44.9 17.6 -17.6 44.9 -17.6h375q27.3 0 44.9 17.6t17.6 44.9v125q0 27.4 -17.6 45t-44.9 17.5h-375q-27.3 0 -44.9 -17.5t-17.6 -45v-125zm312.5 312.5q70.3 2 107.4 62.5 35.2 62.5 0 125 -37.1 60.6 -107.4 62.5 -70.3 -1.9 -107.4 -62.5 -35.2 -62.5 0 -125 37.1 -60.5 107.4 -62.5z"/></svg>