<svg height="1000" width="1125" xmlns="http://www.w3.org/2000/svg"><path d="M125 -13.7q0 -27.3 -17.6 -44.9Q89.8 -76.2 62.5 -76.2t-44.9 17.6T0 -13.7v687.5q2 52.8 37.1 87.9t87.9 37.1h375v-125H125V236.3h375v-125H125v-125zm437.5 312.5q0 27.4 17.6 45 17.6 17.5 44.9 17.5h437.5q27.3 0 44.9 -17.5t17.6 -45v-250q0 -27.3 -17.6 -44.9t-44.9 -17.6H869.1q-25.3 0 -42.9 -17.6l-27.4 -27.3q-17.5 -17.6 -42.9 -17.6H625q-27.3 0 -44.9 17.6t-17.6 44.9v312.5zm0 562.5q0 27.4 17.6 45 17.6 17.5 44.9 17.5h437.5q27.3 0 44.9 -17.5t17.6 -45v-250q0 -27.3 -17.6 -44.9t-44.9 -17.6H869.1q-25.3 0 -42.9 -17.5l-27.4 -27.4q-17.5 -17.6 -42.9 -17.6H625q-27.3 0 -44.9 17.6t-17.6 44.9v312.5z"/></svg>