<svg height="1000" width="1000" xmlns="http://www.w3.org/2000/svg"><path d="M484.4 -27.3q-41 9.7 -76.2 23.4Q216.8 72.3 128.9 224.6 76.2 312.5 52.7 410.2L517.6 875q39 -9.8 74.2 -23.4Q783.2 775.4 871.1 623q52.7 -87.8 76.2 -185.5L484.4 -27.3zm482.4 351.5Q982.4 154.3 953.1 19.5q-11.7 -41 -52.7 -48.8Q730.5 -56.6 597.7 -44.9l369.1 369.1zM402.3 892.6L33.2 523.4l369.1 369.2L33.2 523.4q-15.6 170 15.6 304.7 9.8 41 50.8 48.9 169.9 29.3 302.7 15.6zM509.8 246.1q21.5 -19.5 42.9 0l125 125q19.6 21.5 0 43 -21.4 19.5 -42.9 0l-125 -125q-19.6 -21.5 0 -43zM416 339.8q21.5 -19.5 43 0l125 125q19.5 21.5 0 43 -21.5 19.5 -43 0l-125 -125q-19.5 -21.5 0 -43zm-93.7 93.8q21.5 -19.5 42.9 0l125 125q19.6 21.5 0 43 -21.4 19.5 -42.9 0l-125 -125q-19.6 -21.5 0 -43z"/></svg>