<svg height="1000" width="1125" xmlns="http://www.w3.org/2000/svg"><path d="M718.8 -13.7q62.5 2 105.4 41 43 39.1 50.8 101.6l166 50.8q39.1 11.7 60.6 43Q1125 252 1125 293q-2 66.4 -60.5 101.5L783.2 556.6l179.7 179.7h99.6q27.3 0 44.9 17.6t17.6 44.9 -17.6 45 -44.9 17.5h-125q-25.4 0 -44.9 -17.5L677.7 627q17.6 -52.8 3.9 -107.5 -11.7 -54.7 -52.7 -97.6Q564.5 361.3 484.4 361.3t-142.6 58.6L197.3 556.6q-19.6 21.5 -2 45 21.5 19.5 44.9 1.9L384.8 464.8q9.7 -9.7 21.5 -17.5 42.9 -27.4 91.7 -23.5 48.9 5.9 86 41 35.1 37.2 41 86 3.9 48.8 -23.4 91.8 -7.8 11.7 -17.6 21.5l-72.3 72.2h175.8q27.3 0 44.9 17.6t17.6 44.9 -17.6 45 -44.9 17.5H125Q72.3 859.4 37.1 824.2T0 736.3q2 -164 76.2 -298.8T277.3 216.8 564.5 115.2q11.7 -56.6 54.6 -91.8 41.1 -35.1 99.7 -37.1zm0 203.2q42.9 -4 46.8 -46.9 -3.9 -43 -46.8 -46.9 -43 3.9 -46.9 46.9 3.9 42.9 46.9 46.9z"/></svg>