<svg height="1000" width="1000" xmlns="http://www.w3.org/2000/svg"><path d="M814.5 627l-138.7 -9.8 138.7 9.8 -138.7 -9.8q-15.6 0 -29.3 9.8 -11.7 7.8 -15.6 23.4l-35.2 136.7q-44.9 11.7 -95.7 11.7t-95.7 -11.7L369.1 650.4Q365.2 634.8 353.5 627q-13.7 -9.8 -29.3 -9.8L185.5 627Q132.8 546.9 125 443.4l119.1 -74.3q13.7 -7.8 17.6 -23.4 5.9 -13.7 0 -29.3L209 187.5Q271.5 111.3 365.2 74.2l107.5 89.9q11.7 9.7 27.3 9.7t27.3 -9.7L634.8 74.2q93.7 37.1 156.2 113.3l-52.7 128.9q-5.9 15.6 0 29.3 3.9 15.6 17.6 23.4L875 445.3Q867.2 546.9 814.5 627zM500 923.8q136.7 -1.9 250 -66.4Q863.3 791 933.6 673.8q66.4 -119.1 66.4 -250t-66.4 -250Q863.3 56.6 750 -9.8 636.7 -74.2 500 -76.2q-136.7 2 -250 66.4Q136.7 56.6 66.4 173.8 0 293 0 423.8t66.4 250Q136.7 791 250 857.4q113.3 64.5 250 66.4zm27.3 -636.7q-27.3 -17.6 -54.6 0l-93.8 68.4q-25.4 21.5 -17.6 52.7l37.1 109.4q11.8 31.2 43 33.2h117.2q31.2 -2 43 -33.2l37.1 -109.4q7.8 -31.2 -17.6 -52.7l-93.8 -68.4z"/></svg>