<svg height="1000" width="1250" xmlns="http://www.w3.org/2000/svg"><path d="M375 48.8Q214.8 52.7 109.4 158.2 3.9 263.7 0 423.8 3.9 584 109.4 689.5T375 798.8h500q160.2 -3.9 265.6 -109.3T1250 423.8q-3.9 -160.1 -109.4 -265.6T875 48.8H375zM968.8 252q44.9 1.9 68.3 39 19.5 39.1 0 78.1 -23.4 37.2 -68.3 39.1 -45 -1.9 -68.4 -39.1 -19.5 -39 0 -78.1 23.4 -37.1 68.4 -39zM765.6 517.6q2 -44.9 39.1 -68.4 39.1 -19.5 78.1 0 37.1 23.5 39.1 68.4 -2 44.9 -39.1 68.3 -39 19.6 -78.1 0 -37.1 -23.4 -39.1 -68.3zM328.1 314.5q3.9 -43 46.9 -46.9 43 3.9 46.9 46.9V377h62.5q42.9 3.9 46.9 46.8 -4 43 -46.9 46.9h-62.5v62.5q-3.9 43 -46.9 46.9 -43 -3.9 -46.9 -46.9v-62.5h-62.5q-42.9 -3.9 -46.8 -46.9 3.9 -42.9 46.8 -46.8h62.5v-62.5z"/></svg>