<svg height="1000" width="1000" xmlns="http://www.w3.org/2000/svg"><path d="M62.5 48.8q2 -52.7 37.1 -87.9 35.2 -35.1 87.9 -37.1H500q52.7 2 87.9 37.1T625 48.8v375h15.6q72.3 2 121.1 50.8t50.8 121.1v62.5q3.9 43 46.9 46.9 42.9 -3.9 46.9 -46.9V357.4q-41.1 -11.7 -66.5 -42.9 -27.3 -33.2 -27.3 -78.2v-125L750 48.8q-25.4 -31.2 0 -62.5 31.3 -25.4 62.5 0l150.4 150.4q37.1 37.1 37.1 89.9V658.2q-2 60.6 -41 99.6t-99.6 41q-60.6 -1.9 -99.6 -41t-41 -99.6v-62.5q0 -33.2 -23.5 -54.7 -21.5 -21.5 -54.7 -23.4H625v281.2q27.3 0 44.9 17.6t17.6 44.9 -17.6 45T625 923.8H62.5q-27.3 0 -44.9 -17.5T0 861.3t17.6 -44.9 44.9 -17.6v-750zm125 31.3v187.5V80.1v187.5q2 29.3 31.3 31.2h250Q498 296.9 500 267.6V80.1Q498 50.8 468.8 48.8h-250q-29.3 2 -31.3 31.3z"/></svg>