<svg height="1000" width="1000" xmlns="http://www.w3.org/2000/svg"><path d="M0 423.8q2 -136.7 66.4 -250Q132.8 60.5 250 -9.8q119.1 -66.4 250 -66.4t250 66.4q117.2 70.3 183.6 183.6 64.4 113.3 66.4 250 -2 136.7 -66.4 250Q867.2 787.1 750 857.4q-119.1 66.4 -250 66.4T250 857.4Q132.8 787.1 66.4 673.8 2 560.5 0 423.8zm625 187.5q0 -39 -21.5 -70.3Q582 509.8 546.9 496.1V95.7Q543 52.7 500 48.8q-43 3.9 -46.9 46.9v400.4Q418 509.8 396.5 541T375 611.3q2 52.8 37.1 87.9t87.9 37.1q52.7 -1.9 87.9 -37.1T625 611.3z"/></svg>