<svg height="1000" width="1000" xmlns="http://www.w3.org/2000/svg"><path d="M0 423.8q2 -136.7 66.4 -250Q132.8 60.5 250 -9.8q119.1 -66.4 250 -66.4t250 66.4q117.2 70.3 183.6 183.6 64.4 113.3 66.4 250 -2 136.7 -66.4 250Q867.2 787.1 750 857.4q-119.1 66.4 -250 66.4T250 857.4Q132.8 787.1 66.4 673.8 2 560.5 0 423.8zM562.5 111.3q0 -27.3 -17.6 -44.9Q527.3 48.8 500 48.8t-44.9 17.6 -17.6 44.9 17.6 45 44.9 17.5 44.9 -17.5 17.6 -45zm-62.5 625q52.7 -1.9 87.9 -37.1Q623 664.1 625 611.3q-2 -52.7 -35.2 -87.9l125 -283.2q13.7 -41 -23.4 -62.5 -41 -13.6 -62.5 23.5l-125 285.1H500q-52.7 2 -87.9 37.1T375 611.3q2 52.8 37.1 87.9t87.9 37.1zM343.8 205.1q0 -27.4 -17.6 -44.9 -17.6 -17.6 -44.9 -17.6t-45 17.6 -17.5 44.9 17.5 44.9 45 17.6T326.2 250t17.6 -44.9zM187.5 486.3q27.3 0 44.9 -17.5 17.6 -17.6 17.6 -45t-17.6 -44.9 -44.9 -17.6 -44.9 17.6T125 423.8t17.6 45 44.9 17.5zM875 423.8q0 -27.3 -17.6 -44.9 -17.6 -17.6 -44.9 -17.6t-44.9 17.6T750 423.8t17.6 45 44.9 17.5 44.9 -17.5 17.6 -45z"/></svg>