<svg height="1000" width="1000" xmlns="http://www.w3.org/2000/svg"><path d="M623 -58.6q-19.5 -17.6 -44.9 -17.6t-44.9 17.6L298.8 175.8q-17.5 19.5 -17.5 44.9t17.5 44.9l31.3 31.3q19.5 17.6 44.9 17.6t44.9 -17.6l7.8 -7.8 207.1 207 -7.8 7.8q-17.6 19.5 -17.6 44.9t17.6 45l31.2 31.2q19.5 17.6 44.9 17.6T748 625L982.4 390.6q17.6 -19.5 17.6 -44.9t-17.6 -44.9l-31.2 -31.3Q931.6 252 906.3 252t-45 17.5l-7.8 7.8 -207 -207 7.8 -7.8Q671.9 43 671.9 17.6t-17.6 -44.9L623 -58.6zM326.2 503.9q-19.6 -17.6 -44.9 -17.6 -25.4 0 -45 17.6L17.6 722.7Q0 742.2 0 767.6t17.6 44.9l93.7 93.8q19.6 17.5 45 17.5t44.9 -17.5L419.9 687.5q17.6 -19.5 17.6 -44.9t-17.6 -44.9l-3.9 -2L531.3 480.5l-87.9 -87.9L328.1 507.8l-1.9 -3.9z"/></svg>