<svg height="1000" width="1250" xmlns="http://www.w3.org/2000/svg"><path d="M603.5 187.5Q625 168 615.2 138.7 607.4 123 599.6 109.4l-5.8 -11.7L574.2 70.3Q554.7 46.9 527.3 56.6l-56.6 17.6q-31.2 -25.4 -70.3 -41l-11.7 -56.6q-7.8 -29.3 -35.2 -35.2 -19.5 -1.9 -41 -1.9 -19.5 0 -39.1 1.9 -29.3 5.9 -37.1 35.2l-11.7 56.6q-39.1 15.6 -70.3 41L99.6 56.6Q70.3 46.9 50.8 70.3 41 84 31.3 99.6l-5.9 9.8Q17.6 123 9.8 138.7 0 168 23.4 187.5l43 39.1q-3.9 19.5 -3.9 41t3.9 41l-43 39.1Q0 367.2 9.8 396.5q7.8 15.6 15.6 29.3l5.9 11.7q7.8 13.7 19.5 27.3 19.5 23.5 48.8 13.7l54.7 -17.6q31.2 25.4 70.3 41.1l11.7 56.6q7.8 29.3 37.1 35.2 19.6 1.9 39.1 1.9t39.1 -1.9q29.3 -5.9 37.1 -35.2L400.4 502q39.1 -15.7 70.3 -41.1l54.7 17.6q29.3 9.8 48.8 -13.7l19.6 -27.3 5.8 -11.7q7.8 -13.7 15.6 -29.3 9.8 -29.3 -13.6 -48.8l-43 -39.1q3.9 -19.5 3.9 -41t-3.9 -41l43 -39.1h1.9zm-384.7 80.1q1.9 -52.8 46.8 -82.1 46.9 -23.4 93.8 0 44.9 29.3 46.9 82.1 -2 52.7 -46.9 82 -46.9 23.4 -93.8 0 -44.9 -29.3 -46.8 -82zm767.5 634.7q19.6 21.5 48.9 11.8 15.6 -7.8 29.3 -15.7l11.7 -5.8 27.3 -19.6q23.5 -19.5 13.7 -46.8l-17.6 -56.7q25.4 -31.2 41 -70.3l56.7 -11.7q29.3 -7.8 35.1 -37.1 2 -19.5 2 -39.1t-2 -39q-5.8 -29.3 -35.1 -37.1l-56.7 -11.8q-15.6 -39 -41 -70.3l17.6 -54.7q9.8 -29.3 -13.7 -48.8l-27.3 -19.5 -11.7 -5.9q-13.7 -7.8 -29.3 -15.6 -29.3 -9.8 -48.9 13.7l-39 42.9q-19.6 -3.9 -41 -3.9t-41.1 3.9l-39 -42.9q-19.6 -23.5 -48.9 -13.7 -15.6 7.8 -29.3 15.6l-9.7 5.9q-15.6 9.7 -29.3 19.5 -23.5 19.5 -13.7 48.8l17.6 54.7q-25.4 31.3 -41 70.3l-56.7 11.8q-29.3 7.8 -35.1 37.1 -2 19.5 -2 39t2 39.1q5.8 29.3 35.1 37.1l56.7 11.7q15.6 39.1 41 70.3l-17.6 54.7q-9.8 29.3 13.7 48.8 13.7 9.8 29.3 19.6l9.7 5.8q13.7 7.9 29.3 15.7 29.3 9.7 48.9 -13.7l39 -43q19.6 3.9 41.1 3.9t41 -3.9l39 43v1.9zm-80 -384.7q52.7 1.9 82 46.9 23.4 46.8 0 93.7 -29.3 44.9 -82 46.9 -52.8 -2 -82.1 -46.9 -23.4 -46.9 0 -93.7 29.3 -45 82.1 -46.9z"/></svg>