<svg height="1000" width="1000" xmlns="http://www.w3.org/2000/svg"><path d="M968.8 250q7.8 27.3 -11.8 46.9L871.1 375q3.9 23.4 3.9 48.8t-3.9 48.9l85.9 78.1q19.6 19.5 11.8 46.9 -13.7 35.1 -31.3 68.3l-9.8 15.6q-19.5 31.3 -42.9 60.6 -19.6 21.5 -46.9 13.7L728.5 720.7q-39 31.3 -85.9 48.8l-23.5 113.3Q611.3 910.2 582 916q-39 7.8 -82 7.8T416 916q-27.3 -5.8 -35.1 -33.2L357.4 769.5Q310.5 752 271.5 720.7l-109.4 35.2q-27.3 7.8 -46.9 -13.7Q89.8 712.9 72.3 681.6L62.5 666Q44.9 632.8 31.3 599.6 23.4 570.3 43 550.8l85.9 -76.2Q125 449.2 125 423.8t3.9 -48.8L43 296.9Q23.4 277.3 31.3 250q13.6 -35.2 31.2 -68.4L72.3 166q17.5 -31.2 42.9 -60.5Q134.8 84 162.1 91.8L271.5 127q39 -31.3 85.9 -50.8l23.5 -111.4q7.8 -27.3 37.1 -33.2 39 -7.8 82 -7.8t84 7.8q27.3 5.9 35.1 33.2l23.5 111.4q46.9 19.5 85.9 50.8L837.9 91.8q27.3 -7.8 46.9 13.7 25.4 29.3 44.9 60.5l7.8 15.6q17.6 33.2 31.3 68.4zM500 580.1q87.9 -2 134.8 -78.1 42.9 -78.2 0 -156.3Q587.9 269.5 500 267.6q-87.9 1.9 -134.8 78.1 -42.9 78.1 0 156.3 46.9 76.1 134.8 78.1z"/></svg>