<svg height="1000" width="1000" xmlns="http://www.w3.org/2000/svg"><path d="M228.5 -9.8q13.7 -19.5 37.1 -19.5h468.8q23.4 0 37.1 19.5l218.7 296.9q19.6 31.3 -1.9 58.6l-453.1 500q-13.7 15.6 -35.2 15.6t-35.2 -15.6L11.7 345.7Q-9.8 318.4 9.8 287.1L228.5 -9.8zm74.2 78.2q-9.7 7.8 -3.9 19.5l113.3 187.5L123 298.8q-11.7 2 -13.6 15.7 1.9 13.6 13.6 15.6l375 31.2h4l375 -31.2q11.7 -2 13.6 -15.6Q888.7 300.8 877 298.8L589.8 275.4 701.2 87.9Q707 76.2 697.3 68.4q-11.8 -7.9 -21.5 1.9L500 259.8 324.2 70.3q-9.7 -9.8 -21.5 -1.9z"/></svg>