<svg height="1000" width="750" xmlns="http://www.w3.org/2000/svg"><path d="M78.1 835.9l-21.5 17.6 21.5 -17.6 -21.5 17.6q-9.7 7.8 -21.4 7.8Q3.9 857.4 0 826.2V298.8Q3.9 138.7 109.4 33.2T375 -76.2q160.2 3.9 265.6 109.4T750 298.8v527.4q-3.9 31.2 -35.2 35.1 -11.7 0 -21.4 -7.8l-21.5 -17.6Q650.4 820.3 627 822.3t-41.1 21.5l-60.5 68.3q-9.8 11.7 -25.4 11.7t-25.4 -11.7l-52.7 -58.6Q402.3 832 375 832t-46.9 21.5l-52.7 58.6q-9.8 11.7 -25.4 11.7t-25.4 -11.7l-60.5 -68.3Q146.5 824.2 123 822.3t-44.9 13.6zM312.5 298.8q0 -27.3 -17.6 -44.9Q277.3 236.3 250 236.3t-44.9 17.6 -17.6 44.9 17.6 45 44.9 17.5 44.9 -17.5 17.6 -45zM500 361.3q27.3 0 44.9 -17.5 17.6 -17.6 17.6 -45t-17.6 -44.9T500 236.3t-44.9 17.6 -17.6 44.9 17.6 45 44.9 17.5z"/></svg>