<svg height="1000" width="1250" xmlns="http://www.w3.org/2000/svg"><path d="M392.6 -13.7q9.7 -41 -29.3 -60.5 -41 -9.8 -60.6 29.3l-19.5 58.6 -19.5 -58.6Q246.1 -84 203.1 -74.2q-39 17.6 -29.3 60.5l17.6 48.9L136.7 -3.9Q99.6 -27.3 72.3 5.9 48.8 43 82 70.3l54.7 41H93.8q-39.1 2 -66.5 27.4Q2 166 0 205.1v625q2 39 27.3 66.4 27.4 25.4 66.5 27.3h298.8Q375 896.5 375 861.3V423.8q0 -44.9 27.3 -78.1 25.4 -31.2 66.5 -43 7.8 -93.7 78.1 -148.4 -27.4 -41 -78.1 -43h-43l54.7 -41Q513.7 43 490.2 5.9q-27.3 -33.2 -64.4 -9.8L377 31.3l15.6 -45zm318.3 300.8l56.7 74.2 -56.7 -74.2 56.7 74.2h-95.7q-43 -3.9 -46.9 -46.8 3.9 -43 46.9 -46.9 23.4 0 39 19.5zm-179.6 27.4q0 25.3 7.8 46.8h-7.8q-39.1 2 -66.5 27.4 -25.3 27.3 -27.3 66.4v156.2h375V423.8H875v187.5h375V455.1q-2 -39.1 -27.3 -66.4 -27.4 -25.4 -66.4 -27.4h-7.9q7.9 -21.5 7.9 -46.8 -2 -60.6 -41.1 -99.7 -41 -39 -99.6 -41 -68.3 2 -111.3 54.7l-60.5 78.1 -58.6 -78.1q-45 -52.7 -113.3 -54.7 -58.6 2 -99.6 41 -39.1 39.1 -41 99.7zm-93.8 515.6q2 39 27.3 66.4 27.4 25.4 66.5 27.3h281.2v-250h-375v156.3zM875 923.8h281.3H875h281.3q39 -1.9 66.4 -27.3 25.3 -27.4 27.3 -66.4V673.8H875v250zm187.5 -609.3q-3.9 42.9 -46.9 46.8h-95.7l58.6 -74.2q13.7 -19.5 37.1 -19.5 43 3.9 46.9 46.9z"/></svg>