<svg height="1000" width="1000" xmlns="http://www.w3.org/2000/svg"><path d="M373 58.6l66.5 115.2L373 58.6l66.5 115.2H296.9q-33.2 0 -54.7 -23.4Q218.8 128.9 218.8 95.7T242.2 41q21.5 -23.4 54.7 -23.4h3.9q46.9 1.9 72.2 41zM125 95.7q0 43 19.5 78.1h-82q-27.3 0 -44.9 17.6T0 236.3v125q0 27.4 17.6 45t44.9 17.5h875q27.3 0 44.9 -17.5t17.6 -45v-125q0 -27.3 -17.6 -44.9t-44.9 -17.6h-82Q875 138.7 875 95.7 873 23.4 824.2 -25.4T703.1 -76.2h-3.9q-99.6 3.9 -152.3 86l-46.9 82L453.1 11.7q-52.7 -84 -152.3 -87.9h-3.9q-72.3 2 -121.1 50.8T125 95.7zm656.3 0q0 33.2 -23.5 54.7 -21.5 23.4 -54.7 23.4H560.5L628.9 58.6q23.4 -39.1 70.3 -41h3.9q33.2 0 54.7 23.4 23.5 21.5 23.5 54.7zM62.5 486.3v343.8V486.3v343.8q2 39 27.3 66.4 27.4 25.4 66.5 27.3h281.2V486.3h-375zm500 437.5h281.3H562.5h281.3q39 -1.9 66.4 -27.3 25.3 -27.4 27.3 -66.4V486.3h-375v437.5z"/></svg>