<svg height="1000" width="750" xmlns="http://www.w3.org/2000/svg"><path d="M62.5 -76.2q-27.3 0 -44.9 19.6Q-2 -37.1 0 -9.8l56.6 789.1q5.9 62.5 48.9 103.5 42.9 39.1 107.4 41h324.2q64.5 -1.9 107.4 -41 43 -41 48.9 -103.5L750 -9.8q2 -27.3 -17.6 -46.8 -17.6 -19.6 -44.9 -19.6h-625zm99.6 582.1L128.9 48.8l33.2 457.1L128.9 48.8h492.2l-33.2 457.1 -25.4 11.7q-62.5 29.3 -125 0t-125 0 -125 0l-25.4 -11.7zM500 306.6q-3.9 -37.1 -37.1 -91.8Q427.7 160.2 398.4 125q-23.4 -23.4 -46.8 0 -29.3 35.2 -64.5 89.8 -33.2 54.7 -37.1 91.8 2 48.9 37.1 82.1t87.9 35.1q52.7 -1.9 87.9 -35.1T500 306.6z"/></svg>