<svg height="1000" width="1125" xmlns="http://www.w3.org/2000/svg"><path d="M232.4 80.1q-37.1 1.9 -46.9 37.1l-74.2 314.4q62.5 -21.4 154.3 -23.4 97.7 3.9 162.1 27.3 31.3 9.8 48.9 17.6 7.8 2 11.7 3.9l1.9 2 3.9 1.9h2l-11.7 25.4 11.7 -25.4q17.6 9.8 27.3 25.4h78.2q9.7 -15.6 27.3 -25.4l11.7 25.4q-7.8 -17.5 -9.7 -21.5l-2 -3.9h2l1.9 -1.9h2l1.9 -2q3.9 -1.9 11.7 -3.9 17.6 -7.8 50.8 -19.5 62.5 -21.5 160.2 -25.4 91.8 2 154.3 23.4L939.5 117.2Q929.7 82 892.6 80.1q-7.8 0 -17.6 3.9l-60.5 23.4Q773.4 121.1 753.9 82 740.2 41 779.3 21.5l60.5 -25.4q25.4 -9.8 52.8 -9.8 50.8 0 89.8 31.3 37.1 29.3 48.9 78.1l85.9 367.2q5.8 21.5 7.8 43V642.6q-2 93.7 -64.5 154.3 -60.5 62.5 -154.2 64.4h-86q-89.8 -1.9 -150.4 -60.5Q609.4 744.1 601.6 654.3l-2 -43h-74.2l-2 43q-5.8 89.8 -68.3 146.5 -60.6 58.6 -150.4 60.5h-85.9Q125 859.4 64.5 796.9 2 736.3 0 642.6v-125q0 -5.9 2 -11.7 0 -21.5 5.8 -43l86 -367.2q11.7 -48.8 48.8 -78.1 39 -31.3 89.8 -31.3 27.4 0 52.8 9.8l60.5 25.4Q384.8 41 371.1 82q-19.5 37.1 -60.6 25.4L250 84q-9.8 -3.9 -17.6 -3.9zM125 558.6v84 -84 84q2 39 27.3 66.4 27.4 25.4 66.5 27.3h85.9q39.1 0 64.4 -25.4 27.4 -25.4 29.3 -62.5l5.9 -89.8 -15.6 -3.9Q335.9 535.2 265.6 533.2q-72.2 2 -125 21.5 -7.8 1.9 -15.6 5.8v-1.9zm875 84v-84 84 -84l-15.6 -3.9q-52.8 -19.5 -125 -21.5 -70.3 2 -123.1 21.5 -7.8 1.9 -13.6 3.9h-2l5.9 89.8q1.9 37.1 29.3 62.5 25.4 23.5 64.4 25.4h86q39 -1.9 66.4 -27.3Q998 681.6 1000 642.6z"/></svg>