<svg height="1000" width="1000" xmlns="http://www.w3.org/2000/svg"><path d="M687.5 423.8q0 64.5 -5.9 125H318.4q-5.9 -60.5 -5.9 -125t5.9 -125h363.2q5.9 60.6 5.9 125zm56.6 -125h240.3H744.1h240.3q15.6 60.6 15.6 125t-15.6 125H744.1q5.9 -60.5 5.9 -125t-5.9 -125zm218.8 -62.5H736.3h226.6H736.3Q705.1 44.9 627 -60.5q117.1 33.2 205 109.3 86 78.2 130.9 187.5zm-291 0H328.1h343.8H328.1Q345.7 128.9 380.9 50.8q31.2 -68.4 64.4 -99.6 33.2 -29.3 54.7 -27.4 21.5 -1.9 54.7 27.4 33.2 31.2 64.4 99.6 35.2 78.1 52.8 185.5zm-408.2 0H37.1h226.6H37.1Q82 127 168 48.8q87.9 -76.1 205 -109.3Q294.9 44.9 263.7 236.3zM15.6 298.8h240.3H15.6h240.3q-5.9 60.6 -5.9 125t5.9 125H15.6Q0 488.3 0 423.8t15.6 -125zm365.3 498.1Q345.7 718.8 328.1 611.3h343.8q-17.6 107.5 -52.8 185.6 -31.2 68.3 -64.4 99.6 -33.2 29.3 -54.7 27.3 -21.5 2 -54.7 -27.3 -33.2 -31.3 -64.4 -99.6zM263.7 611.3Q294.9 802.7 373 908.2 255.9 875 168 798.8 82 720.7 37.1 611.3h226.6zm699.2 0Q918 720.7 832 798.8 744.1 875 628.9 908.2 705.1 802.7 736.3 611.3h228.5 -1.9z"/></svg>