<svg height="1000" width="750" xmlns="http://www.w3.org/2000/svg"><path d="M750 298.8q-2 99.6 -46.9 179.7 -44.9 82 -121.1 132.8H168Q91.8 560.5 46.9 478.5 2 398.4 0 298.8 3.9 138.7 109.4 33.2T375 -76.2q160.2 3.9 265.6 109.4T750 298.8zm-277.3 127q0 27.3 -19.6 44.9 -17.6 19.5 -44.9 19.5 -19.5 3.9 -11.7 17.6 17.6 15.6 43 15.6 29.3 0 46.8 -19.5 17.6 -17.6 19.6 -46.9 0 -25.4 -17.6 -42.9 -11.7 -5.9 -15.6 11.7zM371.1 328.1q-17.6 3.9 -11.7 17.6 19.5 15.6 44.9 15.6 27.3 0 44.9 -19.5 19.6 -17.6 19.6 -44.9 0 -25.4 -15.7 -44.9 -13.6 -5.9 -17.6 11.7 0 27.3 -19.5 46.8 -17.6 17.6 -44.9 17.6zm220.7 -33.2q0 27.4 -19.5 44.9 -17.6 19.6 -45 19.6 -17.5 3.9 -11.7 17.6 19.6 15.6 44.9 15.6 27.4 0 45 -19.6Q625 355.5 625 328.1q0 -25.4 -15.6 -44.9 -13.7 -5.9 -17.6 11.7zM187.5 736.3q0 -27.3 17.6 -44.9 17.6 -17.6 44.9 -17.6h250q27.3 0 44.9 17.6t17.6 44.9 -17.6 45T500 798.8h-31.2q-29.3 2 -31.3 31.3v31.2q0 27.4 -17.6 45T375 923.8t-44.9 -17.5 -17.6 -45v-31.2q-2 -29.3 -31.2 -31.3H250q-27.3 0 -44.9 -17.5t-17.6 -45z"/></svg>