<svg height="1000" width="1000" xmlns="http://www.w3.org/2000/svg"><path d="M234.4 -76.2q42.9 3.9 46.9 46.9v15.6h78.1v-15.6q3.9 -43 46.9 -46.9 42.9 3.9 46.8 46.9v15.6h93.8v-15.6q3.9 -43 46.9 -46.9 42.9 3.9 46.8 46.9v15.6h78.2v-15.6q3.9 -43 46.8 -46.9 43 3.9 46.9 46.9v203.1q27.3 0 44.9 17.6t17.6 44.9v125q27.3 0 44.9 17.6t17.6 44.9v187.5q27.3 0 44.9 17.6t17.6 44.9v187.5q0 27.4 -17.6 45t-44.9 17.5h-125V611.3H750v-250h-62.5V173.8H625v187.5h62.5v250H750v312.5H593.8v-93.7q-2 -39.1 -27.4 -66.4Q539.1 738.3 500 736.3q-39.1 2 -66.4 27.4 -25.4 27.3 -27.3 66.4v93.7H250V611.3h62.5v-250H375V173.8h-62.5v187.5H250v250h-62.5v312.5h-125q-27.3 0 -44.9 -17.5T0 861.3V673.8q0 -27.3 17.6 -44.9t44.9 -17.6V423.8q0 -27.3 17.6 -44.9T125 361.3v-125q0 -27.3 17.6 -44.9t44.9 -17.6V-29.3q3.9 -43 46.9 -46.9zM500 455.1q-27.3 0 -44.9 17.6 -17.6 17.5 -17.6 44.9v93.7h125v-93.7q0 -27.4 -17.6 -44.9T500 455.1zM437.5 298.8v62.5 -62.5 62.5h125v-62.5q0 -27.3 -17.6 -44.9T500 236.3t-44.9 17.6 -17.6 44.9z"/></svg>