<svg height="1000" width="1250" xmlns="http://www.w3.org/2000/svg"><path d="M625 -13.7q-23.4 0 -46.9 7.8L31.3 191.4Q2 205.1 0 236.3q2 31.3 31.3 45l113.2 41Q95.7 398.4 93.8 494.1v54.7q-5.9 86 -43 158.2Q31.3 744.1 5.9 779.3 -3.9 793 2 808.6t21.4 21.5l125 31.2q13.7 2 25.4 -3.9 9.8 -7.8 13.7 -21.5Q207 707 183.6 625q-9.8 -43 -27.3 -82v-48.9q1.9 -89.8 54.6 -160.1 37.1 -44.9 95.7 -68.4L613.3 144.5q27.3 -7.8 41 17.6 7.8 27.4 -17.6 41L330.1 322.3q-37.1 15.6 -62.5 42.9l310.5 113.3q23.5 7.8 46.9 7.8t46.9 -7.8l546.9 -197.2q29.2 -13.7 31.2 -45 -2 -31.2 -31.2 -44.9L671.9 -5.9q-23.5 -7.8 -46.9 -7.8zM250 720.7q3.9 54.7 109.4 95.7 105.4 43 265.6 44.9 160.2 -1.9 265.6 -44.9 105.5 -41 109.4 -95.7L970.7 437.5l-277.3 99.6q-33.2 11.7 -68.4 11.7t-66.4 -11.7L279.3 437.5 250 720.7z"/></svg>