<svg height="1000" width="875" xmlns="http://www.w3.org/2000/svg"><path d="M250 189.5q0 -33.2 -23.4 -54.7 -21.5 -23.5 -54.7 -23.5H78.1q-33.2 0 -54.7 23.5Q0 156.3 0 189.5v93.7q0 33.2 23.4 54.7 21.5 23.4 54.7 23.4h93.8q33.2 0 54.7 -23.4Q250 316.4 250 283.2v-93.7zm0 375q0 -33.2 -23.4 -54.7 -21.5 -23.5 -54.7 -23.5H78.1q-33.2 0 -54.7 23.5Q0 531.3 0 564.5v93.7q0 33.2 23.4 54.7 21.5 23.4 54.7 23.4h93.8q33.2 0 54.7 -23.4Q250 691.4 250 658.2v-93.7zm62.5 -375v93.7 -93.7 93.7q0 33.2 23.4 54.7 21.5 23.4 54.7 23.4h93.8q33.2 0 54.7 -23.4 23.4 -21.5 23.4 -54.7v-93.7q0 -33.2 -23.4 -54.7 -21.5 -23.5 -54.7 -23.5h-93.8q-33.2 0 -54.7 23.5 -23.4 21.5 -23.4 54.7zm250 375q0 -33.2 -23.4 -54.7 -21.5 -23.5 -54.7 -23.5h-93.8q-33.2 0 -54.7 23.5 -23.4 21.5 -23.4 54.7v93.7q0 33.2 23.4 54.7 21.5 23.4 54.7 23.4h93.8q33.2 0 54.7 -23.4 23.4 -21.5 23.4 -54.7v-93.7zm62.5 -375v93.7 -93.7 93.7q0 33.2 23.4 54.7 21.5 23.4 54.7 23.4h93.8q33.2 0 54.7 -23.4Q875 316.4 875 283.2v-93.7q0 -33.2 -23.4 -54.7 -21.5 -23.5 -54.7 -23.5h-93.8q-33.2 0 -54.7 23.5Q625 156.3 625 189.5zm250 375q0 -33.2 -23.4 -54.7 -21.5 -23.5 -54.7 -23.5h-93.8q-33.2 0 -54.7 23.5Q625 531.3 625 564.5v93.7q0 33.2 23.4 54.7 21.5 23.4 54.7 23.4h93.8q33.2 0 54.7 -23.4Q875 691.4 875 658.2v-93.7z"/></svg>