<svg height="1000" width="625" xmlns="http://www.w3.org/2000/svg"><path d="M78.1 611.3h93.8H78.1h93.8q33.2 0 54.7 23.5 23.4 21.5 23.4 54.7v93.7q0 33.2 -23.4 54.7 -21.5 23.4 -54.7 23.4H78.1q-33.2 0 -54.7 -23.4Q0 816.4 0 783.2v-93.7q0 -33.2 23.4 -54.7 21.5 -23.5 54.7 -23.5zm375 0h93.8 -93.8 93.8q33.2 0 54.7 23.5 23.4 21.5 23.4 54.7v93.7q0 33.2 -23.4 54.7 -21.5 23.4 -54.7 23.4h-93.8q-33.2 0 -54.7 -23.4Q375 816.4 375 783.2v-93.7q0 -33.2 23.4 -54.7 21.5 -23.5 54.7 -23.5zm-375 -62.5q-33.2 0 -54.7 -23.4Q0 503.9 0 470.7V377q0 -33.2 23.4 -54.7 21.5 -23.5 54.7 -23.5h93.8q33.2 0 54.7 23.5Q250 343.8 250 377v93.7q0 33.2 -23.4 54.7 -21.5 23.4 -54.7 23.4H78.1zm375 -250h93.8 -93.8 93.8q33.2 0 54.7 23.5Q625 343.8 625 377v93.7q0 33.2 -23.4 54.7 -21.5 23.4 -54.7 23.4h-93.8q-33.2 0 -54.7 -23.4Q375 503.9 375 470.7V377q0 -33.2 23.4 -54.7 21.5 -23.5 54.7 -23.5zm-375 -62.5q-33.2 0 -54.7 -23.4Q0 191.4 0 158.2V64.5Q0 31.3 23.4 9.8q21.5 -23.5 54.7 -23.5h93.8q33.2 0 54.7 23.5Q250 31.3 250 64.5v93.7q0 33.2 -23.4 54.7 -21.5 23.4 -54.7 23.4H78.1zm375 -250h93.8 -93.8 93.8q33.2 0 54.7 23.5Q625 31.3 625 64.5v93.7q0 33.2 -23.4 54.7 -21.5 23.4 -54.7 23.4h-93.8q-33.2 0 -54.7 -23.4Q375 191.4 375 158.2V64.5q0 -33.2 23.4 -54.7 21.5 -23.5 54.7 -23.5z"/></svg>