<svg height="1000" width="1000" xmlns="http://www.w3.org/2000/svg"><path d="M392.6 64.5Q418 56.6 429.7 33.2q11.7 -21.5 5.8 -46.9 -9.7 -25.4 -31.2 -37.1t-46.9 -3.9Q293 -37.1 238.3 -2q-23.5 -11.7 -50.8 -11.7 -52.7 2 -87.9 37.1t-37.1 87.9q0 27.4 11.7 50.8Q39.1 216.8 21.5 281.3q-7.8 25.3 3.9 46.8 11.7 23.5 37.1 31.3 25.4 5.8 46.9 -5.9 23.4 -11.7 31.2 -37.1 11.7 -43 35.2 -80.1h11.7q52.7 -1.9 87.9 -37.1t37.1 -87.9V99.6q37.1 -21.5 80.1 -35.1zm250 -119.2q-25.4 -7.8 -46.9 3.9 -23.4 11.7 -31.2 37.1 -5.9 25.4 5.8 46.9 11.7 23.4 37.1 31.3 43 11.7 80.1 35.1v11.7q2 52.8 37.1 87.9t87.9 37.1h11.7q21.5 37.1 35.2 80.1 7.8 25.4 29.3 37.1 23.4 11.7 48.8 5.9 25.4 -9.8 37.1 -31.3t3.9 -46.8Q960.9 216.8 925.8 162.1q11.7 -23.4 11.7 -50.8 -2 -52.7 -37.1 -87.9 -35.2 -37.1 -87.9 -37.1 -27.3 0 -50.8 9.8Q705.1 -37.1 642.6 -56.6v1.9zm-502 586q-7.8 -25.4 -31.2 -37.2Q87.9 482.4 62.5 488.3 37.1 498 25.4 519.5t-3.9 46.9q17.6 64.5 52.7 119.1Q62.5 709 62.5 736.3q2 52.8 37.1 87.9t87.9 37.1q27.3 0 50.8 -11.7 54.7 35.2 119.1 52.7 25.4 7.9 46.9 -3.9 23.4 -11.7 31.2 -37.1 5.9 -25.4 -5.8 -46.8Q418 791 392.6 783.2q-43 -11.7 -80.1 -35.2v-11.7q-2 -52.7 -37.1 -87.9t-87.9 -37.1h-11.7q-21.5 -37.1 -35.2 -80zm837.9 35.1q7.8 -25.4 -3.9 -46.9t-37.1 -31.2q-25.4 -5.9 -48.8 5.8 -21.5 11.8 -29.3 37.2 -13.7 42.9 -35.2 80h-11.7q-52.7 2 -87.9 37.1t-37.1 87.9V748q-37.1 23.5 -80.1 35.2Q582 791 570.3 814.5q-11.7 21.4 -5.8 46.8 9.7 25.4 31.2 37.1t46.9 3.9q62.5 -17.5 119.1 -52.7 23.5 11.7 50.8 11.7 52.7 -1.9 87.9 -37.1t37.1 -87.9q0 -27.3 -11.7 -50.8 35.1 -54.6 52.7 -119.1zM377 425.8q0 -46.9 29.3 -80.1l29.2 29.3q9.8 9.8 21.5 3.9 11.8 -3.9 13.7 -17.6V242.2q-1.9 -17.6 -21.5 -19.5H332q-13.6 0 -19.5 11.7 -3.9 11.7 5.9 23.4l21.4 21.5q-54.6 58.6 -56.6 146.5 0 64.4 33.2 115.2 31.3 50.8 85.9 80.1 39.1 15.6 62.5 -21.5 15.7 -39.1 -19.5 -62.5Q380.9 502 377 425.8zM558.6 310.5Q623 345.7 627 421.9q-2 46.9 -29.3 80.1l-29.3 -29.3q-11.8 -9.8 -23.5 -3.9 -11.7 3.9 -11.7 17.5v119.2q2 17.5 19.5 19.5h119.2q13.6 0 17.6 -11.7 5.8 -11.7 -4 -21.5l-21.4 -23.4q54.7 -58.6 56.6 -146.5 -1.9 -64.5 -33.2 -115.3 -33.2 -50.7 -85.9 -80Q560.5 210.9 537.1 248q-15.6 39.1 21.5 62.5z"/></svg>