<svg height="1000" width="750" xmlns="http://www.w3.org/2000/svg"><path d="M375 -76.2q-27.3 0 -44.9 17.6 -17.6 17.6 -17.6 44.9v68.4Q175.8 80.1 89.8 179.7 2 281.3 0 423.8 2 566.4 89.8 668q86 99.6 222.7 125v68.3q0 27.4 17.6 45t44.9 17.5 44.9 -17.5 17.6 -45V793Q574.2 767.6 660.2 668 748 566.4 750 423.8q0 -27.3 -17.6 -44.9t-44.9 -17.6h-250V181.6q66.4 17.6 113.3 64.5 19.5 17.6 43 17.6 25.3 0 44.9 -19.6 17.6 -19.5 17.6 -44.9 0 -23.4 -19.6 -42.9Q554.7 76.2 437.5 54.7v-68.4q0 -27.3 -17.6 -44.9T375 -76.2zm-62.5 257.8V666 181.6 666q-82 -21.5 -134.8 -87.9Q127 513.7 125 423.8q2 -89.8 52.7 -154.3 52.8 -66.4 134.8 -87.9zm125 484.4V486.3 666 486.3h179.7q-17.6 66.4 -64.5 115.3Q503.9 648.4 437.5 666z"/></svg>