<svg height="1000" width="1000" xmlns="http://www.w3.org/2000/svg"><path d="M908.2 -62.5q-33.2 -27.3 -66.4 0L748 31.3q-7.8 7.8 -9.7 17.5L707 128.9 556.6 279.3q-68.3 -43 -138.6 -43t-117.2 46.9q-33.2 33.2 -43 76.2 -5.8 25.4 -25.4 42.9t-44.9 19.6q-76.2 3.9 -130.9 56.6Q-9.8 546.9 2 646.5q9.7 99.6 91.8 185.5 83.9 80.1 183.5 89.9 99.7 11.7 168 -54.7Q498 812.5 502 736.3q1.9 -25.4 19.5 -44.9t43 -25.4q42.9 -9.7 76.1 -43 46.9 -46.8 46.9 -117.1t-43 -138.7L794.9 216.8 875 185.5q9.8 -1.9 17.6 -9.7L986.3 82q27.4 -33.2 0 -66.4l-78.1 -78.1zM406.3 423.8q52.7 2 82 46.9 23.4 46.9 0 93.8 -29.3 44.9 -82 46.8 -52.8 -1.9 -82.1 -46.8 -23.4 -46.9 0 -93.8 29.3 -44.9 82.1 -46.9z"/></svg>