<svg height="1000" width="1125" xmlns="http://www.w3.org/2000/svg"><path d="M1031.3 33.2q-4 -43 -46.9 -46.9 -43 3.9 -46.9 46.9v15.6h-875q-27.3 0 -44.9 17.6T0 111.3v218.8q0 27.3 17.6 44.9t44.9 17.6H82q31.3 1.9 48.9 23.4 17.5 23.5 11.7 54.7L64.5 783.2q-5.9 29.3 11.7 54.7 17.6 23.4 48.8 23.4h187.5q46.9 -1.9 60.5 -46.8l50.8 -203.2h205.1q35.2 0 62.5 -19.5t39.1 -52.7l52.7 -146.5h60.6q25.3 0 44.9 -17.6l42.9 -44.9h130.9q27.3 0 44.9 -17.6t17.6 -44.9V111.3q0 -27.3 -17.6 -44.9t-44.9 -17.6h-31.2V33.2zM627 517.6H447.3 627 447.3l31.2 -125h205.1l-41 115.2q-3.9 9.8 -13.7 9.8H627zM156.3 173.8h750 -750 750q29.2 2 31.2 31.3 -2 29.3 -31.2 31.2h-750Q127 234.4 125 205.1q2 -29.3 31.3 -31.3z"/></svg>