<svg height="1000" width="1125" xmlns="http://www.w3.org/2000/svg"><path d="M808.6 388.7q-87.9 13.6 -156.3 -50.8l-76.1 -74.2Q531.3 216.8 531.3 154.3v-23.4L375 44.9Q359.4 35.2 359.4 15.6q1.9 -17.6 19.5 -27.3l91.8 -41Q525.4 -76.2 584 -76.2h35.1q111.4 2 193.4 76.2l87.9 82q70.3 72.3 50.8 168l31.2 31.3L998 265.6q33.3 -27.3 66.5 0l46.8 46.9q27.4 33.2 0 66.4L939.5 550.8q-33.2 27.3 -66.5 0l-46.8 -46.9q-27.4 -33.2 0 -66.4l15.6 -15.6 -33.2 -33.2zM52.7 660.2L509.8 281.3 52.7 660.2 509.8 281.3q9.7 13.6 23.4 27.3l74.2 74.2q17.6 17.6 37.1 29.3l-380.8 459q-44.9 50.8 -115.3 52.7Q85.9 921.9 43 880.9 2 837.9 0 775.4 2 705.1 52.7 660.2z"/></svg>