<svg height="1000" width="1000" xmlns="http://www.w3.org/2000/svg"><path d="M68.4 486.3h87.9H68.4h87.9q29.2 -1.9 31.2 -31.2V64.5q0 -33.2 23.4 -54.7 21.5 -23.5 54.7 -23.5t54.7 23.5q23.5 21.5 23.5 54.7v257.8q3.9 35.1 39 39 35.2 -3.9 39.1 -39V2q0 -33.3 23.4 -54.7 21.5 -23.5 54.7 -23.5t54.7 23.5q23.4 21.4 23.4 54.7v320.3q3.9 35.1 39.1 39 35.1 -3.9 39.1 -39V64.5q0 -33.2 23.4 -54.7 21.5 -23.5 54.7 -23.5t54.7 23.5q23.4 21.5 23.4 54.7v390.6q2 29.3 31.3 31.2h87.8q29.3 0 48.9 19.6t19.5 48.8q0 25.4 -17.6 44.9L814.5 785.2Q752 851.6 671.9 886.7 589.8 923.8 500 923.8T328.1 886.7Q248 851.6 185.5 785.2L17.6 599.6Q0 580.1 0 554.7q0 -29.3 19.5 -48.8t48.9 -19.6zm431.6 0q-58.6 3.9 -107.4 39.1 -46.9 35.1 -70.3 58.6 -9.8 11.7 -9.8 27.3t9.8 27.4q23.4 23.4 70.3 58.6 48.8 35.1 107.4 39 58.6 -3.9 107.4 -39 46.9 -35.2 70.3 -58.6 9.8 -11.7 9.8 -27.4T677.7 584q-23.4 -23.5 -70.3 -58.6Q558.6 490.2 500 486.3zm0 62.5q27.3 0 44.9 17.6 17.6 17.6 17.6 44.9t-17.6 45T500 673.8t-44.9 -17.5 -17.6 -45 17.6 -44.9T500 548.8z"/></svg>