<svg height="1000" width="1000" xmlns="http://www.w3.org/2000/svg"><path d="M937.5 111.3q27.3 0 44.9 17.6 17.6 17.6 17.6 44.9t-17.6 45 -44.9 17.5H531.3v-125h406.2zM625 486.3q27.3 0 44.9 17.6 17.6 17.6 17.6 44.9t-17.6 45T625 611.3H500q-27.3 0 -44.9 -17.5t-17.6 -45 17.6 -44.9T500 486.3h125zm125 -125q0 27.4 -17.6 45 -17.6 17.5 -44.9 17.5h-93.7q-27.4 0 -45 -17.5t-17.5 -45 17.5 -44.9 45 -17.6h93.7q27.3 0 44.9 17.6t17.6 44.9zM562.5 673.8q27.3 0 44.9 17.6Q625 709 625 736.3t-17.6 45 -44.9 17.5h-125q-27.3 0 -44.9 -17.5t-17.6 -45 17.6 -44.9 44.9 -17.6h125zM390.6 486.3h2 -2 2Q375 513.7 375 548.8q0 39.1 21.5 70.3 -37.1 11.8 -60.6 45 -23.4 31.2 -23.4 72.2 0 35.2 17.6 62.5h-17.6Q179.7 794.9 91.8 707T0 486.3V365.2Q2 236.3 91.8 144.5L115.2 123Q187.5 50.8 291 48.8h52.8q52.7 2 87.8 37.1t37.2 87.9v171.9q0 33.2 -23.5 54.7 -21.5 23.4 -54.7 23.4t-54.7 -23.4q-23.4 -21.5 -23.4 -54.7V236.3q-2 -29.3 -31.2 -31.2Q252 207 250 236.3v109.4q2 60.6 41 99.6t99.6 41z"/></svg>