<svg height="1000" width="875" xmlns="http://www.w3.org/2000/svg"><path d="M281.3 -76.2q-39.1 2 -66.5 27.4 -25.3 27.3 -27.3 66.4v250q-2 29.3 -31.2 31.2Q127 296.9 125 267.6v-52.8l-17.6 15.7q-42.9 37.1 -44.9 95.7v74.2q2 115.2 89.8 191.4l97.7 82v187.5q0 27.4 17.6 45t44.9 17.5H625q27.3 0 44.9 -17.5t17.6 -45v-205Q757.8 627 800.8 564.5q41 -60.6 43 -140.7V205.1q-2 -39.1 -27.4 -66.4Q789.1 113.3 750 111.3q-37.1 0 -62.5 23.5Q683.6 97.7 658.2 74.2 630.9 48.8 593.8 48.8t-62.5 23.5Q527.3 35.2 502 11.7q-27.4 -25.4 -64.5 -25.4T375 9.8q-3.9 -37.1 -29.3 -60.6 -27.3 -25.4 -64.4 -25.4z"/></svg>