<svg height="1000" width="1125" xmlns="http://www.w3.org/2000/svg"><path d="M812.5 48.8q27.3 0 44.9 -17.5Q875 13.7 875 -13.7t-17.6 -44.9 -44.9 -17.6 -44.9 17.6T750 -13.7t17.6 45 44.9 17.5zm187.5 250q27.3 0 44.9 -17.5 17.6 -17.6 17.6 -45t-17.6 -44.9T1000 173.8t-44.9 17.6 -17.6 44.9 17.6 45 44.9 17.5zM312.5 830.1q-2 -52.8 -46.9 -82.1 -46.8 -23.4 -93.7 0Q127 777.3 125 830.1q2 52.7 46.9 82 46.9 23.4 93.7 0 44.9 -29.3 46.9 -82zM62.5 236.3v142.6V236.3v142.6q0 76.2 33.2 144.5 33.2 66.4 91.8 115.3v-27.4q0 -107.4 50.8 -197.2T378.9 265.6l117.2 -72.2q25.4 -15.7 52.7 -19.6L638.7 19.5q17.6 -39 -15.7 -64.4 -41 -17.6 -64.4 17.6L406.3 236.3q-13.7 17.6 -33.3 7.8 -17.5 -11.7 -7.8 -31.2L486.3 3.9q17.6 -41 -17.5 -64.4Q429.7 -78.1 404.3 -43L271.5 185.5l-84 146.5v-95.7q0 -27.3 -17.6 -44.9T125 173.8t-44.9 17.6 -17.6 44.9zM648.4 97.7l-46.8 82 46.8 -82 -46.8 82q41 13.7 66.4 52.7l1.9 2q2 3.9 3.9 5.8l56.7 -97.6Q748 103.5 712.9 80.1 673.8 60.5 648.4 95.7v2zm91.8 123l-52.7 91.8 52.7 -91.8 -52.7 91.8q-2 17.6 -9.8 33.2h97.7l44.9 -78.1q17.6 -39.1 -17.6 -64.5 -39 -17.6 -62.5 17.6zm-125 44.9q-13.6 -21.5 -39 -27.3 -23.5 -5.9 -46.9 7.8l-117.2 72.3Q335.9 367.2 293 445.3q-43 76.2 -43 166V627q0 25.3 3.9 50.7 52.7 13.7 85.9 54.7t35.2 97.7q0 17.6 -3.9 35.1 76.2 56.7 175.8 58.6h343.7q43 -3.9 46.9 -46.8 -3.9 -43 -46.9 -46.9H710.9q-21.4 -2 -23.4 -23.5 2 -21.4 23.4 -23.4h242.2q43 -3.9 46.9 -46.9 -3.9 -42.9 -46.9 -46.8H710.9q-21.4 -2 -23.4 -23.5 2 -21.5 23.4 -23.4h304.7q43 -3.9 46.9 -46.9 -3.9 -43 -46.9 -46.9H710.9q-21.4 -1.9 -23.4 -23.4 2 -21.5 23.4 -23.4h242.2q43 -4 46.9 -46.9 -3.9 -43 -46.9 -46.9H505.9l89.8 -56.6q21.5 -13.7 27.3 -39.1 5.9 -23.4 -7.8 -46.9z"/></svg>