<svg height="1000" width="1000" xmlns="http://www.w3.org/2000/svg"><path d="M656.3 -44.9v125 -125 125q-2 29.3 -31.3 31.2 -29.3 -1.9 -31.2 -31.2v-125q1.9 -29.3 31.2 -31.3 29.3 2 31.3 31.3zm-193.4 13.6l62.5 93.8 -62.5 -93.8 62.5 93.8q13.7 25.4 -7.8 43 -25.4 13.6 -43 -7.8L412.1 3.9q-13.7 -25.4 7.8 -43 25.4 -13.6 43 7.8zM263.7 156.3q33.2 -27.4 66.4 0l242.2 242.1q15.6 13.7 33.2 5.9T625 375v-76.2q0 -27.3 17.6 -44.9t44.9 -17.6 44.9 17.6 17.6 44.9v300.8q0 84 -41 156.3 -41 70.3 -113.3 115.2 -95.7 56.6 -201.2 43T209 824.2L13.7 628.9q-27.4 -33.2 0 -66.4 33.2 -27.3 66.4 0L183.6 666q21.5 17.6 43 0 17.5 -21.5 0 -43L44.9 441.4q-27.3 -33.2 0 -66.4 33.2 -27.3 66.4 0L293 556.6q21.5 17.6 42.9 0 17.6 -21.4 0 -42.9L107.4 285.2q-27.3 -33.2 0 -66.4 33.2 -27.4 66.4 0l228.5 228.5q21.5 17.5 43 0 17.6 -21.5 0 -43L263.7 222.7q-27.4 -33.2 0 -66.4zm582 714.8q-72.3 43 -152.3 44.9 72.2 -58.6 111.3 -140.6t39.1 -175.8V408.2Q871.1 406.3 875 377v-78.2q0 -27.3 17.6 -44.9t44.9 -17.6 44.9 17.6 17.6 44.9v300.8q0 84 -41 156.3 -41 70.3 -113.3 115.2zM830.1 -39.1q21.5 17.6 7.8 43l-62.5 93.8q-17.6 21.4 -43 7.8 -21.5 -17.6 -7.8 -43l62.5 -93.8q17.6 -21.4 43 -7.8z"/></svg>