<svg height="1000" width="1250" xmlns="http://www.w3.org/2000/svg"><path d="M187.5 -13.7q0 -27.3 -17.6 -44.9Q152.3 -76.2 125 -76.2t-44.9 17.6 -17.6 44.9v355.5q0 43 27.3 76.2l168 193.3H250q-43 3.9 -46.9 46.9 3.9 43 46.9 46.9h750q43 -3.9 46.9 -46.9 -3.9 -43 -46.9 -46.9h-7.8l168 -193.3q27.3 -33.2 27.3 -76.2V-13.7q0 -27.3 -17.6 -44.9T1125 -76.2t-44.9 17.6 -17.6 44.9V207L927.7 386.7q-21.4 23.5 -46.8 9.8Q849.6 375 869.1 343.8l54.7 -68.4q15.7 -21.5 13.7 -44.9 -2 -25.4 -21.5 -41 -21.5 -17.6 -44.9 -15.7 -25.4 2 -43 21.5l-91.8 101.6q-48.8 56.6 -48.8 130.8v183.6h-125V427.7q0 -74.2 -48.8 -130.8L421.9 195.3q-17.6 -19.5 -43 -21.5 -23.4 -1.9 -44.9 15.7 -19.5 15.6 -21.5 41 -2 23.4 13.7 44.9l54.7 68.4q19.5 31.2 -9.8 52.7 -27.3 13.7 -48.8 -9.8L187.5 207V-13.7zm125 875v62.5 -62.5 62.5h250v-62.5h125v62.5h250v-62.5h62.5q43 -3.9 46.9 -46.8 -3.9 -43 -46.9 -46.9H250q-43 3.9 -46.9 46.9 3.9 42.9 46.9 46.8h62.5z"/></svg>