<svg height="1000" width="875" xmlns="http://www.w3.org/2000/svg"><path d="M375 -76.2q27.3 0 44.9 17.6 17.6 17.6 17.6 44.9v218.8h-125V-13.7q0 -27.3 17.6 -44.9T375 -76.2zm-250 125q0 -27.3 17.6 -44.9 17.6 -17.6 44.9 -17.6t44.9 17.6T250 48.8v156.3H125V48.8zm375 0q0 -27.3 17.6 -44.9 17.6 -17.6 44.9 -17.6t44.9 17.6T625 48.8v187.5q0 27.4 -17.6 45t-44.9 17.5 -44.9 -17.5 -17.6 -45V48.8zm187.5 125q0 -27.3 17.6 -44.9 17.6 -17.6 44.9 -17.6t44.9 17.6 17.6 44.9v125q0 27.4 -17.6 45T750 361.3t-44.9 -17.5 -17.6 -45v-125zM500 345.7v-1.9 1.9 -1.9q27.3 17.5 62.5 17.5 39.1 0 70.3 -21.5 11.7 37.2 44.9 60.6 31.3 23.4 72.3 23.4 35.2 0 62.5 -17.5v17.5q0 78.2 -33.2 142.6t-91.8 107.4v187.5q0 27.4 -17.6 45T625 923.8H312.5q-27.3 0 -44.9 -17.5t-17.6 -45V709q-50.8 -23.5 -91.8 -64.5L136.7 623Q64.5 548.8 62.5 445.3v-52.7q2 -52.8 37.1 -87.9t87.9 -37.1h171.9q33.2 0 54.7 23.4 23.4 21.5 23.4 54.7t-23.4 54.7q-21.5 23.4 -54.7 23.4H250q-29.3 2 -31.2 31.3 1.9 29.3 31.2 31.2h109.4q60.5 -1.9 99.6 -41t41 -99.6z"/></svg>