<svg height="1000" width="1250" xmlns="http://www.w3.org/2000/svg"><path d="M76.2 -66.4Q39.1 -89.8 9.8 -58.6q-23.5 37.1 7.8 66.4l1156.2 906.3q37.1 23.4 66.4 -7.8 23.5 -37.2 -7.8 -66.5l-263.6 -207q-4 -33.2 -29.3 -58.6L675.8 334l-44.9 35.1 -50.8 -41L730.5 210.9q23.4 -13.6 44.9 5.9 15.6 25.4 -5.9 44.9l-41 31.3 345.7 318.3h82.1q39 -1.9 66.4 -27.3 25.3 -27.4 27.3 -66.4v-250q-2 -39.1 -27.3 -66.4 -27.4 -25.4 -66.4 -27.4H998l-7.8 -3.9L849.6 78.1Q802.7 48.8 748 48.8q-64.4 0 -117.1 41L457 232.4l-50.7 -41L566.4 62.5Q531.3 48.8 494.1 48.8q-56.6 0 -103.5 31.3L322.3 127 76.2 -66.4zM0 267.6v250 -250 250q2 39 27.3 66.4 27.4 25.4 66.5 27.3h210.9l179.7 162.1q29.3 27.4 66.4 25.4t64.4 -31.2q17.6 -17.6 23.5 -39.1l33.2 29.3q29.3 27.4 66.4 25.4T802.7 752q2 -2 5.9 -4L80.1 175.8q-35.2 3.9 -56.7 29.3Q0 230.5 0 267.6z"/></svg>