<svg height="1000" width="750" xmlns="http://www.w3.org/2000/svg"><path d="M62.5 -13.7q0 -27.3 17.6 -44.9Q97.7 -76.2 125 -76.2t44.9 17.6 17.6 44.9v406.3h-125V-13.7zm375 312.5q0 -27.3 17.6 -44.9 17.6 -17.6 44.9 -17.6t44.9 17.6 17.6 44.9v125q0 27.4 -17.6 45T500 486.3t-44.9 -17.5 -17.6 -45v-125zm-125 -125q27.3 0 44.9 17.6Q375 209 375 236.3v93.8q0 27.3 -17.6 44.9t-44.9 17.6T267.6 375 250 330.1v-93.8q0 -27.3 17.6 -44.9t44.9 -17.6zM625 361.3q0 -27.3 17.6 -44.9 17.6 -17.6 44.9 -17.6t44.9 17.6 17.6 44.9v125q0 27.4 -17.6 45t-44.9 17.5 -44.9 -17.5 -17.6 -45v-125zM437.5 533.2v-1.9 1.9 -1.9q27.3 17.5 62.5 17.5 39.1 0 70.3 -21.5 11.7 37.2 44.9 60.6 31.3 23.4 72.3 23.4 35.2 0 62.5 -17.5v17.5Q746.1 744.1 658.2 832t-220.7 91.8H316.4Q187.5 921.9 95.7 832L74.2 810.5Q2 736.3 0 632.8v-52.7q2 -52.8 37.1 -87.9T125 455.1h171.9q33.2 0 54.7 23.4Q375 500 375 533.2t-23.4 54.7q-21.5 23.4 -54.7 23.4H187.5q-29.3 2 -31.2 31.3 1.9 29.3 31.2 31.2h109.4q60.5 -1.9 99.6 -41t41 -99.6z"/></svg>