<svg height="1000" width="1250" xmlns="http://www.w3.org/2000/svg"><path d="M625 -76.2q44.9 2 68.4 39.1 19.5 39.1 0 78.1Q669.9 78.1 625 80.1 580.1 78.1 556.6 41q-19.5 -39 0 -78.1 23.5 -37.1 68.4 -39.1zm87.9 320.3L734.4 418 712.9 244.1 734.4 418q0 42.9 -41 52.7 -43 0 -52.8 -41l-7.8 -68.4h-15.6l-7.8 68.4q-9.8 43 -52.8 41 -42.9 -9.8 -41 -52.7l21.5 -173.9L500 277.3q-37.1 25.4 -66.4 -5.8 -25.4 -35.2 5.9 -66.4l52.7 -44.9Q550.8 111.3 625 111.3t132.8 48.9l54.7 44.9q29.3 31.2 3.9 66.4 -29.3 31.2 -64.4 5.8l-39.1 -33.2zM78.1 48.8q33.2 0 54.7 23.5 23.5 21.5 23.5 54.7v312.5q0 52.7 37.1 89.8l99.6 99.6q27.3 23.4 60.5 5.9Q373 621.1 375 599.6t-15.6 -39.1l-29.3 -29.2 -62.5 -62.5Q250 449.2 250 423.8t17.6 -44.9q19.5 -17.6 44.9 -17.6t44.9 17.6l62.5 62.5 29.3 31.3 48.8 48.8q62.5 64.4 64.5 154.3v154.3q-2 39 -27.3 66.4 -27.4 25.4 -66.4 27.3H337.9q-50.8 0 -87.9 -37.1L54.7 691.4Q2 636.7 0 560.5V127Q0 93.8 23.4 72.3 44.9 48.8 78.1 48.8zm1093.8 0q33.2 0 54.7 23.5Q1250 93.8 1250 127v433.5q-2 76.2 -54.7 130.9L1000 886.7q-37.1 37.1 -87.9 37.1H781.3q-39.1 -1.9 -66.5 -27.3 -25.3 -27.4 -27.3 -66.4V675.8q2 -89.9 64.5 -154.3l48.8 -48.8 29.3 -31.3 62.5 -62.5q19.5 -17.6 44.9 -17.6t44.9 17.6q17.6 19.5 17.6 44.9t-17.6 45l-62.5 62.5 -31.2 29.2Q873 578.1 875 599.6t21.5 35.2q33.2 17.5 60.5 -5.9l99.6 -99.6q37.2 -37.1 37.2 -89.8V127q0 -33.2 23.4 -54.7 21.5 -23.5 54.7 -23.5z"/></svg>