<svg height="1000" width="1000" xmlns="http://www.w3.org/2000/svg"><path d="M62.5 111.3q-27.3 0 -44.9 17.6Q0 146.5 0 173.8t17.6 45 44.9 17.5h406.3v-125H62.5zm312.5 375q-27.3 0 -44.9 17.6 -17.6 17.6 -17.6 44.9t17.6 45 44.9 17.5h125q27.3 0 44.9 -17.5t17.6 -45 -17.6 -44.9T500 486.3H375zm-125 -125q0 27.4 17.6 45 17.6 17.5 44.9 17.5h93.8q27.3 0 44.9 -17.5t17.6 -45 -17.6 -44.9 -44.9 -17.6h-93.8q-27.3 0 -44.9 17.6T250 361.3zm187.5 312.5q-27.3 0 -44.9 17.6Q375 709 375 736.3t17.6 45 44.9 17.5h125q27.3 0 44.9 -17.5t17.6 -45 -17.6 -44.9 -44.9 -17.6h-125zM609.4 486.3h-2 2 -2q17.6 27.4 17.6 62.5 0 39.1 -21.5 70.3 37.1 11.8 60.6 45 23.4 31.2 23.4 72.2 0 35.2 -17.6 62.5h17.6Q820.3 794.9 908.2 707T1000 486.3V365.2Q998 236.3 908.2 144.5L886.7 123Q812.5 50.8 709 48.8h-52.7q-52.8 2 -87.9 37.1t-37.1 87.9v171.9q0 33.2 23.4 54.7 21.5 23.4 54.7 23.4t54.7 -23.4q23.4 -21.5 23.4 -54.7V236.3q2 -29.3 31.3 -31.2Q748 207 750 236.3v109.4q-2 60.6 -41 99.6t-99.6 41z"/></svg>