<svg height="1000" width="1250" xmlns="http://www.w3.org/2000/svg"><path d="M625 -76.2q27.3 0 44.9 17.6 17.6 17.6 17.6 44.9v406.3q2 29.3 31.3 31.2Q748 421.9 750 392.6V48.8q0 -27.3 17.6 -44.9t44.9 -17.6 44.9 17.6T875 48.8v343.8q2 29.3 31.3 31.2 29.2 -1.9 31.2 -31.2V173.8q0 -27.3 17.6 -44.9t44.9 -17.6 44.9 17.6 17.6 44.9v380.9q-37.1 15.6 -48.8 54.7l-17.6 60.5 -60.6 17.6Q878.9 707 875 767.6q3.9 60.5 60.5 80.1 -91.7 74.2 -216.7 76.1h-37.2Q500 921.9 369.1 798.8l-220.7 -209Q125 566.4 125 535.2t21.5 -56.7q23.4 -23.4 54.7 -23.4t56.6 21.5L375 589.8v-541q0 -27.3 17.6 -44.9t44.9 -17.6 44.9 17.6T500 48.8v343.8q2 29.3 31.3 31.2 29.2 -1.9 31.2 -31.2V-13.7q0 -27.3 17.6 -44.9T625 -76.2zm-13.7 638.7q-3.9 -13.7 -17.5 -13.7t-17.6 13.7l-13.7 48.8L513.7 625Q500 628.9 500 642.6t13.7 17.6l48.8 13.6 13.7 48.9q3.9 13.6 17.6 13.6t17.5 -13.6L625 673.8l48.8 -13.6q13.7 -3.9 13.7 -17.6T673.8 625L625 611.3l-13.7 -48.8zM203.1 158.2l93.8 27.3 -93.8 -27.3 93.8 27.3q15.6 4 15.6 19.6t-15.6 19.5L203.1 252l-27.3 93.7q-3.9 15.6 -19.5 15.6t-19.6 -15.6L109.4 252 15.6 224.6Q0 220.7 0 205.1t15.6 -19.6l93.8 -27.3 27.3 -93.7q3.9 -15.7 19.6 -15.7t19.5 15.7l27.3 93.7zm937.5 562.5l93.8 27.3 -93.8 -27.3 93.8 27.3q15.6 4 15.6 19.6t-15.6 19.5l-93.8 27.4 -27.3 93.7q-3.9 15.6 -19.5 15.6t-19.6 -15.6l-27.3 -93.7 -93.8 -27.4q-15.6 -3.9 -15.6 -19.5T953.1 748l93.8 -27.3 27.3 -93.7q3.9 -15.7 19.6 -15.7t19.5 15.7l27.3 93.7z"/></svg>