<svg height="1000" width="1125" xmlns="http://www.w3.org/2000/svg"><path d="M609.4 -29.3v21.5 -21.5 21.5q19.5 1.9 35.1 7.8 41 13.7 33.2 56.6 -13.6 41.1 -56.6 33.2 -33.2 -9.7 -58.6 -9.7 -23.4 0 -39.1 9.7 -5.8 4 -5.8 5.9 -2 0 -2 3.9v2q0 1.9 5.9 5.8 17.6 7.8 54.7 19.6h1.9q35.2 7.8 72.3 29.3 46.9 25.3 52.7 87.8 -3.9 66.4 -52.7 95.7 -19.5 11.8 -41 15.7V377q-3.9 42.9 -46.9 46.8 -43 -3.9 -46.9 -46.8v-21.5q-27.3 -7.8 -46.8 -15.7h-4q-1.9 -1.9 -3.9 -1.9 -3.9 -2 -7.8 -2 -39 -17.5 -29.3 -60.5 17.6 -39.1 58.6 -29.3 3.9 1.9 7.8 1.9l7.8 4q37.2 13.6 66.5 15.6 23.4 0 37.1 -7.8 5.8 -3.9 5.8 -5.9 2 -1.9 2 -7.8 1.9 -2 -7.8 -9.8 -15.7 -9.7 -52.8 -19.5l-3.9 -2Q509.8 207 472.7 187.5q-45 -23.4 -50.8 -85.9 5.8 -68.4 54.7 -93.8 17.5 -9.8 39 -15.6v-21.5q3.9 -43 46.9 -46.9 43 3.9 46.9 46.9zm500 609.4q19.5 27.3 15.6 58.6 -5.9 31.2 -31.2 50.8L845.7 873q-70.3 50.8 -158.2 50.8h-625q-27.3 0 -44.9 -17.5T0 861.3v-125Q0 709 17.6 691.4t44.9 -17.6h72.3l87.9 -70.3Q291 548.8 378.9 548.8h308.6q27.3 0 44.9 17.6t17.6 44.9 -17.6 45 -44.9 17.5H531.3q-29.3 2 -31.3 31.3 2 29.3 31.3 31.2h236.3L1000 564.5q27.3 -19.6 58.6 -15.7 31.2 5.9 50.8 31.3zm-730.5 93.7H377h1.9z"/></svg>