<svg height="1000" width="1250" xmlns="http://www.w3.org/2000/svg"><path d="M1062.5 408.2v5.9 -5.9 5.9l136.7 -134.8q31.3 -35.2 31.3 -78.1T1199.2 123L1046.9 -29.3q-35.2 -31.2 -78.1 -31.2t-78.2 31.2l-78.1 80.1q-7.8 -2 -15.6 -2H578.1q-54.7 2 -93.7 37.1 -39.1 33.2 -46.9 87.9v234.4q0 33.2 23.4 54.7 21.5 23.4 54.7 23.4t54.7 -23.4q23.5 -21.5 23.5 -54.7V236.3h312.5q66.4 2 111.3 45 42.9 44.9 44.9 111.3v15.6zM656.3 298.8v109.4V298.8v109.4q-2 60.6 -41.1 99.6t-99.6 41q-60.5 -1.9 -99.6 -41t-41 -99.6V175.8q-52.7 9.7 -93.7 44.9 -39.1 35.2 -54.7 89.8l-31.3 111.4L50.8 564.5q-31.3 35.1 -31.3 78.1t31.3 78.1L203.1 873q35.2 31.3 78.2 31.3T359.4 873l72.2 -74.2H750q39.1 0 66.4 -27.3 25.4 -27.4 27.4 -66.4 0 -15.6 -5.9 -31.3h5.9q39 0 66.4 -27.3 25.3 -27.4 27.3 -66.4 0 -39.1 -25.4 -64.5 37.1 -7.8 62.5 -37.1t25.4 -70.3q-2 -46.9 -31.2 -78.1 -31.3 -29.3 -78.2 -31.3H656.3z"/></svg>