<svg height="1000" width="1250" xmlns="http://www.w3.org/2000/svg"><path d="M685.5 -66.4q9.8 -5.9 19.6 -7.8 13.7 -3.9 27.3 0 23.5 5.8 39.1 25.4l234.4 351.5q25.4 39.1 25.4 87.9v142.6q1.9 21.5 21.4 29.3l154.3 52.7q41 15.7 43 58.6v187.5q0 31.3 -23.4 48.9 -25.4 19.5 -54.7 11.7L841.8 834Q757.8 810.5 709 744.1 658.2 679.7 656.3 591.8V361.3q0 -27.3 17.5 -44.9t45 -17.6 44.9 17.6 17.6 44.9v156.3q1.9 29.3 31.2 31.2 29.3 -1.9 31.3 -31.2v-166q0 -21.5 -9.8 -39.1L664.1 17.6Q660.2 9.8 658.2 0q-3.9 -13.7 0 -27.3 5.9 -25.4 27.3 -39.1zm-121 0q21.4 13.7 27.3 39.1 3.9 13.6 0 27.3 -2 9.8 -5.9 17.6L416 312.5q-9.7 19.5 -9.7 39.1v166q1.9 29.3 31.2 31.2 29.3 -1.9 31.3 -31.2V361.3q0 -27.3 17.5 -44.9t45 -17.6 44.9 17.6 17.6 44.9v230.5q-2 87.9 -50.8 152.3Q492.2 810.5 408.2 834L78.1 921.9q-29.3 7.8 -52.7 -11.7Q0 892.6 0 861.3V673.8q2 -42.9 43 -58.6l154.3 -52.7q19.5 -7.8 21.5 -29.3V390.6q0 -48.8 25.3 -87.9L478.5 -46.9q15.6 -21.5 39.1 -27.3 13.7 -3.9 27.3 0 9.8 1.9 19.6 7.8z"/></svg>