<svg height="1000" width="1125" xmlns="http://www.w3.org/2000/svg"><path d="M320.3 191.4q-43 -46.9 -43 -105.5 0 -60.5 43 -105.4 44.9 -43 103.5 -43t103.5 43l35.2 35.1 35.2 -35.1q44.9 -43 103.5 -43t103.5 43q43 44.9 43 105.4 0 58.6 -43 105.5L607.4 392.6q-19.5 19.5 -44.9 19.5t-43 -19.5L320.3 191.4zm789.1 388.7q19.5 27.3 15.6 58.6 -5.9 31.2 -31.2 50.8L845.7 873q-70.3 50.8 -158.2 50.8h-625q-27.3 0 -44.9 -17.5T0 861.3v-125Q0 709 17.6 691.4t44.9 -17.6h72.3l87.9 -70.3Q291 548.8 378.9 548.8h308.6q27.3 0 44.9 17.6t17.6 44.9 -17.6 45 -44.9 17.5H531.3q-29.3 2 -31.3 31.3 2 29.3 31.3 31.2h236.3L1000 564.5q27.3 -19.6 58.6 -15.7 31.2 5.9 50.8 31.3zm-730.5 93.7H377h1.9z"/></svg>