<svg height="1000" width="1250" xmlns="http://www.w3.org/2000/svg"><path d="M630.9 89.8L443.4 244.1 630.9 89.8 443.4 244.1Q418 263.7 414.1 293q-2 29.3 15.6 54.7 19.5 25.3 50.8 29.3 29.3 5.8 56.6 -13.7L730.5 210.9q25.4 -15.6 44.9 5.9 15.6 23.4 -5.9 44.9l-41 31.3 345.7 318.3h82.1q39 -1.9 66.4 -27.3 25.3 -27.4 27.3 -66.4v-250q-2 -39.1 -27.3 -66.4 -27.4 -25.4 -66.4 -27.4H998l-7.8 -3.9L849.6 78.1Q802.7 48.8 748 48.8q-64.4 0 -117.1 41zM675.8 334l-101.6 78.1L675.8 334l-101.6 78.1q-46.9 35.2 -103.5 27.4Q416 431.6 378.9 384.8q-33.2 -46.9 -25.4 -99.6 5.9 -52.8 48.8 -89.9L566.4 64.5Q531.3 48.8 494.1 48.8q-56.6 0 -103.5 31.3L250 173.8H93.8q-39.1 2 -66.5 27.4Q2 228.5 0 267.6v250q2 39 27.3 66.4 27.4 25.4 66.5 27.3h210.9l179.7 162.1q29.3 27.4 66.4 25.4t64.4 -31.2q17.6 -17.6 23.5 -39.1l33.2 29.3q29.3 27.4 66.4 25.4T802.7 752q13.7 -13.7 19.6 -31.3 29.3 19.5 62.5 15.6 35.1 -3.9 58.6 -31.2 27.3 -29.3 25.4 -66.4t-31.3 -64.5L675.8 334z"/></svg>