<svg height="1000" width="1000" xmlns="http://www.w3.org/2000/svg"><path d="M78.1 330.1q-33.2 0 -54.7 23.4Q0 375 0 408.2t23.4 54.7q21.5 23.4 54.7 23.4h351.6q-23.4 25.4 -23.4 62.5t25.3 64.5q23.5 25.4 60.6 29.3 -23.4 25.4 -23.4 62.5 1.9 39 27.3 66.4 27.3 25.4 66.4 27.3H750q105.5 -1.9 177.7 -72.2Q998 654.3 1000 548.8V328.1q-2 -123 -85.9 -209Q843.8 50.8 746.1 48.8h-89.8q-66.5 3.9 -89.9 64.5l146.5 46.9q25.4 11.7 19.5 39 -9.7 25.4 -39 19.6L562.5 177.7 164.1 52.7Q132.8 43 105.5 58.6 76.2 72.3 66.4 103.5t3.9 60.6q15.6 27.3 46.9 37.1l410.1 128.9H78.1z"/></svg>