<svg height="1000" width="1250" xmlns="http://www.w3.org/2000/svg"><path d="M468.8 -13.7q0 -27.3 17.5 -44.9 17.6 -17.6 45 -17.6t44.9 17.6 17.6 44.9 -17.6 45 -44.9 17.5 -45 -17.5 -17.5 -45zM375 17.6q27.3 0 44.9 17.6 17.6 17.5 17.6 44.9T419.9 125 375 142.6 330.1 125 312.5 80.1t17.6 -44.9T375 17.6zm-62.5 156.2q27.3 0 44.9 17.6Q375 209 375 236.3h15.6q43 3.9 46.9 46.9v41q84 37.1 134.8 113.3T625 611.3Q621.1 744.1 533.2 832t-220.7 91.8Q179.7 919.9 91.8 832T0 611.3Q2 513.7 52.7 437.5T189.5 324.2q-2 -3.9 -2 -9.7v-31.3q3.9 -43 46.9 -46.9H250q0 -27.3 17.6 -44.9t44.9 -17.6zm0 625q50.8 0 93.8 -25.4 42.9 -25.4 68.3 -68.3Q500 660.2 500 611.3t-25.4 -93.7q-25.4 -43 -68.3 -68.4t-93.8 -25.4 -93.7 25.4 -68.4 68.4Q125 562.5 125 611.3t25.4 93.8q25.4 42.9 68.4 68.3t93.7 25.4zm375 -187.5q0 -76.1 -27.3 -142.5 50.7 -99.7 154.3 -144.6 -2 -3.9 -2 -9.7v-31.3q3.9 -43 46.9 -46.9H875q0 -27.3 17.6 -44.9t44.9 -17.6 44.9 17.6 17.6 44.9h15.6q43 3.9 46.9 46.9v41q84 37.1 134.8 113.3t52.7 173.8q-3.9 132.8 -91.8 220.7t-220.7 91.8Q845.7 921.9 773.4 877 699.2 830.1 660.2 753.9q27.3 -66.4 27.3 -142.6zm437.5 0q0 -50.8 -25.4 -93.7 -25.4 -43 -68.3 -68.4 -45 -25.4 -93.8 -25.4t-93.7 25.4q-43 25.4 -68.4 68.4T750 611.3t25.4 93.8 68.4 68.3q44.9 25.4 93.7 25.4t93.8 -25.4q42.9 -25.4 68.3 -68.3t25.4 -93.8zM718.8 -76.2q27.3 0 44.9 17.6 17.6 17.6 17.6 44.9t-17.6 45 -44.9 17.5 -45 -17.5 -17.5 -45 17.5 -44.9 45 -17.6zM875 17.6q27.3 0 44.9 17.6 17.6 17.5 17.6 44.9T919.9 125 875 142.6 830.1 125 812.5 80.1t17.6 -44.9T875 17.6z"/></svg>