<svg height="1000" width="1250" xmlns="http://www.w3.org/2000/svg"><path d="M156.3 127q0 -33.2 -23.5 -54.7Q111.3 48.8 78.1 48.8T23.4 72.3Q0 93.8 0 127v433.5q2 76.2 54.7 130.9L250 886.7q37.1 37.1 87.9 37.1h130.9q39 -1.9 66.4 -27.3 25.3 -27.4 27.3 -66.4V675.8q-2 -89.9 -64.5 -154.3l-48.8 -48.8 -29.3 -31.3 -62.5 -62.5q-19.5 -17.6 -44.9 -17.6t-44.9 17.6Q250 398.4 250 423.8t17.6 45l62.5 62.5 31.2 29.2q15.7 17.6 13.7 39.1t-21.5 35.2q-33.2 17.5 -60.5 -5.9l-99.6 -99.6q-37.1 -37.1 -37.1 -89.8V127zm937.5 0v78.1V127v312.5q0 52.7 -37.2 89.8L957 628.9q-27.3 23.4 -60.5 5.9Q877 621.1 875 599.6t13.7 -39.1l31.2 -29.2 62.5 -62.5q17.6 -19.6 17.6 -45t-17.6 -44.9q-19.5 -17.6 -44.9 -17.6t-44.9 17.6l-62.5 62.5 -29.3 31.3L752 521.5q-62.5 64.4 -64.5 154.3v154.3q2 39 27.3 66.4 27.4 25.4 66.5 27.3h130.8q50.8 0 87.9 -37.1l195.3 -195.3Q1250 636.7 1250 560.5V127q0 -33.2 -23.4 -54.7 -21.5 -23.5 -54.7 -23.5t-54.7 23.5q-23.4 21.5 -23.4 54.7z"/></svg>