<svg height="1000" width="1125" xmlns="http://www.w3.org/2000/svg"><path d="M1062.5 236.3v142.6V236.3v142.6q0 76.2 -33.2 144.5 -33.2 66.4 -91.8 115.3v-27.4q0 -107.4 -50.8 -197.2T746.1 265.6L628.9 193.4q-25.4 -15.7 -52.7 -19.6L486.3 19.5q-17.5 -39 17.6 -64.4 39.1 -17.6 62.5 17.6l152.4 263.6q13.6 17.6 33.2 7.8 17.5 -11.7 7.8 -31.2L638.7 3.9q-17.6 -41 17.6 -64.4 39 -17.6 64.4 17.5l132.8 228.5 84 146.5v-95.7q0 -27.3 17.6 -44.9t44.9 -17.6 44.9 17.6 17.6 44.9zM476.6 97.7l48.8 82 -48.8 -82 48.8 82q-43 13.7 -68.4 52.7 -3.9 3.9 -5.8 7.8l-56.7 -97.6Q377 103.5 412.1 80.1q39.1 -19.6 64.5 15.6v2zm-89.9 123l50.8 91.8 -50.8 -91.8 50.8 91.8q2 17.6 9.8 33.2h-97.7l-44.9 -78.1q-17.6 -39.1 17.6 -64.5 39 -17.6 64.4 17.6zm123.1 44.9q13.6 -21.5 39 -27.3 23.5 -5.9 46.9 7.8l117.2 72.3q76.2 48.8 119.1 126.9 43 76.2 43 166V627q-3.9 126.9 -87.9 208.9 -82 84 -209 87.9H234.4q-43 -3.9 -46.9 -46.8 3.9 -43 46.9 -46.9h179.7q21.4 -2 23.4 -23.5 -2 -21.4 -23.4 -23.4H171.9q-43 -3.9 -46.9 -46.9 3.9 -42.9 46.9 -46.8h242.2q21.4 -2 23.4 -23.5 -2 -21.5 -23.4 -23.4H109.4q-43 -3.9 -46.9 -46.9 3.9 -43 46.9 -46.9h304.7q21.4 -1.9 23.4 -23.4 -2 -21.5 -23.4 -23.4H171.9q-43 -4 -46.9 -46.9 3.9 -43 46.9 -46.9H619.1l-89.8 -56.6Q507.8 337.9 502 312.5q-5.9 -23.4 7.8 -46.9z"/></svg>