<svg height="1000" width="1250" xmlns="http://www.w3.org/2000/svg"><path d="M306.6 13.7q9.8 -23.5 2 -46.9 -7.8 -23.4 -31.3 -37.1 -23.4 -9.8 -46.8 -2T193.4 -41L27.3 293Q0 345.7 0 406.3v17.5q2 105.5 72.3 177.8 72.2 70.3 177.7 72.2H406.3Q513.7 660.2 566.4 572.3q13.7 -23.5 5.9 -46.9Q566.4 500 543 486.3q-23.5 -11.7 -46.9 -5.8T459 509.8q-23.5 37.1 -68.4 39 -33.2 0 -54.7 -23.4 -23.4 -21.5 -23.4 -54.7T335.9 416q21.5 -23.4 54.7 -23.4 44.9 1.9 68.4 39 13.7 23.5 37.1 29.3t46.9 -5.8q23.4 -13.7 29.3 -39.1 7.8 -23.4 -5.9 -46.9Q527.3 302.7 453.1 277.3l158.2 -42.9q23.5 -7.8 37.1 -29.3 11.8 -21.5 5.9 -46.9Q646.5 132.8 625 119.1q-21.5 -11.7 -46.9 -5.8L380.9 168 541 35.2q19.5 -17.6 21.5 -43t-13.7 -44.9q-17.5 -21.5 -42.9 -23.5t-45 13.7l-199.2 166 44.9 -89.8zM943.4 834q-9.8 23.4 -2 46.9 7.8 23.4 31.3 37.1 23.4 9.7 46.8 1.9t37.1 -31.2l168 -334Q1250 502 1250 441.4v-17.6Q1248 318.4 1177.7 248 1105.5 175.8 1000 173.8H843.8Q736.3 187.5 683.6 275.4q-13.7 23.4 -5.9 46.9 5.9 25.4 29.3 39 23.5 11.7 46.9 5.9T791 337.9q23.5 -37.1 68.4 -39.1 33.2 2 54.7 23.5 23.4 21.5 23.4 54.7t-23.4 54.6q-21.5 23.5 -54.7 23.5Q814.5 453.1 791 416q-13.7 -21.5 -37.1 -29.3 -23.4 -5.8 -46.9 5.9 -23.4 13.7 -29.3 39 -7.8 23.5 5.9 46.9 39.1 66.4 113.3 91.8l-156.3 43q-27.3 7.8 -39 29.3t-5.9 48.8q7.8 25.4 29.3 37.1t46.9 5.9l197.2 -52.8L709 814.5q-19.5 15.6 -21.5 41t13.7 46.8q17.6 19.6 42.9 21.5t45 -13.6L988.3 744.1 943.4 834z"/></svg>