<svg height="1000" width="1125" xmlns="http://www.w3.org/2000/svg"><path d="M482.4 -29.3q-7.8 -25.4 -29.3 -39.1 -21.5 -11.7 -46.8 -5.8 -25.4 7.8 -39.1 29.3Q355.5 -23.4 361.3 2l103.5 386.7q4 31.2 -27.3 35.1Q418 421.9 410.2 404.3L326.2 125Q316.4 99.6 294.9 87.9T248 82q-25.3 9.8 -37.1 31.3t-5.8 46.9l123 404.3q3.9 11.7 -5.8 17.5t-19.6 -1.9L195.3 476.6q-25.4 -21.5 -56.6 -21.5T84 478.5q-21.5 25.4 -21.5 56.7t23.4 54.6l220.7 209q130.9 123.1 312.5 125h37.2q87.8 -5.8 152.3 -58.6Q875 812.5 900.4 728.5l160.1 -537.1q5.9 -25.4 -5.8 -46.9t-37.1 -31.2q-25.4 -5.9 -46.9 5.8 -23.4 11.8 -31.2 37.2l-72.3 250q-5.9 17.5 -23.4 17.5 -27.4 -3.9 -25.4 -29.3l70.3 -332q5.8 -27.3 -7.8 -46.9Q867.2 -5.9 841.8 -11.7q-27.3 -5.9 -46.9 7.8Q773.4 9.8 767.6 35.2l-74.2 347.6q-9.8 39.1 -50.8 41 -37.1 -1.9 -48.8 -37.1l-111.4 -416z"/></svg>