<svg height="1000" width="1250" xmlns="http://www.w3.org/2000/svg"><path d="M76.2 -66.4Q39.1 -89.8 9.8 -58.6q-23.5 37.1 7.8 66.4l1156.2 906.3q37.1 23.4 66.4 -7.8 23.5 -37.2 -7.8 -66.5l-263.6 -207q-4 -33.2 -29.3 -58.6L675.8 334l-44.9 35.1 -50.8 -41L730.5 210.9q23.4 -13.6 44.9 5.9 15.6 25.4 -5.9 44.9l-41 31.3L1000 543V173.8h-2l-7.8 -3.9L849.6 78.1Q802.7 48.8 748 48.8q-64.4 0 -117.1 41L457 232.4l-50.7 -41L566.4 62.5Q531.3 48.8 494.1 48.8q-56.6 0 -103.5 31.3L322.3 127 76.2 -66.4zm111.3 326.2l-107.4 -86 107.4 86 -107.4 -86H0v437.5q0 27.4 17.6 45t44.9 17.5H125q27.3 0 44.9 -17.5t17.6 -45V259.8zM808.6 748L250 308.6 808.6 748 250 308.6v302.7h54.7l179.7 162.1q29.3 27.4 66.4 25.4t64.4 -31.2q17.6 -17.6 23.5 -39.1l33.2 29.3q29.3 27.4 66.4 25.4T802.7 752q2 -2 5.9 -4zM93.8 548.8q29.2 2 31.2 31.3 -2 29.3 -31.2 31.2Q64.5 609.4 62.5 580.1q2 -29.3 31.3 -31.3zm968.7 -375v437.5V173.8v437.5q0 27.4 17.6 45t44.9 17.5h62.5q27.3 0 44.9 -17.5t17.6 -45V173.8h-187.5zm62.5 406.3q2 -29.3 31.3 -31.3 29.2 2 31.2 31.3 -2 29.3 -31.2 31.2Q1127 609.4 1125 580.1z"/></svg>