<svg height="1000" width="1250" xmlns="http://www.w3.org/2000/svg"><path d="M625 -76.2q68.4 0 125 33.2 56.6 33.2 91.8 91.8 33.2 58.6 33.2 125t-33.2 125q-35.2 58.6 -91.8 91.8t-125 33.2T500 390.6t-91.8 -91.8Q375 240.2 375 173.8t33.2 -125Q443.4 -9.8 500 -43t125 -33.2zM78.1 48.8q33.2 0 54.7 23.5 23.5 21.5 23.5 54.7v312.5q0 52.7 37.1 89.8l99.6 99.6q27.3 23.4 60.5 5.9Q373 621.1 375 599.6t-15.6 -39.1l-29.3 -29.2 -62.5 -62.5Q250 449.2 250 423.8t17.6 -44.9q19.5 -17.6 44.9 -17.6t44.9 17.6l62.5 62.5 29.3 31.3 48.8 48.8q62.5 64.4 64.5 154.3v154.3q-2 39 -27.3 66.4 -27.4 25.4 -66.4 27.3H337.9q-50.8 0 -87.9 -37.1L54.7 691.4Q2 636.7 0 560.5V127Q0 93.8 23.4 72.3 44.9 48.8 78.1 48.8zm1093.8 0q33.2 0 54.7 23.5Q1250 93.8 1250 127v433.5q-2 76.2 -54.7 130.9L1000 886.7q-37.1 37.1 -87.9 37.1H781.3q-39.1 -1.9 -66.5 -27.3 -25.3 -27.4 -27.3 -66.4V675.8q2 -89.9 64.5 -154.3l48.8 -48.8 29.3 -31.3 62.5 -62.5q19.5 -17.6 44.9 -17.6t44.9 17.6q17.6 19.5 17.6 44.9t-17.6 45l-62.5 62.5 -31.2 29.2Q873 578.1 875 599.6t21.5 35.2q33.2 17.5 60.5 -5.9l99.6 -99.6q37.2 -37.1 37.2 -89.8V127q0 -33.2 23.4 -54.7 21.5 -23.5 54.7 -23.5z"/></svg>