<svg height="1000" width="875" xmlns="http://www.w3.org/2000/svg"><path d="M453.1 -76.2q-33.2 0 -54.7 23.5Q375 -31.3 375 2v320.3q-25.4 -23.5 -62.5 -23.5 -39.1 2 -66.4 27.4 -25.4 27.3 -27.3 66.4v156.2q-2 29.3 -31.3 31.3 -29.3 -2 -31.2 -31.3V439.5l-7.9 7.8q-1.9 0 -3.9 1.9l-37.1 31.3q-42.9 37.1 -44.9 95.7v74.2q2 115.2 89.8 191.4l11.8 9.8q85.9 70.3 199.2 72.2h230.5q105.4 -1.9 177.7 -72.2 70.3 -72.3 72.3 -177.8V486.3q-2 -39 -27.4 -66.4Q789.1 394.5 750 392.6q-37.1 0 -62.5 23.4 -3.9 -37.1 -29.3 -60.5 -27.3 -25.4 -64.4 -25.4t-62.5 23.4V2q0 -33.3 -23.5 -54.7 -21.5 -23.5 -54.7 -23.5z"/></svg>