<svg height="1000" width="1125" xmlns="http://www.w3.org/2000/svg"><path d="M437.5 -29.3V80.1 -29.3 80.1H328.1Q285.2 84 281.3 127v93.7q3.9 43 46.8 46.9h109.4V377q3.9 42.9 46.9 46.8h93.7q43 -3.9 46.9 -46.8V267.6h109.4q42.9 -3.9 46.9 -46.9V127q-4 -43 -46.9 -46.9H625V-29.3q-3.9 -43 -46.9 -46.9h-93.7q-43 3.9 -46.9 46.9zm656.3 718.8q25.3 -19.6 31.2 -50.8 3.9 -31.3 -15.6 -58.6 -19.6 -25.4 -50.8 -31.3 -31.3 -3.9 -58.6 15.7L767.6 736.3H531.3Q502 734.4 500 705.1q2 -29.3 31.3 -31.3h156.2q27.3 0 44.9 -17.5t17.6 -45 -17.6 -44.9 -44.9 -17.6H378.9q-87.9 0 -156.2 54.7l-87.9 70.3H62.5q-27.3 0 -44.9 17.6T0 736.3v125q0 27.4 17.6 45t44.9 17.5h627q85.9 0 156.2 -50.8l248.1 -183.5zM377 673.8h1.9H377h1.9H377z"/></svg>