<svg height="1000" width="1125" xmlns="http://www.w3.org/2000/svg"><path d="M15.6 330.1Q-3.9 302.7 0 271.5q5.9 -31.3 31.3 -50.8l248 -181.6q70.3 -52.8 158.2 -52.8h625q27.3 0 44.9 17.6t17.6 44.9v125q0 27.4 -17.6 45t-44.9 17.5h-72.3l-87.9 70.3Q834 361.3 746.1 361.3H437.5q-27.3 0 -44.9 -17.5t-17.6 -45 17.6 -44.9 44.9 -17.6h156.3Q623 234.4 625 205.1q-2 -29.3 -31.2 -31.3H357.4L125 345.7q-27.3 19.5 -58.6 15.6Q35.2 355.5 15.6 330.1zm730.5 -93.8h1.9 -1.9zm363.3 281.3q19.5 27.3 15.6 58.6 -5.9 31.2 -31.2 50.8L845.7 810.5q-70.3 50.8 -158.2 50.8h-625q-27.3 0 -44.9 -17.5T0 798.8v-125q0 -27.3 17.6 -44.9t44.9 -17.6h72.3L222.7 541Q291 486.3 378.9 486.3h308.6q27.3 0 44.9 17.6t17.6 44.9 -17.6 45 -44.9 17.5H531.3q-29.3 2 -31.3 31.3 2 29.3 31.3 31.2h236.3L1000 502q27.3 -19.6 58.6 -15.7 31.2 5.9 50.8 31.3zm-730.5 93.7H377h1.9z"/></svg>