<svg height="1000" width="1125" xmlns="http://www.w3.org/2000/svg"><path d="M539.1 -62.5q7.8 -13.7 23.4 -13.7t25.4 13.7L716.8 125Q750 173.8 750 232.4v3.9q-2 80.1 -54.7 132.8t-132.8 54.7q-80.1 -1.9 -132.8 -54.7T375 236.3v-3.9q0 -58.6 33.2 -107.4L539.1 -62.5zm570.3 642.6q19.5 27.3 15.6 58.6 -5.9 31.2 -31.2 50.8L845.7 873q-70.3 50.8 -158.2 50.8h-625q-27.3 0 -44.9 -17.5T0 861.3v-125Q0 709 17.6 691.4t44.9 -17.6h72.3l87.9 -70.3Q291 548.8 378.9 548.8h308.6q27.3 0 44.9 17.6t17.6 44.9 -17.6 45 -44.9 17.5H531.3q-29.3 2 -31.3 31.3 2 29.3 31.3 31.2h236.3L1000 564.5q27.3 -19.6 58.6 -15.7 31.2 5.9 50.8 31.3zm-730.5 93.7H377h1.9z"/></svg>