<svg height="1000" width="1000" xmlns="http://www.w3.org/2000/svg"><path d="M437.5 -76.2q27.3 0 44.9 17.6Q500 -41 500 -13.7v406.3H375V-13.7q0 -27.3 17.6 -44.9t44.9 -17.6zM625 236.3q27.3 0 44.9 17.6 17.6 17.6 17.6 44.9v125q0 27.4 -17.6 45T625 486.3t-44.9 -17.5 -17.6 -45v-125q0 -27.3 17.6 -44.9T625 236.3zm125 125q0 -27.3 17.6 -44.9 17.6 -17.6 44.9 -17.6t44.9 17.6 17.6 44.9v125q0 27.4 -17.6 45t-44.9 17.5 -44.9 -17.5 -17.6 -45v-125zM181.6 23.4l162.2 369.2L181.6 23.4l162.2 369.2H207L68.4 74.2q-9.8 -25.4 -2 -48.8Q76.2 2 99.6 -7.8q25.4 -9.8 48.8 -2 23.5 9.8 33.2 33.2zM234.4 457v-1.9 1.9 -1.9h187.5q33.2 0 54.7 23.4Q500 500 500 533.2t-23.4 54.7q-21.5 23.4 -54.7 23.4H312.5q-27.3 2 -31.2 31.3 3.9 29.3 31.2 31.2h109.4q60.5 -1.9 99.6 -41t41 -99.6v-1.9q27.3 17.5 62.5 17.5 39.1 0 70.3 -21.5 13.7 37.2 44.9 60.6t72.3 23.4q35.2 0 62.5 -17.5v17.5Q871.1 744.1 783.2 832t-220.7 91.8H441.4Q314.5 921.9 220.7 832l-21.5 -21.5Q127 736.3 125 632.8v-52.7q2 -48.8 31.3 -84 31.2 -33.2 78.1 -39.1z"/></svg>