<svg height="1000" width="750" xmlns="http://www.w3.org/2000/svg"><path d="M62.5 861.3q0 27.4 17.6 45 17.6 17.5 44.9 17.5t44.9 -17.5 17.6 -45V455.1h-125v406.2zm375 -312.5q0 27.4 17.6 45 17.6 17.5 44.9 17.5t44.9 -17.5 17.6 -45v-125q0 -27.3 -17.6 -44.9T500 361.3t-44.9 17.6 -17.6 44.9v125zm-125 125q27.3 0 44.9 -17.5 17.6 -17.6 17.6 -45v-93.7q0 -27.4 -17.6 -44.9t-44.9 -17.6 -44.9 17.6T250 517.6v93.7q0 27.4 17.6 45t44.9 17.5zM625 486.3q0 27.4 17.6 45 17.6 17.5 44.9 17.5t44.9 -17.5 17.6 -45v-125q0 -27.3 -17.6 -44.9t-44.9 -17.6 -44.9 17.6T625 361.3v125zM437.5 314.5v1.9 -1.9 1.9q27.3 -17.6 62.5 -17.6 39.1 0 70.3 21.5 11.7 -37.1 44.9 -60.5 31.3 -23.5 72.3 -23.5 35.2 0 62.5 17.6v-17.6Q746.1 103.5 658.2 15.6T437.5 -76.2H316.4q-128.9 2 -220.7 91.8L74.2 39.1Q2 111.3 0 214.8v52.8q2 52.7 37.1 87.9t87.9 37.1h171.9q33.2 0 54.7 -23.5Q375 347.7 375 314.5t-23.4 -54.7q-21.5 -23.5 -54.7 -23.5H187.5q-29.3 -1.9 -31.2 -31.2 1.9 -29.3 31.2 -31.3h109.4q60.5 2 99.6 41t41 99.7z"/></svg>