<svg height="1000" width="1250" xmlns="http://www.w3.org/2000/svg"><path d="M613.3 -70.3q-7.8 15.6 -21.5 44.9Q580.1 3.9 578.1 33.2q3.9 43 46.9 46.9 43 -3.9 46.9 -46.9 -2 -29.3 -13.7 -58.6 -13.7 -29.3 -21.5 -44.9 -3.9 -5.9 -11.7 -5.9t-11.7 5.9zM50.8 23.4Q43 39.1 29.3 68.4 17.6 97.7 15.6 127q3.9 42.9 46.9 46.8 43 -3.9 46.9 -46.8 -2 -29.3 -13.7 -58.6Q82 39.1 74.2 23.4 70.3 17.6 62.5 17.6t-11.7 5.8zM171.9 127q3.9 42.9 46.9 46.8 42.9 -3.9 46.8 -46.8Q263.7 97.7 252 68.4q-13.7 -29.3 -21.5 -45 -3.9 -5.8 -11.7 -5.8T207 23.4q-7.8 15.7 -21.5 45Q173.8 97.7 171.9 127zM332 23.4q-7.8 15.7 -21.5 45Q298.8 97.7 296.9 127q3.9 42.9 46.9 46.8 42.9 -3.9 46.8 -46.8Q388.7 97.7 377 68.4q-13.7 -29.3 -21.5 -45 -3.9 -5.8 -11.7 -5.8T332 23.4zM421.9 127q3.9 42.9 46.9 46.8 42.9 -3.9 46.8 -46.8Q513.7 97.7 502 68.4q-13.7 -29.3 -21.5 -45 -3.9 -5.8 -11.7 -5.8T457 23.4q-7.8 15.7 -21.5 45Q423.8 97.7 421.9 127zM769.5 23.4q-7.8 15.7 -21.5 45Q736.3 97.7 734.4 127q3.9 42.9 46.9 46.8 42.9 -3.9 46.8 -46.8Q826.2 97.7 814.5 68.4 800.8 39.1 793 23.4q-3.9 -5.8 -11.7 -5.8t-11.8 5.8zM859.4 127q3.9 42.9 46.9 46.8 42.9 -3.9 46.8 -46.8Q951.2 97.7 939.5 68.4 925.8 39.1 918 23.4q-3.9 -5.8 -11.7 -5.8t-11.8 5.8q-7.8 15.7 -21.5 45Q861.3 97.7 859.4 127zM1019.5 23.4q-7.8 15.7 -21.5 45Q986.3 97.7 984.4 127q3.9 42.9 46.9 46.8 42.9 -3.9 46.8 -46.8 -1.9 -29.3 -13.6 -58.6 -13.7 -29.3 -21.5 -45 -3.9 -5.8 -11.7 -5.8t-11.8 5.8zM1140.6 127q3.9 42.9 46.9 46.8 43 -3.9 46.9 -46.8 -2 -29.3 -13.7 -58.6 -13.7 -29.3 -21.5 -45 -3.9 -5.8 -11.7 -5.8t-11.7 5.8q-7.8 15.7 -21.5 45 -11.7 29.3 -13.7 58.6zM218.8 236.3q-29.3 2 -31.3 31.3v218.7H250V267.6q-2 -29.3 -31.2 -31.3zm125 0q-29.3 2 -31.3 31.3v218.7H375V267.6q-2 -29.3 -31.2 -31.3zm125 0q-29.3 2 -31.3 31.3v218.7H500V267.6q-2 -29.3 -31.2 -31.3zm312.5 0q-29.3 2 -31.3 31.3v218.7h62.5V267.6q-2 -29.3 -31.2 -31.3zm125 0q-29.3 2 -31.3 31.3v218.7h62.5V267.6q-2 -29.3 -31.2 -31.3zm125 0q-29.3 2 -31.3 31.3v218.7h62.5V267.6q-2 -29.3 -31.2 -31.3zM687.5 205.1q0 -27.4 -17.6 -44.9Q652.3 142.6 625 142.6t-44.9 17.6 -17.6 44.9v343.7h-375q-27.3 0 -44.9 -17.5t-17.6 -45V298.8q0 -27.3 -17.6 -44.9T62.5 236.3t-44.9 17.6T0 298.8v187.5q2 80.1 54.7 132.8t132.8 54.7h375v125h-250q-27.3 0 -44.9 17.6T250 861.3t17.6 45 44.9 17.5h625q27.3 0 44.9 -17.5t17.6 -45 -17.6 -44.9 -44.9 -17.6h-250v-125h375q80.1 -1.9 132.8 -54.7T1250 486.3V298.8q0 -27.3 -17.6 -44.9t-44.9 -17.6 -44.9 17.6 -17.6 44.9v187.5q0 27.4 -17.6 45t-44.9 17.5h-375V205.1z"/></svg>