<svg height="1000" width="1000" xmlns="http://www.w3.org/2000/svg"><path d="M0 111.3Q2 58.6 37.1 23.4 72.3 -11.7 125 -13.7h750q52.7 2 87.9 37.1t37.1 87.9v359.4Q949.2 425.8 875 423.8H125q-74.2 2 -125 46.9V111.3zm125 375h750H125h750q52.7 2 87.9 37.1t37.1 87.9v125q-2 52.8 -37.1 87.9T875 861.3H125Q72.3 859.4 37.1 824.2T0 736.3v-125q2 -52.7 37.1 -87.9T125 486.3zm500 250q27.3 0 44.9 -17.5 17.6 -17.6 17.6 -45t-17.6 -44.9T625 611.3t-44.9 17.6 -17.6 44.9 17.6 45 44.9 17.5zm250 -62.5q0 -27.3 -17.6 -44.9 -17.6 -17.6 -44.9 -17.6t-44.9 17.6T750 673.8t17.6 45 44.9 17.5 44.9 -17.5 17.6 -45z"/></svg>