<svg height="1000" width="875" xmlns="http://www.w3.org/2000/svg"><path d="M353.5 -13.7q27.4 5.9 41 25.4 13.7 21.5 11.8 46.9l-19.6 115.2h185.6L593.8 39.1Q599.6 11.7 619.1 -2q21.5 -13.6 46.9 -11.7 27.4 5.9 41 25.4 13.7 21.5 9.8 46.9l-17.6 115.2h113.3q27.3 0 44.9 17.6t17.6 44.9 -17.6 45 -44.9 17.5H677.7l-41 250H750q27.3 0 44.9 17.6t17.6 44.9 -17.6 45T750 673.8H615.2l-21.4 134.8q-5.9 27.3 -25.4 41 -21.5 13.7 -46.9 11.7 -27.4 -5.8 -41 -25.4 -13.7 -21.4 -9.8 -46.8l17.6 -115.3H302.7l-21.4 134.8q-5.9 27.3 -25.4 41 -21.5 15.6 -46.9 11.7 -25.4 -5.8 -41 -25.4 -13.7 -21.4 -9.8 -46.8l17.6 -115.3H62.5q-27.3 0 -44.9 -17.5T0 611.3t17.6 -44.9 44.9 -17.6h134.8l41 -250H125q-27.3 0 -44.9 -17.5t-17.6 -45 17.6 -44.9T125 173.8h134.8L281.3 39.1Q287.1 11.7 306.6 -2q21.5 -13.6 46.9 -11.7zm11.7 312.5l-41 250 41 -250 -41 250h185.6l41 -250H365.2z"/></svg>