<svg height="1000" width="1250" xmlns="http://www.w3.org/2000/svg"><path d="M625 48.8q39.1 -3.9 60.5 -27.3Q699.2 7.8 716.8 -2q17.6 -11.7 48.8 -11.7 48.9 3.9 86 82.1 39 78.1 64.4 177.7 27.4 101.6 41 173.8 -62.5 27.4 -144.5 46.9 -84 19.5 -187.5 19.5T437.5 466.8Q355.5 447.3 293 419.9q13.6 -72.2 41 -173.8 25.4 -99.6 64.4 -177.7 37.1 -78.2 86 -82.1 31.2 0 48.8 11.7 17.6 9.8 31.3 23.5 21.4 23.4 60.5 27.3zM216.8 453.1q70.3 37.1 171.9 66.4 101.5 27.4 236.3 29.3 134.8 -1.9 236.3 -29.3 103.5 -29.3 171.9 -66.4 74.2 -37.1 136.7 -93.7 27.4 -23.5 58.6 -5.9 27.4 19.5 19.5 54.7 -44.9 113.3 -128.9 197.3 -72.2 76.1 -193.3 132.8T625 798.8Q445.3 794.9 324.2 738.3T132.8 605.5Q46.9 519.5 2 408.2 -5.9 373 21.5 353.5q31.2 -17.6 58.6 5.9 62.5 56.6 136.7 93.7z"/></svg>