<svg height="1000" width="1000" xmlns="http://www.w3.org/2000/svg"><path d="M125 736.3l205.1 -459L125 736.3l205.1 -459Q375 173.8 470.7 113.3L757.8 -70.3q7.8 -5.9 19.5 -5.9 31.3 3.9 35.2 37.1v2q0 7.8 -2 15.6l-117.1 291q-5.9 13.7 -5.9 29.3t5.9 31.3L875 736.3H470.7L494.1 668l78.2 -27.4q19.5 -7.8 21.5 -29.3 -2 -21.5 -21.5 -29.3l-78.2 -27.3 -27.3 -78.1Q459 457 437.5 455.1 416 457 408.2 476.6l-27.3 78.1L302.7 582q-19.5 7.8 -21.4 29.3 1.9 21.5 21.4 29.3l78.2 27.4 23.4 68.3H125zM546.9 201.2Q543 189.5 531.3 189.5t-15.7 11.7l-11.7 39 -41 11.8q-9.8 3.9 -9.8 15.6t9.8 15.6l41 11.7 11.7 41q3.9 9.8 15.7 9.8t15.6 -9.8l11.7 -41 41 -11.7q9.8 -3.9 9.8 -15.6T599.6 252l-41 -11.8 -11.7 -39zM62.5 798.8h875 -875 875q27.3 0 44.9 17.6t17.6 44.9 -17.6 45 -44.9 17.5h-875q-27.3 0 -44.9 -17.5T0 861.3t17.6 -44.9 44.9 -17.6z"/></svg>