<svg height="1000" width="1250" xmlns="http://www.w3.org/2000/svg"><path d="M298.8 189.5l-21.5 111.3 21.5 -111.3 -21.5 111.3q19.6 -2 41.1 -2h21.4q117.2 0 214.9 68.4l543 380.8 70.3 46.9q35.1 -7.8 58.6 -37.1t23.4 -68.3q-2 -74.3 -50.8 -130.9t-109.4 -95.7T986.3 406.3L925.8 87.9Q916 43 882.8 15.6q-33.2 -29.3 -80.1 -29.3h-5.8q-15.6 0 -31.3 3.9L388.7 91.8q-74.2 21.5 -89.9 97.7zM0 673.8q2 52.8 37.1 87.9 35.2 35.2 87.9 37.1h937.5L517.6 418Q437.5 361.3 337.9 361.3h-19.5q-89.9 0 -164.1 46.9 -74.2 44.9 -115.2 125l-11.8 25.4Q0 611.3 0 669.9v3.9z"/></svg>