<svg height="1000" width="1250" xmlns="http://www.w3.org/2000/svg"><path d="M0 361.3Q2 240.2 60.5 140.6 117.2 43 216.8 -15.6q97.7 -58.6 220.7 -60.6h46.9q142.6 2 250 89.9t134.7 222.6q5.9 39.1 29.3 70.3l82.1 103.6q19.5 23.4 19.5 52.7 0 37.1 -25.4 60.5 -23.4 25.4 -60.5 25.4H875v62.5l-212.9 27.4q-35.1 5.8 -37.1 41 3.9 39.1 41 43l209 13.6v31.3q-2 39 -27.3 66.4 -27.4 25.4 -66.4 27.3H625V877q-3.9 42.9 -46.9 46.8H187.5q-27.3 0 -44.9 -17.5t-17.6 -45V718.8q-2 -48.9 -33.2 -87.9Q2 511.7 0 361.3zm687.5 0q27.3 0 44.9 -17.5 17.6 -17.6 17.6 -45t-17.6 -44.9 -44.9 -17.6 -44.9 17.6T625 298.8t17.6 45 44.9 17.5zm218.8 312.5q3.9 -42.9 46.8 -46.8 43 3.9 46.9 46.8 -3.9 43 -46.9 46.9 -42.9 -3.9 -46.8 -46.9zM1203.1 627q43 3.9 46.9 46.8 -3.9 43 -46.9 46.9 -42.9 -3.9 -46.8 -46.9 3.9 -42.9 46.8 -46.8zm-46.8 234.3q3.9 -42.9 46.8 -46.8 43 3.9 46.9 46.8 -3.9 43 -46.9 46.9 -42.9 -3.9 -46.8 -46.9zm-78.2 -328.1q43 3.9 46.9 46.9 -3.9 42.9 -46.9 46.9 -42.9 -4 -46.8 -46.9 3.9 -43 46.8 -46.9zm78.2 -46.9q3.9 -42.9 46.8 -46.8 43 3.9 46.9 46.8 -3.9 43 -46.9 46.9 -42.9 -3.9 -46.8 -46.9zm-78.2 234.4q43 3.9 46.9 46.9 -3.9 42.9 -46.9 46.9 -42.9 -4 -46.8 -46.9 3.9 -43 46.8 -46.9z"/></svg>