<svg height="1000" width="1125" xmlns="http://www.w3.org/2000/svg"><path d="M62.5 361.3q0 -64.4 17.6 -125l431.6 314.5Q500 578.1 500 611.3v312.5H250q-27.3 0 -44.9 -17.5t-17.6 -45V718.8q-2 -48.9 -33.2 -87.9Q64.5 511.7 62.5 361.3zM546.9 500L103.5 175.8 546.9 500 103.5 175.8Q158.2 62.5 261.7 -5.9 367.2 -74.2 500 -76.2h46.9q142.6 2 250 89.9t134.7 222.6q5.9 39.1 29.3 70.3l82.1 103.6q17.5 19.5 19.5 44.9H656.3Q591.8 457 546.9 500zm109.4 17.6H1043 656.3h406.2l-39.1 125H718.8q-29.3 1.9 -31.3 31.2 2 29.3 31.3 31.3h287.1l-19.6 62.5H718.8q-29.3 1.9 -31.3 31.2 2 29.3 31.3 31.3h248l-2 5.8q-13.6 39.1 -44.9 62.5 -33.2 25.4 -74.2 25.4H562.5V611.3q2 -42.9 31.3 -68.3 25.3 -25.4 62.5 -25.4zM750 361.3q27.3 0 44.9 -17.5 17.6 -17.6 17.6 -45t-17.6 -44.9T750 236.3t-44.9 17.6 -17.6 44.9 17.6 45 44.9 17.5z"/></svg>