<svg height="1000" width="1000" xmlns="http://www.w3.org/2000/svg"><path d="M0 361.3Q2 240.2 60.5 140.6 117.2 43 216.8 -15.6q97.7 -58.6 220.7 -60.6h46.9q142.6 2 250 89.9t134.7 222.6q5.9 39.1 29.3 70.3l82.1 103.6q19.5 23.4 19.5 52.7 0 37.1 -25.4 60.5 -23.4 25.4 -60.5 25.4H875v125q-2 52.8 -37.1 87.9T750 798.8H625v62.5q0 27.4 -17.6 45t-44.9 17.5h-375q-27.3 0 -44.9 -17.5t-17.6 -45V718.8q-2 -48.9 -33.2 -87.9Q2 511.7 0 361.3zM437.5 48.8q-29.3 2 -31.2 31.3 -4 48.8 -45 66.4t-78.1 -15.6q-21.5 -17.6 -44.9 0 -17.6 21.4 0 44.9 33.2 37.1 15.6 78.1t-66.4 44.9q-29.3 2 -31.2 31.3 1.9 29.3 31.2 31.2 48.8 3.9 66.4 45t-15.6 78.1q-17.6 23.4 0 44.9 23.4 17.6 44.9 0 37.1 -33.2 78.1 -15.6t45 66.4q1.9 29.3 31.2 31.2 29.3 -1.9 31.3 -31.2 3.9 -48.8 44.9 -66.4t78.1 15.6q23.4 17.6 44.9 0 17.6 -23.4 0 -44.9 -33.2 -37.1 -15.6 -78.1t66.4 -45q29.3 -1.9 31.3 -31.2 -2 -29.3 -31.3 -31.3 -48.8 -3.9 -66.4 -44.9t15.6 -78.1q17.6 -21.5 0 -44.9 -23.4 -17.6 -44.9 0 -37.1 33.2 -78.1 15.6T468.8 80.1q-2 -29.3 -31.3 -31.3zm-46.9 187.5q43 3.9 46.9 46.9 -3.9 43 -46.9 46.9 -42.9 -3.9 -46.8 -46.9 3.9 -43 46.8 -46.9zm78.2 156.3q1.9 -29.3 31.2 -31.3 29.3 2 31.3 31.3 -2 29.3 -31.3 31.2 -29.3 -1.9 -31.2 -31.2z"/></svg>