<svg height="1000" width="1000" xmlns="http://www.w3.org/2000/svg"><path d="M500 80.1Q341.8 84 230.5 183.6 119.1 281.3 97.7 435.5q27.3 -11.7 58.6 -11.7 39 2 66.4 27.4 25.3 27.3 27.3 66.4v250q-2 39 -27.3 66.4 -27.4 25.4 -66.4 27.3Q89.8 859.4 44.9 816.4 2 771.5 0 705.1V486.3Q2 345.7 68.4 234.4 134.8 121.1 248 54.7q111.4 -66.4 252 -68.4 140.6 2 252 68.4 113.2 66.4 179.6 179.7Q998 345.7 1000 486.3v218.8q-2 66.4 -44.9 111.3 -44.9 43 -111.3 44.9Q804.7 859.4 777.3 834 752 806.6 750 767.6v-250q2 -39.1 27.3 -66.4 27.4 -25.4 66.5 -27.4 31.2 0 58.5 11.7Q880.9 281.3 769.5 183.6 658.2 84 500 80.1z"/></svg>