<svg height="1000" width="1000" xmlns="http://www.w3.org/2000/svg"><path d="M500 17.6Q328.1 21.5 212.9 136.7 97.7 252 93.8 423.8V502q-4 42.9 -46.9 46.8Q3.9 544.9 0 502v-78.2Q2 283.2 68.4 171.9 134.8 58.6 248 -7.8q111.4 -66.4 252 -68.4 140.6 2 252 68.4 113.2 66.4 179.6 179.7Q998 283.2 1000 423.8v281.3q-2 72.2 -50.8 121.1T828.1 877H613.3q-27.4 44.9 -82 46.8h-62.5q-39.1 -1.9 -66.5 -27.3Q377 869.1 375 830.1q2 -39.1 27.3 -66.4 27.4 -25.4 66.5 -27.4h62.5q54.6 2 82 46.9h214.8q33.2 0 54.7 -23.4 23.5 -21.5 23.5 -54.7V423.8Q902.3 252 787.1 136.7T500 17.6zM281.3 330.1h31.2 -31.2 31.2q27.3 0 44.9 17.6t17.6 44.9v218.7q0 27.4 -17.6 45t-44.9 17.5h-31.2q-52.8 -1.9 -87.9 -37.1t-37.1 -87.9v-93.7q1.9 -52.8 37.1 -87.9t87.9 -37.1zm437.5 0q52.7 1.9 87.8 37.1 35.2 35.1 37.2 87.9v93.7q-2 52.8 -37.2 87.9t-87.8 37.1h-31.3q-27.3 0 -44.9 -17.5t-17.6 -45V392.6q0 -27.4 17.6 -44.9t44.9 -17.6h31.3z"/></svg>