<svg height="1000" width="1000" xmlns="http://www.w3.org/2000/svg"><path d="M500 80.1Q328.1 84 212.9 199.2 97.7 314.5 93.8 486.3v203.2q-4 42.9 -46.9 46.8Q3.9 732.4 0 689.5V486.3Q2 345.7 68.4 234.4 134.8 121.1 248 54.7q111.4 -66.4 252 -68.4 140.6 2 252 68.4 113.2 66.4 179.6 179.7Q998 345.7 1000 486.3v203.2q-3.9 42.9 -46.9 46.8 -42.9 -3.9 -46.8 -46.8V486.3q-4 -171.8 -119.2 -287.1T500 80.1zM156.3 611.3q1.9 -52.7 37.1 -87.9 35.1 -35.1 87.9 -37.1h31.2q27.3 0 44.9 17.6t17.6 44.9v250q0 27.4 -17.6 45t-44.9 17.5h-31.2q-52.8 -1.9 -87.9 -37.1t-37.1 -87.9v-125zm562.5 -125q52.7 2 87.8 37.1 35.2 35.2 37.2 87.9v125q-2 52.8 -37.2 87.9t-87.8 37.1h-31.3q-27.3 0 -44.9 -17.5t-17.6 -45v-250q0 -27.3 17.6 -44.9t44.9 -17.6h31.3z"/></svg>