<svg height="1000" width="875" xmlns="http://www.w3.org/2000/svg"><path d="M0 48.8Q0 21.5 17.6 3.9q17.6 -17.6 44.9 -17.6H250q27.3 0 44.9 17.6t17.6 44.9 -17.6 45T250 111.3h-31.2v218.8h437.5V111.3H625q-27.3 0 -44.9 -17.5t-17.6 -45T580.1 3.9 625 -13.7h187.5q27.3 0 44.9 17.6T875 48.8t-17.6 45 -44.9 17.5h-31.2v625h31.2q27.3 0 44.9 17.6t17.6 44.9 -17.6 45 -44.9 17.5H625q-27.3 0 -44.9 -17.5t-17.6 -45 17.6 -44.9T625 736.3h31.3V455.1H218.8v281.2H250q27.3 0 44.9 17.6t17.6 44.9 -17.6 45T250 861.3H62.5q-27.3 0 -44.9 -17.5T0 798.8t17.6 -44.9 44.9 -17.6h31.3v-625H62.5q-27.3 0 -44.9 -17.5T0 48.8z"/></svg>