<svg height="1000" width="1250" xmlns="http://www.w3.org/2000/svg"><path d="M875 560.5l85.9 66.5L875 560.5l85.9 66.5q25.4 5.8 35.2 27.3l84 66.4q33.2 3.9 42.9 33.2l76.2 60.6h3.9q35.2 1.9 44.9 35.1h-7.8q19.6 27.4 0 56.7 -29.3 31.2 -66.4 7.8L17.6 7.8Q-13.7 -21.5 9.8 -58.6q29.3 -31.2 66.4 -7.8l99.6 78.1q111.3 -85.9 261.7 -87.9h46.9q142.6 2 250 89.9t134.7 222.6q5.9 39.1 29.3 70.3l82.1 103.6q19.5 23.4 19.5 52.7 0 37.1 -25.4 60.5 -23.4 25.4 -60.5 25.4H875v11.7zM0 361.3Q2 248 52.7 152.3L668 636.7l-5.9 2q-35.1 5.8 -37.1 41 3.9 39.1 41 43l121.1 7.8 84 66.4q-23.4 60.5 -89.8 64.4H625V877q-3.9 42.9 -46.9 46.8H187.5q-27.3 0 -44.9 -17.5t-17.6 -45V718.8q-2 -48.9 -33.2 -87.9Q2 511.7 0 361.3zM1203.1 627q43 3.9 46.9 46.8 -3.9 43 -46.9 46.9 -42.9 -3.9 -46.8 -46.9 3.9 -42.9 46.8 -46.8zm-125 -93.8q43 3.9 46.9 46.9 -3.9 42.9 -46.9 46.9 -42.9 -4 -46.8 -46.9 3.9 -43 46.8 -46.9zm78.2 -46.9q3.9 -42.9 46.8 -46.8 43 3.9 46.9 46.8 -3.9 43 -46.9 46.9 -42.9 -3.9 -46.8 -46.9z"/></svg>