<svg height="1000" width="1125" xmlns="http://www.w3.org/2000/svg"><path d="M93.8 509.8l351.5 330L93.8 509.8l351.5 330q23.5 21.5 54.7 21.5t54.7 -21.5l3.9 -3.9Q502 752 500 642.6q3.9 -146.5 101.6 -242.2 95.7 -97.7 242.2 -101.6 83.9 0 154.2 37.1 2 -19.5 2 -39v-11.7Q998 179.7 933.6 105.5 869.1 29.3 767.6 9.8 699.2 0 634.8 19.5 572.3 39.1 523.4 87.9L500 111.3 476.6 87.9Q427.7 39.1 365.2 19.5 300.8 0 232.4 9.8q-101.5 19.5 -166 95.7Q2 179.7 0 285.2v11.7q2 126.9 93.8 212.9zm750 414q76.1 0 140.6 -37.1 64.4 -37.1 103.5 -103.5Q1125 716.8 1125 642.6T1087.9 502Q1048.8 435.5 984.4 398.4T843.8 361.3t-140.7 37.1T599.6 502q-37.1 66.4 -37.1 140.6t37.1 140.6q39.1 66.4 103.5 103.5t140.7 37.1zm93.7 -439.4q13.7 11.7 5.9 29.3l-60.6 105.4h70.3q15.7 0 21.5 15.7t-7.8 27.3L779.3 802.7q-13.7 9.8 -29.3 -1.9 -13.7 -13.7 -5.9 -29.3L804.7 666h-70.3q-15.6 0 -21.5 -15.6t7.8 -27.4L908.2 482.4q13.7 -9.7 29.3 2z"/></svg>