<svg height="1000" width="1125" xmlns="http://www.w3.org/2000/svg"><path d="M93.8 509.8l351.5 330L93.8 509.8l351.5 330q23.5 21.5 54.7 21.5t54.7 -21.5l3.9 -3.9Q502 752 500 642.6q3.9 -146.5 101.6 -242.2 95.7 -97.7 242.2 -101.6 83.9 0 154.2 37.1 2 -19.5 2 -39v-11.7Q998 179.7 933.6 105.5 869.1 29.3 767.6 9.8 699.2 0 634.8 19.5 572.3 39.1 523.4 87.9L500 111.3 476.6 87.9Q427.7 39.1 365.2 19.5 300.8 0 232.4 9.8q-101.5 19.5 -166 95.7Q2 179.7 0 285.2v11.7q2 126.9 93.8 212.9zM1125 642.6q0 -76.2 -37.1 -140.6Q1050.8 437.5 984.4 398.4 918 361.3 843.8 361.3t-140.7 37.1Q636.7 437.5 599.6 502t-37.1 140.6 37.1 140.6 103.5 103.5q66.4 37.1 140.7 37.1t140.6 -37.1q66.4 -39 103.5 -103.5T1125 642.6zm-125 0q-2 29.3 -31.2 31.2h-250q-29.3 -1.9 -31.3 -31.2 2 -29.3 31.3 -31.3h250q29.2 2 31.2 31.3z"/></svg>