<svg height="1000" width="1000" xmlns="http://www.w3.org/2000/svg"><path d="M445.3 839.8L93.8 509.8l351.5 330L93.8 509.8Q80.1 500 70.3 486.3h169.9q70.3 -3.9 99.6 -66.4l21.5 -50.8L457 584q13.7 25.4 43 27.3 27.3 0 43 -25.4l82 -166 3.9 5.9q31.3 58.6 97.7 60.5h203.1q-9.8 13.7 -23.4 25.4L554.7 839.8q-23.4 21.5 -54.7 21.5t-54.7 -21.5zM984.4 392.6H726.6h257.8H726.6q-9.8 0 -13.7 -7.8L666 293q-13.7 -23.5 -41 -25.4 -29.3 1.9 -43 25.4l-80 162.1L402.3 232.4q-13.6 -27.3 -42.9 -27.3 -31.3 1.9 -43 29.3l-62.5 148.4q-3.9 9.8 -13.7 9.8H31.3q-7.9 0 -13.7 1.9Q0 347.7 0 296.9v-11.7Q2 179.7 66.4 105.5q64.5 -76.2 166 -95.7Q300.8 0 365.2 19.5q62.5 19.6 111.4 68.4l23.4 23.4 23.4 -23.4Q572.3 39.1 634.8 19.5 699.2 0 767.6 9.8q101.5 19.5 166 95.7 64.4 74.2 66.4 179.7v11.7q0 48.8 -15.6 95.7z"/></svg>