<svg height="1000" width="1250" xmlns="http://www.w3.org/2000/svg"><path d="M250 -13.7q0 -27.3 17.6 -44.9 17.6 -17.6 44.9 -17.6h750q27.3 0 44.9 17.6t17.6 44.9 -17.6 45 -44.9 17.5H750v125h62.5q132.8 3.9 220.7 91.8t91.8 220.7v125q0 27.4 -17.6 45t-44.9 17.5H625Q562.5 671.9 525.4 623L384.8 437.5Q375 423.8 359.4 418L91.8 310.5Q62.5 298.8 54.7 267.6L9.8 87.9Q5.9 52.7 41 48.8h52.8q31.2 0 50.7 25.4l74.3 99.6H625v-125H312.5q-27.3 0 -44.9 -17.5t-17.6 -45zm500 562.5h250H750h250v-62.5q-2 -80 -54.7 -132.8T812.5 298.8H750v250zm482.4 205.1q17.6 19.5 17.6 44.9t-17.6 45l-7.8 7.8q-74.2 70.3 -177.7 72.2H500q-27.3 0 -44.9 -17.5t-17.6 -45 17.6 -44.9T500 798.8h546.9q52.7 0 89.8 -37.1l5.9 -7.8q19.5 -17.6 44.9 -17.6t44.9 17.6z"/></svg>