<svg height="1000" width="1000" xmlns="http://www.w3.org/2000/svg"><path d="M869.1 361.3h127 -127 127Q972.7 187.5 853.5 70.3 736.3 -48.8 562.5 -72.3v127q119.1 21.5 203.1 103.5 82.1 84 103.5 203.1zm127 125h-127 127 -127Q847.7 605.5 765.6 689.5q-84 82 -203.1 103.5v126.9q173.8 -23.4 291 -142.6 119.2 -117.1 142.6 -291zm-992.2 0q23.4 173.9 142.6 291 117.2 119.2 291 142.6V793Q318.4 771.5 234.4 689.5q-82.1 -84 -103.5 -203.2H3.9zm0 -125h127H3.9h127Q152.3 242.2 234.4 158.2q84 -82 203.1 -103.5v-127q-173.8 23.5 -291 142.6Q27.3 187.5 3.9 361.3zm402.4 -125q0 -27.3 -17.6 -44.9 -17.6 -17.6 -44.9 -17.6t-45 17.6 -17.5 44.9v375q0 27.4 17.5 45t45 17.5 44.9 -17.5 17.6 -45v-125h187.5v125q0 27.4 17.5 45t45 17.5 44.9 -17.5 17.6 -45v-375q0 -27.3 -17.6 -44.9t-44.9 -17.6 -45 17.6 -17.5 44.9v125H406.3v-125z"/></svg>