<svg height="1000" width="1000" xmlns="http://www.w3.org/2000/svg"><path d="M937.5 361.3Q919.9 173.8 789.1 50.8 660.2 -72.3 468.8 -76.2q-130.9 2 -236.4 64.5t-167.9 168T0 392.6V502q2 74.2 50.8 121 46.9 48.9 121.1 50.8h248l252 236.4q13.6 13.6 31.2 13.6h187.5q43 -3.9 46.9 -46.8 -3.9 -43 -46.9 -46.9H722.7l-3.9 -2V486.3h218.7q27.3 0 44.9 -17.5t17.6 -45 -17.6 -44.9 -44.9 -17.6zM625 738.3L472.7 595.7 625 738.3 472.7 595.7l62.5 -109.4H625v252zM556.6 125L625 226.6 556.6 125 625 226.6v-84q2 -29.3 31.3 -31.3 29.2 2 31.2 31.3v187.5q-2 21.5 -21.5 29.3 -23.4 5.8 -35.1 -11.7L562.5 246.1v84q-2 29.3 -31.2 31.2Q502 359.4 500 330.1V142.6q2 -21.5 21.5 -29.3 23.4 -5.9 35.1 11.7zm-244.1 17.6v125 -125 125q2 29.3 31.3 31.2Q373 296.9 375 267.6v-125q2 -29.3 31.3 -31.3 29.2 2 31.2 31.3v125q-2 39 -27.3 66.4 -27.4 25.4 -66.4 27.3Q304.7 359.4 277.3 334 252 306.6 250 267.6v-125q2 -29.3 31.3 -31.3 29.2 2 31.2 31.3z"/></svg>