<svg height="1000" width="1125" xmlns="http://www.w3.org/2000/svg"><path d="M500 -13.7q-27.3 0 -44.9 17.6 -17.6 17.6 -17.6 44.9V248q-2 17.6 -19.5 19.6 -11.7 0 -17.6 -9.8l-93.8 -164Q197.3 148.4 130.9 252T62.5 486.3v125h1000V482.4Q1058.6 351.6 994.1 250 927.7 148.4 818.4 93.8l-93.8 164q-5.8 9.8 -17.6 9.8 -17.5 -2 -19.5 -19.6V48.8q0 -27.3 -17.6 -44.9T625 -13.7H500zM33.2 673.8Q2 675.8 0 707q0 13.7 11.7 23.5 29.3 27.3 162.1 76.1t388.7 54.7q255.9 -5.8 388.7 -54.7t162.1 -76.1Q1125 720.7 1125 707q-2 -31.2 -33.2 -33.2H33.2z"/></svg>