<svg height="1000" width="1125" xmlns="http://www.w3.org/2000/svg"><path d="M615.2 539.1l308.6 -420 -308.6 420 308.6 -420L867.2 62.5 447.3 371.1l167.9 168zM250 548.8V408.2q2 -46.9 39.1 -74.2L822.3 -60.5q21.5 -15.7 48.8 -15.7 35.2 0 60.5 25.4l107.5 105.5q23.4 25.4 23.4 60.5 0 27.4 -15.6 50.8L652.3 699.2q-27.3 35.2 -74.2 37.1H437.5l-48.8 48.9q-19.6 19.5 -44.9 19.5t-45 -19.5l-97.6 -97.7Q181.6 668 181.6 642.6t19.6 -44.9L250 548.8zM13.7 834l123 -123.1L13.7 834l123 -123.1 138.7 138.7 -60.6 60.6q-13.6 13.6 -33.2 13.6H46.9Q3.9 919.9 0 877v-9.8Q0 847.7 13.7 834z"/></svg>