<svg height="1000" width="1125" xmlns="http://www.w3.org/2000/svg"><path d="M492.2 127l52.7 93.7L492.2 127l52.7 93.7q9.8 15.6 27.4 15.6h105.4q17.6 0 25.4 -15.6L755.9 127q9.7 -15.7 0 -31.3L703.1 2q-7.8 -15.7 -25.4 -15.7H572.3q-17.6 0 -27.4 15.7l-52.7 93.7q-7.8 15.6 0 31.3zM132.8 93.8q-41 -35.2 -84 -17.6Q3.9 95.7 0 148.4v619.2Q2 834 44.9 878.9q44.9 43 111.4 44.9h619.1q52.7 -3.9 72.3 -48.8 17.5 -43 -17.6 -84L132.8 93.8zm851.6 619.1q15.6 7.8 31.2 0l93.8 -52.7q15.6 -9.8 15.6 -27.4V527.3q0 -17.5 -15.6 -25.3l-93.8 -52.8q-15.6 -9.7 -31.2 0L890.6 502Q875 509.8 875 527.3v105.5q0 17.6 15.6 27.4l93.8 52.7zM375 48.8Q375 21.5 357.4 3.9q-17.6 -17.6 -44.9 -17.6T267.6 3.9 250 48.8t17.6 45 44.9 17.5 44.9 -17.5 17.6 -45zm375 437.5q27.3 0 44.9 -17.5 17.6 -17.6 17.6 -45t-17.6 -44.9T750 361.3t-44.9 17.6 -17.6 44.9 17.6 45 44.9 17.5z"/></svg>