<svg height="1000" width="1125" xmlns="http://www.w3.org/2000/svg"><path d="M859.4 709q50.8 33.2 111.3 29.3 58.6 -5.9 105.5 -50.8Q1127 634.8 1127 566.4t-50.8 -121.1q-41 -41 -95.7 -48.8T877 414.1q-37.2 23.4 -21.5 62.5 23.4 35.1 64.4 19.5 48.9 -21.5 89.9 15.6 23.4 23.5 23.4 54.7t-23.4 54.7 -54.7 23.4 -54.7 -23.4L740.2 462.9Q808.6 416 812.5 330.1q0 -50.8 -27.3 -89.9 -27.4 -37.1 -72.3 -54.7 5.9 -21.4 5.9 -42.9 -2 -66.4 -45 -111.3 -44.9 -43 -111.3 -45 -84 3.9 -128.9 68.4Q412.1 -9.8 343.8 -13.7q-39.1 2 -66.5 27.4Q252 41 250 80.1q0 11.7 2 23.4L859.4 709zM937.5 48.8q0 -27.3 -17.6 -44.9Q902.3 -13.7 875 -13.7T830.1 3.9t-17.6 44.9 17.6 45 44.9 17.5 44.9 -17.5 17.6 -45zm0 250q27.3 0 44.9 -17.5 17.6 -17.6 17.6 -45t-17.6 -44.9 -44.9 -17.6 -44.9 17.6T875 236.3t17.6 45 44.9 17.5zM132.8 93.8q-41 -35.2 -84 -17.6Q3.9 95.7 0 148.4v619.2Q2 834 44.9 878.9q44.9 43 111.4 44.9h619.1q52.7 -3.9 72.3 -48.8 17.5 -43 -17.6 -84L132.8 93.8z"/></svg>