<svg height="1000" width="1250" xmlns="http://www.w3.org/2000/svg"><path d="M794.9 15.6q33.2 -27.3 66.4 0l33.2 33.2h74.3q33.2 0 62.5 13.7l29.2 -31.2q33.3 -27.4 66.5 0 27.3 33.2 0 66.4l-25.4 25.3q23.4 37.2 23.4 82.1 2 31.2 33.2 44.9 41 19.5 66.4 56.6t25.4 86q-2 80.1 -62.5 125v62.5q-2 29.3 -31.2 31.2h-62.5q-29.3 -1.9 -31.3 -31.2v-31.3h-125v31.3q-2 29.3 -31.2 31.2h-62.5q-29.3 -1.9 -31.3 -31.2v-35.2Q777.3 539.1 750 517.6q-3.9 -3.9 -7.8 -5.9Q689.5 464.8 687.5 392.6q-2 -29.3 -31.2 -31.3 -29.3 2 -31.3 31.3 0 66.4 35.2 119.1 33.2 50.8 89.8 78.1v21.5q0 27.4 17.6 45t44.9 17.5H875v125q0 27.4 -17.6 45t-44.9 17.5h-125q-27.3 0 -44.9 -17.5t-17.6 -45V650.4q-58.6 23.4 -125 23.4T375 650.4v148.4q0 27.4 -17.6 45t-44.9 17.5h-125q-27.3 0 -44.9 -17.5t-17.6 -45V566.4l-35.2 80.1q-21.4 37.1 -62.5 23.4Q-9.8 648.4 3.9 607.4l43 -95.7q15.6 -35.1 15.6 -74.2Q66.4 277.3 171.9 168T437.5 48.8h125q62.5 0 121.1 15.7Q742.2 78.1 791 99.6q5.9 -5.8 11.7 -9.8L794.9 82q-27.3 -33.2 0 -66.4zM937.5 377q-3.9 -43 -46.9 -46.9Q847.7 334 843.8 377q3.9 42.9 46.8 46.8 43 -3.9 46.9 -46.8zm171.9 46.8q42.9 -3.9 46.9 -46.8 -4 -43 -46.9 -46.9 -43 3.9 -46.9 46.9 3.9 42.9 46.9 46.8zM937.5 205.1q-2 -29.3 -31.2 -31.3 -29.3 2 -31.3 31.3 2 29.3 31.3 31.2 29.2 -1.9 31.2 -31.2zm93.8 31.2q29.2 -1.9 31.2 -31.2 -2 -29.3 -31.2 -31.3 -29.3 2 -31.3 31.3 2 29.3 31.3 31.2z"/></svg>