<svg height="1000" width="1000" xmlns="http://www.w3.org/2000/svg"><path d="M500 111.3q52.7 -1.9 82 -46.8 23.5 -46.9 0 -93.8 -29.3 -44.9 -82 -46.9 -52.7 2 -82 46.9 -23.5 46.9 0 93.8 29.3 44.9 82 46.8zM343.8 298.8q52.7 -1.9 82 -46.8 23.4 -46.9 0 -93.8 -29.3 -44.9 -82 -46.9 -52.8 2 -82.1 46.9 -23.4 46.9 0 93.8 29.3 44.9 82.1 46.8zm197.2 375h5.9q60.5 2 99.6 41t41 99.7v44.9q2 23.4 19.5 37.1t43 7.8l23.4 -9.8q54.7 -17.5 109.4 -1.9l37.1 9.7q27.4 5.9 46.9 -11.7 17.6 -17.6 11.7 -44.9l-9.7 -39.1Q953.1 752 970.7 697.3l7.8 -23.5q7.8 -25.4 -5.8 -42.9t-37.2 -19.6q-52.7 -1.9 -87.8 -35.1Q814.5 541 812.5 488.3v-62.5q-2 -23.5 -19.5 -37.1t-43 -7.8l-23.4 9.7q-54.7 17.6 -109.4 2L558.6 377q-7.8 -2 -15.6 -2 11.7 29.3 5.8 64.5l-11.7 68.3q-3.9 23.5 2 48.8l9.7 46.9q7.8 37.1 -7.8 70.3zm-291 -291q-25.4 -7.8 -43 5.9 -17.5 13.6 -19.5 37.1v62.5q-2 52.7 -35.2 87.9 -35.1 33.2 -87.8 35.1 -23.5 2 -37.2 19.6t-5.8 42.9l7.8 23.5q17.6 54.7 2 109.3l-9.8 37.2q-5.9 29.2 11.7 46.8t46.9 11.7l37.1 -9.7q54.7 -15.6 109.4 1.9l23.4 7.8q25.4 7.9 43 -5.8t19.5 -37.1v-62.5q2 -52.8 35.2 -87.9 35.1 -33.2 87.8 -35.2 23.5 -1.9 37.2 -19.5t7.8 -43l-9.8 -23.4q-17.6 -54.7 -1.9 -109.4l9.7 -37.1q5.9 -29.3 -11.7 -46.9t-44.9 -11.7l-39.1 9.8q-54.7 15.6 -109.4 -2L250 382.8zM750 205.1Q748 152.3 703.1 123q-46.8 -23.4 -93.7 0 -44.9 29.3 -46.9 82.1 2 52.7 46.9 82 46.9 23.4 93.7 0 44.9 -29.3 46.9 -82z"/></svg>