<svg height="1000" width="1125" xmlns="http://www.w3.org/2000/svg"><path d="M875 388.7V236.3v152.4V236.3h31.3l19.5 39.1q19.5 37.1 56.6 50.8t76.2 0q62.5 -29.3 66.4 -97.7V80.1q-2 -58.6 -43 -93.8h11.8q29.2 -1.9 31.2 -31.2 -2 -29.3 -31.2 -31.3H875q-105.5 2 -177.7 72.3Q627 68.4 625 173.8H291q-93.7 3.9 -142.6 80.1Q84 263.7 43 310.5T0 423.8v109.4q3.9 43 46.9 46.9 42.9 -3.9 46.9 -46.9V423.8q1.9 -41 33.2 -62.5 3.9 37.1 25.3 70.3l56.7 82.1q21.5 41 -3.9 82 -48.8 85.9 -19.6 183.6l35.2 101.6q15.6 41 58.6 42.9h66.4q33.2 -1.9 50.8 -25.4 17.6 -25.4 7.8 -56.6l-41 -123q-5.9 -19.6 9.7 -35.2l23.5 -23.4q41 -41.1 41 -97.7v-13.7l164.1 46.9q11.7 3.9 23.4 5.9v259.7q0 27.4 17.6 45t44.9 17.5H750q27.3 0 44.9 -17.5t17.6 -45V541Q871.1 482.4 875 392.6v-3.9zM968.8 48.8q29.2 2 31.2 31.3 -2 29.3 -31.2 31.2 -29.3 -1.9 -31.3 -31.2 2 -29.3 31.3 -31.3z"/></svg>