<svg height="1000" width="1250" xmlns="http://www.w3.org/2000/svg"><path d="M125 830.1V543v287.1V543q2 -162.1 91.8 -289.1T459 72.3L789.1 -44.9q33.2 -11.7 58.6 7.8Q873 -19.5 875 13.7q0 35.1 -29.3 54.7l-64.4 42.9q72.2 0 128.9 41 56.6 39.1 82 105.5l95.7 252q15.6 46.8 5.9 95.7 -9.8 46.8 -45 82 -48.8 46.9 -117.2 48.8h-7.8q-80 -1.9 -130.8 -62.5l-64.5 -74.2q-33.2 11.7 -72.2 11.7 -19.6 0 -37.2 -3.9 -9.7 0 -19.5 -3.9Q511.7 578.1 466.8 502q-17.6 -23.5 -43 -11.8 -23.4 17.6 -11.7 43 37.1 62.5 97.7 99.6t134.7 41l93.8 138.7q11.7 17.6 11.7 39.1 -2 31.2 -21.5 50.7 -19.5 21.5 -50.8 21.5H218.8q-39.1 -1.9 -66.5 -27.3Q127 869.1 125 830.1zM765.6 361.3q43 -3.9 46.9 -46.8 -3.9 -43 -46.9 -46.9 -42.9 3.9 -46.8 46.9 3.9 42.9 46.8 46.8z"/></svg>