<svg height="1000" width="1125" xmlns="http://www.w3.org/2000/svg"><path d="M93.8 -76.2q-39.1 2 -66.5 27.4Q2 -21.5 0 17.6v406.2h281.3q29.2 2 31.2 31.3 -2 29.3 -31.2 31.2H0v125h281.3q29.2 2 31.2 31.3 -2 29.3 -31.2 31.2H0v156.3q2 39 27.3 66.4 27.4 25.4 66.5 27.3h425.7Q500 892.6 500 855.5q0 -70.3 35.2 -125 33.2 -56.7 89.8 -87.9v-625q-2 -39.1 -27.3 -66.4 -27.4 -25.4 -66.4 -27.4H93.8zm203.1 125h31.2 -31.2 31.2q29.3 2 31.3 31.3V127h46.9q29.2 1.9 31.2 31.2v31.3q-2 29.3 -31.2 31.2h-46.9v46.9q-2 29.3 -31.3 31.2h-31.2q-29.3 -1.9 -31.3 -31.2v-46.9h-46.8q-29.3 -1.9 -31.3 -31.2v-31.3q2 -29.3 31.3 -31.2h46.8V80.1q2 -29.3 31.3 -31.3zM1000 455.1q-2 -87.9 -78.1 -134.8 -78.1 -43 -156.3 0 -76.1 46.9 -78.1 134.8 2 87.9 78.1 134.7 78.2 43 156.3 0Q998 543 1000 455.1zM562.5 855.5q0 29.3 19.5 48.8 19.6 19.5 48.9 19.5h425.7q29.3 0 48.9 -19.5t19.5 -48.8q-2 -76.2 -52.7 -128.9 -52.8 -50.8 -128.9 -52.8H744.1q-76.1 2 -128.9 52.8 -50.7 52.7 -52.7 128.9z"/></svg>