<svg height="1000" width="1250" xmlns="http://www.w3.org/2000/svg"><path d="M375 17.6q2 -39.1 27.3 -66.4 27.4 -25.4 66.5 -27.4h312.5q39 2 66.4 27.4Q873 -21.5 875 17.6v906.2H718.8V767.6q-2 -39.1 -27.4 -66.4Q664.1 675.8 625 673.8q-39.1 2 -66.4 27.4 -25.4 27.3 -27.3 66.4v156.2H375V17.6zM93.8 111.3h218.7H93.8h218.7v812.5H93.8Q54.7 921.9 27.3 896.5 2 869.1 0 830.1V548.8h156.3q29.2 -1.9 31.2 -31.2 -2 -29.3 -31.2 -31.3H0v-125h156.3q29.2 -1.9 31.2 -31.2 -2 -29.3 -31.2 -31.3H0v-93.7Q2 166 27.3 138.7q27.4 -25.4 66.5 -27.4zm1062.5 0q39 2 66.4 27.4 25.3 27.3 27.3 66.4v93.7h-156.2q-29.3 2 -31.3 31.3 2 29.3 31.3 31.2H1250v125h-156.2q-29.3 2 -31.3 31.3 2 29.3 31.3 31.2H1250v281.3q-2 39 -27.3 66.4 -27.4 25.4 -66.4 27.3H937.5V111.3h218.8zM609.4 48.8q-29.3 2 -31.3 31.3V127h-46.8Q502 128.9 500 158.2v31.3q2 29.3 31.3 31.2h46.8v46.9q2 29.3 31.3 31.2h31.2q29.3 -1.9 31.3 -31.2v-46.9h46.9Q748 218.8 750 189.5v-31.3Q748 128.9 718.8 127h-46.9V80.1q-2 -29.3 -31.3 -31.3h-31.2z"/></svg>