<svg height="1000" width="1000" xmlns="http://www.w3.org/2000/svg"><path d="M531.3 -29.3q-4 -43 -46.9 -46.9 -43 3.9 -46.9 46.9v9.8q2 103.5 78.1 173.8l31.3 29.3q44.9 43 46.9 105.5v25.4q3.9 42.9 46.8 46.8 43 -3.9 46.9 -46.8v-25.4q-2 -103.6 -78.1 -173.9L578.1 85.9Q533.2 43 531.3 -19.5v-9.8zM0 548.8v31.3 -31.3 250q2 52.8 37.1 87.9t87.9 37.1h750q52.7 -1.9 87.9 -37.1t37.1 -87.9v-250q-2 -52.7 -37.1 -87.9T875 423.8H541q-41 0 -74.2 -25.4l-166 -125Q250 236.3 187.5 236.3q-80.1 2 -132.8 54.7T0 423.8v125zm250 31.3v187.5V580.1v187.5q-2 29.3 -31.2 31.2 -29.3 -1.9 -31.3 -31.2V580.1q2 -29.3 31.3 -31.3 29.2 2 31.2 31.3zm156.3 -31.3q29.2 2 31.2 31.3v187.5q-2 29.3 -31.2 31.2Q377 796.9 375 767.6V580.1q2 -29.3 31.3 -31.3zM625 580.1v187.5V580.1v187.5q-2 29.3 -31.2 31.2 -29.3 -1.9 -31.3 -31.2V580.1q2 -29.3 31.3 -31.3 29.2 2 31.2 31.3zm156.3 -31.3q29.2 2 31.2 31.3v187.5q-2 29.3 -31.2 31.2Q752 796.9 750 767.6V580.1q2 -29.3 31.3 -31.3zm-78.2 -625q-42.9 3.9 -46.8 46.9v9.8q1.9 103.5 78.1 173.8l31.2 29.3q44.9 43 46.9 105.5v25.4q3.9 42.9 46.9 46.8 42.9 -3.9 46.9 -46.8v-25.4q-2 -103.6 -78.2 -173.9L796.9 85.9Q752 43 750 -19.5v-9.8q-3.9 -43 -46.9 -46.9zM125 173.8q70.3 -1.9 107.4 -62.5 35.2 -62.5 0 -125Q195.3 -74.2 125 -76.2q-70.3 2 -107.4 62.5 -35.2 62.5 0 125 37.1 60.6 107.4 62.5z"/></svg>