<svg height="1000" width="1000" xmlns="http://www.w3.org/2000/svg"><path d="M955.1 -31.3Q1000 17.6 1000 80.1q0 62.5 -44.9 111.3L267.6 878.9q-48.8 44.9 -111.3 44.9T46.9 878.9Q0 830.1 0 767.6T46.9 656.3L734.4 -31.3q46.9 -44.9 109.4 -44.9t111.3 44.9zm-89.9 136.8q-21.4 -19.6 -42.9 0 -35.2 31.2 -74.3 33.2l-3.9 1.9h-1.9q-19.5 2 -44.9 11.7 -23.5 7.9 -46.9 31.3t-33.2 50.8q-9.8 25.4 -13.7 48.8l-1.9 2q-5.9 42.9 -29.3 70.3 -27.4 23.4 -70.3 29.3l-2 1.9q-23.4 3.9 -48.8 13.7 -27.4 9.8 -50.8 33.2t-33.2 50.8q-9.8 25.4 -13.7 48.8l-1.9 2q-5.9 42.9 -29.3 70.3 -25.4 21.5 -64.5 25.4h-1.9q-23.5 3.9 -50.8 13.6 -27.4 11.8 -54.7 39.1 -19.5 21.5 0 43 21.5 19.5 43 0 35.1 -31.3 74.2 -33.2l3.9 -2h1.9q19.6 -1.9 45 -11.7 23.4 -7.8 46.8 -31.3t33.2 -50.7q9.8 -25.4 13.7 -48.9l2 -1.9q5.8 -43 29.3 -70.3 27.3 -23.5 70.3 -29.3l1.9 -2q23.5 -3.9 48.9 -13.7 27.3 -9.7 50.7 -33.2t33.2 -50.7q9.8 -25.4 13.7 -48.9l2 -1.9q5.8 -43 29.3 -70.3 25.4 -21.5 64.4 -25.4h2q23.4 -3.9 50.7 -13.7 27.4 -11.7 54.7 -39.1 19.6 -21.4 0 -42.9zM373 859.4L935.5 296.9 373 859.4 935.5 296.9l31.3 31.2q33.2 33.2 33.2 80.1t-33.2 80.1L564.5 890.6q-33.2 33.2 -80.1 33.2t-80.1 -33.2L373 859.4zM33.2 519.5Q0 486.3 0 439.5t33.2 -80.1L435.5 -43q33.3 -33.2 80.1 -33.2t80.1 33.2l31.3 31.3L64.5 550.8 33.2 519.5z"/></svg>