<svg height="1000" width="1000" xmlns="http://www.w3.org/2000/svg"><path d="M0 -13.7Q0 -41 17.6 -58.6q17.6 -17.6 44.9 -17.6h875q27.3 0 44.9 17.6t17.6 44.9 -17.6 45 -44.9 17.5v750q27.3 0 44.9 17.6t17.6 44.9 -17.6 45 -44.9 17.5H593.8v-93.7q-2 -39.1 -27.4 -66.4Q539.1 738.3 500 736.3q-39.1 2 -66.4 27.4 -25.4 27.3 -27.3 66.4v93.7H62.5q-27.3 0 -44.9 -17.5T0 861.3t17.6 -44.9 44.9 -17.6v-750q-27.3 0 -44.9 -17.5T0 -13.7zm187.5 156.3v62.5 -62.5 62.5q2 29.3 31.3 31.2h62.5q29.2 -1.9 31.2 -31.2v-62.5q-2 -29.3 -31.2 -31.3h-62.5q-29.3 2 -31.3 31.3zm281.3 -31.3q-29.3 2 -31.3 31.3v62.5q2 29.3 31.3 31.2h62.5q29.2 -1.9 31.2 -31.2v-62.5q-2 -29.3 -31.2 -31.3h-62.5zm218.7 31.3v62.5 -62.5 62.5q2 29.3 31.3 31.2h62.5q29.2 -1.9 31.2 -31.2v-62.5q-2 -29.3 -31.2 -31.3h-62.5q-29.3 2 -31.3 31.3zM218.8 298.8q-29.3 2 -31.3 31.3v62.5q2 29.3 31.3 31.2h62.5q29.2 -1.9 31.2 -31.2v-62.5q-2 -29.3 -31.2 -31.3h-62.5zm218.7 31.3v62.5 -62.5 62.5q2 29.3 31.3 31.2h62.5q29.2 -1.9 31.2 -31.2v-62.5q-2 -29.3 -31.2 -31.3h-62.5q-29.3 2 -31.3 31.3zm281.3 -31.3q-29.3 2 -31.3 31.3v62.5q2 29.3 31.3 31.2h62.5q29.2 -1.9 31.2 -31.2v-62.5q-2 -29.3 -31.2 -31.3h-62.5zm-78.2 375q19.6 0 33.2 -13.6 11.7 -13.7 7.8 -33.2 -17.5 -62.5 -66.4 -99.7 -48.8 -39 -115.2 -41 -66.4 2 -115.2 41 -48.9 37.2 -66.4 99.7 -3.9 19.5 7.8 33.2 13.6 13.6 33.2 13.6h281.2z"/></svg>