<svg height="1000" width="750" xmlns="http://www.w3.org/2000/svg"><path d="M62.5 -76.2q-27.3 0 -44.9 17.6Q0 -41 0 -13.7t17.6 45 44.9 17.5v21.5q2 128.9 91.8 220.7l132.8 132.8L154.3 556.6Q64.5 648.4 62.5 777.3v21.5q-27.3 0 -44.9 17.6T0 861.3t17.6 45 44.9 17.5h625q27.3 0 44.9 -17.5t17.6 -45 -17.6 -44.9 -44.9 -17.6v-21.5q-2 -128.9 -91.8 -220.7L462.9 423.8 595.7 291q89.8 -91.8 91.8 -220.7V48.8q27.3 0 44.9 -17.5t17.6 -45 -17.6 -44.9 -44.9 -17.6h-625zm500 853.5v21.5 -21.5 21.5h-375v-21.5q2 -78.1 54.7 -132.8L375 511.7l132.8 132.8q52.7 56.7 54.7 132.8z"/></svg>