<svg height="1000" width="1250" xmlns="http://www.w3.org/2000/svg"><path d="M937.5 -76.2q27.3 0 44.9 17.6 17.6 17.6 17.6 44.9h218.8q29.2 2 31.2 31.3v250q-2 29.3 -31.2 31.2H1000v625H875V-13.7q0 -27.3 17.6 -44.9t44.9 -17.6zM541 2l271.5 232.4L541 2l271.5 232.4v689.4h2 -627q-27.3 0 -44.9 -17.5t-17.6 -45v-375H62.5q-43 -1.9 -58.6 -41Q-9.8 404.3 21.5 377L459 2q41 -31.3 82 0zM437.5 330.1v93.7 -93.7 93.7h-93.7q-29.3 2 -31.3 31.3v62.5q2 29.3 31.3 31.2h93.7v93.8q2 29.3 31.3 31.2h62.5q29.2 -1.9 31.2 -31.2v-93.8h93.8q29.2 -1.9 31.2 -31.2v-62.5q-2 -29.3 -31.2 -31.3h-93.8v-93.7q-2 -29.3 -31.2 -31.3h-62.5q-29.3 2 -31.3 31.3z"/></svg>