<svg height="1000" width="1125" xmlns="http://www.w3.org/2000/svg"><path d="M1125 423.8q-2 25.4 -19.5 43 -17.6 17.6 -43 19.5H1000l2 312.5q-2 52.8 -37.2 87.9T877 923.8H636.7l-74.2 -125L720.7 668q21.5 -25.4 -1.9 -48.9L490.2 437.5q-23.4 -13.7 -41 2 -17.6 17.5 -3.9 41l117.2 162.1 -166 138.7q-19.5 17.5 -7.8 41l60.5 101.5H250q-52.7 -1.9 -87.9 -37.1T125 798.8V486.3H62.5Q35.2 484.4 17.6 466.8T0 423.8Q0 396.5 19.5 377l500 -437.5q21.5 -17.6 43 -15.7 23.4 0 41 13.7l209 183.6V48.8q0 -27.3 17.6 -44.9T875 -13.7h62.5q27.3 0 44.9 17.6t17.6 44.9v236.4l103.5 89.8q23.5 21.5 21.5 46.9v1.9z"/></svg>