<svg height="1000" width="1250" xmlns="http://www.w3.org/2000/svg"><path d="M627 611.3Q640.6 476.6 736.3 388.7q95.7 -86 232.5 -89.9 25.3 0 50.7 3.9l-414 -365.2q-19.6 -13.7 -41 -13.7 -21.5 -1.9 -43 15.7L19.5 377Q0 396.5 0 423.8q0 25.4 17.6 43t44.9 19.5H125v359.4q0 33.2 23.4 54.7 21.5 23.4 54.7 23.4h156.3q33.2 0 54.7 -23.4 21.4 -21.5 23.4 -54.7V673.8q0 -27.3 17.6 -44.9T500 611.3h127zm623 31.3q0 -76.2 -37.1 -140.6 -37.1 -64.5 -103.5 -103.6Q1043 361.3 968.8 361.3t-140.7 37.1Q761.7 437.5 724.6 502t-37.1 140.6 37.1 140.6 103.5 103.5q66.4 37.1 140.7 37.1t140.6 -37.1q66.4 -39 103.5 -103.5T1250 642.6zm-150.4 -84q19.5 21.5 0 43L959 742.2q-21.5 19.5 -43 0l-78.1 -78.1q-19.5 -21.5 0 -43 21.5 -19.5 43 0l56.6 54.7 119.1 -117.2q21.5 -19.5 43 0z"/></svg>