<svg height="1000" width="1250" xmlns="http://www.w3.org/2000/svg"><path d="M625 642.6q0 87.9 39.1 160.1 39 74.3 107.4 121.1H250q-52.7 -1.9 -87.9 -37.1T125 798.8V486.3H62.5Q35.2 484.4 17.6 466.8T0 423.8Q0 396.5 19.5 377l500 -437.5q21.5 -17.6 43 -15.7 23.4 0 41 13.7l416 365.2q-25.4 -3.9 -50.7 -3.9 -80.1 0 -148.5 33.2t-117.2 91.8H625v-93.7q-2 -29.3 -31.2 -31.3h-62.5q-29.3 2 -31.3 31.3v93.7h-93.7q-29.3 2 -31.3 31.3v62.5q2 29.3 31.3 31.2H500v93.8q2 29.3 31.3 31.2h62.5Q623 671.9 625 642.6zm62.5 0q0 -76.2 37.1 -140.6 37.1 -64.5 103.5 -103.6 66.4 -37.1 140.7 -37.1t140.6 37.1q66.4 39.1 103.5 103.6t37.1 140.6 -37.1 140.6 -103.5 103.5q-66.4 37.1 -140.6 37.1T828.1 886.7q-66.4 -39 -103.5 -103.5T687.5 642.6zm412.1 -84q-21.5 -19.5 -43 0L937.5 675.8l-56.6 -54.7q-21.5 -19.5 -43 0 -19.5 21.5 0 43l78.1 78.1q21.5 19.5 43 0l140.6 -140.6q19.5 -21.5 0 -43z"/></svg>