<svg height="1000" width="1250" xmlns="http://www.w3.org/2000/svg"><path d="M937.5 -76.2q-27.3 0 -44.9 17.6Q875 -41 875 -13.7v937.5h125v-625h218.8q29.2 -1.9 31.2 -31.2v-250q-2 -29.3 -31.2 -31.3H1000q0 -27.3 -17.6 -44.9t-44.9 -17.6zm-125 310.6L541 2l271.5 232.4L541 2q-41 -31.3 -82 0L21.5 377Q-9.8 404.3 3.9 445.3q15.6 39.1 58.6 41H125v375q0 27.4 17.6 45t44.9 17.5h125q27.3 0 44.9 -17.5t17.6 -45V673.8q0 -27.3 17.6 -44.9t44.9 -17.6h125q27.3 0 44.9 17.6t17.6 44.9v187.5q0 27.4 17.6 45t44.9 17.5h127 -2V234.4z"/></svg>