<svg height="1000" width="1125" xmlns="http://www.w3.org/2000/svg"><path d="M158.2 191.4Q193.4 127 259.8 87.9 324.2 50.8 408.2 48.8q48.8 0 93.8 15.7 25.3 7.8 48.8 -4Q572.3 48.8 582 23.4q7.8 -25.4 -3.9 -46.8Q566.4 -46.9 541 -54.7 478.5 -76.2 408.2 -76.2 236.3 -72.3 121.1 37.1 3.9 146.5 0 314.5q2 136.7 74.2 240.2t203.1 138.7q39.1 11.7 82.1 11.7H375q95.7 -5.9 156.3 -37.1 17.5 -7.8 31.2 -15.7 13.7 7.9 31.3 15.7 60.5 31.2 156.2 37.1 97.7 -2 185.5 -50.8 39.1 29.3 113.3 48.8 25.4 5.9 46.9 -7.8t27.3 -39 -7.8 -46.9 -39 -27.4q-54.7 -13.6 -97.7 -48.8 -37.1 -29.3 -78.1 -3.9Q832 576.2 750 580.1q-82 -2 -150.4 -50.8 -37.1 -23.4 -72.3 0Q459 578.1 375 580.1q-37.1 0 -68.4 -7.8 -52.7 -17.6 -85.9 -62.5 -33.2 -43 -33.2 -101.6 2 -72.3 50.8 -121.1t121.1 -50.8q41 0 74.2 15.7 23.4 11.7 46.9 1.9 23.4 -7.8 35.1 -31.2 11.7 -25.4 2 -48.9 -7.8 -23.4 -31.3 -35.1Q427.7 111.3 359.4 111.3q-119.2 2 -201.2 80.1zm492.2 -37.1Q625 173.8 625 205.1v236.3q2 0 2 2l7.8 3.9q54.7 39 115.2 39 58.6 0 115.2 -39 37.1 -23.5 78.2 -21.5 41 0 74.2 29.3 33.2 25.4 74.2 35.1 15.6 3.9 31.2 11.8 2 -7.9 2 -15.7l-2 -281.2q0 -31.3 -23.4 -50.8L912.1 13.7q-37.1 -23.5 -74.2 0L650.4 154.3zM750 798.8Q668 796.9 599.6 748q-37.1 -23.4 -72.3 0Q459 796.9 375 798.8 293 794.9 224.6 748q-41 -25.3 -78.1 4 -43 35.1 -97.7 48.8 -25.4 5.8 -39 27.3T2 875t27.3 39.1 46.9 7.8Q150.4 902.3 191.4 873q85.9 48.9 183.6 50.8 95.7 -5.8 156.3 -37.1 17.5 -7.8 31.2 -15.6 13.7 7.8 31.3 15.6Q654.3 918 750 923.8q97.7 -1.9 185.5 -50.8 39.1 29.3 113.3 48.9 25.4 5.8 46.9 -7.8T1123 875t-7.8 -46.9 -39 -27.3Q1021.5 787.1 978.5 752q-37.1 -27.4 -78.1 -4Q832 794.9 750 798.8z"/></svg>