<svg height="1000" width="1250" xmlns="http://www.w3.org/2000/svg"><path d="M627 611.3Q640.6 476.6 736.3 388.7q95.7 -86 232.5 -89.9 25.3 0 50.7 3.9l-414 -365.2q-19.6 -13.7 -41 -13.7 -21.5 -1.9 -43 15.7L19.5 377Q0 396.5 0 423.8q0 25.4 17.6 43t44.9 19.5H125v359.4q0 33.2 23.4 54.7 21.5 23.4 54.7 23.4h156.3q33.2 0 54.7 -23.4 21.4 -21.5 23.4 -54.7V673.8q0 -27.3 17.6 -44.9T500 611.3h127zm341.8 312.5q76.1 0 140.6 -37.1 64.4 -37.1 103.5 -103.5Q1250 716.8 1250 642.6T1212.9 502q-39.1 -66.5 -103.5 -103.6T968.8 361.3t-140.7 37.1T724.6 502q-37.1 66.4 -37.1 140.6t37.1 140.6q39.1 66.4 103.5 103.5t140.7 37.1zM1084 570.3l-70.3 72.3 70.3 -72.3 -70.3 72.3 70.3 72.2q19.5 21.5 0 43 -21.5 19.5 -43 0l-72.2 -70.3 -72.3 70.3q-21.5 19.5 -43 0 -19.5 -21.5 0 -43l70.3 -72.2 -70.3 -72.3q-19.5 -21.5 0 -43 21.5 -19.5 43 0l72.3 70.4 72.2 -70.4q21.5 -19.5 43 0 19.5 21.5 0 43z"/></svg>