<svg height="1000" width="1250" xmlns="http://www.w3.org/2000/svg"><path d="M625 642.6q0 87.9 39.1 160.1 39 74.3 107.4 121.1H250q-52.7 -1.9 -87.9 -37.1T125 798.8V486.3H62.5Q35.2 484.4 17.6 466.8T0 423.8Q0 396.5 19.5 377l500 -437.5q21.5 -17.6 43 -15.7 23.4 0 41 13.7l416 365.2q-25.4 -3.9 -50.7 -3.9 -80.1 0 -148.5 33.2t-117.2 91.8H625v-93.7q-2 -29.3 -31.2 -31.3h-62.5q-29.3 2 -31.3 31.3v93.7h-93.7q-29.3 2 -31.3 31.3v62.5q2 29.3 31.3 31.2H500v93.8q2 29.3 31.3 31.2h62.5Q623 671.9 625 642.6zM968.8 361.3q76.1 0 140.6 37.1 64.4 37.1 103.5 103.6 37.1 66.4 37.1 140.6t-37.1 140.6q-39.1 66.4 -103.5 103.5t-140.6 37.1T828.1 886.7 724.6 783.2Q687.5 716.8 687.5 642.6T724.6 502q39.1 -66.5 103.5 -103.6t140.7 -37.1zm44.9 281.3l70.3 -72.3 -70.3 72.3 70.3 -72.3q19.5 -21.5 0 -43 -21.5 -19.5 -43 0l-72.2 70.4 -72.3 -70.4q-21.5 -19.5 -43 0 -19.5 21.5 0 43l70.3 72.3 -70.3 72.2q-19.5 21.5 0 43 21.5 19.5 43 0l72.3 -70.3 72.2 70.3q21.5 19.5 43 0 19.5 -21.5 0 -43l-70.3 -72.2z"/></svg>