<svg height="1000" width="1125" xmlns="http://www.w3.org/2000/svg"><path d="M1125 423.8q-2 25.4 -19.5 43 -17.6 17.6 -43 19.5H1000l2 312.5q-2 52.8 -37.2 87.9T877 923.8H250q-52.7 -1.9 -87.9 -37.1T125 798.8V486.3H62.5Q35.2 484.4 17.6 466.8T0 423.8Q0 396.5 19.5 377l500 -437.5q21.5 -17.6 43 -15.7 23.4 0 41 13.7l500 439.5q23.5 19.5 21.5 46.8zM687.5 361.3Q685.5 291 625 253.9q-62.5 -35.1 -125 0Q439.5 291 437.5 361.3q2 70.3 62.5 107.5 62.5 35.1 125 0 60.5 -37.2 62.5 -107.5zM500 548.8q-66.4 2 -111.3 45 -43 44.9 -44.9 111.3 1.9 29.3 31.2 31.2h375q29.3 -1.9 31.3 -31.2 -2 -66.4 -45 -111.3 -44.9 -43 -111.3 -45H500z"/></svg>