<svg height="1000" width="1125" xmlns="http://www.w3.org/2000/svg"><path d="M1062.5 486.3q25.4 -1.9 43 -19.5 17.5 -17.6 19.5 -43 2 -27.3 -21.5 -46.8L1000 285.2V48.8q0 -27.3 -17.6 -44.9t-44.9 -17.6H875q-27.3 0 -44.9 17.6t-17.6 44.9v72.3l-207 -183.6q-19.6 -13.7 -41 -13.7 -21.5 -1.9 -43 15.7L19.5 377Q0 396.5 0 423.8q0 25.4 17.6 43t44.9 19.5H125v359.4q0 33.2 23.4 54.7 21.5 23.4 54.7 23.4h156.3q33.2 0 54.7 -23.4 21.4 -21.5 23.4 -54.7V673.8q0 -27.3 17.6 -44.9T500 611.3h125q27.3 0 44.9 17.6t17.6 44.9v171.9q0 33.2 23.4 54.7 21.5 23.4 54.7 23.4h156.3q33.2 0 54.7 -23.4Q998 878.9 1000 845.7V486.3h62.5z"/></svg>