<svg height="1000" width="1250" xmlns="http://www.w3.org/2000/svg"><path d="M562.5 607.4v3.9 -3.9 3.9H500q-27.3 0 -44.9 17.6t-17.6 44.9v171.9q0 33.2 -23.4 54.7 -21.5 23.4 -54.7 23.4H203.1q-33.2 0 -54.7 -23.4Q125 878.9 125 845.7V486.3H62.5Q35.2 484.4 17.6 466.8T0 421.9Q0 396.5 19.5 375l500 -435.5q21.5 -17.6 43 -15.7 23.4 0 41 13.7L873 173.8q-37.1 -1.9 -66.4 23.5Q701.2 293 634.8 398.4 603.5 447.3 584 502q-21.5 52.7 -21.5 105.4zm375 316.4Q804.7 919.9 716.8 832 628.9 744.1 625 611.3q5.9 -113.3 72.3 -205Q763.7 312.5 834 261.7 849.6 250 867.2 250q23.4 0 43 17.6l89.8 89.8 21.5 -21.5q19.5 -17.5 41 -19.5 23.4 0 43 17.6 84 85.9 115.2 158.2t29.3 119.1q-3.9 132.8 -91.8 220.7t-220.7 91.8zm125 -218.7q-3.9 -54.7 -41 -101.6 -37.1 -46.9 -66.4 -70.3 -17.6 -13.7 -35.2 0 -29.3 23.4 -66.4 70.3t-41 101.6q2 52.7 37.1 87.9 35.2 37.1 87.9 37.1t87.9 -37.1q35.1 -35.2 37.1 -87.9z"/></svg>