<svg height="1000" width="1250" xmlns="http://www.w3.org/2000/svg"><path d="M562.5 205.1q0 -76.2 -37.1 -140.6Q488.3 0 421.9 -39.1 355.5 -76.2 281.3 -76.2t-140.7 37.1Q74.2 0 37.1 64.5T0 205.1t37.1 140.6 103.5 103.5q66.4 37.1 140.7 37.1t140.6 -37.1q66.4 -39 103.5 -103.5t37.1 -140.6zM275.4 74.2q21.5 -19.5 43 0l109.3 109.4q19.6 21.5 0 43L318.4 335.9q-21.5 19.6 -43 0 -19.5 -21.4 0 -42.9l54.7 -56.7H156.3Q127 234.4 125 205.1q2 -29.3 31.3 -31.3h173.8l-54.7 -56.6q-19.5 -21.5 0 -43zM625 205.1q0 84 -37.1 156.2 -37.1 70.3 -99.6 117.2 35.1 -9.7 64.4 -31.2 33.2 -23.5 72.3 -23.5t72.3 23.5q56.6 39 115.2 39t115.2 -39q37.1 -23.5 78.2 -23.5 41 2 74.2 29.3 7.8 5.9 13.7 9.8V298.8h31.2q44.9 -1.9 60.5 -42.9 9.8 -43 -23.4 -70.4l-343.7 -250q-37.1 -23.4 -74.3 0L587.9 48.8Q625 121.1 625 205.1zm37.1 324.2q-37.1 -23.4 -72.3 0 -68.3 48.8 -152.3 50.8 -82 -3.9 -150.4 -50.8 -41 -25.4 -78.1 3.9 -43 35.2 -97.7 48.8 -25.4 5.9 -39 27.4t-7.8 46.9 27.3 39 46.9 7.8q74.2 -19.5 115.2 -48.8 85.9 48.8 183.6 50.8 95.7 -5.9 156.3 -37.1 17.5 -7.8 31.2 -15.7 13.7 7.9 31.3 15.7 60.5 31.2 156.2 37.1 97.7 -2 185.5 -50.8 39.1 29.3 113.3 48.8 25.4 5.9 46.9 -7.8t27.3 -39 -7.8 -46.9 -39 -27.4Q1084 568.4 1041 533.2q-37.1 -29.3 -78.1 -3.9 -68.4 46.9 -150.4 50.8 -82 -2 -150.4 -50.8zm0 218.7q-37.1 -23.4 -72.3 0 -68.3 48.9 -152.3 50.8 -82 -3.9 -150.4 -50.8 -41 -25.3 -78.1 4 -43 35.1 -97.7 48.8 -25.4 5.8 -39 27.3T64.5 875t27.3 39.1 46.9 7.8Q212.9 902.3 253.9 873q85.9 48.9 183.6 50.8 95.7 -5.8 156.3 -37.1 17.5 -7.8 31.2 -15.6 13.7 7.8 31.3 15.6 60.5 31.3 156.2 37.1Q910.2 921.9 998 873q39.1 29.3 113.3 48.9 25.4 5.8 46.9 -7.8t27.3 -39.1 -7.8 -46.9 -39 -27.3Q1084 787.1 1041 752q-37.1 -27.4 -78.1 -4 -68.4 46.9 -150.4 50.8 -82 -1.9 -150.4 -50.8z"/></svg>