<svg height="1000" width="1250" xmlns="http://www.w3.org/2000/svg"><path d="M750 861.3q0 35.2 17.6 62.5h-2q-33.2 0 -54.7 -23.4 -23.4 -21.5 -23.4 -54.7V673.8q0 -27.3 -17.6 -44.9T625 611.3H500q-27.3 0 -44.9 17.6t-17.6 44.9v171.9q0 33.2 -23.4 54.7 -21.5 23.4 -54.7 23.4H203.1q-33.2 0 -54.7 -23.4Q125 878.9 125 845.7V486.3H62.5Q35.2 484.4 17.6 466.8T0 421.9Q0 396.5 19.5 375l500 -435.5q21.5 -17.6 43 -15.7 23.4 0 41 13.7L959 248q-66.4 23.5 -105.5 80.1 -39 54.7 -41 127v48.8Q753.9 539.1 750 611.3v250zm281.3 -468.7q-27.4 0 -45 17.6 -17.5 17.5 -17.5 44.9v93.7h125v-93.7q0 -27.4 -17.6 -44.9t-44.9 -17.6zM875 455.1q2 -66.4 44.9 -111.3 44.9 -43 111.4 -45 66.4 2 111.3 45 42.9 44.9 44.9 111.3v93.7q27.3 0 44.9 17.6t17.6 44.9v250q0 27.4 -17.6 45t-44.9 17.5H875q-27.3 0 -44.9 -17.5t-17.6 -45v-250q0 -27.3 17.6 -44.9T875 548.8v-93.7z"/></svg>