<svg height="1000" width="1250" xmlns="http://www.w3.org/2000/svg"><path d="M425.8 -58.6q19.5 -17.6 43 -17.6 23.4 0 42.9 17.6l406.3 375q19.5 17.6 19.5 44.9H656.3q-58.6 2 -93.8 43v-74.2q-2 -29.3 -31.2 -31.3h-125q-29.3 2 -31.3 31.3v125q2 29.3 31.3 31.2h125v250H218.8Q179.7 734.4 152.3 709 127 681.6 125 642.6V423.8H62.5q-41 -1.9 -58.6 -39Q-9.8 345.7 19.5 316.4l406.3 -375zm261.7 576.2v281.2V517.6v281.2h375V517.6h-375zm-93.7 -31.3q0 -27.3 17.5 -44.9 17.6 -17.6 45 -17.6h437.5q27.3 0 44.9 17.6t17.6 44.9v312.5h62.5q29.2 2 31.2 31.3 -2 39 -27.3 66.4 -27.4 25.4 -66.4 27.3H593.8q-39.1 -1.9 -66.5 -27.3Q502 869.1 500 830.1q2 -29.3 31.3 -31.3h62.5V486.3z"/></svg>