<svg height="1000" width="1125" xmlns="http://www.w3.org/2000/svg"><path d="M1062.5 486.3q25.4 -1.9 43 -19.5 17.5 -17.6 19.5 -43 2 -27.3 -21.5 -46.8l-498 -439.5q-19.6 -13.7 -41 -13.7 -21.5 -1.9 -43 15.7L19.5 377Q0 396.5 0 423.8q0 25.4 17.6 43t44.9 19.5H125v312.5q2 52.8 37.1 87.9t87.9 37.1h625q54.7 -1.9 89.8 -37.1t35.2 -87.9V486.3h62.5zM500 330.1q2 -29.3 31.3 -31.3h62.5q29.2 2 31.2 31.3v93.7h93.8q29.2 2 31.2 31.3v62.5q-2 29.3 -31.2 31.2H625v93.8q-2 29.3 -31.2 31.2h-62.5Q502 671.9 500 642.6v-93.8h-93.7Q377 546.9 375 517.6v-62.5q2 -29.3 31.3 -31.3H500v-93.7z"/></svg>