<svg height="1000" width="1125" xmlns="http://www.w3.org/2000/svg"><path d="M699.2 -58.6q-19.5 -17.6 -42.9 -17.6 -23.5 0 -43 17.6L207 316.4q-27.3 27.4 -15.6 66.4 128.9 37.1 220.7 130.9 93.8 93.7 130.9 222.6h363.3q39 -1.9 66.4 -27.3Q998 681.6 1000 642.6V423.8h62.5q41 -1.9 58.6 -39 13.7 -39.1 -15.6 -68.4l-406.3 -375zM562.5 330.1q2 -29.3 31.3 -31.3h125q29.2 2 31.2 31.3v125q-2 29.3 -31.2 31.2h-125q-29.3 -1.9 -31.3 -31.2v-125zM46.9 423.8Q3.9 427.7 0 470.7q3.9 43 46.9 46.9 152.3 3.9 253.9 105.4t105.5 254q3.9 42.9 46.8 46.8 43 -3.9 46.9 -46.8Q498 750 437.5 648.4T275.4 486.3 46.9 423.8zm15.6 500q27.3 0 44.9 -17.5 17.6 -17.6 17.6 -45t-17.6 -44.9T62.5 798.8t-44.9 17.6T0 861.3t17.6 45 44.9 17.5zM0 658.2q3.9 43 46.9 46.9 72.2 1.9 121.1 50.8T218.8 877q3.9 42.9 46.8 46.8 43 -3.9 46.9 -46.8 -2 -113.3 -78.1 -187.5Q160.2 613.3 46.9 611.3 3.9 615.2 0 658.2z"/></svg>