<svg height="1000" width="1125" xmlns="http://www.w3.org/2000/svg"><path d="M1062.5 486.3q25.4 -1.9 43 -19.5 17.5 -17.6 19.5 -43 2 -27.3 -21.5 -46.8L1000 285.2V48.8q0 -27.3 -17.6 -44.9t-44.9 -17.6H875q-27.3 0 -44.9 17.6t-17.6 44.9v72.3l-207 -183.6q-19.6 -13.7 -41 -13.7 -21.5 -1.9 -43 15.7L19.5 377Q0 396.5 0 423.8q0 25.4 17.6 43t44.9 19.5H125v312.5q2 52.8 37.1 87.9t87.9 37.1h625q54.7 -1.9 89.8 -37.1t35.2 -87.9V486.3h62.5zm-500 -250q70.3 2 107.4 62.5 35.2 62.5 0 125 -37.1 60.6 -107.4 62.5 -70.3 -1.9 -107.4 -62.5 -35.2 -62.5 0 -125 37.1 -60.5 107.4 -62.5zM343.8 705.1q1.9 -66.4 44.9 -111.3 44.9 -43 111.3 -45h125q66.4 2 111.3 45 43 44.9 45 111.3 -2 29.3 -31.3 31.2H375q-29.3 -1.9 -31.2 -31.2z"/></svg>