<svg height="1000" width="1250" xmlns="http://www.w3.org/2000/svg"><path d="M627 611.3Q640.6 476.6 736.3 388.7q95.7 -86 232.5 -89.9 25.3 0 50.7 3.9l-414 -365.2q-19.6 -13.7 -41 -13.7 -21.5 -1.9 -43 15.7L19.5 377Q0 396.5 0 423.8q0 25.4 17.6 43t44.9 19.5H125v359.4q0 33.2 23.4 54.7 21.5 23.4 54.7 23.4h156.3q33.2 0 54.7 -23.4 21.4 -21.5 23.4 -54.7V673.8q0 -27.3 17.6 -44.9T500 611.3h127zm341.8 312.5q76.1 0 140.6 -37.1 64.4 -37.1 103.5 -103.5Q1250 716.8 1250 642.6T1212.9 502q-39.1 -66.5 -103.5 -103.6T968.8 361.3t-140.7 37.1T724.6 502q-37.1 66.4 -37.1 140.6t37.1 140.6q39.1 66.4 103.5 103.5t140.7 37.1zm0 -187.5q42.9 3.9 46.8 46.9 -3.9 43 -46.8 46.9 -43 -3.9 -46.9 -46.9 3.9 -43 46.9 -46.9zm0 -281.2q29.2 1.9 31.2 31.2v156.3q-2 29.3 -31.2 31.2 -29.3 -1.9 -31.3 -31.2V486.3q2 -29.3 31.3 -31.2z"/></svg>