<svg height="1000" width="1125" xmlns="http://www.w3.org/2000/svg"><path d="M1125 423.8q-2 25.4 -19.5 43 -17.6 17.6 -43 19.5H1000l2 312.5q-2 7.8 -2 15.7v31.2q0 33.2 -23.4 54.7 -21.5 23.4 -54.7 23.4H765.6q-33.2 0 -54.7 -23.4 -23.4 -21.5 -23.4 -54.7V673.8q0 -27.3 -17.6 -44.9T625 611.3H500q-27.3 0 -44.9 17.6t-17.6 44.9v171.9q0 33.2 -23.4 54.7 -21.5 23.4 -54.7 23.4H203.1q-33.2 0 -54.7 -23.4Q125 878.9 125 845.7V486.3H62.5Q35.2 484.4 17.6 466.8T0 421.9Q0 396.5 19.5 375l500 -435.5q21.5 -17.6 43 -15.7 23.4 0 41 13.7l500 439.5q23.5 19.5 21.5 46.8z"/></svg>