<svg height="1000" width="750" xmlns="http://www.w3.org/2000/svg"><path d="M238.3 150.4q48.8 -39.1 113.3 -39.1h83.9q41.1 2 68.4 27.4 25.4 27.3 27.4 68.3 0 35.2 -21.5 60.6H62.5q-27.3 0 -44.9 17.6T0 330.1 17.6 375t44.9 17.6h242.2l-99.6 56.6q-5.9 2 -9.8 5.9H62.5q-27.3 0 -44.9 17.6T0 517.6t17.6 44.9 44.9 17.6h39.1q-7.8 29.3 -7.8 60.5 1.9 93.8 64.4 156.3t156.3 64.4h83.9q107.5 0 191.4 -66.4l11.8 -9.7q19.5 -17.6 23.4 -41.1 2 -25.3 -13.7 -46.8 -17.5 -19.6 -41 -23.5 -25.4 -1.9 -46.9 13.7l-11.7 9.8q-48.8 39 -113.3 39h-83.9Q273.4 734.4 246.1 709q-25.4 -27.4 -27.3 -68.4 0 -35.1 21.4 -60.5h447.3q27.3 0 44.9 -17.6T750 517.6t-17.6 -44.9 -44.9 -17.6H447.3l97.6 -56.7q5.9 -1.9 9.8 -5.8h132.8q27.3 0 44.9 -17.6T750 330.1t-17.6 -44.9 -44.9 -17.6h-39.1q7.9 -29.3 7.9 -60.6 -2 -93.7 -64.5 -156.2T435.5 -13.7h-83.9q-107.5 0 -191.4 66.4l-11.8 9.8q-19.5 17.6 -23.4 41 -2 25.4 13.7 46.9 17.6 19.5 41 23.4 25.4 2 46.9 -13.6l11.7 -9.8z"/></svg>