<svg height="1000" width="750" xmlns="http://www.w3.org/2000/svg"><path d="M0 330.1Q3.9 175.8 97.7 64.5 193.4 -44.9 341.8 -70.3q29.3 -2 33.2 29.3V82q2 27.4 29.3 33.2Q554.7 138.7 650.4 250q95.7 109.4 99.6 265.6 -3.9 156.3 -97.7 265.7Q556.6 890.6 408.2 918q-29.3 0 -33.2 -29.3v-125q-2 -25.4 -29.3 -31.3Q195.3 707 99.6 595.7 3.9 486.3 0 330.1zm562.5 93.7q0 -50.8 -25.4 -93.7 -25.4 -43 -68.3 -68.4 -45 -25.4 -93.8 -25.4t-93.7 25.4q-43 25.4 -68.4 68.4t-25.4 93.7 25.4 93.8 68.4 68.3q44.9 25.4 93.7 25.4t93.8 -25.4q42.9 -25.4 68.3 -68.3t25.4 -93.8zM375 361.3q27.3 0 44.9 17.6 17.6 17.6 17.6 44.9t-17.6 45T375 486.3t-44.9 -17.5 -17.6 -45 17.6 -44.9T375 361.3z"/></svg>