<svg height="1000" width="1000" xmlns="http://www.w3.org/2000/svg"><path d="M976.6 -62.5q23.4 19.5 23.4 48.8v281.3q-2 39 -37.1 66.4 -35.2 25.4 -87.9 27.3Q822.3 359.4 787.1 334 752 306.6 750 267.6q2 -39.1 37.1 -66.4 35.2 -25.4 87.9 -27.4V62.5L687.5 99.6v230.5q-2 39 -37.1 66.4 -35.2 25.4 -87.9 27.3 -52.7 -1.9 -87.9 -27.3 -35.1 -27.4 -37.1 -66.4 2 -39.1 37.1 -66.4 35.2 -25.4 87.9 -27.4V48.8Q566.4 0 613.3 -11.7l312.5 -62.5q27.3 -5.9 50.8 11.7zM146.5 517.6l23.4 -35.2 -23.4 35.2 23.4 -35.2q17.6 -27.3 50.8 -27.3h121.1q33.2 0 50.8 27.3l23.4 35.2h52.8q39 1.9 66.4 27.3 25.3 27.4 27.3 66.4v218.8q-2 39 -27.3 66.4 -27.4 25.4 -66.4 27.3h-375Q54.7 921.9 27.3 896.5 2 869.1 0 830.1V611.3q2 -39 27.3 -66.4 27.4 -25.4 66.5 -27.3h52.7zM375 720.7q-2 -52.7 -46.9 -82 -46.8 -23.5 -93.7 0 -44.9 29.3 -46.9 82 2 52.7 46.9 82 46.9 23.5 93.7 0 44.9 -29.3 46.9 -82zM935.5 466.8l-76.1 175.8 76.1 -175.8 -76.1 175.8h109.4q21.4 0 29.2 19.5 5.9 21.5 -7.8 35.2L740.2 916q-19.5 15.6 -39 2 -19.6 -15.7 -11.7 -37.1l76.1 -175.8H656.3q-21.5 0 -29.3 -19.6 -5.9 -21.4 7.8 -35.1l250 -218.8q19.5 -15.6 39 -1.9 19.6 15.6 11.7 37.1zM273.4 351.6q-23.4 19.5 -44.9 0L39.1 156.3Q-2 111.3 0 52.7 2 -3.9 48.8 -46.9q41 -33.2 91.8 -29.3 52.8 3.9 89.9 43l19.5 19.5 19.5 -19.5q37.1 -39.1 89.9 -43 50.8 -3.9 93.7 29.3 44.9 43 46.9 99.6 2 58.6 -39.1 103.6L273.4 351.6z"/></svg>