<svg height="1000" width="1125" xmlns="http://www.w3.org/2000/svg"><path d="M500 -76.2h125H500h125q27.3 0 44.9 17.6t17.6 44.9v125q0 27.4 -17.6 45T625 173.8H500q-27.3 0 -44.9 -17.5t-17.6 -45v-125q0 -27.3 17.6 -44.9T500 -76.2zm-375 125h250H125h250v93.8q2 39 27.3 66.4 27.4 25.4 66.5 27.3h187.5q39 -1.9 66.4 -27.3Q748 181.6 750 142.6V48.8h250q52.7 2 87.9 37.1t37.1 87.9v625q-2 52.8 -37.1 87.9t-87.9 37.1H125Q72.3 921.9 37.1 886.7T0 798.8v-625Q2 121.1 37.1 85.9T125 48.8zm218.8 728.5q1.9 19.6 21.4 21.5h394.6q19.5 -1.9 21.5 -21.5 0 -42.9 -31.3 -72.2 -29.3 -29.3 -72.3 -31.3H449.2q-44.9 2 -74.2 31.3t-31.2 72.2zm218.7 -166q70.3 -1.9 107.4 -62.5 35.2 -62.5 0 -125Q632.8 363.3 562.5 361.3q-70.3 2 -107.4 62.5 -35.2 62.5 0 125 37.1 60.6 107.4 62.5z"/></svg>