<svg height="1000" width="1125" xmlns="http://www.w3.org/2000/svg"><path d="M0 111.3h1125H0h1125q-2 -52.7 -37.1 -87.9T1000 -13.7H125q-52.7 2 -87.9 37.1T0 111.3zm0 62.5v562.5V173.8v562.5q2 52.8 37.1 87.9t87.9 37.1h875q52.7 -1.9 87.9 -37.1t37.1 -87.9V173.8H0zm125 541q2 -42.9 31.3 -72.2 29.2 -29.3 72.2 -31.3H459q43 2 72.3 31.3t31.2 72.2q-2 19.6 -21.5 21.5H146.5Q127 734.4 125 714.8zm218.8 -416q70.3 2 107.4 62.5 35.1 62.5 0 125 -37.1 60.6 -107.4 62.5 -70.4 -1.9 -107.5 -62.5 -35.1 -62.5 0 -125 37.1 -60.5 107.5 -62.5zm343.7 31.3q2 -29.3 31.3 -31.3h250q29.2 2 31.2 31.3 -2 29.3 -31.2 31.2h-250q-29.3 -1.9 -31.3 -31.2zm0 125q2 -29.3 31.3 -31.3h250q29.2 2 31.2 31.3 -2 29.3 -31.2 31.2h-250q-29.3 -1.9 -31.3 -31.2zm0 125q2 -29.3 31.3 -31.3h250q29.2 2 31.2 31.3 -2 29.3 -31.2 31.2h-250q-29.3 -1.9 -31.3 -31.2z"/></svg>