<svg height="1000" width="1125" xmlns="http://www.w3.org/2000/svg"><path d="M625 -9.8v246.1V-9.8v246.1H95.7Q171.9 121.1 293 54.7t269.5 -68.4q31.3 0 62.5 3.9zm62.5 246.1V0v236.3V0q107.4 25.4 195.3 85.9t148.5 150.4H687.5zM58.6 298.8h128.9H58.6h128.9v250H0q2 -136.7 58.6 -250zm316.4 250H250h125H250v-250h625v250H750v62.5h375v156.3q-2 39 -27.3 66.4 -27.4 25.4 -66.4 27.3H687.5v-250q-2 -52.7 -37.1 -87.9t-87.9 -37.1q-52.7 2 -87.9 37.1t-37.1 87.9v250H93.8Q54.7 859.4 27.3 834 2 806.6 0 767.6V611.3h375v-62.5zm562.5 0v-250 250 -250h128.9q56.6 113.3 58.6 250H937.5z"/></svg>