<svg height="1000" width="1000" xmlns="http://www.w3.org/2000/svg"><path d="M0 111.3Q2 58.6 37.1 23.4 72.3 -11.7 125 -13.7h750q52.7 2 87.9 37.1t37.1 87.9v625q-2 52.8 -37.1 87.9T875 861.3H125Q72.3 859.4 37.1 824.2T0 736.3v-625zm632.8 209q-15.6 -21.5 -39 -21.5 -25.4 0 -39.1 21.5L384.8 568.4 334 503.9q-15.6 -17.6 -37.1 -17.6t-37.1 17.6l-125 156.3q-15.7 23.4 -5.9 48.8 13.7 25.4 43 27.3h656.2q27.4 0 41 -25.4 11.8 -25.4 -1.9 -46.8L632.8 320.3zm-414 -21.5q52.7 -1.9 82 -46.8 23.4 -46.9 0 -93.8 -29.3 -44.9 -82 -46.9 -52.8 2 -82.1 46.9 -23.4 46.9 0 93.8 29.3 44.9 82.1 46.8z"/></svg>