<svg height="1000" width="750" xmlns="http://www.w3.org/2000/svg"><path d="M750 48.8q-2 -52.7 -37.1 -87.9Q677.7 -74.2 625 -76.2H125q-52.7 2 -87.9 37.1T0 48.8v750q2 52.8 37.1 87.9t87.9 37.1h500q52.7 -1.9 87.9 -37.1T750 798.8v-750zm-500 250q2 -70.3 62.5 -107.4 62.5 -35.1 125 0Q498 228.5 500 298.8q-2 70.3 -62.5 107.5 -62.5 35.1 -125 0Q252 369.1 250 298.8zm-93.7 322.3q1.9 -58.6 39 -95.7T291 486.3h169.9q56.7 2 93.8 39.1t39.1 95.7q0 21.5 -15.7 37.1T541 673.8H210.9q-23.4 0 -39 -15.6t-15.6 -37.1z"/></svg>