<svg height="1000" width="875" xmlns="http://www.w3.org/2000/svg"><path d="M0 48.8Q0 21.5 17.6 3.9q17.6 -17.6 44.9 -17.6h750q27.3 0 44.9 17.6T875 48.8t-17.6 45 -44.9 17.5h-750q-27.3 0 -44.9 -17.5T0 48.8zm375 250q0 -27.3 17.6 -44.9 17.6 -17.6 44.9 -17.6h375q27.3 0 44.9 17.6t17.6 44.9 -17.6 45 -44.9 17.5h-375q-27.3 0 -44.9 -17.5t-17.6 -45zm62.5 187.5h375 -375 375q27.3 0 44.9 17.6t17.6 44.9 -17.6 45 -44.9 17.5h-375q-27.3 0 -44.9 -17.5t-17.6 -45 17.6 -44.9 44.9 -17.6zM0 798.8q0 -27.3 17.6 -44.9 17.6 -17.6 44.9 -17.6h750q27.3 0 44.9 17.6t17.6 44.9 -17.6 45 -44.9 17.5h-750q-27.3 0 -44.9 -17.5T0 798.8zM250 449.2L50.8 603.5 250 449.2 50.8 603.5q-17.6 11.7 -33.2 3.9T0 578.1V269.5Q2 248 17.6 240.2t33.2 3.9L250 398.4q23.4 25.4 0 50.8z"/></svg>