<svg height="1000" width="625" xmlns="http://www.w3.org/2000/svg"><path d="M0 48.8Q0 21.5 17.6 3.9q17.6 -17.6 44.9 -17.6h500q27.3 0 44.9 17.6T625 48.8t-17.6 45 -44.9 17.5H453.1q27.4 43 41 93.8h68.4q27.3 0 44.9 17.6t17.6 44.9 -17.6 44.9 -44.9 17.6h-68.4Q472.7 416 408.2 474.6t-154.3 72.3L537.1 748q19.5 15.7 25.4 41.1 3.9 23.4 -11.7 46.8 -15.6 19.6 -41 25.4 -23.5 3.9 -46.9 -11.7L25.4 537.1Q-7.8 509.8 3.9 466.8q13.7 -41 58.6 -43h156.3q48.8 0 85.9 -25.4 39.1 -25.4 56.6 -68.3H62.5q-27.3 0 -44.9 -17.6T0 267.6t17.6 -44.9 44.9 -17.6h298.8q-17.5 -43 -56.6 -68.4 -37.1 -25.4 -85.9 -25.4H62.5q-27.3 0 -44.9 -17.5T0 48.8z"/></svg>