<svg height="1000" width="1250" xmlns="http://www.w3.org/2000/svg"><path d="M0 394.5Q3.9 273.4 84 195.3q78.1 -80.1 199.2 -84 117.2 2 201.2 84L625 335.9 765.6 195.3q84 -82 201.2 -84 121.1 3.9 199.2 84 80.1 78.1 84 199.2v58.6q-3.9 121.1 -84 199.2 -78.1 80.1 -199.2 84 -117.2 -1.9 -201.2 -82L625 511.7 484.4 654.3q-84 80.1 -201.2 82Q162.1 732.4 84 652.3 3.9 574.2 0 453.1v-58.6zm537.1 29.3L396.5 283.2l140.6 140.6L396.5 283.2Q349.6 238.3 283.2 236.3q-66.4 2 -111.3 46.9T125 394.5v58.6q2 66.4 46.9 111.4t111.3 46.8q66.4 -1.9 113.3 -46.8L537.1 423.8zm175.8 0l140.6 140.7L712.9 423.8l140.6 140.7q46.9 46.8 113.3 46.8 66.4 -1.9 111.3 -46.8T1125 453.1v-58.6q-2 -66.4 -46.9 -111.3T966.8 236.3q-66.4 2 -113.3 46.9L712.9 423.8z"/></svg>