<svg height="1000" width="625" xmlns="http://www.w3.org/2000/svg"><path d="M62.5 -13.7q0 -27.3 17.6 -44.9Q97.7 -76.2 125 -76.2h375q27.3 0 44.9 17.6t17.6 44.9 -17.6 45T500 48.8H125q-27.3 0 -44.9 -17.5t-17.6 -45zM0 236.3q2 -52.7 37.1 -87.9Q72.3 113.3 125 111.3h375q52.7 2 87.9 37.1t37.1 87.9v562.5q-2 52.8 -37.1 87.9T500 923.8H125Q72.3 921.9 37.1 886.7T0 798.8V236.3zm218.8 0h-82.1 82.1 -82.1q-9.7 2 -11.7 11.7 2 48.9 33.2 80.1t80.1 33.2h148.4q48.8 -1.9 80.1 -33.2T500 248q-2 -9.7 -11.7 -11.7h-82q-58.6 2 -93.8 43 -35.2 -41 -93.7 -43zm93.7 230.5q-35.2 -41 -93.7 -43h-82.1q-9.7 2 -11.7 11.7 2 48.9 33.2 80.1t80.1 33.2h148.4q48.8 -1.9 80.1 -33.2T500 435.5q-2 -11.7 -11.7 -11.7h-82q-58.6 2 -93.8 43zm-93.7 144.5h-82.1 82.1 -82.1q-9.7 2 -11.7 11.7 2 48.9 33.2 80.1t80.1 33.2h43v62.5q1.9 29.3 31.2 31.3 29.3 -2 31.3 -31.3v-62.5h42.9q48.8 -1.9 80.1 -33.2T500 623q-2 -11.7 -11.7 -11.7h-82q-58.6 2 -93.8 43 -35.2 -41 -93.7 -43z"/></svg>