<svg height="1000" width="1125" xmlns="http://www.w3.org/2000/svg"><path d="M480.5 541l-41 -62.5 41 62.5 -41 -62.5q-5.9 -11.7 1.9 -19.5t19.5 -2l56.7 37.1q7.8 3.9 9.7 -3.9l19.6 -550.7q1.9 -13.7 15.6 -15.7 13.7 2 15.6 15.7l19.6 550.7q1.9 7.8 9.7 5.9L664.1 457q11.7 -5.8 19.5 2t1.9 19.5l-41 62.5q-3.9 5.9 3.9 9.8l74.3 13.7q11.7 3.9 11.7 15.6t-11.7 15.6l-74.3 13.7q-7.8 3.9 -3.9 9.7l41 62.5q5.9 11.8 -1.9 19.6t-19.5 1.9l-50.8 -33.2q-7.8 -3.9 -9.8 3.9l3.9 121.1q89.9 -17.6 146.5 -84 56.6 -68.3 58.6 -162.1Q808.6 437.5 732.4 365.2q-19.5 -23.4 2 -46.8 50.8 -39.1 80.1 -97.7 29.3 -56.6 29.3 -125Q843.8 46.9 828.1 2q-5.8 -21.5 9.8 -37.2 13.7 -15.6 31.2 -5.8 80.1 56.6 134.8 136.7 52.7 80.1 76.2 177.7 1.9 5.9 -3.9 11.8l-54.7 54.6q-9.8 15.7 7.8 21.5h50.8q11.7 0 13.7 11.7v19.6q0 50.8 -9.8 99.6 0 3.9 -3.9 5.8l-89.9 91.8q-9.7 15.7 7.8 21.5h29.3q15.7 2 11.8 17.6Q970.7 761.7 845.7 841.8t-283.2 82q-158.2 -1.9 -283.2 -82T85.9 628.9Q82 613.3 97.7 611.3H127q17.5 -3.9 7.8 -21.5L44.9 500Q41 496.1 41 492.2q-9.7 -48.8 -9.7 -99.6V373q1.9 -11.7 13.6 -11.7h50.8q17.6 -3.9 7.8 -21.5L48.8 285.2Q43 279.3 44.9 273.4 68.4 175.8 121.1 95.7 175.8 15.6 255.9 -41q17.5 -9.8 31.2 5.8 15.6 15.7 9.8 37.2 -15.6 44.9 -15.6 93.7 0 68.4 29.2 125 29.3 58.6 80.1 97.7 21.5 23.4 2 46.8 -76.2 72.3 -80.1 183.6 2 93.8 58.6 162.1 56.6 66.4 146.5 84l3.9 -119.1q-2 -9.8 -9.8 -5.9l-50.8 33.2q-11.7 5.9 -19.5 -1.9t-1.9 -19.6l41 -62.5q3.9 -5.8 -3.9 -9.7l-74.3 -13.7q-11.7 -3.9 -11.7 -15.6t11.7 -15.6l74.3 -13.7q7.8 -3.9 3.9 -9.8z"/></svg>