<svg height="1000" width="1250" xmlns="http://www.w3.org/2000/svg"><path d="M312.5 -29.3q3.9 -43 46.9 -46.9h218.7q43 3.9 46.9 46.9 -3.9 43 -46.9 46.9h-31.2L750 298.8h226.6q23.4 0 44.9 7.8l199.2 74.3q27.3 13.6 29.3 42.9 -2 29.3 -29.3 43L1021.5 541q-21.5 7.8 -44.9 7.8H750L546.9 830.1h31.2q43 3.9 46.9 46.9 -3.9 42.9 -46.9 46.8H359.4q-43 -3.9 -46.9 -46.8 3.9 -43 46.9 -46.9H375V548.8h-62.5L205.1 656.3q-17.6 17.5 -43 17.5H125q-27.3 0 -44.9 -17.5t-17.6 -45v-125q-27.3 0 -44.9 -17.5T0 423.8t17.6 -44.9 44.9 -17.6v-125q0 -27.3 17.6 -44.9T125 173.8h37.1q25.4 0 43 17.6l107.4 107.4H375V17.6h-15.6q-43 -3.9 -46.9 -46.9zM156.3 392.6Q127 394.5 125 423.8q2 29.3 31.3 31.3h125q29.2 -2 31.2 -31.3 -2 -29.3 -31.2 -31.2h-125z"/></svg>