<svg height="1000" width="1000" xmlns="http://www.w3.org/2000/svg"><path d="M529.3 -56.6Q519.5 -76.2 500 -76.2t-29.3 19.6l-85.9 201.1Q375 168 375 193.4v150.4l-281.2 164v-37.1q-4 -43 -46.9 -46.9Q3.9 427.7 0 470.7v218.8q3.9 42.9 46.9 46.8 42.9 -3.9 46.9 -46.8v-15.7H375v64.5l-113.3 99.6Q250 847.7 250 861.3v31.3q2 29.3 31.3 31.2h187.5v-125q1.9 -29.3 31.2 -31.2 29.3 1.9 31.3 31.2v125h187.5Q748 921.9 750 892.6v-31.3q0 -13.6 -9.8 -23.4L625 738.3v-64.5h281.3v15.7q3.9 42.9 46.8 46.8 43 -3.9 46.9 -46.8V470.7q-3.9 -43 -46.9 -46.9 -42.9 3.9 -46.8 46.9v37.1L625 343.8V193.4q0 -25.4 -9.8 -48.9L529.3 -56.6z"/></svg>