<svg height="1000" width="1250" xmlns="http://www.w3.org/2000/svg"><path d="M875 -13.7q0 -27.3 -17.6 -44.9 -17.6 -17.6 -44.9 -17.6t-44.9 17.6T750 -13.7V7.8q2 168 119.1 287.1l41.1 41q27.3 27.4 27.3 66.4v21.5q0 27.4 17.6 45t44.9 17.5 44.9 -17.5 17.6 -45v-21.5Q1060.5 312.5 998 248l-41 -41Q877 123 875 7.8v-21.5zm250 437.5q0 27.4 17.6 45 17.6 17.5 44.9 17.5t44.9 -17.5 17.6 -45v-21.5q-2 -167.9 -119.1 -287.1l-41.1 -41Q1062.5 46.9 1062.5 7.8v-21.5q0 -27.3 -17.6 -44.9T1000 -76.2t-44.9 17.6 -17.6 44.9V7.8q2 89.9 64.5 154.3l41 41q80 84 82 199.2v21.5zM449.2 627q-13.7 -5.9 -29.3 -4 -113.3 17.6 -209 45 -80 21.5 -128.9 37.1 -23.4 7.8 -37.1 13.7H41q-3.9 1.9 -5.8 3.9h-3.9Q2 734.4 0 767.6q2 33.2 31.3 44.9h3.9l1.9 2q3.9 0 7.8 1.9 13.7 3.9 37.1 13.7 48.9 15.6 128.9 37.1 78.2 21.5 170 39.1 93.7 17.5 181.6 17.5h130.9q13.6 -3.9 7.8 -15.6L502 668q-23.5 -27.4 -52.8 -41zm419.9 296.8h37.2 -37.2 136.8q13.6 -3.9 7.8 -15.6L814.5 668Q765.6 613.3 693.4 611.3H556.6q-13.6 3.9 -7.8 15.7L750 867.2q46.9 54.7 119.1 56.6zM861.3 627l201.2 240.2L861.3 627l201.2 240.2q44.9 52.7 113.3 56.6 31.2 -1.9 52.7 -23.4Q1250 877 1250 845.7V689.5q0 -33.2 -23.4 -54.7 -21.5 -23.5 -54.7 -23.5H869.1q-13.6 3.9 -7.8 15.7z"/></svg>