<svg height="1000" width="750" xmlns="http://www.w3.org/2000/svg"><path d="M187.5 -29.3q3.9 -43 46.9 -46.9h156.2q43 3.9 46.9 46.9v46.9h15.6q43 3.9 46.9 46.9 -3.9 42.9 -46.9 46.8H171.9q-43 -3.9 -46.9 -46.8 3.9 -43 46.9 -46.9h15.6v-46.9zM0 423.8Q2 318.4 72.3 246.1 144.5 175.8 250 173.8h250q105.5 2 177.7 72.3Q748 318.4 750 423.8v375q-2 52.8 -37.1 87.9T625 923.8H125Q72.3 921.9 37.1 886.7T0 798.8v-375zm500 0v187.5V423.8v187.5q0 27.4 17.6 45t44.9 17.5 44.9 -17.5 17.6 -45V423.8q0 -27.3 -17.6 -44.9t-44.9 -17.6 -44.9 17.6T500 423.8z"/></svg>