<svg height="1000" width="1125" xmlns="http://www.w3.org/2000/svg"><path d="M117.2 158.2l445.3 138.7L117.2 158.2l445.3 138.7 445.3 -138.7L562.5 19.5 117.2 158.2zM544.9 -72.3q17.6 -5.8 37.1 0L1082 84q41 13.7 43 58.6v72.2L572.3 388.7q-9.8 1.9 -19.6 0L0 214.8v-72.2Q2 97.7 44.9 84l500 -156.3zm44.9 519.6l535.2 -166 -535.2 166 535.2 -166v89.8l-103.5 33.2q-25.4 9.8 -19.5 39.1 9.7 25.4 39 19.5l84 -25.4v267.6q-2 44.9 -43 60.5L582 921.9q-19.5 3.9 -39 0L43 765.6Q2 750 0 705.1V437.5l84 25.4q29.3 5.9 39 -19.5 5.9 -29.3 -19.5 -39.1L0 371.1v-89.8l535.2 166q27.3 9.7 54.6 0zm-361.3 -3.9q-27.3 -5.9 -39 19.5 -5.9 29.3 19.5 39.1l125 39q29.3 5.9 39 -19.5 5.9 -29.3 -19.5 -39.1l-125 -39zM916 502q25.4 -9.8 19.5 -39.1 -9.7 -25.4 -39 -19.5l-125 39q-25.4 9.8 -19.5 39.1 11.7 25.4 39 19.5l125 -39zm-437.5 19.5q-27.3 -5.9 -39 19.5 -5.9 29.3 19.5 39.1l76.2 23.4q27.3 9.8 56.6 0L666 580.1q27.4 -9.8 21.5 -39.1 -11.7 -25.4 -39.1 -19.5l-76.1 23.4q-9.8 2 -17.6 0l-76.2 -23.4z"/></svg>