<svg height="1000" width="1000" xmlns="http://www.w3.org/2000/svg"><path d="M656.3 611.3q146.4 -3.9 242.1 -101.5Q996.1 414.1 1000 267.6 996.1 121.1 898.4 25.4 802.7 -72.3 656.3 -76.2 509.8 -72.3 414.1 25.4q-97.7 95.7 -101.6 242.2 0 54.7 15.6 105.4L13.7 687.5Q0 701.2 0 720.7V877q3.9 42.9 46.9 46.8h156.2q43 -3.9 46.9 -46.8v-78.2h78.1q43 -3.9 46.9 -46.8v-78.2h78.1q19.6 0 33.2 -13.6l64.5 -64.5q50.8 15.6 105.5 15.6zm78.1 -500q44.9 2 68.3 39.1 19.6 39.1 0 78.1 -23.4 37.1 -68.3 39.1 -44.9 -2 -68.4 -39.1 -19.5 -39 0 -78.1 23.5 -37.1 68.4 -39.1z"/></svg>