<svg height="1000" width="1125" xmlns="http://www.w3.org/2000/svg"><path d="M125 48.8q-52.7 2 -87.9 37.1Q2 121.1 0 173.8v500q2 52.8 37.1 87.9t87.9 37.1h875q52.7 -1.9 87.9 -37.1t37.1 -87.9v-500q-2 -52.7 -37.1 -87.9T1000 48.8H125zm31.3 125h62.5 -62.5 62.5q29.2 2 31.2 31.3v62.5q-2 29.3 -31.2 31.2h-62.5Q127 296.9 125 267.6v-62.5q2 -29.3 31.3 -31.3zM125 392.6q2 -29.3 31.3 -31.3h62.5q29.2 2 31.2 31.3v62.5q-2 29.3 -31.2 31.2h-62.5Q127 484.4 125 455.1v-62.5zm31.3 156.2h62.5 -62.5 62.5q29.2 2 31.2 31.3v62.5q-2 29.3 -31.2 31.2h-62.5Q127 671.9 125 642.6v-62.5q2 -29.3 31.3 -31.3zM312.5 205.1q2 -29.3 31.3 -31.3h62.5q29.2 2 31.2 31.3v62.5q-2 29.3 -31.2 31.2h-62.5q-29.3 -1.9 -31.3 -31.2v-62.5zm31.3 156.2h62.5 -62.5 62.5q29.2 2 31.2 31.3v62.5q-2 29.3 -31.2 31.2h-62.5q-29.3 -1.9 -31.3 -31.2v-62.5q2 -29.3 31.3 -31.3zm-31.3 218.8q2 -29.3 31.3 -31.3h437.5q29.2 2 31.2 31.3v62.5q-2 29.3 -31.2 31.2H343.8q-29.3 -1.9 -31.3 -31.2v-62.5zM531.3 173.8h62.5 -62.5 62.5q29.2 2 31.2 31.3v62.5q-2 29.3 -31.2 31.2h-62.5Q502 296.9 500 267.6v-62.5q2 -29.3 31.3 -31.3zM500 392.6q2 -29.3 31.3 -31.3h62.5q29.2 2 31.2 31.3v62.5q-2 29.3 -31.2 31.2h-62.5Q502 484.4 500 455.1v-62.5zM718.8 173.8h62.5 -62.5 62.5q29.2 2 31.2 31.3v62.5q-2 29.3 -31.2 31.2h-62.5q-29.3 -1.9 -31.3 -31.2v-62.5q2 -29.3 31.3 -31.3zm-31.3 218.8q2 -29.3 31.3 -31.3h62.5q29.2 2 31.2 31.3v62.5q-2 29.3 -31.2 31.2h-62.5q-29.3 -1.9 -31.3 -31.2v-62.5zM906.3 173.8h62.5 -62.5 62.5q29.2 2 31.2 31.3v62.5q-2 29.3 -31.2 31.2h-62.5Q877 296.9 875 267.6v-62.5q2 -29.3 31.3 -31.3zM875 392.6q2 -29.3 31.3 -31.3h62.5q29.2 2 31.2 31.3v62.5q-2 29.3 -31.2 31.2h-62.5Q877 484.4 875 455.1v-62.5zm31.3 156.2h62.5 -62.5 62.5q29.2 2 31.2 31.3v62.5q-2 29.3 -31.2 31.2h-62.5Q877 671.9 875 642.6v-62.5q2 -29.3 31.3 -31.3z"/></svg>