<svg height="1000" width="1000" xmlns="http://www.w3.org/2000/svg"><path d="M480.5 -68.4q19.5 -15.6 39 0l93.8 78.2q17.6 15.6 7.8 39 -2 2 -3.9 5.9 0 1.9 -2 5.8t-5.8 9.8q0 2 -2 3.9v2q50.8 29.3 80.1 80.1 31.3 48.8 31.3 111.3t-31.3 111.3q-29.3 50.8 -80.1 80.1 0 1.9 2 5.8 5.8 9.8 9.7 15.7 0 3.9 2 5.8 9.8 23.5 -7.8 39.1l-82 70.3v37.1l70.3 -46.9 80 -54.6q62.5 -45 97.7 -111.4t35.2 -142.6q0 -93.7 -50.8 -171.8l-5.9 -7.8q-11.7 -19.6 2 -39.1Q775.4 43 796.9 52.7l-13.7 27.4Q793 60.5 794.9 54.7q3.9 -3.9 2 -2h3.9q0 2 1.9 2 2 1.9 3.9 1.9 9.8 5.9 23.5 15.7 29.3 17.5 68.3 56.6 41.1 37.1 70.4 95.7 31.2 58.6 33.2 136.7 -2 78.2 -31.3 144.6Q939.5 572.3 902.3 623q-39 48.9 -68.3 76.2l-21.5 21.5q-3.9 2 -5.9 3.9v2l-1.9 1.9h-2l-19.5 -23.4 19.5 23.4q-15.6 13.7 -35.1 3.9l-146.5 -84 -64.5 43 87.9 62.5q5.9 -1.9 11.8 -1.9 42.9 3.9 46.8 46.8 -3.9 43 -46.8 46.9 -39.1 -3.9 -46.9 -41L531.3 750v56.6q29.2 17.6 31.2 54.7 0 27.4 -17.6 45T500 923.8t-44.9 -17.5 -17.6 -45q2 -37.1 31.3 -54.7V752l-78.2 54.6q-9.7 35.2 -46.8 39.1 -43 -3.9 -46.9 -46.9 3.9 -42.9 46.9 -46.8 5.8 0 13.6 1.9l87.9 -62.5 -62.5 -43 -148.4 84q-19.6 9.8 -35.2 -3.9l19.6 -23.4q-13.7 17.6 -17.6 21.5t-2 1.9h-1.9l-2 -1.9v-2q-1.9 0 -5.8 -3.9L168 699.2Q138.7 671.9 99.6 623 62.5 574.2 31.3 505.9 2 439.5 0 361.3 2 283.2 33.2 224.6 62.5 166 103.5 128.9q39.1 -39.1 68.4 -56.6 15.6 -9.8 23.4 -15.7 2 0 3.9 -1.9h2l1.9 -2h2l13.7 27.4L205.1 52.7q21.5 -9.7 37.1 5.9 13.7 19.5 1.9 39.1l-3.9 7.8q-52.7 78.1 -52.7 171.8 0 76.2 35.2 142.6t97.6 111.4l82 54.6 66.5 46.9v-37.1l-82.1 -70.3q-17.6 -15.6 -7.8 -39.1 2 -1.9 3.9 -5.8 0 -2 2 -5.9t5.8 -9.8q0 -1.9 2 -3.9V459q-50.8 -29.3 -80.1 -80.1Q281.3 330.1 281.3 267.6t31.2 -111.3q29.3 -50.8 80.1 -80.1 0 -2 -2 -5.9 -5.8 -9.8 -7.8 -15.6 -1.9 -3.9 -3.9 -5.9 -9.8 -23.4 7.8 -39l93.8 -78.2zm-50.8 232.5Q377 199.2 375 267.6q2 68.3 54.7 103.5 21.5 -56.6 23.4 -103.5 -1.9 -46.9 -23.4 -103.5zm140.6 207Q623 335.9 625 267.6q-2 -68.4 -54.7 -103.5 -21.5 56.6 -23.4 103.5 1.9 46.9 23.4 103.5z"/></svg>