<svg height="1000" width="1125" xmlns="http://www.w3.org/2000/svg"><path d="M125 -13.7q-52.7 2 -87.9 37.1Q2 58.6 0 111.3v625q2 52.8 37.1 87.9t87.9 37.1h62.5v-875H125zm125 0v875 -875 875h625v-875H250zm750 875q52.7 -1.9 87.9 -37.1 35.1 -35.1 37.1 -87.9v-625q-2 -52.7 -37.1 -87.9T1000 -13.7h-62.5v875h62.5zM500 267.6q2 -29.3 31.3 -31.3h62.5q29.2 2 31.2 31.3v93.7h93.8q29.2 2 31.2 31.3v62.5q-2 29.3 -31.2 31.2H625v93.8q-2 29.3 -31.2 31.2h-62.5Q502 609.4 500 580.1v-93.8h-93.7Q377 484.4 375 455.1v-62.5q2 -29.3 31.3 -31.3H500v-93.7z"/></svg>