<svg height="1000" width="1125" xmlns="http://www.w3.org/2000/svg"><path d="M468.8 205.1q0 -50.8 -25.4 -93.8Q418 68.4 375 43 330.1 17.6 281.3 17.6T187.5 43q-43 25.4 -68.4 68.3t-25.3 93.8 25.3 93.7 68.4 68.4q44.9 25.4 93.8 25.4T375 367.2q43 -25.4 68.4 -68.4t25.4 -93.7zm85.9 62.5Q533.2 363.3 457 423.8q-74.2 60.6 -175.7 62.5Q162.1 482.4 82 404.3 3.9 324.2 0 205.1 3.9 85.9 82 5.9q80.1 -78.2 199.3 -82.1 101.5 2 175.7 62.5 76.2 60.6 97.7 156.3h140.6q27.4 -29.3 70.3 -31.3h203.2q39 2 66.4 27.4 25.3 27.3 27.3 66.4 -2 39 -27.3 66.4 -27.4 25.4 -66.4 27.3H765.6q-42.9 -1.9 -70.3 -31.2H554.7zM281.3 80.1q70.3 1.9 107.4 62.5 35.1 62.5 0 125 -37.1 60.5 -107.4 62.5 -70.4 -2 -107.5 -62.5 -35.1 -62.5 0 -125Q210.9 82 281.3 80.1zm500 312.5q42.9 3.9 46.8 46.9v15.6h187.5q43 3.9 46.9 46.9 -3.9 42.9 -46.9 46.8H546.9Q503.9 544.9 500 502q3.9 -43 46.9 -46.9h187.5v-15.6q3.9 -43 46.9 -46.9zM562.5 830.1V611.3v218.8V611.3H1000v218.8q-2 39 -27.3 66.4 -27.4 25.4 -66.4 27.3h-250q-39.1 -1.9 -66.5 -27.3 -25.3 -27.4 -27.3 -66.4zM93.8 548.8H250 93.8h250q39 2 66.4 27.4 25.3 27.3 27.3 66.4 -2 39 -27.3 66.4 -27.4 25.4 -66.4 27.3h-31.3q0 27.4 -17.6 45T250 798.8H125q-27.3 0 -44.9 -17.5t-17.6 -45V580.1q2 -29.3 31.3 -31.3zm250 125Q373 671.9 375 642.6q-2 -29.3 -31.2 -31.3h-31.3v62.5h31.3zM46.9 830.1h343.7H46.9h343.7q43 3.9 46.9 46.9 -3.9 42.9 -46.9 46.8H46.9Q3.9 919.9 0 877q3.9 -43 46.9 -46.9z"/></svg>