<svg height="1000" width="1125" xmlns="http://www.w3.org/2000/svg"><path d="M568.4 681.6q46.8 -27.3 95.7 -48.8 48.8 -19.5 101.5 -21.5H875q13.7 0 27.3 -1.9l166.1 238.3q13.6 17.5 35.1 11.7 19.5 -7.8 21.5 -29.3V361.3q-2 -105.4 -72.3 -177.7Q980.5 113.3 875 111.3H765.6Q712.9 109.4 664.1 89.8 615.2 68.4 568.4 41 482.4 -11.7 375 -13.7 214.8 -9.8 109.4 95.7T0 361.3q2 105.5 50.8 189.5 50.8 85.9 136.7 134.7v129q3.9 42.9 46.9 46.8 42.9 -3.9 46.9 -46.8v-89.9q44.9 11.7 93.7 11.7 15.6 0 31.3 -1.9v80.1q3.9 42.9 46.8 46.8 43 -3.9 46.9 -46.8v-99.7q37.1 -13.6 68.4 -33.2zM875 314.5q43 3.9 46.9 46.8 -3.9 43 -46.9 46.9 -43 -3.9 -46.9 -46.9Q832 318.4 875 314.5z"/></svg>