<svg height="1000" width="1000" xmlns="http://www.w3.org/2000/svg"><path d="M484.4 -76.2h31.2 -31.2 31.2q43 3.9 46.9 46.9v21.5Q681.6 13.7 765.6 95.7q82.1 84 103.5 203.1h5.9q27.3 0 44.9 17.6t17.6 44.9 -17.6 45T875 423.8H125q-27.3 0 -44.9 -17.5t-17.6 -45 17.6 -44.9T125 298.8h5.9Q152.3 179.7 234.4 95.7q84 -82 203.1 -103.5v-21.5q3.9 -43 46.9 -46.9zM125 486.3h125H125h125v250h78.1v-250h125v250h93.8v-250h125v250H750v-250h125v257.8q2 2 3.9 2l93.8 62.5q35.1 27.3 25.3 70.3 -15.6 43 -60.5 44.9h-875Q17.6 921.9 2 878.9q-9.8 -43 25.3 -70.3l93.8 -62.5h1.9q2 0 2 -2V486.3z"/></svg>