<svg height="1000" width="1000" xmlns="http://www.w3.org/2000/svg"><path d="M531.3 -76.2h156.2H531.3h156.2q29.3 2 31.3 31.3v125q-2 29.3 -31.3 31.2H531.3v62.5h375q27.3 0 44.9 17.6t17.6 44.9 -17.6 45 -44.9 17.5H93.8q-27.4 0 -45 -17.5t-17.5 -45 17.5 -44.9 45 -17.6h375V-44.9q1.9 -29.3 31.2 -31.3h31.3zM125 361.3h125H125h125v375h78.1v-375h125v375h93.8v-375h125v375H750v-375h125v382.8q2 2 3.9 2l93.8 62.5q35.1 27.3 25.3 70.3 -15.6 43 -60.5 44.9h-875Q17.6 921.9 2 878.9q-9.8 -43 25.3 -70.3l93.8 -62.5h1.9q2 0 2 -2V361.3z"/></svg>