<svg height="1000" width="1250" xmlns="http://www.w3.org/2000/svg"><path d="M671.9 -29.3V252 -29.3 252Q668 294.9 625 298.8 582 294.9 578.1 252V-29.3q3.9 -43 46.9 -46.9 43 3.9 46.9 46.9zM375 548.8q0 -27.3 17.6 -44.9 17.6 -17.6 44.9 -17.6h375q27.3 0 44.9 17.6t17.6 44.9v62.5H375v-62.5zM224.6 726.6q27.4 -50.8 84 -52.8h632.8q56.6 2 84 52.8l54.7 107.4q13.7 33.2 -3.9 60.5 -15.7 27.4 -52.8 29.3H226.6q-37.1 -1.9 -52.8 -29.3Q156.3 867.2 169.9 834l54.7 -107.4zM70.3 193.4q27.4 -33.2 66.4 -11.8l203.1 140.7q33.2 27.3 11.8 66.4 -27.4 31.2 -66.4 11.7L82 259.8Q50.8 232.4 70.3 193.4zm1043 -11.8q39 -21.4 66.4 11.8 21.5 37.1 -11.7 66.4L964.8 400.4q-37.1 19.5 -66.4 -11.7Q877 349.6 910.2 322.3l203.1 -140.7z"/></svg>