<svg height="1000" width="1250" xmlns="http://www.w3.org/2000/svg"><path d="M0 173.8Q2 121.1 37.1 85.9 72.3 50.8 125 48.8h1000q52.7 2 87.9 37.1t37.1 87.9v500q-2 52.8 -37.1 87.9t-87.9 37.1H125Q72.3 796.9 37.1 761.7T0 673.8v-500zm625 0v500 -500 500h500v-500H625zm-277.3 93.8q-9.8 -21.5 -35.2 -23.5 -25.4 2 -35.2 23.5l-125 281.2q-11.7 33.2 19.6 50.8 33.2 11.7 50.8 -19.5L240.2 541h144.6l17.5 39.1q17.6 31.2 50.8 19.5 31.3 -17.6 19.6 -50.8l-125 -281.2zm-35.2 111.3l37.1 84 -37.1 -84 37.1 84h-74.2l37.1 -84zM875 244.1q35.2 3.9 39.1 39.1v7.8h117.2q35.1 3.9 39 39.1 -3.9 35.1 -39 39h-4l-3.9 9.8q-25.4 70.3 -76.1 127 1.9 1.9 5.8 3.9l35.2 21.5q29.3 21.4 13.7 52.7 -21.5 29.3 -52.8 13.7l-37.1 -21.5q-13.7 -7.8 -25.4 -17.6 -31.2 23.4 -66.4 39.1l-7.8 1.9q-33.2 11.7 -50.8 -19.5Q750 546.9 781.3 529.3l7.8 -3.9q17.5 -7.8 35.1 -19.5l-23.4 -23.5q-23.5 -27.3 0 -54.7 27.3 -23.4 54.7 0l29.3 27.4v1.9q37.1 -39 58.6 -87.9h-209q-35.2 -3.9 -39.1 -39 3.9 -35.2 39.1 -39.1h101.5v-7.8Q839.8 248 875 244.1z"/></svg>