<svg height="1000" width="1250" xmlns="http://www.w3.org/2000/svg"><path d="M125 111.3q2 -52.7 37.1 -87.9 35.2 -35.1 87.9 -37.1h750q52.7 2 87.9 37.1t37.1 87.9v500h-125v-500H250v500H125v-500zM0 710.9q3.9 -33.2 37.1 -37.1h1175.8q33.2 3.9 37.1 37.1 -2 64.5 -43 107.5 -42.9 41 -107.4 42.9H150.4Q85.9 859.4 44.9 818.4 2 775.4 0 710.9zM548.8 332l-60.5 60.6L548.8 332l-60.5 60.6 60.5 60.5q27.4 33.2 0 66.4 -33.2 27.4 -66.4 0l-93.7 -93.7q-27.4 -33.2 0 -66.4l93.7 -93.8q33.2 -27.3 66.4 0 27.4 33.2 0 66.4zm218.8 -66.4l93.7 93.8 -93.7 -93.8 93.7 93.8q27.4 33.2 0 66.4l-93.7 93.7q-33.2 27.4 -66.4 0 -27.4 -33.2 0 -66.4l60.5 -60.5L701.2 332q-27.4 -33.2 0 -66.4 33.2 -27.3 66.4 0z"/></svg>