<svg height="1000" width="1250" xmlns="http://www.w3.org/2000/svg"><path d="M125 111.3q2 -52.7 37.1 -87.9 35.2 -35.1 87.9 -37.1h750q52.7 2 87.9 37.1t37.1 87.9v500h-125v-500H250v500H125v-500zM0 710.9q3.9 -33.2 37.1 -37.1h1175.8q33.2 3.9 37.1 37.1 -2 64.5 -43 107.5 -42.9 41 -107.4 42.9H150.4Q85.9 859.4 44.9 818.4 2 775.4 0 710.9zM562.5 236.3q2 -29.3 31.3 -31.2h62.5q29.2 1.9 31.2 31.2v93.8h93.8q29.2 1.9 31.2 31.2v62.5q-2 29.3 -31.2 31.3h-93.8v93.7q-2 29.3 -31.2 31.3h-62.5q-29.3 -2 -31.3 -31.3v-93.7h-93.7q-29.3 -2 -31.3 -31.3v-62.5q2 -29.3 31.3 -31.2h93.7v-93.8z"/></svg>