<svg height="1000" width="1250" xmlns="http://www.w3.org/2000/svg"><path d="M250 -76.2q-52.7 2 -87.9 37.1Q127 -3.9 125 48.8v437.5H37.1Q3.9 490.2 0 523.4q2 64.5 44.9 107.5 41 41 105.5 42.9H625V486.3H250V48.8h625v62.5h125V48.8q-2 -52.7 -37.1 -87.9T875 -76.2H250zm750 250H781.3 1000 781.3q-39.1 2 -66.5 27.4 -25.3 27.3 -27.3 66.4v562.5q2 39 27.3 66.4 27.4 25.4 66.5 27.3h375q39 -1.9 66.4 -27.3 25.3 -27.4 27.3 -66.4V423.8h-187.5q-27.3 0 -44.9 -17.5t-17.6 -45V173.8zm62.5 0v187.5V173.8v187.5H1250L1062.5 173.8z"/></svg>