<svg height="1000" width="750" xmlns="http://www.w3.org/2000/svg"><path d="M281.3 -13.7q27.3 0 44.9 17.6 17.6 17.6 17.6 44.9v64.5q15.6 -2 31.2 -2t31.3 2V48.8q0 -27.3 17.5 -44.9t45 -17.6 44.9 17.6 17.6 44.9v95.7q82 39.1 136.7 107.5 54.7 70.3 74.2 160.1 5.8 25.4 -7.8 46.9 -15.6 19.5 -41 25.4t-46.9 -7.8Q627 462.9 621.1 435.5 599.6 347.7 531.3 291v132.8q0 27.4 -17.6 45t-44.9 17.5 -45 -17.5 -17.5 -45V238.3q-15.7 -2 -31.3 -2t-31.2 2v185.5q0 27.4 -17.6 45t-44.9 17.5 -45 -17.5 -17.5 -45V291Q128.9 363.3 125 486.3q2 105.5 72.3 177.8 72.2 70.3 177.7 72.2h312.5q27.3 0 44.9 17.6t17.6 44.9 -17.6 45 -44.9 17.5h-625q-27.3 0 -44.9 -17.5T0 798.8t17.6 -44.9 44.9 -17.6h33.2Q3.9 632.8 0 486.3q2 -115.2 60.5 -205 60.6 -89.9 158.3 -136.8V48.8q0 -27.3 17.5 -44.9t45 -17.6z"/></svg>