<svg height="1000" width="1125" xmlns="http://www.w3.org/2000/svg"><path d="M517.6 -66.4q44.9 -19.5 91.8 0l425.8 197.3q25.3 13.6 27.3 42.9 -2 29.3 -27.3 43L607.4 414.1q-44.9 19.5 -91.8 0L89.8 216.8q-25.3 -13.7 -27.3 -43 2 -29.3 27.3 -42.9L517.6 -66.4zm414 400.4l103.6 46.9L931.6 334l103.6 46.9q25.3 13.6 27.3 42.9 -2 29.3 -27.3 43L607.4 664.1q-44.9 19.5 -91.8 0L89.8 466.8q-25.3 -13.7 -27.3 -43 2 -29.3 27.3 -42.9L193.4 334l296.8 136.7q72.3 31.3 144.6 0L931.6 334zM634.8 720.7L931.6 584 634.8 720.7 931.6 584l103.6 46.9q25.3 13.6 27.3 42.9 -2 29.3 -27.3 43L607.4 914.1q-44.9 19.5 -91.8 0L89.8 716.8q-25.3 -13.7 -27.3 -43 2 -29.3 27.3 -42.9L193.4 584l296.8 136.7q72.3 31.3 144.6 0z"/></svg>