<svg height="1000" width="1000" xmlns="http://www.w3.org/2000/svg"><path d="M531.3 111.3q-117.2 2 -205.1 68.4 -87.9 64.4 -123.1 171.9 99.6 -50.8 218.8 -52.8h171.9q29.2 2 31.2 31.3 -2 29.3 -31.2 31.2H421.9q-48.9 0 -93.8 9.8Q252 388.7 187.5 431.6 101.6 490.2 50.8 580.1 2 671.9 0 783.2v31.3q3.9 42.9 46.9 46.8 42.9 -3.9 46.9 -46.8v-31.3Q97.7 636.7 199.2 543q31.3 113.3 121.1 183.6t211 72.2h1.9q130.9 -1.9 236.3 -78.1t166 -205.1Q998 388.7 1000 230.5q0 -127 -41 -234.4 -3.9 -9.8 -15.6 -9.8 -9.8 0 -15.7 9.8 -29.3 52.7 -80 84t-113.3 31.2H531.3z"/></svg>