<svg height="1000" width="875" xmlns="http://www.w3.org/2000/svg"><path d="M875 111.3Q873 58.6 837.9 23.4 802.7 -11.7 750 -13.7q-19.5 0 -37.1 5.9Q679.7 3.9 644.5 9.8q-37.1 7.8 -70.3 0Q462.9 -17.6 351.6 19.5 242.2 58.6 156.3 142.6q-84 85.9 -123.1 195.3Q-3.9 449.2 23.4 560.5q7.9 33.3 0 70.4Q17.6 666 5.9 699.2 0 716.8 0 736.3q2 52.8 37.1 87.9t87.9 37.1q19.5 0 37.1 -5.8 33.2 -11.7 68.4 -17.6 37.1 -7.8 70.3 0 111.3 27.3 222.6 -9.8 109.4 -39 195.4 -123 83.9 -86 123 -195.3 37.1 -111.4 9.8 -222.7 -7.8 -33.2 0 -70.3 5.8 -35.2 17.5 -68.4 5.9 -17.5 5.9 -37.1zm-459 60.6q-82 25.4 -144.5 85.9 -60.6 62.5 -86 144.5 -9.7 25.4 -37.1 19.6Q121.1 412.1 127 384.8q29.3 -97.7 101.5 -170T398.4 113.3q27.4 -5.9 37.1 21.5 5.9 27.3 -19.5 37.1z"/></svg>