<svg height="1000" width="1000" xmlns="http://www.w3.org/2000/svg"><path d="M716.8 730.5Q623 796.9 500 798.8 377 796.9 283.2 730.5L396.5 617.2q46.9 25.4 103.5 25.4t103.5 -25.4l113.3 113.3zm177.7 0Q996.1 601.6 1000 423.8 996.1 246.1 894.5 117.2q25.4 -43 -5.8 -82Q849.6 3.9 806.6 29.3 677.7 -72.3 500 -76.2 322.3 -72.3 193.4 29.3 150.4 2 111.3 35.2q-31.2 39 -5.8 82Q3.9 246.1 0 423.8q3.9 177.8 105.5 306.7 -27.4 42.9 5.8 82 39.1 31.3 82.1 5.9Q322.3 919.9 500 923.8q177.7 -3.9 306.6 -105.4 43 27.3 82.1 -5.9 31.2 -39.1 5.8 -82zm-89.8 -89.9L691.4 527.3l113.3 113.3L691.4 527.3q27.4 -46.8 27.4 -103.5T691.4 320.3L804.7 207Q873 300.8 875 423.8q-2 123.1 -68.4 216.8h-1.9zM716.8 119.1L603.5 232.4 716.8 119.1 603.5 232.4Q556.6 205.1 500 205.1t-103.5 27.3L283.2 119.1Q377 50.8 500 48.8q123 2 216.8 70.3zM308.6 527.3L195.3 640.6 308.6 527.3 195.3 640.6Q127 546.9 125 423.8q2 -123 70.3 -216.8l113.3 113.3q-27.3 46.9 -27.3 103.5t27.3 103.5zm97.7 -103.5q1.9 -52.7 46.8 -82 46.9 -23.4 93.8 0 44.9 29.3 46.9 82 -2 52.8 -46.9 82.1 -46.9 23.4 -93.8 0 -44.9 -29.3 -46.8 -82.1z"/></svg>