<svg height="1000" width="750" xmlns="http://www.w3.org/2000/svg"><path d="M531.3 673.8Q564.5 584 627 507.8v-1.9l31.2 -43q58.6 -84 60.6 -195.3Q714.8 121.1 617.2 25.4 521.5 -72.3 375 -76.2 228.5 -72.3 132.8 25.4 35.2 121.1 31.3 267.6q1.9 111.3 60.5 195.3 15.6 21.5 31.2 41v2q62.5 76.1 95.8 167.9h312.5zM375 923.8q66.4 -1.9 111.3 -44.9 43 -44.9 45 -111.3v-31.3H218.8v31.3q1.9 66.4 44.9 111.3 44.9 43 111.3 44.9zM218.8 267.6q-2 29.3 -31.3 31.2 -29.3 -1.9 -31.2 -31.2 1.9 -93.8 64.4 -154.3Q281.3 50.8 375 48.8q29.3 2 31.3 31.3 -2 29.3 -31.3 31.2 -66.4 2 -111.3 45 -43 44.9 -44.9 111.3z"/></svg>