<svg height="1000" width="1250" xmlns="http://www.w3.org/2000/svg"><path d="M76.2 -66.4Q39.1 -89.8 9.8 -58.6q-23.5 37.1 7.8 66.4l1156.2 906.3q37.1 23.4 66.4 -7.8 23.5 -37.2 -7.8 -66.5L955.1 623l177.7 -175.7q82 -87.9 82 -201.2 0 -111.3 -82 -199.2 -76.2 -72.3 -177.7 -82.1Q855.5 -43 769.5 17.6l-3.9 1.9q-21.5 15.7 -25.4 41Q736.3 84 752 107.4q15.6 19.6 39 23.5 25.4 5.8 46.9 -9.8l3.9 -2Q890.6 85.9 945.3 89.8q56.7 4 99.6 45 44.9 48.8 44.9 111.3 0 64.4 -44.9 111.3L857.4 544.9l-62.5 -48.8Q830.1 416 814.5 332 798.8 246.1 736.3 181.6q-80 -76.1 -183.6 -82t-189.4 58.6L76.2 -66.4zm390.6 306.6q44.9 -21.4 93.7 -13.6 48.9 5.8 87.9 42.9Q707 334 691.4 416L466.8 240.2zm328.1 496.1L431.6 451.2l363.3 285.1L431.6 451.2q-5.8 121.1 82.1 214.8 58.6 56.7 132.8 74.2t148.4 -3.9zM228.5 291L117.2 400.4 228.5 291 117.2 400.4q-82 87.9 -82 201.2 0 111.3 82 199.2 76.2 72.2 177.7 82 99.6 7.8 187.5 -52.7l2 -2q21.5 -15.6 25.4 -41 3.9 -23.4 -9.8 -46.9 -17.6 -19.5 -41 -23.4 -25.4 -5.9 -46.9 9.8l-3.9 1.9q-48.8 33.2 -103.5 29.3Q248 753.9 205.1 712.9 160.2 664.1 160.2 601.6q0 -64.5 46.8 -111.4L326.2 369.1 228.5 291z"/></svg>