<svg height="1000" width="1250" xmlns="http://www.w3.org/2000/svg"><path d="M1132.8 447.3q82 -87.9 82 -201.2 0 -111.3 -82 -199.2 -76.2 -72.3 -177.7 -82.1Q855.5 -43 769.5 17.6l-3.9 1.9q-21.5 15.7 -25.4 41Q736.3 84 752 107.4q15.6 19.6 39 23.5 25.4 5.8 46.9 -9.8l3.9 -2Q890.6 85.9 945.3 89.8q56.7 4 99.6 45 44.9 48.8 44.9 111.3 0 64.4 -44.9 111.3L824.2 578.1Q775.4 623 712.9 623T601.6 578.1q-41.1 -42.9 -45 -99.6Q552.7 423.8 585.9 375l2 -3.9q13.7 -21.5 9.8 -44.9 -3.9 -25.4 -25.4 -41t-45 -11.8q-25.3 3.9 -41 25.4l-1.9 3.9q-60.6 86 -52.8 187.5 7.9 99.6 82.1 175.8 87.9 82 199.2 82 113.3 0 201.2 -82l218.7 -218.7zM117.2 400.4q-82 87.9 -82 201.2 0 111.3 82 199.2 76.2 72.2 177.7 82 99.6 7.8 187.5 -52.7l2 -2q21.5 -15.6 25.4 -41 3.9 -23.4 -9.8 -46.9 -17.6 -19.5 -41 -23.4 -25.4 -5.9 -46.9 9.8l-3.9 1.9q-48.8 33.2 -103.5 29.3Q248 753.9 205.1 712.9 160.2 664.1 160.2 601.6q0 -64.5 46.8 -111.4L425.8 269.5q48.8 -44.9 111.3 -44.9t111.3 44.9q41.1 43 45 99.6 3.9 54.7 -29.3 103.6l-2 3.9q-13.7 21.4 -9.8 46.8 4 23.5 25.4 39.1t45 11.7q25.3 -3.9 41 -25.4l1.9 -3.9Q826.2 459 818.4 357.4q-7.9 -99.6 -82.1 -175.8 -87.9 -82 -199.2 -82 -113.3 0 -199.2 82L117.2 400.4z"/></svg>