<svg height="1000" width="1000" xmlns="http://www.w3.org/2000/svg"><path d="M125 205.1q52.7 -2 82 -46.9 23.5 -46.9 0 -93.7 -29.3 -45 -82 -46.9Q72.3 19.5 43 64.5q-23.5 46.8 0 93.7 29.3 44.9 82 46.9zM375 48.8q-27.3 0 -44.9 17.6Q312.5 84 312.5 111.3t17.6 45 44.9 17.5h562.5q27.3 0 44.9 -17.5t17.6 -45T982.4 66.4 937.5 48.8H375zm0 312.5q-27.3 0 -44.9 17.6 -17.6 17.6 -17.6 44.9t17.6 45 44.9 17.5h562.5q27.3 0 44.9 -17.5t17.6 -45 -17.6 -44.9 -44.9 -17.6H375zm0 312.5q-27.3 0 -44.9 17.6 -17.6 17.6 -17.6 44.9t17.6 45 44.9 17.5h562.5q27.3 0 44.9 -17.5t17.6 -45 -17.6 -44.9 -44.9 -17.6H375zM125 830.1q52.7 -2 82 -46.9 23.5 -46.9 0 -93.7 -29.3 -45 -82 -46.9 -52.7 1.9 -82 46.9 -23.5 46.8 0 93.7 29.3 44.9 82 46.9zm93.8 -406.3q-2 -52.7 -46.9 -82 -46.9 -23.4 -93.8 0 -44.9 29.3 -46.8 82 1.9 52.8 46.8 82.1 46.9 23.4 93.8 0 44.9 -29.3 46.9 -82.1z"/></svg>