<svg height="1000" width="1000" xmlns="http://www.w3.org/2000/svg"><path d="M296.9 -2q29.3 31.3 3.9 66.5L160.2 220.7q-13.7 15.6 -33.2 15.6 -21.5 0 -35.2 -13.6L13.7 144.5q-27.4 -33.2 0 -66.4 33.2 -27.3 66.4 0l42.9 43L230.5 2q31.2 -29.3 66.4 -4zm0 312.5q29.3 31.3 3.9 66.5L160.2 533.2q-13.7 15.6 -33.2 15.6 -21.5 0 -35.2 -13.6L13.7 457q-27.4 -33.2 0 -66.4 33.2 -27.3 66.4 0l42.9 43L230.5 314.5q31.2 -29.3 66.4 -4zM437.5 111.3q0 -27.3 17.6 -44.9Q472.7 48.8 500 48.8h437.5q27.3 0 44.9 17.6t17.6 44.9 -17.6 45 -44.9 17.5H500q-27.3 0 -44.9 -17.5t-17.6 -45zm0 312.5q0 -27.3 17.6 -44.9 17.6 -17.6 44.9 -17.6h437.5q27.3 0 44.9 17.6t17.6 44.9 -17.6 45 -44.9 17.5H500q-27.3 0 -44.9 -17.5t-17.6 -45zm-125 312.5q0 -27.3 17.6 -44.9 17.6 -17.6 44.9 -17.6h562.5q27.3 0 44.9 17.6t17.6 44.9 -17.6 45 -44.9 17.5H375q-27.3 0 -44.9 -17.5t-17.6 -45zM93.8 642.6q52.7 1.9 82 46.9 23.4 46.8 0 93.7 -29.3 44.9 -82 46.9Q41 828.1 11.7 783.2q-23.4 -46.9 0 -93.7 29.3 -45 82.1 -46.9z"/></svg>