<svg height="1000" width="1000" xmlns="http://www.w3.org/2000/svg"><path d="M78.1 17.6Q35.2 21.5 31.3 64.5v93.7q3.9 43 46.8 46.9h93.8q42.9 -3.9 46.9 -46.9V64.5q-4 -43 -46.9 -46.9H78.1zM375 48.8q-27.3 0 -44.9 17.6Q312.5 84 312.5 111.3t17.6 45 44.9 17.5h562.5q27.3 0 44.9 -17.5t17.6 -45T982.4 66.4 937.5 48.8H375zm0 312.5q-27.3 0 -44.9 17.6 -17.6 17.6 -17.6 44.9t17.6 45 44.9 17.5h562.5q27.3 0 44.9 -17.5t17.6 -45 -17.6 -44.9 -44.9 -17.6H375zm0 312.5q-27.3 0 -44.9 17.6 -17.6 17.6 -17.6 44.9t17.6 45 44.9 17.5h562.5q27.3 0 44.9 -17.5t17.6 -45 -17.6 -44.9 -44.9 -17.6H375zM31.3 377v93.7V377v93.7q3.9 43 46.8 46.9h93.8q42.9 -3.9 46.9 -46.9V377q-4 -43 -46.9 -46.9H78.1Q35.2 334 31.3 377zm46.8 265.6q-42.9 3.9 -46.8 46.9v93.7q3.9 43 46.8 46.9h93.8q42.9 -3.9 46.9 -46.9v-93.7q-4 -43 -46.9 -46.9H78.1z"/></svg>