<svg height="1000" width="1000" xmlns="http://www.w3.org/2000/svg"><path d="M421.9 898.4q33.2 -41 78.1 -101.5V611.3q3.9 -72.2 62.5 -107.4v-48.8q2 -82.1 52.7 -142.6Q666 253.9 746.1 240.2 720.7 101.6 619.1 13.7 517.6 -72.3 375 -76.2 214.8 -72.3 109.4 33.2T0 298.8Q3.9 386.7 62.5 502 123 617.2 199.2 724.6 275.4 834 328.1 898.4q19.6 23.5 46.9 23.5t46.9 -23.5zM375 173.8q70.3 2 107.4 62.5 35.2 62.5 0 125Q445.3 421.9 375 423.8q-70.3 -1.9 -107.4 -62.5 -35.2 -62.5 0 -125Q304.7 175.8 375 173.8zm406.3 218.8q27.3 0 44.9 17.6 17.6 17.5 17.6 44.9v93.7h-125v-93.7q0 -27.4 17.5 -44.9t45 -17.6zM625 455.1v93.7 -93.7 93.7q-27.3 0 -44.9 17.6t-17.6 44.9v250q0 27.4 17.6 45t44.9 17.5h312.5q27.3 0 44.9 -17.5t17.6 -45v-250q0 -27.3 -17.6 -44.9t-44.9 -17.6v-93.7q-2 -66.4 -44.9 -111.3 -44.9 -43 -111.3 -45 -66.5 2 -111.4 45Q627 388.7 625 455.1z"/></svg>