<svg height="1000" width="1000" xmlns="http://www.w3.org/2000/svg"><path d="M500 -76.2q27.3 0 44.9 17.6 17.6 17.6 17.6 44.9v68.4q119.1 21.5 203.1 103.5 82.1 84 103.5 203.1h68.4q27.3 0 44.9 17.6t17.6 44.9 -17.6 45 -44.9 17.5h-68.4Q847.7 605.5 765.6 689.5q-84 82 -203.1 103.5v68.3q0 27.4 -17.6 45T500 923.8t-44.9 -17.5 -17.6 -45V793Q318.4 771.5 234.4 689.5q-82.1 -84 -103.5 -203.2H62.5q-27.3 0 -44.9 -17.5T0 423.8t17.6 -44.9 44.9 -17.6h68.4Q152.3 242.2 234.4 158.2q84 -82 203.1 -103.5v-68.4q0 -27.3 17.6 -44.9T500 -76.2zm-250 500q0 68.4 33.2 125 33.2 56.7 91.8 91.8 58.6 33.2 125 33.2t125 -33.2q58.6 -35.1 91.8 -91.8t33.2 -125 -33.2 -125T625 207Q566.4 173.8 500 173.8T375 207q-58.6 35.2 -91.8 91.8t-33.2 125zM500 267.6q87.9 1.9 134.8 78.1 42.9 78.1 0 156.3Q587.9 578.1 500 580.1q-87.9 -2 -134.8 -78.1 -42.9 -78.2 0 -156.3Q412.1 269.5 500 267.6z"/></svg>