<svg height="1000" width="1125" xmlns="http://www.w3.org/2000/svg"><path d="M609.4 -13.7q-43 3.9 -46.9 46.9 3.9 43 46.9 46.9h31.2q148.5 3.9 252 91.8 105.4 89.8 132.8 230.4 -27.4 -9.7 -56.6 -9.7h-125L761.7 203.1Q750 177.7 724.6 173.8q-27.3 -1.9 -43 19.6l-80 107.4 -43 -97.7q-11.7 -25.4 -37.1 -29.3 -25.4 -1.9 -43 17.6L9.8 785.2q-23.5 37.1 7.8 66.4Q54.7 875 84 843.8L238.3 646.5l84 33.2 -78.2 107.4q-23.4 37.1 9.8 64.5 37.1 23.4 64.5 -9.8L419.9 705.1h146.5l-58.6 82q-19.5 37.1 11.7 66.4 39.1 21.5 66.4 -11.7l93.8 -136.7h156.2l76.2 132.8q25.4 35.1 64.5 17.6 35.1 -25.4 17.5 -64.5l-48.8 -85.9h23.5q66.4 -2 109.3 -44.9 44.9 -45 46.9 -111.4v-78.1q-2 -134.8 -66.4 -244.1T884.8 52.7 640.6 -13.7h-31.2zM709 314.5l33.2 78.1L709 314.5l33.2 78.1h-91.8L709 314.5zm-171.9 74.2l-3.9 3.9 3.9 -3.9 -3.9 3.9h-93.7l64.4 -80.1 33.2 76.2zm-363.3 3.9q-46.8 1.9 -78.1 33.2Q64.5 457 62.5 503.9q0 46.9 33.2 78.1L248 392.6h-74.2zm795 93.7q29.2 2 31.2 31.3 -2 29.3 -31.2 31.2 -29.3 -1.9 -31.3 -31.2 2 -29.3 31.3 -31.3z"/></svg>