<svg height="1000" width="1000" xmlns="http://www.w3.org/2000/svg"><path d="M812.5 330.1q-2 136.7 -78.1 240.2l248 246.1q17.6 19.5 17.6 44.9t-17.6 45q-19.5 17.5 -44.9 17.5t-44.9 -17.5L646.5 658.2Q543 734.4 406.3 736.3 234.4 732.4 119.1 617.2T0 330.1Q3.9 158.2 119.1 43T406.3 -76.2Q578.1 -72.3 693.4 43t119.1 287.1zm-250 -62.5q-2 -66.4 -44.9 -111.3 -44.9 -43 -111.3 -45 -66.5 2 -111.4 45Q252 201.2 250 267.6q3.9 74.2 50.8 150.4 46.9 78.1 84 121.1 21.5 21.4 42.9 0 37.1 -43 84 -121.1 46.9 -76.2 50.8 -150.4zm-218.7 0q0 -27.4 17.5 -44.9 17.6 -17.6 45 -17.6t44.9 17.6 17.6 44.9 -17.6 44.9 -44.9 17.6 -45 -17.6 -17.5 -44.9z"/></svg>