<svg height="1000" width="1000" xmlns="http://www.w3.org/2000/svg"><path d="M812.5 330.1q-2 136.7 -78.1 240.2l248 246.1q17.6 19.5 17.6 44.9t-17.6 45q-19.5 17.5 -44.9 17.5t-44.9 -17.5L646.5 658.2Q543 734.4 406.3 736.3 234.4 732.4 119.1 617.2T0 330.1Q3.9 158.2 119.1 43T406.3 -76.2Q578.1 -72.3 693.4 43t119.1 287.1zM359.4 502q3.9 42.9 46.9 46.8 42.9 -3.9 46.8 -46.8V377h125q43 -4 46.9 -46.9 -3.9 -43 -46.9 -46.9h-125v-125q-3.9 -43 -46.8 -46.9 -43 3.9 -46.9 46.9v125h-125q-43 3.9 -46.9 46.9 3.9 42.9 46.9 46.9h125v125z"/></svg>