<svg height="1000" width="1000" xmlns="http://www.w3.org/2000/svg"><path d="M812.5 330.1q-2 136.7 -78.1 240.2l248 246.1q17.6 19.5 17.6 44.9t-17.6 45q-19.5 17.5 -44.9 17.5t-44.9 -17.5L646.5 658.2Q543 734.4 406.3 736.3 234.4 732.4 119.1 617.2T0 330.1Q3.9 158.2 119.1 43T406.3 -76.2Q578.1 -72.3 693.4 43t119.1 287.1zM470.7 156.3q-33.2 -27.4 -66.4 0 -27.3 33.2 0 66.4l60.5 60.5H234.4q-43 3.9 -46.9 46.9 3.9 42.9 46.9 46.9h230.4l-60.5 60.5q-27.3 33.2 0 66.4 33.2 27.4 66.4 0L611.3 363.3q27.4 -33.2 0 -66.4L470.7 156.3z"/></svg>