<svg height="1000" width="875" xmlns="http://www.w3.org/2000/svg"><path d="M0 236.3v187.5V236.3v187.5q2 123.1 60.5 220.7 56.7 99.6 156.3 156.3 97.7 58.6 220.7 60.5 123 -1.9 220.7 -60.5 99.6 -56.7 156.3 -156.3Q873 546.9 875 423.8V236.3H625v187.5q-2 80.1 -54.7 132.8t-132.8 54.7q-80.1 -1.9 -132.8 -54.7T250 423.8V236.3H0zm0 -62.5h250H0h250v-125Q250 21.5 232.4 3.9t-44.9 -17.6h-125q-27.3 0 -44.9 17.6T0 48.8v125zm625 0h250H625h250v-125Q875 21.5 857.4 3.9t-44.9 -17.6h-125q-27.3 0 -44.9 17.6T625 48.8v125z"/></svg>