<svg height="1000" width="1000" xmlns="http://www.w3.org/2000/svg"><path d="M812.5 330.1q-2 136.7 -78.1 240.2l248 246.1q17.6 19.5 17.6 44.9t-17.6 45q-19.5 17.5 -44.9 17.5t-44.9 -17.5L646.5 658.2Q543 734.4 406.3 736.3 234.4 732.4 119.1 617.2T0 330.1Q3.9 158.2 119.1 43T406.3 -76.2Q578.1 -72.3 693.4 43t119.1 287.1zM445.3 127q-3.9 -35.2 -39 -39.1 -35.2 3.9 -39.1 39.1v27.3q-23.4 3.9 -43 17.6 -46.9 23.4 -50.8 84 5.9 58.6 48.9 80 35.1 19.6 68.3 27.4l3.9 1.9q37.1 9.8 54.7 19.6 13.7 9.7 11.7 15.6 0 15.6 -11.7 21.5 -15.6 9.7 -41 9.7Q377 429.7 339.8 414.1l-15.6 -3.9q-35.1 -7.9 -48.8 23.4 -7.8 35.2 25.4 50.8l11.7 3.9q23.4 9.7 54.7 15.6v29.3q3.9 35.2 39.1 39.1 35.1 -3.9 39 -39.1v-27.3q23.5 -3.9 44.9 -17.6 45 -25.4 48.9 -87.9 -5.9 -58.6 -48.9 -82Q455.1 298.8 418 289.1h-2q-35.1 -9.8 -54.7 -19.6 -11.7 -9.7 -9.7 -13.6 -2 -9.8 11.7 -17.6 17.6 -9.8 43 -9.8 27.3 0 60.5 9.8 35.2 5.8 46.9 -27.4 5.8 -35.1 -27.4 -48.8 -19.5 -3.9 -41 -7.8V127z"/></svg>