<svg height="1000" width="1000" xmlns="http://www.w3.org/2000/svg"><path d="M812.5 330.1q-2 136.7 -78.1 240.2l248 246.1q17.6 19.5 17.6 44.9t-17.6 45q-19.5 17.5 -44.9 17.5t-44.9 -17.5L646.5 658.2Q543 734.4 406.3 736.3 234.4 732.4 119.1 617.2T0 330.1Q3.9 158.2 119.1 43T406.3 -76.2Q578.1 -72.3 693.4 43t119.1 287.1zm-609.4 15.6v125 -125 125q3.9 43 46.9 46.9 43 -3.9 46.9 -46.9v-125Q293 302.7 250 298.8q-43 3.9 -46.9 46.9zM359.4 158.2v312.5V158.2v312.5q3.9 43 46.9 46.9 42.9 -3.9 46.8 -46.9V158.2q-3.9 -43 -46.8 -46.9 -43 3.9 -46.9 46.9zm156.2 125v187.5V283.2v187.5q3.9 43 46.9 46.9 43 -3.9 46.9 -46.9V283.2q-3.9 -43 -46.9 -46.9 -43 3.9 -46.9 46.9z"/></svg>