<svg height="1000" width="750" xmlns="http://www.w3.org/2000/svg"><path d="M375 -13.7q-27.3 0 -44.9 17.6 -17.6 17.6 -17.6 44.9v68.4q-136.7 25.4 -222.7 125Q2 343.8 0 486.3v312.5q0 27.4 17.6 45t44.9 17.5 44.9 -17.5 17.6 -45V486.3q2 -89.8 52.7 -154.3 52.8 -66.4 134.8 -87.9v554.7q0 27.4 17.6 45t44.9 17.5 44.9 -17.5 17.6 -45V244.1q82 21.5 134.8 87.9Q623 396.5 625 486.3v312.5q0 27.4 17.6 45t44.9 17.5 44.9 -17.5 17.6 -45V486.3Q748 343.8 660.2 242.2q-86 -99.6 -222.7 -125V48.8q0 -27.3 -17.6 -44.9T375 -13.7z"/></svg>