<svg height="1000" width="1125" xmlns="http://www.w3.org/2000/svg"><path d="M591.8 533.2q33.2 -41 80.1 -107.4 48.8 -68.4 85.9 -140.6 37.1 -72.3 39.1 -127 -2 -99.6 -68.4 -166t-166 -68.4q-99.6 2 -166 68.4t-68.4 166q2 54.7 39.1 127t85.9 140.6q46.9 66.4 80.1 107.4 11.7 13.7 29.3 13.7t29.3 -13.7zm220.7 373.1L1095.7 793 812.5 906.3 1095.7 793q27.3 -11.7 29.3 -43V220.7q-2 -25.4 -21.5 -39.1 -17.6 -13.6 -43 -3.9L834 267.6q0 1.9 -2 3.9v3.9l-19.5 39.1v591.8zM29.3 289.1Q2 302.7 0 334v527.3q2 27.4 21.5 39.1 17.6 13.7 43 5.9l248 -99.7V314.5L293 275.4q-15.7 -39.1 -23.5 -82L29.3 289.1zM750 421.9q-64.5 95.7 -109.4 150.4 -33.2 37.1 -78.1 37.1t-78.1 -37.1Q439.5 517.6 375 421.9v378.9l375 107.4V421.9z"/></svg>