<svg height="1000" width="1125" xmlns="http://www.w3.org/2000/svg"><path d="M796.9 158.2q-2 54.7 -39.1 127 -37.1 72.2 -85.9 140.6Q625 492.2 591.8 533.2q-11.7 13.7 -29.3 13.7t-29.3 -13.7Q500 492.2 453.1 425.8 404.3 357.4 367.2 285.2t-39.1 -127q2 -99.6 68.4 -166t166 -68.4q99.6 2 166 68.4t68.4 166zm15.6 156.3L832 275.4v-3.9q2 -2 2 -3.9l226.5 -89.9q25.4 -9.7 43 3.9 19.5 13.7 21.5 39.1V750q-2 31.3 -29.3 43L812.5 906.3V314.5zm-543 -121.1q7.8 42.9 23.5 82l19.5 39.1v492.1l-248 99.7q-25.4 7.8 -43 -5.9Q2 888.7 0 861.3V334q2 -31.3 29.3 -44.9l240.2 -95.7zm371.1 378.9Q685.5 517.6 750 421.9v486.3L375 800.8V421.9q64.5 95.7 109.4 150.4 33.2 37.1 78.1 37.1t78.1 -37.1zM562.5 220.7q44.9 -1.9 68.4 -39.1 19.5 -39 0 -78.1 -23.5 -37.1 -68.4 -39 -44.9 1.9 -68.4 39 -19.5 39.1 0 78.1 23.5 37.2 68.4 39.1z"/></svg>