<svg height="1000" width="625" xmlns="http://www.w3.org/2000/svg"><path d="M31.3 205.1q0 -76.2 37.1 -140.6Q105.5 0 171.9 -39.1q66.4 -37.1 140.6 -37.1t140.6 37.1Q519.5 0 556.6 64.5t37.2 140.6 -37.2 140.6T453.1 449.2q-66.4 37.1 -140.6 37.1T171.9 449.2Q105.5 410.2 68.4 345.7T31.3 205.1zm281.2 -125q29.3 -2 31.3 -31.3 -2 -29.3 -31.3 -31.2 -80.1 1.9 -132.8 54.7T125 205.1q2 29.3 31.3 31.2 29.2 -1.9 31.2 -31.2 2 -52.8 37.1 -87.9t87.9 -37.1zM250 861.3V543v318.3V543q31.3 5.8 62.5 5.8T375 543v318.3q0 27.4 -17.6 45t-44.9 17.5 -44.9 -17.5 -17.6 -45z"/></svg>