<svg height="1000" width="1250" xmlns="http://www.w3.org/2000/svg"><path d="M609.4 -13.7q-31.3 2 -43 29.3t9.8 50.8l64.4 64.5L539.1 234.4q-86 -58.6 -195.3 -60.6 -146.5 3.9 -242.2 101.6Q3.9 371.1 0 517.6q3.9 146.5 101.6 242.2 95.7 97.6 242.2 101.5 146.4 -3.9 242.1 -101.5 97.7 -95.7 101.6 -242.2Q685.5 408.2 627 322.3L730.5 220.7l64.4 64.5q23.5 21.4 50.8 9.7T875 252V33.2q-3.9 -43 -46.9 -46.9H609.4zm171.9 93.8zM125 517.6q0 -58.6 29.3 -109.4 29.3 -50.8 80.1 -80.1t109.4 -29.3 109.3 29.3 80.1 80.1 29.3 109.4T533.2 627t-80.1 80 -109.3 29.3T234.4 707t-80.1 -80T125 517.6zm593.8 343.7q146.4 -3.9 242.1 -101.5 97.7 -95.7 101.6 -242.2 -2 -109.4 -60.5 -195.3l103.5 -101.6 64.4 64.5q23.5 21.4 50.8 9.7T1250 252V33.2q-3.9 -43 -46.9 -46.9H984.4q-31.3 2 -43 29.3 -3.9 7.8 -3.9 17.6 0 19.5 13.7 33.2l64.4 64.5 -78.1 80V252q-3.9 70.3 -68.4 101.5h-1.9l-2 2q70.3 62.5 72.3 162.1 -2 93.7 -64.5 154.3 -60.5 62.5 -154.2 64.4 -15.7 0 -31.3 -1.9 -37.1 60.5 -93.7 103.5 58.5 23.4 125 23.4z"/></svg>