<svg height="1000" width="625" xmlns="http://www.w3.org/2000/svg"><path d="M291 -66.4q21.5 -19.5 43 0l125 125q13.7 13.7 7.8 33.2 -9.8 17.6 -29.3 19.5h-78.1v46.9h62.5q42.9 3.9 46.9 46.9 -4 42.9 -46.9 46.9h-62.5V302.7q115.2 19.6 189.4 103.6 74.2 85.9 76.2 205Q621.1 744.1 533.2 832t-220.7 91.8Q179.7 919.9 91.8 832T0 611.3q2 -119.1 76.2 -205 74.2 -84 189.4 -103.6V252h-62.5q-42.9 -4 -46.8 -46.9 3.9 -43 46.8 -46.9h62.5v-46.9h-78.1q-19.5 0 -29.3 -19.5Q152.3 72.3 166 58.6l125 -125zm209 677.7q0 -50.8 -25.4 -93.7 -25.4 -43 -68.3 -68.4 -45 -25.4 -93.8 -25.4t-93.7 25.4q-43 25.4 -68.4 68.4T125 611.3t25.4 93.8 68.4 68.3q44.9 25.4 93.7 25.4t93.8 -25.4q42.9 -25.4 68.3 -68.3T500 611.3z"/></svg>