<svg height="1000" width="1250" xmlns="http://www.w3.org/2000/svg"><path d="M406.3 642.6q58.5 0 109.3 -29.3t80.1 -80.1T625 423.8 595.7 314.5t-80.1 -80.1T406.3 205.1t-109.4 29.3 -80.1 80.1 -29.3 109.3 29.3 109.4 80.1 80.1 109.4 29.3zM746.1 470.7Q726.6 599.6 632.8 681.6q-93.7 84 -226.5 86Q259.8 763.7 164.1 666 66.4 570.3 62.5 423.8 66.4 277.3 164.1 181.6 259.8 84 406.3 80.1 539.1 82 632.8 166q93.8 82 113.3 211h66.4V267.6q3.9 -43 46.9 -46.9 42.9 3.9 46.9 46.9V377h62.5V267.6q1.9 -31.3 29.2 -43t50.8 9.8l156.3 156.2q27.3 33.2 0 66.4l-156.3 156.3q-23.4 19.5 -50.8 9.7 -27.3 -11.7 -29.2 -42.9V470.7h-62.5v109.4q-4 42.9 -46.9 46.9 -43 -4 -46.9 -46.9V470.7h-66.4z"/></svg>