<svg height="1000" width="1000" xmlns="http://www.w3.org/2000/svg"><path d="M734.4 -76.2q-31.3 2 -43 29.3t9.8 50.8l64.4 64.5 -42.9 42.9L673.8 62.5q-33.2 -27.3 -66.4 0 -27.3 33.2 0 66.4l50.8 48.8 -56.6 56.7q-86 -58.6 -195.3 -60.6 -146.5 3.9 -242.2 101.6Q66.4 371.1 62.5 517.6q3.9 146.5 101.6 242.2 95.7 97.6 242.2 101.5 146.4 -3.9 242.1 -101.5Q746.1 664.1 750 517.6 748 408.2 689.5 322.3l56.6 -54.7 48.8 48.8q33.2 27.4 66.4 0 27.4 -33.2 0 -66.4l-48.8 -48.8 43 -43 64.4 64.5q23.5 21.4 50.8 9.7t29.3 -42.9V-29.3q-3.9 -43 -46.9 -46.9H734.4zm171.9 93.8zm-718.8 500q0 -58.6 29.3 -109.4 29.3 -50.8 80.1 -80.1t109.4 -29.3 109.3 29.3 80.1 80.1T625 517.6 595.7 627t-80.1 80 -109.3 29.3T296.9 707t-80.1 -80T187.5 517.6z"/></svg>