<svg height="1000" width="1000" xmlns="http://www.w3.org/2000/svg"><path d="M660.2 -46.9q11.7 -27.3 42.9 -29.3h218.8q42.9 3.9 46.9 46.9v218.8q-2 31.2 -29.3 42.9t-50.8 -9.7l-76.2 -76.2 -48.8 48.8q46.8 72.3 48.8 166 -2 119.2 -76.2 205.1 -74.2 84 -189.4 103.5v50.8h46.9q42.9 3.9 46.8 46.9 -3.9 42.9 -46.8 46.9h-46.9V877Q543 919.9 500 923.8 457 919.9 453.1 877v-62.5h-46.8q-43 -4 -46.9 -46.9 3.9 -43 46.9 -46.9h46.8v-50.8Q337.9 650.4 263.7 566.4 189.5 480.5 187.5 361.3q3.9 -132.8 91.8 -220.7T500 48.8q119.1 2 203.1 74.2l43 -42.9L669.9 3.9q-21.5 -23.4 -9.7 -50.8zM875 17.6zM687.5 361.3q0 -50.8 -25.4 -93.7 -25.4 -43 -68.3 -68.4 -45 -25.4 -93.8 -25.4t-93.7 25.4q-43 25.4 -68.4 68.4t-25.4 93.7 25.4 93.8 68.4 68.3q44.9 25.4 93.7 25.4t93.8 -25.4q42.9 -25.4 68.3 -68.3t25.4 -93.8z"/></svg>