<svg height="1000" width="875" xmlns="http://www.w3.org/2000/svg"><path d="M566.4 15.6q11.7 -27.3 43 -29.3h218.7q43 3.9 46.9 46.9V252q-2 31.2 -29.3 42.9t-50.8 -9.7l-64.4 -64.5L627 322.3q58.5 85.9 60.5 195.3 -3.9 146.5 -101.6 242.2 -95.7 97.6 -242.1 101.5Q197.3 857.4 101.6 759.8 3.9 664.1 0 517.6 3.9 371.1 101.6 275.4q95.7 -97.7 242.2 -101.6 109.3 2 195.3 60.6L640.6 130.9 576.2 66.4Q554.7 43 566.4 15.6zm214.9 64.5zM343.8 736.3q58.5 0 109.3 -29.3t80.1 -80 29.3 -109.4T533.2 408.2t-80.1 -80.1T343.8 298.8t-109.4 29.3 -80.1 80.1T125 517.6 154.3 627t80.1 80 109.4 29.3z"/></svg>