<svg height="1000" width="1250" xmlns="http://www.w3.org/2000/svg"><path d="M984.4 -76.2q-31.3 2 -43 29.3t9.8 50.8l76.1 76.2L984.4 123Q900.4 50.8 781.3 48.8q-132.9 3.9 -220.8 91.8t-91.7 220.7q1.9 119.2 76.1 205.1 74.2 84 189.5 103.5V720.7h-46.9q-43 3.9 -46.9 46.9 3.9 42.9 46.9 46.9h46.9V877h46.9 -46.9q3.9 42.9 46.9 46.8 42.9 -3.9 46.8 -46.8h-46.8 46.8V814.5H875q43 -4 46.9 -46.9Q918 724.6 875 720.7h-46.9V669.9q115.3 -19.5 189.5 -103.5 74.2 -85.9 76.2 -205.1 -2 -93.7 -48.9 -166l48.9 -48.8 76.1 76.2q23.5 19.5 50.8 9.7 27.3 -11.7 29.3 -42.9V-29.3q-3.9 -43 -46.9 -46.9H984.4zm-203.1 250q50.7 0 93.7 25.4t68.4 68.4q25.4 44.9 25.4 93.7t-25.4 93.8Q918 498 875 523.4t-93.7 25.4 -93.8 -25.4 -68.4 -68.3q-25.3 -44.9 -25.3 -93.8t25.3 -93.7q25.4 -43 68.4 -68.4t93.8 -25.4zM373 -41q-7.8 -19.5 -29.2 -19.5T314.5 -41l-56.7 144.5L109.4 58.6Q87.9 52.7 74.2 68.4q-11.7 17.5 -1.9 35.1l78.1 134.8L21.5 326.2Q3.9 339.8 7.8 359.4q5.9 19.5 27.4 23.4l152.3 23.5 -9.8 156.2q-1.9 21.5 17.6 31.3 17.6 7.8 33.2 -5.9L343.8 482.4 459 587.9q11.7 11.7 29.3 7.8 -80.1 -99.6 -82 -234.4 0 -89.8 39 -166Q482.4 121.1 546.9 68.4l-117.2 35.1L373 -41z"/></svg>