<svg height="1000" width="1125" xmlns="http://www.w3.org/2000/svg"><path d="M843.8 392.6q80 -2 132.8 -54.7 52.7 -52.7 54.7 -132.8 -2 -80.1 -54.7 -132.8T843.8 17.6Q791 17.6 748 43q-41 25.4 -66.4 68.3H578.1q31.3 -84 101.6 -134.7t164.1 -52.8q119.1 3.9 199.2 82.1 78.1 80 82 199.2 -3.9 119.1 -82 199.2 -80.1 78.1 -199.2 82 -82.1 -1.9 -146.5 -41L765.6 375q35.2 17.6 78.2 17.6zM3.9 203.1q11.7 -27.3 43 -29.3h718.7q31.3 2 43 29.3t-9.8 50.8L453.1 599.6v230.5h125q43 3.9 46.9 46.9 -3.9 42.9 -46.9 46.8H234.4q-43 -3.9 -46.9 -46.8 3.9 -43 46.9 -46.9h125V599.6L13.7 253.9Q-7.8 230.5 3.9 203.1z"/></svg>