<svg height="1000" width="1250" xmlns="http://www.w3.org/2000/svg"><path d="M625 48.8q-82 0 -148.4 45l-72.3 48.8q-48.8 31.2 -105.5 31.2H109.4q-46.9 2 -78.1 31.3Q2 236.3 0 283.2v166q2 82.1 48.8 144.6 48.9 62.5 128.9 82l211 52.7q103.5 68.4 236.3 70.3 132.8 -1.9 236.3 -68.3l211 -52.8q80 -21.4 128.9 -83.9Q1248 531.3 1250 449.2v-166q-2 -46.9 -31.2 -78.1 -31.3 -29.3 -78.2 -31.3H951.2q-56.7 0 -103.5 -31.2L773.4 93.8Q707 48.8 625 48.8zM257.8 599.6l-56.6 -13.7 56.6 13.7 -56.6 -13.7Q152.3 572.3 123 535.2t-29.2 -86v-166q1.9 -13.7 15.6 -15.6h78.1v93.7q2 134.8 70.3 238.3zm791 -13.7l-56.6 13.7 56.6 -13.7 -56.6 13.7q68.3 -103.5 70.3 -238.3v-93.7h78.1q13.7 1.9 15.7 15.6v166q-2 48.8 -29.3 86 -29.3 37.1 -78.2 50.7zM375 330.1q2 -29.3 31.3 -31.3h437.5q29.2 2 31.2 31.3 -2 29.3 -31.2 31.2H406.3Q377 359.4 375 330.1zm31.3 93.7h437.5H406.3h437.5q29.2 2 31.2 31.3 -2 29.3 -31.2 31.2H406.3Q377 484.4 375 455.1q2 -29.3 31.3 -31.3zm31.2 156.3q2 -29.3 31.3 -31.3h312.5q29.2 2 31.2 31.3 -2 29.3 -31.2 31.2H468.8q-29.3 -1.9 -31.3 -31.2z"/></svg>