<svg height="1000" width="1250" xmlns="http://www.w3.org/2000/svg"><path d="M146.5 652.3Q209 709 296.9 757.8q85.9 46.9 173.8 39.1 17.6 -3.9 35.2 -9.8Q478.5 752 459 718.8 396.5 613.3 408.2 496.1q-62.5 13.7 -107.4 50.8 -9.8 7.8 -19.5 1.9 -11.8 -3.9 -9.8 -15.6 9.8 -50.8 44.9 -85.9 37.1 -35.2 87.9 -43 7.8 -2 15.6 -2L459 144.5q1.9 -44.9 48.8 -87.9Q533.2 33.2 584 13.7q48.8 -19.6 125 -27.4l-3.9 -3.9Q677.7 -43 591.8 -64.5q-85.9 -23.4 -248 0Q181.6 -37.1 105.5 7.8 29.3 54.7 11.7 87.9 -3.9 111.3 2 142.6l46.8 320.3q15.7 113.3 97.7 189.4zM316.4 224.6q17.6 -9.8 23.4 5.9v3.9q4 31.2 -13.6 56.6t-50.8 31.3q-31.3 3.9 -56.6 -15.7 -25.4 -17.5 -29.3 -50.7l-2 -2q2 -17.6 21.5 -13.7 25.4 9.8 54.7 3.9 29.3 -3.9 52.7 -19.5zm195.3 460.9q43 72.3 113.3 144.6 68.4 72.2 154.3 89.8 87.9 7.8 173.8 -39Q1041 832 1103.5 775.4q82 -76.2 97.7 -189.5L1248 263.7q5.9 -29.3 -9.7 -52.8 -19.5 -33.2 -93.8 -80Q1068.4 84 906.3 56.6q-162.2 -21.4 -248.1 0t-113.3 48.9q-21.5 19.5 -25.4 48.8l-46.8 320.3q-17.6 113.3 39 210.9zM791 382.8q-23.4 -15.6 -52.7 -19.5 -29.3 -5.9 -56.7 3.9 -17.5 3.9 -19.5 -13.7v-1.9q5.9 -33.2 29.3 -52.8 25.4 -17.5 58.6 -13.6 31.3 5.8 48.8 31.2 19.6 25.4 15.7 56.6v2l-2 2q-5.9 15.6 -21.5 5.8zm265.6 31.3q-7.8 15.6 -23.4 5.8 -23.4 -15.6 -52.7 -21.5 -29.3 -3.9 -56.7 5.9 -17.5 3.9 -19.5 -13.7v-3.9q5.9 -31.2 31.2 -50.8 23.5 -17.5 56.7 -13.6 31.2 5.8 50.8 31.2 17.5 23.5 13.6 56.7v3.9zm-21.4 193.3q-29.3 66.4 -91.8 101.6 -62.5 35.1 -136.8 25.4 -74.2 -11.7 -123 -64.5Q634.8 619.1 625 544.9q0 -11.7 9.8 -15.6t19.5 3.9q72.3 62.5 169.9 78.1 99.6 13.7 185.6 -25.4 11.7 -3.9 21.5 2 7.8 7.8 3.9 19.5z"/></svg>