<svg height="1000" width="1125" xmlns="http://www.w3.org/2000/svg"><path d="M562.5 48.8q-216.8 2 -339.8 56.7Q99.6 160.2 48.8 252 -2 343.8 0 455.1q3.9 166 101.6 253.9 97.6 89.8 242.2 89.8h15.6q76.1 -1.9 113.3 -68.3l44.9 -91.8q13.7 -25.4 44.9 -27.4 31.3 2 44.9 27.4l44.9 91.8q37.2 66.4 113.3 68.3h15.7q144.5 0 242.1 -89.8 97.7 -87.9 101.6 -253.9 2 -111.3 -48.8 -203.1T902.3 105.5 562.5 48.8zm-375 375q2 -70.3 62.5 -107.4 62.5 -35.1 125 0 60.5 37.1 62.5 107.4 -2 70.3 -62.5 107.5 -62.5 35.1 -125 0Q189.5 494.1 187.5 423.8zm625 -125q70.3 2 107.4 62.5 35.2 62.5 0 125 -37.1 60.6 -107.4 62.5 -70.3 -1.9 -107.4 -62.5 -35.2 -62.5 0 -125 37.1 -60.5 107.4 -62.5z"/></svg>