<svg height="1000" width="1250" xmlns="http://www.w3.org/2000/svg"><path d="M310.5 267.6Q252 400.4 250 511.7q0 46.9 11.7 89.9l-60.5 -15.7Q152.3 572.3 123 535.2t-29.2 -86v-166q1.9 -13.7 15.6 -15.6h201.1zm50.8 -93.8H109.4h251.9H109.4q-46.9 2 -78.1 31.3Q2 236.3 0 283.2v166q2 82.1 48.8 144.6 48.9 62.5 128.9 82l138.7 35.1q68.4 91.8 183.6 130.9V691.4Q439.5 640.6 437.5 560.5q0 -50.7 25.4 -111.3t68.4 -103.5q41 -44.9 93.7 -46.9 52.7 2 93.8 46.9 42.9 43 68.3 103.5t25.4 111.3q-2 80.1 -62.5 130.9v150.4Q863.3 802.7 933.6 710.9l138.7 -35.1q80 -19.5 128.9 -82Q1248 531.3 1250 449.2v-166q-2 -46.9 -31.2 -78.1 -31.3 -29.3 -78.2 -31.3H888.7Q835.9 91.8 769.5 41 701.2 -11.7 625 -13.7q-78.1 2 -144.5 54.7Q412.1 91.8 361.3 173.8zm578.2 93.8h201.1H939.5h201.1q13.7 1.9 15.7 15.6v166q0 48.8 -29.3 86t-76.2 50.7l-62.5 15.7q11.7 -43 11.7 -89.9Q998 400.4 939.5 267.6zm-377 281.2v375 -375 375h125v-375q0 -27.3 -17.6 -44.9T625 486.3t-44.9 17.6 -17.6 44.9z"/></svg>