<svg height="1000" width="1000" xmlns="http://www.w3.org/2000/svg"><path d="M390.6 -13.7H109.4h281.2H109.4q-43 3.9 -46.9 46.9v281.3q2 31.2 29.3 42.9t50.8 -9.7l78.1 -78.2L375 423.8 220.7 578.1 142.6 500q-23.5 -21.5 -50.8 -9.8t-29.3 43v281.3q3.9 42.9 46.9 46.8h281.2q31.3 -1.9 43 -29.3t-9.8 -50.7l-78.1 -78.2L500 548.8l154.3 154.3 -78.1 78.2q-21.5 23.4 -9.8 50.7t43 29.3h281.2q43 -3.9 46.9 -46.8V533.2q-2 -31.2 -29.3 -43t-50.8 9.8l-78.1 78.1L625 423.8 779.3 269.5l78.1 78.2q23.5 21.4 50.8 9.7t29.3 -42.9V33.2q-3.9 -43 -46.9 -46.9H609.4q-31.3 2 -43 29.3t9.8 50.8l78.1 78.1L500 298.8 345.7 144.5l78.1 -78.1Q445.3 43 433.6 15.6t-43 -29.3z"/></svg>