<svg height="1000" width="1000" xmlns="http://www.w3.org/2000/svg"><path d="M7.8 -2Q0 -13.7 0 -27.3q3.9 -45 48.8 -48.9h212.9q35.2 2 52.8 31.3l134.7 222.6Q304.7 197.3 207 298.8L7.8 -2zm984.4 0L793 298.8 992.2 -2 793 298.8Q695.3 197.3 550.8 177.7L685.5 -44.9q17.6 -29.3 52.8 -31.3h212.9q44.9 3.9 48.8 48.9 0 13.6 -7.8 25.3zM156.3 580.1q0 -93.8 46.8 -171.9 44.9 -78.1 125 -125Q410.2 236.3 500 236.3t171.9 46.9q80.1 46.9 125 125 46.9 78.1 46.9 171.9T796.9 752q-44.9 78.1 -125 125Q589.8 923.8 500 923.8T328.1 877Q248 830.1 203.1 752 156.3 673.8 156.3 580.1zM515.6 394.5q-15.6 -19.5 -31.2 0l-44.9 89.9q-4 7.8 -13.7 9.7l-97.7 13.7q-23.4 9.8 -9.7 31.3l70.3 68.3q5.8 7.8 5.8 17.6L377 720.7q0 11.7 7.8 19.5 7.8 5.9 19.5 0l87.9 -44.9q7.8 -3.9 15.6 0l87.9 44.9q25.4 7.8 27.3 -19.5L605.5 625q-2 -9.8 5.8 -17.6l70.3 -68.3q13.7 -21.5 -9.7 -31.3l-97.7 -13.7q-9.7 -1.9 -13.7 -9.7l-44.9 -89.9z"/></svg>