<svg height="1000" width="1125" xmlns="http://www.w3.org/2000/svg"><path d="M125 48.8q-52.7 2 -87.9 37.1Q2 121.1 0 173.8v13.7q2 21.5 19.5 33.2 41 27.3 43 78.1 -2 50.8 -43 78.2Q2 388.7 0 410.2v138.6h1125V410.2q-2 -21.5 -19.5 -33.2 -41 -27.4 -43 -78.2 2 -50.8 43 -78.1Q1123 209 1125 187.5v-13.7q-2 -52.7 -37.1 -87.9T1000 48.8H125zm1000 562.5H0h1125H0v125q0 27.4 17.6 45t44.9 17.5h93.8v-62.5q1.9 -29.3 31.2 -31.2 29.3 1.9 31.3 31.2v62.5h187.5v-62.5q1.9 -29.3 31.2 -31.2 29.3 1.9 31.3 31.2v62.5h187.5v-62.5q1.9 -29.3 31.2 -31.2 29.3 1.9 31.3 31.2v62.5h187.5v-62.5q1.9 -29.3 31.2 -31.2 29.3 1.9 31.3 31.2v62.5h93.7q27.3 0 44.9 -17.5t17.6 -45v-125zm-750 -375v125 -125 125q0 27.4 -17.6 45t-44.9 17.5 -44.9 -17.5 -17.6 -45v-125q0 -27.3 17.6 -44.9t44.9 -17.6 44.9 17.6 17.6 44.9zm250 0v125 -125 125q0 27.4 -17.6 45t-44.9 17.5 -44.9 -17.5 -17.6 -45v-125q0 -27.3 17.6 -44.9t44.9 -17.6 44.9 17.6 17.6 44.9zm250 0v125 -125 125q0 27.4 -17.6 45t-44.9 17.5 -44.9 -17.5 -17.6 -45v-125q0 -27.3 17.6 -44.9t44.9 -17.6 44.9 17.6 17.6 44.9z"/></svg>