<svg height="1000" width="1250" xmlns="http://www.w3.org/2000/svg"><path d="M41 -62.5q5.9 -13.7 21.5 -13.7T84 -62.5l35.1 84q5.9 11.7 5.9 25.4v1.9q0 27.4 -17.6 45t-44.9 17.5T17.6 93.8 0 48.8v-1.9Q0 33.2 5.9 21.5l35.1 -84zm187.5 0q5.9 -13.7 21.5 -13.7t21.5 13.7l35.1 84q5.9 11.7 5.9 25.4v1.9q0 27.4 -17.6 45T250 111.3 205.1 93.8t-17.6 -45v-1.9q0 -13.7 5.9 -25.4l35.1 -84zm152.4 84l35.1 -84 -35.1 84 35.1 -84q5.9 -13.7 21.5 -13.7t21.5 13.7l35.1 84q5.9 11.7 5.9 25.4v1.9q0 27.4 -17.6 45t-44.9 17.5T392.6 93.8 375 48.8v-1.9q0 -13.7 5.9 -25.4zm222.6 -84q5.9 -13.7 21.5 -13.7t21.5 13.7l35.1 84q5.9 11.7 5.9 25.4v1.9q0 27.4 -17.6 45T625 111.3 580.1 93.8t-17.6 -45v-1.9q0 -13.7 5.9 -25.4l35.1 -84zm152.4 84l35.1 -84 -35.1 84 35.1 -84q5.9 -13.7 21.5 -13.7t21.5 13.7l35.1 84q5.9 11.7 5.9 25.4v1.9q0 27.4 -17.6 45t-44.9 17.5T767.6 93.8 750 48.8v-1.9q0 -13.7 5.9 -25.4zm222.6 -84q5.9 -13.7 21.5 -13.7t21.5 13.7l35.1 84q5.9 11.7 5.9 25.4v1.9q0 27.4 -17.6 45t-44.9 17.5T955.1 93.8t-17.6 -45v-1.9q0 -13.7 5.9 -25.4l35.1 -84zm152.4 84l35.1 -84 -35.1 84 35.1 -84q5.9 -13.7 21.5 -13.7t21.5 13.7l35.1 84q5.9 11.7 5.9 25.4v1.9q0 27.4 -17.6 45t-44.9 17.5 -44.9 -17.5 -17.6 -45v-1.9q0 -13.7 5.9 -25.4zM62.5 173.8q27.3 0 44.9 17.6Q125 209 125 236.3v250q0 27.4 17.6 45t44.9 17.5h375V236.3q0 -27.3 17.6 -44.9T625 173.8t44.9 17.6 17.6 44.9v312.5h375q27.3 0 44.9 -17.5t17.6 -45v-250q0 -27.3 17.6 -44.9t44.9 -17.6 44.9 17.6 17.6 44.9v250q-2 80.1 -54.7 132.8t-132.8 54.7h-375v125h250q27.3 0 44.9 17.6t17.6 44.9 -17.6 45 -44.9 17.5h-625q-27.3 0 -44.9 -17.5t-17.6 -45 17.6 -44.9 44.9 -17.6h250v-125h-375Q107.4 671.9 54.7 619.1T0 486.3v-250Q0 209 17.6 191.4t44.9 -17.6zm187.5 0q27.3 0 44.9 17.6 17.6 17.6 17.6 44.9v250h-125v-250q0 -27.3 17.6 -44.9T250 173.8zm187.5 0q27.3 0 44.9 17.6Q500 209 500 236.3v250H375v-250q0 -27.3 17.6 -44.9t44.9 -17.6zm375 0q27.3 0 44.9 17.6Q875 209 875 236.3v250H750v-250q0 -27.3 17.6 -44.9t44.9 -17.6zm187.5 0q27.3 0 44.9 17.6 17.6 17.6 17.6 44.9v250h-125v-250q0 -27.3 17.6 -44.9t44.9 -17.6z"/></svg>