<svg height="1000" width="750" xmlns="http://www.w3.org/2000/svg"><path d="M140.6 -62.5q21.5 -15.6 46.9 -13.7 23.4 3.9 41 23.5Q283.2 15.6 375 17.6q91.8 -2 146.5 -70.3 17.6 -19.6 41 -23.5 25.4 -1.9 46.9 13.7 19.5 17.6 23.4 41 2 25.4 -13.7 46.9 -23.4 29.3 -50.7 50.8 68.3 46.8 109.3 121.1t41.1 164q-2 132.8 -86 226.6 -82 93.7 -210.9 113.3V752h62.5q42.9 3.9 46.9 46.8 -4 43 -46.9 46.9h-62.5V877Q418 919.9 375 923.8 332 919.9 328.1 877v-31.3h-62.5q-42.9 -3.9 -46.8 -46.9 3.9 -42.9 46.8 -46.8h62.5v-50.8Q199.2 681.6 117.2 587.9 33.2 494.1 31.3 361.3q0 -89.8 41 -164T183.6 76.2Q154.3 54.7 130.9 25.4 115.2 3.9 117.2 -21.5q3.9 -23.4 23.4 -41zm15.7 423.8q0 58.6 29.2 109.4 29.3 50.8 80.1 80.1T375 580.1t109.4 -29.3 80.1 -80.1 29.3 -109.4T564.5 252t-80.1 -80.1T375 142.6t-109.4 29.3T185.5 252t-29.2 109.3z"/></svg>