<svg height="1000" width="1000" xmlns="http://www.w3.org/2000/svg"><path d="M964.8 -74.2L584 72.3 964.8 -74.2 584 72.3l5.8 -58.6q0 -19.6 -15.6 -27.4 -13.7 -9.7 -31.2 -1.9L197.3 183.6Q105.5 238.3 52.7 330.1 0 419.9 0 527.3q3.9 168 115.2 281.3 113.3 111.3 281.3 115.2 107.4 0 197.3 -52.7 91.7 -52.7 146.4 -144.5L939.5 380.9q7.8 -17.6 0 -31.3Q929.7 334 910.2 334l-58.6 5.8L998 -41q2 -3.9 2 -9.8 -2 -23.4 -25.4 -25.4 -5.8 0 -9.8 2zM375 298.8q68.4 0 125 33.2 56.6 33.2 91.8 91.8 33.2 58.6 33.2 125t-33.2 125q-35.2 58.6 -91.8 91.8t-125 33.2T250 765.6t-91.8 -91.8Q125 615.2 125 548.8t33.2 -125Q193.4 365.2 250 332t125 -33.2zm0 187.5q0 -27.3 -17.6 -44.9 -17.6 -17.6 -44.9 -17.6t-44.9 17.6T250 486.3t17.6 45 44.9 17.5 44.9 -17.5 17.6 -45zm31.3 187.5q29.2 -1.9 31.2 -31.2 -2 -29.3 -31.2 -31.3 -29.3 2 -31.3 31.3 2 29.3 31.3 31.2z"/></svg>