<svg height="1000" width="750" xmlns="http://www.w3.org/2000/svg"><path d="M375 -76.2q-80.1 2 -132.8 54.7 -52.7 52.8 -54.7 132.8v312.5q2 80.1 54.7 132.8T375 611.3q80.1 -1.9 132.8 -54.7t54.7 -132.8V111.3q-2 -80 -54.7 -132.8T375 -76.2zM125 345.7q-3.9 -43 -46.9 -46.9 -42.9 3.9 -46.8 46.9v78.1q1.9 132.8 85.9 226.6 82 93.7 210.9 113.3v66.4h-93.7q-43 3.9 -46.9 46.9 3.9 42.9 46.9 46.8h281.2q43 -3.9 46.9 -46.8 -3.9 -43 -46.9 -46.9h-93.7v-66.4Q550.8 744.1 632.8 650.4q84 -93.8 86 -226.6v-78.1q-4 -43 -46.9 -46.9 -43 3.9 -46.9 46.9v78.1q-2 105.5 -72.3 177.8Q480.5 671.9 375 673.8 269.5 671.9 197.3 601.6 127 529.3 125 423.8v-78.1z"/></svg>