<svg height="1000" width="1000" xmlns="http://www.w3.org/2000/svg"><path d="M312.5 -13.7q0 -27.3 17.6 -44.9 17.6 -17.6 44.9 -17.6h62.5q27.3 0 44.9 17.6t17.6 44.9q27.3 0 44.9 17.6t17.6 44.9v437.5q0 27.4 -17.6 45T500 548.8q0 27.4 -17.6 45t-44.9 17.5H375q-27.3 0 -44.9 -17.5t-17.6 -45q-27.3 0 -44.9 -17.5t-17.6 -45V48.8q0 -27.3 17.6 -44.9t44.9 -17.6zm-250 812.5H625 62.5 625q105.5 -1.9 177.7 -72.2Q873 654.3 875 548.8 873 443.4 802.7 371.1 730.5 300.8 625 298.8v-125q160.2 3.9 265.6 109.4T1000 548.8q-3.9 146.5 -95.7 250h33.2q27.3 0 44.9 17.6t17.6 44.9 -17.6 45 -44.9 17.5h-875q-27.3 0 -44.9 -17.5T0 861.3t17.6 -44.9 44.9 -17.6zm156.3 -125h375 -375 375q29.2 2 31.2 31.3 -2 29.3 -31.2 31.2h-375q-29.3 -1.9 -31.3 -31.2 2 -29.3 31.3 -31.3z"/></svg>