<svg height="1000" width="1000" xmlns="http://www.w3.org/2000/svg"><path d="M343.8 -29.3q-4 -43 -46.9 -46.9 -43 3.9 -46.9 46.9v78.1q-52.7 2 -87.9 37.1T125 173.8H46.9Q3.9 177.7 0 220.7q3.9 43 46.9 46.9H125V377H46.9Q3.9 380.9 0 423.8q3.9 43 46.9 46.9H125v109.4H46.9Q3.9 584 0 627q3.9 42.9 46.9 46.8H125q2 52.8 37.1 87.9t87.9 37.1V877q3.9 42.9 46.9 46.8 42.9 -3.9 46.9 -46.8v-78.2h109.3V877q3.9 42.9 46.9 46.8 43 -3.9 46.9 -46.8v-78.2h109.4V877q3.9 42.9 46.8 46.8 43 -3.9 46.9 -46.8v-78.2q52.7 -1.9 87.9 -37.1T875 673.8h78.1q43 -3.9 46.9 -46.8 -3.9 -43 -46.9 -46.9H875V470.7h78.1q43 -3.9 46.9 -46.9Q996.1 380.9 953.1 377H875V267.6h78.1q43 -3.9 46.9 -46.9 -3.9 -43 -46.9 -46.9H875q-2 -52.7 -37.1 -87.9T750 48.8v-78.1q-3.9 -43 -46.9 -46.9 -42.9 3.9 -46.8 46.9v78.1H546.9v-78.1Q543 -72.3 500 -76.2q-43 3.9 -46.9 46.9v78.1H343.8v-78.1zm-31.3 203.1h375 -375 375q27.3 0 44.9 17.6t17.6 44.9v375q0 27.4 -17.6 45t-44.9 17.5h-375q-27.3 0 -44.9 -17.5t-17.6 -45v-375q0 -27.3 17.6 -44.9t44.9 -17.6zm375 62.5h-375 375 -375v375h375v-375z"/></svg>