<svg height="1000" width="750" xmlns="http://www.w3.org/2000/svg"><path d="M589.8 7.8q7.9 -25.4 -1.9 -48.8 -11.7 -21.5 -35.2 -31.3 -25.4 -7.8 -48.8 2 -21.5 11.7 -31.2 35.1l-66.4 185.6q-17.6 11.7 -31.3 27.3Q312.5 113.3 218.8 111.3q-58.6 0 -105.5 27.4Q95.7 113.3 62.5 111.3q-27.3 0 -44.9 17.6T0 173.8v562.5q0 27.4 17.6 45t44.9 17.5 44.9 -17.5 17.6 -45V330.1q2 -39.1 27.3 -66.4 27.4 -25.4 66.5 -27.4 39 2 66.4 27.4 25.3 27.3 27.3 66.4v84L160.2 839.8q-7.9 25.4 1.9 48.9 11.7 21.5 35.2 31.2 25.4 7.8 48.8 -1.9 21.5 -11.7 31.2 -35.2l43 -117.2q15.6 31.3 54.7 33.2 27.3 0 44.9 -17.5t17.6 -45V435.5l70.3 -195.3q11.7 -3.9 23.5 -3.9 39 0 66.4 27.4Q623 291 625 330.1v406.2q0 27.4 17.6 45t44.9 17.5 44.9 -17.5 17.6 -45V330.1q-2 -87.9 -56.6 -148.5Q636.7 123 552.7 111.3L589.8 7.8z"/></svg>