<svg height="1000" width="1000" xmlns="http://www.w3.org/2000/svg"><path d="M890.6 361.3H609.4h281.2H609.4q-43 -3.9 -46.9 -46.8V33.2q2 -31.2 29.3 -43T642.6 0l78.1 78.1L863.3 -64.5q11.7 -11.7 27.3 -11.7t27.4 11.7l70.3 70.4q11.7 11.7 11.7 27.3t-11.7 27.3L845.7 203.1l78.1 78.2q21.5 23.4 9.8 50.7t-43 29.3zm0 125q31.3 2 43 29.3t-9.8 50.8l-78.1 78.1 142.6 142.6q11.7 11.7 11.7 27.4t-11.7 27.3L918 914.1q-11.7 9.7 -27.4 9.7t-27.3 -11.7L720.7 769.5l-78.1 78.2q-23.5 21.4 -50.8 9.7t-29.3 -42.9V533.2q3.9 -43 46.9 -46.9h281.2zm-500 0q43 3.9 46.9 46.9v281.3q-2 31.2 -29.3 42.9t-50.8 -9.7l-78.1 -78.2L136.7 912.1q-11.7 11.7 -27.3 11.7T82 912.1L11.7 841.8Q0 830.1 0 814.5t11.7 -27.4L154.3 644.5 76.2 566.4Q54.7 543 66.4 515.6t43 -29.3h281.2zm-281.2 -125Q78.1 359.4 66.4 332t9.8 -50.7l78.1 -78.2L11.7 60.5Q0 48.8 0 33.2T11.7 5.9L82 -64.5q11.8 -11.7 27.4 -11.7t27.3 11.7L279.3 78.1 357.4 0q23.5 -21.5 50.8 -9.8t29.3 43v281.3q-3.9 42.9 -46.9 46.8H109.4z"/></svg>