<svg height="1000" width="625" xmlns="http://www.w3.org/2000/svg"><path d="M0 48.8Q2 -3.9 37.1 -39.1 72.3 -74.2 125 -76.2h375q52.7 2 87.9 37.1T625 48.8v750q-2 52.8 -37.1 87.9T500 923.8H125Q72.3 921.9 37.1 886.7T0 798.8v-750zm125 187.5v125 -125 125q0 27.4 17.6 45t44.9 17.5h250q27.3 0 44.9 -17.5t17.6 -45v-125q0 -27.3 -17.6 -44.9t-44.9 -17.6h-250q-27.3 0 -44.9 17.6T125 236.3zm31.3 375q42.9 -3.9 46.8 -46.8 -3.9 -43 -46.8 -46.9 -43 3.9 -46.9 46.9 3.9 42.9 46.9 46.8zm46.8 109.4q-3.9 -43 -46.8 -46.9 -43 3.9 -46.9 46.9 3.9 43 46.9 46.9 42.9 -3.9 46.8 -46.9zM312.5 611.3q43 -3.9 46.9 -46.8 -3.9 -43 -46.9 -46.9 -43 3.9 -46.9 46.9 3.9 42.9 46.9 46.8zm46.9 109.4q-3.9 -43 -46.9 -46.9 -43 3.9 -46.9 46.9 3.9 43 46.9 46.9 43 -3.9 46.9 -46.9zM468.8 611.3q42.9 -3.9 46.8 -46.8 -3.9 -43 -46.8 -46.9 -43 3.9 -46.9 46.9 3.9 42.9 46.9 46.8zm46.8 109.4q-3.9 -43 -46.8 -46.9 -43 3.9 -46.9 46.9 3.9 43 46.9 46.9 42.9 -3.9 46.8 -46.9zM250 17.6q-29.3 1.9 -31.2 31.2 1.9 29.3 31.2 31.3h125q29.3 -2 31.3 -31.3Q404.3 19.5 375 17.6H250z"/></svg>