<svg height="1000" width="1125" xmlns="http://www.w3.org/2000/svg"><path d="M125 48.8q-52.7 2 -87.9 37.1Q2 121.1 0 173.8v500q2 52.8 37.1 87.9t87.9 37.1h875q52.7 -1.9 87.9 -37.1t37.1 -87.9v-500q-2 -52.7 -37.1 -87.9T1000 48.8H125zm93.8 312.5h312.5H218.8h312.5q29.2 2 31.2 31.3 -2 29.3 -31.2 31.2H218.8q-29.3 -1.9 -31.3 -31.2 2 -29.3 31.3 -31.3zm-31.3 218.8q2 -29.3 31.3 -31.3h687.5q29.2 2 31.2 31.3 -2 29.3 -31.2 31.2H218.8q-29.3 -1.9 -31.3 -31.2zM734.4 236.3h156.2H734.4h156.2q43 3.9 46.9 46.9V377q-3.9 42.9 -46.9 46.8H734.4q-43 -3.9 -46.9 -46.8v-93.8q3.9 -43 46.9 -46.9z"/></svg>