<svg height="1000" width="1250" xmlns="http://www.w3.org/2000/svg"><path d="M187.5 111.3v437.5V111.3v437.5q2 52.8 37.1 87.9t87.9 37.1H1125q52.7 -1.9 87.9 -37.1t37.1 -87.9V111.3q-2 -52.7 -37.1 -87.9T1125 -13.7H312.5q-52.7 2 -87.9 37.1t-37.1 87.9zm125 312.5q52.7 2 87.9 37.1 35.1 35.2 37.1 87.9h-125v-125zm125 -312.5q-2 52.8 -37.1 87.9 -35.2 35.2 -87.9 37.1v-125h125zM1125 423.8v125 -125 125h-125q2 -52.7 37.1 -87.9t87.9 -37.1zM1000 111.3h125 -125 125v125q-52.7 -1.9 -87.9 -37.1T1000 111.3zM562.5 330.1q2 -87.9 78.1 -134.8 78.2 -43 156.3 0Q873 242.2 875 330.1q-2 87.9 -78.1 134.7 -78.1 43 -156.3 0Q564.5 418 562.5 330.1zM93.8 158.2q-4 -43 -46.9 -46.9Q3.9 115.2 0 158.2V627q2 99.6 68.4 166t166 68.3h781.2q43 -3.9 46.9 -46.8 -3.9 -43 -46.9 -46.9H234.4q-60.6 -2 -99.6 -41T93.8 627V158.2z"/></svg>