<svg height="1000" width="1125" xmlns="http://www.w3.org/2000/svg"><path d="M0 144.5V748 144.5 748q2 58.6 52.7 82.1 127 42.9 255.9 27.3 126.9 -15.6 253.9 -50.8 117.2 -33.2 234.4 -50.7 117.2 -15.7 232.4 13.6 35.2 7.8 64.5 -11.7 29.2 -17.6 31.2 -54.7V99.6q-2 -58.6 -52.7 -82 -127 -43 -253.9 -27.4Q689.5 5.9 562.5 41 445.3 74.2 328.1 89.8 210.9 107.4 95.7 78.1 58.6 70.3 31.3 87.9 2 107.4 0 144.5zm562.5 466.8q-66.4 -1.9 -111.3 -54.7 -43 -52.7 -44.9 -132.8 1.9 -80 44.9 -132.8 44.9 -52.7 111.3 -54.7 66.4 2 111.3 54.7 43 52.8 45 132.8 -2 80.1 -45 132.8 -44.9 52.8 -111.3 54.7zm-437.5 0q52.7 2 87.9 37.1 35.1 35.2 37.1 87.9H125v-125zM250 205.1q-2 52.7 -37.1 87.9 -35.2 35.1 -87.9 37.1v-125h125zm750 312.5v125 -125 125H875q2 -52.8 37.1 -87.9t87.9 -37.1zM875 111.3h125H875h125v125q-52.7 -1.9 -87.9 -37.1T875 111.3z"/></svg>