<svg height="1000" width="1125" xmlns="http://www.w3.org/2000/svg"><path d="M125 48.8q-52.7 2 -87.9 37.1Q2 121.1 0 173.8v500q2 52.8 37.1 87.9t87.9 37.1h875q52.7 -1.9 87.9 -37.1t37.1 -87.9v-500q-2 -52.7 -37.1 -87.9T1000 48.8H125zm125 625H125h125H125v-125q52.7 2 87.9 37.1t37.1 87.9zm-125 -375v-125 125 -125h125q-2 52.8 -37.1 87.9T125 298.8zm750 375q2 -52.7 37.1 -87.9 35.2 -35.1 87.9 -37.1v125H875zm125 -375q-52.7 -1.9 -87.9 -37.1Q877 226.6 875 173.8h125v125zm-656.2 125q0 -58.6 29.2 -109.3 29.3 -50.8 80.1 -80.1t109.4 -29.3 109.4 29.3 80.1 80.1 29.3 109.3T752 533.2t-80.1 80.1 -109.4 29.3T453.1 613.3 373 533.2 343.8 423.8zm148.4 -93.7q1.9 31.2 31.2 39v93.8h-7.8q-35.1 3.9 -39 39.1 3.9 35.1 39 39h93.8q35.1 -3.9 39 -39 -3.9 -35.2 -39 -39.1h-7.8V330.1Q597.7 294.9 562.5 291h-31.2q-35.2 3.9 -39.1 39.1z"/></svg>