<svg height="1000" width="1000" xmlns="http://www.w3.org/2000/svg"><path d="M343.8 -76.2q66.4 2 111.3 44.9Q498 13.7 500 80.1q-2 29.3 -31.2 31.2Q402.3 109.4 357.4 66.4 314.5 21.5 312.5 -44.9q2 -29.3 31.3 -31.3zm-234.4 31.3h93.7 -93.7 93.7Q246.1 -41 250 2q-3.9 42.9 -46.9 46.8h-93.7Q66.4 44.9 62.5 2q3.9 -43 46.9 -46.9zM46.9 95.7h218.7H46.9h218.7q43 3.9 46.9 46.9 -3.9 42.9 -46.9 46.9H46.9Q3.9 185.5 0 142.6q3.9 -43 46.9 -46.9zm15.6 187.5q3.9 -43 46.9 -46.9h93.7q43 3.9 46.9 46.9 -3.9 43 -46.9 46.9h-93.7q-43 -3.9 -46.9 -46.9zM531.3 -44.9q1.9 -29.3 31.2 -31.3 66.4 2 111.3 44.9 43 45 45 111.4 -2 29.3 -31.3 31.2Q621.1 109.4 576.2 66.4q-43 -44.9 -44.9 -111.3zm250 -31.3q66.4 2 111.3 44.9 42.9 45 44.9 111.4 -2 29.3 -31.2 31.2Q839.8 109.4 794.9 66.4 752 21.5 750 -44.9q2 -29.3 31.3 -31.3zm156.2 281.3q-2 66.4 -44.9 111.3 -44.9 43 -111.3 44.9Q752 359.4 750 330.1q2 -66.4 44.9 -111.3 44.9 -43 111.4 -45 29.2 2 31.2 31.3zm-250 -31.3q29.3 2 31.3 31.3 -2 66.4 -45 111.3 -44.9 43 -111.3 44.9 -29.3 -1.9 -31.2 -31.2 1.9 -66.4 44.9 -111.3 44.9 -43 111.3 -45zM500 205.1q-2 66.4 -44.9 111.3 -44.9 43 -111.3 44.9 -29.3 -1.9 -31.3 -31.2 2 -66.4 44.9 -111.3 44.9 -43 111.4 -45 29.2 2 31.2 31.3zM0 517.6q2 -39.1 27.3 -66.4 27.4 -25.4 66.5 -27.4h812.5q39 2 66.4 27.4 25.3 27.3 27.3 66.4v312.5q-2 39 -27.3 66.4 -27.4 25.4 -66.4 27.3H93.8Q54.7 921.9 27.3 896.5 2 869.1 0 830.1V517.6zm93.8 218.7v93.8 -93.8 93.8h93.7q-2 -39.1 -27.3 -66.4Q132.8 738.3 93.8 736.3zm93.7 -218.7H93.8h93.7H93.8v93.7q39 -1.9 66.4 -27.3 25.3 -27.4 27.3 -66.4zm718.8 218.7q-39.1 2 -66.5 27.4 -25.3 27.3 -27.3 66.4h93.8v-93.8zM812.5 517.6q2 39 27.3 66.4 27.4 25.4 66.5 27.3v-93.7h-93.8zM625 673.8q-2 -70.3 -62.5 -107.4 -62.5 -35.1 -125 0Q377 603.5 375 673.8q2 70.3 62.5 107.5 62.5 35.1 125 0Q623 744.1 625 673.8z"/></svg>