<svg height="1000" width="1125" xmlns="http://www.w3.org/2000/svg"><path d="M0 144.5V748 144.5 748q2 58.6 52.7 82.1 127 42.9 255.9 27.3 126.9 -15.6 253.9 -50.8 117.2 -33.2 234.4 -50.7 117.2 -15.7 232.4 13.6 35.2 7.8 64.5 -11.7 29.2 -17.6 31.2 -54.7V99.6q-2 -58.6 -52.7 -82 -127 -43 -253.9 -27.4Q689.5 5.9 562.5 41 445.3 74.2 328.1 89.8 210.9 107.4 95.7 78.1 58.6 70.3 31.3 87.9 2 107.4 0 144.5zm250 591.8H125h125H125v-125q52.7 2 87.9 37.1t37.1 87.9zm-125 -375v-125 125 -125h125q-2 52.8 -37.1 87.9T125 361.3zm750 250q2 -52.7 37.1 -87.9 35.2 -35.1 87.9 -37.1v125H875zm125 -375q-52.7 -1.9 -87.9 -37.1Q877 164.1 875 111.3h125v125zM750 423.8q-2 93.8 -54.7 154.3 -52.7 62.5 -132.8 64.5 -80.1 -2 -132.8 -64.5Q377 517.6 375 423.8q2 -93.7 54.7 -154.3Q482.4 207 562.5 205.1q80.1 1.9 132.8 64.4Q748 330.1 750 423.8zM492.2 330.1q1.9 31.2 31.2 39v93.8h-7.8q-35.1 3.9 -39 39.1 3.9 35.1 39 39h93.8q35.1 -3.9 39 -39 -3.9 -35.2 -39 -39.1h-7.8V330.1Q597.7 294.9 562.5 291h-31.2q-35.2 3.9 -39.1 39.1z"/></svg>