<svg height="1000" width="1250" xmlns="http://www.w3.org/2000/svg"><path d="M1044.9 3.9q-27.3 -33.2 0 -66.4 33.2 -27.3 66.4 0l125 125q13.7 13.7 13.7 33.2t-13.7 33.2l-125 125q-33.2 27.4 -66.4 0 -27.3 -33.2 0 -66.4l44.9 -44.9H750q-43 -3.9 -46.9 -46.9Q707 52.7 750 48.8h339.8L1044.9 3.9zM205.1 660.2l-44.9 44.9 44.9 -44.9 -44.9 44.9H500q43 3.9 46.9 46.9Q543 794.9 500 798.8H160.2l44.9 45q27.3 33.2 0 66.4 -33.2 27.3 -66.4 0l-125 -125Q0 771.5 0 752t13.7 -33.2l125 -125q33.2 -27.4 66.4 0 27.3 33.2 0 66.4zM187.5 48.8h472.7H187.5h472.7q-11.8 21.5 -11.8 46.9 2 43 29.3 72.3 29.3 27.3 72.3 29.3h228.5q-11.7 52.7 27.4 95.7 31.2 29.3 72.2 29.3t72.3 -29.3l37.1 -37.1v417.9q-2 52.8 -37.1 87.9t-87.9 37.1H589.8q11.8 -21.5 11.8 -46.8 -2 -43 -29.3 -72.3Q543 652.3 500 650.4H271.5q11.7 -52.7 -27.4 -95.7 -31.2 -29.3 -72.2 -29.3t-72.3 29.3l-37.1 39.1v-420q2 -52.7 37.1 -87.9t87.9 -37.1zm125 125h-125 125 -125v125q52.7 -1.9 87.9 -37.1t37.1 -87.9zm750 375q-52.7 2 -87.9 37.1 -35.1 35.2 -37.1 87.9h125v-125zM625 611.3q50.8 0 93.8 -25.4 42.9 -25.4 68.3 -68.3 25.4 -44.9 25.4 -93.8t-25.4 -93.7q-25.4 -43 -68.3 -68.4T625 236.3t-93.7 25.4 -68.4 68.4q-25.4 44.9 -25.4 93.7t25.4 93.8q25.4 42.9 68.4 68.3t93.7 25.4z"/></svg>