<svg height="1000" width="1125" xmlns="http://www.w3.org/2000/svg"><path d="M125 48.8q-52.7 2 -87.9 37.1Q2 121.1 0 173.8v500q2 52.8 37.1 87.9t87.9 37.1h875q52.7 -1.9 87.9 -37.1t37.1 -87.9v-500q-2 -52.7 -37.1 -87.9T1000 48.8H125zm125 625H125h125H125v-125q52.7 2 87.9 37.1t37.1 87.9zm-125 -375v-125 125 -125h125q-2 52.8 -37.1 87.9T125 298.8zm750 375q2 -52.7 37.1 -87.9 35.2 -35.1 87.9 -37.1v125H875zm125 -375q-52.7 -1.9 -87.9 -37.1Q877 226.6 875 173.8h125v125zM562.5 236.3q50.8 0 93.8 25.4 42.9 25.4 68.3 68.4Q750 375 750 423.8t-25.4 93.8q-25.4 42.9 -68.3 68.3t-93.8 25.4 -93.7 -25.4 -68.4 -68.3Q375 472.7 375 423.8t25.4 -93.7q25.4 -43 68.4 -68.4t93.7 -25.4z"/></svg>