<svg height="1000" width="1125" xmlns="http://www.w3.org/2000/svg"><path d="M125 48.8q-52.7 2 -87.9 37.1Q2 121.1 0 173.8v500q2 52.8 37.1 87.9t87.9 37.1h875q52.7 -1.9 87.9 -37.1t37.1 -87.9v-500q-2 -52.7 -37.1 -87.9T1000 48.8H125zm406.3 250h437.5H531.3h437.5q29.2 2 31.2 31.3 -2 29.3 -31.2 31.2H531.3Q502 359.4 500 330.1q2 -29.3 31.3 -31.3zM500 517.6q2 -29.3 31.3 -31.3h437.5q29.2 2 31.2 31.3 -2 29.3 -31.2 31.2H531.3Q502 546.9 500 517.6zM320.3 220.7V248v-27.3V248q21.5 4 41 9.8 33.2 11.7 27.4 46.9Q377 337.9 341.8 332q-33.2 -7.8 -60.5 -9.7 -25.4 0 -43 9.7 -13.7 7.8 -11.7 17.6 -2 5.9 9.7 13.7 17.6 9.7 56.7 21.5h1.9q35.2 9.7 70.3 29.3 43 21.4 48.9 80 -3.9 62.5 -48.9 87.9 -21.4 13.7 -44.9 17.6V627q-3.9 35.1 -39 39 -35.2 -3.9 -39.1 -39v-27.4Q210.9 591.8 187.5 582l-11.7 -3.9q-33.2 -13.6 -25.4 -48.8 13.7 -33.2 48.8 -25.4 3.9 2 7.8 2l7.8 3.9q37.2 13.6 68.4 15.6 25.4 0 41 -9.8 11.7 -5.8 11.7 -19.5 2 -7.8 -11.7 -15.6Q306.6 468.8 269.5 459l-3.9 -2q-35.1 -7.8 -68.3 -27.3 -43 -19.5 -48.9 -78.1 3.9 -62.5 50.8 -86 19.6 -11.7 43 -17.6v-27.3q3.9 -35.2 39.1 -39.1 35.1 3.9 39 39.1z"/></svg>