<svg height="1000" width="1000" xmlns="http://www.w3.org/2000/svg"><path d="M984.4 -54.7q-15.6 -17.6 -39.1 -21.5 -23.4 -1.9 -44.9 11.7L492.2 236.3h283.2l207 -205q15.6 -19.6 17.6 -43 0 -23.5 -15.6 -43zM62.5 298.8q-27.3 0 -44.9 17.6Q0 334 0 361.3t17.6 45 44.9 17.5q0 121.1 62.5 211 60.5 89.8 179.7 132.8 -33.2 41 -46.9 93.7 -5.8 27.4 11.7 45 15.7 17.5 43 17.5h375q27.3 0 43 -17.5 17.5 -17.6 11.7 -45 -13.7 -52.7 -46.9 -93.7Q814.5 724.6 875 634.8q62.5 -89.9 62.5 -211 27.3 0 44.9 -17.5t17.6 -45 -17.6 -44.9 -44.9 -17.6h-875z"/></svg>