<svg height="1000" width="1250" xmlns="http://www.w3.org/2000/svg"><path d="M781.3 -76.2q15.6 0 25.3 11.7Q857.4 2 921.9 52.7q64.4 48.9 144.5 101.6 7.8 3.9 15.6 9.8l15.7 11.7q87.8 60.5 89.8 168 -2 85.9 -58.6 142.5H433.6Q377 427.7 375 343.8q2 -107.5 89.8 -168 5.9 -5.9 13.7 -9.8 7.8 -5.8 17.6 -11.7Q576.2 101.6 640.6 52.7 705.1 2 755.9 -64.5q9.7 -11.7 25.4 -11.7zm-218.8 1000V783.2v140.6V783.2q-3.9 -43 -46.9 -46.9 -42.9 3.9 -46.8 46.9v140.6H375q-27.3 0 -44.9 -17.5t-17.6 -45v-250q0 -27.3 17.6 -44.9T375 548.8h812.5q27.3 0 44.9 17.6t17.6 44.9v250q0 27.4 -17.6 45t-44.9 17.5h-93.7V783.2q-4 -43 -46.9 -46.9 -43 3.9 -46.9 46.9v140.6H875V810.5Q873 752 830.1 714.8l-48.8 -41 -48.9 41q-42.9 37.2 -44.9 95.7v113.3h-125zM136.7 -66.4q19.6 -11.7 39.1 0L207 -43q48.9 39.1 78.2 93.8 27.3 56.6 27.3 119.1v3.9H0v-3.9Q0 107.4 27.3 50.8 56.6 -3.9 105.5 -43l31.2 -23.4zM0 236.3h312.5H0h312.5v267.6Q253.9 539.1 250 611.3v250q0 27.4 11.7 52.8 -19.5 9.7 -42.9 9.7h-125Q54.7 921.9 27.3 896.5 2 869.1 0 830.1V236.3z"/></svg>