<svg height="1000" width="1250" xmlns="http://www.w3.org/2000/svg"><path d="M906.3 912.1q29.2 -31.2 3.9 -66.4L828.1 750V642.6q0 -17.6 -9.7 -29.3L687.5 443.4l259.8 238.2q58.6 56.7 128.9 54.7 68.3 -3.9 121.1 -52.7Q1248 632.8 1250 550.8q-2 -72.3 -44.9 -123.1t-109.4 -62.5L796.9 320.3 875 240.2q23.4 -27.3 7.8 -58.6l-44.9 -82L912.1 0q21.5 -37.1 -9.8 -66.4 -35.1 -23.4 -64.4 7.8l-93.8 125q-17.5 25.4 -1.9 54.7l43 76.2 -97.7 97.6v-74.2q-3.9 -46.9 -46.9 -60.5V48.8Q638.7 35.2 625 33.2q-13.7 2 -15.6 15.6v111.4q-43 13.6 -46.9 60.5v74.2l-97.7 -97.6 43 -76.2q15.6 -29.3 -1.9 -54.7l-93.8 -125q-29.3 -31.2 -66.4 -7.8Q316.4 -37.1 337.9 0l74.2 99.6 -46.9 82q-15.6 31.3 7.8 58.6l80.1 78.2 -298.8 46.8Q87.9 377 44.9 427.7T0 550.8q2 82 52.7 132.8 52.8 48.8 121.1 52.7 70.3 2 128.9 -54.7L562.5 443.4 433.6 613.3q-11.7 11.7 -11.7 29.3V750l-82.1 95.7q-23.4 35.2 4 66.4 35.1 25.4 66.4 -3.9l93.7 -109.4q11.7 -13.6 11.7 -31.2V658.2l46.9 -60.5v123q0 25.4 17.6 43t44.9 19.5q27.3 -1.9 44.9 -19.5t17.6 -43v-123l46.9 60.5v109.4q0 17.6 11.7 31.2l93.7 109.4q31.3 29.3 66.5 3.9z"/></svg>