<svg height="1000" width="1250" xmlns="http://www.w3.org/2000/svg"><path d="M330.1 826.2q-25.4 -15.7 -13.7 -41L375 666v-85.9q0 -13.7 9.8 -21.5L500 441.4v-44.9L271.5 595.7q-52.7 48.8 -115.2 46.9T48.8 597.7Q2 554.7 0 482.4 2 421.9 39.1 377q39 -43 99.6 -52.8l312.5 -44.9 -95.7 -82q-15.7 -13.7 -9.8 -33.2L373 82 316.4 -31.3q-11.7 -27.3 13.7 -42.9 27.3 -9.8 41 15.6l62.5 125q5.9 11.7 1.9 23.4l-23.4 72.3 87.9 76.2v-44.9q3.9 -46.9 46.9 -60.6v-84q1.9 -15.6 15.6 -17.5 13.7 1.9 15.6 17.5v84q43 13.7 46.9 60.6v44.9l87.9 -74.2L689.5 89.8q-4 -11.7 1.9 -23.4l62.5 -125q15.6 -25.4 41 -13.7 25.4 13.7 13.7 41L752 82l27.3 82.1q5.9 19.5 -9.8 33.2l-95.7 82 312.5 46.9q66.4 9.7 105.5 60.5 -7.8 7.8 -13.7 17.6 -27.3 -41 -78.1 -43 -50.8 2 -78.1 43 -27.4 -41 -78.1 -43 -68.4 3.9 -89.9 66.4 -31.2 9.8 -50.8 37.1L625 396.5v46.9l62.5 62.5v11.7q2 50.8 43 78.1 -11.7 7.8 -21.5 19.5l-84 -83.9v97.6q0 25.4 -17.6 43t-44.9 19.5q-27.3 -1.9 -44.9 -19.5t-17.6 -43v-97.6l-62.5 62.5v80q0 7.8 -3.9 13.7l-62.5 125q-15.6 25.4 -41 13.7zM1000 423.8q29.3 2 31.3 31.3v31.2h93.7v-31.2q2 -29.3 31.3 -31.3 29.2 2 31.2 31.3v31.2h31.3q29.2 2 31.2 31.3 -2 29.3 -31.2 31.2h-31.3v93.8h31.3q29.2 1.9 31.2 31.2 -2 29.3 -31.2 31.3h-31.3v93.7h31.3q29.2 2 31.2 31.3 -2 29.3 -31.2 31.2h-31.3v31.3q-2 29.3 -31.2 31.2Q1127 921.9 1125 892.6v-31.3h-93.7v31.3q-2 29.3 -31.3 31.2 -29.3 -1.9 -31.2 -31.2v-31.3H875v31.3q-2 29.3 -31.2 31.2 -29.3 -1.9 -31.3 -31.2v-31.3h-31.2Q752 859.4 750 830.1q2 -29.3 31.3 -31.3h31.2v-93.7h-31.2Q752 703.1 750 673.8q2 -29.3 31.3 -31.2h31.2v-93.8h-31.2Q752 546.9 750 517.6q2 -29.3 31.3 -31.3h31.2v-31.2q2 -29.3 31.3 -31.3 29.2 2 31.2 31.3v31.2h93.8v-31.2q1.9 -29.3 31.2 -31.3zm31.3 218.8h93.7 -93.7 93.7v-93.8h-93.7v93.8zm0 156.2h93.7 -93.7 93.7v-93.7h-93.7v93.7zM875 548.8v93.8 -93.8 93.8h93.8v-93.8H875zm0 156.3v93.7 -93.7 93.7h93.8v-93.7H875z"/></svg>