<svg height="1000" width="1250" xmlns="http://www.w3.org/2000/svg"><path d="M546.9 -13.7q-43 3.9 -46.9 46.9 3.9 43 46.9 46.9h113.3l31.2 58.6L500 298.8l-87.9 -87.9Q375 173.8 322.3 173.8H125q-27.3 0 -44.9 17.6t-17.6 44.9v62.5H250q132.8 3.9 220.7 91.8t91.8 220.7q0 33.2 -5.9 62.5h136.8q-5.9 -29.3 -5.9 -62.5 0 -78.1 33.2 -142.5t91.8 -107.5l29.3 56.7Q753.9 490.2 750 611.3q2 105.5 72.3 177.8 72.2 70.3 177.7 72.2 105.5 -1.9 177.7 -72.2Q1248 716.8 1250 611.3q-2 -105.4 -72.3 -177.7Q1105.5 363.3 1000 361.3q-39.1 0 -76.2 11.7L816.4 173.8h121.1q27.3 0 44.9 -17.5t17.6 -45V48.8q0 -27.3 -17.6 -44.9t-44.9 -17.6h-39.1q-23.4 0 -41 13.7l-91.8 78.1L738.3 27.3q-23.5 -39 -68.4 -41h-123zm357.4 545L959 632.8 904.3 531.3 959 632.8q23.4 37.1 62.5 19.5 37.1 -23.4 19.5 -62.5L986.3 486.3h13.7q52.7 2 87.9 37.1t37.1 87.9q-2 52.8 -37.1 87.9t-87.9 37.1q-52.7 -1.9 -87.9 -37.1T875 611.3q0 -46.8 29.3 -80zM365.2 658.2q-13.6 35.2 -44.9 56.6 -31.2 21.5 -70.3 21.5 -52.7 -1.9 -87.9 -37.1T125 611.3q2 -52.7 37.1 -87.9T250 486.3q39.1 0 70.3 21.5t44.9 56.7h130.9Q476.6 476.6 410.2 419.9T250 361.3q-105.5 2 -177.7 72.3Q2 505.9 0 611.3q2 105.5 72.3 177.8 72.2 70.3 177.7 72.2 93.8 -1.9 160.2 -58.6t85.9 -144.5H365.2zM250 673.8q27.3 0 44.9 -17.5 17.6 -17.6 17.6 -45t-17.6 -44.9T250 548.8t-44.9 17.6 -17.6 44.9 17.6 45 44.9 17.5z"/></svg>