<svg height="1000" width="1250" xmlns="http://www.w3.org/2000/svg"><path d="M656.3 -76.2q-39.1 2 -66.5 27.4 -25.3 27.3 -27.3 66.4v179.7l138.7 232.4q7.8 -5.9 17.6 -5.9h62.5q29.2 2 31.2 31.3v62.5q-2 29.3 -31.2 31.2h-5.9L918 787.1q37.1 66.4 3.9 132.8l-3.9 3.9h238.3q39 -1.9 66.4 -27.3 25.3 -27.4 27.3 -66.4V392.6q-2 -39.1 -27.3 -66.4 -27.4 -25.4 -66.4 -27.4h-46.9V158.2q-3.9 -43 -46.9 -46.9 -43 3.9 -46.9 46.9v140.6h-78.1V17.6q-2 -39.1 -27.3 -66.4 -27.4 -25.4 -66.4 -27.4H656.3zm62.5 125h62.5 -62.5 62.5q29.2 2 31.2 31.3v62.5q-2 29.3 -31.2 31.2h-62.5q-29.3 -1.9 -31.3 -31.2V80.1q2 -29.3 31.3 -31.3zm-31.3 218.8q2 -29.3 31.3 -31.3h62.5q29.2 2 31.2 31.3v62.5q-2 29.3 -31.2 31.2h-62.5q-29.3 -1.9 -31.3 -31.2v-62.5zM1000 455.1q2 -29.3 31.3 -31.3h62.5q29.2 2 31.2 31.3v62.5q-2 29.3 -31.2 31.2h-62.5Q1002 546.9 1000 517.6v-62.5zm31.3 156.2h62.5 -62.5 62.5q29.2 2 31.2 31.3v62.5q-2 29.3 -31.2 31.2h-62.5Q1002 734.4 1000 705.1v-62.5q2 -29.3 31.3 -31.3zM437.5 293l117.2 193.3L437.5 293l117.2 193.3H435.5l-93.7 125 -48.8 -80L437.5 293zm56.6 -86q-19.5 -31.2 -56.6 -33.2 -37.1 2 -56.6 33.2L9.8 820.3q-19.6 33.2 -2 68.4 21.5 33.2 60.6 35.1h740.2q37.1 -1.9 58.6 -35.1 17.6 -35.2 -2 -68.4L494.1 207z"/></svg>