<svg height="1000" width="1250" xmlns="http://www.w3.org/2000/svg"><path d="M187.5 48.8q0 -27.3 17.6 -44.9 17.6 -17.6 44.9 -17.6h750q105.5 2 177.7 72.3 70.3 72.3 72.3 177.7 -2 105.5 -72.3 177.8 -72.2 70.3 -177.7 72.2h-62.5q-2 80.1 -54.7 132.8T750 673.8H375q-80.1 -1.9 -132.8 -54.7T187.5 486.3V48.8zm750 312.5h62.5 -62.5 62.5q52.7 -1.9 87.9 -37.1t37.1 -87.9q-2 -52.7 -37.1 -87.9T1000 111.3h-62.5v250zm-875 375h1000H62.5h1000q27.3 0 44.9 17.6t17.6 44.9 -17.6 45 -44.9 17.5H62.5q-27.3 0 -44.9 -17.5T0 798.8t17.6 -44.9 44.9 -17.6z"/></svg>