<svg height="1000" width="1000" xmlns="http://www.w3.org/2000/svg"><path d="M171.9 -76.2q-43 3.9 -46.9 46.9 2 56.6 27.3 89.8 23.5 33.3 48.9 52.8l1.9 1.9q23.5 19.6 35.2 35.2t11.7 39.1q3.9 42.9 46.9 46.8 42.9 -3.9 46.9 -46.8 -2 -56.7 -27.4 -89.9Q293 66.4 267.6 46.9l-2 -2Q242.2 25.4 230.5 9.8t-11.7 -39.1q-4 -43 -46.9 -46.9zm-109.4 375q-27.3 0 -44.9 17.6Q0 334 0 361.3v375q2 80.1 54.7 132.8t132.8 54.7h375q80.1 -1.9 132.8 -54.7T750 736.3h31.3q93.7 -1.9 154.2 -64.4Q998 611.3 1000 517.6q-2 -93.8 -64.5 -154.3Q875 300.8 781.3 298.8H62.5zm687.5 125h31.3H750h31.3q39 2 66.4 27.4 25.3 27.3 27.3 66.4 -2 39 -27.3 66.4 -27.4 25.4 -66.4 27.3H750V423.8zM437.5 -29.3q-3.9 -43 -46.9 -46.9 -42.9 3.9 -46.8 46.9 1.9 56.6 27.3 89.8 23.4 33.3 48.8 52.8l2 1.9q23.4 19.6 35.1 35.2t11.8 39.1q3.9 42.9 46.8 46.8 43 -3.9 46.9 -46.8 -2 -56.7 -27.3 -89.9Q511.7 66.4 486.3 46.9l-1.9 -2Q460.9 25.4 449.2 9.8t-11.7 -39.1z"/></svg>