<svg height="1000" width="875" xmlns="http://www.w3.org/2000/svg"><path d="M240.2 13.7q-27.3 -35.2 -70.3 -25.4Q127 3.9 125 48.8v375H62.5q-27.3 0 -44.9 17.6T0 486.3t17.6 45 44.9 17.5H125v250q0 27.4 17.6 45t44.9 17.5 44.9 -17.5 17.6 -45v-250h195.3L634.8 834q27.3 35.1 70.3 25.4Q748 843.8 750 798.8v-250h62.5q27.3 0 44.9 -17.5t17.6 -45 -17.6 -44.9 -44.9 -17.6H750v-375Q750 21.5 732.4 3.9t-44.9 -17.6T642.6 3.9 625 48.8v375H513.7L240.2 13.7zm355.5 535.1H625h-29.3H625v43l-29.3 -43zm-232.4 -125H250h113.3H250V255.9l113.3 167.9z"/></svg>