<svg height="1000" width="1250" xmlns="http://www.w3.org/2000/svg"><path d="M500 48.8h250H500h250v125H500v-125zm-31.2 -125q-39.1 2 -66.5 27.4Q377 -21.5 375 17.6v187.5q2 39 27.3 66.4 27.4 25.4 66.5 27.3h93.7v62.5h-500q-27.3 0 -44.9 17.6T0 423.8t17.6 45 44.9 17.5H250v62.5h-93.7q-39.1 2 -66.5 27.4 -25.3 27.3 -27.3 66.4v187.5q2 39 27.3 66.4 27.4 25.4 66.5 27.3h312.5q39 -1.9 66.4 -27.3 25.3 -27.4 27.3 -66.4V642.6q-2 -39.1 -27.3 -66.4 -27.4 -25.4 -66.4 -27.4H375v-62.5h500v62.5h-93.7q-39.1 2 -66.5 27.4 -25.3 27.3 -27.3 66.4v187.5q2 39 27.3 66.4 27.4 25.4 66.5 27.3h312.5q39 -1.9 66.4 -27.3 25.3 -27.4 27.3 -66.4V642.6q-2 -39.1 -27.3 -66.4 -27.4 -25.4 -66.4 -27.4H1000v-62.5h187.5q27.3 0 44.9 -17.5t17.6 -45 -17.6 -44.9 -44.9 -17.6h-500v-62.5h93.8q39 -1.9 66.4 -27.3Q873 244.1 875 205.1V17.6q-2 -39.1 -27.3 -66.4 -27.4 -25.4 -66.4 -27.4H468.8zm-281.3 875v-125 125 -125h250v125h-250zm625 -125h250 -250 250v125h-250v-125z"/></svg>