<svg height="1000" width="875" xmlns="http://www.w3.org/2000/svg"><path d="M722.7 -3.9q21.4 15.6 25.3 41 5.9 23.4 -7.8 46.9l-82 121.1h123.1q27.3 0 44.9 17.6t17.6 44.9 -17.6 44.9 -44.9 17.6H576.2l-125 187.5h330.1q27.3 0 44.9 17.6t17.6 44.9T826.2 625t-44.9 17.6H367.2L240.2 834q-15.6 21.5 -41 25.4 -23.4 5.8 -46.9 -7.8Q130.9 835.9 127 810.5q-5.9 -23.4 7.8 -46.8l82 -121.1h-123q-27.4 0 -45 -17.6T31.3 580.1t17.5 -44.9 45 -17.6h207l125 -187.5h-332q-27.4 0 -45 -17.6T31.3 267.6t17.5 -44.9 45 -17.6h414l127 -191.4q15.6 -21.5 41 -25.4 23.4 -5.9 46.9 7.8z"/></svg>