<svg height="1000" width="1000" xmlns="http://www.w3.org/2000/svg"><path d="M187.5 611.3v-500 500 -500q2 -52.7 37.1 -87.9t87.9 -37.1h500q52.7 2 87.9 37.1t37.1 87.9V498q0 50.8 -37.1 87.9L787.1 699.2q-37.1 37.1 -87.9 37.1H312.5q-52.7 -1.9 -87.9 -37.1t-37.1 -87.9zM531.3 173.8q-29.3 2 -31.3 31.3v93.7h-93.7q-29.3 2 -31.3 31.3v62.5q2 29.3 31.3 31.2H500v93.8q2 29.3 31.3 31.2h62.5Q623 546.9 625 517.6v-93.8h93.8Q748 421.9 750 392.6v-62.5q-2 -29.3 -31.2 -31.3H625v-93.7q-2 -29.3 -31.2 -31.3h-62.5zm46.8 656.3q43 3.9 46.9 46.9 -3.9 42.9 -46.9 46.8H265.6Q152.3 921.9 78.1 845.7 2 771.5 0 658.2V220.7q3.9 -43 46.9 -46.9 42.9 3.9 46.9 46.9v437.5q1.9 72.3 50.7 121.1t121.1 50.8h312.5z"/></svg>