<svg height="1000" width="1250" xmlns="http://www.w3.org/2000/svg"><path d="M62.5 156.3Q3.9 121.1 0 48.8 2 -3.9 37.1 -39.1T125 -76.2q72.3 3.9 107.4 62.5h410.2Q677.7 -72.3 750 -76.2q52.7 2 87.9 37.1T875 48.8q-3.9 72.3 -62.5 107.5v222.6q58.6 35.2 62.5 107.4 -2 52.8 -37.1 87.9T750 611.3q-72.3 -3.9 -107.4 -62.5H234.4Q197.3 607.4 125 611.3 72.3 609.4 37.1 574.2T0 486.3Q3.9 414.1 62.5 378.9V156.3zm169.9 -45q-15.6 29.3 -44.9 45v222.6q29.3 15.6 44.9 44.9h410.2q15.6 -29.3 44.9 -44.9V156.3q-29.3 -15.7 -44.9 -45H232.4zm375 750Q572.3 919.9 500 923.8q-52.7 -1.9 -87.9 -37.1T375 798.8q3.9 -72.2 62.5 -107.4v-80.1h125v80.1q29.3 15.6 44.9 44.9h410.2q15.6 -29.3 44.9 -44.9V470.7q-29.3 -17.6 -44.9 -46.9h-89.9Q910.2 378.9 875 347.7v-48.9h142.6q35.1 -58.6 107.4 -62.5 52.7 2 87.9 37.1t37.1 87.9q-3.9 72.3 -62.5 109.4v220.7q58.6 35.2 62.5 107.4 -2 52.8 -37.1 87.9t-87.9 37.1q-72.3 -3.9 -107.4 -62.5H607.4z"/></svg>