<svg height="1000" width="1250" xmlns="http://www.w3.org/2000/svg"><path d="M625 173.8q27.3 0 44.9 -17.5 17.6 -17.6 17.6 -45T669.9 66.4 625 48.8H375q-27.3 0 -44.9 17.6t-17.6 44.9 17.6 45 44.9 17.5h62.5v62.5H93.8q-39.1 2 -66.5 27.4Q2 291 0 330.1V457q2 58.6 56.6 86l130.9 58.6v41q2 39 27.3 66.4 27.4 25.4 66.5 27.3h505.8q56.7 0 93.8 -42.9L1238.3 291q15.6 -23.4 3.9 -44.9 -13.7 -21.5 -41 -17.6L875 298.8 777.3 250Q750 236.3 720.7 236.3H562.5v-62.5H625zM187.5 330.1V498 330.1 498L93.8 457V330.1h93.7z"/></svg>