<svg height="1000" width="1125" xmlns="http://www.w3.org/2000/svg"><path d="M1031.3 43Q1013.7 -19.5 959 -50.8 904.3 -82 839.8 -66.4l-29.3 7.8q-25.3 7.8 -39 29.3 -11.7 21.5 -5.9 46.9l48.9 177.7 -211 56.7 -13.7 -37.2q-15.6 -39 -58.5 -41 -43 2 -58.6 41L445.3 291l-257.8 68.4v-76.2q-3.9 -43 -46.9 -46.9 -42.9 3.9 -46.8 46.9v515.6H62.5q-27.3 0 -44.9 17.6T0 861.3t17.6 45 44.9 17.5h1000q27.3 0 44.9 -17.5t17.6 -45 -17.6 -44.9 -44.9 -17.6H794.9L664.1 427.7 543 459l52.7 152.3H466.8l50.8 -146.5L371.1 502 267.6 798.8h-80.1V488.3L845.7 316.4 896.5 500q5.8 25.4 29.3 39.1 21.5 11.7 46.9 5.8l29.3 -7.8q64.4 -19.5 95.7 -72.3 31.2 -54.6 15.6 -119.1L1031.3 43zM400.4 798.8l21.5 -62.5 -21.5 62.5 21.5 -62.5h218.7l21.5 62.5H400.4z"/></svg>