<svg height="1000" width="1250" xmlns="http://www.w3.org/2000/svg"><path d="M355.5 308.6l23.4 13.7 -23.4 -13.7 23.4 13.7q17.6 7.8 39.1 7.8 35.1 0 58.6 -23.5Q500 281.3 500 246.1v-41q-2 -52.8 -37.1 -87.9T375 80.1H250q-52.7 1.9 -87.9 37.1T125 205.1v41q2 35.2 25.4 60.5 23.4 23.5 58.6 23.5 19.5 0 37.1 -7.8l25.4 -13.7 15.6 -7.8 -23.4 -15.6Q250 275.4 250 259.8V252q3.9 -43 46.9 -46.9h31.2q43 3.9 46.9 46.9v7.8q0 15.6 -13.7 25.4l-23.4 15.6 15.6 7.8h2zm-17.6 97.7l-25.4 -13.7 25.4 13.7 -25.4 -13.7 -25.4 11.7Q250 423.8 209 423.8q-11.7 0 -21.5 -1.9v1.9q2 52.8 37.1 87.9t87.9 37.1h125q27.3 0 44.9 17.6t17.6 44.9 -17.6 45 -44.9 17.5H750v-125q3.9 -72.2 62.5 -107.4 27.3 -17.6 62.5 -17.6v-31.2q2 -39.1 27.3 -66.4 27.4 -25.4 66.5 -27.4 29.2 2 31.2 31.3v187.5q2 29.3 31.3 31.2 29.2 -1.9 31.2 -31.2V322.3q0 -72.3 -41 -127 -41 -56.6 -109.4 -80.1l-15.6 -5.8Q871.1 99.6 877 72.3q7.8 -25.4 35.1 -23.5l39.1 7.8Q1084 85.9 1166 185.5t84 236.4v1.9q-2 123.1 -60.5 220.7 -56.7 99.6 -156.3 156.3 -97.7 58.6 -220.7 60.5H498Q377 859.4 279.3 802.7 179.7 744.1 121.1 644.5 64.5 546.9 62.5 425.8v-78.1Q31.3 302.7 31.3 246.1v-43Q2 191.4 0 158.2q3.9 -43 46.9 -46.9h5.8Q80.1 54.7 130.9 21.5 183.6 -13.7 250 -13.7h125q66.4 0 119.1 35.2 50.8 33.2 78.2 89.8h5.8q43 3.9 46.9 46.9 -2 33.2 -31.2 44.9v52.8q35.1 -19.6 78.1 -19.6h15.6q27.3 0 44.9 17.6t17.6 44.9 -17.6 45 -44.9 17.5h-15.6q-43 3.9 -46.9 46.9v15.6h109.4q-44.9 50.8 -46.9 125H625q-62.5 0 -111.3 -35.1 -46.9 -35.2 -66.4 -91.8 -15.7 1.9 -31.3 1.9 -41 0 -78.1 -19.5v2zM187.5 173.8q29.3 2 31.3 31.3 -2 29.3 -31.3 31.2 -29.3 -1.9 -31.2 -31.2 1.9 -29.3 31.2 -31.3zm218.8 31.3q1.9 -29.3 31.2 -31.3 29.3 2 31.3 31.3 -2 29.3 -31.3 31.2 -29.3 -1.9 -31.2 -31.2z"/></svg>