<svg height="1000" width="875" xmlns="http://www.w3.org/2000/svg"><path d="M0 48.8Q0 21.5 17.6 3.9q17.6 -17.6 44.9 -17.6h750q27.3 0 44.9 17.6T875 48.8t-17.6 45 -44.9 17.5h-750q-27.3 0 -44.9 -17.5T0 48.8zm375 250q0 -27.3 17.6 -44.9 17.6 -17.6 44.9 -17.6h375q27.3 0 44.9 17.6t17.6 44.9 -17.6 45 -44.9 17.5h-375q-27.3 0 -44.9 -17.5t-17.6 -45zm62.5 187.5h375 -375 375q27.3 0 44.9 17.6t17.6 44.9 -17.6 45 -44.9 17.5h-375q-27.3 0 -44.9 -17.5t-17.6 -45 17.6 -44.9 44.9 -17.6zM0 798.8q0 -27.3 17.6 -44.9 17.6 -17.6 44.9 -17.6h750q27.3 0 44.9 17.6t17.6 44.9 -17.6 45 -44.9 17.5h-750q-27.3 0 -44.9 -17.5T0 798.8zM0 449.2q-23.4 -25.4 0 -50.8L199.2 244.1q17.6 -11.7 33.2 -3.9t17.6 29.3v308.6q-2 19.6 -17.6 29.3 -15.6 7.8 -33.2 -3.9L0 449.2z"/></svg>