<svg height="1000" width="1000" xmlns="http://www.w3.org/2000/svg"><path d="M0 173.8Q2 121.1 37.1 85.9 72.3 50.8 125 48.8h750q52.7 2 87.9 37.1t37.1 87.9v500q-2 52.8 -37.1 87.9T875 798.8H125Q72.3 796.9 37.1 761.7T0 673.8v-500zm125 62.5v125 -125 125q0 27.4 17.6 45t44.9 17.5h625q27.3 0 44.9 -17.5t17.6 -45v-125q0 -27.3 -17.6 -44.9t-44.9 -17.6h-625q-27.3 0 -44.9 17.6T125 236.3zm31.3 312.5q-43 3.9 -46.9 46.9 3.9 43 46.9 46.9h109.3q43 -3.9 46.9 -46.9 -3.9 -43 -46.9 -46.9H156.3zm265.6 0q-43 3.9 -46.9 46.9 3.9 43 46.9 46.9h93.7q43 -3.9 46.9 -46.9 -3.9 -43 -46.9 -46.9h-93.7z"/></svg>