<svg height="1000" width="1125" xmlns="http://www.w3.org/2000/svg"><path d="M662.1 640.6q84 -13.6 132.8 -84L1109.4 68.4Q1128.9 39.1 1125 5.9q-5.9 -33.2 -29.3 -56.7 -27.3 -23.4 -60.5 -25.4 -31.3 -1.9 -60.6 19.6L511.7 289.1q-72.2 56.6 -74.2 148.4l224.6 203.1zM625 691.4L398.4 486.3 625 691.4 398.4 486.3q-89.8 5.9 -150.4 66.4 -58.5 62.5 -60.5 152.4 0 11.7 2 23.4 1.9 25.4 -13.7 46.9t-41 23.4H125q-27.3 0 -44.9 17.6t-17.6 44.9 17.6 45 44.9 17.5h281.3q93.7 -1.9 154.2 -64.4Q623 798.8 625 705.1v-13.7z"/></svg>