<svg height="1000" width="1000" xmlns="http://www.w3.org/2000/svg"><path d="M0 48.8Q2 -3.9 37.1 -39.1 72.3 -74.2 125 -76.2h562.5q52.7 2 87.9 37.1t37.1 87.9v125q-2 52.8 -37.1 87.9t-87.9 37.1H125Q72.3 296.9 37.1 261.7T0 173.8v-125zm312.5 562.5q0 -27.3 17.6 -44.9 17.6 -17.6 44.9 -17.6v-31.2q2 -66.4 44.9 -111.3 44.9 -43 111.4 -45h281.2q27.3 0 44.9 -17.5t17.6 -45V60.5q54.7 19.6 89.8 66.5 33.2 46.8 35.2 109.3v62.5q-2 80.1 -54.7 132.8t-132.8 54.7H531.3q-29.3 2 -31.3 31.3v31.2q27.3 0 44.9 17.6t17.6 44.9v250q0 27.4 -17.6 45T500 923.8H375q-27.3 0 -44.9 -17.5t-17.6 -45v-250z"/></svg>