<svg height="1000" width="1000" xmlns="http://www.w3.org/2000/svg"><path d="M1000 423.8v5.9q-2 52.7 -43 85.9 -39 33.2 -93.7 33.2H671.9q-39.1 2 -66.4 27.4 -25.4 27.3 -27.4 66.4 0 9.7 2 19.5 5.8 27.4 19.5 54.7 0 2 2 3.9 19.5 39.1 23.4 82 0 46.9 -29.3 82.1 -27.3 35.1 -74.2 39H500Q359.4 921.9 248 855.5 134.8 789.1 68.4 675.8 2 564.5 0 423.8 2 283.2 68.4 171.9 134.8 58.6 248 -7.8q111.4 -66.4 252 -68.4 140.6 2 252 68.4 113.2 66.4 179.6 179.7Q998 283.2 1000 423.8zm-750 62.5q0 -27.3 -17.6 -44.9 -17.6 -17.6 -44.9 -17.6t-44.9 17.6T125 486.3t17.6 45 44.9 17.5 44.9 -17.5 17.6 -45zm0 -187.5q27.3 0 44.9 -17.5 17.6 -17.6 17.6 -45t-17.6 -44.9T250 173.8t-44.9 17.6 -17.6 44.9 17.6 45 44.9 17.5zM562.5 111.3q0 -27.3 -17.6 -44.9Q527.3 48.8 500 48.8t-44.9 17.6 -17.6 44.9 17.6 45 44.9 17.5 44.9 -17.5 17.6 -45zM750 298.8q27.3 0 44.9 -17.5 17.6 -17.6 17.6 -45t-17.6 -44.9T750 173.8t-44.9 17.6 -17.6 44.9 17.6 45 44.9 17.5z"/></svg>