<svg height="1000" width="1250" xmlns="http://www.w3.org/2000/svg"><path d="M89.8 -13.7q-39 0 -64.4 25.4Q0 37.1 0 76.2v695.3q0 39 25.4 64.4t64.4 25.4q13.7 0 27.4 -3.9 25.4 -11.7 160.1 -41Q414.1 787.1 625 783.2q210.9 3.9 347.7 33.2 134.7 29.3 160.1 41 13.7 3.9 27.4 3.9 39 0 64.4 -25.4 23.4 -25.4 25.4 -64.4V76.2q-2 -39.1 -25.4 -64.5 -25.4 -25.4 -64.4 -25.4 -13.7 0 -27.4 3.9Q1107.4 2 972.7 31.3 835.9 60.5 625 64.5 414.1 60.5 277.3 31.3 142.6 2 117.2 -9.8q-13.7 -3.9 -27.4 -3.9zm97.7 250q0 -27.3 17.6 -44.9 17.6 -17.6 44.9 -17.6t44.9 17.6 17.6 44.9 -17.6 45T250 298.8t-44.9 -17.5 -17.6 -45zm531.3 0q25.3 0 39 21.5L1000 613.3q15.6 25.4 2 52.7 -17.6 23.5 -46.9 19.5Q818.4 660.2 625 658.2q-193.4 2 -330.1 27.3 -31.2 4 -48.8 -21.4 -13.7 -27.4 3.9 -52.8L384.8 441.4q15.6 -17.6 37.1 -17.6t37.1 17.6l50.8 64.5L679.7 257.8q13.7 -21.5 39.1 -21.5z"/></svg>