<svg height="1000" width="875" xmlns="http://www.w3.org/2000/svg"><path d="M710.9 87.9Q673.8 50.8 625 52.7q-48.8 0 -85.9 35.2L179.7 447.3q-62.5 64.4 -62.5 148.4t62.5 148.4q64.4 62.5 148.4 62.5t148.5 -62.5L773.4 447.3q17.6 -15.7 39.1 -15.7t39.1 15.7q15.6 17.5 15.6 39t-15.6 39.1L554.7 822.3Q455.1 916 328.1 916T101.6 822.3Q7.8 722.7 7.8 595.7t93.8 -226.6L460.9 9.8Q533.2 -58.6 625 -58.6T789.1 9.8q68.3 72.2 68.3 164t-68.3 164.1L445.3 681.6q-44.9 41.1 -101.5 41.1T242.2 681.6q-41 -44.9 -41 -101.5t41 -101.6L523.4 197.3q17.6 -15.7 39.1 -15.7t39.1 15.7q15.6 17.5 15.6 39t-15.6 39.1L320.3 556.6q-19.5 23.5 0 46.9 23.5 19.5 46.9 0L710.9 259.8q37.1 -37.1 37.1 -86T710.9 87.9z"/></svg>