<svg height="1000" width="1000" xmlns="http://www.w3.org/2000/svg"><path d="M750 298.8v-31.2q-3.9 -152.4 -78.1 -250Q597.7 -74.2 500 -76.2q-97.7 2 -171.9 93.8 -74.2 97.6 -78.1 250 0 15.6 2 31.2h216.8v250h-62.5q-21.5 0 -39.1 7.8L132.8 298.8h56.7q-2 -15.6 -2 -31.2 0 -93.8 29.3 -173.8Q248 13.7 298.8 -43 166 7.8 97.7 95.7q-70.4 87.9 -89.9 168 -3.9 31.2 29.3 35.1h11.7l273.5 300.8q-9.8 19.5 -9.8 43v187.5q2 39 27.3 66.4 27.4 25.4 66.5 27.3h187.5q39 -1.9 66.4 -27.3 25.3 -27.4 27.3 -66.4V642.6q0 -23.5 -9.8 -43L951.2 298.8h11.7q33.2 -3.9 29.3 -35.1 -19.5 -80.1 -89.9 -168Q834 7.8 701.2 -43q50.8 56.7 82 136.8 29.3 80 29.3 173.8v31.2h54.7L632.8 556.6q-17.6 -7.8 -39 -7.8h-62.5v-250H750z"/></svg>