<svg height="1000" width="875" xmlns="http://www.w3.org/2000/svg"><path d="M0 48.8Q2 -3.9 37.1 -39.1 72.3 -74.2 125 -76.2h625q52.7 2 87.9 37.1T875 48.8v750q-2 52.8 -37.1 87.9T750 923.8H125Q72.3 921.9 37.1 886.7T0 798.8v-750zm357.4 420Q271.5 425.8 252 330.1h76.1q7.8 87.9 29.3 138.7zm80.1 17.5q-7.8 -9.7 -17.6 -31.2 -21.5 -41 -29.3 -125h93.8q-7.8 84 -29.3 125 -9.8 21.5 -17.6 31.2zm80.1 -17.5Q539.1 418 546.9 330.1H623q-19.5 95.7 -105.4 138.7zm29.3 -201.2q-7.8 -87.9 -29.3 -138.7 85.9 43 105.4 138.7h-76.1zM437.5 111.3q7.8 9.8 17.6 33.2 21.5 39.1 29.3 123.1h-91.8q5.8 -84 27.3 -123.1 9.8 -23.4 17.6 -33.2zm-80.1 17.6q-21.5 50.8 -29.3 138.7H252q19.5 -95.7 105.4 -138.7zm330.1 169.9q0 -68.3 -33.2 -125Q621.1 117.2 562.5 82 503.9 48.8 437.5 48.8T312.5 82q-58.6 35.2 -91.8 91.8t-33.2 125 33.2 125 91.8 91.8q58.6 33.2 125 33.2t125 -33.2q58.6 -35.1 91.8 -91.8t33.2 -125zm-468.7 375q-29.3 2 -31.3 31.3 2 29.3 31.3 31.2h437.5q29.2 -1.9 31.2 -31.2 -2 -29.3 -31.2 -31.3H218.8z"/></svg>