<svg height="1000" width="1000" xmlns="http://www.w3.org/2000/svg"><path d="M312.5 -76.2q-72.3 3.9 -107.4 62.5H93.8q-39.1 2 -66.5 27.4Q2 41 0 80.1v625q2 39 27.3 66.4 27.4 25.4 66.5 27.3H375V267.6q2 -66.4 44.9 -111.3 44.9 -43 111.4 -45H625V80.1Q623 41 597.7 13.7q-27.4 -25.4 -66.4 -27.4H419.9Q384.8 -72.3 312.5 -76.2zm218.8 250q-39.1 2 -66.5 27.4 -25.3 27.3 -27.3 66.4v562.5q2 39 27.3 66.4 27.4 25.4 66.5 27.3h375q39 -1.9 66.4 -27.3Q998 869.1 1000 830.1V400.4q0 -39.1 -27.3 -66.4L839.8 201.2q-27.3 -27.4 -66.4 -27.4H531.3zM312.5 2q43 3.9 46.9 46.8 -3.9 43 -46.9 46.9 -43 -3.9 -46.9 -46.9Q269.5 5.9 312.5 2z"/></svg>