<svg height="1000" width="1000" xmlns="http://www.w3.org/2000/svg"><path d="M443.4 105.5q19.5 64.4 1.9 117.2 -19.5 54.6 -66.4 72.2 -48.8 13.7 -95.7 -17.6 -46.9 -33.2 -70.3 -97.6 -19.5 -64.5 -2 -117.2Q230.5 7.8 277.3 -9.8 326.2 -23.4 373 9.8q46.9 31.2 70.4 95.7zm-248.1 207q27.4 48.8 23.5 95.7 -5.9 44.9 -43 68.4 -37.1 19.5 -80.1 0Q52.7 459 23.4 410.2 -3.9 361.3 2 314.5q3.9 -45 41 -68.4 37.1 -19.5 80 0 43 17.6 72.3 66.4zM134.8 707q52.7 -136.7 123 -212.9 68.4 -74.2 134.8 -103.5Q457 359.4 500 361.3q43 -1.9 107.4 29.3 66.4 29.3 134.8 103.5 70.3 76.2 123 212.9 9.8 29.3 9.8 60.6v1.9q0 39.1 -27.3 64.5 -25.4 27.3 -64.5 27.3 -33.2 0 -66.4 -7.8l-171.9 -43q-44.9 -11.7 -89.8 0l-171.9 43q-33.2 7.8 -66.4 7.8 -39.1 0 -64.5 -27.3Q125 808.6 125 769.5v-1.9q0 -31.3 9.8 -60.6zM824.2 476.6q-37.1 -23.5 -42.9 -68.4 -4 -46.9 23.4 -95.7Q834 263.7 877 246.1q42.9 -19.5 80 0 37.1 23.4 41 68.4 5.9 46.8 -21.4 95.7 -29.3 48.8 -72.3 66.4 -43 19.5 -80.1 0zM605.5 294.9q-46.9 -17.6 -66.4 -72.2Q521.5 169.9 543 105.5T611.3 9.8Q658.2 -23.4 707 -9.8q46.9 17.6 66.4 72.3 17.6 52.7 -1.9 117.2 -23.5 64.4 -70.3 97.6 -46.9 31.3 -95.7 17.6z"/></svg>