<svg height="1000" width="1000" xmlns="http://www.w3.org/2000/svg"><path d="M437.5 793V556.6 793 556.6L253.9 707q78.1 68.4 183.6 86zM173.8 609.4L437.5 394.5 173.8 609.4 437.5 394.5V54.7q-136.7 25.4 -222.7 125Q127 281.3 125 423.8q2 103.5 48.8 185.6zM746.1 707L562.5 556.6 746.1 707 562.5 556.6V793Q668 775.4 746.1 707zm80.1 -97.6Q875 527.3 875 423.8 873 281.3 785.2 179.7q-86 -99.6 -222.7 -125v339.8l263.7 214.9zM0 423.8q2 -136.7 66.4 -250Q132.8 60.5 250 -9.8q119.1 -66.4 250 -66.4t250 66.4q117.2 70.3 183.6 183.6 64.4 113.3 66.4 250 -2 136.7 -66.4 250Q867.2 787.1 750 857.4q-119.1 66.4 -250 66.4T250 857.4Q132.8 787.1 66.4 673.8 2 560.5 0 423.8z"/></svg>