<svg height="1000" width="1000" xmlns="http://www.w3.org/2000/svg"><path d="M916 -39.1l46.9 46.9L916 -39.1l46.9 46.9Q998 44.9 998 95.7q0 48.8 -35.1 87.9L851.6 294.9 628.9 72.3 740.2 -39.1q37.1 -35.1 87.9 -35.1 48.9 0 87.9 35.1zM87.9 613.3l498 -498.1 -498 498.1 498 -498.1 222.7 222.7 -498.1 498q-21.4 19.6 -46.8 27.4L60.5 921.9q-27.3 5.8 -46.8 -11.7Q-3.9 890.6 2 863.3L60.5 660.2q7.9 -27.4 27.4 -46.9zM486.3 125L201.2 410.2 486.3 125 201.2 410.2 31.3 240.2Q3.9 210.9 3.9 173.8t27.4 -66.4L183.6 -44.9q29.3 -27.4 66.4 -27.4t66.4 27.4l39.1 39h-2v2l-125 125q-19.5 21.5 0 43 21.5 19.5 43 0l125 -125h1.9v-2l87.9 87.9zm312.5 312.5l87.9 87.9 -87.9 -87.9 87.9 87.9h-1.9v1.9l-125 125q-19.6 21.5 0 43 21.5 17.6 42.9 0l125 -125h2v-1.9l39.1 39q27.3 29.3 27.3 66.4t-27.3 66.4L816.4 892.6q-29.3 27.3 -66.4 27.3t-66.4 -27.3L513.7 722.7 798.8 437.5z"/></svg>