<svg height="1000" width="1000" xmlns="http://www.w3.org/2000/svg"><path d="M718.8 -41L611.3 68.4 718.8 -41 611.3 68.4l244.2 244.1L964.8 205.1q31.3 -35.2 31.3 -78.1T964.8 48.8L875 -41q-35.2 -31.3 -78.1 -31.3T718.8 -41zM562.5 109.4l-17.6 3.9 17.6 -3.9 -17.6 3.9 -281.2 85.9q-60.6 19.6 -84 80.1L7.8 794.9q-11.7 35.2 13.7 62.5L322.3 558.6q-9.8 -19.5 -9.8 -41 2 -39.1 27.3 -66.4 27.4 -25.4 66.5 -27.4 39 2 66.4 27.4 25.3 27.3 27.3 66.4 -2 39 -27.3 66.4 -27.4 25.4 -66.4 27.3 -21.5 0 -41.1 -9.7L66.4 902.3q27.4 25.4 62.5 13.7L644.5 744.1q60.6 -23.4 80.1 -83.9l85.9 -281.3 4 -17.6 -252 -251.9z"/></svg>