<svg height="1000" width="1000" xmlns="http://www.w3.org/2000/svg"><path d="M884.8 -39.1l78.1 78.2 -78.1 -78.2 78.1 78.2Q998 76.2 998 127q0 48.8 -35.1 87.8L861.3 316.4l-1.9 -1.9 -31.3 -31.3L640.6 95.7 607.4 62.5 709 -39.1q37.1 -37.1 87.9 -37.1 48.8 0 87.9 37.1zM470.7 148.4q-33.2 -27.3 -66.4 0L205.1 347.7q-33.2 27.3 -66.4 0 -27.4 -33.2 0 -66.4L337.9 82q43 -41 99.6 -41t99.6 41l25.4 25.4 33.2 33.2 187.5 187.5 31.3 31.3 1.9 1.9 -33.2 33.2 -334 336Q304.7 873 105.5 914.1l-48.9 9.7q-25.3 3.9 -42.9 -13.6T0 867.2l9.8 -48.8q41 -199.3 183.6 -341.8L496.1 173.8l-25.4 -25.4z"/></svg>