<svg height="1000" width="1000" xmlns="http://www.w3.org/2000/svg"><path d="M800.8 375l23.4 -21.5L800.8 375l23.4 -21.5 -66.4 -66.4L636.7 166 570.3 99.6l-23.4 21.5 -43 44.9L115.2 554.7Q84 585.9 70.3 627L2 863.3q-7.9 25.4 11.7 44.9t46.8 13.7l234.4 -70.3q43 -11.8 74.2 -43L757.8 419.9l43 -44.9zM312.5 703.1L294.9 748l17.6 -44.9L294.9 748q-11.7 9.8 -25.4 13.7l-154.3 44.9 45 -152.3q5.8 -13.7 13.6 -25.4l45 -17.6v62.5q1.9 27.4 31.2 31.3h62.5v-2zM709 -39.1l-29.3 27.4L709 -39.1l-29.3 27.4 -43 44.9 -23.4 21.5 66.4 66.4 121.1 121.1 66.4 66.4 21.5 -21.5 44.9 -44.9 29.3 -27.4Q998 175.8 998 125q0 -48.8 -35.1 -87.9l-78.1 -76.2q-37.1 -37.1 -87.9 -37.1 -48.9 0 -87.9 37.1zm-93.8 328.2L334 570.3 615.2 289.1 334 570.3q-21.5 17.6 -43 0 -19.5 -23.4 0 -44.9L572.3 244.1q21.5 -17.5 42.9 0 19.6 21.5 0 45z"/></svg>