<svg height="1000" width="1250" xmlns="http://www.w3.org/2000/svg"><path d="M656.3 -68.4l562.5 312.5L656.3 -68.4l562.5 312.5q21.4 13.7 29.2 37.2 5.9 23.4 -5.8 48.8 -13.7 21.5 -37.1 29.3 -25.4 5.8 -48.8 -5.9L625 58.6 93.8 353.5q-25.4 11.7 -48.9 5.9Q21.5 351.6 7.8 330.1 -3.9 306.6 2 281.3q7.8 -23.5 29.3 -37.2L595.7 -68.4q29.3 -15.6 60.6 0zM625 236.3q44.9 2 68.4 39.1 19.5 39.1 0 78.1 -23.5 37.1 -68.4 39.1 -44.9 -2 -68.4 -39.1 -19.5 -39 0 -78.1 23.5 -37.1 68.4 -39.1zM281.3 423.8q44.9 2 68.3 39.1 19.5 39.1 0 78.1 -23.4 37.1 -68.3 39.1 -45 -2 -68.4 -39.1 -19.5 -39 0 -78.1 23.4 -37.1 68.4 -39.1zM890.6 502q2 -45 39.1 -68.4 39.1 -19.5 78.1 0 37.1 23.4 39.1 68.4 -2 44.9 -39.1 68.3 -39 19.5 -78.1 0Q892.6 546.9 890.6 502zM443.4 882.8l-52.8 -95.7 52.8 95.7 -52.8 -95.7v74.2q0 27.4 -17.6 45t-44.9 17.5h-93.7q-27.4 0 -44.9 -17.5t-17.6 -45v-74.2l-52.8 95.7q-23.4 37.1 -62.5 19.5Q19.5 878.9 37.1 839.8l74.2 -138.6q23.5 -41 62.5 -64.5 41 -25.4 87.9 -25.4h39.1q48.8 0 87.9 25.4l66.4 -123q23.4 -41 62.5 -64.5 41 -25.4 87.9 -25.4h39q46.9 0 87.9 25.4 39.1 23.5 62.5 64.5l66.4 123q39.1 -25.4 87.9 -25.4h39.1q46.9 0 87.9 25.4 39 23.5 62.5 64.5l74.2 138.6q17.6 39.1 -19.5 62.5 -39.1 17.6 -62.5 -19.5l-52.8 -95.7v74.2q0 27.4 -17.6 45t-44.9 17.5h-93.7q-27.4 0 -44.9 -17.5t-17.6 -45v-74.2l-52.8 95.7q-23.4 37.1 -62.5 19.5Q707 878.9 724.6 839.8L794.9 707q-3.9 -3.9 -7.8 -11.7l-52.7 -95.7v105.5q0 27.3 -17.6 44.9t-44.9 17.6h-93.8q-27.3 0 -44.9 -17.6t-17.6 -44.9V599.6l-52.7 95.7q-3.9 7.8 -7.8 11.7l70.3 132.8q17.6 39.1 -19.5 62.5 -39.1 17.6 -62.5 -19.5z"/></svg>