<svg height="1000" width="1250" xmlns="http://www.w3.org/2000/svg"><path d="M140.6 95.7q2 -62.5 54.7 -93.7Q250 -29.3 304.7 2q52.7 31.2 54.7 93.7 -2 62.5 -54.7 93.8 -54.7 31.2 -109.4 0Q142.6 158.2 140.6 95.7zM125 404.3q-29.3 33.2 -31.2 82 1.9 48.9 31.2 82.1V404.3zm281.3 -97.7q-89.9 82.1 -93.8 211 2 101.5 62.5 177.7v41q0 27.4 -17.6 45t-44.9 17.5h-125q-27.3 0 -44.9 -17.5t-17.6 -45v-52.7Q68.4 656.3 35.2 605.5 0 552.7 0 486.3 2 392.6 64.5 332 125 269.5 218.8 267.6h62.5q72.2 1.9 125 39zM875 736.3v-41 41 -41q60.5 -76.2 62.5 -177.7 -3.9 -128.9 -93.7 -211 52.7 -37.1 125 -39h62.5q93.7 1.9 154.2 64.4 62.5 60.6 64.5 154.3 0 66.4 -35.2 119.2 -33.2 50.8 -89.8 78.1v52.7q0 27.4 -17.6 45t-44.9 17.5h-125q-27.3 0 -44.9 -17.5t-17.6 -45zM890.6 95.7q2 -62.5 54.7 -93.7 54.7 -31.3 109.4 0 52.7 31.2 54.7 93.7 -2 62.5 -54.7 93.8 -54.7 31.2 -109.4 0Q892.6 158.2 890.6 95.7zM1125 404.3v164.1V404.3v164.1q31.3 -33.2 31.3 -82.1t-31.3 -82zm-500 -418q70.3 2 107.4 62.5 35.2 62.5 0 125Q695.3 234.4 625 236.3q-70.3 -1.9 -107.4 -62.5 -35.2 -62.5 0 -125Q554.7 -11.7 625 -13.7zM468.8 517.6q1.9 48.8 31.2 82V435.5q-29.3 33.3 -31.2 82.1zM750 435.5v164.1V435.5v164.1q31.3 -33.2 31.3 -82T750 435.5zm125 82.1q0 66.4 -35.2 119.1 -33.2 50.8 -89.8 78.1v84q0 27.4 -17.6 45t-44.9 17.5h-125q-27.3 0 -44.9 -17.5t-17.6 -45v-84q-56.6 -27.3 -89.8 -78.1Q375 584 375 517.6q2 -93.8 64.5 -154.3Q500 300.8 593.8 298.8h62.5q93.7 2 154.2 64.5Q873 423.8 875 517.6z"/></svg>