<svg height="1000" width="1125" xmlns="http://www.w3.org/2000/svg"><path d="M156.3 111.3q52.7 -1.9 82 -46.8 23.4 -46.9 0 -93.8 -29.3 -44.9 -82 -46.9 -52.8 2 -82.1 46.9 -23.4 46.9 0 93.8 29.3 44.9 82.1 46.8zM125 173.8q-52.7 2 -87.9 37.1Q2 246.1 0 298.8v250q0 27.4 17.6 45t44.9 17.5q29.3 0 46.9 -21.5l46.9 281.3q5.8 27.3 25.3 41 21.5 13.7 46.9 11.7 27.4 -5.8 41 -25.4 13.7 -21.4 11.8 -46.8L240.2 611.3h31.3L330.1 875q5.8 25.4 27.3 39.1t46.9 7.8 39.1 -27.4 7.8 -46.8L339.8 343.8l226.6 105.4h3.9q25.4 11.7 50.8 0 9.8 -5.8 17.6 -13.7 9.7 -9.7 13.6 -21.4v-2l5.9 -15.6q17.6 -50.8 68.4 -74.2l15.6 -7.8h1.9t3.9 -2l-33.2 125q-15.6 64.5 27.4 115.2l138.7 152.4L923.8 877q7.8 25.3 29.3 37.1 21.5 13.6 46.9 7.8 25.4 -7.8 39.1 -29.3 11.7 -21.5 5.8 -46.9L1000 666q-5.9 -23.4 -21.5 -41L880.9 519.5l39 -126.9 17.6 44.9q13.7 31.3 44.9 46.9l52.8 27.3q23.4 9.8 46.8 2t37.1 -31.3q11.8 -23.4 3.9 -46.9t-33.2 -37.1l-41 -19.5 -29.3 -72.3q-27.3 -60.5 -80 -95.7Q886.7 173.8 820.3 173.8q-68.3 0 -128.9 27.4l-15.6 7.8q-74.2 33.2 -113.3 99.6L306.6 191.4q-37.1 -17.6 -78.1 -17.6H125zm781.3 -62.5q52.7 -1.9 82 -46.8 23.4 -46.9 0 -93.8 -29.3 -44.9 -82 -46.9 -52.8 2 -82.1 46.9 -23.4 46.9 0 93.8 29.3 44.9 82.1 46.8zM683.6 580.1l-48.8 121.1 48.8 -121.1 -48.8 121.1L517.6 816.4Q500 835.9 500 861.3t17.6 45q19.5 17.5 44.9 17.5t44.9 -17.5L726.6 785.2q13.6 -13.7 21.4 -31.3l27.4 -70.3 -78.1 -87.9q-7.8 -7.8 -13.7 -15.6z"/></svg>