<svg height="1000" width="1125" xmlns="http://www.w3.org/2000/svg"><path d="M953.1 39.1q-15.6 60.5 -62.5 97.6 -46.8 35.2 -109.3 37.1 -62.5 -1.9 -109.4 -37.1Q625 99.6 609.4 39.1l-17.6 -68.4Q584 -54.7 562.5 -66.4 543 -80.1 515.6 -74.2q-25.4 7.8 -37.1 29.3Q464.8 -25.4 470.7 2l17.6 68.3q37.1 132.8 152.3 193.4v597.6q0 27.4 17.6 45t44.9 17.5T748 906.3t17.6 -45v-250h31.3v250q0 27.4 17.6 45t44.9 17.5 44.9 -17.5 17.6 -45V263.7q115.2 -62.5 152.3 -193.4L1091.8 2q5.9 -25.4 -7.8 -46.9 -11.7 -21.5 -37.1 -29.3 -27.4 -5.9 -48.9 7.8 -19.5 11.7 -27.3 37.1l-17.6 68.4zm-171.8 72.2q52.7 -1.9 82 -46.8 23.4 -46.9 0 -93.8 -29.3 -44.9 -82 -46.9 -52.8 2 -82.1 46.9 -23.4 46.9 0 93.8 29.3 44.9 82.1 46.8zm-625 0q52.7 -1.9 82 -46.8 23.4 -46.9 0 -93.8 -29.3 -44.9 -82 -46.9 -52.8 2 -82.1 46.9 -23.4 46.9 0 93.8 29.3 44.9 82.1 46.8zm-15.7 62.5q-52.7 2 -87.9 37.1 -35.1 35.2 -37.1 87.9v562.5q0 27.4 17.6 45t44.9 17.5T123 906.3t17.6 -45v-250h31.3v250q0 27.4 17.6 45t44.9 17.5 44.9 -17.5 17.6 -45V418l25.4 39q19.5 29.3 52.7 29.3h93.8q27.3 0 44.9 -17.5t17.6 -45 -17.6 -44.9 -44.9 -17.6h-58.6L335.9 246.1Q289.1 175.8 205.1 173.8h-64.5z"/></svg>