<svg height="1000" width="1250" xmlns="http://www.w3.org/2000/svg"><path d="M703.1 64.5q-1.9 -45 -39 -68.4 -39.1 -19.5 -78.2 0 -37.1 23.4 -39 68.4 1.9 44.9 39 68.3 39.1 19.5 78.2 0 37.1 -23.4 39 -68.3zM281.3 330.1q44.9 -2 68.3 -39.1 19.5 -39 0 -78.1 -23.4 -37.1 -68.3 -39.1 -45 2 -68.4 39.1 -19.5 39.1 0 78.1 23.4 37.1 68.4 39.1zM62.5 736.3q-27.3 0 -44.9 17.6Q0 771.5 0 798.8t17.6 45 44.9 17.5h1125q27.3 0 44.9 -17.5t17.6 -45 -17.6 -44.9 -44.9 -17.6H62.5zM968.8 330.1q44.9 -2 68.3 -39.1 19.5 -39 0 -78.1 -23.4 -37.1 -68.3 -39.1 -45 2 -68.4 39.1 -19.5 39.1 0 78.1 23.4 37.1 68.4 39.1zm-578.2 207l52.8 95.7 -52.8 -95.7 52.8 95.7q23.4 37.1 62.5 19.5 37.1 -23.4 19.5 -62.5L455.1 457q3.9 -3.9 7.8 -11.7l52.7 -95.7v105.5q0 27.3 17.6 44.9t44.9 17.6h93.8q27.3 0 44.9 -17.6t17.6 -44.9V349.6l52.7 95.7q3.9 7.8 7.8 11.7l-70.3 132.8q-17.6 39.1 19.5 62.5 39.1 17.6 62.5 -19.5l52.8 -95.7v74.2q0 27.4 17.6 45t44.9 17.5h93.7q27.4 0 44.9 -17.5t17.6 -45v-74.2l52.8 95.7q23.4 37.1 62.5 19.5 37.1 -23.4 19.5 -62.5l-74.2 -138.6q-23.5 -41 -62.5 -64.5 -41 -25.4 -87.9 -25.4h-39.1q-48.8 0 -87.9 25.4l-66.4 -123q-23.4 -41 -62.5 -64.5 -41 -25.4 -87.9 -25.4h-39q-46.9 0 -87.9 25.4 -39.1 23.5 -62.5 64.5l-66.4 123q-39.1 -25.4 -87.9 -25.4h-39.1q-46.9 0 -87.9 25.4 -39 23.5 -62.5 64.5L37.1 589.8q-17.6 39.1 19.5 62.5 39.1 17.6 62.5 -19.5l52.8 -95.7v74.2q0 27.4 17.6 45t44.9 17.5h93.7q27.4 0 44.9 -17.5t17.6 -45v-74.2z"/></svg>