<svg height="1000" width="1250" xmlns="http://www.w3.org/2000/svg"><path d="M156.3 17.6q1.9 -52.8 46.8 -82.1 46.9 -23.4 93.8 0 44.9 29.3 46.9 82.1 -2 52.7 -46.9 82 -46.9 23.4 -93.8 0 -44.9 -29.3 -46.8 -82zm125 378.9v126.9V396.5v126.9l99.6 99.6q21.4 21.5 25.4 50.8l31.2 177.8q2 25.4 -11.7 46.8 -13.7 19.6 -41 25.4 -25.4 2 -46.9 -11.7 -19.5 -13.7 -25.4 -41l-27.3 -168L130.9 548.8Q93.8 511.7 93.8 460.9V289.1Q95.7 240.2 127 207q33.2 -31.2 82 -33.2 74.2 2 117.2 62.5L418 375l19.5 9.8V236.3q0 -27.3 17.6 -44.9T500 173.8h250q27.3 0 44.9 17.6t17.6 44.9v148.5L832 375l93.8 -138.7q41 -60.5 115.2 -62.5 48.8 2 82 33.2 31.3 33.2 33.3 82.1v171.8q0 50.8 -37.2 87.9L964.8 703.1l-27.3 168q-5.9 27.3 -25.4 41 -21.5 13.7 -46.9 11.7 -27.3 -5.8 -41 -25.4Q810.5 877 814.5 851.6l29.3 -177.8q3.9 -29.3 25.3 -50.8l99.7 -99.6V396.5l-37.2 54.7q-13.6 21.5 -35.1 31.2L779.3 541q-7.8 3.9 -15.6 5.9t-13.7 1.9H494.1t-7.8 -1.9q-7.8 -2 -15.6 -5.9L355.5 482.4Q332 472.7 318.4 451.2l-37.1 -54.7zM3.9 837.9L97.7 605.5 3.9 837.9 97.7 605.5l95.7 95.7 -72.3 183.6Q109.4 908.2 87.9 918q-23.4 9.7 -48.8 1.9Q15.6 908.2 5.9 886.7q-9.8 -23.4 -2 -48.8zM1000 -76.2q52.7 2 82 46.9 23.5 46.9 0 93.8 -29.3 44.9 -82 46.8 -52.7 -1.9 -82 -46.8 -23.5 -46.9 0 -93.8 29.3 -44.9 82 -46.9zm152.3 681.7l93.8 232.4 -93.8 -232.4 93.8 232.4q7.8 25.4 -2 48.8 -9.7 21.5 -33.2 33.2 -25.4 7.8 -48.8 -1.9 -21.5 -9.8 -33.2 -33.2l-72.3 -183.6 95.7 -95.7z"/></svg>