<svg height="1000" width="1250" xmlns="http://www.w3.org/2000/svg"><path d="M125 48.8q2 -70.3 62.5 -107.4 62.5 -35.2 125 0Q373 -21.5 375 48.8q-2 70.3 -62.5 107.5 -62.5 35.1 -125 0Q127 119.1 125 48.8zM50.8 378.9q5.8 -60.5 48.8 -101.6 44.9 -39 107.4 -41h86q84 3.9 128.9 66.4l-15.6 11.8 -125 125Q250 474.6 250 517.6t31.3 78.1l93.7 91.8v142.6q-2 39 -27.3 66.4 -27.4 25.4 -66.4 27.3h-62.5q-39.1 -1.9 -66.5 -27.3Q127 869.1 125 830.1V603.5Q85.9 589.8 62.5 554.7T43 476.6l7.8 -97.7zM875 48.8q2 -70.3 62.5 -107.4 62.5 -35.2 125 0 60.5 37.1 62.5 107.4 -2 70.3 -62.5 107.5 -62.5 35.1 -125 0Q877 119.1 875 48.8zm-31.2 265.7l-15.7 -11.8Q875 240.2 957 236.3h86q62.5 2 107.4 41 43 41.1 48.8 101.6l7.8 97.7q3.9 42.9 -19.5 78.1t-62.5 48.8v226.6q-2 39 -27.3 66.4 -27.4 25.4 -66.4 27.3h-62.5q-39.1 -1.9 -66.5 -27.3Q877 869.1 875 830.1V687.5l93.8 -91.8q31.2 -35.2 31.2 -78.1t-31.2 -78.1l-125 -125zm-312.5 78.1v62.5 -62.5 62.5h187.5v-62.5q1.9 -31.3 29.2 -43t50.8 9.8l125 125q27.4 33.2 0 66.4l-125 125q-23.4 19.5 -50.8 9.7 -27.3 -11.7 -29.2 -42.9v-62.5H531.3v62.5q-2 31.2 -29.3 42.9 -27.4 9.8 -50.8 -9.7l-125 -125q-27.4 -33.2 0 -66.4l125 -125q23.4 -21.5 50.8 -9.8t29.3 43z"/></svg>