<svg height="1000" width="1000" xmlns="http://www.w3.org/2000/svg"><path d="M835.9 -70.3q39.1 -17.6 64.5 17.6l9.8 17.5q27.3 50.8 29.3 107.5 0 56.6 -23.5 107.4 82 85.9 84 212.9 0 54.7 -17.6 103.5 -9.7 25.4 -33.2 23.4 -25.4 0 -39 -23.4l-21.5 -46.9q-13.7 -23.4 -43 -25.4H703.1Q660.2 419.9 656.3 377V220.7q-4 -43 -46.9 -46.9h-33.2q-33.2 -1.9 -41 -25.4t19.5 -39Q615.2 80.1 687.5 80.1q84 0 152.3 39Q855.5 64.5 828.1 9.8l-9.7 -15.7q-17.6 -41 17.5 -64.4zM334 599.6L515.6 236.3 334 599.6 515.6 236.3h78.2v156.3q1.9 39 27.3 66.4 27.3 25.4 66.4 27.3h148.4l46.9 93.8q-119.1 160.1 -294.9 250 -177.7 91.8 -386.7 93.7H85.9q-35.1 0 -60.5 -25.4T0 837.9q0 -31.3 19.5 -54.7Q37.1 759.8 68.4 752L166 730.5Q279.3 703.1 334 599.6z"/></svg>