<svg height="1000" width="1125" xmlns="http://www.w3.org/2000/svg"><path d="M605.5 271.5L875 503.9 605.5 271.5 875 503.9q-3.9 2 -5.9 3.9t-3.9 2q-56.6 39 -115.2 39 -60.5 0 -115.2 -39 -33.2 -23.5 -72.3 -23.5t-72.3 23.5q-52.7 37.1 -115.2 39 -31.2 0 -62.5 -11.7 9.8 -181.6 130.9 -300.8 123 -121.1 306.6 -125h125q27.3 0 44.9 17.6t17.6 44.9 -17.6 45T875 236.3H750q-80.1 0 -144.5 35.2zm-293 -35.2q-2 70.3 -62.5 107.5 -62.5 35.1 -125 0Q64.5 306.6 62.5 236.3 64.5 166 125 128.9q62.5 -35.1 125 0 60.5 37.1 62.5 107.4zm287.1 324.2Q668 609.4 750 611.3q82 -3.9 150.4 -50.8 41 -25.3 78.1 4 43 35.1 97.7 48.8 25.4 5.8 39 27.3t7.8 46.9 -27.3 39.1 -46.9 7.8Q974.6 714.8 935.5 685.5 847.7 734.4 750 736.3q-95.7 -5.8 -156.2 -37.1 -17.6 -7.8 -31.3 -15.6 -13.7 7.8 -31.2 15.6Q470.7 730.5 375 736.3q-97.7 -1.9 -183.6 -50.8 -41 29.3 -115.2 48.9 -25.4 5.8 -46.9 -7.8T2 687.5t7.8 -46.9 39 -27.3q54.7 -13.7 97.7 -48.8 37.1 -27.4 78.1 -4Q293 607.4 375 611.3q84 -1.9 152.3 -50.8 35.2 -23.4 72.3 0z"/></svg>