<svg height="1000" width="1250" xmlns="http://www.w3.org/2000/svg"><path d="M937.5 111.3q52.7 -1.9 82 -46.8 23.5 -46.9 0 -93.8 -29.3 -44.9 -82 -46.9 -52.7 2 -82 46.9 -23.5 46.9 0 93.8 29.3 44.9 82 46.8zm-15.6 750v-250 250 -250h31.2v250q0 27.4 17.6 45t44.9 17.5 44.9 -17.5 17.6 -45V425.8l56.7 91.8q13.6 23.4 37.1 29.3 25.4 5.8 48.8 -7.8 21.5 -13.7 27.3 -37.1 5.9 -25.4 -7.8 -48.9L1127 263.7q-25.4 -41 -68.4 -66.4 -43 -23.5 -91.8 -23.5h-58.6q-50.8 0 -91.8 23.5 -43 25.4 -68.4 66.4L634.8 453.1Q621.1 476.6 627 502q5.8 23.4 27.3 37.1 23.4 13.6 48.8 7.8 23.5 -5.9 37.1 -29.3l56.7 -91.8v435.5q0 27.4 17.6 45t44.9 17.5 44.9 -17.5 17.6 -45zM373 -41q-7.8 -19.5 -29.2 -19.5T314.5 -41l-56.7 144.5L109.4 58.6Q87.9 52.7 74.2 68.4q-11.7 17.5 -1.9 35.1l78.1 134.8L21.5 326.2Q3.9 339.8 7.8 359.4q5.9 19.5 27.4 23.4l152.3 23.5 -9.8 156.2q-1.9 21.5 17.6 31.3 17.6 7.8 33.2 -5.9L343.8 482.4 459 587.9q15.6 13.7 33.2 5.9 19.5 -9.8 17.6 -31.3L500 408.2l97.7 -15.6 48.8 -80.1L537.1 238.3l78.1 -134.8Q625 85.9 613.3 68.4 599.6 52.7 578.1 58.6l-148.4 44.9L373 -41z"/></svg>