<svg height="1000" width="625" xmlns="http://www.w3.org/2000/svg"><path d="M218.8 17.6q1.9 -52.8 46.8 -82.1 46.9 -23.4 93.8 0 44.9 29.3 46.9 82.1 -2 52.7 -46.9 82 -46.9 23.4 -93.8 0 -44.9 -29.3 -46.8 -82zm78.1 593.7v250 -250 250q0 27.4 -17.6 45t-44.9 17.5 -44.9 -17.5 -17.6 -45V425.8l-56.7 93.7Q101.6 541 78.1 546.9q-25.4 5.8 -46.8 -7.8Q7.8 525.4 2 502q-5.9 -25.4 7.8 -46.9L123 265.6q25.4 -42.9 68.4 -68.3 43 -23.5 91.8 -23.5h58.6q50.8 0 91.8 23.5 43 25.4 68.4 68.3l115.2 189.5q11.7 21.5 5.8 46.9 -5.8 23.4 -27.3 37.1 -23.4 13.6 -48.8 7.8Q523.4 541 509.8 519.5l-56.7 -93.7v435.5q0 27.4 -17.6 45t-44.9 17.5 -44.9 -17.5 -17.6 -45v-250h-31.2z"/></svg>