<svg height="1000" width="1000" xmlns="http://www.w3.org/2000/svg"><path d="M531.3 -68.4q-31.3 -15.6 -62.5 0l-437.5 250Q2 201.2 0 236.3v625q0 27.4 17.6 45t44.9 17.5 44.9 -17.5 17.6 -45V273.4L500 58.6l375 214.8v587.9q0 27.4 17.6 45t44.9 17.5 44.9 -17.5 17.6 -45v-625q-2 -35.1 -31.2 -54.7l-437.5 -250zM500 330.1q44.9 -2 68.4 -39.1 19.5 -39 0 -78.1Q544.9 175.8 500 173.8q-44.9 2 -68.4 39.1 -19.5 39.1 0 78.1 23.5 37.1 68.4 39.1zM484.4 877V705.1 877 705.1h31.2V877q3.9 42.9 46.9 46.8 43 -3.9 46.9 -46.8V537.1l52.7 95.7q23.4 37.1 62.5 19.5 37.1 -23.4 19.5 -62.5L669.9 451.2q-23.4 -41 -62.5 -64.5 -41 -25.4 -87.9 -25.4h-39q-46.9 0 -87.9 25.4 -39.1 23.5 -62.5 64.5l-74.2 138.6q-17.6 39.1 19.5 62.5 39.1 17.6 62.5 -19.5l52.7 -95.7V877q3.9 42.9 46.9 46.8 43 -3.9 46.9 -46.8z"/></svg>