<svg height="1000" width="1250" xmlns="http://www.w3.org/2000/svg"><path d="M375 111.3q52.7 -1.9 82 -46.8 23.5 -46.9 0 -93.8 -29.3 -44.9 -82 -46.9 -52.7 2 -82 46.9 -23.5 46.9 0 93.8 29.3 44.9 82 46.8zm-15.6 750v-250 250 -250h31.2v250q0 27.4 17.6 45t44.9 17.5T498 906.3t17.6 -45V298.8H781.3q27.3 0 44.9 -17.5t17.6 -45 -17.6 -44.9 -44.9 -17.6H750v-125h375v375H750v-62.5H625v93.8q2 39 27.3 66.4 27.4 25.4 66.5 27.3h437.5q39 -1.9 66.4 -27.3 25.3 -27.4 27.3 -66.4V17.6q-2 -39.1 -27.3 -66.4 -27.4 -25.4 -66.4 -27.4H718.8q-39.1 2 -66.5 27.4Q627 -21.5 625 17.6v156.2H345.7q-48.8 0 -91.8 23.5 -43 25.4 -68.4 68.3L72.3 455.1Q58.6 476.6 64.5 502q5.8 23.4 29.3 39 21.4 11.7 46.8 5.9 23.5 -5.9 37.1 -27.4l56.7 -93.7v435.5q0 27.4 17.6 45t44.9 17.5 44.9 -17.5 17.6 -45z"/></svg>