<svg height="1000" width="1125" xmlns="http://www.w3.org/2000/svg"><path d="M218.8 17.6q1.9 -52.8 46.8 -82.1 46.9 -23.4 93.8 0 44.9 29.3 46.9 82.1 -2 52.7 -46.9 82 -46.9 23.4 -93.8 0 -44.9 -29.3 -46.8 -82zm78.1 593.7v250 -250 250q0 27.4 -17.6 45t-44.9 17.5 -44.9 -17.5 -17.6 -45V425.8l-56.7 93.7Q101.6 541 78.1 546.9q-25.4 5.8 -46.8 -7.8Q7.8 525.4 2 502q-5.9 -25.4 7.8 -46.9L123 265.6q25.4 -42.9 68.4 -68.3 43 -23.5 91.8 -23.5h58.6q50.8 0 91.8 23.5 43 25.4 68.4 68.3l87.8 144.6Q543 462.9 519.5 531.3q-5.8 -5.9 -9.7 -13.7l-56.7 -91.8v435.5q0 27.4 -17.6 45t-44.9 17.5 -44.9 -17.5 -17.6 -45v-250h-31.2zm546.9 -250q76.1 0 140.6 37.1 64.4 37.1 103.5 103.6 37.1 66.4 37.1 140.6t-37.1 140.6q-39.1 66.4 -103.5 103.5t-140.6 37.1T703.1 886.7 599.6 783.2Q562.5 716.8 562.5 642.6T599.6 502q39.1 -66.5 103.5 -103.6t140.7 -37.1zM875 517.6q-2 -29.3 -31.2 -31.3 -29.3 2 -31.3 31.3v93.7h-93.7q-29.3 2 -31.3 31.3 2 29.3 31.3 31.2h93.7v93.8q2 29.3 31.3 31.2Q873 796.9 875 767.6v-93.8h93.8q29.2 -1.9 31.2 -31.2 -2 -29.3 -31.2 -31.3H875v-93.7z"/></svg>