<svg height="1000" width="1250" xmlns="http://www.w3.org/2000/svg"><path d="M500 -13.7q0 -27.3 -17.6 -44.9 -17.6 -17.6 -44.9 -17.6t-44.9 17.6T375 -13.7V5.9q0 58.6 -31.2 103.5 -31.3 46.9 -86 68.3Q168 214.8 115.2 293 64.5 369.1 62.5 466.8v144.5q0 27.4 17.6 45t44.9 17.5 44.9 -17.5 17.6 -45V466.8q0 -29.3 9.8 -56.6l312.5 484.3q15.6 23.5 39 27.4 25.4 5.8 46.9 -7.8Q619.1 898.4 623 875q5.9 -25.4 -7.8 -46.9L435.5 548.8h158.3l74.2 99.6q17.5 21.5 41 25.4 25.4 2 46.9 -11.7 21.4 -17.6 25.4 -41 1.9 -25.4 -11.8 -46.9L683.6 460.9q-27.3 -35.1 -74.2 -37.1H470.7L359.4 267.6q64.4 -44.9 103.5 -113.3Q500 85.9 500 5.9v-19.6zM187.5 80.1Q185.5 27.3 140.6 -2 93.8 -25.4 46.9 -2 2 27.3 0 80.1q2 52.7 46.9 82 46.9 23.4 93.7 0 44.9 -29.3 46.9 -82zm718.8 402.3l115.2 105.5L906.3 482.4l115.2 105.5q15.6 13.7 33.2 5.9 19.5 -9.8 17.6 -31.3l-9.8 -154.3 154.3 -23.4q19.5 -5.9 25.4 -25.4 1.9 -19.6 -13.7 -31.3l-126.9 -87.9 76.1 -136.7q9.8 -17.6 -1.9 -35.1 -13.7 -15.7 -35.2 -9.8l-148.4 44.9L935.5 -41q-7.8 -19.5 -29.2 -19.5T877 -41l-56.7 144.5L671.9 58.6q-21.5 -5.9 -35.2 9.8 -11.7 17.5 -1.9 35.1l78.1 134.8L584 326.2q-17.6 13.6 -13.7 33.2l2 1.9h37.1q60.5 0 105.4 41l35.2 5.9 -2 33.2 70.4 95.7 11.7 15.6 76.2 -70.3z"/></svg>