<svg height="1000" width="1125" xmlns="http://www.w3.org/2000/svg"><path d="M500 -13.7q0 -27.3 -17.6 -44.9 -17.6 -17.6 -44.9 -17.6t-44.9 17.6T375 -13.7v312.5h125V-13.7zm625 0q0 -27.3 -17.6 -44.9 -17.6 -17.6 -44.9 -17.6t-44.9 17.6 -17.6 44.9v875q0 27.4 17.6 45t44.9 17.5 44.9 -17.5 17.6 -45v-875zM437.5 923.8q27.3 0 44.9 -17.5 17.6 -17.6 17.6 -45V548.8H375v312.5q0 27.4 17.6 45t44.9 17.5zM625 -76.2q-27.3 0 -46.9 21.5 -17.6 21.5 -15.6 50.8L625 421.9l-60.5 302.7q-5.9 25.4 7.8 46.9 13.6 19.5 41 25.4 25.4 5.8 46.9 -7.8 19.5 -13.7 25.3 -41.1l2 -5.8q2 23.4 19.5 41 17.6 15.6 43 15.6 27.3 0 44.9 -17.5t17.6 -45q0 27.4 17.6 45t44.9 17.5 44.9 -17.5 17.6 -45v-750q0 -27.3 -17.6 -44.9T875 -76.2H625zM218.8 80.1Q216.8 27.3 171.9 -2 125 -25.4 78.1 -2 33.2 27.3 31.3 80.1q1.9 52.7 46.8 82 46.9 23.4 93.8 0 44.9 -29.3 46.9 -82zm0 509.7V449.2v140.6V449.2l9.7 9.8q27.4 27.3 66.4 27.3h142.6q27.3 0 44.9 -17.5t17.6 -45 -17.6 -44.9 -44.9 -17.6H306.6l-80 -82q-45 -43 -105.5 -43 -52.7 2 -85.9 35.2T0 357.4v503.9q0 27.4 17.6 45t44.9 17.5 44.9 -17.5 17.6 -45V673.8l62.5 84v103.5q0 27.4 17.6 45t44.9 17.5 44.9 -17.5 17.6 -45V746.1q0 -31.3 -19.5 -54.7L218.8 589.8z"/></svg>