<svg height="1000" width="875" xmlns="http://www.w3.org/2000/svg"><path d="M625 17.6q-2 -52.8 -46.9 -82.1 -46.8 -23.4 -93.7 0 -44.9 29.3 -46.9 82.1 2 52.7 46.9 82 46.9 23.4 93.7 0Q623 70.3 625 17.6zm-378.9 250q29.3 -31.3 72.3 -31.3h11.7l-60.6 183.6q-13.6 43 0 82.1t50.8 64.4l169.9 103.5 -50.7 173.9q-5.9 25.3 5.8 48.8 11.7 21.5 37.1 29.3 25.4 5.8 48.9 -5.9 21.4 -11.7 29.2 -37.1l56.7 -197.3Q625 652.3 613.3 623q-9.8 -29.2 -37.1 -44.9L464.8 507.8l60.6 -160.1 9.8 23.4q23.4 52.7 68.3 84 46.9 31.2 105.5 31.2h41q27.3 0 44.9 -17.5t17.6 -45 -17.6 -44.9T750 361.3h-41q-41 -1.9 -58.6 -39L638.7 293Q591.8 187.5 480.5 150.4l-93.8 -29.3q-33.2 -9.8 -68.3 -9.8 -93.8 2 -160.2 66.4l-46.9 45q-17.5 19.5 -17.5 44.9t17.5 44.9q19.6 17.6 45 17.6t44.9 -17.6l44.9 -44.9zm-68.4 343.7H62.5h115.2H62.5q-27.3 0 -44.9 17.6T0 673.8t17.6 45 44.9 17.5h136.7q58.6 -1.9 86 -54.7l21.4 -50.7 -17.5 -11.8q-52.8 -33.2 -74.3 -87.8l-37.1 80z"/></svg>