<svg height="1000" width="1250" xmlns="http://www.w3.org/2000/svg"><path d="M1031.3 17.6q-2 -52.8 -46.9 -82.1 -46.9 -23.4 -93.8 0 -44.9 29.3 -46.8 82.1 1.9 52.7 46.8 82 46.9 23.4 93.8 0 44.9 -29.3 46.9 -82zM761.7 673.8h35.2 -35.2 35.2v187.5q0 27.4 17.6 45t44.9 17.5 44.9 -17.5 17.6 -45V673.8h31.2v187.5q0 27.4 17.6 45t44.9 17.5 44.9 -17.5 17.6 -45V673.8h35.2q15.6 0 25.4 -13.6 7.8 -11.8 3.9 -27.4l-74.2 -224.6 66.4 109.4q13.6 23.4 37.1 29.3 25.4 5.8 48.8 -7.8 21.5 -13.7 27.3 -37.1 5.9 -25.4 -7.8 -48.9L1136.7 279.3q-31.2 -48.8 -80.1 -78.1 -48.8 -27.4 -107.4 -27.4h-23.4q-58.6 0 -107.4 27.4 -48.9 29.3 -80.1 78.1L634.8 453.1Q621.1 476.6 627 502q5.8 23.4 29.3 37.1 21.4 13.6 46.8 7.8 23.5 -5.9 37.1 -29.3l66.4 -109.4 -74.2 224.6q-3.9 15.6 3.9 27.4 9.8 13.6 25.4 13.6zM373 -41q-7.8 -19.5 -29.2 -19.5T314.5 -41l-56.7 144.5L109.4 58.6Q87.9 52.7 74.2 68.4q-11.7 17.5 -1.9 35.1l78.1 134.8L21.5 326.2Q3.9 339.8 7.8 359.4q5.9 19.5 27.4 23.4l152.3 23.5 -9.8 156.2q-1.9 21.5 17.6 31.3 17.6 7.8 33.2 -5.9L343.8 482.4 459 587.9q15.6 13.7 33.2 5.9 19.5 -9.8 17.6 -31.3L500 408.2l97.7 -15.6 48.8 -80.1L539.1 238.3l76.1 -134.8Q625 85.9 613.3 68.4 599.6 52.7 578.1 58.6l-148.4 44.9L373 -41z"/></svg>