<svg height="1000" width="1000" xmlns="http://www.w3.org/2000/svg"><path d="M138.7 -50.8q-27.4 3.9 -29.3 31.3 1.9 31.2 33.2 33.2h216.8q29.3 -2 31.2 -31.3v-27.3q-3.9 -31.3 -35.1 -31.3l-216.8 25.4zm232.4 127H130.9h240.2H130.9Q125 93.8 125 111.3q2 52.8 37.1 87.9t87.9 37.1q52.7 -1.9 87.9 -37.1T375 111.3q0 -17.5 -3.9 -35.1zM62.5 423.8v62.5 -62.5 62.5q0 27.4 17.6 45t44.9 17.5h259.8L103.5 332q-39 35.2 -41 91.8zm371.1 84q3.9 -9.8 3.9 -21.5v-62.5q-2 -52.7 -37.1 -87.9t-87.9 -37.1h-125q-11.7 0 -21.5 2l267.6 207zM750 236.3q70.3 -1.9 107.4 -62.5 35.2 -62.5 0 -125Q820.3 -11.7 750 -13.7q-70.3 2 -107.4 62.5 -35.2 62.5 0 125 37.1 60.6 107.4 62.5zm-62.5 62.5q-52.7 2 -87.9 37.1 -35.1 35.2 -37.1 87.9v62.5q0 27.4 17.6 45t44.9 17.5h250q27.3 0 44.9 -17.5t17.6 -45v-62.5q-2 -52.7 -37.1 -87.9t-87.9 -37.1h-125zM421.9 802.7q15.6 -13.6 15.6 -35.1t-15.6 -35.2L296.9 623q-23.5 -19.5 -50.8 -7.8 -25.4 13.7 -27.3 43v62.5H46.9Q3.9 724.6 0 767.6q3.9 42.9 46.9 46.9h171.9V877q1.9 29.3 27.3 42.9 27.3 11.7 50.8 -7.8l125 -109.4zm140.6 -35.1q0 21.5 15.6 35.1l125 109.4q23.5 19.5 50.8 7.8 25.4 -11.7 27.4 -42.9v-62.5h171.8q43 -4 46.9 -46.9 -3.9 -43 -46.9 -46.9H781.3v-62.5q-2 -29.3 -27.4 -43 -27.3 -11.7 -50.8 7.8l-125 109.4q-15.6 13.7 -15.6 35.2z"/></svg>