<svg height="1000" width="1250" xmlns="http://www.w3.org/2000/svg"><path d="M406.3 111.3q52.7 -1.9 82 -46.8 23.4 -46.9 0 -93.8 -29.3 -44.9 -82 -46.9 -52.8 2 -82.1 46.9 -23.4 46.9 0 93.8 29.3 44.9 82.1 46.8zM242.2 316.4q0 -1.9 1.9 -1.9 2 0 3.9 -2l-33.2 125q-15.6 64.5 27.4 117.2l138.7 150.4L423.8 877q7.8 25.3 29.3 37.1 21.5 13.6 46.9 7.8 25.4 -7.8 39.1 -29.3 11.7 -21.5 5.8 -46.9L500 666q-5.9 -23.4 -21.5 -41L380.9 519.5l39 -126.9 17.6 44.9q13.7 31.3 44.9 46.9l52.8 27.3q23.4 9.8 46.8 2t37.1 -31.3Q630.9 459 623 435.5t-31.2 -37.1l-43 -19.5 -29.3 -72.3q-27.3 -60.5 -80 -95.7Q386.7 173.8 320.3 173.8q-68.3 0 -128.9 27.4l-15.6 7.8Q76.2 253.9 39.1 357.4L35.2 373q-7.9 25.4 1.9 46.9 11.7 23.5 37.1 31.3t46.9 -2q23.4 -11.7 31.2 -37.1l5.9 -15.6q17.6 -50.8 68.4 -74.2l15.6 -5.9zm-58.6 263.7l-48.8 121.1 48.8 -121.1 -48.8 121.1L17.6 816.4Q0 835.9 0 861.3t17.6 45q19.5 17.5 44.9 17.5t44.9 -17.5L226.6 785.2q13.6 -13.7 21.4 -31.3l27.4 -70.3 -78.1 -87.9q-7.8 -7.8 -13.7 -15.6zm892.6 -357.4q-19.6 -17.6 -44.9 -17.6 -25.4 0 -45 17.6 -17.5 19.5 -17.5 44.9t17.5 44.9l50.8 48.8H750q-27.3 0 -44.9 17.6t-17.6 44.9 17.6 45 44.9 17.5h287.1l-50.8 48.9q-17.5 19.5 -17.5 44.9t17.5 44.9q19.6 17.6 45 17.6t44.9 -17.6l156.2 -156.2q17.6 -19.6 17.6 -45t-17.6 -44.9L1076.2 222.7zM765.6 -76.2q-42.9 3.9 -46.8 46.9v93.8q3.9 42.9 46.8 46.8 43 -3.9 46.9 -46.8v-93.8q-3.9 -43 -46.9 -46.9zm46.9 296.9q-3.9 -43 -46.9 -46.9 -42.9 3.9 -46.8 46.9V252q3.9 42.9 46.8 46.8 43 -3.9 46.9 -46.8v-31.3zm-46.9 328.1q-42.9 3.9 -46.8 46.9V627q3.9 42.9 46.8 46.8 43 -3.9 46.9 -46.8v-31.3q-3.9 -43 -46.9 -46.9zm46.9 234.4q-3.9 -43 -46.9 -46.9 -42.9 3.9 -46.8 46.9V877q3.9 42.9 46.8 46.8 43 -3.9 46.9 -46.8v-93.8z"/></svg>