<svg height="1000" width="625" xmlns="http://www.w3.org/2000/svg"><path d="M312.5 17.6q2 -52.8 46.9 -82.1 46.9 -23.4 93.7 0Q498 -35.2 500 17.6q-2 52.7 -46.9 82 -46.8 23.4 -93.7 0 -44.9 -29.3 -46.9 -82zM248 312.5q-1.9 2 -3.9 2 -1.9 0 -1.9 1.9l-15.6 5.9q-50.8 23.4 -68.4 74.2l-5.9 15.6q-7.8 25.4 -31.2 35.2Q99.6 459 74.2 451.2T37.1 419.9Q27.3 398.4 35.2 373l3.9 -15.6Q76.2 253.9 175.8 207l15.6 -5.8Q252 173.8 320.3 173.8q66.4 0 119.2 35.2 52.7 37.1 80 97.6l29.3 72.3 41 19.5q23.5 13.7 31.3 37.1t-2 46.9q-13.6 23.5 -37.1 31.3t-46.8 -2l-52.8 -27.3q-31.2 -15.6 -44.9 -46.9l-17.6 -44.9 -39 126.9L478.5 625q15.6 17.6 21.5 41l44.9 179.7q5.9 25.4 -7.8 46.9 -11.7 21.5 -37.1 29.3 -27.3 5.8 -48.8 -7.8Q431.6 902.3 423.8 877L380.9 705.1 242.2 552.7Q199.2 502 214.8 437.5l31.3 -125h1.9zM134.8 701.2l48.8 -121.1 -48.8 121.1 48.8 -121.1q5.9 7.8 13.7 15.6l78.1 87.9L248 753.9q-7.8 17.6 -21.4 31.3L107.4 906.3q-19.5 17.5 -44.9 17.5T17.6 906.3Q0 886.7 0 861.3t17.6 -44.9L134.8 701.2z"/></svg>