<svg height="1000" width="1000" xmlns="http://www.w3.org/2000/svg"><path d="M406.3 17.6q1.9 -52.8 46.8 -82.1 46.9 -23.4 93.8 0 44.9 29.3 46.9 82.1 -2 52.7 -46.9 82 -46.9 23.4 -93.8 0 -44.9 -29.3 -46.8 -82zm78.1 593.7v250 -250 250q0 27.4 -17.6 45t-44.9 17.5T377 906.3t-17.6 -45V425.8l-56.7 91.8q-13.6 23.4 -37.1 29.3 -25.4 5.8 -48.8 -7.8Q195.3 525.4 189.5 502q-5.9 -25.4 7.8 -48.9L310.5 263.7q25.4 -41 68.4 -66.4 43 -23.5 91.8 -23.5h58.6q50.8 0 91.8 23.5 43 25.4 68.4 66.4l115.2 189.4q11.7 23.5 5.8 48.9 -5.8 23.4 -27.3 37.1 -23.4 13.6 -48.8 7.8Q710.9 541 697.3 517.6l-56.7 -91.8v435.5q0 27.4 -17.6 45t-44.9 17.5 -44.9 -17.5 -17.6 -45v-250h-31.2zM13.7 -62.5q33.2 -27.3 66.4 0L236.3 93.8q27.4 33.2 0 66.4 -33.2 27.3 -66.4 0L13.7 3.9q-27.4 -33.2 0 -66.4zm906.2 0q33.2 -27.3 66.4 0 27.4 33.2 0 66.4L830.1 160.2q-33.2 27.3 -66.4 0 -27.4 -33.2 0 -66.4L919.9 -62.5zM13.7 910.2q-27.4 -33.2 0 -66.4L169.9 687.5q33.2 -27.3 66.4 0 27.4 33.2 0 66.4L80.1 910.2q-33.2 27.3 -66.4 0zm906.2 0L763.7 753.9l156.2 156.3L763.7 753.9q-27.4 -33.2 0 -66.4 33.2 -27.3 66.4 0l156.2 156.3q27.4 33.2 0 66.4 -33.2 27.3 -66.4 0z"/></svg>