<svg height="1000" width="1125" xmlns="http://www.w3.org/2000/svg"><path d="M406.3 48.8q1.9 -52.7 46.8 -82 46.9 -23.4 93.8 0 44.9 29.3 46.9 82 -2 52.8 -46.9 82.1 -46.9 23.4 -93.8 0Q408.2 101.6 406.3 48.8zm-386.8 295q19.6 -39.1 60.6 -25.4l39 15.6 45 -74.2q52.7 -84 150.4 -86 76.1 2 136.7 45 58.6 42.9 84 115.2l68.3 201.2 154.3 66.4 66.4 -89.9q21.5 -25.4 54.7 -25.4 31.3 2 48.8 31.3l187.5 312.5q17.6 31.2 2 62.5 -19.5 29.3 -54.7 31.2h-500q-35.2 0 -52.7 -29.3T505.9 834l31.2 -62.5q19.5 -33.2 56.7 -35.2h62.5l44.9 -58.6L44.9 404.3Q5.9 384.8 19.5 343.8zm162.1 179.6l218.8 93.8L181.6 523.4l218.8 93.8q35.1 15.6 37.1 56.6v187.5q0 27.4 -17.6 45T375 923.8t-44.9 -17.5 -17.6 -45V714.8L193.4 664.1l-72.3 216.8q-7.8 25.4 -31.3 37.1 -21.4 9.7 -46.8 1.9T5.9 888.7q-9.8 -21.5 -2 -46.9L97.7 560.5l21.4 -64.4 62.5 27.3z"/></svg>