<svg height="1000" width="750" xmlns="http://www.w3.org/2000/svg"><path d="M375 17.6q2 -52.8 46.9 -82.1 46.9 -23.4 93.7 0 44.9 29.3 46.9 82.1 -2 52.7 -46.9 82 -46.8 23.4 -93.7 0Q377 70.3 375 17.6zM474.6 375l-37.1 148.4L474.6 375l-37.1 148.4 97.7 97.7q27.3 27.3 27.3 66.4v173.8q0 27.4 -17.6 45T500 923.8t-44.9 -17.5 -17.6 -45V699.2L293 554.7Q246.1 505.9 259.8 437.5l41 -164.1q13.7 -50.7 54.7 -76.1 42.9 -25.4 93.7 -13.7 58.6 13.7 91.8 62.5l54.7 84h60.6v-46.9q3.9 -43 46.8 -46.9 43 3.9 46.9 46.9V877q-3.9 42.9 -46.9 46.8Q660.2 919.9 656.3 877V455.1h-76.2q-50.8 -2 -78.1 -41L474.6 375zM158.2 845.7l70.3 -269.5 -70.3 269.5 70.3 -269.5 19.5 23.4 82.1 82L279.3 877q-7.8 25.3 -29.3 39 -21.5 11.7 -46.9 5.9 -25.4 -7.8 -39 -29.3 -11.8 -21.5 -5.9 -46.9zM267.6 169.9l-70.3 275.4 70.3 -275.4 -70.3 275.4q-11.8 37.1 -52.8 33.2L50.8 462.9Q31.3 459 19.5 443.4 9.8 425.8 13.7 404.3L62.5 226.6q15.6 -52.8 56.6 -84 39.1 -31.3 93.8 -31.3h7.8q23.4 0 37.1 17.6t9.8 41z"/></svg>