<svg height="1000" width="1250" xmlns="http://www.w3.org/2000/svg"><path d="M125 48.8h437.5H125h437.5v19.6q0 58.6 -31.2 103.5 -31.3 46.9 -86 68.3 -89.8 37.1 -142.6 115.3Q252 431.6 250 529.3v144.5H125v-625zm562.5 0H1125 687.5 1125v625H992.2l-5.9 -7.8L837.9 488.3q-27.4 -33.2 -72.3 -33.2H627L546.9 332q0 -1.9 -2 -1.9 66.4 -44.9 103.5 -113.3 39.1 -68.4 39.1 -148.4V48.8zm142.6 625h-89.9 89.9 -89.9l84 125h332.1q39 -1.9 66.4 -27.3 25.3 -27.4 27.3 -66.4V17.6q-2 -39.1 -27.3 -66.4 -27.4 -25.4 -66.4 -27.4H93.8q-39.1 2 -66.5 27.4Q2 -21.5 0 17.6v687.5q2 39 27.3 66.4 27.4 25.4 66.5 27.3h507.8l64.4 97.7q15.6 21.5 41 25.4 23.5 5.8 46.9 -7.8 21.5 -15.7 25.4 -41.1 5.9 -23.4 -7.8 -46.8L607.4 580.1H752l78.1 93.7zm-310.6 0H375h144.5H375V529.3q0 -29.3 9.8 -56.6l134.7 201.1zM375 173.8q-2 -52.7 -46.9 -82 -46.8 -23.4 -93.7 0 -44.9 29.3 -46.9 82 2 52.8 46.9 82.1 46.9 23.4 93.7 0Q373 226.6 375 173.8z"/></svg>