<svg height="1000" width="1250" xmlns="http://www.w3.org/2000/svg"><path d="M781.3 111.3q52.7 -1.9 82 -46.8 23.4 -46.9 0 -93.8 -29.3 -44.9 -82 -46.9 -52.8 2 -82.1 46.9 -23.4 46.9 0 93.8 29.3 44.9 82.1 46.8zm52.7 125L712.9 140.6 834 236.3 712.9 140.6q-25.4 -19.5 -56.6 -19.5t-58.6 19.5l-162.2 125q-44.9 37.1 -41 91.8 2 54.7 50.8 87.9l117.2 74.2v216.8q0 27.4 17.6 45t44.9 17.5 44.9 -17.5 17.6 -45v-250q0 -33.2 -27.3 -52.7l-84 -54.7 117.2 -95.7 80 64.5q17.6 13.6 39.1 13.6h125q27.3 0 44.9 -17.5t17.6 -45 -17.6 -44.9 -44.9 -17.6H834zM109.4 673.8q1.9 -80 70.3 -121.1 70.3 -39 140.6 0 68.4 41.1 70.3 121.1 -1.9 80.1 -70.3 121.1 -70.3 39.1 -140.6 0 -68.4 -41 -70.3 -121.1zm390.6 0q0 -68.3 -33.2 -125Q433.6 492.2 375 457 316.4 423.8 250 423.8T125 457q-58.6 35.2 -91.8 91.8T0 673.8t33.2 125 91.8 91.8q58.6 33.2 125 33.2t125 -33.2q58.6 -35.1 91.8 -91.8t33.2 -125zm359.4 0q1.9 -80 70.3 -121.1 70.3 -39 140.6 0 68.4 41.1 70.3 121.1 -1.9 80.1 -70.3 121.1 -70.3 39.1 -140.6 0 -68.4 -41 -70.3 -121.1zm390.6 0q0 -68.3 -33.2 -125Q1183.6 492.2 1125 457q-58.6 -33.2 -125 -33.2T875 457q-58.6 35.2 -91.8 91.8t-33.2 125 33.2 125 91.8 91.8q58.6 33.2 125 33.2t125 -33.2q58.6 -35.1 91.8 -91.8t33.2 -125z"/></svg>