<svg height="1000" width="625" xmlns="http://www.w3.org/2000/svg"><path d="M312.5 -76.2q52.7 2 82 46.9 23.5 46.9 0 93.8 -29.3 44.9 -82 46.8 -52.7 -1.9 -82 -46.8 -23.5 -46.9 0 -93.8 29.3 -44.9 82 -46.9zm15.6 687.5V173.8v437.5V173.8h13.7q50.8 0 91.8 23.5 43 25.4 68.4 68.3l115.2 189.5q11.7 21.5 5.8 46.9 -5.8 23.4 -27.3 39 -23.4 11.7 -48.8 5.9Q523.4 541 509.8 519.5l-56.7 -93.7v435.5q0 27.4 -17.6 45t-44.9 17.5 -44.9 -17.5 -17.6 -45v-250zm-214.8 -332q31.2 -48.8 78.1 -76.2 48.8 -27.3 105.5 -29.3v687.5q0 27.4 -17.6 45t-44.9 17.5 -44.9 -17.5 -17.6 -45V673.8h-35.2q-15.6 0 -25.4 -13.6 -7.8 -11.8 -3.9 -27.4l74.2 -224.6 -66.4 111.3Q101.6 541 78.1 546.9q-25.4 5.8 -46.8 -7.8Q7.8 525.4 2 502q-5.9 -25.4 7.8 -46.9L113.3 279.3z"/></svg>