<svg height="1000" width="1125" xmlns="http://www.w3.org/2000/svg"><path d="M375 48.8Q375 21.5 357.4 3.9q-17.6 -17.6 -44.9 -17.6T267.6 3.9 250 48.8v62.5q0 80.1 33.2 150.4 31.3 68.4 87.9 121.1l-41 285.2q23.4 5.8 44.9 7.8 64.5 -3.9 115.2 -41 33.2 -21.5 72.3 -21.5t72.3 21.5q37.1 25.4 78.1 35.1l33.2 -189.4q31.2 -3.9 62.5 -11.7l205.1 -46.9q25.4 -5.9 39 -27.4t7.8 -46.8 -27.3 -39.1 -46.9 -7.8l-205 46.9Q658.2 375 539.1 335.9 464.8 312.5 419.9 252 377 189.5 375 111.3V48.8zm250 250q70.3 -1.9 107.4 -62.5 35.2 -62.5 0 -125Q695.3 50.8 625 48.8q-70.3 2 -107.4 62.5 -35.2 62.5 0 125 37.1 60.6 107.4 62.5zm-25.4 386.7q-37.1 -23.4 -72.3 0Q459 734.4 375 736.3q-82 -3.9 -150.4 -50.8 -41 -25.3 -78.1 4 -43 35.1 -97.7 48.8 -25.4 5.8 -39 27.3T2 812.5t27.3 39.1 46.9 7.8q74.2 -19.6 115.2 -48.9 85.9 48.9 183.6 50.8 95.7 -5.8 156.3 -37.1 17.5 -7.8 31.2 -15.6 13.7 7.8 31.3 15.6 60.5 31.3 156.2 37.1 97.7 -1.9 185.5 -50.8 39.1 29.3 113.3 48.9 25.4 5.8 46.9 -7.8t27.3 -39.1 -7.8 -46.9 -39 -27.3q-54.7 -13.7 -97.7 -48.8 -37.1 -27.4 -78.1 -4Q832 732.4 750 736.3q-82 -1.9 -150.4 -50.8z"/></svg>