<svg height="1000" width="1125" xmlns="http://www.w3.org/2000/svg"><path d="M843.8 111.3q52.7 -1.9 82 -46.8 23.4 -46.9 0 -93.8 -29.3 -44.9 -82 -46.9 -52.8 2 -82.1 46.9 -23.4 46.9 0 93.8 29.3 44.9 82.1 46.8zM679.7 316.4q0 -1.9 1.9 -1.9 2 0 3.9 -2l-33.2 125q-15.6 64.5 27.4 117.2l138.7 150.4L861.3 877q7.8 25.3 29.3 37.1 21.5 13.6 46.9 7.8 25.4 -7.8 39.1 -29.3 11.7 -21.5 5.8 -46.9L937.5 666Q931.6 642.6 916 625L820.3 519.5l37.1 -126.9 17.6 44.9q13.7 31.3 44.9 46.9l52.8 27.3q23.4 9.8 46.8 2t37.1 -31.3q11.8 -23.4 3.9 -46.9t-31.2 -37.1l-43 -19.5L957 306.6q-27.3 -60.5 -80 -95.7Q824.2 173.8 757.8 173.8q-68.3 0 -128.9 27.4l-15.6 7.8q-99.6 44.9 -136.7 148.4l-3.9 15.6q-7.9 25.4 1.9 46.9 11.7 23.5 37.1 31.3t46.9 -2q23.4 -11.7 31.2 -37.1l5.9 -15.6q17.6 -50.8 68.4 -74.2l15.6 -5.9zm-58.6 263.7l-48.8 121.1 48.8 -121.1 -48.8 121.1L455.1 816.4q-17.6 19.5 -17.6 44.9t17.6 45q19.5 17.5 44.9 17.5t44.9 -17.5L664.1 785.2q13.6 -13.7 21.4 -31.3l27.4 -70.3 -78.1 -87.9q-7.8 -7.8 -13.7 -15.6zM500 459q-25.4 -11.7 -43 11.7l-62.5 107.4L289.1 517.6q-23.5 -11.7 -48.9 -5.9 -23.4 5.9 -37.1 29.3l-125 216.8q-11.7 23.5 -5.8 46.9t29.3 37.1L209 904.3q23.4 13.7 46.9 5.9 25.4 -5.9 39 -27.4L419.9 666q3.9 -7.8 5.9 -15.6L511.7 502Q523.4 476.6 500 459z"/></svg>