<svg height="1000" width="1125" xmlns="http://www.w3.org/2000/svg"><path d="M482.4 -48.8Q441.4 -41 437.5 0q3.9 44.9 48.8 48.8h295q29.2 -1.9 31.2 -31.2V-43q-3.9 -29.3 -33.2 -31.2l-296.9 25.4zm-13.6 191.4q1.9 66.4 44.9 111.3 44.9 43 111.3 44.9 66.4 -1.9 111.3 -44.9 43 -44.9 45 -111.3 0 -15.6 -4 -31.3H472.7q-3.9 15.7 -3.9 31.3zM140.6 361.3q-33.2 0 -54.7 23.5 -23.4 21.5 -23.4 54.7t23.4 54.6q21.5 23.5 54.7 23.5h296.9v173.8L755.9 375q-39.1 -13.7 -82.1 -13.7H140.6zm675.8 41l-334 334 334 -334 -334 334h330.1v-89.8L918 822.3q17.5 29.3 46.8 37.1 31.3 7.8 58.6 -9.8 29.3 -17.6 37.1 -46.9 7.9 -31.2 -7.8 -58.6L902.3 492.2q-33.2 -56.7 -85.9 -89.9zM437.5 798.8v62.5 -62.5 62.5q0 27.4 17.6 45t44.9 17.5h250q27.3 0 44.9 -17.5t17.6 -45v-62.5h-375z"/></svg>