<svg height="1000" width="1000" xmlns="http://www.w3.org/2000/svg"><path d="M562.5 -76.2q27.3 0 44.9 17.6Q625 -41 625 -13.7V5.9q0 80 -39.1 148.4 -37.1 68.4 -101.5 111.3v2l111.3 156.2h169.9q46.9 2 74.2 37.1l86 113.3q13.7 21.5 11.7 46.9 -3.9 23.4 -25.4 41 -21.5 13.7 -46.9 11.7 -23.4 -3.9 -41 -25.4L750 548.8H560.5l179.7 279.3q13.7 21.5 7.8 46.9 -3.9 23.4 -27.3 39.1 -21.5 13.6 -46.9 7.8 -23.4 -3.9 -39 -27.4L322.3 410.2q-9.8 27.3 -9.8 56.6v144.5q0 27.4 -17.6 45T250 673.8t-44.9 -17.5 -17.6 -45V466.8q2 -95.7 52.7 -173.8Q293 214.8 382.8 177.7q54.7 -21.4 86 -68.3Q500 64.5 500 5.9v-19.6q0 -27.3 17.6 -44.9t44.9 -17.6zm-343.7 62.5q52.7 2 82 46.9 23.4 46.9 0 93.8 -29.3 44.9 -82 46.8Q166 171.9 136.7 127q-23.4 -46.9 0 -93.8 29.3 -44.9 82.1 -46.9z"/></svg>