<svg height="1000" width="1125" xmlns="http://www.w3.org/2000/svg"><path d="M375 111.3q52.7 -1.9 82 -46.8 23.5 -46.9 0 -93.8 -29.3 -44.9 -82 -46.9 -52.7 2 -82 46.9 -23.5 46.9 0 93.8 29.3 44.9 82 46.8zM115.2 519.5l56.7 -93.7 -56.7 93.7 56.7 -93.7v435.5q0 27.4 17.6 45t44.9 17.5 44.9 -17.5 17.6 -45v-250h31.2v250q0 27.4 17.6 45t44.9 17.5 44.9 -17.5 17.6 -45V382.8l91.8 111.3q17.6 21.5 43 23.5t46.9 -13.7q19.5 -17.6 21.5 -43T642.6 416L498 242.2Q441.4 175.8 353.5 173.8h-70.3q-48.8 0 -91.8 23.5 -43 25.4 -68.4 68.3L9.8 455.1Q-3.9 476.6 2 502q5.8 23.4 29.3 37.1 21.4 13.6 46.8 7.8 23.5 -5.9 37.1 -27.4zM937.5 392.6q-2 -52.8 -46.9 -82.1 -46.8 -23.4 -93.7 0Q752 339.8 750 392.6q2 52.7 46.9 82 46.9 23.4 93.7 0 44.9 -29.3 46.9 -82zm-31.2 203.1v115.2V595.7v115.2l-80.1 -82q-23.5 -21.5 -54.7 -17.6 -31.3 5.9 -46.9 35.2L630.9 834q-9.8 23.4 -2 46.9t31.3 37.1q23.4 9.7 46.8 1.9t37.1 -31.2l54.7 -109.4 107.5 107.4q37.1 37.1 89.8 37.1 54.7 -1.9 91.8 -37.1 35.1 -37.1 37.1 -91.8V595.7q-2 -46.9 -31.2 -78.1 -31.3 -29.3 -78.2 -31.3 -46.8 2 -78.1 31.3 -29.3 31.2 -31.2 78.1zM562.5 17.6q2 29.3 31.3 31.2h109.3q29.3 -1.9 31.3 -31.2 -2 -29.3 -31.3 -31.3H593.8q-29.3 2 -31.3 31.3zm-2 97.6q-25.3 -11.7 -41 13.7 -11.7 27.4 13.7 41l93.8 46.9q27.3 11.7 41 -13.7 11.7 -25.4 -13.7 -41l-93.8 -46.9z"/></svg>