<svg height="1000" width="625" xmlns="http://www.w3.org/2000/svg"><path d="M312.5 -76.2q52.7 2 82 46.9 23.5 46.9 0 93.8 -29.3 44.9 -82 46.8 -52.7 -1.9 -82 -46.8 -23.5 -46.9 0 -93.8 29.3 -44.9 82 -46.9zm-140.6 750h-35.2 35.2 -35.2q-15.6 0 -25.4 -13.6 -7.8 -11.8 -3.9 -27.4l74.2 -224.6 -66.4 111.3Q101.6 541 78.1 546.9q-25.4 5.8 -46.8 -7.8Q7.8 525.4 2 502q-5.9 -25.4 7.8 -46.9L113.3 279.3q31.2 -48.8 80.1 -76.2 48.8 -29.3 107.4 -29.3h23.4q58.6 0 107.4 29.3 48.9 27.4 80.1 76.2l103.5 175.8q13.7 21.5 7.8 46.9 -5.8 23.4 -27.3 37.1 -23.4 13.6 -48.8 7.8Q523.4 541 509.8 519.5L443.4 408.2l74.2 224.6q3.9 15.6 -3.9 27.4 -9.8 13.6 -25.4 13.6h-35.2v187.5q0 27.4 -17.6 45t-44.9 17.5 -44.9 -17.5 -17.6 -45V673.8h-31.2v187.5q0 27.4 -17.6 45t-44.9 17.5 -44.9 -17.5 -17.6 -45V673.8z"/></svg>