<svg height="1000" width="1000" xmlns="http://www.w3.org/2000/svg"><path d="M744.1 17.6q2 -52.8 46.9 -82.1 46.9 -23.4 93.8 0 44.9 29.3 46.8 82.1 -1.9 52.7 -46.8 82 -46.9 23.4 -93.8 0 -44.9 -29.3 -46.9 -82zM5.9 449.2q23.4 -37.1 62.5 -19.5l386.7 199.2 89.8 -134.8L398.4 347.7q-42.9 -45 -37.1 -101.6l212.9 101.6 78.1 76.1q23.5 25.4 25.4 56.7 3.9 33.2 -13.6 62.5l-97.7 144.5 252 130.9q41 19.5 83.9 0l29.3 -15.7q41.1 -13.6 64.5 21.5 13.7 41 -21.5 62.5l-29.3 15.6q-85.9 41.1 -171.9 -1.9L25.4 511.7Q-11.7 488.3 5.9 449.2zM232.4 52.7l35.2 15.7L232.4 52.7l35.2 15.7 17.6 -33.2q15.6 -25.4 41 -13.7 25.4 13.7 13.6 41l-15.6 33.2 107.4 50.8 7.9 -3.9 164 -64.5q50.8 -19.5 97.7 2t66.4 74.2l33.2 99.6 101.5 50.8q23.5 13.7 31.3 37.1t-2 46.9q-13.6 23.4 -37.1 31.2T847.7 416L734.4 359.4q-35.2 -17.6 -46.9 -52.8l-11.7 -35.1L623 294.9l-13.6 5.9 -13.7 -5.9L296.9 152.3l-19.6 35.2q-15.6 25.4 -41 13.7 -25.4 -13.7 -13.6 -41L240.2 125l-35.1 -17.6q-25.4 -13.6 -13.7 -41 13.7 -23.4 41 -13.7z"/></svg>