<svg height="1000" width="1000" xmlns="http://www.w3.org/2000/svg"><path d="M410.2 -70.3q23.4 -9.8 46.8 -2 23.5 7.8 37.1 31.3L543 56.6l82 15.7q58.6 11.7 105.5 48.8l246.1 191.4q19.5 15.6 23.4 41 2 25.4 -13.7 46.9 -15.6 19.5 -41 23.4 -25.4 2 -46.9 -13.6L757.8 300.8l-138.7 62.5 64.5 54.7q33.2 27.3 46.9 70.3 13.6 41 5.8 84l-35.1 146.5q-7.8 29.2 -31.3 41l169.9 64.4q11.8 5.9 27.4 5.9h54.7q42.9 3.9 46.9 46.9 -4 42.9 -46.9 46.8h-54.7q-31.3 0 -62.5 -11.7L117.2 648.4Q84 636.7 56.6 609.4l-42.9 -43q-27.4 -33.2 0 -66.4 33.2 -27.3 66.4 0l42.9 44.9q11.8 11.7 27.4 17.6l44.9 15.6q-3.9 -3.9 -3.9 -9.7 -7.8 -25.4 2 -46.9 11.7 -23.5 37.1 -31.3L375 441.4V337.9q2 -76.2 68.4 -111.3l89.8 -45 -15.6 -3.9Q459 166 429.7 111.3L380.9 13.7q-9.8 -23.5 -2 -46.9t31.3 -37.1zM271.5 607.4L582 726.6 271.5 607.4 582 726.6q-5.8 -17.6 -1.9 -35.2l33.2 -146.5q3.9 -19.5 -9.8 -31.2L500 427.7v35.2q-2 66.4 -64.5 89.8l-164 54.7zM843.8 -76.2q52.7 2 82 46.9 23.4 46.9 0 93.8 -29.3 44.9 -82 46.8Q791 109.4 761.7 64.5q-23.4 -46.9 0 -93.8 29.3 -44.9 82.1 -46.9z"/></svg>