<svg height="1000" width="875" xmlns="http://www.w3.org/2000/svg"><path d="M687.5 17.6q2 -52.8 46.9 -82.1 46.9 -23.4 93.7 0Q873 -35.2 875 17.6q-2 52.7 -46.9 82 -46.8 23.4 -93.7 0 -44.9 -29.3 -46.9 -82zM250 173.8q0 -27.3 17.6 -44.9 17.6 -17.6 44.9 -17.6H623q66.5 3.9 87.9 58.6t-23.4 103.5L543 410.2l117.2 117.1q27.3 27.4 27.3 66.5v142.5q0 27.4 -17.6 45T625 798.8t-44.9 -17.5 -17.6 -45V605.5L410.2 455.1q-39.1 -43 -35.2 -95.7 2 -52.8 44.9 -89.9L459 236.3H312.5q-27.3 0 -44.9 -17.5t-17.6 -45zm-91.8 439.5l169.9 -168 -169.9 168 169.9 -168q13.7 29.3 39.1 52.7l41 43L248 703.1q-19.5 17.6 -44.9 17.6t-44.9 -17.6q-17.6 -19.5 -17.6 -44.9t17.6 -44.9zm630.9 187.5q27.3 7.8 23.4 37.1l-2 3.9q-9.7 37.1 -39 58.6 -29.3 23.4 -66.4 23.4H531.3Q502 921.9 500 892.6q2 -29.3 31.3 -31.3h173.8q35.1 -1.9 44.9 -35.1v-3.9q9.8 -27.4 39.1 -23.5v2zm-525.4 56.6l-11.7 5.9 11.7 -5.9 -11.7 5.9q-33.2 15.6 -66.5 11.7Q152.3 869.1 125 843.8L9.8 726.6q-19.6 -21.5 0 -43 21.5 -19.5 42.9 0l117.2 115.2q23.5 21.5 54.7 9.8l11.7 -5.9q25.4 -11.7 41 13.7 11.8 27.4 -13.6 41z"/></svg>