<svg height="1000" width="1000" xmlns="http://www.w3.org/2000/svg"><path d="M312.5 0q3.9 -41 44.9 -48.8l296.9 -25.4q29.3 1.9 33.2 31.2v60.6q-2 29.3 -31.2 31.2h-295Q316.4 44.9 312.5 0zm35.2 111.3h304.6H347.7h304.6q4 15.7 4 31.3 -2 66.4 -45 111.3 -44.9 43 -111.3 44.9 -66.4 -1.9 -111.3 -44.9Q345.7 209 343.8 142.6q0 -15.6 3.9 -31.3zm445.3 711L687.5 646.5 793 822.3 687.5 646.5V869.1L347.7 382.8q48.8 -21.5 103.5 -21.5h97.6q46.9 0 89.9 15.7L824.2 56.6Q800.8 39.1 812.5 13.7 828.1 -9.8 855.5 2l27.3 15.6 27.4 15.6q23.4 15.6 11.7 43L812.5 263.7l3.9 1.9q21.5 13.7 29.3 37.1 5.9 25.4 -7.8 46.9l-70.3 125q5.8 7.8 9.7 17.6l148.5 251.9q17.6 27.4 9.7 58.6 -7.8 29.3 -37.1 46.9t-58.6 9.8T793 822.3zM625 923.8H375h250H375q-27.3 0 -44.9 -17.5t-17.6 -45V646.5L207 822.3q-17.5 29.3 -46.8 37.1 -31.3 7.8 -58.6 -9.8Q72.3 832 64.5 802.7q-7.9 -31.2 9.7 -58.6L222.7 492.2Q250 445.3 293 414.1l353.5 505.8q-9.8 3.9 -21.5 3.9zm-46.9 -375q43 -3.9 46.9 -46.8 -3.9 -43 -46.9 -46.9Q535.2 459 531.3 502q3.9 42.9 46.8 46.8z"/></svg>