<svg height="1000" width="1125" xmlns="http://www.w3.org/2000/svg"><path d="M218.8 17.6q1.9 -52.8 46.8 -82.1 46.9 -23.4 93.8 0 44.9 29.3 46.9 82.1 -2 52.7 -46.9 82 -46.9 23.4 -93.8 0 -44.9 -29.3 -46.8 -82zm78.1 593.7v250 -250 250q0 27.4 -17.6 45t-44.9 17.5 -44.9 -17.5 -17.6 -45V425.8l-56.7 93.7Q101.6 541 78.1 546.9q-25.4 5.8 -46.8 -7.8Q7.8 525.4 2 502q-5.9 -25.4 7.8 -46.9L123 265.6q25.4 -42.9 68.4 -68.3 43 -23.5 91.8 -23.5h58.6q50.8 0 91.8 23.5 43 25.4 68.4 68.3l87.8 144.6Q543 462.9 519.5 531.3q-5.8 -5.9 -9.7 -13.7l-56.7 -91.8v435.5q0 27.4 -17.6 45t-44.9 17.5 -44.9 -17.5 -17.6 -45v-250h-31.2zm265.6 31.3q0 -76.2 37.1 -140.6 37.1 -64.5 103.5 -103.6 66.4 -37.1 140.7 -37.1t140.6 37.1q66.4 39.1 103.5 103.6t37.1 140.6 -37.1 140.6T984.4 886.7Q918 923.8 843.8 923.8T703.1 886.7q-66.4 -39 -103.5 -103.5T562.5 642.6zm412.1 -84q-21.5 -19.5 -43 0L812.5 675.8l-56.6 -54.7q-21.5 -19.5 -43 0 -19.5 21.5 0 43l78.1 78.1q21.5 19.5 43 0L974.6 601.6q19.5 -21.5 0 -43z"/></svg>