<svg height="1000" width="1125" xmlns="http://www.w3.org/2000/svg"><path d="M517.6 298.8q76.2 0 138.7 39.1v585.9h-375V584L175.8 759.8q-17.6 29.3 -46.9 37.1 -31.2 7.8 -58.6 -9.8Q41 769.5 33.2 740.2 25.4 709 43 681.6L191.4 429.7q37.1 -62.5 95.7 -95.7 60.6 -35.2 132.8 -35.2h97.7zM312.5 80.1q2 -87.9 78.1 -134.8 78.2 -43 156.3 0Q623 -7.8 625 80.1q-2 87.9 -78.1 134.7 -78.1 43 -156.3 0Q314.5 168 312.5 80.1zM875 -76.2q29.3 2 31.3 31.3v226.5q29.2 17.6 31.2 54.7v212.9l31.3 -9.7V330.1q1.9 -29.3 31.2 -31.3h31.3q29.2 2 31.2 31.3v166q-2 21.5 -21.5 29.3l-103.5 33.2v52.7h93.8q29.2 2 31.2 31.3v31.2q-2 29.3 -31.2 31.3h-86l44.9 179.7q3.9 35.1 -29.3 39H843.8q-29.3 -1.9 -31.3 -31.2V705.1h-31.2q-27.4 0 -45 -17.6t-17.5 -44.9V361.3q0 -27.3 17.5 -44.9t45 -17.6v-62.5q1.9 -37.1 31.2 -54.7V-13.7q-29.3 -1.9 -31.2 -31.2 1.9 -29.3 31.2 -31.3H875z"/></svg>