<svg height="1000" width="875" xmlns="http://www.w3.org/2000/svg"><path d="M687.5 48.8q-2 -70.3 -62.5 -107.4 -62.5 -35.2 -125 0 -60.5 37.1 -62.5 107.4 2 70.3 62.5 107.5 62.5 35.1 125 0 60.5 -37.2 62.5 -107.5zM455.1 439.5L500 502l-44.9 -62.5L500 502q19.5 25.3 52.7 31.2 33.2 3.9 58.6 -17.6L783.2 375q25.4 -21.5 29.3 -52.7 2 -31.3 -17.6 -56.7 -21.5 -25.4 -52.7 -29.3 -31.3 -1.9 -56.7 17.6l-109.3 87.9 -50.8 -70.3Q476.6 207 394.5 205.1q-46.8 0 -84 23.4T250 291l-93.7 181.7Q127 531.3 140.6 591.8q13.7 58.6 64.5 99.6l105.4 76.2H140.6q-33.2 0 -54.7 23.4 -23.4 21.5 -23.4 54.7t23.4 54.7q21.5 23.4 54.7 23.4h406.3q54.7 -1.9 74.2 -52.7 13.7 -52.7 -27.3 -87.9l-226.6 -168 87.9 -175.7z"/></svg>