<svg height="1000" width="875" xmlns="http://www.w3.org/2000/svg"><path d="M437.5 -76.2q87.9 2 134.8 78.2 42.9 78.1 0 156.2 -46.9 76.2 -134.8 78.1 -87.9 -1.9 -134.8 -78.1Q259.8 80.1 302.7 2q46.9 -76.2 134.8 -78.2zm416 748.1l-123 154.3 123 -154.3 -123 154.3q-27.4 31.2 -64.5 35.1t-68.3 -19.5q-25.4 -23.4 -33.2 -52.7 -5.9 -31.3 7.8 -60.6h-2Q453.1 709 375 621.1v-72.3q0 -27.3 -17.6 -44.9t-44.9 -17.6 -44.9 17.6T250 548.8v99.6l199.2 97.7q35.2 19.5 46.9 54.7t-5.9 72.2q-19.5 35.2 -54.7 46.9t-70.3 -5.8L52.7 757.8q-1.9 0 -5.8 -1.9Q31.3 746.1 21.5 734.4 7.8 718.8 3.9 699.2 -5.9 662.1 13.7 627q0 -4 3.9 -5.9L148.4 423.8Q187.5 365.2 248 332q62.5 -33.2 132.9 -33.2h148.4q68.4 0 127 31.3 60.5 31.2 101.5 85.9l99.6 138.7q5.9 9.8 9.8 19.5 7.8 19.6 7.8 39.1 -2 33.2 -21.5 58.6zM625 572.3Q623 523.4 582 498q-42.9 -23.4 -85.9 0 -41 25.4 -43 74.3 2 48.8 43 74.2 43 23.4 85.9 0 41 -25.4 43 -74.2z"/></svg>