<svg height="1000" width="1250" xmlns="http://www.w3.org/2000/svg"><path d="M375 111.3q52.7 -1.9 82 -46.8 23.5 -46.9 0 -93.8 -29.3 -44.9 -82 -46.9 -52.7 2 -82 46.9 -23.5 46.9 0 93.8 29.3 44.9 82 46.8zm-15.6 687.5V611.3v187.5V611.3h31.2v187.5h-31.2zm-125 0H62.5h171.9H62.5q-27.3 0 -44.9 17.6T0 861.3t17.6 45 44.9 17.5h1125q27.3 0 44.9 -17.5t17.6 -45 -17.6 -44.9 -44.9 -17.6H515.6v-373l56.7 91.8q13.6 23.4 37.1 29.3 25.4 5.8 48.8 -7.8 21.5 -13.7 27.3 -37.1 5.9 -25.4 -7.8 -48.9L564.5 263.7q-25.4 -41 -68.4 -66.4 -43 -23.5 -91.8 -23.5h-58.6q-50.8 0 -91.8 23.5 -43 25.4 -68.4 66.4L72.3 453.1Q58.6 476.6 64.5 502q5.8 23.4 27.3 37.1 23.4 13.6 48.8 7.8 23.5 -5.9 37.1 -29.3l56.7 -91.8v373zm671.9 -750v474.6V48.8v474.6l-48.9 -50.7q-19.5 -17.6 -44.9 -17.6t-44.9 17.6Q750 492.2 750 517.6t17.6 44.9l156.2 156.3q19.6 17.5 45 17.5t44.9 -17.5l156.2 -156.3q17.6 -19.5 17.6 -44.9t-17.6 -44.9q-19.5 -17.6 -44.9 -17.6t-44.9 17.6l-48.8 50.7V48.8q0 -27.3 -17.6 -44.9t-44.9 -17.6 -45 17.6 -17.5 44.9z"/></svg>