<svg height="1000" width="875" xmlns="http://www.w3.org/2000/svg"><path d="M531.3 17.6q-2 -52.8 -46.9 -82.1 -46.9 -23.4 -93.8 0 -44.9 29.3 -46.8 82.1 1.9 52.7 46.8 82 46.9 23.4 93.8 0 44.9 -29.3 46.9 -82zm-15.7 365.2l91.8 111.3L515.6 382.8l91.8 111.3q17.6 21.5 43 23.5t46.9 -13.7q19.5 -17.6 21.5 -43T705.1 416L560.5 242.2Q503.9 175.8 416 173.8h-70.3q-48.8 0 -91.8 23.5 -43 25.4 -68.4 68.3L72.3 455.1Q58.6 476.6 64.5 502q5.8 23.4 29.3 37.1 21.4 13.6 46.8 7.8 23.5 -5.9 37.1 -27.4l56.7 -93.7v435.5q0 27.4 17.6 45t44.9 17.5 44.9 -17.5 17.6 -45v-250h31.2v250q0 27.4 17.6 45t44.9 17.5T498 906.3t17.6 -45V382.8zm171.9 275.4q2 -13.7 15.6 -15.6 13.7 1.9 15.7 15.6V877q3.9 42.9 46.8 46.8 43 -3.9 46.9 -46.8V658.2q-2 -46.9 -31.2 -78.1Q750 550.8 703.1 548.8q-46.8 2 -78.1 31.3 -29.3 31.2 -31.2 78.1v15.6q3.9 43 46.8 46.9 43 -3.9 46.9 -46.9v-15.6z"/></svg>