<svg height="1000" width="1125" xmlns="http://www.w3.org/2000/svg"><path d="M562.5 267.6q97.7 -3.9 148.4 -86 46.9 -85.9 0 -171.8 -50.7 -82.1 -148.4 -86 -97.7 3.9 -148.4 86 -46.9 85.9 0 171.8 50.7 82.1 148.4 86zM154.3 652.3q21.5 -19.5 70.3 -46.8 48.8 -27.4 119.2 -50.8v212.9h437.5V554.7q70.3 23.4 119.1 50.8t70.3 46.8q31.3 23.5 68.4 21.5 37.1 -3.9 64.4 -33.2 25.4 -31.2 21.5 -68.3t-33.2 -64.5q-35.2 -31.2 -103.5 -68.3 -27.4 44.9 -82 46.8Q867.2 484.4 839.8 459q-25.3 -27.4 -27.3 -66.4 0 -11.7 3.9 -23.5Q701.2 332 562.5 330.1 384.8 334 250 388.7v3.9q-2 39 -27.3 66.4 -27.4 25.4 -66.4 27.3 -35.2 0 -60.6 -21.5 -39.1 23.5 -62.5 43Q3.9 535.2 0 572.3q-2 37.1 21.5 68.3 27.3 29.3 64.4 33.2 37.1 2 68.4 -21.5zM46.9 830.1Q3.9 834 0 877q3.9 42.9 46.9 46.8h1031.2q43 -3.9 46.9 -46.8 -3.9 -43 -46.9 -46.9H46.9zM437.5 470.7q3.9 -43 46.9 -46.9 42.9 3.9 46.9 46.9 -4 43 -46.9 46.9 -43 -3.9 -46.9 -46.9zm203.1 109.4q43 3.9 46.9 46.9 -3.9 42.9 -46.9 46.8Q597.7 669.9 593.8 627q3.9 -43 46.8 -46.9zM187.5 392.6q-2 -29.3 -31.2 -31.3 -29.3 2 -31.3 31.3 2 29.3 31.3 31.2 29.2 -1.9 31.2 -31.2zm718.8 31.2q29.2 -1.9 31.2 -31.2 -2 -29.3 -31.2 -31.3 -29.3 2 -31.3 31.3 2 29.3 31.3 31.2z"/></svg>