<svg height="1000" width="1000" xmlns="http://www.w3.org/2000/svg"><path d="M343.8 111.3q52.7 -1.9 82 -46.8 23.4 -46.9 0 -93.8 -29.3 -44.9 -82 -46.9 -52.8 2 -82.1 46.9 -23.4 46.9 0 93.8 29.3 44.9 82.1 46.8zm-15.7 62.5q-54.7 0 -99.6 27.4 -44.9 27.3 -68.3 76.1L68.4 459q-9.8 23.4 -2 46.9T97.7 543q23.4 9.7 46.8 1.9t37.1 -31.2L250 377v83.9q0 50.8 37.1 87.9l150.4 150.4v162.1q0 27.4 17.6 45t44.9 17.5 44.9 -17.5 17.6 -45V687.5q0 -39.1 -27.3 -66.4l-97.7 -97.7V339.8l136.7 183.6q17.6 21.5 41 25.4 25.4 2 46.9 -11.7 21.5 -17.6 25.4 -41 2 -25.4 -11.7 -46.9L525.4 248Q466.8 175.8 375 173.8h-46.9zM250 601.6l-60.5 244.1L250 601.6l-60.5 244.1q-5.9 25.4 7.8 46.9 11.7 21.5 37.1 29.3 27.3 5.8 48.8 -7.8 19.5 -11.8 27.3 -37.1l43 -171.9L250 601.6zm630.9 308.6q17.5 21.4 42.9 7.8 21.5 -17.6 7.8 -43L701.2 541q-7.8 11.7 -19.6 19.5 -15.6 11.8 -31.2 15.7l230.5 334z"/></svg>