<svg height="1000" width="750" xmlns="http://www.w3.org/2000/svg"><path d="M125 -13.7q-27.3 0 -44.9 17.6Q62.5 21.5 62.5 48.8v187.5q-27.3 0 -44.9 17.6T0 298.8t17.6 45 44.9 17.5v437.5q0 27.4 17.6 45t44.9 17.5 44.9 -17.5 17.6 -45V611.3H375q115.2 -1.9 199.2 -72.2 84 -68.4 107.4 -177.8h5.9q27.3 0 44.9 -17.5t17.6 -45 -17.6 -44.9 -44.9 -17.6h-5.9Q658.2 127 574.2 58.6 490.2 -11.7 375 -13.7H125zm427.7 250H187.5h365.2H187.5v-125H375q62.5 2 109.4 35.2 46.9 35.1 68.3 89.8zm-365.2 125h365.2H187.5h365.2q-21.4 54.7 -68.3 89.9Q437.5 484.4 375 486.3H187.5v-125z"/></svg>