<svg height="1000" width="750" xmlns="http://www.w3.org/2000/svg"><path d="M125 -13.7q-27.3 0 -44.9 17.6Q62.5 21.5 62.5 48.8v125q-27.3 0 -44.9 17.6T0 236.3t17.6 45 44.9 17.5v62.5q-27.3 0 -44.9 17.6T0 423.8t17.6 45 44.9 17.5v312.5q0 27.4 17.6 45t44.9 17.5 44.9 -17.5 17.6 -45v-125h156.3q101.5 -1.9 181.6 -52.7t125 -134.8h37.1q27.3 0 44.9 -17.5t17.6 -45 -17.6 -44.9 -44.9 -17.6h-2q2 -15.6 2 -31.2t-2 -31.3h2q27.3 0 44.9 -17.5t17.6 -45 -17.6 -44.9 -44.9 -17.6h-37.1q-44.9 -84 -125 -134.7T343.8 -13.7H125zm371.1 187.5H187.5h308.6H187.5v-62.5h156.3q91.7 2 152.3 62.5zm-308.6 125h373 -373 373q2 15.7 2 31.3t-2 31.2h-373v-62.5zm308.6 187.5q-60.6 60.6 -152.3 62.5H187.5v-62.5h308.6z"/></svg>