<svg height="1000" width="1000" xmlns="http://www.w3.org/2000/svg"><path d="M546.9 -76.2q126.9 2 228.5 62.5Q877 46.9 937.5 148.4 998 250 1000 377q-3.9 42.9 -46.9 46.8Q910.2 419.9 906.3 377q-4 -152.4 -105.5 -254T546.9 17.6q-43 -3.9 -46.9 -46.9 3.9 -43 46.9 -46.9zm15.6 375q27.3 0 44.9 17.6Q625 334 625 361.3t-17.6 45 -44.9 17.5 -44.9 -17.5 -17.6 -45 17.6 -44.9 44.9 -17.6zM500 158.2q3.9 -43 46.9 -46.9 113.3 2 187.5 78.2 76.1 74.2 78.1 187.5 -3.9 42.9 -46.9 46.8Q722.7 419.9 718.8 377q-2 -72.3 -50.8 -121.1T546.9 205.1q-43 -3.9 -46.9 -46.9zM230.5 -74.2q27.3 -5.9 54.7 5.8 25.3 11.8 37.1 41.1l78.1 187.5Q418 212.9 377 250l-95.7 78.1q48.8 103.5 128.9 185.6 82 80.1 185.5 128.9l78.1 -95.7q37.1 -41 89.9 -23.5l187.5 78.2q27.3 11.7 41 37.1 11.7 27.3 5.8 56.6l-46.8 171.9q-19.6 52.7 -76.2 56.6Q630.9 921.9 433.6 804.7T119.1 490.2 0 48.8Q3.9 -7.8 58.6 -27.3l171.9 -46.9z"/></svg>