<svg height="1000" width="1250" xmlns="http://www.w3.org/2000/svg"><path d="M447.3 -27.3q-11.8 -29.3 -37.1 -41.1 -27.4 -11.7 -54.7 -5.8l-171.9 46.9Q128.9 -7.8 125 48.8q0 158.2 52.7 298.9 50.8 140.6 144.6 253.9L17.6 839.8q-31.3 29.3 -7.8 66.5 29.3 31.2 66.4 7.8L1232.4 7.8q31.3 -29.3 7.8 -66.4 -29.3 -31.2 -66.4 -7.8L494.1 466.8Q441.4 404.3 406.3 328.1L502 250q41 -37.1 23.4 -89.8L447.3 -27.3zm189.4 623L457 736.3 636.7 595.7 457 736.3Q570.3 824.2 707 873q138.7 50.8 293 50.8 56.6 -3.9 76.2 -56.6L1123 695.3q5.9 -29.3 -5.8 -56.6 -11.7 -25.4 -41 -37.1L888.7 523.4q-52.8 -17.5 -89.9 23.5l-78.1 95.7q-44.9 -21.5 -84 -46.9z"/></svg>