<svg height="1000" width="1250" xmlns="http://www.w3.org/2000/svg"><path d="M500 -76.2h625H500h625q52.7 2 87.9 37.1t37.1 87.9v437.5q-2 52.8 -37.1 87.9t-87.9 37.1H500q-52.7 -1.9 -87.9 -37.1T375 486.3V48.8q2 -52.7 37.1 -87.9T500 -76.2zm429.7 209Q916 111.3 890.6 111.3t-39 21.5L742.2 296.9l-33.2 -43q-15.6 -17.6 -37.1 -17.6t-37.1 17.6l-125 156.3q-17.6 23.4 -5.9 48.8 13.7 25.4 43 27.3h531.2q27.4 0 41 -25.4 11.8 -23.4 -1.9 -46.8L929.7 132.8zM656.3 111.3q0 -27.3 -17.6 -44.9Q621.1 48.8 593.8 48.8t-45 17.6 -17.5 44.9 17.5 45 45 17.5 44.9 -17.5 17.6 -45zM125 173.8h187.5H125h187.5v562.5q0 27.4 17.6 45t44.9 17.5h250q27.3 0 44.9 -17.5t17.6 -45v-62.5H1000v125q-2 52.8 -37.1 87.9T875 923.8H125Q72.3 921.9 37.1 886.7T0 798.8v-500q2 -52.7 37.1 -87.9T125 173.8zm15.6 125q-29.3 2 -31.2 31.3v31.2q1.9 29.3 31.2 31.3h31.3q29.3 -2 31.2 -31.3v-31.2q-1.9 -29.3 -31.2 -31.3h-31.3zm0 203.2q-29.3 1.9 -31.2 31.2v31.3q1.9 29.3 31.2 31.2h31.3q29.3 -1.9 31.2 -31.2v-31.3Q201.2 503.9 171.9 502h-31.3zm0 203.1q-29.3 1.9 -31.2 31.2v31.3q1.9 29.3 31.2 31.2h31.3q29.3 -1.9 31.2 -31.2v-31.3Q201.2 707 171.9 705.1h-31.3zm656.3 31.2v31.3 -31.3 31.3q1.9 29.3 31.2 31.2h31.3q29.3 -1.9 31.2 -31.2v-31.3Q888.7 707 859.4 705.1h-31.3q-29.3 1.9 -31.2 31.2z"/></svg>