<svg height="1000" width="1125" xmlns="http://www.w3.org/2000/svg"><path d="M781.3 111.3v2 -2 2q-15.7 -2 -31.3 -2H500q-48.8 0 -93.7 11.7v-11.7q1.9 -80 54.6 -132.8t132.9 -54.7q80 2 132.8 54.7t54.7 132.8zM750 173.8h19.5q13.7 2 25.4 3.9 54.7 -64.4 142.6 -66.4h23.4q33.2 3.9 29.3 39.1l-27.3 107.4q46.9 44.9 74.2 103.5h25.4q27.3 0 44.9 17.6t17.6 44.9v187.5q0 27.4 -17.6 45t-44.9 17.5H1000q-27.3 35.2 -62.5 62.5v125q0 27.4 -17.6 45T875 923.8h-62.5q-27.3 0 -44.9 -17.5t-17.6 -45v-62.5H500v62.5q0 27.4 -17.6 45t-44.9 17.5H375q-27.3 0 -44.9 -17.5t-17.6 -45v-125Q207 656.3 189.5 517.6h-56.7q-56.6 -2 -93.7 -39.1T0 384.8Q2 328.1 39.1 291t93.7 -39h7.8q43 3.9 46.9 46.8 -3.9 43 -46.9 46.9h-7.8q-35.1 3.9 -39 39.1 3.9 35.1 39 39h60.6q19.5 -87.9 80 -152.3t148.5 -87.9q37.1 -9.8 78.1 -9.8h250zm125 265.7q-3.9 -43 -46.9 -46.9 -42.9 3.9 -46.8 46.9 3.9 42.9 46.8 46.8 43 -3.9 46.9 -46.8z"/></svg>