<svg height="1000" width="1125" xmlns="http://www.w3.org/2000/svg"><path d="M218.8 111.3q-39.1 2 -66.5 27.4Q127 166 125 205.1v218.7h187.5V205.1q-2 -39.1 -27.3 -66.4 -27.4 -25.4 -66.4 -27.4zM0 205.1Q2 111.3 64.5 50.8 125 -11.7 218.8 -13.7q93.7 2 154.2 64.5 62.5 60.5 64.5 154.3v437.5q-2 93.7 -64.5 154.3 -60.5 62.5 -154.2 64.4Q125 859.4 64.5 796.9 2 736.3 0 642.6V205.1zm1084 498q-11.7 19.6 -31.3 19.6 -19.5 1.9 -35.1 -11.8L652.3 343.8q-15.6 -15.7 -13.6 -35.2 0 -19.5 19.5 -31.3 68.4 -39 154.3 -41 132.8 3.9 220.7 91.8t91.8 220.7q-2 86 -41 154.3zM966.8 820.3q-68.4 39.1 -154.3 41Q679.7 857.4 591.8 769.5T500 548.8q2 -85.9 41 -154.3Q552.7 375 572.3 375q19.5 -2 35.1 13.7l367.2 365.2q13.7 15.6 11.7 35.2 0 19.5 -19.5 31.2z"/></svg>