<svg height="1000" width="1000" xmlns="http://www.w3.org/2000/svg"><path d="M332 -74.2q-35.1 -2 -60.5 17.6Q248 -37.1 238.3 -5.9l-23.5 86h4Q392.6 82 533.2 166q142.6 82 224.6 224.6 84 140.7 86 314.5v3.9l85.9 -23.5q31.2 -9.7 50.8 -33.2Q1000 627 998 591.8 984.4 412.1 894.5 265.6 802.7 121.1 658.2 29.3 511.7 -60.5 332 -74.2zm449.3 798.8v-19.5q-2 -156.3 -76.2 -283.2Q628.9 294.9 502 218.8 375 144.5 218.8 142.6h-19.6L2 884.8q-5.9 17.5 7.8 29.3 11.7 11.7 29.3 7.8L781.3 724.6zM343.8 330.1q27.3 0 44.9 17.6 17.6 17.5 17.6 44.9t-17.6 44.9 -44.9 17.6 -45 -17.6 -17.5 -44.9 17.5 -44.9 45 -17.6zm125 250q0 -27.4 17.5 -44.9 17.6 -17.6 45 -17.6t44.9 17.6 17.6 44.9T576.2 625t-44.9 17.6 -45 -17.6 -17.5 -44.9zm-281.3 93.7q0 -27.3 17.6 -44.9 17.6 -17.6 44.9 -17.6t44.9 17.6 17.6 44.9 -17.6 45T250 736.3t-44.9 -17.5 -17.6 -45z"/></svg>