<svg height="1000" width="1250" xmlns="http://www.w3.org/2000/svg"><path d="M437.5 136.7v212.9V136.7v212.9l-80.1 46.9q-42.9 27.3 -44.9 80.1v447.2H500V736.3q2 -52.7 37.1 -87.9T625 611.3q52.7 2 87.9 37.1t37.1 87.9v187.5h187.5V476.6q-2 -52.8 -44.9 -80.1l-80.1 -46.9V136.7q0 -25.4 -17.6 -42.9L646.5 -54.7q-21.5 -17.6 -43 0L455.1 93.8q-17.6 17.5 -17.6 42.9zM48.8 568.4Q2 597.7 0 650.4v179.7q2 39 27.3 66.4 27.4 25.4 66.5 27.3H250V459L48.8 568.4zm1107.5 355.4q39 -1.9 66.4 -27.3 25.3 -27.4 27.3 -66.4V650.4q-2 -52.7 -48.8 -82L1000 459v464.8h156.3z"/></svg>