<svg height="1000" width="1250" xmlns="http://www.w3.org/2000/svg"><path d="M500 -76.2q-52.7 5.9 -87.9 66.4Q377 50.8 375 107.4v164.1L15.6 476.6Q0 486.3 0 503.9v128.9q5.9 35.2 39.1 29.3L375 566.4v138.7l-113.3 84Q250 798.8 250 814.5v82q2 25.4 27.3 27.3h7.9L500 861.3l214.8 62.5h7.9q19.5 -1.9 25.3 -17.5Q691.4 857.4 658.2 791 625 722.7 625 642.6q0 -89.9 41 -164.1 41 -72.2 109.4 -121.1L625 271.5V107.4Q623 50.8 589.8 -9.8 554.7 -70.3 500 -76.2zm750 718.8q0 -76.2 -37.1 -140.6 -37.1 -64.5 -103.5 -103.6Q1043 361.3 968.8 361.3t-140.7 37.1Q761.7 437.5 724.6 502t-37.1 140.6 37.1 140.6 103.5 103.5q66.4 37.1 140.7 37.1t140.6 -37.1q66.4 -39 103.5 -103.5T1250 642.6zm-150.4 -84q19.5 21.5 0 43L959 742.2q-21.5 19.5 -43 0l-78.1 -78.1q-19.5 -21.5 0 -43 21.5 -19.5 43 0l56.6 54.7 119.1 -117.2q21.5 -19.5 43 0z"/></svg>