<svg height="1000" width="1000" xmlns="http://www.w3.org/2000/svg"><path d="M375 107.4q2 -56.6 37.1 -117.2 35.2 -60.5 87.9 -66.4 54.7 5.9 89.8 66.4Q623 50.8 625 107.4v128.9l347.7 232.5q27.3 17.5 27.3 50.7v111.4q0 15.6 -13.7 25.4 -11.7 7.8 -27.3 3.9L625 548.8v156.3l113.3 84q11.7 9.7 11.7 25.4v82q-2 25.4 -27.3 27.3h-7.9L500 861.3l-214.8 62.5h-7.9Q252 921.9 250 896.5v-82q0 -15.7 11.7 -25.4l113.3 -84V548.8L41 660.2q-15.6 3.9 -27.3 -3.9Q0 646.5 0 630.9V519.5q0 -33.2 27.3 -52.7L375 236.3V107.4z"/></svg>