<svg height="1000" width="1250" xmlns="http://www.w3.org/2000/svg"><path d="M1003.9 298.8q56.6 2 117.2 37.1 60.5 35.2 66.4 87.9 -5.9 54.7 -66.4 89.9 -60.6 33.2 -117.2 35.1H861.3l371.1 291q31.3 29.3 7.8 66.5 -29.3 31.2 -66.4 7.8L17.6 7.8Q-13.7 -21.5 9.8 -58.6q29.3 -31.2 66.4 -7.8l388.6 304.7L386.7 -37.1q-5.8 -33.2 29.3 -39.1h109.4q37.1 2 54.7 31.3l197.2 343.7h226.6zM82 175.8l627 494.1L82 175.8l627 494.1L580.1 892.6q-17.6 29.3 -54.7 31.2H416q-35.1 -5.8 -29.3 -39l95.7 -336H281.3l-84 113.3q-9.8 11.7 -25.4 11.7H89.8Q64.5 671.9 62.5 646.5q0 -3.9 2 -7.8L125 423.8 64.5 209q-2 -3.9 -2 -7.8 2 -19.6 19.5 -25.4z"/></svg>