<svg height="1000" width="1250" xmlns="http://www.w3.org/2000/svg"><path d="M744.1 148.4L363.3 5.9l380.8 142.5L363.3 5.9q-50.8 -19.6 -99.6 5.8l-89.9 43Q158.2 64.5 156.3 82q0 17.6 15.6 27.4L459 294.9l-193.4 97.7L152.3 341.8q-27.3 -11.7 -52.7 2L35.2 375q-27.4 19.5 -9.8 48.8l142.6 166q19.5 21.5 48.8 21.5h267.6q15.6 0 29.3 -5.8l533.2 -267.6q138.6 -72.3 195.3 -218.8 13.7 -39 -7.8 -68.3 -21.5 -31.3 -62.5 -33.2h-111.4q-60.5 0 -113.2 27.3L744.1 148.4zM0 861.3q0 27.4 17.6 45 17.6 17.5 44.9 17.5h1125q27.3 0 44.9 -17.5t17.6 -45 -17.6 -44.9 -44.9 -17.6H62.5q-27.3 0 -44.9 17.6T0 861.3z"/></svg>