<svg height="1000" width="1250" xmlns="http://www.w3.org/2000/svg"><path d="M500 -76.2q-52.7 5.9 -87.9 66.4Q377 50.8 375 107.4v164.1L15.6 476.6Q0 486.3 0 503.9v128.9q5.9 35.2 39.1 29.3L375 566.4v138.7l-113.3 84Q250 798.8 250 814.5v82q2 25.4 27.3 27.3h7.9L500 861.3l214.8 62.5h7.9q19.5 -1.9 25.3 -17.5Q691.4 857.4 658.2 791 625 722.7 625 642.6q0 -89.9 41 -164.1 41 -72.2 109.4 -121.1L625 271.5V107.4Q623 50.8 589.8 -9.8 554.7 -70.3 500 -76.2zm468.8 1000q76.1 0 140.6 -37.1 64.4 -37.1 103.5 -103.5Q1250 716.8 1250 642.6T1212.9 502q-39.1 -66.5 -103.5 -103.6T968.8 361.3t-140.7 37.1T724.6 502q-37.1 66.4 -37.1 140.6t37.1 140.6q39.1 66.4 103.5 103.5t140.7 37.1zm0 -187.5q42.9 3.9 46.8 46.9 -3.9 43 -46.8 46.9 -43 -3.9 -46.9 -46.9 3.9 -43 46.9 -46.9zm0 -281.2q29.2 1.9 31.2 31.2v156.3q-2 29.3 -31.2 31.2 -29.3 -1.9 -31.3 -31.2V486.3q2 -29.3 31.3 -31.2z"/></svg>