<svg height="1000" width="1250" xmlns="http://www.w3.org/2000/svg"><path d="M0 250V56.6 250 56.6Q3.9 23.4 39.1 25.4L107.4 41q33.2 7.8 44.9 39.1l35.2 93.7 248 74.2 -80 -285.1q-5.9 -33.2 29.3 -39.1h78.1q37.1 2 54.7 31.3L730.5 334l209 62.5q46.8 13.7 85.9 44.9l68.4 52.7q33.2 31.3 27.3 72.3 -5.9 43 -48.8 60.6 -125 46.8 -252 13.6l-582 -150.4Q205.1 480.5 179.7 457L19.5 293Q0 275.4 0 250zm62.5 548.8h1125H62.5h1125q27.3 0 44.9 17.6t17.6 44.9 -17.6 45 -44.9 17.5H62.5q-27.3 0 -44.9 -17.5T0 861.3t17.6 -44.9 44.9 -17.6zM250 642.6q0 -27.4 17.6 -44.9 17.6 -17.6 44.9 -17.6t44.9 17.6 17.6 44.9 -17.6 44.9 -44.9 17.6 -44.9 -17.6T250 642.6zm250 -31.3q27.3 0 44.9 17.6 17.6 17.6 17.6 44.9t-17.6 45T500 736.3t-44.9 -17.5 -17.6 -45 17.6 -44.9T500 611.3z"/></svg>