<svg height="1000" width="1250" xmlns="http://www.w3.org/2000/svg"><path d="M375 107.4q2 -56.6 37.1 -117.2 35.2 -60.5 87.9 -66.4 54.7 5.9 89.8 66.4Q623 50.8 625 107.4v164.1l199.2 113.3q-11.7 33.2 -11.7 70.3v48.8q-54.7 33.2 -62.5 99.6L625 566.4v138.7l113.3 84q11.7 9.7 11.7 25.4v82q-2 25.4 -27.3 27.3h-7.9L500 861.3l-214.8 62.5h-7.9Q252 921.9 250 896.5v-82q0 -15.7 11.7 -25.4l113.3 -84V566.4L39.1 662.1Q5.9 668 0 632.8V503.9q0 -17.6 15.6 -27.3L375 271.5V107.4zm656.3 285.2q-27.4 0 -45 17.6 -17.5 17.5 -17.5 44.9v93.7h125v-93.7q0 -27.4 -17.6 -44.9t-44.9 -17.6zM875 455.1q2 -66.4 44.9 -111.3 44.9 -43 111.4 -45 66.4 2 111.3 45 42.9 44.9 44.9 111.3v93.7q27.3 0 44.9 17.6t17.6 44.9v250q0 27.4 -17.6 45t-44.9 17.5H875q-27.3 0 -44.9 -17.5t-17.6 -45v-250q0 -27.3 17.6 -44.9T875 548.8v-93.7z"/></svg>