<svg height="1000" width="1000" xmlns="http://www.w3.org/2000/svg"><path d="M562.5 158.2q2 -46.9 31.3 -78.1Q625 50.8 671.9 48.8q46.9 2 78.1 31.3 29.3 31.2 31.3 78.1v25.4q-89.9 31.2 -93.8 136.7 0 43 35.2 103.5 33.2 58.6 93.7 115.3 11.7 9.7 27.4 9.7t27.3 -9.7q60.5 -56.7 93.7 -115.3Q1000 363.3 1000 320.3 996.1 214.8 906.3 183.6v-25.4q-2 -99.6 -68.4 -166t-166 -68.4q-99.6 2 -166 68.4t-68.4 166v43Q388.7 173.8 328.1 173.8q-99.6 2 -166 68.4t-68.3 166v25.4Q3.9 464.8 0 570.3q0 43 35.2 103.5 33.2 58.6 93.7 115.3 11.7 9.7 27.4 9.7t27.3 -9.7q60.5 -56.7 93.7 -115.3 35.2 -60.5 35.2 -103.5Q308.6 464.8 218.8 433.6v-25.4q1.9 -46.9 31.2 -78.1 31.3 -29.3 78.1 -31.3 46.9 2 78.2 31.3 29.2 31.2 31.2 78.1v453.1q0 27.4 17.6 45t44.9 17.5 44.9 -17.5 17.6 -45V158.2z"/></svg>