<svg height="1000" width="750" xmlns="http://www.w3.org/2000/svg"><path d="M187.5 -76.2q-27.3 0 -44.9 17.6Q125 -41 125 -13.7v187.5h125V-13.7q0 -27.3 -17.6 -44.9t-44.9 -17.6zm375 0q-27.3 0 -44.9 17.6Q500 -41 500 -13.7v187.5h125V-13.7q0 -27.3 -17.6 -44.9t-44.9 -17.6zm-500 312.5q-27.3 0 -44.9 17.6Q0 271.5 0 298.8t17.6 45 44.9 17.5v62.5q2 115.3 72.3 199.2 68.3 84 177.7 107.5v130.8q0 27.4 17.6 45t44.9 17.5 44.9 -17.5 17.6 -45V730.5Q546.9 707 615.2 623q70.3 -83.9 72.3 -199.2v-62.5q27.3 0 44.9 -17.5t17.6 -45 -17.6 -44.9 -44.9 -17.6h-625z"/></svg>