<svg height="1000" width="1125" xmlns="http://www.w3.org/2000/svg"><path d="M187.5 -76.2q-27.3 0 -44.9 17.6Q125 -41 125 -13.7v187.5h125V-13.7q0 -27.3 -17.6 -44.9t-44.9 -17.6zm375 0q-27.3 0 -44.9 17.6Q500 -41 500 -13.7v187.5h125V-13.7q0 -27.3 -17.6 -44.9t-44.9 -17.6zm-500 312.5q-27.3 0 -44.9 17.6Q0 271.5 0 298.8t17.6 45 44.9 17.5v62.5q2 115.3 72.3 199.2 68.3 84 177.7 107.5v130.8q0 27.4 17.6 45t44.9 17.5 44.9 -17.5 17.6 -45V730.5q37.1 -7.8 68.4 -23.5Q500 675.8 500 642.6q2 -119.2 70.3 -209Q638.7 345.7 748 312.5q2 -7.8 2 -13.7 0 -27.3 -17.6 -44.9t-44.9 -17.6h-625zm781.3 687.5q76.1 0 140.6 -37.1 64.4 -37.1 103.5 -103.5Q1125 716.8 1125 642.6T1087.9 502Q1048.8 435.5 984.4 398.4T843.8 361.3t-140.7 37.1T599.6 502q-37.1 66.4 -37.1 140.6t37.1 140.6q39.1 66.4 103.5 103.5t140.7 37.1zm0 -187.5q42.9 3.9 46.8 46.9 -3.9 43 -46.8 46.9 -43 -3.9 -46.9 -46.9 3.9 -43 46.9 -46.9zm0 -281.2Q873 457 875 486.3v156.3q-2 29.3 -31.2 31.2 -29.3 -1.9 -31.3 -31.2V486.3q2 -29.3 31.3 -31.2z"/></svg>