<svg height="1000" width="1125" xmlns="http://www.w3.org/2000/svg"><path d="M187.5 -76.2q-27.3 0 -44.9 17.6Q125 -41 125 -13.7v187.5h125V-13.7q0 -27.3 -17.6 -44.9t-44.9 -17.6zm375 0q-27.3 0 -44.9 17.6Q500 -41 500 -13.7v187.5h125V-13.7q0 -27.3 -17.6 -44.9t-44.9 -17.6zm-500 312.5q-27.3 0 -44.9 17.6Q0 271.5 0 298.8t17.6 45 44.9 17.5v62.5q2 115.3 72.3 199.2 68.3 84 177.7 107.5v130.8q0 27.4 17.6 45t44.9 17.5 44.9 -17.5 17.6 -45V730.5q37.1 -7.8 68.4 -23.5Q500 675.8 500 642.6q2 -119.2 70.3 -209Q638.7 345.7 748 312.5q2 -7.8 2 -13.7 0 -27.3 -17.6 -44.9t-44.9 -17.6h-625zM1125 642.6q0 -76.2 -37.1 -140.6Q1050.8 437.5 984.4 398.4 918 361.3 843.8 361.3t-140.7 37.1Q636.7 437.5 599.6 502t-37.1 140.6 37.1 140.6 103.5 103.5q66.4 37.1 140.7 37.1t140.6 -37.1q66.4 -39 103.5 -103.5T1125 642.6zm-125 0q-2 29.3 -31.2 31.2h-250q-29.3 -1.9 -31.3 -31.2 2 -29.3 31.3 -31.3h250q29.2 2 31.2 31.3z"/></svg>