<svg height="1000" width="875" xmlns="http://www.w3.org/2000/svg"><path d="M623 650.4q72.3 -46.9 115.3 -121.1 43 -76.2 43 -168 -4 -146.5 -101.6 -242.2Q584 21.5 437.5 17.6 291 21.5 195.3 119.1 97.7 214.8 93.8 361.3q0 91.8 42.9 168 43 74.2 115.3 121.1 3.9 52.7 13.6 111.3v2Q146.5 710.9 74.2 605.5 2 498 0 361.3q2 -123 60.5 -220.7Q117.2 41 216.8 -15.6q97.7 -58.6 220.7 -60.6 123 2 220.7 60.6Q757.8 41 814.5 140.6 873 238.3 875 361.3 873 498 800.8 605.5 728.5 710.9 609.4 763.7v-2q9.7 -58.6 13.6 -111.3zm-3.9 -74.2q-3.9 -17.6 -13.6 -31.3 -17.6 -29.3 -43 -44.9Q623 447.3 625 361.3q-2 -80 -54.7 -132.8T437.5 173.8q-80.1 2 -132.8 54.7T250 361.3q2 86 62.5 138.7 -25.4 15.6 -43 44.9 -9.7 13.7 -13.6 31.3Q160.2 494.1 156.3 361.3q3.9 -119.1 82 -199.2Q318.4 84 437.5 80.1q119.1 3.9 199.2 82 78.1 80.1 82.1 199.2 -4 132.8 -99.7 214.9zm-181.6 -43q50.8 -1.9 85.9 17.6 37.1 17.6 39.1 68.3 -2 52.8 -13.7 132.9 -13.6 80 -27.3 126.9 -7.8 27.4 -31.3 37.1 -23.4 7.8 -52.7 7.8T384.8 916q-23.5 -9.7 -31.3 -37.1Q339.8 832 326.2 752 314.5 671.9 312.5 619.1q2 -50.7 39.1 -68.3 35.1 -17.6 85.9 -17.6zm0 -281.2q62.5 1.9 93.8 54.6 31.2 54.7 0 109.4 -31.3 52.8 -93.8 54.7Q375 468.8 343.8 416q-31.3 -54.7 0 -109.4Q375 253.9 437.5 252z"/></svg>