<svg height="1000" width="875" xmlns="http://www.w3.org/2000/svg"><path d="M462.9 -76.2q-17.6 -1.9 -29.3 11.7 -9.8 13.7 -3.9 29.3 7.8 25.4 7.8 50.8 -2 64.5 -43 93.8 -41 33.2 -113.2 33.2H250q-52.7 1.9 -87.9 37.1T125 267.6q0 35.1 17.6 64.4Q80.1 343.8 41 390.6T0 502q2 60.5 37.1 105.4t91.8 60.6q-13.7 -58.6 31.3 -97.7l312.5 -250q27.3 -21.5 58.6 -21.5 33.2 0 58.5 21.5T623 373q5.9 31.3 -7.8 62.5l-56.6 113.3h35.2q64.4 3.9 87.8 62.5 11.8 31.3 0 62.5h21.5q72.3 -1.9 121.1 -50.8T875 502q-2 -64.5 -41 -111.4T732.4 332Q750 302.7 750 267.6q-2 -52.8 -37.1 -87.9T625 142.6h-2q2 -15.6 2 -33.2Q623 37.1 578.1 -13.7T462.9 -76.2zm87.9 445.3q-19.5 -13.6 -39.1 -1.9L199.2 619.1q-15.6 13.7 -9.7 33.2 7.8 19.6 29.3 21.5h136.7L253.9 878.9q-9.8 21.5 7.8 37.1 19.6 13.7 39.1 2L613.3 668q15.6 -15.7 9.7 -35.2 -7.8 -19.5 -29.2 -21.5H457l101.6 -205q9.8 -21.5 -7.8 -37.2z"/></svg>