<svg height="1000" width="1000" xmlns="http://www.w3.org/2000/svg"><path d="M525.4 -74.2q-17.6 -2 -29.3 11.7 -9.8 13.7 -3.9 29.3 7.8 23.4 7.8 50.8Q498 84 455.1 128.9q-44.9 43 -111.3 44.9h-31.3q-52.7 2 -87.9 37.1t-37.1 87.9q2 58.6 43 93.8h-27.4q-60.5 1.9 -99.6 41t-41 99.6q2 70.3 54.7 111.3 -50.8 9.8 -84 46.9Q2 730.5 0 783.2q2 60.6 41 99.6t99.6 41h718.8q60.5 -1.9 99.6 -41t41 -99.6q-2 -52.7 -33.2 -91.8 -33.2 -37.1 -84 -46.9 52.7 -41 54.7 -111.3 -2 -60.5 -41 -99.6t-99.6 -41h-27.4q41 -35.2 43 -93.8 -2 -52.7 -37.1 -87.9t-87.9 -37.1h-9.8q9.8 -29.3 9.8 -62.5 -2 -72.2 -46.9 -123Q595.7 -64.5 525.4 -74.2zM375 423.8q27.3 0 44.9 17.6 17.6 17.6 17.6 44.9t-17.6 45T375 548.8t-44.9 -17.5 -17.6 -45 17.6 -44.9T375 423.8zm187.5 62.5q0 -27.3 17.6 -44.9 17.6 -17.6 44.9 -17.6t44.9 17.6 17.6 44.9 -17.6 45T625 548.8t-44.9 -17.5 -17.6 -45zm125 211q0 7.8 -3.9 13.6 -11.7 19.6 -58.6 50.8 -44.9 33.2 -125 37.1 -80.1 -3.9 -125 -37.1 -46.9 -31.2 -58.6 -50.8 -3.9 -5.8 -3.9 -13.6 2 -21.5 23.4 -23.5h328.2q21.4 2 23.4 23.5z"/></svg>