<svg height="1000" width="1000" xmlns="http://www.w3.org/2000/svg"><path d="M496.1 -62.5q11.7 -13.7 29.3 -11.7 70.3 9.7 115.2 62.5 44.9 50.8 46.9 123 0 33.2 -9.8 62.5h9.8q52.7 2 87.9 37.1t37.1 87.9q-2 58.6 -43 93.8h27.4q60.5 1.9 99.6 41t41 99.6q-2 70.3 -54.7 111.3 50.8 9.8 84 46.9 31.2 39.1 33.2 91.8 -2 60.6 -41 99.6t-99.6 41H140.6Q80.1 921.9 41 882.8T0 783.2q2 -52.7 33.2 -91.8 33.2 -37.1 84 -46.9Q64.5 603.5 62.5 533.2q2 -60.5 41 -99.6t99.6 -41h27.4q-41 -35.2 -43 -93.8 2 -52.7 37.1 -87.9t87.9 -37.1h31.3q66.4 -1.9 111.3 -44.9Q498 84 500 17.6q0 -27.4 -7.8 -50.8 -5.9 -15.6 5.8 -29.3h-1.9z"/></svg>