<svg height="1000" width="1000" xmlns="http://www.w3.org/2000/svg"><path d="M562.5 -13.7q0 -27.3 -17.6 -44.9Q527.3 -76.2 500 -76.2t-44.9 17.6 -17.6 44.9v437.5q0 27.4 17.6 45t44.9 17.5 44.9 -17.5 17.6 -45V-13.7zM281.3 160.2q19.5 -17.6 21.4 -43 2 -25.4 -13.6 -44.9 -17.6 -21.5 -43 -23.5t-44.9 13.7q-80.1 66.4 -125 158.2Q31.3 314.5 31.3 423.8q1.9 130.9 64.4 236.4t168 167.9T500 892.6q130.9 -2 236.3 -64.5t168 -167.9 64.5 -236.4q0 -109.3 -45 -203.1Q877 128.9 798.8 62.5 779.3 46.9 753.9 48.8t-43 21.5q-15.6 21.5 -13.6 46.9t21.5 43q58.5 46.8 91.7 115.2t33.3 148.4q-4 146.5 -101.6 242.2Q646.5 763.7 500 767.6 353.5 763.7 255.9 666 160.2 570.3 156.3 423.8q0 -80 33.2 -148.4t89.8 -115.2h2z"/></svg>