<svg height="1000" width="875" xmlns="http://www.w3.org/2000/svg"><path d="M62.5 -76.2q-27.3 0 -44.9 17.6Q0 -41 0 -13.7v500q0 27.4 17.6 45t44.9 17.5 44.9 -17.5 17.6 -45v-125h99.6l250 250 -207 205.1Q250 835.9 250 861.3t17.6 45q19.5 17.5 44.9 17.5t44.9 -17.5L562.5 699.2l205.1 207.1q19.5 17.5 44.9 17.5t44.9 -17.5q17.6 -19.6 17.6 -45t-17.6 -44.9l-207 -205.1 207 -205q17.6 -19.6 17.6 -45t-17.6 -44.9q-19.5 -17.6 -44.9 -17.6t-44.9 17.6l-205.1 207 -168 -167.9q74.3 -19.6 121.1 -76.2 44.9 -58.6 46.9 -136.7Q560.5 48.8 498 -11.7 437.5 -74.2 343.8 -76.2H62.5zm281.3 312.5H125h218.8H125V48.8h218.8q39 2 66.4 27.4 25.3 27.3 27.3 66.4 -2 39 -27.3 66.4 -27.4 25.4 -66.4 27.3z"/></svg>