<svg height="1000" width="750" xmlns="http://www.w3.org/2000/svg"><path d="M0 -13.7Q0 -41 17.6 -58.6q17.6 -17.6 44.9 -17.6h625q27.3 0 44.9 17.6t17.6 44.9v62.5q0 27.4 -17.6 45t-44.9 17.5h-625q-27.3 0 -44.9 -17.5T0 48.8v-62.5zm62.5 187.5h625 -625 625v625q-2 52.8 -37.1 87.9t-87.9 37.1h-375q-52.7 -1.9 -87.9 -37.1T62.5 798.8v-62.5h218.8q29.2 -1.9 31.2 -31.2 -2 -29.3 -31.2 -31.3H62.5v-125h218.8q29.2 -1.9 31.2 -31.2 -2 -29.3 -31.2 -31.3H62.5v-125h218.8q29.2 -1.9 31.2 -31.2 -2 -29.3 -31.2 -31.3H62.5v-125z"/></svg>