<svg height="1000" width="1000" xmlns="http://www.w3.org/2000/svg"><path d="M250 -76.2q-52.7 2 -87.9 37.1Q127 -3.9 125 48.8v187.5h125V48.8h443.4l56.6 56.7v130.8h125V105.5q0 -50.8 -37.1 -87.9l-56.6 -56.7q-37.2 -37.1 -87.9 -37.1H250zm500 687.5v62.5 -62.5 187.5H250V611.3h500zm125 62.5h62.5H875h62.5q27.3 0 44.9 -17.5t17.6 -45V423.8q-2 -52.7 -37.1 -87.9T875 298.8H125q-52.7 2 -87.9 37.1T0 423.8v187.5q0 27.4 17.6 45t44.9 17.5H125v125q2 52.8 37.1 87.9t87.9 37.1h500q52.7 -1.9 87.9 -37.1T875 798.8v-125zM843.8 408.2q42.9 3.9 46.8 46.9Q886.7 498 843.8 502q-43 -4 -46.9 -46.9 3.9 -43 46.9 -46.9z"/></svg>