<svg height="1000" width="875" xmlns="http://www.w3.org/2000/svg"><path d="M250 -13.7v187.5V-13.7v187.5h250v-62.5h117.2q13.7 0 21.5 9.8l66.4 66.4q19.5 17.6 44.9 17.6t44.9 -17.6q17.6 -19.5 17.6 -44.9T794.9 97.7L728.5 31.3q-46.9 -45 -111.3 -45H500q0 -27.3 -17.6 -44.9t-44.9 -17.6h-125q-27.3 0 -44.9 17.6T250 -13.7zm-21.5 250q-48.8 2 -84 33.2 -35.1 31.3 -39 82.1L68.4 789.1q-3.9 56.6 33.2 93.7 35.1 39.1 91.8 41h363.2q56.7 -1.9 91.8 -41 37.1 -37.1 33.2 -93.7L644.5 351.6q-3.9 -50.8 -39 -82.1t-84 -33.2h-293zm193.4 234.4v62.5 -62.5 62.5h62.5q42.9 3.9 46.9 46.9 -4 42.9 -46.9 46.9h-62.5v62.5Q418 732.4 375 736.3q-43 -3.9 -46.9 -46.8V627h-62.5q-42.9 -4 -46.8 -46.9 3.9 -43 46.8 -46.9h62.5v-62.5q3.9 -43 46.9 -46.9 43 3.9 46.9 46.9z"/></svg>