<svg height="1000" width="875" xmlns="http://www.w3.org/2000/svg"><path d="M250 -13.7v187.5V-13.7v187.5h250v-62.5h117.2q13.7 0 21.5 9.8l66.4 66.4q19.5 17.6 44.9 17.6t44.9 -17.6q17.6 -19.5 17.6 -44.9T794.9 97.7L728.5 31.3q-46.9 -45 -111.3 -45H500q0 -27.3 -17.6 -44.9t-44.9 -17.6h-125q-27.3 0 -44.9 17.6T250 -13.7zm-21.5 250q-48.8 2 -84 33.2 -35.1 31.3 -39 82.1L68.4 789.1q-3.9 56.6 33.2 93.7 35.1 39.1 91.8 41h363.2q56.7 -1.9 91.8 -41 37.1 -37.1 33.2 -93.7L644.5 351.6q-3.9 -50.8 -39 -82.1t-84 -33.2h-293zM500 627q-2 52.7 -37.1 80 -35.2 29.3 -87.9 29.3T287.1 707Q252 679.7 250 627q3.9 -50.8 39.1 -107.5 37.1 -56.6 60.5 -84 9.8 -11.7 25.4 -11.7t25.4 11.7q23.4 27.4 60.5 84Q496.1 576.2 500 627z"/></svg>