<svg height="1000" width="1000" xmlns="http://www.w3.org/2000/svg"><path d="M375 128.9Q373 101.6 349.6 84 314.5 56.6 312.5 17.6q2 -39.1 37.1 -66.4 35.2 -25.4 87.9 -27.4 52.7 2 87.9 27.4 35.1 27.3 37.1 66.4 -2 39 -37.1 66.4Q502 101.6 500 128.9q3.9 41 44.9 44.9h111.4q39 2 66.4 27.4 25.3 27.3 27.3 66.4v111.3q3.9 41 44.9 44.9 27.4 -1.9 44.9 -25.4 27.4 -35.1 66.5 -37.1 39 2 66.4 37.1 25.3 35.2 27.3 87.9 -2 52.8 -27.3 87.9 -27.4 35.2 -66.4 37.1 -39.1 -1.9 -66.5 -37.1 -17.5 -23.4 -44.9 -25.4 -41 3.9 -44.9 45v236.3q-2 39 -27.3 66.4 -27.4 25.4 -66.4 27.3H544.9q-41 -3.9 -44.9 -44.9 2 -27.3 25.4 -44.9 35.1 -27.4 37.1 -66.4 -2 -39.1 -37.1 -66.4 -35.2 -25.4 -87.9 -27.4 -52.7 2 -87.9 27.4 -35.1 27.3 -37.1 66.4 2 39 37.1 66.4 23.4 17.6 25.4 44.9 -3.9 41 -44.9 44.9H93.8Q54.7 921.9 27.3 896.5 2 869.1 0 830.1V593.8q3.9 -41.1 44.9 -45 27.4 2 44.9 25.4 27.4 35.2 66.5 37.1 39 -1.9 66.4 -37.1Q248 539.1 250 486.3q-2 -52.7 -27.3 -87.9 -27.4 -35.1 -66.4 -37.1 -39.1 2 -66.5 37.1 -17.5 23.5 -44.9 25.4Q3.9 419.9 0 378.9V267.6q2 -39.1 27.3 -66.4 27.4 -25.4 66.5 -27.4h236.3q41 -3.9 44.9 -44.9z"/></svg>