<svg height="1000" width="875" xmlns="http://www.w3.org/2000/svg"><path d="M0 80.1Q2 41 27.3 13.7q27.4 -25.4 66.5 -27.4h187.5q39 2 66.4 27.4Q373 41 375 80.1v187.5q-2 39 -27.3 66.4 -27.4 25.4 -66.4 27.3H93.8Q54.7 359.4 27.3 334 2 306.6 0 267.6V80.1zm125 31.2v125 -125 125h125v-125H125zM0 580.1Q2 541 27.3 513.7q27.4 -25.4 66.5 -27.4h187.5q39 2 66.4 27.4Q373 541 375 580.1v187.5q-2 39 -27.3 66.4 -27.4 25.4 -66.4 27.3H93.8Q54.7 859.4 27.3 834 2 806.6 0 767.6V580.1zm125 31.2v125 -125 125h125v-125H125zm468.8 -625h187.5H593.8h187.5q39 2 66.4 27.4Q873 41 875 80.1v187.5q-2 39 -27.3 66.4 -27.4 25.4 -66.4 27.3H593.8Q554.7 359.4 527.3 334 502 306.6 500 267.6V80.1Q502 41 527.3 13.7q27.4 -25.4 66.5 -27.4zm156.2 125H625h125H625v125h125v-125zM500 517.6q2 -29.3 31.3 -31.3h125q29.2 2 31.2 31.3t31.3 31.2h62.5q29.2 -1.9 31.2 -31.2t31.3 -31.3q29.2 2 31.2 31.3v187.5q-2 29.3 -31.2 31.2h-125q-29.3 -1.9 -31.3 -31.2t-31.2 -31.3q-29.3 2 -31.3 31.3v125q-2 29.3 -31.2 31.2h-62.5Q502 859.4 500 830.1V517.6zm218.8 343.7q-29.3 -1.9 -31.3 -31.2 2 -29.3 31.3 -31.3 29.2 2 31.2 31.3 -2 29.3 -31.2 31.2zm125 0q-29.3 -1.9 -31.3 -31.2 2 -29.3 31.3 -31.3 29.2 2 31.2 31.3 -2 29.3 -31.2 31.2z"/></svg>