<svg height="1000" width="625" xmlns="http://www.w3.org/2000/svg"><path d="M156.3 236.3q1.9 -52.7 37.1 -87.9 35.1 -35.1 87.9 -37.1h62.5q52.7 2 87.8 37.1t37.2 87.9v7.8q-2 66.4 -56.7 103.6l-84 54.6Q252 453.1 250 546.9v1.9q0 27.4 17.6 45t44.9 17.5 44.9 -17.5 17.6 -45v-1.9q0 -25.4 21.5 -41l82 -52.8q54.7 -35.1 84 -89.8 31.3 -54.7 31.3 -121.1v-5.9q-2 -105.4 -72.3 -177.7Q449.2 -11.7 343.8 -13.7h-62.5q-105.5 2 -177.8 72.3Q33.2 130.9 31.3 236.3q0 27.4 17.5 45t45 17.5 44.9 -17.5 17.6 -45zm156.2 625q44.9 -1.9 68.4 -39 19.5 -39.1 0 -78.2 -23.5 -37.1 -68.4 -39 -44.9 1.9 -68.4 39 -19.5 39.1 0 78.2 23.5 37.1 68.4 39z"/></svg>