<svg height="1000" width="875" xmlns="http://www.w3.org/2000/svg"><path d="M0 345.7q2 -99.6 68.4 -166t166 -68.4H250q27.3 0 44.9 17.6t17.6 44.9 -17.6 45T250 236.3h-15.6q-46.9 2 -78.1 31.3Q127 298.8 125 345.7v15.6h125q52.7 2 87.9 37.1t37.1 87.9v125q-2 52.8 -37.1 87.9T250 736.3H125Q72.3 734.4 37.1 699.2T0 611.3V345.7zm500 0q2 -99.6 68.4 -166t166 -68.4H750q27.3 0 44.9 17.6t17.6 44.9 -17.6 45T750 236.3h-15.6q-46.9 2 -78.1 31.3Q627 298.8 625 345.7v15.6h125q52.7 2 87.9 37.1t37.1 87.9v125q-2 52.8 -37.1 87.9T750 736.3H625q-52.7 -1.9 -87.9 -37.1T500 611.3V345.7z"/></svg>