<svg height="1000" width="875" xmlns="http://www.w3.org/2000/svg"><path d="M875 502q-2 99.6 -68.4 166t-166 68.3H625q-27.3 0 -44.9 -17.5t-17.6 -45 17.6 -44.9T625 611.3h15.6q46.9 -1.9 78.2 -31.2Q748 548.8 750 502v-15.7H625q-52.7 -1.9 -87.9 -37.1T500 361.3v-125q2 -52.7 37.1 -87.9T625 111.3h125q52.7 2 87.9 37.1t37.1 87.9V502zm-500 0q-2 99.6 -68.4 166t-166 68.3H125q-27.3 0 -44.9 -17.5t-17.6 -45 17.6 -44.9T125 611.3h15.6q46.9 -1.9 78.2 -31.2Q248 548.8 250 502v-15.7H125Q72.3 484.4 37.1 449.2T0 361.3v-125q2 -52.7 37.1 -87.9T125 111.3h125q52.7 2 87.9 37.1t37.1 87.9V502z"/></svg>