<svg height="1000" width="1000" xmlns="http://www.w3.org/2000/svg"><path d="M966.8 15.6Q1005.9 0 998 -43q-15.6 -39 -58.5 -31.2L101.6 171.9q-27.4 7.8 -48.9 25.4Q2 234.4 0 298.8v500q2 52.8 37.1 87.9t87.9 37.1h750q52.7 -1.9 87.9 -37.1t37.1 -87.9v-500q-2 -52.7 -37.1 -87.9T875 173.8H427.7L966.8 15.6zm-248 377q87.8 1.9 134.7 78.1 43 78.1 0 156.3 -46.9 76.1 -134.7 78.1Q630.9 703.1 584 627q-43 -78.2 0 -156.3 46.9 -76.2 134.8 -78.1zm-562.5 31.2q1.9 -29.3 31.2 -31.2H375q29.3 1.9 31.3 31.2 -2 29.3 -31.3 31.3H187.5q-29.3 -2 -31.2 -31.3zm-31.3 125q2 -29.3 31.3 -31.2h250q29.2 1.9 31.2 31.2 -2 29.3 -31.2 31.3h-250Q127 578.1 125 548.8zm31.3 125q1.9 -29.3 31.2 -31.2H375q29.3 1.9 31.3 31.2 -2 29.3 -31.3 31.3H187.5q-29.3 -2 -31.2 -31.3z"/></svg>