<svg height="1000" width="1250" xmlns="http://www.w3.org/2000/svg"><path d="M625 111.3q-140.6 2 -252 68.4Q259.8 246.1 193.4 359.4 127 470.7 125 611.3v187.5q0 27.4 -17.6 45t-44.9 17.5T17.6 843.8 0 798.8V611.3Q2 437.5 85.9 296.9 168 154.3 310.5 72.3q140.7 -84 314.5 -86 173.8 2 314.5 86 142.5 82 224.6 224.6 83.9 140.6 85.9 314.4v187.5q0 27.4 -17.6 45t-44.9 17.5 -44.9 -17.5 -17.6 -45V611.3q-2 -140.6 -68.4 -251.9Q990.2 246.1 877 179.7 765.6 113.3 625 111.3zm0 375q-52.7 2 -87.9 37.1Q502 558.6 500 611.3v187.5q0 27.4 -17.6 45t-44.9 17.5 -44.9 -17.5 -17.6 -45V611.3q2 -105.4 72.3 -177.7Q519.5 363.3 625 361.3q105.5 2 177.7 72.3Q873 505.9 875 611.3v187.5q0 27.4 -17.6 45t-44.9 17.5 -44.9 -17.5 -17.6 -45V611.3q-2 -52.7 -37.1 -87.9T625 486.3zm-312.5 125v187.5V611.3v187.5q0 27.4 -17.6 45T250 861.3t-44.9 -17.5 -17.6 -45V611.3q2 -123 60.5 -220.7Q304.7 291 404.3 234.4 502 175.8 625 173.8q123 2 220.7 60.6Q945.3 291 1002 390.6q58.5 97.7 60.5 220.7v187.5q0 27.4 -17.6 45t-44.9 17.5 -44.9 -17.5 -17.6 -45V611.3Q933.6 478.5 845.7 390.6T625 298.8q-132.8 3.9 -220.7 91.8t-91.8 220.7z"/></svg>