<svg height="1000" width="750" xmlns="http://www.w3.org/2000/svg"><path d="M27.3 -72.3q27.4 -11.7 50.8 7.8L156.3 2l78.1 -66.5q31.2 -23.4 62.5 0L375 2l78.1 -66.5q31.3 -23.4 62.5 0L593.8 2l78.1 -66.5q23.4 -17.5 50.8 -7.8 25.3 13.7 27.3 43V877q-2 29.3 -27.3 42.9 -27.4 11.7 -50.8 -7.8l-78.1 -66.4 -78.2 66.4q-31.2 23.4 -62.5 0L375 845.7l-78.1 66.4q-31.3 23.4 -62.5 0l-78.1 -66.4 -78.2 66.4q-23.4 19.5 -50.8 7.8Q2 906.3 0 877V-29.3q2 -29.3 27.3 -43zm160.2 277.4q-29.3 1.9 -31.2 31.2 1.9 29.3 31.2 31.3h375q29.3 -2 31.3 -31.3 -2 -29.3 -31.3 -31.2h-375zm-31.2 406.2q1.9 29.3 31.2 31.3h375q29.3 -2 31.3 -31.3 -2 -29.3 -31.3 -31.2h-375q-29.3 1.9 -31.2 31.2zm31.2 -218.7q-29.3 1.9 -31.2 31.2 1.9 29.3 31.2 31.3h375q29.3 -2 31.3 -31.3 -2 -29.3 -31.3 -31.2h-375z"/></svg>