<svg height="1000" width="1125" xmlns="http://www.w3.org/2000/svg"><path d="M0 111.3Q2 58.6 37.1 23.4 72.3 -11.7 125 -13.7h875q52.7 2 87.9 37.1t37.1 87.9v625q-2 52.8 -37.1 87.9t-87.9 37.1H125Q72.3 859.4 37.1 824.2T0 736.3v-625zm250 375q27.3 0 44.9 -17.5 17.6 -17.6 17.6 -45t-17.6 -44.9T250 361.3t-44.9 17.6 -17.6 44.9 17.6 45 44.9 17.5zm62.5 -250q0 -27.3 -17.6 -44.9Q277.3 173.8 250 173.8t-44.9 17.6 -17.6 44.9 17.6 45 44.9 17.5 44.9 -17.5 17.6 -45zM250 673.8q27.3 0 44.9 -17.5 17.6 -17.6 17.6 -45t-17.6 -44.9T250 548.8t-44.9 17.6 -17.6 44.9 17.6 45 44.9 17.5zM437.5 189.5q-43 3.9 -46.9 46.8 3.9 43 46.9 46.9H875q43 -3.9 46.9 -46.9Q918 193.4 875 189.5H437.5zm0 187.5q-43 3.9 -46.9 46.8 3.9 43 46.9 46.9H875q43 -3.9 46.9 -46.9Q918 380.9 875 377H437.5zm0 187.5q-43 3.9 -46.9 46.8 3.9 43 46.9 46.9H875q43 -3.9 46.9 -46.9Q918 568.4 875 564.5H437.5z"/></svg>