<svg height="1000" width="1125" xmlns="http://www.w3.org/2000/svg"><path d="M125 -13.7q-52.7 2 -87.9 37.1Q2 58.6 0 111.3v625q2 52.8 37.1 87.9t87.9 37.1h875q52.7 -1.9 87.9 -37.1t37.1 -87.9v-625q-2 -52.7 -37.1 -87.9T1000 -13.7H125zm324.2 275.4L589.8 543 449.2 261.7 589.8 543q13.7 41 -21.4 64.4 -41.1 13.7 -62.5 -21.5l-11.8 -21.4H318.4l-9.8 21.4q-23.4 35.2 -64.5 19.6Q209 584 224.6 543L365.2 261.7q13.7 -25.4 41.1 -25.4 29.2 0 42.9 25.4zm-42.9 127l-41.1 82 41.1 -82 -41.1 82h82.1l-41 -82zm359.3 35.1q-42.9 3.9 -46.8 46.9 3.9 43 46.8 46.9 43 -3.9 46.9 -46.9 -3.9 -43 -46.9 -46.9zm46.9 -85.9v-54.7 54.7 -54.7q3.9 -43 46.9 -46.9 42.9 3.9 46.9 46.9v281.3q-4 42.9 -46.9 46.8 -19.6 0 -33.2 -13.6 -27.4 13.6 -60.6 13.6 -60.5 -1.9 -99.6 -41t-41 -99.6q2 -60.5 41 -99.6t99.6 -41q25.4 0 46.9 7.8z"/></svg>