<svg height="1000" width="1000" xmlns="http://www.w3.org/2000/svg"><path d="M341.8 11.7Q398.4 -74.2 500 -76.2q101.6 2 158.2 87.9l76.2 121.1 52.7 -31.2q27.4 -13.7 52.7 3.9 21.5 19.5 15.7 48.8l-45 171.9q-15.6 39 -58.5 33.2L582 312.5q-29.3 -7.8 -35.1 -39.1 -2 -29.3 23.4 -46.8L627 195.3 552.7 78.1Q533.2 50.8 500 48.8q-33.2 2 -52.7 29.3l-33.2 54.7q-15.7 21.5 -39.1 27.4t-46.9 -5.9q-23.4 -15.6 -29.3 -39.1Q293 89.8 306.6 66.4l35.2 -54.7zm498 404.3q21.5 -13.7 45 -7.8 25.4 5.9 39 27.3l48.9 78.2q27.3 44.9 27.3 97.6 -2 80.1 -54.7 132.8t-132.8 54.7H625v62.5q-2 31.3 -29.3 43t-50.8 -9.8l-125 -125q-27.3 -33.2 0 -66.4l125 -125q23.5 -19.5 50.8 -9.7Q623 582 625 611.3v62.5h187.5q27.3 0 44.9 -17.5t17.6 -45q0 -17.5 -9.8 -33.2L818.4 502q-13.7 -23.5 -7.9 -46.9 5.9 -25.4 29.3 -39.1zM127 355.5L70.3 322.3l56.7 33.2L70.3 322.3Q44.9 306.6 46.9 275.4 52.7 246.1 82 236.3l170 -44.9q42.9 -7.8 58.5 33.2l45 169.9q5.8 29.3 -17.6 50.8 -23.4 17.6 -50.8 2L234.4 418l-99.6 160.1q-9.8 15.7 -9.8 33.2 0 27.4 17.6 45t44.9 17.5H250q27.3 0 44.9 17.6t17.6 44.9 -17.6 45T250 798.8h-62.5Q107.4 796.9 54.7 744.1T0 611.3q0 -54.7 29.3 -99.6L127 355.5z"/></svg>