<svg height="1000" width="1000" xmlns="http://www.w3.org/2000/svg"><path d="M500 923.8q136.7 -1.9 250 -66.4Q863.3 791 933.6 673.8q66.4 -119.1 66.4 -250t-66.4 -250Q863.3 56.6 750 -9.8 636.7 -74.2 500 -76.2q-136.7 2 -250 66.4Q136.7 56.6 66.4 173.8 0 293 0 423.8t66.4 250Q136.7 791 250 857.4q113.3 64.5 250 66.4zM312.5 220.7q3.9 -43 46.9 -46.9h171.9q66.4 2 111.3 45 42.9 44.9 44.9 111.3 -3.9 85.9 -70.3 130.8l66.4 146.5q13.7 41 -23.4 62.5 -41.1 13.7 -62.5 -23.4L525.4 486.3H406.3V627q-4 42.9 -46.9 46.8 -43 -3.9 -46.9 -46.8V220.7zm93.8 171.9h125 -125 125q27.3 0 44.9 -17.6t17.6 -44.9 -17.6 -44.9 -44.9 -17.6h-125v125z"/></svg>