<svg height="1000" width="1000" xmlns="http://www.w3.org/2000/svg"><path d="M0 361.3q0 27.4 17.6 45 17.6 17.5 44.9 17.5t44.9 -17.5 17.6 -45q2 -80 54.7 -132.8t132.8 -54.7H625v62.5q2 41 39.1 58.6 37.1 13.7 68.3 -13.6l125 -125q17.6 -19.6 17.6 -45T857.4 66.4l-125 -125q-31.2 -27.3 -68.3 -11.7T625 -13.7v62.5H312.5Q179.7 52.7 91.8 140.6T0 361.3zm1000 125q0 -27.3 -17.6 -44.9 -17.6 -17.6 -44.9 -17.6t-44.9 17.6T875 486.3q-2 80.1 -54.7 132.8t-132.8 54.7H375v-62.5q-2 -41 -39.1 -58.6 -37.1 -13.6 -68.3 13.7l-125 125Q125 710.9 125 736.3t17.6 45l125 125q31.2 27.3 68.3 11.7T375 861.3v-62.5h312.5Q820.3 794.9 908.2 707T1000 486.3z"/></svg>