<svg height="1000" width="1125" xmlns="http://www.w3.org/2000/svg"><path d="M408.2 2Q377 -27.3 343.8 0L66.4 261.7Q37.1 291 37.1 330.1t29.3 68.3l277.4 261.8q33.2 27.3 64.4 0 27.3 -35.2 0 -66.4L130.9 330.1 408.2 66.4q27.3 -31.2 0 -64.4zm279.3 46.8q-2 -39 -37.1 -56.6Q613.3 -23.4 584 2L271.5 283.2Q250 302.7 250 330.1t21.5 46.9L584 658.2q29.3 25.4 66.4 9.8 35.1 -17.6 37.1 -56.7v-125H750q80.1 2 132.8 54.7t54.7 132.8q-2 45 -15.6 70.3 -13.7 27.4 -27.4 41.1Q877 800.8 875 822.3q3.9 35.1 39.1 39 7.8 0 15.6 -3.9 19.5 -9.7 66.4 -46.9 46.9 -39 85.9 -111.3 41 -72.2 43 -181.6 -3.9 -146.5 -101.6 -242.2Q927.7 177.7 781.3 173.8h-93.8v-125z"/></svg>