<svg height="1000" width="1250" xmlns="http://www.w3.org/2000/svg"><path d="M0 298.8Q3.9 166 91.8 78.1q87.9 -87.9 220.7 -91.8H750q132.8 3.9 220.7 91.8t91.8 220.7v125H0v-125zm812.5 -125q-7.8 0 -11.7 5.9l-23.5 48.8 -56.6 7.8q-5.9 2 -9.8 7.8 -1.9 7.9 3.9 13.7l39.1 37.1 -9.8 52.8q0 7.8 5.9 11.7t13.7 0l48.8 -23.5 48.8 23.5q7.8 3.9 13.7 0 5.9 -5.9 3.9 -11.7l-9.8 -52.8 41.1 -37.1q5.8 -5.8 3.9 -13.7 -3.9 -5.8 -11.8 -7.8l-54.6 -7.8 -23.5 -48.8q-3.9 -5.9 -11.7 -5.9zM543 179.7q-3.9 -5.9 -11.7 -5.9t-11.8 5.9l-23.4 48.8 -56.6 7.8q-5.9 2 -9.8 7.8 -2 7.9 3.9 13.7l39.1 37.1 -9.8 52.8q0 7.8 5.9 11.7t13.6 0l48.9 -23.5 48.8 23.5q7.8 3.9 13.7 0 5.8 -5.9 3.9 -11.7l-9.8 -52.8 41 -37.1q5.9 -5.8 3.9 -13.7 -3.9 -5.8 -11.7 -7.8l-54.7 -7.8L543 179.7zm-293 -5.9q-7.8 0 -11.7 5.9l-23.5 48.8 -56.6 7.8q-5.9 2 -9.8 7.8 -1.9 7.9 3.9 13.7l39.1 37.1 -9.8 52.8q0 7.8 5.9 11.7t13.7 0L250 335.9l48.8 23.5q7.8 3.9 13.7 0 5.9 -5.9 3.9 -11.7l-9.8 -52.8 41.1 -37.1q5.8 -5.8 3.9 -13.7 -3.9 -5.8 -11.8 -7.8l-54.6 -7.8 -23.5 -48.8q-3.9 -5.9 -11.7 -5.9zm0 312.5h375H250h812.5v218.8q2 29.3 31.3 31.2 29.2 -1.9 31.2 -31.2v-93.8q0 -27.3 17.6 -44.9t44.9 -17.6 44.9 17.6 17.6 44.9v93.8q-2 66.4 -44.9 111.3 -44.9 43 -111.3 44.9 -66.5 -1.9 -111.4 -44.9Q939.5 771.5 937.5 705.1v-93.8H875v187.5q0 27.4 -17.6 45t-44.9 17.5h-125q-27.3 0 -44.9 -17.5t-17.6 -45v-125H250v125q0 27.4 -17.6 45t-44.9 17.5h-125q-27.3 0 -44.9 -17.5T0 798.8V486.3h250z"/></svg>