<svg height="1000" width="1250" xmlns="http://www.w3.org/2000/svg"><path d="M156.3 17.6q1.9 -52.8 46.8 -82.1 46.9 -23.4 93.8 0 44.9 29.3 46.9 82.1 -2 52.7 -46.9 82 -46.9 23.4 -93.8 0 -44.9 -29.3 -46.8 -82zm78.1 593.7v250 -250 250q0 27.4 -17.6 45t-44.9 17.5T127 906.3t-17.6 -45V558.6Q82 587.9 44.9 578.1 19.5 568.4 7.8 546.9T3.9 500L62.5 304.7Q82 246.1 130.9 210.9q48.8 -37.1 111.3 -37.1h15.6q62.5 0 111.3 37.1 48.9 35.2 68.4 93.8L498 500q5.9 25.4 -5.8 46.9T457 578.1q-39 9.8 -66.4 -19.5v302.7q0 27.4 -17.6 45t-44.9 17.5 -44.9 -17.5 -17.6 -45v-250h-31.2zM625 -76.2q43 3.9 46.9 46.9V877Q668 919.9 625 923.8 582 919.9 578.1 877V-29.3q3.9 -43 46.9 -46.9zm281.3 93.8q1.9 -52.8 46.8 -82.1 46.9 -23.4 93.8 0 44.9 29.3 46.9 82.1 -2 52.7 -46.9 82 -46.9 23.4 -93.8 0 -44.9 -29.3 -46.8 -82zm-46.9 843.7V673.8v187.5V673.8h-35.2q-15.6 0 -25.4 -13.6 -7.8 -11.8 -3.9 -27.4l17.6 -52.7q-9.8 0 -17.6 -2 -25.4 -9.7 -37.1 -31.2Q746.1 523.4 753.9 498l56.6 -185.5Q832 250 882.8 212.9q50.8 -39.1 117.2 -39.1t117.2 39.1q50.8 37.1 72.3 99.6L1248 498q5.9 27.4 -5.8 48.9t-35.2 31.2q-9.7 2 -19.5 2l17.6 52.7q3.9 15.6 -3.9 27.4 -9.8 13.6 -25.4 13.6h-35.2v187.5q0 27.4 -17.6 45t-44.9 17.5 -44.9 -17.5 -17.6 -45V673.8h-31.2v187.5q0 27.4 -17.6 45t-44.9 17.5T877 906.3t-17.6 -45z"/></svg>