<svg height="1000" width="1125" xmlns="http://www.w3.org/2000/svg"><path d="M531.3 736.3q27.3 0 44.9 -17.5 17.6 -17.6 17.6 -45t-17.6 -44.9 -44.9 -17.6H312.5q-27.3 0 -44.9 -17.5t-17.6 -45v-250h62.5q41 -1.9 58.6 -39 13.7 -37.1 -13.7 -68.4l-125 -125Q212.9 48.8 187.5 48.8t-44.9 17.6l-125 125Q-9.8 222.7 5.9 259.8t56.6 39H125v250q2 80.1 54.7 132.8t132.8 54.7h218.8zm62.5 -625q-27.4 0 -45 17.6 -17.5 17.6 -17.5 44.9t17.5 45 45 17.5h218.7q27.3 0 44.9 17.6t17.6 44.9v250h-62.5q-41 2 -58.6 39.1 -13.7 37.1 13.7 68.4l125 125q19.5 17.5 44.9 17.5t44.9 -17.5l125 -125q27.4 -31.3 13.7 -68.4 -17.6 -37.1 -58.6 -39.1H1000v-250q-2 -80 -54.7 -132.8T812.5 111.3H593.8z"/></svg>