<svg height="1000" width="875" xmlns="http://www.w3.org/2000/svg"><path d="M650.4 554.7L388.7 269.5 285.2 156.3q11.7 -9.8 52.7 -27.4 39.1 -15.6 99.6 -17.6 60.5 2 99.6 17.6 41 17.6 52.7 27.4L480.5 275.4l166 181.6 54.7 -56.6Q750 345.7 750 273.4v-58.6q0 -56.6 -31.2 -103.5L640.6 -5.9Q591.8 -74.2 509.8 -76.2H361.3q-78.1 2 -126.9 66.4L160.2 93.8Q125 142.6 125 203.1v41q0 70.4 46.9 123.1l109.4 125 162.1 187.5L623 884.8q33.3 35.1 78.2 13.6l105.4 -60.5Q834 822.3 837.9 793q3.9 -27.4 -15.6 -50.8L650.4 554.7zm-250 171.9L238.3 539.1l162.1 187.5L238.3 539.1 52.7 742.2Q33.2 765.6 37.1 793q3.9 29.3 31.3 44.9l107.4 60.5q43 21.5 76.2 -11.7L400.4 726.6z"/></svg>