<svg height="1000" width="1000" xmlns="http://www.w3.org/2000/svg"><path d="M738.3 130.9l240.2 240.2L738.3 130.9l240.2 240.2q21.5 21.5 21.5 52.7t-21.5 52.8L738.3 716.8q-19.5 19.5 -46.9 19.5t-46.9 -19.5T625 669.9V548.8H375q-27.3 0 -44.9 -17.5t-17.6 -45v-125q0 -27.3 17.6 -44.9T375 298.8h250V177.7q0 -27.3 19.5 -46.8t46.9 -19.6 46.9 19.6zM312.5 111.3h-125 125 -125q-27.3 0 -44.9 17.6T125 173.8v500q0 27.4 17.6 45t44.9 17.5h125q27.3 0 44.9 17.6t17.6 44.9 -17.6 45 -44.9 17.5h-125Q107.4 859.4 54.7 806.6T0 673.8v-500Q2 93.8 54.7 41t132.8 -54.7h125q27.3 0 44.9 17.6T375 48.8t-17.6 45 -44.9 17.5z"/></svg>