<svg height="1000" width="1000" xmlns="http://www.w3.org/2000/svg"><path d="M425.8 130.9L666 371.1 425.8 130.9 666 371.1q21.5 21.5 21.5 52.7T666 476.6L425.8 716.8q-19.5 19.5 -46.9 19.5T332 716.8t-19.5 -46.9V548.8h-250q-27.3 0 -44.9 -17.5T0 486.3v-125Q0 334 17.6 316.4t44.9 -17.6h250V177.7q0 -27.3 19.5 -46.8t46.9 -19.6 46.9 19.6zm261.7 605.4h125 -125 125q27.3 0 44.9 -17.5t17.6 -45v-500q0 -27.3 -17.6 -44.9t-44.9 -17.6h-125q-27.3 0 -44.9 -17.5T625 48.8 642.6 3.9t44.9 -17.6h125q80.1 2 132.8 54.7t54.7 132.8v500q-2 80.1 -54.7 132.8t-132.8 54.7h-125q-27.3 0 -44.9 -17.5t-17.6 -45 17.6 -44.9 44.9 -17.6z"/></svg>