<svg height="1000" width="1000" xmlns="http://www.w3.org/2000/svg"><path d="M62.5 111.3h625 -625 625v-125q2 -41 39.1 -58.6 37.1 -13.6 68.3 13.7l187.5 187.5q17.6 19.5 17.6 44.9t-17.6 45L794.9 406.3q-31.2 27.3 -68.3 11.7t-39.1 -56.7v-125h-625q-27.3 0 -44.9 -17.5T0 173.8t17.6 -44.9 44.9 -17.6zm875 500q27.3 0 44.9 17.6 17.6 17.6 17.6 44.9t-17.6 45 -44.9 17.5h-625v125q-2 41 -39.1 58.6 -37.1 13.7 -68.3 -13.6L17.6 718.8Q0 699.2 0 673.8t17.6 -42.9L205.1 443.4q31.2 -29.3 68.3 -13.7t39.1 56.6v125h625z"/></svg>