<svg height="1000" width="1000" xmlns="http://www.w3.org/2000/svg"><path d="M125 330.1q-2 23.4 33.2 58.6Q296.9 316.4 500 314.5q203.1 1.9 341.8 74.2Q877 353.5 875 330.1q0 -17.6 -19.5 -44.9Q834 259.8 781.3 230.5 673.8 177.7 500 173.8q-173.8 3.9 -281.2 56.7 -52.8 29.3 -74.3 54.7Q125 312.5 125 330.1zm375 78.1q-138.7 2 -240.2 39.1 99.6 37.1 240.2 39 140.6 -1.9 240.2 -39Q638.7 410.2 500 408.2zM0 330.1q2 -72.3 48.8 -125 46.9 -52.8 113.3 -86Q302.7 50.8 500 48.8q197.3 2 337.9 70.3 66.4 33.2 113.3 86t48.8 125v187.5q-2 72.2 -48.8 125t-113.3 85.9Q697.3 796.9 500 798.8 302.7 796.9 162.1 728.5 95.7 695.3 48.8 642.6T0 517.6V330.1z"/></svg>