<svg height="1000" width="1250" xmlns="http://www.w3.org/2000/svg"><path d="M562.5 -13.7H416h146.5H416q-41 0 -72.2 23.5 -31.3 21.5 -45 60.5L68.4 718.8q-5.9 17.5 -5.9 35.1 2 46.9 31.3 76.2t76.1 31.2h392.6v-125q0 -27.3 17.6 -44.9T625 673.8t44.9 17.6 17.6 44.9v125H750v-250q3.9 -72.2 62.5 -107.4v-48.8q2 -87.9 56.6 -148.5 56.7 -60.5 142.6 -68.3l-60.5 -168Q937.5 31.3 906.3 9.8 875 -13.7 834 -13.7H687.5v125q0 27.4 -17.6 45T625 173.8t-44.9 -17.5 -17.6 -45v-125zm125 375v125 -125 125q0 27.4 -17.6 45T625 548.8t-44.9 -17.5 -17.6 -45v-125q0 -27.3 17.6 -44.9T625 298.8t44.9 17.6 17.6 44.9zm343.8 31.3q27.3 0 44.9 17.6 17.6 17.5 17.6 44.9v93.7h-125v-93.7q0 -27.4 17.5 -44.9t45 -17.6zM875 455.1v93.7 -93.7 93.7q-27.3 0 -44.9 17.6t-17.6 44.9v250q0 27.4 17.6 45t44.9 17.5h312.5q27.3 0 44.9 -17.5t17.6 -45v-250q0 -27.3 -17.6 -44.9t-44.9 -17.6v-93.7q-2 -66.4 -44.9 -111.3 -44.9 -43 -111.3 -45 -66.5 2 -111.4 45Q877 388.7 875 455.1z"/></svg>