<svg height="1000" width="1250" xmlns="http://www.w3.org/2000/svg"><path d="M62.5 -13.7q-27.3 0 -44.9 17.6Q0 21.5 0 48.8v750q0 27.4 17.6 45t44.9 17.5 44.9 -17.5 17.6 -45V443.4L291 111.3H125V48.8Q125 21.5 107.4 3.9T62.5 -13.7zm728.5 125H646.5 791 646.5l-9.8 21.5L459 486.3h144.5l11.7 -21.5L791 111.3zm-82 375h144.5H709h144.5l9.8 -21.5L1041 111.3H896.5l-9.8 21.5L709 486.3zm-312.5 -375l-11.7 21.5 11.7 -21.5 -11.7 21.5L209 486.3h144.5l11.7 -21.5L541 111.3H396.5zm562.5 375h166H959h166v312.5q0 27.4 17.6 45t44.9 17.5 44.9 -17.5 17.6 -45v-750q0 -27.3 -17.6 -44.9t-44.9 -17.6 -44.9 17.6T1125 48.8v105.5l-166 332z"/></svg>