<svg height="1000" width="1250" xmlns="http://www.w3.org/2000/svg"><path d="M416 -13.7h146.5H416h146.5v125q0 27.4 17.6 45t44.9 17.5 44.9 -17.5 17.6 -45v-125H834q41 0 72.3 23.5 31.2 21.5 44.9 60.5l84 234.4q-33.2 -5.9 -66.4 -5.9 -87.9 0 -160.2 39.1Q734.4 377 687.5 445.3v-84q0 -27.3 -17.6 -44.9T625 298.8t-44.9 17.6 -17.6 44.9v125q0 27.4 17.6 45t44.9 17.5q5.9 0 13.7 -1.9Q625 593.8 625 642.6q0 15.6 2 31.2h-2q-27.3 0 -44.9 17.6t-17.6 44.9v125H169.9Q123 859.4 93.8 830.1T62.5 753.9q0 -17.6 5.9 -35.1L298.8 70.3q13.7 -39 45 -60.5Q377 -13.7 416 -13.7zm552.8 375q76.1 0 140.6 37.1 64.4 37.1 103.5 103.6 37.1 66.4 37.1 140.6t-37.1 140.6q-39.1 66.4 -103.5 103.5t-140.6 37.1T828.1 886.7 724.6 783.2Q687.5 716.8 687.5 642.6T724.6 502q39.1 -66.5 103.5 -103.6t140.7 -37.1zm0 468.8q42.9 -3.9 46.8 -46.9 -3.9 -43 -46.8 -46.9 -43 3.9 -46.9 46.9 3.9 43 46.9 46.9zm0 -375q-29.3 1.9 -31.3 31.2v156.3q2 29.3 31.3 31.2 29.2 -1.9 31.2 -31.2V486.3Q998 457 968.8 455.1z"/></svg>