<svg height="1000" width="1250" xmlns="http://www.w3.org/2000/svg"><path d="M687.5 -76.2h500 -500 500q27.3 0 44.9 17.6t17.6 44.9v875q0 27.4 -17.6 45t-44.9 17.5h-500q-27.3 0 -44.9 -17.5t-17.6 -45v-875q0 -27.3 17.6 -44.9t44.9 -17.6zm250 390.7q-43 3.9 -46.9 46.8v125q3.9 43 46.9 46.9 43 -3.9 46.9 -46.9v-125q-3.9 -42.9 -46.9 -46.8zm46.9 359.3Q980.5 630.9 937.5 627q-43 3.9 -46.9 46.8v125q3.9 43 46.9 46.9 43 -3.9 46.9 -46.9v-125zM937.5 2q-43 3.9 -46.9 46.8v125q3.9 43 46.9 46.9 43 -3.9 46.9 -46.9v-125Q980.5 5.9 937.5 2zm-875 109.3h500 -500 500v125h-78.1v125h78.1v187.5q-80.1 2 -132.8 54.7T375 736.3v125q0 27.4 -17.6 45t-44.9 17.5H250q-27.3 0 -44.9 -17.5t-17.6 -45v-125q-2 -80 -54.7 -132.8T0 548.8V361.3h140.6v-125H62.5q-27.3 0 -44.9 -17.5T0 173.8t17.6 -44.9 44.9 -17.6zm328.1 125H234.4h156.2H234.4v125h156.2v-125z"/></svg>