<svg height="1000" width="1125" xmlns="http://www.w3.org/2000/svg"><path d="M500 -13.7H353.5 500 353.5q-41 0 -72.2 23.5 -31.3 21.5 -45 60.5L5.9 718.8Q0 736.3 0 753.9q2 46.9 31.3 76.2t76.1 31.2H500v-125q0 -27.3 17.6 -44.9t44.9 -17.6 44.9 17.6 17.6 44.9v125h392.6q46.9 -1.9 76.2 -31.2t31.2 -76.2q0 -17.6 -5.9 -35.1L888.7 70.3Q875 31.3 843.8 9.8q-31.3 -23.5 -72.3 -23.5H625v125q0 27.4 -17.6 45t-44.9 17.5 -44.9 -17.5 -17.6 -45v-125zm125 375v125 -125 125q0 27.4 -17.6 45t-44.9 17.5 -44.9 -17.5 -17.6 -45v-125q0 -27.3 17.6 -44.9t44.9 -17.6 44.9 17.6 17.6 44.9z"/></svg>