<svg height="1000" width="1250" xmlns="http://www.w3.org/2000/svg"><path d="M625 -76.2q27.3 0 44.9 17.6 17.6 17.6 17.6 44.9v125h234.4q60.5 2 99.6 41t41 99.7v531.2q-2 60.6 -41 99.6t-99.6 41H328.1q-60.5 -1.9 -99.6 -41t-41 -99.6V252q2 -60.6 41 -99.7t99.6 -41h234.4v-125q0 -27.3 17.6 -44.9T625 -76.2zm-218.7 750q-29.3 2 -31.3 31.3 2 29.3 31.3 31.2h62.5Q498 734.4 500 705.1q-2 -29.3 -31.2 -31.3h-62.5zm187.5 0q-29.3 2 -31.3 31.3 2 29.3 31.3 31.2h62.5q29.2 -1.9 31.2 -31.2 -2 -29.3 -31.2 -31.3h-62.5zm187.5 0q-29.3 2 -31.3 31.3 2 29.3 31.3 31.2h62.5Q873 734.4 875 705.1q-2 -29.3 -31.2 -31.3h-62.5zm-265.7 -250q-1.9 -44.9 -39 -68.3 -39.1 -19.6 -78.2 0 -37.1 23.4 -39 68.3 1.9 45 39 68.4 39.1 19.5 78.2 0 37.1 -23.4 39 -68.4zM812.5 502q44.9 -2 68.4 -39.1 19.5 -39.1 0 -78.1 -23.5 -37.1 -68.4 -39.1 -44.9 2 -68.4 39.1 -19.5 39 0 78.1 23.5 37.1 68.4 39.1zM93.8 361.3H125 93.8 125v375H93.8Q54.7 734.4 27.3 709 2 681.6 0 642.6V455.1Q2 416 27.3 388.7q27.4 -25.4 66.5 -27.4zm1062.5 0q39 2 66.4 27.4 25.3 27.3 27.3 66.4v187.5q-2 39 -27.3 66.4 -27.4 25.4 -66.4 27.3H1125v-375h31.3z"/></svg>