<svg height="1000" width="1000" xmlns="http://www.w3.org/2000/svg"><path d="M306.6 675.8l-60.5 -60.6 60.5 60.6 -60.5 -60.6q-25.4 -27.3 -15.6 -62.5 9.7 -27.3 23.4 -66.4h-207q-27.4 0 -41 -23.4Q-5.9 439.5 5.9 416L109.4 242.2q41 -66.4 121.1 -68.4h160.1q7.8 -11.7 13.7 -21.5Q486.3 35.2 584 -15.6t193.3 -58.6q95.7 -5.9 168 7.8 35.2 9.8 44.9 44.9 13.7 72.3 7.8 168 -7.8 95.7 -58.5 193.3t-168 179.7q-9.8 5.9 -21.5 13.7v160.2q-2 80 -68.4 121.1L507.8 918q-23.4 11.7 -46.9 0 -23.4 -13.7 -23.4 -41V668l-70.3 23.4q-35.2 9.8 -60.6 -15.6zM750 252q44.9 -2 68.4 -39.1 19.5 -39.1 0 -78.1Q794.9 97.7 750 95.7q-44.9 2 -68.4 39.1 -19.5 39 0 78.1Q705.1 250 750 252z"/></svg>