<svg height="1000" width="1000" xmlns="http://www.w3.org/2000/svg"><path d="M95.7 361.3H78.1h17.6H78.1Q35.2 357.4 31.3 314.5v-250q1.9 -31.3 29.2 -43t50.8 9.8l82.1 82Q279.3 27.3 390.6 0t220.7 0q111.4 29.3 197.3 115.2t115.2 197.3q27.4 111.3 0 222.7Q894.5 646.5 808.6 732.4T611.3 847.7Q500 875 388.7 847.7 277.3 818.4 191.4 732.4q-19.5 -17.6 -19.5 -42.9t19.5 -45Q209 627 234.4 627t44.9 17.5Q375 736.3 500 736.3t220.7 -91.8q91.8 -95.7 91.8 -220.7T720.7 203.1Q625 111.3 502 111.3q-125 0 -220.7 89.9l80 80.1q21.5 23.4 9.8 50.7t-43 29.3H95.7z"/></svg>