<svg height="1000" width="1000" xmlns="http://www.w3.org/2000/svg"><path d="M279.3 203.1q-50.8 52.8 -74.2 117.2 -9.8 23.5 -31.3 35.2 -23.4 9.7 -48.8 1.9 -23.4 -9.7 -35.2 -31.2 -9.7 -23.5 -1.9 -48.9 31.2 -89.8 103.5 -162.1Q277.3 29.3 388.7 0 498 -27.3 609.4 0t197.2 113.3l82.1 -82q23.4 -21.5 50.8 -9.8t29.3 43v250q-4 42.9 -46.9 46.8h-250q-31.3 -1.9 -43 -29.3t9.8 -50.7l80.1 -80.1Q623 111.3 498 111.3q-123 0 -218.7 91.8zm-248 330.1q3.9 -43 46.8 -46.9h250q31.3 2 43 29.3t-9.8 50.8l-80 80.1Q377 736.3 502 736.3q123 0 218.7 -91.8 50.8 -52.7 74.2 -117.2 9.8 -23.4 31.3 -35.1 23.4 -9.8 48.8 -2 23.4 9.8 35.2 31.3 11.7 23.4 1.9 48.8 -31.2 89.9 -103.5 162.1 -85.9 86 -197.3 115.3Q502 875 390.6 847.7T193.4 734.4l-82.1 82q-23.4 21.5 -50.8 9.8t-29.2 -43v-250z"/></svg>