<svg height="1000" width="1000" xmlns="http://www.w3.org/2000/svg"><path d="M906.3 361.3h15.6 -15.6 15.6q42.9 -3.9 46.9 -46.8v-250q-2 -31.3 -29.3 -43t-50.8 9.8l-82.1 82Q720.7 27.3 609.4 0T388.7 0Q277.3 29.3 191.4 115.2T76.2 312.5q-27.4 111.3 0 222.7 29.3 111.3 115.2 197.2t197.3 115.3q111.3 27.3 222.6 0Q722.7 818.4 808.6 732.4q19.5 -17.6 19.5 -42.9t-19.5 -45Q791 627 765.6 627t-44.9 17.5Q625 736.3 500 736.3T279.3 644.5Q187.5 548.8 187.5 423.8t91.8 -220.7Q375 111.3 498 111.3q125 0 220.8 89.9l-80.1 80.1q-21.5 23.4 -9.8 50.7t43 29.3h234.4z"/></svg>