<svg height="1000" width="1000" xmlns="http://www.w3.org/2000/svg"><path d="M1000 111.3q-2 50.8 -31.2 109.4Q937.5 279.3 900.4 332q-39.1 50.8 -66.4 82.1 -11.7 13.6 -27.4 9.7H625q-27.3 0 -44.9 17.6t-17.6 44.9 17.6 45 44.9 17.5h187.5q80.1 2 132.8 54.7t54.7 132.8q-2 80.1 -54.7 132.8t-132.8 54.7H273.4q25.4 -29.3 58.6 -72.2 17.6 -23.5 37.1 -52.8h443.4q27.3 0 44.9 -17.5t17.6 -45 -17.6 -44.9 -44.9 -17.6H625q-80.1 -1.9 -132.8 -54.7T437.5 486.3q2 -80 54.7 -132.8T625 298.8h78.1Q671.9 252 648.4 203.1 627 154.3 625 111.3q2 -80 54.7 -132.8t132.8 -54.7q80.1 2 132.8 54.7t54.7 132.8zM228.5 878.9q-11.7 13.7 -19.5 21.5l-3.9 3.9Q185.5 918 166 900.4 140.6 873 101.6 824.2T31.3 718.8Q2 662.1 0 611.3q2 -80 54.7 -132.8t132.8 -54.7q80.1 2 132.8 54.7T375 611.3q-2 45 -25.4 95.7 -25.4 48.9 -58.6 95.7 -33.2 43 -60.5 74.3l-2 1.9zM250 611.3q0 -27.3 -17.6 -44.9 -17.6 -17.6 -44.9 -17.6t-44.9 17.6T125 611.3t17.6 45 44.9 17.5 44.9 -17.5 17.6 -45zM812.5 173.8q27.3 0 44.9 -17.5 17.6 -17.6 17.6 -45T857.4 66.4 812.5 48.8t-44.9 17.6T750 111.3t17.6 45 44.9 17.5z"/></svg>