<svg height="1000" width="875" xmlns="http://www.w3.org/2000/svg"><path d="M0 48.8Q0 21.5 17.6 3.9q17.6 -17.6 44.9 -17.6 226.6 2 410.2 111.4 183.6 107.4 291 291Q873 572.3 875 798.8q0 27.4 -17.6 45t-44.9 17.5 -44.9 -17.5 -17.6 -45Q748 607.4 656.3 451.2 564.5 296.9 410.2 205.1 253.9 113.3 62.5 111.3q-27.3 0 -44.9 -17.5T0 48.8zm0 687.5Q2 666 62.5 628.9q62.5 -35.1 125 0Q248 666 250 736.3q-2 70.3 -62.5 107.5 -62.5 35.1 -125 0Q2 806.6 0 736.3zm62.5 -500q156.3 2 283.2 76.2 127 76.2 203.1 203.1 74.2 127 76.2 283.2 0 27.4 -17.6 45t-44.9 17.5 -44.9 -17.5 -17.6 -45q-2 -123 -60.5 -220.7Q382.8 478.5 283.2 421.9 185.5 363.3 62.5 361.3q-27.3 0 -44.9 -17.5T0 298.8t17.6 -44.9 44.9 -17.6z"/></svg>