<svg height="1000" width="750" xmlns="http://www.w3.org/2000/svg"><path d="M187.5 -13.7q-27.3 0 -44.9 17.6Q125 21.5 125 48.8v375H62.5q-27.3 0 -44.9 17.6T0 486.3t17.6 45 44.9 17.5H125v62.5H62.5q-27.3 0 -44.9 17.6T0 673.8t17.6 45 44.9 17.5H125v62.5q0 27.4 17.6 45t44.9 17.5 44.9 -17.5 17.6 -45v-62.5h312.5q27.3 0 44.9 -17.5t17.6 -45 -17.6 -44.9 -44.9 -17.6H250v-62.5h218.8q119.1 -3.9 199.2 -82 78.1 -80.1 82 -199.2Q746.1 148.4 668 68.4 587.9 -9.8 468.8 -13.7H187.5zm281.3 437.5H250h218.8H250V111.3h218.8q66.4 2 111.3 45Q623 201.2 625 267.6q-2 66.4 -44.9 111.3 -44.9 43 -111.3 44.9z"/></svg>