<svg height="1000" width="1250" xmlns="http://www.w3.org/2000/svg"><path d="M46.9 48.8h62.5H46.9h109.4V798.8H46.9Q3.9 794.9 0 752q3.9 -43 46.9 -46.9h15.6V627H46.9Q3.9 623 0 580.1q3.9 -43 46.9 -46.9h15.6v-62.5H46.9Q3.9 466.8 0 423.8 3.9 380.9 46.9 377h15.6v-62.5H46.9Q3.9 310.5 0 267.6q3.9 -43 46.9 -46.9h15.6v-78.1H46.9Q3.9 138.7 0 95.7q3.9 -43 46.9 -46.9zm171.9 0h812.5H218.8h812.5v750H218.8v-750zM1250 95.7q-3.9 43 -46.9 46.9h-15.6v78.1h15.6q43 3.9 46.9 46.9 -3.9 42.9 -46.9 46.9h-15.6V377h15.6q43 3.9 46.9 46.8 -3.9 43 -46.9 46.9h-15.6v62.5h15.6q43 3.9 46.9 46.9 -3.9 42.9 -46.9 46.9h-15.6v78.1h15.6q43 3.9 46.9 46.9 -3.9 42.9 -46.9 46.8h-109.3v-750h109.3q43 3.9 46.9 46.9z"/></svg>