<svg height="1000" width="1250" xmlns="http://www.w3.org/2000/svg"><path d="M0 580.1q2 39 27.3 66.4 27.4 25.4 66.5 27.3h1062.5q39 -1.9 66.4 -27.3 25.3 -27.4 27.3 -66.4V267.6q-2 -39.1 -27.3 -66.4 -27.4 -25.4 -66.4 -27.4h-125v156.3q-2 29.3 -31.3 31.2 -29.3 -1.9 -31.2 -31.2V173.8h-125v156.3q-2 29.3 -31.3 31.2 -29.3 -1.9 -31.2 -31.2V173.8h-125v156.3q-2 29.3 -31.3 31.2 -29.3 -1.9 -31.2 -31.2V173.8h-125v156.3q-2 29.3 -31.3 31.2 -29.3 -1.9 -31.2 -31.2V173.8h-125v156.3q-2 29.3 -31.3 31.2 -29.3 -1.9 -31.2 -31.2V173.8h-125q-39.1 2 -66.5 27.4Q2 228.5 0 267.6v312.5z"/></svg>