<svg height="1000" width="1000" xmlns="http://www.w3.org/2000/svg"><path d="M0 839.8q3.9 35.2 31.3 60.6 25.3 23.4 62.5 23.4h812.5q39 -1.9 66.4 -27.3Q998 869.1 1000 830.1V642.6q-2 -39.1 -27.3 -66.4 -27.4 -25.4 -66.4 -27.4h-93.8v156.3q-2 29.3 -31.2 31.2Q752 734.4 750 705.1V548.8H625v156.3q-2 29.3 -31.2 31.2 -29.3 -1.9 -31.3 -31.2V548.8h-125v156.3q-2 29.3 -31.2 31.2Q377 734.4 375 705.1V548.8H218.8q-29.3 -1.9 -31.3 -31.2 2 -29.3 31.3 -31.3H375v-125H218.8q-29.3 -1.9 -31.3 -31.2 2 -29.3 31.3 -31.3H375v-125H218.8q-29.3 -1.9 -31.3 -31.2 2 -29.3 31.3 -31.3H375V17.6q-2 -39.1 -27.3 -66.4 -27.4 -25.4 -66.4 -27.4H93.8q-39.1 2 -66.5 27.4Q2 -21.5 0 17.6v822.2z"/></svg>