<svg height="1000" width="1000" xmlns="http://www.w3.org/2000/svg"><path d="M347.7 888.7Q318.4 916 281.3 916q-37.2 0 -66.5 -27.3L35.2 709Q7.8 679.7 7.8 642.6t27.4 -66.4l99.6 -99.6 93.7 93.7q21.5 19.5 43 0 17.6 -21.5 0 -43l-93.8 -93.7 82.1 -82 93.7 93.7q21.5 19.5 43 0 19.5 -21.5 0 -43l-93.8 -93.7 82.1 -82 93.7 93.7q21.5 19.5 43 0 19.5 -21.5 0 -43l-93.8 -93.7 82.1 -82 93.7 93.7q21.5 19.5 43 0 19.5 -21.5 0 -43L552.7 58.6 652.3 -41q29.3 -27.4 66.5 -27.4t66.4 27.4l179.6 179.7q27.4 29.3 27.4 66.4t-27.4 66.4L347.7 888.7z"/></svg>