<svg height="1000" width="875" xmlns="http://www.w3.org/2000/svg"><path d="M0 48.8Q0 21.5 17.6 3.9q17.6 -17.6 44.9 -17.6h156.3Q337.9 -9.8 418 68.4q78.1 80 82 199.2 -2 87.9 -46.9 156.2Q408.2 490.2 332 525.4l101.6 250q7.8 25.4 -2 48.8 -9.7 21.5 -33.2 33.2 -25.4 7.8 -48.8 -1.9 -21.5 -9.8 -33.2 -33.2L207 548.8h-82v250q0 27.4 -17.6 45t-44.9 17.5T17.6 843.8 0 798.8v-750zm125 375h93.8H125h93.8q66.4 -1.9 111.3 -44.9Q373 334 375 267.6q-2 -66.4 -44.9 -111.3 -44.9 -43 -111.3 -45H125v312.5zm502 31.3q-2 17.6 0 19.5 0 3.9 7.8 9.8 19.5 15.6 74.2 33.2h1.9q25.4 7.8 54.7 21.5t54.7 33.2q29.3 23.4 44.9 64.4 15.7 39.1 7.8 86 -15.6 83.9 -85.9 119.1 -66.4 29.3 -142.6 15.6 -29.3 -7.8 -58.6 -17.6Q570.3 834 556.6 828.1q-1.9 -1.9 -3.9 -1.9 -3.9 -2 -5.8 -2l-7.8 -3.9q-23.5 -9.8 -33.2 -33.2 -9.8 -21.5 -2 -46.9 9.8 -25.4 33.2 -35.1t48.8 0q5.9 1.9 15.7 5.8l1.9 2q13.7 3.9 27.4 9.8 25.4 9.7 37.1 11.7 44.9 5.8 64.4 -5.9 13.7 -5.8 17.6 -25.4 2 -17.6 -2 -23.4 -1.9 -3.9 -7.8 -11.7Q720.7 652.3 668 634.8l-5.9 -2Q611.3 619.1 556.6 582q-29.3 -21.5 -44.9 -60.5t-9.7 -84q15.6 -84 83.9 -115.2 68.4 -33.2 144.6 -19.6 11.7 2 33.2 7.8 23.4 4 37.1 9.8 23.4 7.8 35.1 29.3 11.8 23.4 5.9 48.8 -9.8 25.4 -31.3 37.1 -21.4 9.8 -46.8 4 -9.8 -2 -27.4 -7.9 -17.5 -3.9 -27.3 -5.8 -43 -5.9 -64.5 7.8Q627 443.4 627 457v-1.9z"/></svg>