<svg height="1000" width="1000" xmlns="http://www.w3.org/2000/svg"><path d="M0 48.8Q0 21.5 17.6 3.9q17.6 -17.6 44.9 -17.6h156.3Q337.9 -9.8 418 68.4q78.1 80 82 199.2 -2 87.9 -46.9 156.2Q408.2 490.2 332 525.4l101.6 250q7.8 25.4 -2 48.8 -9.7 21.5 -33.2 33.2 -25.4 7.8 -48.8 -1.9 -21.5 -9.8 -33.2 -33.2L207 548.8h-82v250q0 27.4 -17.6 45t-44.9 17.5T17.6 843.8 0 798.8v-750zm125 375h93.8H125h93.8q66.4 -1.9 111.3 -44.9Q373 334 375 267.6q-2 -66.4 -44.9 -111.3 -44.9 -43 -111.3 -45H125v312.5zM625 236.3h156.3H625h156.3q93.7 2 154.2 64.5 62.5 60.5 64.5 154.3 -2 93.7 -64.5 154.3Q875 671.9 781.3 673.8h-93.8v187.5q0 27.4 -17.6 45T625 923.8t-44.9 -17.5 -17.6 -45V298.8q0 -27.3 17.6 -44.9T625 236.3zm156.3 312.5q39 -1.9 66.4 -27.3Q873 494.1 875 455.1 873 416 847.7 388.7q-27.4 -25.4 -66.4 -27.4h-93.8v187.5h93.8z"/></svg>