<svg height="1000" width="1000" xmlns="http://www.w3.org/2000/svg"><path d="M375 111.3h250H375h250l91.8 -138.6q9.8 -17.6 2 -33.2 -7.9 -13.7 -27.4 -15.7H308.6q-19.5 2 -27.3 15.7 -7.9 15.6 1.9 33.2L375 111.3zm250 62.5H375h250H375q-11.7 7.8 -25.4 15.7Q291 224.6 209 291 128.9 359.4 66.4 466.8 3.9 576.2 0 736.3q2 80.1 54.7 132.8t132.8 54.7h625q80.1 -1.9 132.8 -54.7T1000 736.3Q996.1 576.2 933.6 466.8 871.1 359.4 791 291 709 224.6 650.4 189.5q-3.9 -2 -9.8 -5.9 -7.8 -5.9 -15.6 -9.8zm-58.6 406.3l91.8 91.8 -91.8 -91.8 91.8 91.8q27.3 33.2 0 66.4 -33.2 27.3 -66.4 0L500 646.5l-91.8 91.8q-33.2 27.3 -66.4 0 -27.3 -33.2 0 -66.4l91.8 -91.8 -91.8 -91.8q-27.3 -33.2 0 -66.4 33.2 -27.4 66.4 0l91.8 91.8 91.8 -91.8q33.2 -27.4 66.4 0 27.3 33.2 0 66.4l-91.8 91.8z"/></svg>