<svg height="1000" width="1000" xmlns="http://www.w3.org/2000/svg"><path d="M625 111.3H375h250H375L283.2 -27.3q-9.8 -17.6 -1.9 -33.2 7.8 -13.7 27.3 -15.7h382.8q19.5 2 27.4 15.7 7.8 15.6 -2 33.2L625 111.3zm-250 62.5h250H375h250q11.7 7.8 25.4 15.7Q709 224.6 791 291q80.1 68.4 142.6 175.8 62.5 109.4 66.4 269.5 -2 80.1 -54.7 132.8t-132.8 54.7h-625Q107.4 921.9 54.7 869.1T0 736.3Q3.9 576.2 66.4 466.8 128.9 359.4 209 291q82 -66.4 140.6 -101.5 3.9 -2 9.8 -5.9 7.8 -3.9 15.6 -9.8zm164.1 171.9Q535.2 310.5 500 306.6q-35.2 3.9 -39.1 39.1V373q-23.4 4 -42.9 17.6 -46.9 23.5 -50.8 84 5.8 58.6 48.8 80.1 35.2 19.5 68.4 27.3l3.9 2q37.1 9.8 54.7 19.5 13.6 9.8 11.7 17.6 0 13.7 -11.7 19.5 -15.7 9.8 -41 9.8 -31.3 -2 -68.4 -17.6L418 628.9q-35.2 -7.8 -48.9 23.4 -7.8 35.2 25.4 50.8l11.8 3.9q23.4 9.8 54.6 15.7V752q3.9 35.1 39.1 39 35.2 -3.9 39.1 -39v-27.4Q562.5 720.7 584 707q44.9 -25.4 48.8 -87.9Q627 560.5 584 537.1q-35.2 -19.5 -72.3 -29.3Q474.6 498 455.1 488.3q-11.7 -9.8 -9.8 -13.7Q443.4 464.8 457 457q17.6 -9.7 43 -9.7 27.3 0 60.5 9.7 35.2 5.9 46.9 -27.3 5.9 -35.2 -27.3 -48.8 -19.6 -3.9 -41 -7.9v-27.3z"/></svg>