<svg height="1000" width="1000" xmlns="http://www.w3.org/2000/svg"><path d="M375 -13.7q0 -27.3 17.6 -44.9 17.6 -17.6 44.9 -17.6 156.3 2 283.2 76.2 127 76.2 203.1 203.1 74.2 127 76.2 283.2 0 27.4 -17.6 45t-44.9 17.5 -44.9 -17.5 -17.6 -45q-2 -123 -60.5 -220.7Q757.8 166 658.2 109.4 560.5 50.8 437.5 48.8q-27.3 0 -44.9 -17.5t-17.6 -45zM119.1 355.5l203.2 203.1L119.1 355.5l203.2 203.1L377 502q-2 -7.9 -2 -15.7 0 -27.3 17.6 -44.9t44.9 -17.6 44.9 17.6 17.6 44.9 -17.6 45 -44.9 17.5q-7.8 0 -15.6 -1.9l-56.7 54.7 203.2 203.1q21.4 23.4 17.5 50.8t-31.2 41q-68.4 27.3 -148.4 27.3Q234.4 919.9 119.1 804.7T0 517.6Q0 437.5 27.3 369.1 41 341.8 68.4 337.9t50.7 17.6zM437.5 111.3q160.2 3.9 265.6 109.4 105.5 105.5 109.4 265.6 0 27.4 -17.6 45T750 548.8t-44.9 -17.5 -17.6 -45q-2 -105.4 -72.3 -177.7Q543 238.3 437.5 236.3q-27.3 0 -44.9 -17.5t-17.6 -45 17.6 -44.9 44.9 -17.6z"/></svg>