<svg height="1000" width="1000" xmlns="http://www.w3.org/2000/svg"><path d="M455.1 -62.5q-33.2 -27.3 -66.4 0L201.2 125q-27.4 33.2 0 66.4L377 365.2l-31.3 31.3Q273.4 361.3 187.5 361.3q-93.7 0 -171.9 41 -27.3 19.6 -5.8 46.9l210.9 211 -33.2 31.2q-7.8 -1.9 -15.6 -1.9 -27.4 0 -44.9 17.5t-17.6 45 17.6 44.9 44.9 17.6 44.9 -17.6T234.4 752q0 -7.9 -2 -15.7l31.3 -33.2 210.9 211q27.4 19.5 46.9 -5.9 41 -78.1 41 -171.9 0 -85.9 -35.2 -158.2l31.3 -29.3 173.8 173.9q33.2 27.3 66.4 0L986.3 535.2q27.4 -33.2 0 -66.4L812.5 294.9 919.9 187.5q17.6 -19.5 17.6 -44.9T919.9 97.7L826.2 3.9q-19.6 -17.6 -44.9 -17.6t-45 17.6L628.9 111.3 455.1 -62.5zM765.6 623L625 482.4 765.6 623 625 482.4 746.1 361.3 886.7 502 765.6 623zM441.4 298.8L300.8 158.2l140.6 140.6L300.8 158.2 421.9 37.1l140.6 140.6L441.4 298.8z"/></svg>