<svg height="1000" width="1250" xmlns="http://www.w3.org/2000/svg"><path d="M1019.5 44.9q25.4 -7.8 37.1 -31.2 9.8 -21.5 2 -46.9t-31.3 -37.1q-21.4 -9.8 -46.8 -2L759.8 0Q714.8 -72.3 625 -76.2q-66.4 2 -111.3 44.9 -43 45 -44.9 111.4 0 7.8 1.9 17.6l-240.2 80q-25.4 7.8 -37.1 31.3 -9.8 21.5 -2 46.9t31.3 37.1q21.4 9.7 46.8 1.9L535.2 207q11.7 9.8 27.3 15.7v638.6q0 27.4 17.6 45t44.9 17.5h375q27.3 0 44.9 -17.5t17.6 -45 -17.6 -44.9T1000 798.8H687.5V222.7Q752 193.4 773.4 127l246.1 -82.1zM859.4 486.3L1000 244.1 859.4 486.3 1000 244.1l140.6 242.2H859.4zM1000 673.8q93.8 -1.9 162.1 -44.9 66.4 -43 84 -109.4 5.9 -33.2 -13.7 -62.5L1046.9 138.7q-15.6 -27.4 -46.9 -27.4 -31.2 2 -46.9 27.4L767.6 457q-19.6 29.3 -13.7 62.5 17.6 68.4 84 109.4 68.4 43 162.1 44.9zM252 494.1l142.5 242.2L252 494.1l142.5 242.2H111.3L252 494.1zM5.9 769.5q17.5 66.4 85.9 109.4 66.4 43 160.2 44.9 93.7 -1.9 162.1 -44.9 66.4 -43 83.9 -109.4 5.9 -33.2 -11.7 -62.5L298.8 388.7Q283.2 361.3 252 361.3q-31.3 2 -46.9 27.4L19.5 707Q0 736.3 5.9 769.5z"/></svg>