<svg height="1000" width="1250" xmlns="http://www.w3.org/2000/svg"><path d="M750 -13.7h250H750h250q27.3 0 44.9 17.6t17.6 44.9 -17.6 45 -44.9 17.5H777.3q-17.5 78.2 -89.8 111.4v576.1H1000q27.3 0 44.9 17.6t17.6 44.9 -17.6 45 -44.9 17.5H250q-27.3 0 -44.9 -17.5t-17.6 -45 17.6 -44.9T250 798.8h312.5V222.7Q490.2 189.5 472.7 111.3H250q-27.3 0 -44.9 -17.5t-17.6 -45T205.1 3.9 250 -13.7h250q44.9 -60.5 125 -62.5 80.1 2 125 62.5zm109.4 562.5h283.2H859.4h283.2L1000 306.6 859.4 548.8zM1000 736.3q-93.7 -1.9 -162.1 -44.9 -66.4 -43 -84 -109.4 -5.9 -33.2 13.7 -62.5L953.1 201.2q15.7 -27.4 46.9 -27.4 31.3 2 46.9 27.4l185.5 318.3q19.6 29.3 13.7 62.5 -17.6 66.4 -84 109.4 -68.3 43 -162.1 44.9zM248 306.6L105.5 548.8 248 306.6 105.5 548.8h283.2L248 306.6zM2 582q-5.9 -33.2 13.6 -62.5L201.2 201.2q15.6 -27.4 46.8 -27.4 31.3 2 46.9 27.4l185.6 318.3q19.5 29.3 13.6 62.5 -17.5 66.4 -85.9 109.4 -66.4 43 -160.2 44.9Q154.3 734.4 85.9 691.4 19.5 648.4 2 582z"/></svg>