<svg height="1000" width="1250" xmlns="http://www.w3.org/2000/svg"><path d="M230.5 44.9Q205.1 37.1 193.4 13.7q-9.8 -21.5 -2 -46.9t31.3 -37.1q21.4 -9.8 46.8 -2L490.2 0q45 -72.3 134.8 -76.2 66.4 2 111.3 44.9 43 45 45 111.4v17.6l238.2 80q25.4 7.8 37.1 31.3 9.8 21.5 2 46.9t-31.3 37.1q-21.4 9.7 -46.8 1.9L714.8 207q-11.7 9.8 -27.3 15.7v638.6q0 27.4 -17.6 45T625 923.8H250q-27.3 0 -44.9 -17.5t-17.6 -45 17.6 -44.9T250 798.8h312.5V222.7Q498 193.4 476.6 127L230.5 44.9zm160.1 441.4L250 244.1l140.6 242.2L250 244.1 109.4 486.3h283.2 -2zM250 673.8Q156.3 671.9 87.9 628.9q-66.4 -43 -84 -109.4Q-2 486.3 17.6 457L203.1 138.7q15.7 -27.4 46.9 -27.4 31.3 2 46.9 27.4L482.4 457q19.6 29.3 13.7 62.5 -17.6 66.4 -84 109.4 -68.3 43 -162.1 44.9zM998 494.1L855.5 736.3 998 494.1 855.5 736.3h283.2L998 494.1zm246.1 275.4q-17.5 66.4 -85.9 109.4 -66.4 43 -160.2 44.9 -93.7 -1.9 -162.1 -44.9Q769.5 835.9 752 769.5q-5.9 -33.2 13.6 -62.5L951.2 388.7q15.6 -27.4 46.8 -27.4 31.3 2 46.9 27.4L1230.5 707q19.5 29.3 13.6 62.5z"/></svg>