<svg height="1000" width="1250" xmlns="http://www.w3.org/2000/svg"><path d="M589.8 -66.4q35.2 -19.5 70.4 0l265.6 177.7h230.5q39 2 66.4 27.4 25.3 27.3 27.3 66.4v250q-2 -93.8 -64.5 -154.3Q1125 238.3 1031.3 236.3q-93.8 2 -154.3 64.5 -62.5 60.5 -64.5 154.3v48.8Q753.9 539.1 750 611.3H625q-52.7 2 -87.9 37.1T500 736.3v187.5h125H93.8Q54.7 921.9 27.3 896.5 2 869.1 0 830.1v-625Q2 166 27.3 138.7q27.4 -25.4 66.5 -27.4h230.4L589.8 -66.4zM156.3 330.1v125 -125 125q1.9 29.3 31.2 31.2H250q29.3 -1.9 31.3 -31.2v-125q-2 -29.3 -31.3 -31.3h-62.5q-29.3 2 -31.2 31.3zm0 250v125 -125 125q1.9 29.3 31.2 31.2H250q29.3 -1.9 31.3 -31.2v-125q-2 -29.3 -31.3 -31.3h-62.5q-29.3 2 -31.2 31.3zM625 439.5q97.7 -4 148.4 -86 46.9 -85.9 0 -171.9Q722.7 99.6 625 95.7q-97.7 3.9 -148.4 85.9 -46.9 86 0 171.9 50.7 82 148.4 86zm31.3 -234.4v31.2 -31.2 31.2h31.2q29.3 2 31.3 31.3 -2 29.3 -31.3 31.2H625q-29.3 -1.9 -31.2 -31.2v-62.5q1.9 -29.3 31.2 -31.3 29.3 2 31.3 31.3zm375 187.5q-27.4 0 -45 17.6 -17.5 17.5 -17.5 44.9v93.7h125v-93.7q0 -27.4 -17.6 -44.9t-44.9 -17.6zM875 455.1q2 -66.4 44.9 -111.3 44.9 -43 111.4 -45 66.4 2 111.3 45 42.9 44.9 44.9 111.3v93.7q27.3 0 44.9 17.6t17.6 44.9v250q0 27.4 -17.6 45t-44.9 17.5H875q-27.3 0 -44.9 -17.5t-17.6 -45v-250q0 -27.3 17.6 -44.9T875 548.8v-93.7z"/></svg>