<svg height="1000" width="1125" xmlns="http://www.w3.org/2000/svg"><path d="M562.5 -76.2h218.8H562.5h218.8q29.2 2 31.2 31.3v125q-2 29.3 -31.2 31.2H627l173.8 125H1000q52.7 2 87.9 37.1t37.1 87.9v437.5q-2 52.8 -37.1 87.9t-87.9 37.1H656.3V705.1q-2 -39.1 -27.4 -66.4 -27.3 -25.4 -66.4 -27.4 -39.1 2 -66.4 27.4 -25.4 27.3 -27.3 66.4v218.7H125Q72.3 921.9 37.1 886.7T0 798.8V361.3q2 -52.7 37.1 -87.9T125 236.3h199.2L500 111.3v-125q0 -27.3 17.6 -44.9t44.9 -17.6zm93.8 468.8q-2 -52.8 -46.9 -82.1 -46.9 -23.4 -93.8 0 -44.9 29.3 -46.8 82.1 1.9 52.7 46.8 82 46.9 23.4 93.8 0 44.9 -29.3 46.9 -82zm-500 -31.3q-29.3 2 -31.3 31.3v125q2 29.3 31.3 31.2h62.5Q248 546.9 250 517.6v-125q-2 -29.3 -31.2 -31.3h-62.5zM875 392.6v125 -125 125q2 29.3 31.3 31.2h62.5q29.2 -1.9 31.2 -31.2v-125q-2 -29.3 -31.2 -31.3h-62.5q-29.3 2 -31.3 31.3zM156.3 611.3q-29.3 2 -31.3 31.3v125q2 29.3 31.3 31.2h62.5Q248 796.9 250 767.6v-125q-2 -29.3 -31.2 -31.3h-62.5zm750 0q-29.3 2 -31.3 31.3v125q2 29.3 31.3 31.2h62.5q29.2 -1.9 31.2 -31.2v-125q-2 -29.3 -31.2 -31.3h-62.5z"/></svg>