<svg height="1000" width="1250" xmlns="http://www.w3.org/2000/svg"><path d="M660.2 -66.4q-35.2 -19.5 -70.4 0L324.2 111.3H93.8q-39.1 2 -66.5 27.4Q2 166 0 205.1v625q2 39 27.3 66.4 27.4 25.4 66.5 27.3H500V736.3q2 -52.7 37.1 -87.9T625 611.3q52.7 2 87.9 37.1t37.1 87.9v187.5h406.3q39 -1.9 66.4 -27.3 25.3 -27.4 27.3 -66.4v-625q-2 -39.1 -27.3 -66.4 -27.4 -25.4 -66.4 -27.4H925.8L660.2 -66.4zM187.5 298.8H250h-62.5H250q29.3 2 31.3 31.3v125q-2 29.3 -31.3 31.2h-62.5q-29.3 -1.9 -31.2 -31.2v-125q1.9 -29.3 31.2 -31.3zm781.3 31.3q1.9 -29.3 31.2 -31.3h62.5q29.3 2 31.3 31.3v125q-2 29.3 -31.3 31.2H1000q-29.3 -1.9 -31.2 -31.2v-125zM187.5 548.8H250h-62.5H250q29.3 2 31.3 31.3v125q-2 29.3 -31.3 31.2h-62.5q-29.3 -1.9 -31.2 -31.2v-125q1.9 -29.3 31.2 -31.3zm781.3 31.3q1.9 -29.3 31.2 -31.3h62.5q29.3 2 31.3 31.3v125q-2 29.3 -31.3 31.2H1000q-29.3 -1.9 -31.2 -31.2v-125zM453.1 267.6q3.9 -97.7 86 -148.5 85.9 -46.8 171.8 0 82.1 50.8 86 148.5 -3.9 97.6 -86 148.4 -85.9 46.9 -171.8 0Q457 365.2 453.1 267.6zM625 173.8q-29.3 2 -31.2 31.3v62.5q1.9 29.3 31.2 31.2h62.5q29.3 -1.9 31.3 -31.2 -2 -29.3 -31.3 -31.3h-31.2v-31.2q-2 -29.3 -31.3 -31.3z"/></svg>