<svg height="1000" width="1250" xmlns="http://www.w3.org/2000/svg"><path d="M660.2 -66.4q-35.2 -19.5 -70.4 0L324.2 111.3H93.8q-39.1 2 -66.5 27.4Q2 166 0 205.1v625q2 39 27.3 66.4 27.4 25.4 66.5 27.3H625 500V736.3q2 -52.7 37.1 -87.9T625 611.3h2Q638.7 498 709 418q-37.1 21.5 -84 21.5 -72.3 -2 -121.1 -50.8T453.1 267.6q2 -72.3 50.8 -121.1T625 95.7q72.3 2 121.1 50.8t50.8 121.1q0 54.7 -29.3 95.7 85.9 -62.5 201.2 -64.5 87.8 0 160.1 39.1 74.2 39.1 121.1 107.4V205.1q-2 -39.1 -27.3 -66.4 -27.4 -25.4 -66.4 -27.4H925.8L660.2 -66.4zM187.5 298.8H250h-62.5H250q29.3 2 31.3 31.3v125q-2 29.3 -31.3 31.2h-62.5q-29.3 -1.9 -31.2 -31.2v-125q1.9 -29.3 31.2 -31.3zm0 250H250h-62.5H250q29.3 2 31.3 31.3v125q-2 29.3 -31.3 31.2h-62.5q-29.3 -1.9 -31.2 -31.2v-125q1.9 -29.3 31.2 -31.3zM625 173.8q-29.3 2 -31.2 31.3v62.5q1.9 29.3 31.2 31.2h62.5q29.3 -1.9 31.3 -31.2 -2 -29.3 -31.3 -31.3h-31.2v-31.2q-2 -29.3 -31.3 -31.3zm625 468.8q0 -76.2 -37.1 -140.6 -37.1 -64.5 -103.5 -103.6Q1043 361.3 968.8 361.3t-140.7 37.1Q761.7 437.5 724.6 502t-37.1 140.6 37.1 140.6 103.5 103.5q66.4 37.1 140.7 37.1t140.6 -37.1q66.4 -39 103.5 -103.5T1250 642.6zm-193.4 -84q21.5 -19.5 43 0 19.5 21.5 0 43L959 742.2q-21.5 19.5 -43 0l-78.1 -78.1q-19.5 -21.5 0 -43 21.5 -19.5 43 0l56.6 54.7 119.1 -117.2z"/></svg>