<svg height="1000" width="1000" xmlns="http://www.w3.org/2000/svg"><path d="M500 298.8l-76.2 -76.1 76.2 76.1 -76.2 -76.1q13.7 -37.2 13.7 -80.1Q435.5 48.8 373 -11.7 312.5 -74.2 218.8 -76.2q-93.8 2 -154.3 64.5Q2 48.8 0 142.6q2 93.7 64.5 154.3 60.5 62.5 154.3 64.4 42.9 0 80 -13.6l76.2 76.1L298.8 502q-37.1 -15.7 -80 -15.7 -93.8 2 -154.3 64.5Q2 611.3 0 705.1q2 93.7 64.5 154.3 60.5 62.5 154.3 64.4 93.7 -1.9 154.2 -64.4 62.5 -60.6 64.5 -154.3 0 -43 -13.7 -78.1L974.6 74.2q21.5 -25.4 0 -50.8 -43 -41 -99.6 -41t-99.6 41L500 298.8zm44.9 295l230.5 230.4L544.9 593.8l230.5 230.4q43 41 99.6 41t99.6 -41q21.5 -25.4 0 -50.8L669.9 468.8l-125 125zM125 142.6q2 -52.8 46.9 -82.1 46.9 -23.4 93.7 0 44.9 29.3 46.9 82.1 -2 52.7 -46.9 82 -46.8 23.4 -93.7 0Q127 195.3 125 142.6zm93.8 468.7q52.7 2 82 46.9 23.4 46.9 0 93.8 -29.3 44.9 -82 46.8Q166 796.9 136.7 752q-23.4 -46.9 0 -93.8 29.3 -44.9 82.1 -46.9z"/></svg>