<svg height="1000" width="1000" xmlns="http://www.w3.org/2000/svg"><path d="M154.3 -66.4q-33.2 -21.5 -62.5 3.9L13.7 15.6Q-11.7 44.9 9.8 78.1L166 281.3q13.7 17.5 37.1 17.5h105.5l212.9 212.9q-21.5 43 -13.7 91.8 5.9 46.9 41 84l218.8 218.8q19.5 17.5 44.9 17.5t44.9 -17.5l125 -125q17.6 -19.6 17.6 -45t-17.6 -44.9L763.7 472.7q-37.1 -35.2 -84 -41.1 -48.8 -7.8 -91.8 13.7L375 232.4V127q0 -23.5 -17.6 -37.2L154.3 -66.4zM39.1 697.3Q0 736.3 0 791q2 56.7 39.1 93.8t93.7 39q54.7 0 93.8 -39L457 654.3q-23.4 -62.5 -7.8 -127l-121.1 -121 -289 291zM1000 205.1q0 -31.3 -5.9 -58.6Q988.3 128.9 974.6 125q-15.6 -2 -27.3 9.8l-125 123q-9.8 9.8 -23.5 9.8H687.5q-29.3 -2 -31.2 -31.3V125q0 -13.7 9.7 -23.4l125 -125q11.7 -11.8 7.8 -27.4 -3.9 -13.7 -19.5 -19.5 -29.3 -5.9 -60.5 -5.9Q599.6 -72.3 519.5 5.9q-78.1 80 -82 199.2v1.9l166 166q54.7 -13.6 107.4 0 54.7 15.7 95.7 56.7l31.3 31.2q72.3 -35.1 117.2 -103.5Q998 291 1000 205.1zM109.4 767.6q3.9 -43 46.9 -46.9 42.9 3.9 46.8 46.9 -3.9 42.9 -46.8 46.9 -43 -4 -46.9 -46.9z"/></svg>