<svg height="1000" width="1125" xmlns="http://www.w3.org/2000/svg"><path d="M0 80.1v93.7V80.1v93.7q0 27.4 17.6 45t44.9 17.5h125V80.1Q185.5 41 160.2 13.7 132.8 -11.7 93.8 -13.7q-39.1 2 -66.5 27.4Q2 41 0 80.1zm218.8 -93.8q31.2 41 31.2 93.8v593.7q2 52.8 37.1 87.9t87.9 37.1q52.7 -1.9 87.9 -37.1T500 673.8v-9.7q2 -48.9 33.2 -82.1 33.2 -31.2 82 -33.2h322.3v-375q-2 -80 -54.7 -132.8T750 -13.7H218.8zm687.5 875q93.7 -1.9 154.2 -64.4Q1123 736.3 1125 642.6q-2 -29.3 -31.2 -31.3H615.2q-48.8 3.9 -52.7 52.8v9.7q-2 80.1 -54.7 132.8T375 861.3h531.3z"/></svg>