<svg height="1000" width="1250" xmlns="http://www.w3.org/2000/svg"><path d="M187.5 861.3v-875 875 -875q-2 -27.3 -27.3 -44.9Q132.8 -76.2 93.8 -76.2t-66.5 17.6Q2 -41 0 -13.7v875q2 27.4 27.3 45 27.4 17.5 66.5 17.5t66.4 -17.5q25.3 -17.6 27.3 -45zm812.5 -875H250h750H250v875h750v-875zm156.3 -62.5q-39.1 0 -66.5 17.6 -25.3 17.6 -27.3 44.9v875q2 27.4 27.3 45 27.4 17.5 66.5 17.5t66.4 -17.5q25.3 -17.6 27.3 -45v-875q-2 -27.3 -27.3 -44.9 -27.4 -17.6 -66.4 -17.6zM382.8 537.1q0 -9.8 5.9 -17.6l54.7 -95.7 -56.7 -93.7q-3.9 -9.8 -3.9 -19.6 2 -31.2 35.2 -35.1h111.3l60.5 -105.5q11.8 -19.5 35.2 -19.5 21.5 0 35.2 19.5l60.5 105.5H832q31.3 3.9 35.2 35.1 0 9.8 -3.9 19.6l-56.7 93.7 56.7 95.7q3.9 7.8 3.9 17.6 -2 31.3 -35.2 35.2H720.7l-60.5 105.4q-11.8 19.6 -35.2 19.6t-35.2 -19.6L529.3 572.3H418q-31.3 -3.9 -35.2 -35.2zM625 642.6l41 -70.3 -41 70.3 41 -70.3h-82l41 70.3zM498 423.8l58.6 101.6L498 423.8l58.6 101.6h136.8L752 423.8 693.4 322.3H556.6l-60.5 101.5h1.9zm281.3 46.9L748 525.4l31.3 -54.7L748 525.4h64.5l-33.2 -54.7zm33.2 -148.4H748h64.5H748l31.3 54.7 33.2 -54.7zM625 205.1l-41 70.3 41 -70.3 -41 70.3h82l-41 -70.3zM437.5 322.3l33.2 54.7 -33.2 -54.7 33.2 54.7L502 322.3h-64.5zM502 525.4l-31.3 -54.7 31.3 54.7 -31.3 -54.7 -33.2 54.7H502z"/></svg>