<svg height="1000" width="750" xmlns="http://www.w3.org/2000/svg"><path d="M625 -76.2H275.4 625 275.4q-50.8 0 -87.9 37.1L37.1 111.3Q0 148.4 0 199.2v599.6q2 52.8 37.1 87.9t87.9 37.1h500q52.7 -1.9 87.9 -37.1T750 798.8v-750q-2 -52.7 -37.1 -87.9T625 -76.2zM312.5 95.7v93.8V95.7v93.8q-3.9 42.9 -46.9 46.8 -42.9 -3.9 -46.8 -46.8V95.7q3.9 -43 46.8 -46.9 43 3.9 46.9 46.9zm156.3 0v93.8V95.7v93.8q-4 42.9 -46.9 46.8 -43 -3.9 -46.9 -46.8V95.7q3.9 -43 46.9 -46.9 42.9 3.9 46.9 46.9zm156.2 0v93.8V95.7v93.8q-3.9 42.9 -46.9 46.8 -42.9 -3.9 -46.8 -46.8V95.7q3.9 -43 46.8 -46.9 43 3.9 46.9 46.9z"/></svg>