<svg height="1000" width="1000" xmlns="http://www.w3.org/2000/svg"><path d="M125 -13.7q-52.7 2 -87.9 37.1Q2 58.6 0 111.3v125q2 52.8 37.1 87.9t87.9 37.1h750q52.7 -1.9 87.9 -37.1t37.1 -87.9v-125Q998 58.6 962.9 23.4T875 -13.7H125zM671.9 127q42.9 3.9 46.9 46.8 -4 43 -46.9 46.9 -43 -3.9 -46.9 -46.9 3.9 -42.9 46.9 -46.8zm93.7 46.8q3.9 -42.9 46.9 -46.8 43 3.9 46.9 46.8 -3.9 43 -46.9 46.9 -43 -3.9 -46.9 -46.9zM125 486.3q-52.7 2 -87.9 37.1Q2 558.6 0 611.3v125q2 52.8 37.1 87.9t87.9 37.1h750q52.7 -1.9 87.9 -37.1t37.1 -87.9v-125q-2 -52.7 -37.1 -87.9T875 486.3H125zM671.9 627q42.9 3.9 46.9 46.8 -4 43 -46.9 46.9 -43 -3.9 -46.9 -46.9 3.9 -42.9 46.9 -46.8zm109.4 46.8q3.9 -42.9 46.8 -46.8 43 3.9 46.9 46.8 -3.9 43 -46.9 46.9 -42.9 -3.9 -46.8 -46.9z"/></svg>