<svg height="1000" width="1000" xmlns="http://www.w3.org/2000/svg"><path d="M615.2 -44.9q-17.5 -29.3 -52.7 -31.3 -35.2 2 -52.7 31.3L322.3 267.6q-17.6 31.2 -2 62.5 19.5 29.3 54.7 31.2h375q35.2 -1.9 54.7 -31.2 15.6 -31.3 -2 -62.5L615.2 -44.9zm-52.7 578.1v281.3V533.2v281.3q0 33.2 23.4 54.6 21.5 23.5 54.7 23.5h281.3q33.2 0 54.7 -23.5 23.4 -21.4 23.4 -54.6V533.2q0 -33.2 -23.4 -54.7 -21.5 -23.4 -54.7 -23.4H640.6q-33.2 0 -54.7 23.4 -23.4 21.5 -23.4 54.7zM250 923.8q68.4 0 125 -33.2 56.6 -33.2 91.8 -91.8Q500 740.2 500 673.8t-33.2 -125Q431.6 490.2 375 457T250 423.8 125 457t-91.8 91.8Q0 607.4 0 673.8t33.2 125q35.2 58.6 91.8 91.8t125 33.2z"/></svg>