<svg height="1000" width="1125" xmlns="http://www.w3.org/2000/svg"><path d="M687.5 361.3h-89.8 89.8 -89.8q-68.4 2 -113.3 46.9t-46.9 113.3q5.9 62.5 37.1 78.1 23.4 13.7 25.4 39.1 -3.9 33.2 -35.2 35.1h-3.9q-7.8 0 -13.6 -1.9 -21.5 -7.8 -66.4 -39.1Q334 601.6 293 543T250 392.6q3.9 -119.2 82 -199.2 80.1 -78.2 199.3 -82.1h156.2V-7.8q0 -29.3 19.5 -48.8t48.9 -19.6q25.4 0 44.9 17.6l269.5 242.2q23.5 21.5 23.5 52.7t-23.5 52.8L798.8 533.2q-17.5 15.6 -41 15.6H750q-27.3 0 -44.9 -17.5t-17.6 -45v-125zm-531.2 -250q-29.3 2 -31.3 31.3v625q2 29.3 31.3 31.2h625q29.2 -1.9 31.2 -31.2v-93.8q0 -27.3 17.6 -44.9T875 611.3t44.9 17.6 17.6 44.9v93.8q-2 66.4 -44.9 111.3 -44.9 43 -111.3 44.9h-625Q89.8 921.9 44.9 878.9 2 834 0 767.6v-625Q2 76.2 44.9 31.3q44.9 -43 111.4 -45H250q27.3 0 44.9 17.6t17.6 44.9 -17.6 45T250 111.3h-93.7z"/></svg>