<svg height="1000" width="875" xmlns="http://www.w3.org/2000/svg"><path d="M687.5 361.3q80.1 -1.9 132.8 -54.7Q873 253.9 875 173.8 873 93.8 820.3 41T687.5 -13.7q-80.1 2 -132.8 54.7T500 173.8q0 11.7 2 23.5l-183.6 91.8Q265.6 238.3 187.5 236.3q-80.1 2 -132.8 54.7T0 423.8q2 80.1 54.7 132.8t132.8 54.7q78.1 -1.9 130.9 -52.7L502 650.4q-2 11.7 -2 23.4 2 80.1 54.7 132.8t132.8 54.7q80.1 -1.9 132.8 -54.7T875 673.8q-2 -80 -54.7 -132.8T687.5 486.3q-78.1 2 -130.9 52.8L373 447.3q2 -11.8 2 -23.5t-2 -23.4l183.6 -91.8q52.8 50.8 130.9 52.7z"/></svg>