<svg height="1000" width="750" xmlns="http://www.w3.org/2000/svg"><path d="M0 798.8q2 52.8 37.1 87.9 35.2 35.2 87.9 37.1h312.5v-250q0 -27.3 17.6 -44.9T500 611.3h250V48.8q-2 -52.7 -37.1 -87.9T625 -76.2H125q-52.7 2 -87.9 37.1T0 48.8v750zM334 70.3L146.5 257.8 334 70.3 146.5 257.8q-21.5 19.5 -43 0 -19.5 -21.5 0 -43L291 27.3q21.5 -19.5 43 0 19.5 21.5 0 43zm187.5 62.5L209 445.3 521.5 132.8 209 445.3q-21.5 19.5 -43 0 -19.5 -21.5 0 -43L478.5 89.8q21.5 -19.5 43 0 19.5 21.5 0 43zm228.5 541H500h250H500v250l250 -250z"/></svg>