<svg height="1000" width="875" xmlns="http://www.w3.org/2000/svg"><path d="M62.5 -13.7q-27.3 0 -44.9 17.6Q0 21.5 0 48.8v750q0 27.4 17.6 45t44.9 17.5 44.9 -17.5 17.6 -45V111.3h250q52.7 2 87.9 37.1t37.1 87.9v312.5q0 27.4 17.6 45t44.9 17.5 44.9 -17.5 17.6 -45V236.3Q623 130.9 552.7 58.6 480.5 -11.7 375 -13.7H62.5zm562.5 875q105.5 -1.9 177.7 -72.2Q873 716.8 875 611.3V48.8Q875 21.5 857.4 3.9t-44.9 -17.6T767.6 3.9 750 48.8v562.5q-2 52.8 -37.1 87.9T625 736.3H375V298.8q0 -27.3 -17.6 -44.9t-44.9 -17.6 -44.9 17.6T250 298.8v500q0 27.4 17.6 45t44.9 17.5H625z"/></svg>