<svg height="1000" width="1000" xmlns="http://www.w3.org/2000/svg"><path d="M525.4 -70.3q-11.7 -5.9 -25.4 -5.9t-25.4 5.9L105.5 85.9q-33.2 13.7 -52.8 43 -21.4 29.3 -21.4 68.4 -2 99.6 33.2 234.3t126.9 261.8q89.9 128.9 257.8 212.9 50.8 23.4 101.6 0 168 -84 257.8 -212.9 91.8 -127 126.9 -261.8t33.3 -234.3q0 -39.1 -21.5 -68.4 -19.6 -29.3 -52.8 -43L525.4 -70.3zM281.3 355.5q1.9 -50.8 35.1 -84t84 -35.2q48.8 0 85.9 35.2l13.7 13.7 13.7 -13.7q37.1 -35.2 85.9 -35.2 50.8 2 84 35.2t35.2 84q0 48.8 -35.2 85.9L521.5 601.6q-21.5 19.5 -43 0L316.4 441.4q-33.2 -37.1 -35.1 -85.9z"/></svg>