<svg height="1000" width="1000" xmlns="http://www.w3.org/2000/svg"><path d="M525.4 -70.3q-11.7 -5.9 -25.4 -5.9t-25.4 5.9L105.5 85.9q-33.2 13.7 -52.8 43 -21.4 29.3 -21.4 68.4 -2 99.6 33.2 234.3t126.9 261.8q89.9 128.9 257.8 212.9 50.8 23.4 101.6 0 168 -84 257.8 -212.9 91.8 -127 126.9 -261.8t33.3 -234.3q0 -39.1 -21.5 -68.4 -19.6 -29.3 -52.8 -43L525.4 -70.3zM314.5 482.4q13.6 3.9 29.3 3.9 52.7 -1.9 87.8 -37.1t37.2 -87.9v-125h85.9q39.1 2 56.6 35.2l13.7 27.3h125q29.3 2 31.3 31.3v62.5q-2 66.4 -45 111.3 -44.9 43 -111.3 44.9h-93.7v99.6q-2 23.5 -25.4 25.4 -5.9 0 -9.8 -1.9L302.7 589.8q-21.4 -9.7 -21.4 -33.2 0 -7.8 3.9 -15.6l29.3 -58.6zm-2 -246.1h78.1 -78.1 93.8v125q0 27.4 -17.6 45t-44.9 17.5 -45 -17.5 -17.5 -45v-93.7q1.9 -29.3 31.2 -31.3zm250 93.8q-2 -29.3 -31.2 -31.3 -29.3 2 -31.3 31.3 2 29.3 31.3 31.2 29.2 -1.9 31.2 -31.2z"/></svg>