<svg height="1000" width="1000" xmlns="http://www.w3.org/2000/svg"><path d="M525.4 -70.3q-11.7 -5.9 -25.4 -5.9t-25.4 5.9L105.5 85.9q-33.2 13.7 -52.8 43 -21.4 29.3 -21.4 68.4 -2 99.6 33.2 234.3t126.9 261.8q89.9 128.9 257.8 212.9 50.8 23.4 101.6 0 168 -84 257.8 -212.9 91.8 -127 126.9 -261.8t33.3 -234.3q0 -39.1 -21.5 -68.4 -19.6 -29.3 -52.8 -43L525.4 -70.3zM312.5 224.6q2 -17.6 19.5 -19.5h2q9.8 0 15.6 7.8l78.1 105.5q9.8 11.7 25.4 11.7h93.8q15.6 0 25.4 -11.7l78.1 -105.5q5.9 -7.8 15.6 -7.8 19.5 1.9 21.5 19.5v230.5q-2 80.1 -54.7 132.8T500 642.6q-80.1 -2 -132.8 -54.7T312.5 455.1V224.6zm109.4 261.7q29.3 -1.9 31.2 -31.2 -1.9 -29.3 -31.2 -31.3 -29.3 2 -31.3 31.3 2 29.3 31.3 31.2zm187.5 -31.2q-2 -29.3 -31.3 -31.3 -29.3 2 -31.2 31.3 1.9 29.3 31.2 31.2 29.3 -1.9 31.3 -31.2z"/></svg>