<svg height="1000" width="1000" xmlns="http://www.w3.org/2000/svg"><path d="M525.4 -70.3q-11.7 -5.9 -25.4 -5.9t-25.4 5.9L105.5 85.9q-33.2 13.7 -52.8 43 -21.4 29.3 -21.4 68.4 -2 99.6 33.2 234.3t126.9 261.8q89.9 128.9 257.8 212.9 50.8 23.4 101.6 0 168 -84 257.8 -212.9 91.8 -127 126.9 -261.8t33.3 -234.3q0 -39.1 -21.5 -68.4 -19.6 -29.3 -52.8 -43L525.4 -70.3zM500 142.6q29.3 1.9 31.3 31.2 3.9 48.9 44.9 66.4t78.1 -15.6q23.4 -17.6 44.9 0 17.6 23.4 0 44.9 -33.2 37.1 -15.6 78.2t66.4 44.9q29.3 1.9 31.3 31.2 -2 29.3 -31.3 31.3Q701.2 459 683.6 500t15.6 78.1q17.6 23.5 0 44.9 -23.4 17.6 -44.9 0 -37.1 -33.2 -78.1 -15.6t-44.9 66.4q-2 29.3 -31.3 31.3 -29.3 -2 -31.2 -31.3 -4 -48.8 -45 -66.4T345.7 623q-21.5 17.6 -44.9 0 -17.6 -23.4 0 -44.9Q334 541 316.4 500T250 455.1q-29.3 -2 -31.2 -31.3 1.9 -29.3 31.2 -31.2 48.8 -3.9 66.4 -44.9t-15.6 -78.2q-17.6 -21.5 0 -44.9 23.4 -17.6 44.9 0 37.1 33.2 78.1 15.6t45 -66.4q1.9 -29.3 31.2 -31.2zm-46.9 281.2q43 -3.9 46.9 -46.8 -3.9 -43 -46.9 -46.9Q410.2 334 406.3 377q3.9 42.9 46.8 46.8zm140.7 62.5q-2 -29.3 -31.3 -31.2 -29.3 1.9 -31.2 31.2 1.9 29.3 31.2 31.3 29.3 -2 31.3 -31.3z"/></svg>