<svg height="1000" width="1125" xmlns="http://www.w3.org/2000/svg"><path d="M375 -13.7q0 -27.3 17.6 -44.9 17.6 -17.6 44.9 -17.6h250q27.3 0 44.9 17.6t17.6 44.9v62.5h93.8q39 2 66.4 27.4 25.3 27.3 27.3 66.4v250l85.9 29.3q35.2 13.6 43 44.9 5.9 33.2 -19.5 60.5L849.6 707q-50.8 29.3 -99.6 29.3 -58.6 0 -115.2 -39 -33.2 -23.5 -72.3 -23.5t-72.3 23.5q-50.7 37.1 -115.2 39 -50.8 0 -99.6 -29.3L78.1 527.3Q52.7 500 58.6 466.8q7.8 -31.3 43 -44.9l85.9 -29.3v-250q2 -39.1 27.3 -66.4 27.4 -25.4 66.5 -27.4H375v-62.5zm-62.5 365.3l210.9 -70.3 -210.9 70.3 210.9 -70.3q39.1 -13.7 78.2 0l210.9 70.3V173.8h-500v177.8zM599.6 748Q668 796.9 750 798.8q82 -3.9 150.4 -50.8 41 -25.3 78.1 4 43 35.1 97.7 48.8 25.4 5.8 39 27.3t7.8 46.9 -27.3 39.1 -46.9 7.8Q974.6 902.3 935.5 873 847.7 921.9 750 923.8 654.3 918 593.8 886.7q-17.6 -7.8 -31.3 -15.6 -13.7 7.8 -31.2 15.6Q470.7 918 375 923.8 277.3 921.9 191.4 873q-41 29.3 -115.2 48.9 -25.4 5.8 -46.9 -7.8T2 875t7.8 -46.9 39 -27.3q54.7 -13.7 97.7 -48.8 37.1 -27.4 78.1 -4Q293 794.9 375 798.8q84 -1.9 152.3 -50.8 35.2 -23.4 72.3 0z"/></svg>