<svg height="1000" width="1250" xmlns="http://www.w3.org/2000/svg"><path d="M414.1 -76.2q23.4 2 33.2 25.4Q464.8 7.8 513.7 43 560.5 78.1 625 80.1q64.5 -2 111.3 -37.1 48.9 -35.2 68.4 -93.8 7.8 -23.4 31.2 -25.4h25.4q66.4 0 119.2 43l248 205.1q19.5 17.6 21.5 44.9 2 25.4 -15.6 44.9l-109.4 125q-17.6 19.6 -41 21.5 -25.4 2 -44.9 -13.7l-101.6 -84v488.3q-2 52.8 -37.1 87.9t-87.9 37.1h-375q-52.7 -1.9 -87.9 -37.1t-37.1 -87.9V310.5l-99.6 84q-21.5 15.7 -44.9 13.7 -25.4 -1.9 -43 -21.5L15.6 261.7Q-2 242.2 0 216.8q2 -27.3 23.4 -44.9L269.5 -33.2q52.8 -43 119.2 -43h25.4z"/></svg>