<svg height="1000" width="1250" xmlns="http://www.w3.org/2000/svg"><path d="M812.5 -76.2q-64.5 2 -136.7 15.7 -72.3 15.6 -123.1 31.2Q502 -15.6 500 -13.7v250q68.4 2 117.2 19.6 46.9 19.5 85.9 42.9 39.1 25.4 87.9 43 46.9 19.5 115.3 19.5 58.5 0 138.6 -13.6Q1125 332 1185.5 291q60.6 -39 64.5 -117.2 -2 -78.1 -72.3 -134.7 -68.3 -54.7 -167.9 -86Q908.2 -76.2 812.5 -76.2zM250 111.3q2 52.8 37.1 87.9 35.2 35.2 87.9 37.1h62.5v-250H375q-52.7 2 -87.9 37.1T250 111.3zm312.5 812.5q95.7 0 197.3 -29.3 99.6 -31.2 167.9 -85.9Q998 752 1000 673.8q-3.9 -78.1 -64.5 -117.2Q875 515.6 794.9 500 714.8 486.3 656.3 486.3q-68.4 2 -115.3 19.6 -48.8 19.5 -87.9 42.9 -39 25.4 -85.9 43Q318.4 611.3 250 611.3v250q2 2 52.7 15.7 50.8 15.6 123.1 31.2 72.2 13.7 136.7 15.6zM0 736.3q2 52.8 37.1 87.9 35.2 35.2 87.9 37.1h62.5v-250H125q-52.7 2 -87.9 37.1T0 736.3z"/></svg>