<svg height="1000" width="1250" xmlns="http://www.w3.org/2000/svg"><path d="M76.2 -66.4Q39.1 -89.8 9.8 -58.6q-23.5 37.1 7.8 66.4l1156.2 906.3q37.1 23.4 66.4 -7.8 23.5 -37.2 -7.8 -66.5L1125 755.9V361.3h-125v296.9L750 462.9V361.3H625v3.9l-84 -66.4h636.7q31.3 0 50.8 -21.5 21.5 -19.5 21.5 -50.7 0 -21.5 -11.7 -39.1L1089.8 -35.2q-27.3 -39 -78.1 -41H238.3q-50.8 2 -78.1 41l-15.7 23.5L76.2 -66.4zm-3.9 365.2h166 -166 166L41 144.5l-29.3 43Q0 205.1 0 226.6q0 31.2 21.5 50.7 19.5 21.5 50.8 21.5zm552.7 375H250h375H250V361.3H125v468.8q2 39 27.3 66.4 27.4 25.4 66.5 27.3h437.5q39 -1.9 66.4 -27.3Q748 869.1 750 830.1v-127L625 603.5v70.3z"/></svg>