<svg height="1000" width="1250" xmlns="http://www.w3.org/2000/svg"><path d="M72.3 298.8h806.6H72.3h806.6q60.6 -60.5 152.4 -62.5 91.7 2 152.3 62.5 29.3 -3.9 46.9 -23.4 19.5 -19.5 19.5 -48.8 0 -21.5 -11.7 -39.1L1089.8 -35.2q-27.3 -39 -78.1 -41H238.3q-50.8 2 -78.1 41L11.7 187.5Q0 205.1 0 226.6q0 31.2 21.5 50.7 19.5 21.5 50.8 21.5zM750 361.3H625h125H625v312.5H250V361.3H125v468.8q2 39 27.3 66.4 27.4 25.4 66.5 27.3h437.5q39 -1.9 66.4 -27.3Q748 869.1 750 830.1V361.3zm281.3 31.3q27.3 0 44.9 17.6 17.6 17.5 17.6 44.9v93.7h-125v-93.7q0 -27.4 17.5 -44.9t45 -17.6zM875 455.1v93.7 -93.7 93.7q-27.3 0 -44.9 17.6t-17.6 44.9v250q0 27.4 17.6 45t44.9 17.5h312.5q27.3 0 44.9 -17.5t17.6 -45v-250q0 -27.3 -17.6 -44.9t-44.9 -17.6v-93.7q-2 -66.4 -44.9 -111.3 -44.9 -43 -111.3 -45 -66.5 2 -111.4 45Q877 388.7 875 455.1z"/></svg>