<svg height="1000" width="1250" xmlns="http://www.w3.org/2000/svg"><path d="M72.3 298.8h1105.4H72.3h1105.4q31.3 0 50.8 -21.5 21.5 -19.5 21.5 -50.7 0 -21.5 -11.7 -39.1L1089.8 -35.2q-27.3 -39 -78.1 -41H238.3q-50.8 2 -78.1 41L11.7 187.5Q0 205.1 0 226.6q0 31.2 21.5 50.7 19.5 21.5 50.8 21.5zm52.7 62.5v312.5V361.3v468.8q2 39 27.3 66.4 27.4 25.4 66.5 27.3h437.5q39 -1.9 66.4 -27.3Q748 869.1 750 830.1V361.3H625v312.5H250V361.3H125zm875 0v500 -500 500q0 27.4 17.6 45t44.9 17.5 44.9 -17.5 17.6 -45v-500h-125z"/></svg>