<svg height="1000" width="1000" xmlns="http://www.w3.org/2000/svg"><path d="M125 181.6q0 -29.3 21.5 -48.8 19.5 -21.5 48.8 -21.5t48.8 21.5l33.2 31.3Q246.1 222.7 250 285.2q5.9 64.4 46.9 119.1l-2 2q-27.3 33.2 0 66.4 33.2 27.3 66.4 0L673.8 160.2q27.4 -33.2 0 -66.4 -33.2 -27.4 -66.4 0l-1.9 1.9Q550.8 54.7 488.3 48.8 423.8 44.9 365.2 76.2L334 43Q275.4 -11.7 195.3 -13.7q-84 2 -138.7 56.7T0 181.6v617.2q0 27.4 17.6 45t44.9 17.5 44.9 -17.5 17.6 -45V181.6zm375 429.7q27.3 0 44.9 -17.5 17.6 -17.6 17.6 -45t-17.6 -44.9T500 486.3t-44.9 17.6 -17.6 44.9 17.6 45 44.9 17.5zm125 125q0 -27.3 -17.6 -44.9 -17.6 -17.6 -44.9 -17.6t-44.9 17.6T500 736.3t17.6 45 44.9 17.5 44.9 -17.5 17.6 -45zm0 -250q27.3 0 44.9 -17.5 17.6 -17.6 17.6 -45t-17.6 -44.9T625 361.3t-44.9 17.6 -17.6 44.9 17.6 45 44.9 17.5zm125 125q0 -27.3 -17.6 -44.9 -17.6 -17.6 -44.9 -17.6t-44.9 17.6T625 611.3t17.6 45 44.9 17.5 44.9 -17.5 17.6 -45zm0 -250q27.3 0 44.9 -17.5 17.6 -17.6 17.6 -45t-17.6 -44.9T750 236.3t-44.9 17.6 -17.6 44.9 17.6 45 44.9 17.5zm125 125q0 -27.3 -17.6 -44.9 -17.6 -17.6 -44.9 -17.6t-44.9 17.6T750 486.3t17.6 45 44.9 17.5 44.9 -17.5 17.6 -45zm62.5 -62.5q27.3 0 44.9 -17.5 17.6 -17.6 17.6 -45t-17.6 -44.9 -44.9 -17.6 -44.9 17.6T875 361.3t17.6 45 44.9 17.5z"/></svg>