<svg height="1000" width="1000" xmlns="http://www.w3.org/2000/svg"><path d="M125 -13.7q-52.7 2 -87.9 37.1Q2 58.6 0 111.3q2 52.8 37.1 87.9t87.9 37.1h2q7.8 132.8 99.6 220.7t226.5 91.8h109.4v-375H125q-27.3 0 -44.9 -17.5t-17.6 -45T80.1 66.4 125 48.8h781.3q29.2 -1.9 31.2 -31.2 -2 -29.3 -31.2 -31.3H125zm312.5 828.2q3.9 42.9 46.9 46.8H625V720.7L500 675.8q-41 -9.8 -60.5 29.3 -9.8 41 29.3 60.5l7.8 2q-35.2 7.8 -39.1 46.9zm250 44.9Q794.9 849.6 875 783.2L707 714.8q-9.7 5.9 -19.5 7.9v136.7zm236.3 -125Q998 642.6 1000 517.6q0 -35.2 -7.8 -70.3L748 617.2q2 9.8 2 21.5 0 13.6 -3.9 25.4l177.7 70.3zM656.3 173.8H625h31.3H625v375h35.2q29.3 0 52.7 17.6L972.7 384.8Q933.6 291 849.6 232.4q-84 -56.6 -193.3 -58.6zm-328.2 125Q332 255.9 375 252q43 3.9 46.9 46.8 -3.9 43 -46.9 46.9 -43 -3.9 -46.9 -46.9z"/></svg>