<svg height="1000" width="1000" xmlns="http://www.w3.org/2000/svg"><path d="M789.1 -9.8q37.1 -13.6 68.3 13.7l125 125q17.6 19.5 17.6 44.9t-17.6 45l-125 125q-31.2 27.3 -68.3 11.7T750 298.8v-62.5h-62.5q-31.2 0 -50.8 25.4l-82 109.4L476.6 267.6l60.5 -82.1q58.6 -72.2 150.4 -74.2H750V48.8q2 -41 39.1 -58.6zM320.3 476.6l78.1 103.5L320.3 476.6l78.1 103.5 -60.5 82q-58.6 72.3 -150.4 74.2h-125q-27.3 0 -44.9 -17.5T0 673.8t17.6 -44.9 44.9 -17.6h125q31.3 0 50.8 -25.4l82 -109.3zm537.1 367.2q-31.2 27.3 -68.3 13.6Q752 839.8 750 798.8v-62.5h-62.5q-93.7 -1.9 -150.4 -74.2L238.3 261.7q-19.5 -25.4 -50.8 -25.4h-125q-27.3 0 -44.9 -17.5T0 173.8t17.6 -44.9 44.9 -17.6h125q91.8 2 150.4 74.2l298.8 400.4q19.6 25.4 50.8 25.4H750v-62.5q2 -41 39.1 -58.6 37.1 -13.6 68.3 13.7l125 125q17.6 19.5 17.6 44.9t-17.6 45l-125 125z"/></svg>