<svg height="1000" width="1250" xmlns="http://www.w3.org/2000/svg"><path d="M253.9 861.3q121.1 0 224.6 -62.5l209 -125H250v187.5h3.9zM687.5 173.8l-209 -125 209 125 -209 -125Q375 -13.7 253.9 -13.7H250v187.5h437.5zm-500 0V-13.7v187.5V-13.7h-31.2q-39.1 2 -66.5 27.4Q64.5 41 62.5 80.1v93.7h15.6q-33.2 0 -54.7 23.5Q0 218.8 0 252v343.7q0 33.2 23.4 54.7 21.5 23.4 54.7 23.4H62.5v93.8q2 39 27.3 66.4 27.4 25.4 66.5 27.3h31.2V673.8h15.6q80.1 -1.9 125 -62.5h562.5q103.5 0 193.4 -37.1t156.2 -123q19.6 -27.4 0 -54.7 -66.4 -86 -156.2 -123.1T890.6 236.3H328.1q-44.9 -60.5 -125 -62.5h-15.6zM1000 400.4v48.8 -48.8 48.8q0 29.3 -19.5 48.8t-50.8 19.6q-7.8 0 -7.8 -7.8v-170q0 -7.8 7.8 -9.7 29.3 1.9 50.8 21.5 19.5 19.5 19.5 48.8z"/></svg>