<svg height="1000" width="1000" xmlns="http://www.w3.org/2000/svg"><path d="M187.5 -76.2q27.3 0 44.9 17.6Q250 -41 250 -13.7v62.5h687.5q27.3 0 44.9 17.6t17.6 44.9 -17.6 45 -44.9 17.5H250v687.5q0 27.4 -17.6 45t-44.9 17.5 -44.9 -17.5 -17.6 -45V173.8H62.5q-27.3 0 -44.9 -17.5T0 111.3 17.6 66.4 62.5 48.8H125v-62.5q0 -27.3 17.6 -44.9t44.9 -17.6zM375 236.3h500H375h500q27.3 0 44.9 17.6t17.6 44.9v312.5q0 27.4 -17.6 45T875 673.8H375q-27.3 0 -44.9 -17.5t-17.6 -45V298.8q0 -27.3 17.6 -44.9T375 236.3z"/></svg>