<svg height="1000" width="1000" xmlns="http://www.w3.org/2000/svg"><path d="M437.5 -13.7H125h312.5H125q-27.3 0 -44.9 17.6T62.5 48.8v125q0 27.4 17.6 45t44.9 17.5h736.3q13.7 0 23.5 -9.7l93.7 -93.8q17.6 -21.5 0 -43L884.8 -3.9q-9.8 -9.8 -23.5 -9.8H562.5q0 -27.3 -17.6 -44.9T500 -76.2t-44.9 17.6 -17.6 44.9zm500 437.5q0 -27.3 -17.6 -44.9Q902.3 361.3 875 361.3H562.5v-62.5h-125v62.5H138.7q-13.7 0 -23.5 9.8l-93.7 93.7q-17.6 21.5 0 43l93.7 93.8q9.8 9.7 23.5 9.7H875q27.3 0 44.9 -17.5t17.6 -45v-125zm-375 437.5V673.8v187.5V673.8h-125v187.5q0 27.4 17.6 45t44.9 17.5 44.9 -17.5 17.6 -45z"/></svg>