<svg height="1000" width="1250" xmlns="http://www.w3.org/2000/svg"><path d="M375 173.8q0 -27.3 17.6 -44.9 17.6 -17.6 44.9 -17.6t44.9 17.6 17.6 44.9v15.7q0 80 -13.7 160.1l-164 50.8q-60.6 17.6 -97.7 66.4 -35.1 48.8 -37.1 113.3v140.6q2 58.6 41 99.6 41 39.1 101.6 41 80.1 -1.9 123 -70.3l25.4 -48.8q80.1 -138.7 115.3 -293l183.5 -56.6 -23.4 74.2q-9.8 29.3 7.8 56.6 19.6 25.4 50.8 25.4h250q27.3 0 44.9 -17.5t17.6 -45 -17.6 -44.9 -44.9 -17.6H898.4l35.2 -105.4q11.7 -35.2 -13.7 -62.5 -27.3 -25.4 -62.5 -17.6l-240.2 72.2Q625 250 625 189.5v-15.7Q623 93.8 570.3 41T437.5 -13.7q-80.1 2 -132.8 54.7T250 173.8v62.5q0 27.4 17.6 45t44.9 17.5 44.9 -17.5 17.6 -45v-62.5zm-17.6 345.7l95.7 -29.3 -95.7 29.3 95.7 -29.3q-31.2 99.6 -82 191.4l-27.3 46.9q-5.9 7.8 -15.7 7.8 -13.6 -1.9 -15.6 -15.6V580.1q2 -44.9 44.9 -60.6zM46.9 642.6Q3.9 646.5 0 689.5q3.9 42.9 46.9 46.8H125V642.6H46.9zm1156.2 93.7q43 -3.9 46.9 -46.8 -3.9 -43 -46.9 -46.9H597.7q-19.6 46.9 -43 93.7h648.4z"/></svg>