<svg height="1000" width="1250" xmlns="http://www.w3.org/2000/svg"><path d="M1125 -76.2q27.3 0 44.9 17.6 17.6 17.6 17.6 44.9v875q0 27.4 -17.6 45t-44.9 17.5 -44.9 -17.5 -17.6 -45v-875q0 -27.3 17.6 -44.9t44.9 -17.6zM875 111.3q27.3 0 44.9 17.6 17.6 17.6 17.6 44.9v687.5q0 27.4 -17.6 45T875 923.8t-44.9 -17.5 -17.6 -45V173.8q0 -27.3 17.6 -44.9T875 111.3zm-187.5 250v500 -500 500q0 27.4 -17.6 45T625 923.8t-44.9 -17.5 -17.6 -45v-500q0 -27.3 17.6 -44.9T625 298.8t44.9 17.6 17.6 44.9zM375 486.3q27.3 0 44.9 17.6 17.6 17.6 17.6 44.9v312.5q0 27.4 -17.6 45T375 923.8t-44.9 -17.5 -17.6 -45V548.8q0 -27.3 17.6 -44.9T375 486.3zm-187.5 250v125 -125 125q0 27.4 -17.6 45T125 923.8 80.1 906.3t-17.6 -45v-125q0 -27.3 17.6 -44.9T125 673.8t44.9 17.6 17.6 44.9z"/></svg>