<svg height="1000" width="750" xmlns="http://www.w3.org/2000/svg"><path d="M125 -76.2h349.6H125h349.6q50.8 0 87.9 37.1l150.4 150.4q37.1 37.1 37.1 87.9v599.6q-2 52.8 -37.1 87.9T625 923.8H125Q72.3 921.9 37.1 886.7T0 798.8v-750Q2 -3.9 37.1 -39.1T125 -76.2zm62.5 375q-27.3 0 -44.9 17.6Q125 334 125 361.3v62.5h125v-125h-62.5zM125 611.3h156.3H125h500v-125H125v125zm500 -250q0 -27.3 -17.6 -44.9 -17.6 -17.6 -44.9 -17.6H500v125h125v-62.5zM312.5 298.8v125 -125 125h125v-125h-125zm250 500q27.3 0 44.9 -17.5 17.6 -17.6 17.6 -45v-62.5H500v125h62.5zm-250 -125v125 -125 125h125v-125h-125zM125 736.3q0 27.4 17.6 45 17.6 17.5 44.9 17.5H250v-125H125v62.5z"/></svg>