<svg height="1000" width="1000" xmlns="http://www.w3.org/2000/svg"><path d="M562.5 111.3q0 -27.3 17.6 -44.9Q597.7 48.8 625 48.8t44.9 17.6 17.6 44.9 17.6 45 44.9 17.5 44.9 -17.5 17.6 -45q-2 -80 -54.7 -132.8T625 -76.2q-80.1 2 -132.8 54.7t-54.7 132.8v375h-125v-46.8q-2 -46.9 -31.2 -78.2Q250 332 203.1 330.1h-93.7Q66.4 334 62.5 377q3.9 42.9 46.9 46.8h93.7q13.7 2 15.7 15.7v46.8H62.5q-27.3 0 -44.9 17.6T0 548.8t17.6 45 44.9 17.5h875q27.3 0 44.9 -17.5t17.6 -45 -17.6 -44.9 -44.9 -17.6H781.3v-46.8q1.9 -13.7 15.6 -15.7h109.4q42.9 -3.9 46.8 -46.8 -3.9 -43 -46.8 -46.9H796.9Q750 332 718.8 361.3q-29.3 31.3 -31.3 78.2v46.8h-125v-375zm375 625v-62.5 62.5 -62.5h-875v62.5q2 80.1 54.7 132.8T250 923.8h500q80.1 -1.9 132.8 -54.7t54.7 -132.8z"/></svg>