<svg height="1000" width="1000" xmlns="http://www.w3.org/2000/svg"><path d="M812.5 703.1q85.9 -60.5 136.7 -148.4Q998 466.8 1000 361.3q-2 -123 -68.4 -220.7Q865.2 41 752 -15.6 640.6 -74.2 500 -76.2q-140.6 2 -252 60.6Q134.8 41 68.4 140.6 2 238.3 0 361.3q2 103.5 50.8 193.4 50.8 87.9 136.7 148.4v127q2 39 27.3 66.4 27.4 25.4 66.5 27.3H375v-93.7q2 -29.3 31.3 -31.3 29.2 2 31.2 31.3v93.7h125v-93.7q2 -29.3 31.3 -31.3 29.2 2 31.2 31.3v93.7h93.8q39 -1.9 66.4 -27.3 25.3 -27.4 27.3 -66.4v-127zm-625 -279.3q2 -70.3 62.5 -107.4 62.5 -35.1 125 0 60.5 37.1 62.5 107.4 -2 70.3 -62.5 107.5 -62.5 35.1 -125 0Q189.5 494.1 187.5 423.8zm500 -125q70.3 2 107.4 62.5 35.2 62.5 0 125 -37.1 60.6 -107.4 62.5 -70.3 -1.9 -107.4 -62.5 -35.2 -62.5 0 -125 37.1 -60.5 107.4 -62.5z"/></svg>