<svg height="1000" width="875" xmlns="http://www.w3.org/2000/svg"><path d="M718.8 173.8q0 66.4 -35.2 119.2 -33.2 54.7 -89.8 87.9v42.9q0 27.4 -17.6 45t-44.9 17.5H343.8q-27.4 0 -45 -17.5t-17.5 -45v-42.9Q224.6 347.7 191.4 293 156.3 240.2 156.3 173.8q3.9 -105.4 82 -177.7 80.1 -70.3 199.2 -72.3 119.1 2 199.2 72.3 78.1 72.3 82.1 177.7zm-390.7 93.8q27.4 0 44.9 -17.6 17.6 -17.6 17.6 -44.9T373 160.2t-44.9 -17.6 -44.9 17.6 -17.6 44.9 17.6 44.9 44.9 17.6zm281.3 -62.5q0 -27.4 -17.6 -44.9 -17.6 -17.6 -44.9 -17.6T502 160.2t-17.6 44.9T502 250t44.9 17.6T591.8 250t17.6 -44.9zM5.9 459Q19.5 435.5 43 427.7q23.4 -7.8 46.8 2l347.7 173.8L785.2 429.7q23.4 -9.8 46.8 -2t37.1 31.3q9.8 23.4 2 46.9T839.8 543L578.1 673.8l261.7 130.9q23.5 13.7 31.3 37.1t-2 46.9q-13.6 23.4 -37.1 31.2T785.2 918L437.5 744.1 89.8 918q-23.4 9.7 -46.8 1.9T5.9 888.7q-9.8 -23.5 -2 -46.9t31.3 -37.1L296.9 673.8 35.2 543Q11.7 529.3 3.9 505.9t2 -46.9z"/></svg>