<svg height="1000" width="1250" xmlns="http://www.w3.org/2000/svg"><path d="M62.5 -13.7q-27.3 0 -44.9 17.6Q0 21.5 0 48.8t17.6 45 44.9 17.5v312.5q2 80.1 54.7 132.8T250 611.3v62.5h125v-62.5h375v62.5h125v-62.5q80.1 -1.9 132.8 -54.7t54.7 -132.8V236.3q27.3 0 44.9 -17.5t17.6 -45 -17.6 -44.9 -44.9 -17.6h-125q-27.3 0 -44.9 17.6T875 173.8v80.1q-2 46.9 -31.2 76.2t-76.2 31.2q-111.3 0 -207.1 -52.7T406.3 160.2l-9.8 -13.7Q353.5 78.1 285.2 37.1q-66.4 -41 -146.5 -48.8 -7.8 -2 -13.7 -2H62.5zM1250 673.8q0 -27.3 -17.6 -44.9 -17.6 -17.6 -44.9 -17.6t-44.9 17.6 -17.6 44.9v15.7q-3.9 42.9 -46.9 46.8H125q-27.3 0 -44.9 17.6t-17.6 44.9 17.6 45 44.9 17.5h953.1q72.3 -1.9 121.1 -50.8t50.8 -121v-15.7z"/></svg>