<svg height="1000" width="1000" xmlns="http://www.w3.org/2000/svg"><path d="M0 736.3q0 27.4 17.6 45 17.6 17.5 44.9 17.5h107.4q17.6 43 56.7 68.4 37.1 25.4 85.9 25.4t85.9 -25.4q39.1 -25.4 56.7 -68.4h482.4q27.3 0 44.9 -17.5t17.6 -45 -17.6 -44.9 -44.9 -17.6H455.1q-17.6 -42.9 -56.7 -68.3 -37.1 -25.4 -85.9 -25.4t-85.9 25.4q-39.1 25.4 -56.7 68.3H62.5q-27.3 0 -44.9 17.6T0 736.3zm250 0q0 -27.3 17.6 -44.9 17.6 -17.6 44.9 -17.6t44.9 17.6 17.6 44.9 -17.6 45 -44.9 17.5 -44.9 -17.5 -17.6 -45zM625 423.8q0 -27.3 17.6 -44.9 17.6 -17.6 44.9 -17.6t44.9 17.6 17.6 44.9 -17.6 45 -44.9 17.5 -44.9 -17.5 -17.6 -45zm62.5 -156.2q-48.8 0 -85.9 25.4 -39.1 25.4 -56.7 68.3H62.5q-27.3 0 -44.9 17.6T0 423.8t17.6 45 44.9 17.5h482.4q17.6 43 56.7 68.4 37.1 25.4 85.9 25.4t85.9 -25.4q39.1 -25.4 56.7 -68.4h107.4q27.3 0 44.9 -17.5t17.6 -45 -17.6 -44.9 -44.9 -17.6H830.1Q812.5 318.4 773.4 293q-37.1 -25.4 -85.9 -25.4zM375 173.8q-27.3 0 -44.9 -17.5 -17.6 -17.6 -17.6 -45t17.6 -44.9T375 48.8t44.9 17.6 17.6 44.9 -17.6 45T375 173.8zm142.6 -125Q500 5.9 460.9 -19.5 423.8 -44.9 375 -44.9t-85.9 25.4Q250 5.9 232.4 48.8H62.5q-27.3 0 -44.9 17.6T0 111.3t17.6 45 44.9 17.5h169.9q17.6 43 56.7 68.4 37.1 25.4 85.9 25.4t85.9 -25.4q39.1 -25.4 56.7 -68.4h419.9q27.3 0 44.9 -17.5t17.6 -45T982.4 66.4 937.5 48.8H517.6z"/></svg>