<svg height="1000" width="1250" xmlns="http://www.w3.org/2000/svg"><path d="M62.5 205.1q3.9 119.1 82 199.2 80.1 78.1 199.3 82H584q68.3 60.6 166 62.5 97.7 -1.9 166 -62.5h52.8q93.7 -1.9 154.2 -64.4 62.5 -60.6 64.5 -154.3 -2 -93.8 -64.5 -154.3Q1062.5 50.8 968.8 48.8q-31.3 0 -60.6 7.8Q877 -3.9 818.4 -39.1 759.8 -76.2 687.5 -76.2q-97.7 2 -166 62.5Q447.3 -74.2 343.8 -76.2 224.6 -72.3 144.5 5.9q-78.1 80 -82 199.2zm1140.6 437.5H546.9h656.2H546.9q-43 3.9 -46.9 46.9 3.9 42.9 46.9 46.8h656.2q43 -3.9 46.9 -46.8 -3.9 -43 -46.9 -46.9zm-125 187.5H859.4h218.7H859.4q-43 3.9 -46.9 46.9 3.9 42.9 46.9 46.8h218.7q43 -3.9 46.9 -46.8 -3.9 -43 -46.9 -46.9zm-375 0H46.9h656.2H46.9Q3.9 834 0 877q3.9 42.9 46.9 46.8h656.2q43 -3.9 46.9 -46.8 -3.9 -43 -46.9 -46.9zM437.5 689.5q-3.9 -43 -46.9 -46.9H187.5q-43 3.9 -46.9 46.9 3.9 42.9 46.9 46.8h203.1q43 -3.9 46.9 -46.8z"/></svg>