<svg height="1000" width="1250" xmlns="http://www.w3.org/2000/svg"><path d="M875 -13.7V7.8v-21.5V7.8Q877 123 957 207l41 41q62.5 64.5 64.5 154.3v21.5q0 27.4 -17.6 45t-44.9 17.5 -44.9 -17.5 -17.6 -45v-21.5q0 -39 -27.3 -66.4l-41.1 -41Q752 175.8 750 7.8v-21.5q0 -27.3 17.6 -44.9t44.9 -17.6 44.9 17.6 17.6 44.9zm250 437.5v-21.5 21.5 -21.5q-2 -115.2 -82 -199.2l-41 -41Q939.5 97.7 937.5 7.8v-21.5q0 -27.3 17.6 -44.9t44.9 -17.6 44.9 17.6 17.6 44.9V7.8q0 39.1 27.3 66.4l41.1 41Q1248 234.4 1250 402.3v21.5q0 27.4 -17.6 45t-44.9 17.5 -44.9 -17.5 -17.6 -45zM0 736.3q2 -52.7 37.1 -87.9Q72.3 613.3 125 611.3h687.5q27.3 0 44.9 17.6t17.6 44.9v187.5q0 27.4 -17.6 45t-44.9 17.5H125Q72.3 921.9 37.1 886.7T0 798.8v-62.5zm437.5 0v62.5 -62.5 62.5H750v-62.5H437.5zm562.5 -125q27.3 0 44.9 17.6 17.6 17.6 17.6 44.9v187.5q0 27.4 -17.6 45t-44.9 17.5 -44.9 -17.5 -17.6 -45V673.8q0 -27.3 17.6 -44.9t44.9 -17.6zm187.5 0q27.3 0 44.9 17.6 17.6 17.6 17.6 44.9v187.5q0 27.4 -17.6 45t-44.9 17.5 -44.9 -17.5 -17.6 -45V673.8q0 -27.3 17.6 -44.9t44.9 -17.6z"/></svg>