<svg height="1000" width="875" xmlns="http://www.w3.org/2000/svg"><path d="M437.5 -76.2q27.3 0 44.9 17.6Q500 -41 500 -13.7v58.6l29.3 -29.3q33.2 -27.3 66.4 0 27.3 33.2 0 66.4L500 177.7v136.8l119.1 -68.4 35.2 -130.9q15.6 -39 56.6 -33.2 41.1 15.7 33.2 58.6l-9.7 37.1 46.9 -27.3q23.4 -11.7 46.8 -5.9t39.1 29.3q11.7 23.5 5.8 46.9t-29.2 39.1l-48.9 27.3 43 11.7q39.1 15.7 33.2 58.6 -15.6 39.1 -58.6 33.2L679.7 355.5l-117.2 68.3 117.2 70.3L812.5 457q43 -5.8 56.6 33.2 7.9 43 -33.2 58.6l-41 11.7 48.9 27.4q23.4 15.6 29.2 39.1t-5.8 46.8q-15.6 23.5 -39.1 29.3t-46.8 -5.8l-46.9 -27.4 9.7 37.1q7.9 43 -33.2 58.6 -41 5.9 -56.6 -33.2L619.1 601.6 500 533.2v136.7l95.7 95.7q27.3 33.2 0 66.4 -33.2 27.4 -66.4 0L500 802.7v58.6q0 27.4 -17.6 45t-44.9 17.5 -44.9 -17.5 -17.6 -45v-58.6L345.7 832q-33.2 27.4 -66.4 0 -27.3 -33.2 0 -66.4L375 669.9V533.2l-119.1 70.3 -35.2 128.9q-15.6 39.1 -56.6 33.2Q123 750 130.9 707l9.7 -37.1 -46.8 27.4Q70.3 709 46.9 703.1 21.5 697.3 7.8 673.8 -3.9 650.4 2 627q5.8 -25.4 29.3 -39.1l48.8 -27.4 -43 -11.7Q-2 533.2 3.9 490.2q15.6 -39 58.6 -33.2l130.9 35.2 121.1 -68.4L195.3 355.5 62.5 390.6q-43 5.9 -56.6 -33.2Q-2 314.5 39.1 298.8l41 -11.7L31.3 259.8Q7.8 244.1 2 220.7t5.8 -46.9q15.6 -23.4 39.1 -29.3t46.9 5.9l46.8 27.3 -9.7 -37.1Q123 97.7 164.1 82q41 -5.8 56.6 33.2l35.2 130.9L375 314.5V177.7L279.3 82q-27.3 -33.2 0 -66.4 33.2 -27.3 66.4 0L375 44.9v-58.6q0 -27.3 17.6 -44.9t44.9 -17.6z"/></svg>