<svg height="1000" width="1250" xmlns="http://www.w3.org/2000/svg"><path d="M584 48.8l134.8 312.5L584 48.8l134.8 312.5H500l-125 -125V48.8h209zm285.1 349.6L699.2 0l169.9 398.4L699.2 0Q664.1 -72.3 584 -76.2H343.8q-39.1 2 -66.5 27.4Q252 -21.5 250 17.6v218.7h-62.5q-27.3 0 -44.9 17.6T125 298.8v209q-56.6 27.4 -89.8 78.1Q0 638.7 0 705.1q2 93.7 64.5 154.3 60.5 62.5 154.3 64.4h500q93.7 -1.9 154.2 -64.4 62.5 -60.6 64.5 -154.3 0 -50.8 -21.5 -93.8h84v99.6q0 50.8 37.1 87.9l105.5 107.5q19.5 17.5 44.9 17.5t44.9 -17.5q17.6 -19.6 17.6 -45t-17.6 -44.9L1125 710.9V382.8l111.3 -138.7q15.7 -21.4 13.7 -46.8 -3.9 -23.5 -23.4 -41 -21.5 -15.7 -46.9 -13.7 -23.4 3.9 -41 23.4l-111.4 138.7q-27.3 35.1 -27.3 78.1v103.5H875v-60.5q0 -7.8 -2 -13.7 0 -7.8 -3.9 -13.7zM718.8 611.3q39 2 66.4 27.4 25.3 27.3 27.3 66.4 -2 39 -27.3 66.4 -27.4 25.4 -66.4 27.3h-500q-39.1 -1.9 -66.5 -27.3Q127 744.1 125 705.1q2 -39.1 27.3 -66.4 27.4 -25.4 66.5 -27.4h500zm-437.5 93.8q-4 -43 -46.9 -46.9 -43 3.9 -46.9 46.9 3.9 42.9 46.9 46.9 42.9 -4 46.9 -46.9zM703.1 752q43 -4 46.9 -46.9 -3.9 -43 -46.9 -46.9 -42.9 3.9 -46.8 46.9 3.9 42.9 46.8 46.9zM593.8 705.1q-4 -43 -46.9 -46.9 -43 3.9 -46.9 46.9 3.9 42.9 46.9 46.9 42.9 -4 46.9 -46.9zM390.6 752q43 -4 46.9 -46.9 -3.9 -43 -46.9 -46.9 -42.9 3.9 -46.8 46.9 3.9 42.9 46.8 46.9z"/></svg>