<svg height="1000" width="1000" xmlns="http://www.w3.org/2000/svg"><path d="M666 199.2q-5.8 11.7 2 23.5 21.5 23.4 35.1 54.6l93.8 -41v-78.1q3.9 -43 46.9 -46.9 42.9 3.9 46.8 46.9v39.1l44.9 -19.6q41.1 -13.6 60.6 25.4 13.7 41 -25.4 60.6l-109.4 46.8L718.8 373q-2 27.4 -9.8 52.8 -3.9 11.7 5.8 21.5 93.8 87.9 97.7 226.5 -3.9 134.8 -93.7 222.7 -31.3 27.3 -72.3 27.3h-293q-41 0 -72.2 -27.3Q191.4 808.6 187.5 673.8q3.9 -138.6 97.7 -226.5 9.7 -9.8 5.8 -21.5 -7.8 -25.4 -9.7 -52.8L138.7 310.5 29.3 263.7Q-9.8 242.2 3.9 203.1q19.5 -39 60.6 -25.4l44.9 19.6v-39.1q3.9 -43 46.9 -46.9 42.9 3.9 46.8 46.9v78.1l95.7 41q11.7 -31.2 33.2 -54.6 7.8 -11.8 2 -23.5 -21.5 -41 -21.5 -87.9 2 -80 54.7 -132.8T500 -76.2q80.1 2 132.8 54.7t54.7 132.8q0 46.9 -21.5 87.9zM437.5 111.3q29.3 -1.9 31.3 -31.2 -2 -29.3 -31.3 -31.3 -29.3 2 -31.2 31.3 1.9 29.3 31.2 31.2zm93.8 250Q529.3 332 500 330.1q-29.3 1.9 -31.2 31.2 1.9 29.3 31.2 31.3 29.3 -2 31.3 -31.3zM500 517.6q29.3 -2 31.3 -31.3Q529.3 457 500 455.1q-29.3 1.9 -31.2 31.2 1.9 29.3 31.2 31.3zm31.3 93.7Q529.3 582 500 580.1q-29.3 1.9 -31.2 31.2 1.9 29.3 31.2 31.3 29.3 -2 31.3 -31.3zm31.2 -500q29.3 -1.9 31.3 -31.2 -2 -29.3 -31.3 -31.3 -29.3 2 -31.2 31.3 1.9 29.3 31.2 31.2zm-93.7 46.9v5.9 -5.9 5.9q0 9.7 3.9 17.5l17.5 33.2q3.9 5.9 9.8 5.9t9.8 -5.9l17.5 -33.2q4 -7.8 4 -17.5v-5.9Q529.3 128.9 500 127q-29.3 1.9 -31.2 31.2z"/></svg>