<svg height="1000" width="1000" xmlns="http://www.w3.org/2000/svg"><path d="M406.3 111.3q52.7 -1.9 82 -46.8 23.4 -46.9 0 -93.8 -29.3 -44.9 -82 -46.9 -52.8 2 -82.1 46.9 -23.4 46.9 0 93.8 29.3 44.9 82.1 46.8zM625 423.8q70.3 -1.9 107.4 -62.5 35.2 -62.5 0 -125Q695.3 175.8 625 173.8q-70.3 2 -107.4 62.5 -35.2 62.5 0 125 37.1 60.6 107.4 62.5zM812.5 -13.7q0 -27.3 -17.6 -44.9Q777.3 -76.2 750 -76.2t-44.9 17.6 -17.6 44.9 17.6 45T750 48.8t44.9 -17.5 17.6 -45zm0 312.5q-2 84 -58.6 136.7 52.7 21.5 85.9 68.4Q875 550.8 875 611.3q-2 80.1 -54.7 132.8t-132.8 54.7h-375q-80.1 -1.9 -132.8 -54.7T125 611.3q2 -80 54.7 -132.8t132.8 -54.7h171.9Q439.5 373 437.5 298.8h-250q-80.1 2 -132.8 54.7T0 486.3v250q2 80.1 54.7 132.8t132.8 54.7h625q80.1 -1.9 132.8 -54.7T1000 736.3v-250q-2 -80 -54.7 -132.8T812.5 298.8zm-500 187.5q-52.7 2 -87.9 37.1 -35.1 35.2 -37.1 87.9 2 52.8 37.1 87.9t87.9 37.1h375q52.7 -1.9 87.9 -37.1t37.1 -87.9q-2 -52.7 -37.1 -87.9t-87.9 -37.1h-375z"/></svg>