<svg height="1000" width="1000" xmlns="http://www.w3.org/2000/svg"><path d="M341.8 855.5Q312.5 800.8 312.5 736.3q2 -123 99.6 -199.2l125 -93.7q25.4 -19.6 25.4 -50.8V111.3H250v281.3q-2 62.5 -50.8 99.6l-125 93.7Q2 644.5 0 736.3q2 80.1 54.7 132.8t132.8 54.7q62.5 0 113.3 -37.1l41 -31.2zM250 48.8h312.5H250h312.5V17.6q0 -43 21.5 -78.1 -23.5 -15.7 -52.7 -15.7H343.8q-39.1 2 -66.5 27.4Q252 -21.5 250 17.6v31.2zm375 62.5v281.3V111.3v281.3q-2 62.5 -50.8 99.6l-125 93.7Q377 644.5 375 736.3q2 80.1 54.7 132.8t132.8 54.7q62.5 0 113.3 -37.1L900.4 716.8Q998 640.6 1000 517.6V111.3H625zm375 -62.5V17.6v31.2V17.6q-2 -39.1 -27.3 -66.4 -27.4 -25.4 -66.4 -27.4H718.8q-39.1 2 -66.5 27.4Q627 -21.5 625 17.6v31.2h375z"/></svg>