<svg height="1000" width="1250" xmlns="http://www.w3.org/2000/svg"><path d="M238.3 -76.2q-44.9 0 -78.1 27.4 -35.2 29.3 -43 72.2l-101.6 500Q5.9 584 43 628.9q35.1 43 95.7 44.9h423.8v125h-125q-27.3 0 -44.9 17.6T375 861.3t17.6 45 44.9 17.5h375q27.3 0 44.9 -17.5t17.6 -45 -17.6 -44.9 -44.9 -17.6h-125v-125h423.8q60.6 -1.9 97.7 -44.9 35.1 -44.9 25.4 -105.5l-99.6 -500q-9.8 -42.9 -45 -72.2 -33.2 -27.4 -78.1 -27.4H238.3zm271.5 125h230.4H509.8h230.4L759.8 252H488.3L509.8 48.8zM394.5 252H199.2h195.3H199.2L238.3 48.8H416L394.5 252zm-214.8 93.7h205.1H179.7h205.1l-19.6 203.1H138.7l41 -203.1zm300.8 0h289 -289 289L791 548.8H459l21.5 -203.1zm384.7 0h205.1H865.2h205.1l41 203.1H884.8L865.2 345.7zM1052.7 252H855.5h197.2H855.5L834 48.8h177.7l60.6 -11.7 -60.6 11.7 41 203.2z"/></svg>