<svg height="1000" width="1125" xmlns="http://www.w3.org/2000/svg"><path d="M357.4 382.8q99.6 62.5 168 158.2 19.5 29.3 37.1 60.6 17.6 -31.3 37.1 -60.6 68.4 -95.7 168 -158.2 132.8 -82 298.8 -84h19.5q35.2 3.9 39.1 39.1 -2 146.5 -72.3 263.7Q984.4 720.7 865.2 789.1 748 859.4 601.6 861.3h-78.2Q377 859.4 259.8 789.1 140.6 720.7 72.3 601.6 2 484.4 0 337.9q3.9 -35.2 39.1 -39.1h19.5q166 2 298.8 84zM589.8 -2q25.4 23.5 76.2 103.6 50.8 82 87.9 216.8Q640.6 382.8 562.5 486.3 484.4 382.8 371.1 318.4 408.2 183.6 459 101.6 509.8 21.5 537.1 -2q9.8 -11.7 25.4 -11.7T589.8 -2z"/></svg>