<svg height="1000" width="1250" xmlns="http://www.w3.org/2000/svg"><path d="M406.3 48.8Q404.3 19.5 375 17.6q-29.3 1.9 -31.2 31.2 1.9 29.3 31.2 31.3 29.3 -2 31.3 -31.3zm93.7 0q0 48.9 -31.2 82.1l31.2 62.5q52.7 -19.6 125 -19.6t125 19.6l31.3 -62.5Q752 97.7 750 48.8q2 -52.7 37.1 -87.9T875 -76.2q52.7 2 87.9 37.1t37.1 87.9q-2 52.8 -37.1 87.9T875 173.8h-9.8l-29.3 58.6q60.6 41 99.6 89.9 17.6 21.5 33.3 41 1.9 3.9 3.9 5.8l3.9 3.9q17.5 23.5 33.2 41.1 29.3 29.3 37.1 25.4 5.8 0 13.6 -5.9 9.8 -9.8 25.4 -35.2v-1.9q13.7 -23.5 39.1 -48.8 27.3 -31.3 78.1 -33.2 43 3.9 46.9 46.8 -3.9 43 -46.9 46.9 -5.8 0 -13.6 5.9 -9.8 9.7 -25.4 35.1v2q-13.7 23.4 -39.1 48.8 -27.3 31.3 -78.1 33.2 -52.8 -3.9 -86 -37.1 -9.7 11.7 -21.4 25.4 1.9 1.9 1.9 5.8 3.9 9.8 5.9 19.6 1.9 1.9 1.9 5.8 2 5.9 3.9 9.8 0 2 2 5.9 5.8 25.4 13.7 44.9 11.7 27.3 21.4 37.1 5.9 7.8 25.4 7.8 21.5 0 66.4 -25.4 21.5 -13.7 52.8 -25.4 29.3 -11.7 68.3 -11.7 43 3.9 46.9 46.9 -3.9 42.9 -46.9 46.9 -37.1 1.9 -78.1 25.3 -2 2 -3.9 2l-2 2q-19.5 11.7 -44.9 21.4 -27.3 11.8 -58.6 11.8 -54.7 0 -87.9 -33.2t-44.9 -70.4q-11.7 -27.3 -19.5 -56.6Q816.4 628.9 748 654.3q11.8 31.2 29.3 70.3 21.5 46.9 50.8 78.1 27.4 29.3 46.9 27.4 43 3.9 46.9 46.9Q918 919.9 875 923.8 800.8 918 759.8 867.2q-43 -46.9 -68.4 -103.5Q668 712.9 656.3 671.9q-15.7 1.9 -31.3 1.9t-31.2 -1.9q-11.8 41 -35.2 91.8 -25.4 56.6 -66.4 103.5Q449.2 918 375 923.8 332 919.9 328.1 877 332 834 375 830.1q19.5 1.9 48.8 -27.4 27.4 -31.2 48.9 -78.1 17.5 -39.1 29.3 -70.3Q433.6 628.9 386.7 591.8v2l-19.5 54.6q-11.7 37.1 -43 70.4Q289.1 752 234.4 752q-64.5 -5.9 -103.5 -33.2 -3.9 -2 -5.9 -4Q84 691.4 46.9 689.5 3.9 685.5 0 642.6q3.9 -43 46.9 -46.9 39 0 70.3 11.7 29.3 11.7 50.8 25.4 44.9 25.4 66.4 25.4 19.5 0 25.4 -7.8 9.7 -9.8 21.5 -37.1 7.8 -21.5 15.6 -50.8l3.9 -7.8q0 -3.9 1.9 -7.8 2 -9.8 5.9 -19.6 0 -3.9 1.9 -5.8 -11.7 -13.7 -21.4 -25.4 -33.2 33.2 -86 37.1Q152.3 531.3 125 500 99.6 474.6 85.9 451.2v-2Q70.3 423.8 60.5 414.1q-7.8 -5.9 -13.6 -5.9Q3.9 404.3 0 361.3q3.9 -42.9 46.9 -46.8 50.8 1.9 78.1 33.2 25.4 25.3 39.1 48.8v1.9q15.6 25.4 25.4 35.2 7.8 5.9 13.6 5.9 7.8 3.9 37.1 -25.4 15.7 -17.6 33.2 -41.1l3.9 -3.9q2 -1.9 4 -5.8 15.6 -19.5 33.2 -41 39 -48.9 99.6 -89.9l-29.3 -58.6H375q-52.7 -1.9 -87.9 -37.1T250 48.8q2 -52.7 37.1 -87.9T375 -76.2q52.7 2 87.9 37.1T500 48.8zm406.3 0Q904.3 19.5 875 17.6q-29.3 1.9 -31.2 31.2 1.9 29.3 31.2 31.3 29.3 -2 31.3 -31.3z"/></svg>