<svg height="1000" width="1125" xmlns="http://www.w3.org/2000/svg"><path d="M218.8 -76.2q-41.1 2 -56.7 39.1L31.3 275.4 5.9 337.9q-9.8 23.4 -2 46.9 9.8 23.4 35.2 35.1 23.4 7.8 46.8 0 23.5 -9.7 35.2 -35.1l9.8 -23.5h175.7l11.8 23.5q9.7 25.4 33.2 35.1 23.4 7.8 46.8 0 25.4 -11.7 35.2 -35.1 7.8 -23.5 0 -46.9l-27.3 -62.5 -129 -312.5q-17.5 -37.1 -58.5 -39.1zm37.1 312.5h-74.3 74.3 -74.3l37.2 -87.9 37.1 87.9zM500 -13.7v187.5V-13.7v375q0 27.4 17.6 45t44.9 17.5h156.3q66.4 -1.9 111.3 -44.9Q873 334 875 267.6q-2 -70.3 -48.8 -113.3 17.6 -33.2 17.6 -74.2 -2 -66.4 -45 -111.4Q753.9 -74.2 687.5 -76.2h-125q-27.3 0 -44.9 17.6T500 -13.7zm187.5 125H625h62.5H625V48.8h62.5q29.3 2 31.3 31.3 -2 29.3 -31.3 31.2zm-62.5 125h62.5H625h93.8q29.2 2 31.2 31.3 -2 29.3 -31.2 31.2H625v-62.5zm482.4 295q17.6 -19.6 17.6 -45t-17.6 -44.9q-19.5 -17.6 -44.9 -17.6t-44.9 17.6l-330.1 332L544.9 628.9Q525.4 611.3 500 611.3t-44.9 17.6q-17.6 19.5 -17.6 44.9t17.6 45l187.5 187.5q19.5 17.5 44.9 17.5t44.9 -17.5l375 -375z"/></svg>