<svg height="1000" width="1000" xmlns="http://www.w3.org/2000/svg"><path d="M308.6 -11.7q11.7 -43 -25.4 -60.6 -43 -11.7 -60.5 25.4l-64.5 166q-21.5 66.4 25.4 117.2l111.3 111.4L138.7 294.9q-7.8 -1.9 -9.8 -9.7L91.8 173.8q-17.6 -39 -60.5 -29.3Q-7.8 162.1 2 205.1l37.1 109.4q17.5 50.7 70.3 70.3l117.2 39 -117.2 39.1q-50.8 19.5 -70.3 70.3L2 642.6q-9.8 42.9 29.3 60.5 42.9 9.8 60.5 -29.3l37.1 -111.3q2 -7.8 9.8 -9.8L294.9 500 183.6 611.3q-46.9 50.8 -25.4 117.2l64.5 166q17.5 37.1 60.5 25.4 37.1 -17.6 25.4 -60.5L246.1 695.3q-3.9 -9.8 3.9 -17.6l62.5 -62.5q3.9 78.2 56.6 128.9 52.8 52.8 130.9 54.7 78.1 -1.9 130.9 -52.7 52.7 -52.7 56.6 -130.9l62.5 62.5q7.8 7.8 3.9 17.6l-62.5 164.1q-11.7 42.9 25.4 60.5 43 11.7 60.5 -25.4l64.5 -166q21.5 -66.4 -25.4 -117.2L705.1 500l156.2 52.7q7.8 2 9.8 9.8l37.1 111.3q17.6 39.1 60.6 29.3 39 -17.6 29.2 -60.5L960.9 533.2q-17.5 -50.8 -68.3 -70.3L773.4 423.8l117.2 -39q50.8 -19.6 70.3 -70.3L998 205.1q9.8 -43 -31.2 -60.6 -41 -9.7 -58.6 29.3l-37.1 111.4q-2 7.8 -9.8 9.7l-156.2 52.8L816.4 236.3q46.9 -50.8 25.4 -117.2l-64.5 -166Q759.8 -84 716.8 -72.3q-37.1 17.6 -25.4 60.6l62.5 164q3.9 9.8 -3.9 17.6l-93.7 93.8v-27.4q0 -46.8 -25.4 -84Q607.4 115.2 568.4 95.7q-15.7 -5.9 -25.4 2 -11.7 7.8 -11.7 23.4v21.5q-2 29.3 -31.3 31.2 -29.3 -1.9 -31.2 -31.2v-21.5q0 -15.6 -11.8 -23.4 -9.7 -7.9 -23.4 -2 -41 19.5 -64.5 56.6 -25.3 37.2 -25.3 84v27.4L250 169.9q-7.8 -7.8 -3.9 -17.6l62.5 -164z"/></svg>