<svg height="1000" width="1000" xmlns="http://www.w3.org/2000/svg"><path d="M593.8 17.6q-2 -52.8 -46.9 -82.1 -46.9 -23.4 -93.8 0 -44.9 29.3 -46.8 82.1 1.9 52.7 46.8 82 46.9 23.4 93.8 0 44.9 -29.3 46.9 -82zm0 812.5q-2 -52.8 -46.9 -82.1 -46.9 -23.4 -93.8 0 -44.9 29.3 -46.8 82.1 1.9 52.7 46.8 82 46.9 23.4 93.8 0 44.9 -29.3 46.9 -82zM93.8 517.6q52.7 -2 82 -46.9 23.4 -46.9 0 -93.7 -29.3 -45 -82 -46.9Q41 332 11.7 377q-23.4 46.8 0 93.7 29.3 44.9 82.1 46.9zM1000 423.8q-2 -52.7 -46.9 -82 -46.8 -23.4 -93.7 0 -44.9 29.3 -46.9 82 2 52.8 46.9 82.1 46.9 23.4 93.7 0Q998 476.6 1000 423.8zM279.3 777.3q37.1 -39 23.4 -89.8 -15.6 -50.8 -66.4 -66.4 -50.8 -13.7 -89.8 23.4 -37.1 39.1 -23.5 89.9 13.7 52.7 66.5 66.4 50.7 13.7 89.8 -23.5zm0 -574.2q39.1 -39 25.4 -91.8T238.3 43Q185.5 31.3 146.5 70.3q-37.1 39.1 -23.5 89.9t66.5 66.4q50.7 13.6 89.8 -23.5zm441.4 574.2q39.1 37.2 89.8 23.5 52.8 -13.7 66.5 -66.4 13.6 -50.8 -23.5 -89.9 -39 -37.1 -89.8 -23.4 -50.8 15.6 -66.4 66.4 -13.7 50.8 23.4 89.8z"/></svg>