<svg height="1000" width="1000" xmlns="http://www.w3.org/2000/svg"><path d="M408.2 44.9l54.7 -72.2 -54.7 72.2 54.7 -72.2q37.1 -46.9 99.6 -48.9 43 0 76.2 25.4 31.2 23.5 44.9 64.5l35.2 115.2Q752 234.4 853.5 275.4l78.1 29.3q64.5 27.3 68.4 97.6 -2 52.8 -43 84l-130.8 99.6q-72.3 58.6 -66.4 152.4l5.8 43q3.9 58.5 -31.2 99.6 -37.1 41 -95.7 42.9 -44.9 0 -80.1 -27.3L451.2 808.6Q437.5 798.8 421.9 791 375 767.6 322.3 777.3l-162.1 29.3q-50.8 7.9 -89.9 -23.4 -37.1 -31.2 -39 -84 0 -41 25.3 -72.2l21.5 -25.4Q123 548.8 123 480.5 123 423.8 91.8 377L17.6 263.7Q0 236.3 0 205.1 2 154.3 37.1 125 72.3 93.8 123 101.6l99.7 15.6q54.6 9.8 103.5 -9.8t82 -62.5z"/></svg>