<svg height="1000" width="1000" xmlns="http://www.w3.org/2000/svg"><path d="M187.5 -13.7v187.5V-13.7v187.5h250V-13.7q0 -27.3 -17.6 -44.9T375 -76.2H250q-27.3 0 -44.9 17.6t-17.6 44.9zm0 250q-80.1 2 -132.8 54.7Q2 343.8 0 423.8v406.3q2 39 27.3 66.4 27.4 25.4 66.5 27.3h437.5q39 -1.9 66.4 -27.3Q623 869.1 625 830.1V423.8q-2 -80 -54.7 -132.8T437.5 236.3h-250zm125 187.5q87.9 2 134.8 78.2 42.9 78.1 0 156.2 -46.9 76.2 -134.8 78.1 -87.9 -1.9 -134.8 -78.1 -42.9 -78.1 0 -156.2 46.9 -76.2 134.8 -78.2zM750 17.6q0 -3.9 -3.9 -7.8l-58.6 -23.5 -23.4 -58.6q-3.9 -3.9 -7.8 -3.9t-7.9 3.9L625 -13.7 566.4 9.8q-3.9 3.9 -3.9 7.8t3.9 7.8L625 48.8l23.4 58.6q3.9 3.9 7.9 3.9t7.8 -3.9l23.4 -58.6 58.6 -23.4q3.9 -3.9 3.9 -7.8zm148.4 89.8q3.9 3.9 7.9 3.9t7.8 -3.9l23.4 -58.6 58.6 -23.4q3.9 -3.9 3.9 -7.8t-3.9 -7.8l-58.6 -23.5 -23.4 -58.6q-3.9 -3.9 -7.8 -3.9t-7.9 3.9L875 -13.7 816.4 9.8q-3.9 3.9 -3.9 7.8t3.9 7.8L875 48.8l23.4 58.6zm15.7 195.3q-3.9 -3.9 -7.8 -3.9t-7.9 3.9L875 361.3l-58.6 23.5q-3.9 3.9 -3.9 7.8t3.9 7.8l58.6 23.4 23.4 58.6q3.9 3.9 7.9 3.9t7.8 -3.9l23.4 -58.6 58.6 -23.4q3.9 -3.9 3.9 -7.8t-3.9 -7.8l-58.6 -23.5 -23.4 -58.6zM875 205.1q0 -3.9 -3.9 -7.8l-58.6 -23.5 -23.4 -58.6q-3.9 -3.9 -7.8 -3.9t-7.9 3.9L750 173.8l-58.6 23.5q-3.9 3.9 -3.9 7.8t3.9 7.8l58.6 23.4 23.4 58.6q3.9 3.9 7.9 3.9t7.8 -3.9l23.4 -58.6 58.6 -23.4q3.9 -3.9 3.9 -7.8z"/></svg>