<svg height="1000" width="1000" xmlns="http://www.w3.org/2000/svg"><path d="M250 -76.2h125H250h125q27.3 0 44.9 17.6t17.6 44.9v187.5h-250V-13.7q0 -27.3 17.6 -44.9T250 -76.2zM0 423.8Q2 343.8 54.7 291q52.7 -52.7 132.8 -54.7h250q80.1 2 132.8 54.7T625 423.8v406.3q-2 39 -27.3 66.4 -27.4 25.4 -66.4 27.3H93.8Q54.7 921.9 27.3 896.5 2 869.1 0 830.1V423.8zm468.8 156.3q-2 -87.9 -78.2 -134.8 -78.1 -43 -156.2 0 -76.2 46.9 -78.1 134.8 1.9 87.9 78.1 134.7 78.1 43 156.2 0Q466.8 668 468.8 580.1zM500 48.8q0 -27.3 17.6 -44.9 17.6 -17.6 44.9 -17.6t44.9 17.6T625 48.8t-17.6 45 -44.9 17.5T517.6 93.8 500 48.8zm250 -62.5q27.3 0 44.9 17.6 17.6 17.6 17.6 44.9t-17.6 45T750 111.3 705.1 93.8t-17.6 -45T705.1 3.9 750 -13.7zm125 62.5q0 -27.3 17.6 -44.9 17.6 -17.6 44.9 -17.6t44.9 17.6 17.6 44.9 -17.6 45 -44.9 17.5T892.6 93.8 875 48.8zm62.5 125q27.3 0 44.9 17.6 17.6 17.6 17.6 44.9t-17.6 45 -44.9 17.5 -44.9 -17.5 -17.6 -45 17.6 -44.9 44.9 -17.6zm-62.5 250q0 -27.3 17.6 -44.9 17.6 -17.6 44.9 -17.6t44.9 17.6 17.6 44.9 -17.6 45 -44.9 17.5 -44.9 -17.5 -17.6 -45zm-125 -250q27.3 0 44.9 17.6 17.6 17.6 17.6 44.9t-17.6 45T750 298.8t-44.9 -17.5 -17.6 -45 17.6 -44.9T750 173.8z"/></svg>