<svg height="1000" width="875" xmlns="http://www.w3.org/2000/svg"><path d="M125 -13.7q-52.7 2 -87.9 37.1Q2 58.6 0 111.3v625q2 52.8 37.1 87.9t87.9 37.1h625q52.7 -1.9 87.9 -37.1T875 736.3v-625Q873 58.6 837.9 23.4T750 -13.7H125zm300.8 468.8L125 259.8l300.8 195.3L125 259.8q9.8 -50.8 62.5 -54.7h500q52.7 3.9 62.5 54.7L449.2 455.1q-5.8 3.9 -11.7 3.9l-11.7 -3.9zm56.6 52.7L750 334 482.4 507.8 750 334v246.1q0 27.3 -17.6 44.9t-44.9 17.6h-500q-27.3 0 -44.9 -17.6T125 580.1V334l267.6 173.8q19.5 11.7 44.9 11.7t44.9 -11.7z"/></svg>