<svg height="1000" width="875" xmlns="http://www.w3.org/2000/svg"><path d="M750 -13.7q52.7 2 87.9 37.1Q873 58.6 875 111.3v625q-2 52.8 -37.1 87.9T750 861.3H125Q72.3 859.4 37.1 824.2T0 736.3v-625Q2 58.6 37.1 23.4T125 -13.7h625zM572.3 175.8q-31.3 -5.9 -45 21.5l-39 93.7q-9.8 27.4 9.7 46.9l48.9 39.1Q496.1 482.4 390.6 533.2l-39 -48.8Q332 464.8 304.7 474.6l-93.8 39.1q-27.3 13.6 -21.4 44.9l23.4 85.9q7.8 27.4 37.1 29.3 123 -1.9 220.7 -60.5Q570.3 556.6 627 457q58.5 -97.6 60.5 -220.7 -2 -29.3 -29.3 -37.1l-85.9 -23.4z"/></svg>