<svg height="1000" width="875" xmlns="http://www.w3.org/2000/svg"><path d="M125 -13.7q-52.7 2 -87.9 37.1Q2 58.6 0 111.3v625q2 52.8 37.1 87.9t87.9 37.1h625q52.7 -1.9 87.9 -37.1T875 736.3v-625Q873 58.6 837.9 23.4T750 -13.7H125zm177.7 189.5q31.3 -5.9 45 21.5l39 93.7q9.8 27.4 -9.7 46.9L328.1 377q50.8 105.4 156.3 156.2l41 -48.8q17.6 -19.6 44.9 -9.8l93.8 39.1q27.3 13.6 21.4 44.9l-23.4 85.9q-7.8 27.4 -37.1 29.3Q502 671.9 404.3 613.3 304.7 556.6 248 457 189.5 359.4 187.5 236.3q2 -29.3 29.3 -37.1l85.9 -23.4z"/></svg>