<svg height="1000" width="875" xmlns="http://www.w3.org/2000/svg"><path d="M125 -13.7q-52.7 2 -87.9 37.1Q2 58.6 0 111.3v625q2 52.8 37.1 87.9t87.9 37.1h625q52.7 -1.9 87.9 -37.1T875 736.3v-625Q873 58.6 837.9 23.4T750 -13.7H125zm625 250q-2 52.8 -37.1 87.9 -35.2 35.2 -87.9 37.1 -46.9 0 -80.1 -27.3l-166 89.8 166 91.8q33.2 -29.3 80.1 -29.3 52.7 2 87.9 37.1t37.1 87.9q-2 52.8 -37.1 87.9T625 736.3q-52.7 -1.9 -87.9 -37.1T500 611.3v-13.6L341.8 509.8q-37.1 37.1 -91.8 39 -52.7 -1.9 -87.9 -37.1T125 423.8q2 -52.7 37.1 -87.9T250 298.8q54.7 2 91.8 39.1L500 250v-13.7q2 -52.7 37.1 -87.9T625 111.3q52.7 2 87.9 37.1t37.1 87.9z"/></svg>