<svg height="1000" width="875" xmlns="http://www.w3.org/2000/svg"><path d="M125 -13.7q-52.7 2 -87.9 37.1Q2 58.6 0 111.3v625q2 52.8 37.1 87.9t87.9 37.1h625q52.7 -1.9 87.9 -37.1T875 736.3v-625Q873 58.6 837.9 23.4T750 -13.7H125zm312.5 121.1q43 3.9 46.9 46.9 1.9 43 39 58.6t70.4 -13.7q33.2 -27.3 66.4 0 27.3 33.2 0 66.4 -29.3 33.2 -13.7 70.3 13.7 35.2 58.6 39.1 42.9 3.9 46.9 46.9 -4 42.9 -46.9 46.9 -44.9 1.9 -58.6 39 -15.6 37.1 13.7 70.3 27.3 33.2 0 66.4 -33.2 27.4 -66.4 0 -33.3 -29.3 -70.4 -13.6t-39 58.6q-3.9 42.9 -46.9 46.8 -43 -3.9 -46.9 -46.8 -3.9 -45 -39 -58.6 -37.1 -15.7 -70.3 13.6 -33.3 27.4 -66.5 0 -27.3 -33.2 0 -66.4 29.3 -33.2 13.7 -70.3t-58.6 -39Q127 464.8 123 421.9q4 -43 46.9 -46.9t58.6 -39.1q15.6 -37.1 -13.7 -70.3 -27.3 -33.2 0 -66.4 33.2 -27.3 66.5 0 33.2 29.3 70.3 13.7 35.1 -15.6 39 -58.6t46.9 -46.9zM375 423.8q27.3 0 44.9 -17.5 17.6 -17.6 17.6 -45t-17.6 -44.9T375 298.8t-44.9 17.6 -17.6 44.9 17.6 45 44.9 17.5zm171.9 62.5Q543 443.4 500 439.5q-43 3.9 -46.9 46.8 3.9 43 46.9 46.9 43 -3.9 46.9 -46.9z"/></svg>