<svg height="1000" width="1125" xmlns="http://www.w3.org/2000/svg"><path d="M552.7 76.2q11.8 -41 45 -64.5 31.2 -25.4 74.2 -25.4h390.6q27.3 0 44.9 17.6t17.6 44.9 -17.6 45 -44.9 17.5H671.9L466.8 816.4q-13.7 37.1 -52.7 44.9 -41.1 2 -62.5 -31.2L152.3 486.3H62.5q-27.3 0 -44.9 -17.5T0 423.8t17.6 -44.9 44.9 -17.6h89.8q70.4 2 107.5 62.5l126.9 218.8 166 -566.4zm214.9 302.7q19.5 -17.6 44.9 -17.6t44.9 17.6l80.1 82 80.1 -82q19.5 -17.6 44.9 -17.6t44.9 17.6q17.6 19.5 17.6 44.9t-17.6 45l-82 80 82 80.1q17.6 19.5 17.6 44.9t-17.6 45q-19.5 17.5 -44.9 17.5t-44.9 -17.5l-80.1 -82.1 -80.1 82.1q-19.5 17.5 -44.9 17.5t-44.9 -17.5Q750 699.2 750 673.8t17.6 -44.9l82 -80.1 -82 -80Q750 449.2 750 423.8t17.6 -44.9z"/></svg>