<svg height="1000" width="875" xmlns="http://www.w3.org/2000/svg"><path d="M125 -13.7q-52.7 2 -87.9 37.1Q2 58.6 0 111.3v625q2 52.8 37.1 87.9t87.9 37.1h625q52.7 -1.9 87.9 -37.1T875 736.3v-625Q873 58.6 837.9 23.4T750 -13.7H125zm187.5 218.8q2 -52.8 46.9 -82.1 46.9 -23.4 93.7 0 44.9 29.3 46.9 82.1 -2 52.7 -46.9 82 -46.8 23.4 -93.7 0 -44.9 -29.3 -46.9 -82zm156.3 203.1q1.9 -46.9 31.2 -78.1 31.3 -29.3 78.1 -31.3 46.9 2 78.2 31.3 29.2 31.2 31.2 78.1v199.2q-2 54.7 -37.1 91.8 -37.1 35.2 -91.8 37.1 -52.7 0 -89.8 -37.1L361.3 591.8l-54.7 109.4q-13.6 23.4 -37.1 31.2t-46.8 -1.9q-23.5 -13.7 -31.3 -37.1t2 -46.9L289.1 459q13.6 -29.3 44.9 -35.2 31.2 -3.9 54.7 17.6l80.1 82V408.2z"/></svg>