<svg height="1000" width="875" xmlns="http://www.w3.org/2000/svg"><path d="M125 -13.7q-52.7 2 -87.9 37.1Q2 58.6 0 111.3v625q2 52.8 37.1 87.9t87.9 37.1h625q52.7 -1.9 87.9 -37.1T875 736.3v-625Q873 58.6 837.9 23.4T750 -13.7H125zm125 375q27.3 0 44.9 17.6 17.6 17.6 17.6 44.9v187.5q0 27.4 -17.6 45T250 673.8t-44.9 -17.5 -17.6 -45V423.8q0 -27.3 17.6 -44.9T250 361.3zm125 -125q0 -27.3 17.6 -44.9 17.6 -17.6 44.9 -17.6t44.9 17.6 17.6 44.9v375q0 27.4 -17.6 45t-44.9 17.5 -44.9 -17.5 -17.6 -45v-375zm250 250q27.3 0 44.9 17.6 17.6 17.6 17.6 44.9v62.5q0 27.4 -17.6 45T625 673.8t-44.9 -17.5 -17.6 -45v-62.5q0 -27.3 17.6 -44.9T625 486.3z"/></svg>