<svg height="1000" width="875" xmlns="http://www.w3.org/2000/svg"><path d="M875 111.3Q873 58.6 837.9 23.4 802.7 -11.7 750 -13.7H125q-52.7 2 -87.9 37.1T0 111.3v625q2 52.8 37.1 87.9t87.9 37.1h625q52.7 -1.9 87.9 -37.1T875 736.3v-625zm-375 125q0 27.4 -17.6 45 -17.6 17.5 -44.9 17.5H250q-27.3 0 -44.9 -17.5t-17.6 -45 17.6 -44.9T250 173.8h187.5q27.3 0 44.9 17.6t17.6 44.9zm125 125q27.3 0 44.9 17.6 17.6 17.6 17.6 44.9t-17.6 45T625 486.3H250q-27.3 0 -44.9 -17.5t-17.6 -45 17.6 -44.9T250 361.3h375zm-250 250q0 27.4 -17.6 45 -17.6 17.5 -44.9 17.5H250q-27.3 0 -44.9 -17.5t-17.6 -45 17.6 -44.9T250 548.8h62.5q27.3 0 44.9 17.6t17.6 44.9z"/></svg>