<svg height="1000" width="875" xmlns="http://www.w3.org/2000/svg"><path d="M125 -13.7q-52.7 2 -87.9 37.1Q2 58.6 0 111.3v625q2 52.8 37.1 87.9t87.9 37.1h625q52.7 -1.9 87.9 -37.1T875 736.3v-625Q873 58.6 837.9 23.4T750 -13.7H125zm62.5 203.2q3.9 -43 46.9 -46.9 134.7 1.9 244.1 66.4t173.8 173.8T718.8 627q-4 42.9 -46.9 46.8Q628.9 669.9 625 627 621.1 460.9 509.8 351.6 400.4 240.2 234.4 236.3q-43 -3.9 -46.9 -46.8zm0 187.5q3.9 -43 46.9 -46.9 126.9 3.9 209 87.9 83.9 82 87.9 209 -4 42.9 -46.9 46.8 -43 -3.9 -46.9 -46.8 -2 -86 -58.6 -144.6Q320.3 425.8 234.4 423.8q-43 -3.9 -46.9 -46.8zm0 234.3q0 -27.3 17.6 -44.9 17.6 -17.6 44.9 -17.6t44.9 17.6 17.6 44.9 -17.6 45T250 673.8t-44.9 -17.5 -17.6 -45z"/></svg>