<svg height="1000" width="875" xmlns="http://www.w3.org/2000/svg"><path d="M125 -13.7q-52.7 2 -87.9 37.1Q2 58.6 0 111.3v625q2 52.8 37.1 87.9t87.9 37.1h625q52.7 -1.9 87.9 -37.1T875 736.3v-625Q873 58.6 837.9 23.4T750 -13.7H125zm250 437.5h93.8H375h93.8q27.3 0 44.9 -17.5t17.6 -45 -17.6 -44.9 -44.9 -17.6H375v125zm93.8 125H375h93.8H375v62.5q0 27.4 -17.6 45t-44.9 17.5 -44.9 -17.5 -17.6 -45V252q0 -33.2 23.4 -54.7 21.5 -23.5 54.7 -23.5h140.7q80 2 132.8 54.7t54.7 132.8q-2 80.1 -54.7 132.8t-132.8 54.7z"/></svg>