<svg height="1000" width="875" xmlns="http://www.w3.org/2000/svg"><path d="M0 111.3Q2 58.6 37.1 23.4 72.3 -11.7 125 -13.7h625q52.7 2 87.9 37.1t37.1 87.9v625q-2 52.8 -37.1 87.9T750 861.3H125Q72.3 859.4 37.1 824.2T0 736.3v-625zm148.4 127Q127 244.1 125 267.6v312.5q2 29.3 31.3 31.2 29.2 -1.9 31.2 -31.2V380.9l128.9 214.8q13.7 19.5 35.2 15.6Q373 603.5 375 580.1V267.6q-2 -27.4 -31.2 -31.3 -29.3 3.9 -31.3 31.3v199.2L183.6 252q-13.7 -19.6 -35.2 -13.7zm289.1 29.3v125 -125 312.5q2 29.3 31.3 31.2Q498 609.4 500 580.1V423.8h93.8Q623 421.9 625 392.6q-2 -29.3 -31.2 -31.3H500v-62.5h93.8Q623 296.9 625 267.6q-2 -29.3 -31.2 -31.3h-125q-29.3 2 -31.3 31.3zm312.5 0q-2 -29.3 -31.2 -31.3 -29.3 2 -31.3 31.3v312.5q2 29.3 31.3 31.2Q748 609.4 750 580.1V267.6z"/></svg>