<svg height="1000" width="1000" xmlns="http://www.w3.org/2000/svg"><path d="M609.4 318.4q3.9 -50.8 39 -91.8 37.1 -48.9 39.1 -115.3 -2 -80 -54.7 -132.8T500 -76.2q-80.1 2 -132.8 54.7t-54.7 132.8q2 66.4 39.1 115.3 35.1 41 39 91.8 -1.9 44.9 -31.2 74.2t-74.2 31.2h-66.4q-93.8 2 -154.3 64.5Q2 548.8 0 642.6q3.9 64.4 62.5 87.9v99.6q2 39 27.3 66.4 27.4 25.4 66.5 27.3h687.5q39 -1.9 66.4 -27.3 25.3 -27.4 27.3 -66.4v-99.6Q996.1 707 1000 642.6q-2 -93.8 -64.5 -154.3Q875 425.8 781.3 423.8h-66.5q-44.9 -1.9 -74.2 -31.2t-31.2 -74.2zm203.1 417.9v62.5 -62.5 62.5h-625v-62.5h625z"/></svg>