<svg height="1000" width="1125" xmlns="http://www.w3.org/2000/svg"><path d="M562.5 658.2l52.7 27.3 166.1 89.9L748 584l-9.7 -54.7 41 -41L916 353.5 728.5 326.2l-56.6 -9.8 -25.4 -50.8 -84 -171.8v564.4zm341.8 193.4q5.9 37.1 -25.4 60.5 -31.2 21.5 -66.4 3.9l-250 -132.8L312.5 916q-35.2 17.6 -66.4 -3.9 -29.3 -23.4 -25.4 -60.5l48.8 -285.2L66.4 365.2Q39.1 337.9 50.8 300.8q11.7 -35.2 48.8 -41l281.3 -43L505.9 -41q19.5 -33.2 56.6 -35.2 39.1 2 56.6 35.2l125 257.8 281.3 43q37.1 5.8 50.8 41 9.7 37.1 -15.7 64.4L857.4 566.4l46.9 285.2z"/></svg>