<svg height="1000" width="1000" xmlns="http://www.w3.org/2000/svg"><path d="M789.1 529.3L748 595.7l41.1 -66.4L748 595.7h82.1l-41 -66.4zM724.6 423.8L619.1 252l105.5 171.8L619.1 252H380.9L275.4 423.8l105.5 171.9h238.2L724.6 423.8zm128.9 0l103.5 170 -103.5 -170 103.5 170q11.8 17.5 11.8 39 0 31.3 -21.5 50.8 -21.5 21.5 -50.8 21.5H681.6L572.3 884.8q-25.4 37.1 -72.3 39 -46.9 -1.9 -72.3 -39L318.4 705.1H103.5q-29.3 0 -50.8 -21.5T31.3 632.8q0 -21.5 11.7 -39l103.5 -170L43 253.9Q31.3 236.3 31.3 214.8q0 -29.3 21.4 -50.7t50.8 -21.5h214.9L427.7 -35.2q25.4 -39 72.3 -41 46.9 2 72.3 41l109.3 177.8h214.9q29.3 0 50.8 21.5t21.5 50.7q0 21.5 -11.8 39.1L853.5 423.8zM748 252l41.1 68.3L748 252l41.1 68.3 41 -68.3H748zM552.7 142.6L500 56.6l52.7 86L500 56.6l-52.7 86h105.4zM252 252h-82.1H252h-82.1l41 68.3L252 252zm-41.1 277.3l-41 66.4 41 -66.4 -41 66.4H252l-41.1 -66.4zm236.4 175.8L500 791l-52.7 -85.9L500 791l52.7 -85.9H447.3z"/></svg>