<svg height="1000" width="1000" xmlns="http://www.w3.org/2000/svg"><path d="M406.3 -13.7q0 -27.3 17.5 -44.9 17.6 -17.6 45 -17.6h62.5q27.3 0 44.9 17.6t17.6 44.9v275.4L832 123q23.5 -11.7 46.9 -5.8 25.4 7.8 39.1 29.3l31.2 54.7q11.7 23.4 5.9 46.8 -5.9 25.4 -29.3 39.1L687.5 423.8l238.3 136.7q23.4 13.7 29.3 39.1 5.8 23.4 -5.9 46.9L918 701.2q-13.7 21.5 -39.1 29.3 -23.4 5.8 -46.9 -5.9L593.8 585.9v275.4q0 27.4 -17.6 45t-44.9 17.5h-62.5q-27.4 0 -45 -17.5t-17.5 -45V585.9L168 724.6q-23.5 11.7 -46.9 5.9Q95.7 722.7 82 701.2L50.8 646.5Q39.1 623 44.9 599.6t29.3 -39.1L312.5 423.8 74.2 287.1Q50.8 273.4 44.9 248q-5.8 -23.4 5.9 -46.8L82 146.5Q95.7 125 121.1 117.2q23.4 -5.9 46.9 5.8l238.3 138.7V-13.7z"/></svg>