<svg height="1000" width="1000" xmlns="http://www.w3.org/2000/svg"><path d="M0 423.8Q2 283.2 68.4 171.9 134.8 58.6 248 -7.8q111.4 -66.4 252 -68.4 97.7 0 183.6 35.2 21.5 9.7 17.6 35.1 -5.9 25.4 -31.3 25.4 -15.6 -1.9 -29.3 -1.9Q468.8 21.5 353.5 136.7T234.4 423.8q3.9 171.9 119.1 287.1t287.1 119.2h29.3q25.4 0 31.3 23.4 3.9 25.4 -17.6 35.2Q597.7 923.8 500 923.8 359.4 921.9 248 855.5 134.8 789.1 68.4 675.8 2 564.5 0 423.8zM732.4 191.4q5.9 -9.8 17.6 -9.8 11.7 0 17.6 9.8l60.5 125q3.9 9.8 13.7 11.7l138.7 19.6q11.7 1.9 13.6 11.7 3.9 11.7 -3.9 19.5l-99.6 97.7q-5.8 5.8 -5.8 15.6l23.4 136.7q2 11.7 -7.8 19.5 -7.8 5.9 -19.5 0L757.8 584q-7.8 -3.9 -15.6 0l-123.1 64.4q-11.7 5.9 -21.4 0 -7.9 -7.8 -5.9 -19.5l23.4 -136.7q0 -9.8 -5.8 -15.6l-99.6 -97.7q-7.8 -7.8 -3.9 -19.5 1.9 -9.8 13.6 -11.7l138.7 -19.6q9.8 -1.9 13.7 -11.7l60.5 -125z"/></svg>