<svg height="1000" width="625" xmlns="http://www.w3.org/2000/svg"><path d="M218.8 236.3q1.9 -52.7 37.1 -87.9 35.1 -35.1 87.9 -37.1 21.4 0 41 5.9L543 169.9q25.4 7.8 46.8 -1.9 23.5 -11.7 33.2 -37.1 5.9 -25.4 -3.9 -46.9Q607.4 60.5 582 52.7L423.8 0q-39 -13.7 -80 -13.7 -105.5 2 -175.8 74.2Q95.7 130.9 93.8 236.3v125H62.5q-27.3 0 -44.9 17.6T0 423.8t17.6 45 44.9 17.5h31.3v87.9q0 50.8 -27.4 95.7L9.8 767.6q-17.6 31.2 -2 62.5 19.5 29.3 54.7 31.2h500q27.3 0 44.9 -17.5t17.6 -45 -17.6 -44.9 -44.9 -17.6H173.8v-1.9q45 -74.2 45 -160.2v-87.9h218.7q27.3 0 44.9 -17.5t17.6 -45 -17.6 -44.9 -44.9 -17.6H218.8v-125z"/></svg>