<svg height="1000" width="1125" xmlns="http://www.w3.org/2000/svg"><path d="M277.3 -33.2q7.9 25.4 -1.9 46.9 -11.7 23.4 -37.1 31.2l-50.8 17.6v236.3q2 80.1 54.7 132.8T375 486.3q80.1 -1.9 132.8 -54.7t54.7 -132.8V62.5L511.7 44.9Q486.3 37.1 474.6 13.7q-9.8 -21.5 -1.9 -46.9t31.2 -37.1q21.5 -9.8 46.9 -2l50.8 15.7q39 13.6 62.5 46.8 23.4 31.3 23.4 72.3v236.3q-2 115.3 -70.3 199.2 -70.3 82.1 -177.7 107.5 9.7 84 70.3 136.7 60.5 54.7 146.5 56.6 93.7 -1.9 154.2 -64.4Q873 673.8 875 580.1V441.4q-43 -17.6 -68.4 -56.6 -25.3 -37.1 -25.3 -86 1.9 -66.4 44.9 -111.3 44.9 -43 111.3 -44.9 66.4 1.9 111.3 44.9 43 44.9 45 111.3 0 48.9 -25.4 86 -25.4 39 -68.4 56.6v138.7q-3.9 146.5 -101.6 242.2 -95.7 97.6 -242.1 101.5Q517.6 919.9 421.9 832 326.2 742.2 314.5 605.5 203.1 582 134.8 498 64.5 414.1 62.5 298.8V62.5q0 -41 23.4 -72.3 23.5 -33.2 62.5 -46.8l50.8 -15.7q25.4 -7.8 46.9 2 23.4 11.7 31.2 37.1zm660.2 394.5q27.3 0 44.9 -17.5 17.6 -17.6 17.6 -45t-17.6 -44.9 -44.9 -17.6 -44.9 17.6T875 298.8t17.6 45 44.9 17.5z"/></svg>