<svg height="1000" width="875" xmlns="http://www.w3.org/2000/svg"><path d="M343.8 -76.2q-27.4 0 -45 17.6 -17.5 17.6 -17.5 44.9t17.5 45 45 17.5H375v66.4Q226.6 142.6 130.9 252T31.3 517.6q3.9 171.9 119.1 287.1t287.1 119.1q171.9 -3.9 287.1 -119.1T843.8 517.6q-2 -125 -64.5 -220.7L826.2 250q17.6 -19.5 17.6 -44.9t-17.6 -44.9q-19.6 -17.6 -44.9 -17.6t-45 17.6l-41 42.9Q611.3 134.8 500 115.2V48.8h31.3q27.3 0 44.9 -17.5t17.6 -45 -17.6 -44.9 -44.9 -17.6H343.8zm140.6 375v250 -250 250q-3.9 43 -46.9 46.9 -43 -3.9 -46.9 -46.9v-250q3.9 -42.9 46.9 -46.8 43 3.9 46.9 46.8z"/></svg>