<svg height="1000" width="875" xmlns="http://www.w3.org/2000/svg"><path d="M343.8 -76.2q-27.4 0 -45 17.6 -17.5 17.6 -17.5 44.9t17.5 45 45 17.5H375v66.4Q226.6 142.6 130.9 252T31.3 517.6q3.9 171.9 119.1 287.1t287.1 119.1q171.9 -3.9 287.1 -119.1T843.8 517.6q-2 -125 -64.5 -220.7L826.2 250q17.6 -19.5 17.6 -44.9t-17.6 -44.9q-19.6 -17.6 -44.9 -17.6t-45 17.6l-41 42.9Q611.3 134.8 500 115.2V48.8h31.3q27.3 0 44.9 -17.5t17.6 -45 -17.6 -44.9 -44.9 -17.6H343.8zm218.7 398.5q43 1.9 72.3 29.3 27.3 29.3 29.3 72.2v187.5q-2 43 -29.3 72.3 -29.3 27.3 -72.3 29.3 -43 -2 -72.3 -29.3 -27.3 -29.3 -29.3 -72.3V423.8q2 -42.9 29.3 -72.2 29.3 -27.4 72.3 -29.3zm-23.4 101.5v187.5V423.8v187.5q1.9 21.5 23.4 23.5 21.5 -2 23.4 -23.5V423.8Q584 402.3 562.5 400.4q-21.5 1.9 -23.4 23.4zM312.5 400.4q-17.6 0 -23.4 17.6l-2 1.9q-13.7 33.2 -48.8 25.4 -33.2 -13.7 -25.4 -48.8l1.9 -3.9q25.4 -66.4 97.7 -70.3 43 1.9 72.3 29.3 27.3 29.3 29.3 74.2v3.9q0 39.1 -27.4 70.3l-76.2 85.9q-17.5 21.5 -21.4 48.9H375q35.2 3.9 39.1 39Q410.2 709 375 712.9H250Q214.8 709 210.9 673.8v-31.2q0 -62.5 41.1 -109.4l76.1 -84q7.8 -9.7 7.8 -19.5v-3.9Q334 402.3 312.5 400.4z"/></svg>