<svg height="1000" width="1250" xmlns="http://www.w3.org/2000/svg"><path d="M76.2 -66.4Q39.1 -89.8 9.8 -58.6q-23.5 37.1 7.8 66.4l1156.2 906.3q37.1 23.4 66.4 -7.8 23.5 -37.2 -7.8 -66.5L1062.5 707V418l-23.4 3.9q-15.7 1.9 -33.2 1.9 -35.2 0 -68.4 -9.7v195.3L587.9 335.9q21.5 -13.6 37.1 -31.2 48.8 54.7 127 56.6 80 -1.9 126.9 -56.6 48.8 54.7 128.9 56.6 11.7 0 23.5 -1.9 82 -15.6 113.2 -87.9 29.3 -72.3 -11.7 -144.5L1019.5 -50.8q-15.6 -25.4 -46.8 -25.4H277.3q-31.2 0 -46.8 25.4l-45 70.3L76.2 -66.4zm142.6 425.8q11.7 1.9 23.4 1.9 33.2 0 60.5 -11.7L95.7 187.5q-7.8 60.5 25.4 111.3t97.7 60.6zm93.7 314.4V414.1v259.7V414.1q-33.2 9.7 -70.3 9.7 -15.6 0 -31.3 -1.9L187.5 418v380.8q2 52.8 37.1 87.9t87.9 37.1h625q39.1 0 68.4 -19.5L714.8 673.8H312.5z"/></svg>