<svg height="1000" width="1125" xmlns="http://www.w3.org/2000/svg"><path d="M1070.3 127L957 -50.8 1070.3 127 957 -50.8q-15.6 -25.4 -46.8 -25.4H214.8q-31.2 0 -46.8 25.4L54.7 127Q13.7 199.2 43 271.5q31.2 72.3 113.3 87.9 11.7 1.9 23.4 1.9 80.1 -1.9 128.9 -56.6 46.9 54.7 126.9 56.6 78.2 -1.9 127 -56.6 48.8 54.7 127 56.6 78.1 -1.9 126.9 -56.6 48.8 54.7 128.9 56.6 11.7 0 23.5 -1.9 82 -15.6 113.2 -87.9 29.3 -72.3 -11.7 -144.5zm-93.7 294.9q-15.7 1.9 -33.2 1.9 -35.2 0 -68.4 -9.7v259.7H250V414.1q-33.2 9.7 -70.3 9.7 -15.6 0 -31.3 -1.9L125 418v380.8q2 52.8 37.1 87.9t87.9 37.1h625q52.7 -1.9 87.9 -37.1t37.1 -87.9V418l-23.4 3.9z"/></svg>