<svg height="1000" width="1000" xmlns="http://www.w3.org/2000/svg"><path d="M625 48.8q-2 -70.3 -62.5 -107.4 -62.5 -35.2 -125 0Q377 -21.5 375 48.8q2 70.3 62.5 107.5 62.5 35.1 125 0Q623 119.1 625 48.8zM437.5 236.3q-52.7 2 -87.9 37.1 -35.1 35.2 -37.1 87.9v93.8q0 27.3 17.6 44.9t44.9 17.6h3.9l21.5 195.3q9.8 50.8 62.5 54.7h74.2q52.7 -3.9 62.5 -54.7l21.5 -195.3h3.9q27.3 0 44.9 -17.6t17.6 -44.9v-93.8q-2 -52.7 -37.1 -87.9t-87.9 -37.1h-125zM257.8 693.4q41 -11.8 39.1 -54.7 -11.7 -41 -54.7 -37.1Q144.5 619.1 82 650.4 50.8 666 27.3 687.5 2 712.9 0 752q2 31.2 17.6 52.7 17.6 21.5 39 35.1 45 27.4 111.4 45 134.7 37.1 332 39 197.3 -1.9 332 -39 66.4 -17.6 111.4 -45 21.4 -13.6 37.1 -35.1Q998 783.2 1000 752q-2 -39.1 -27.3 -64.5Q949.2 666 918 650.4 855.5 619.1 757.8 601.6q-43 -3.9 -54.7 37.1 -3.9 42.9 39.1 54.7 87.9 17.5 134.8 41 7.8 3.9 13.6 7.8 11.7 9.8 0 19.5 -25.4 17.6 -84 33.2Q687.5 828.1 500 830.1q-187.5 -2 -308.6 -35.2 -58.6 -15.6 -84 -33.2 -9.7 -9.7 0 -19.5l15.6 -7.8q46.9 -23.5 134.8 -41z"/></svg>