<svg height="1000" width="1000" xmlns="http://www.w3.org/2000/svg"><path d="M314.5 205.1q9.7 -50.8 66.4 -76.2 64.4 -27.3 173.8 -11.7l58.6 11.7q39 5.9 58.6 11.7 25.4 5.9 46.9 -5.8Q740.2 121.1 748 95.7q5.9 -25.4 -5.8 -46.9Q728.5 27.3 703.1 19.5 679.7 13.7 636.7 5.9q-41 -9.8 -62.5 -11.8Q439.5 -29.3 332 15.6 218.8 60.5 191.4 185.5v4q-7.8 68.3 19.5 125 13.7 27.3 33.2 46.8H62.5q-27.3 0 -44.9 17.6T0 423.8t17.6 45 44.9 17.5h875q27.3 0 44.9 -17.5t17.6 -45 -17.6 -44.9 -44.9 -17.6H525.4Q418 332 357.4 296.9 332 277.3 322.3 257.8q-9.8 -15.6 -7.8 -52.7zM681.6 582q9.8 17.6 3.9 58.6 -7.8 52.8 -66.4 78.2 -64.4 27.3 -173.8 11.7Q418 726.6 378.9 712.9q-39.1 -11.7 -76.2 -25.4h-1.9q-5.9 -2 -9.8 -3.9 -11.7 -3.9 -21.5 -5.9 -25.4 -7.8 -46.8 2 -23.5 11.7 -31.3 37.1t2 46.9q11.7 23.4 37.1 33.2 3.9 0 9.7 1.9 7.8 3.9 15.7 5.9 37.1 13.7 85.9 27.3 46.9 15.7 84 21.5Q560.5 877 668 834 781.3 787.1 808.6 662.1q9.8 -60.5 -5.9 -113.3H654.3q19.5 15.7 27.3 33.2z"/></svg>