<svg height="1000" width="1000" xmlns="http://www.w3.org/2000/svg"><path d="M0 423.8q2 -136.7 66.4 -250Q132.8 60.5 250 -9.8q119.1 -66.4 250 -66.4t250 66.4q117.2 70.3 183.6 183.6 64.4 113.3 66.4 250 -2 136.7 -66.4 250Q867.2 787.1 750 857.4q-119.1 66.4 -250 66.4T250 857.4Q132.8 787.1 66.4 673.8 2 560.5 0 423.8zm611.3 -375q-23.4 -19.5 -44.9 0L500 115.2 433.6 48.8q-21.5 -19.5 -43 0 -19.5 21.5 0 43l64.5 66.4L367.2 248 257.8 136.7q-23.4 -17.6 -44.9 0 -17.6 21.5 0 44.9L324.2 291l-89.8 87.9L168 312.5q-21.5 -17.6 -43 0 -19.5 23.4 0 44.9l66.4 66.4L125 490.2q-19.5 21.5 0 45 21.5 17.5 43 0l66.4 -66.4 89.8 87.8L212.9 668q-17.6 21.5 0 42.9 21.5 17.6 44.9 0L367.2 601.6l87.9 87.9 -64.5 66.4q-19.5 21.4 0 42.9 21.5 19.6 43 0L500 732.4l66.4 66.4q21.5 19.6 44.9 0 17.6 -21.5 0 -42.9l-66.4 -66.4 87.9 -87.9 111.3 109.3q21.5 17.6 43 0 17.6 -21.4 0 -42.9L677.7 556.6l87.9 -87.8 66.4 66.4q21.5 17.5 43 0 19.5 -23.5 0 -45l-66.4 -66.4L875 357.4q19.5 -21.5 0 -42.9 -21.5 -19.6 -43 0l-66.4 64.4L677.7 291 787.1 181.6q17.6 -23.4 0 -44.9 -21.5 -17.6 -43 0L632.8 248l-87.9 -89.8 66.4 -66.4q17.6 -21.5 0 -43zm-332 375l87.9 -87.9 -87.9 87.9 87.9 -87.9 87.9 87.9 -87.9 87.9 -87.9 -87.9zm132.8 132.8L500 468.8l-87.9 87.8L500 468.8l87.9 87.8L500 644.5l-87.9 -87.9zM544.9 423.8l87.9 -87.9 -87.9 87.9 87.9 -87.9 87.9 87.9 -87.9 87.9 -87.9 -87.9zm43 -132.8L500 378.9 587.9 291 500 378.9 412.1 291 500 203.1l87.9 87.9z"/></svg>