<svg height="1000" width="750" xmlns="http://www.w3.org/2000/svg"><path d="M281.3 33.2q1.9 -13.7 15.6 -15.6h156.2q13.7 1.9 15.7 15.6v140.6H281.3V33.2zM625 173.8h-62.5H625h-62.5V33.2q-2 -46.9 -31.2 -78.1Q500 -74.2 453.1 -76.2H296.9q-46.9 2 -78.1 31.3 -29.3 31.2 -31.3 78.1v140.6H125q-52.7 2 -87.9 37.1T0 298.8v437.5q2 52.8 37.1 87.9t87.9 37.1q0 27.4 17.6 45t44.9 17.5 44.9 -17.5 17.6 -45h250q0 27.4 17.6 45t44.9 17.5 44.9 -17.5 17.6 -45q52.7 -1.9 87.9 -37.1T750 736.3V298.8q-2 -52.7 -37.1 -87.9T625 173.8zM218.8 361.3h312.5H218.8h312.5q29.2 2 31.2 31.3 -2 29.3 -31.2 31.2H218.8q-29.3 -1.9 -31.3 -31.2 2 -29.3 31.3 -31.3zm0 250h312.5H218.8h312.5q29.2 2 31.2 31.3 -2 29.3 -31.2 31.2H218.8q-29.3 -1.9 -31.3 -31.2 2 -29.3 31.3 -31.3z"/></svg>