<svg height="1000" width="1250" xmlns="http://www.w3.org/2000/svg"><path d="M312.5 -76.2q-19.5 0 -29.3 19.6L236.3 50.8 125 7.8Q105.5 2 91.8 15.6T84 48.8l43 111.4L19.5 207Q0 216.8 0 236.3t19.5 29.3L127 312.5 84 423.8q-5.9 19.6 7.8 33.2t33.2 7.8l111.3 -42.9 46.9 107.4q9.8 19.5 29.3 19.5t29.3 -19.5l46.9 -107.4L500 464.8q19.5 5.9 33.2 -7.8t7.8 -33.2L498 312.5l107.5 -46.9Q623 255.9 625 236.3 623 216.8 605.5 207L498 160.2 541 48.8q5.9 -19.5 -7.8 -33.2T500 7.8l-111.3 43L341.8 -56.6Q332 -76.2 312.5 -76.2zm0 187.5q70.3 2 107.4 62.5 35.2 62.5 0 125 -37.1 60.6 -107.4 62.5 -70.3 -1.9 -107.4 -62.5 -35.2 -62.5 0 -125 37.1 -60.5 107.4 -62.5zm62.5 125q0 -27.3 -17.6 -44.9 -17.6 -17.6 -44.9 -17.6t-44.9 17.6T250 236.3t17.6 45 44.9 17.5 44.9 -17.5 17.6 -45zm609.4 31.3q0 -27.4 17.6 -44.9 17.5 -17.6 44.9 -17.6t44.9 17.6 17.6 44.9v103.5q-44.9 23.4 -46.9 87.9 0 25.4 21.5 60.5 19.5 35.2 50.8 70.3 21.5 17.6 42.9 0 31.3 -35.1 50.8 -70.3Q1250 484.4 1250 459q-2 -64.5 -46.9 -87.9V267.6q-1.9 -66.4 -44.9 -111.3 -44.9 -43 -111.3 -45 -66.4 2 -111.4 45 -42.9 44.9 -44.9 111.3v44.9q-29.3 -13.7 -62.5 -13.7 -66.4 2 -111.3 45 -43 44.9 -44.9 111.3v41Q627 519.5 625 584q0 25.4 21.5 60.5 19.5 35.2 50.8 70.3 21.5 17.6 42.9 0 31.3 -35.1 50.8 -70.3 21.5 -35.1 21.5 -60.5 -2 -64.5 -46.9 -87.9v-41q0 -27.4 17.6 -44.9t44.9 -17.6 44.9 17.6 17.6 44.9V798.8H62.5q-27.3 0 -44.9 17.6T0 861.3t17.6 45 44.9 17.5h1125q27.3 0 44.9 -17.5t17.6 -45 -17.6 -44.9 -44.9 -17.6H984.4V267.6z"/></svg>