<svg height="1000" width="1000" xmlns="http://www.w3.org/2000/svg"><path d="M707 -74.2q13.7 7.8 17.6 23.4l39.1 211 210.9 39q15.6 3.9 23.4 17.6 5.9 15.6 -3.9 31.2L873 423.8l121.1 175.8q9.8 15.6 3.9 31.3 -7.8 13.6 -23.4 17.5l-210.9 39.1 -39.1 210.9q-3.9 15.7 -17.6 23.5 -15.6 5.8 -31.2 -3.9L500 796.9 324.2 918q-15.6 9.7 -29.3 3.9 -15.6 -7.8 -19.5 -23.5L236.3 687.5 25.4 648.4Q9.8 644.5 2 630.9q-5.9 -15.7 3.9 -31.3L127 423.8 5.9 248Q-3.9 232.4 2 218.8q7.8 -15.7 23.4 -19.6l210.9 -39 39.1 -211q3.9 -15.6 19.5 -23.4 13.7 -5.9 29.3 3.9L500 50.8 675.8 -70.3q15.6 -9.8 31.2 -3.9zm-394.5 498q0 -50.8 25.4 -93.7 25.4 -43 68.4 -68.4 44.9 -25.4 93.7 -25.4t93.8 25.4q42.9 25.4 68.3 68.4t25.4 93.7 -25.4 93.8 -68.3 68.3q-45 25.4 -93.8 25.4t-93.7 -25.4q-43 -25.4 -68.4 -68.3t-25.4 -93.8zm437.5 0q0 -68.3 -33.2 -125Q683.6 242.2 625 207 566.4 173.8 500 173.8T375 207q-58.6 35.2 -91.8 91.8t-33.2 125 33.2 125 91.8 91.8q58.6 33.2 125 33.2t125 -33.2q58.6 -35.1 91.8 -91.8t33.2 -125z"/></svg>