<svg height="1000" width="1000" xmlns="http://www.w3.org/2000/svg"><path d="M0 -13.7Q0 -41 17.6 -58.6q17.6 -17.6 44.9 -17.6h250q27.3 0 44.9 17.6t17.6 44.9v750q-2 80.1 -54.7 132.8t-132.8 54.7Q107.4 921.9 54.7 869.1T0 736.3v-750zm437.5 769.6V224.6L584 78.1q19.5 -19.5 44.9 -19.5t44.9 19.5l175.8 175.8q19.5 19.5 19.5 44.9t-19.5 43L437.5 755.9zm-80.1 167.9l375 -375 -375 375 375 -375h205.1q27.3 0 44.9 17.6t17.6 44.9v250q0 27.4 -17.6 45t-44.9 17.5H357.4zM250 48.8H125h125H125v125h125v-125zm-125 250v125 -125 125h125v-125H125zm62.5 484.4q43 -3.9 46.9 -46.9 -3.9 -42.9 -46.9 -46.8 -43 3.9 -46.9 46.8 3.9 43 46.9 46.9z"/></svg>