<svg height="1000" width="1250" xmlns="http://www.w3.org/2000/svg"><path d="M605.5 -68.4q19.5 -15.6 39 0l236.4 197.3q54.6 46.9 56.6 119.1v675.8h-250V736.3q0 -27.3 -17.6 -44.9T625 673.8t-44.9 17.6 -17.6 44.9v187.5h-250V248q2 -72.2 56.6 -119.1L605.5 -68.4zM1000 923.8V402.3v521.5V402.3l54.7 -62.5q9.8 -9.7 23.4 -9.7t23.5 9.7l125 138.7q23.4 27.4 23.4 62.5v257.8q-2 52.8 -37.1 87.9t-87.9 37.1h-125zM250 402.3v521.5V402.3v521.5H125Q72.3 921.9 37.1 886.7T0 798.8V541q0 -35.1 23.4 -62.5l125 -138.7q9.8 -9.7 23.5 -9.7t23.4 9.7l54.7 62.5zM638.7 166q-13.7 -15.6 -27.4 0l-31.2 54.7h-62.5q-21.5 3.9 -13.7 23.4l31.3 54.7 -31.3 54.7q-7.8 19.5 13.7 23.5h62.5l31.2 54.6q13.7 15.7 27.4 0L669.9 377h62.5q21.5 -4 13.7 -23.5l-31.3 -54.7 31.3 -54.7q7.8 -19.5 -13.7 -23.4h-62.5L638.7 166z"/></svg>