<svg height="1000" width="1000" xmlns="http://www.w3.org/2000/svg"><path d="M861.3 -62.5L923.8 0l-62.5 -62.5L923.8 0l62.5 62.5q27.4 33.2 0 66.4 -33.2 27.4 -66.4 0L890.6 99.6l-74.2 74.2 107.4 107.5q27.4 33.2 0 66.4 -33.2 27.3 -66.4 0L716.8 207 576.2 66.4Q548.8 33.2 576.2 0q33.2 -27.3 66.4 0L750 107.4l74.2 -74.2L794.9 3.9q-27.3 -33.2 0 -66.4 33.2 -27.3 66.4 0zm-451.1 291L529.3 109.4 410.2 228.5 529.3 109.4h2v1.9l31.2 31.3L671.9 252l109.4 109.3 31.2 31.3q2 0 2 1.9L441.4 767.6q-31.2 31.2 -76.2 31.2H191.4L80.1 910.2q-33.2 27.3 -66.4 0 -27.4 -33.2 0 -66.4L125 732.4V558.6q0 -44.9 33.2 -76.2l84 -85.9 111.3 111.3q21.5 19.5 43 0 19.5 -21.5 0 -43L285.2 353.5l82 -82 111.3 111.3q21.5 19.5 43 0 19.5 -21.5 0 -43L410.2 228.5z"/></svg>