<svg height="1000" width="1250" xmlns="http://www.w3.org/2000/svg"><path d="M1199.2 406.3q-19.5 23.4 -44.9 3.9L763.7 19.5q-19.6 -25.4 3.9 -44.9 74.2 -48.8 169.9 -50.8 132.8 3.9 220.7 91.8t91.8 220.7q-2 95.7 -50.8 170zm-91.8 91.7q-74.2 48.9 -169.9 50.8Q804.7 544.9 716.8 457T625 236.3q2 -95.7 50.8 -169.9Q695.3 43 720.7 62.5l390.6 390.6q19.6 25.4 -3.9 44.9zM589.8 642.6q31.3 3.9 29.3 35.1Q593.8 785.2 509.8 853.5q-82.1 68.4 -197.3 70.3Q197.3 921.9 115.2 853.5 31.3 785.2 7.8 677.7 3.9 646.5 37.1 642.6h552.7zm0 -62.5H37.1h552.7H37.1Q3.9 576.2 7.8 546.9 31.3 437.5 115.2 369.1q82.1 -68.3 197.3 -70.3 115.2 2 197.3 70.3 84 68.4 109.3 177.8 2 29.3 -29.3 33.2z"/></svg>