<svg height="1000" width="1000" xmlns="http://www.w3.org/2000/svg"><path d="M125 -13.7q-52.7 2 -87.9 37.1Q2 58.6 0 111.3v625q2 52.8 37.1 87.9t87.9 37.1h750q52.7 -1.9 87.9 -37.1t37.1 -87.9v-625Q998 58.6 962.9 23.4T875 -13.7H125zm171.9 125v125 -125 125H125v-125h171.9zm109.4 0h171.8H406.3h171.8v125H406.3v-125zm468.7 0v125 -125 125H703.1v-125H875zm-750 250h171.9H125h171.9v125H125v-125zm453.1 0v125 -125 125H406.3v-125h171.8zm125 0H875 703.1 875v125H703.1v-125zm-406.2 250v125 -125 125H125v-125h171.9zm109.4 0h171.8H406.3h171.8v125H406.3v-125zm468.7 0v125 -125 125H703.1v-125H875z"/></svg>