<svg height="1000" width="1000" xmlns="http://www.w3.org/2000/svg"><path d="M812.5 486.3q-74.2 0 -132.8 39.1 -58.6 37.1 -91.8 99.6L134.8 169.9h1.9L253.9 52.7q85.9 -85.9 197.3 -115.2 111.3 -27.3 222.6 0 111.4 29.3 197.3 115.2 99.6 99.6 121.1 230.5 23.4 130.9 -29.3 253.9Q898.4 488.3 812.5 486.3zM95.7 220.7l470.7 470.7L95.7 220.7l470.7 470.7q-3.9 21.5 -3.9 44.9 0 68.4 33.2 125H572.3Q468.8 859.4 394.5 789.1L377 769.5Q355.5 750 330.1 750q-25.4 2 -44.9 21.5L171.9 902.3q-17.6 19.6 -44.9 21.5 -27.4 0 -46.9 -17.5L17.6 843.8Q0 824.2 0 796.9 2 769.5 21.5 752L152.3 638.7q19.6 -19.6 21.5 -44.9 0 -25.4 -19.5 -46.9l-19.5 -17.6Q64.5 455.1 62.5 351.6v-5.9q0 -66.4 33.2 -125zm716.8 328.1q50.8 0 93.8 25.4 42.9 25.4 68.3 68.4 25.4 44.9 25.4 93.7t-25.4 93.8q-25.4 42.9 -68.3 68.3t-93.8 25.4 -93.7 -25.4 -68.4 -68.3Q625 785.2 625 736.3t25.4 -93.7q25.4 -43 68.4 -68.4t93.7 -25.4z"/></svg>