<svg height="1000" width="1250" xmlns="http://www.w3.org/2000/svg"><path d="M0 111.3Q2 58.6 37.1 23.4 72.3 -11.7 125 -13.7h750q52.7 2 87.9 37.1t37.1 87.9v127q-56.6 7.8 -99.6 41t-66.4 82H703.1v125h109.4v17.6Q753.9 539.1 750 611.3h-46.9v125H750v125H125Q72.3 859.4 37.1 824.2T0 736.3v-625zm406.3 0v125 -125 125h171.8v-125H406.3zm468.7 0H703.1 875 703.1v125H875v-125zm-468.7 250v125 -125 125h171.8v-125H406.3zm0 250v125 -125 125h171.8v-125H406.3zm625 -218.7q-27.4 0 -45 17.6 -17.5 17.5 -17.5 44.9v93.7h125v-93.7q0 -27.4 -17.6 -44.9t-44.9 -17.6zM875 455.1q2 -66.4 44.9 -111.3 44.9 -43 111.4 -45 66.4 2 111.3 45 42.9 44.9 44.9 111.3v93.7q27.3 0 44.9 17.6t17.6 44.9v250q0 27.4 -17.6 45t-44.9 17.5H875q-27.3 0 -44.9 -17.5t-17.6 -45v-250q0 -27.3 17.6 -44.9T875 548.8v-93.7z"/></svg>