<svg height="1000" width="1250" xmlns="http://www.w3.org/2000/svg"><path d="M125 48.8q-52.7 2 -87.9 37.1Q2 121.1 0 173.8v500q2 52.8 37.1 87.9t87.9 37.1h1000q52.7 -1.9 87.9 -37.1t37.1 -87.9v-500q-2 -52.7 -37.1 -87.9T1125 48.8H125zm62.5 125H625 187.5 625q27.3 0 44.9 17.6t17.6 44.9v125q0 27.4 -17.6 45T625 423.8H187.5q-27.3 0 -44.9 -17.5t-17.6 -45v-125q0 -27.3 17.6 -44.9t44.9 -17.6zM125 642.6q2 -29.3 31.3 -31.3h500q29.2 2 31.2 31.3 -2 29.3 -31.2 31.2h-500Q127 671.9 125 642.6zm625 0q2 -29.3 31.3 -31.3h312.5q29.2 2 31.2 31.3 -2 29.3 -31.2 31.2H781.3Q752 671.9 750 642.6zM156.3 486.3q29.2 2 31.2 31.3 -2 29.3 -31.2 31.2Q127 546.9 125 517.6q2 -29.3 31.3 -31.3zm93.7 31.3q2 -29.3 31.3 -31.3 29.2 2 31.2 31.3 -2 29.3 -31.2 31.2Q252 546.9 250 517.6zm156.3 -31.3q29.2 2 31.2 31.3 -2 29.3 -31.2 31.2Q377 546.9 375 517.6q2 -29.3 31.3 -31.3zm93.7 31.3q2 -29.3 31.3 -31.3 29.2 2 31.2 31.3 -2 29.3 -31.2 31.2Q502 546.9 500 517.6zm156.3 -31.3q29.2 2 31.2 31.3 -2 29.3 -31.2 31.2Q627 546.9 625 517.6q2 -29.3 31.3 -31.3z"/></svg>