<svg height="1000" width="1000" xmlns="http://www.w3.org/2000/svg"><path d="M673.8 0l250 252L673.8 0l250 252q76.2 82 76.2 187.5T923.8 627L705.1 847.7q-33.2 27.3 -66.4 0 -27.4 -33.2 0 -66.4L857.4 560.5q48.9 -52.7 48.9 -121T857.4 318.4l-250 -252Q580.1 33.2 607.4 0q33.2 -27.3 66.4 0zM0 373V80.1 373 80.1Q2 41 27.3 13.7q27.4 -25.4 66.5 -27.4h292.9q50.8 0 87.9 37.1l328.1 328.2q37.1 37.1 37.1 87.9 0 48.8 -37.1 87.8L541 789.1q-37.1 35.1 -87.9 35.1 -48.8 0 -87.9 -35.1L37.1 460.9Q0 423.8 0 373zM281.3 205.1q0 -27.4 -17.6 -44.9 -17.6 -17.6 -44.9 -17.6t-45 17.6 -17.5 44.9 17.5 44.9 45 17.6T263.7 250t17.6 -44.9z"/></svg>