<svg height="1000" width="1125" xmlns="http://www.w3.org/2000/svg"><path d="M744.1 736.3q60.6 -60.5 95.7 -140.6Q875 515.6 875 423.8q-2 -123 -60.5 -220.7Q757.8 103.5 658.2 46.9 560.5 -11.7 437.5 -13.7q-123 2 -220.7 60.6Q117.2 103.5 60.5 203.1 2 300.8 0 423.8q2 123.1 60.5 220.7 56.7 99.6 156.3 156.3 97.7 58.6 220.7 60.5h625q27.3 0 44.9 -17.5t17.6 -45 -17.6 -44.9 -44.9 -17.6H744.1zm-306.6 -500q50.8 0 93.8 25.4 42.9 25.4 68.3 68.4Q625 375 625 423.8t-25.4 93.8q-25.4 42.9 -68.3 68.3t-93.8 25.4 -93.7 -25.4 -68.4 -68.3Q250 472.7 250 423.8t25.4 -93.7q25.4 -43 68.4 -68.4t93.7 -25.4zm125 187.5q-2 -70.3 -62.5 -107.4 -62.5 -35.1 -125 0 -60.5 37.1 -62.5 107.4 2 70.3 62.5 107.5 62.5 35.1 125 0 60.5 -37.2 62.5 -107.5z"/></svg>