<svg height="1000" width="1000" xmlns="http://www.w3.org/2000/svg"><path d="M375 -76.2q-27.3 0 -44.9 17.6 -17.6 17.6 -17.6 44.9v62.5q-56.6 3.9 -101.6 37.1t-64.4 87.9L78.1 371.1Q43 384.8 21.5 416T0 486.3v375q0 27.4 17.6 45t44.9 17.5H125q27.3 0 44.9 -17.5t17.6 -45v-93.7h625v93.7q0 27.4 17.6 45t44.9 17.5h62.5q27.3 0 44.9 -17.5t17.6 -45v-375q0 -39 -21.5 -70.3t-56.6 -44.9L853.5 173.8Q834 119.1 789.1 85.9T687.5 48.8v-62.5q0 -27.3 -17.6 -44.9T625 -76.2H375zm-52.7 250h355.4H322.3h355.4q43 2 58.6 41l50.8 146.5H212.9l50.8 -146.5q15.6 -39 58.6 -41zM187.5 486.3q27.3 0 44.9 17.6 17.6 17.6 17.6 44.9t-17.6 45 -44.9 17.5 -44.9 -17.5 -17.6 -45 17.6 -44.9 44.9 -17.6zM750 548.8q0 -27.3 17.6 -44.9 17.6 -17.6 44.9 -17.6t44.9 17.6 17.6 44.9 -17.6 45 -44.9 17.5 -44.9 -17.5 -17.6 -45z"/></svg>