<svg height="1000" width="1125" xmlns="http://www.w3.org/2000/svg"><path d="M0 173.8Q2 93.8 54.7 41q52.7 -52.7 132.8 -54.7h750q80.1 2 132.8 54.7t54.7 132.8v500q-2 80.1 -54.7 132.8t-132.8 54.7h-750Q107.4 859.4 54.7 806.6T0 673.8v-500zm343.8 93.8V377 267.6 377q3.9 42.9 46.8 46.8h93.8q42.9 -3.9 46.9 -46.8V267.6q-2 -39.1 -27.4 -66.4 -27.3 -25.4 -66.4 -27.4 -39.1 2 -66.4 27.4 -25.4 27.3 -27.3 66.4zm343.7 -93.8q-39.1 2 -66.4 27.4 -25.4 27.3 -27.3 66.4V377q3.9 42.9 46.8 46.8h93.8q42.9 -3.9 46.9 -46.8V267.6q-2 -39.1 -27.4 -66.4 -27.3 -25.4 -66.4 -27.4zM93.8 330.1V377v-46.9V377q3.9 42.9 46.8 46.8h93.8q42.9 -3.9 46.9 -46.8v-46.9q-2 -39.1 -27.4 -66.4 -27.3 -25.4 -66.4 -27.4 -39.1 2 -66.4 27.4Q95.7 291 93.8 330.1zm93.7 343.7q39.1 -1.9 66.4 -27.3 25.4 -27.4 27.4 -66.4v-46.9q-4 -43 -46.9 -46.9h-93.8q-42.9 3.9 -46.8 46.9v46.9q1.9 39 27.3 66.4 27.3 25.4 66.4 27.3zm156.3 -93.7q1.9 39 27.3 66.4 27.3 25.4 66.4 27.3 39.1 -1.9 66.4 -27.3 25.4 -27.4 27.4 -66.4v-46.9q-4 -43 -46.9 -46.9h-93.8q-42.9 3.9 -46.8 46.9v46.9zm343.7 93.7q39.1 -1.9 66.4 -27.3 25.4 -27.4 27.4 -66.4v-46.9q-4 -43 -46.9 -46.9h-93.8q-42.9 3.9 -46.8 46.9v46.9q1.9 39 27.3 66.4 27.3 25.4 66.4 27.3zM843.8 330.1V377v-46.9V377q3.9 42.9 46.8 46.8h93.8q42.9 -3.9 46.9 -46.8v-46.9q-2 -39.1 -27.4 -66.4 -27.3 -25.4 -66.4 -27.4 -39.1 2 -66.4 27.4 -25.4 27.3 -27.3 66.4zm93.7 343.7q39.1 -1.9 66.4 -27.3 25.4 -27.4 27.4 -66.4v-46.9q-4 -43 -46.9 -46.9h-93.8q-42.9 3.9 -46.8 46.9v46.9q1.9 39 27.3 66.4 27.3 25.4 66.4 27.3z"/></svg>