<svg height="1000" width="1125" xmlns="http://www.w3.org/2000/svg"><path d="M187.5 -13.7q-80.1 2 -132.8 54.7Q2 93.8 0 173.8v125q2 52.8 37.1 87.9t87.9 37.1h875q52.7 -1.9 87.9 -37.1t37.1 -87.9v-125q-2 -80 -54.7 -132.8T937.5 -13.7h-750zm250 125q39.1 2 66.4 27.4 25.4 27.3 27.4 66.4v109.4q-4 42.9 -46.9 46.8h-93.8q-42.9 -3.9 -46.8 -46.8V205.1q1.9 -39.1 27.3 -66.4 27.3 -25.4 66.4 -27.4zm156.3 93.8q1.9 -39.1 27.3 -66.4 27.3 -25.4 66.4 -27.4 39.1 2 66.4 27.4 25.4 27.3 27.4 66.4v109.4q-4 42.9 -46.9 46.8h-93.8q-42.9 -3.9 -46.8 -46.8V205.1zM187.5 173.8q39.1 2 66.4 27.4 25.4 27.3 27.4 66.4v46.9q-4 42.9 -46.9 46.8h-93.8Q97.7 357.4 93.8 314.5v-46.9q1.9 -39.1 27.3 -66.4 27.3 -25.4 66.4 -27.4zm656.3 93.8q1.9 -39.1 27.3 -66.4 27.3 -25.4 66.4 -27.4 39.1 2 66.4 27.4 25.4 27.3 27.4 66.4v46.9q-4 42.9 -46.9 46.8h-93.8q-42.9 -3.9 -46.8 -46.8v-46.9zM187.5 861.3h750 -750 750q80.1 -1.9 132.8 -54.7T1125 673.8v-62.5q-2 -52.7 -37.1 -87.9T1000 486.3H125q-52.7 2 -87.9 37.1T0 611.3v62.5q2 80.1 54.7 132.8t132.8 54.7zm0 -125Q148.4 734.4 121.1 709 95.7 681.6 93.8 642.6v-46.9q3.9 -43 46.8 -46.9h93.8q42.9 3.9 46.9 46.9v46.9q-2 39 -27.4 66.4 -27.3 25.4 -66.4 27.3zm156.3 -93.7v-46.9 46.9 -46.9q3.9 -43 46.8 -46.9h93.8q42.9 3.9 46.9 46.9v46.9q-2 39 -27.4 66.4 -27.3 25.4 -66.4 27.3Q398.4 734.4 371.1 709q-25.4 -27.4 -27.3 -66.4zm343.7 93.7Q648.4 734.4 621.1 709q-25.4 -27.4 -27.3 -66.4v-46.9q3.9 -43 46.8 -46.9h93.8q42.9 3.9 46.9 46.9v46.9q-2 39 -27.4 66.4 -27.3 25.4 -66.4 27.3zm156.3 -93.7v-46.9 46.9 -46.9q3.9 -43 46.8 -46.9h93.8q42.9 3.9 46.9 46.9v46.9q-2 39 -27.4 66.4 -27.3 25.4 -66.4 27.3Q898.4 734.4 871.1 709q-25.4 -27.4 -27.3 -66.4z"/></svg>