<svg height="1000" width="1000" xmlns="http://www.w3.org/2000/svg"><path d="M875 111.3Q875 84 857.4 66.4 839.8 48.8 812.5 48.8t-44.9 17.6T750 111.3t17.6 45 44.9 17.5 44.9 -17.5 17.6 -45zm-250 0q0 -50.8 25.4 -93.7 25.4 -43 68.4 -68.4 44.9 -25.4 93.7 -25.4t93.8 25.4q42.9 25.4 68.3 68.4t25.4 93.7 -25.4 93.8 -68.3 68.3q-45 25.4 -93.8 25.4t-93.7 -25.4q-43 -25.4 -68.4 -68.3T625 111.3zM281.3 48.8q-39.1 2 -66.5 27.4 -25.3 27.3 -27.3 66.4v322.2q-2 50.8 -29.3 82.1 -33.2 41 -33.2 95.7 2 66.4 44.9 111.3 44.9 43 111.4 44.9 66.4 -1.9 111.3 -44.9Q435.5 709 437.5 642.6q0 -54.7 -33.2 -95.7Q378.9 515.6 375 464.8V142.6q-2 -39.1 -27.3 -66.4Q320.3 50.8 281.3 48.8zM62.5 142.6q2 -93.8 64.5 -154.3 60.5 -62.5 154.3 -64.5 93.7 2 154.2 64.5Q498 48.8 500 142.6v322.2q2 2 3.9 5.9 56.6 72.3 58.6 171.9 -3.9 119.1 -82 199.2 -80.1 78.1 -199.2 82Q162.1 919.9 82 841.8 3.9 761.7 0 642.6 2 543 58.6 470.7q1.9 -3.9 3.9 -5.9V142.6zm312.5 500q-2 39 -27.3 66.4 -27.4 25.4 -66.4 27.3Q242.2 734.4 214.8 709q-25.3 -27.4 -27.3 -66.4 3.9 -64.5 62.5 -87.9v-99.6q2 -29.3 31.3 -31.3 29.2 2 31.2 31.3v99.6q58.6 23.4 62.5 87.9z"/></svg>