<svg height="1000" width="625" xmlns="http://www.w3.org/2000/svg"><path d="M312.5 48.8q-39.1 2 -66.4 27.4 -25.4 27.3 -27.3 66.4v322.2q-2 50.8 -29.3 82.1 -33.2 41 -33.2 95.7 1.9 66.4 44.9 111.3 44.9 43 111.3 44.9 66.4 -1.9 111.3 -44.9 43 -44.9 45 -111.3 0 -54.7 -33.3 -95.7 -25.3 -31.3 -29.2 -82.1V142.6q-2 -39.1 -27.4 -66.4Q351.6 50.8 312.5 48.8zM93.8 142.6q1.9 -93.8 64.4 -154.3 60.6 -62.5 154.3 -64.5 93.8 2 154.3 64.5 62.5 60.5 64.5 154.3v322.2q1.9 2 3.9 5.9 56.6 72.3 58.6 171.9 -4 119.1 -82.1 199.2 -80.1 78.1 -199.2 82 -119.1 -3.9 -199.2 -82Q35.2 761.7 31.3 642.6 33.2 543 89.8 470.7q2 -3.9 4 -5.9V142.6zm312.5 500q-2 39 -27.4 66.4 -27.3 25.4 -66.4 27.3Q273.4 734.4 246.1 709q-25.4 -27.4 -27.3 -66.4 3.9 -64.5 62.5 -87.9V330.1q1.9 -29.3 31.2 -31.3 29.3 2 31.3 31.3v224.6q58.5 23.4 62.5 87.9z"/></svg>