<svg height="1000" width="1000" xmlns="http://www.w3.org/2000/svg"><path d="M812.5 48.8q27.3 0 44.9 17.6Q875 84 875 111.3t-17.6 45 -44.9 17.5 -44.9 -17.5 -17.6 -45 17.6 -44.9 44.9 -17.6zm0 250q50.8 0 93.8 -25.4 42.9 -25.4 68.3 -68.3 25.4 -44.9 25.4 -93.8T974.6 17.6q-25.4 -43 -68.3 -68.4t-93.8 -25.4 -93.7 25.4 -68.4 68.4Q625 62.5 625 111.3t25.4 93.8q25.4 42.9 68.4 68.3t93.7 25.4zm-625 -156.2q2 -39.1 27.3 -66.4 27.4 -25.4 66.5 -27.4 39 2 66.4 27.4 25.3 27.3 27.3 66.4v322.2q3.9 50.8 29.3 82.1 33.2 41 33.2 95.7 -2 66.4 -44.9 111.3 -44.9 43 -111.3 44.9 -66.5 -1.9 -111.4 -44.9Q127 709 125 642.6q0 -54.7 33.2 -95.7 27.3 -31.3 29.3 -82.1V142.6zm93.8 -218.8q-93.8 2 -154.3 64.5Q64.5 48.8 62.5 142.6v322.2q-2 2 -3.9 5.9Q2 543 0 642.6q3.9 119.1 82 199.2 80.1 78.1 199.3 82 119.1 -3.9 199.2 -82 78.1 -80.1 82 -199.2 -2 -99.6 -58.6 -171.9 -1.9 -3.9 -3.9 -5.9V142.6Q498 48.8 435.5 -11.7 375 -74.2 281.3 -76.2zm0 812.5q39 -1.9 66.4 -27.3Q373 681.6 375 642.6q-3.9 -64.5 -62.5 -87.9V142.6q-2 -29.3 -31.2 -31.3 -29.3 2 -31.3 31.3v412.1q-58.6 23.4 -62.5 87.9 2 39 27.3 66.4 27.4 25.4 66.5 27.3z"/></svg>