<svg height="1000" width="625" xmlns="http://www.w3.org/2000/svg"><path d="M218.8 142.6q1.9 -39.1 27.3 -66.4 27.3 -25.4 66.4 -27.4 39.1 2 66.4 27.4 25.4 27.3 27.4 66.4v322.2q3.9 50.8 29.2 82.1 33.3 41 33.3 95.7 -2 66.4 -45 111.3 -44.9 43 -111.3 44.9 -66.4 -1.9 -111.3 -44.9Q158.2 709 156.3 642.6q0 -54.7 33.2 -95.7 25.3 -31.3 29.3 -82.1V142.6zm93.7 -218.8q-93.7 2 -154.3 64.5Q95.7 48.8 93.8 142.6v322.2q-2 2 -4 5.9Q33.2 543 31.3 642.6q3.9 119.1 82 199.2 80.1 78.1 199.2 82 119.1 -3.9 199.2 -82 78.1 -80.1 82.1 -199.2 -2 -99.6 -58.6 -171.9 -2 -3.9 -3.9 -5.9V142.6q-2 -93.8 -64.5 -154.3Q406.3 -74.2 312.5 -76.2zm0 812.5q52.7 -1.9 82 -46.8 23.5 -46.9 0 -93.8 -29.3 -44.9 -82 -46.9 -52.7 2 -82 46.9 -23.5 46.9 0 93.8 29.3 44.9 82 46.8z"/></svg>