<svg height="1000" width="1125" xmlns="http://www.w3.org/2000/svg"><path d="M250 142.6q2 -39.1 27.3 -66.4 27.4 -25.4 66.5 -27.4 39 2 66.4 27.4 25.3 27.3 27.3 66.4v322.2q3.9 50.8 29.3 82.1 33.2 41 33.2 95.7 -2 66.4 -44.9 111.3 -44.9 43 -111.3 44.9 -66.5 -1.9 -111.4 -44.9Q189.5 709 187.5 642.6q0 -54.7 33.2 -95.7 25.4 -31.3 29.3 -82.1V142.6zm93.8 -218.8q-93.8 2 -154.3 64.5Q127 48.8 125 142.6v322.2q-2 2 -3.9 5.9Q64.5 543 62.5 642.6q3.9 119.1 82 199.2 80.1 78.1 199.3 82 119.1 -3.9 199.2 -82 78.1 -80.1 82 -199.2Q623 543 566.4 470.7q-1.9 -3.9 -3.9 -5.9V142.6Q560.5 48.8 498 -11.7 437.5 -74.2 343.8 -76.2zm0 812.5q39 -1.9 66.4 -27.3 25.3 -27.4 27.3 -66.4Q433.6 578.1 375 554.7v-99.6q-2 -29.3 -31.2 -31.3 -29.3 2 -31.3 31.3v99.6q-58.6 23.4 -62.5 87.9 2 39 27.3 66.4 27.4 25.4 66.5 27.3zm656.2 -125h-62.5 62.5 -62.5V48.8q0 -27.3 -17.6 -44.9T875 -13.7 830.1 3.9t-17.6 44.9v562.5H750q-41 2 -58.6 39.1 -13.7 37.1 13.7 68.4l125 125q19.5 17.5 44.9 17.5t44.9 -17.5l125 -125q27.4 -31.3 11.7 -68.4T1000 611.3z"/></svg>