<svg height="1000" width="1125" xmlns="http://www.w3.org/2000/svg"><path d="M410.2 142.6q-31.3 -29.3 -66.4 -3.9L265.6 209V-29.3q-3.9 -43 -46.8 -46.9 -43 3.9 -46.9 46.9V209L93.8 138.7q-35.2 -25.4 -66.5 3.9Q2 177.7 31.3 209l156.2 140.6q31.3 23.4 62.5 0L406.3 209q29.2 -31.3 3.9 -66.4zm687.5 0q-31.3 -29.3 -66.4 -3.9L953.1 209V-29.3q-3.9 -43 -46.8 -46.9 -43 3.9 -46.9 46.9V209l-78.1 -70.3q-35.2 -25.4 -66.5 3.9 -25.3 35.1 4 66.4L875 349.6q31.3 23.4 62.5 0L1093.8 209q29.2 -31.3 3.9 -66.4zM599.6 250q-37.1 -27.3 -74.2 0L197.3 500q-21.5 13.7 -25.4 39.1L125 851.6q-3.9 29.3 15.6 50.7 17.6 21.5 46.9 21.5H500q27.3 0 44.9 -17.5t17.6 -45V630.9q2 -17.6 19.5 -19.6 11.8 0 17.6 11.7l132.8 265.7q17.6 33.2 56.7 35.1h148.4q27.3 0 46.9 -21.5 17.6 -21.4 15.6 -50.7L953.1 539.1Q947.3 515.6 927.7 500L599.6 250z"/></svg>