<svg height="1000" width="1125" xmlns="http://www.w3.org/2000/svg"><path d="M234.4 5.9q29.3 -31.3 3.9 -66.4 -31.3 -29.3 -66.4 -4L15.6 76.2Q0 89.8 0 111.3t15.6 35.2l156.3 140.6q35.1 25.4 66.4 -3.9 25.4 -35.2 -3.9 -66.4l-64.5 -58.6h720.7q60.6 2 99.6 41t41.1 99.6V377q3.9 42.9 46.8 46.8 43 -3.9 46.9 -46.8v-78.2q-2 -99.6 -68.4 -166t-166 -68.3H169.9L234.4 5.9zM599.6 250q-37.1 -27.3 -74.2 0L197.3 500q-21.5 13.7 -25.4 39.1L125 851.6q-3.9 29.3 15.6 50.7 17.6 21.5 46.9 21.5H500q27.3 0 44.9 -17.5t17.6 -45V630.9q2 -17.6 19.5 -19.6 11.8 0 17.6 11.7l132.8 265.7q17.6 33.2 56.7 35.1h148.4q27.3 0 46.9 -21.5 17.6 -21.4 15.6 -50.7L953.1 539.1Q947.3 515.6 927.7 500L599.6 250z"/></svg>