<svg height="1000" width="1250" xmlns="http://www.w3.org/2000/svg"><path d="M775.4 -62.5L460.9 175.8 775.4 -62.5 460.9 175.8q27.4 5.8 52.8 23.4l328.1 250q39.1 31.3 46.9 82.1l13.6 80h285.2q29.3 0 46.9 -21.5t15.6 -50.7l-46.9 -312.5q-3.9 -23.5 -25.4 -39.1l-328.1 -250q-37.1 -25.4 -74.2 0zM474.6 250q-37.1 -27.3 -74.2 0L72.3 500q-21.5 13.7 -25.4 39.1L0 851.6q-3.9 29.3 15.6 50.7 17.6 21.5 46.9 21.5H375q27.3 0 44.9 -17.5t17.6 -45V630.9q2 -17.6 19.5 -19.6 11.8 0 17.6 11.7l132.8 265.7q17.6 33.2 56.7 35.1h148.4q27.3 0 46.9 -21.5Q877 880.9 875 851.6L828.1 539.1Q822.3 515.6 802.7 500L474.6 250z"/></svg>