<svg height="1000" width="1250" xmlns="http://www.w3.org/2000/svg"><path d="M472.7 142.6q25.3 35.1 -3.9 66.4L312.5 349.6q-31.2 23.4 -62.5 0L93.8 209q-29.3 -31.3 -4 -66.4 31.3 -29.3 66.5 -3.9l78.1 70.3V-29.3q3.9 -43 46.9 -46.9 42.9 3.9 46.8 46.9V209l78.2 -70.3q35.1 -25.4 66.4 3.9zm240.2 44.9q37.1 -27.3 74.2 0l328.1 250q21.5 13.7 25.4 39.1l46.9 312.5v9.7q27.3 0 44.9 17.6t17.6 44.9 -17.6 45 -44.9 17.5H62.5q-27.3 0 -44.9 -17.5T0 861.3t17.6 -44.9 44.9 -17.6h250v-9.7l46.9 -312.5q3.9 -23.5 25.4 -39.1l328.1 -250zM750 798.8h156.3H750h156.3L787.1 560.5q-5.8 -11.7 -17.6 -11.7 -17.5 2 -19.5 19.6v230.4z"/></svg>