<svg height="1000" width="875" xmlns="http://www.w3.org/2000/svg"><path d="M125 173.8v-62.5 62.5 -62.5h250v250h-31.2q-27.4 0 -45 17.6t-17.5 44.9 17.5 45 45 17.5h187.5q27.3 0 44.9 -17.5t17.6 -45 -17.6 -44.9 -44.9 -17.6H500v-250h250v62.5q0 27.4 17.6 45t44.9 17.5 44.9 -17.5 17.6 -45V80.1Q873 41 847.7 13.7q-27.4 -25.4 -66.4 -27.4H93.8q-39.1 2 -66.5 27.4Q2 41 0 80.1v93.7q0 27.4 17.6 45t44.9 17.5 44.9 -17.5 17.6 -45zM17.6 628.9Q0 648.4 0 673.8t17.6 45l125 125q31.2 27.3 68.3 13.6Q248 839.8 250 798.8v-62.5h375v62.5q2 41 39.1 58.6 37.1 13.7 68.3 -13.6l125 -125q17.6 -19.6 17.6 -45t-17.6 -44.9l-125 -125q-31.2 -27.3 -68.3 -11.7T625 548.8v62.5H250v-62.5q-2 -41 -39.1 -56.6t-68.3 11.7l-125 125z"/></svg>