<svg height="1000" width="1125" xmlns="http://www.w3.org/2000/svg"><path d="M125 173.8v-62.5 62.5 -62.5h125v625h-62.5q-27.3 0 -44.9 17.6T125 798.8t17.6 45 44.9 17.5h250q27.3 0 44.9 -17.5t17.6 -45 -17.6 -44.9 -44.9 -17.6H375v-625h125v62.5q0 27.4 17.6 45t44.9 17.5 44.9 -17.5 17.6 -45V80.1Q623 41 597.7 13.7q-27.4 -25.4 -66.4 -27.4H93.8q-39.1 2 -66.5 27.4Q2 41 0 80.1v93.7q0 27.4 17.6 45t44.9 17.5 44.9 -17.5 17.6 -45zM982.4 3.9q-19.5 -17.6 -44.9 -17.6T892.6 3.9l-125 125q-27.4 31.3 -13.7 68.4 17.6 37.1 58.6 39H875v375h-62.5q-41 2 -58.6 39.1 -13.7 37.1 13.7 68.4l125 125q19.5 17.5 44.9 17.5t44.9 -17.5l125 -125q27.4 -31.3 13.7 -68.4 -17.6 -37.1 -58.6 -39.1H1000v-375h62.5q41 -1.9 58.6 -39 13.7 -37.1 -13.7 -68.4l-125 -125z"/></svg>