<svg height="1000" width="1250" xmlns="http://www.w3.org/2000/svg"><path d="M76.2 -66.4Q39.1 -89.8 9.8 -58.6q-23.5 37.1 7.8 66.4l1156.2 906.3q37.1 23.4 66.4 -7.8 23.5 -37.2 -7.8 -66.5L695.3 419.9l86 -308.6h201.1l-11.7 46.9q-5.9 25.4 7.8 46.9 11.7 21.5 37.1 29.3 27.4 5.8 48.9 -7.8 19.5 -11.8 27.3 -37.1l21.5 -86q9.7 -46.9 -17.6 -82 -25.4 -33.2 -72.3 -35.2h-623q-33.2 0 -58.6 19.6t-33.2 50.7l-11.7 50.8L76.2 -66.4zm328.1 257.8v-1.9l19.5 -78.2h228.5l-64.4 224.6L404.3 191.4zm70.3 544.9H375h99.6H375q-27.3 0 -44.9 17.6t-17.6 44.9 17.6 45 44.9 17.5h312.5q27.3 0 44.9 -17.5t17.6 -45 -17.6 -44.9 -44.9 -17.6h-82l33.2 -121.1L533.2 531.3l-58.6 205z"/></svg>