<svg height="1000" width="1000" xmlns="http://www.w3.org/2000/svg"><path d="M187.5 669.9V496.1v173.8V496.1q0 -44.9 31.3 -76.2l54.6 -54.7 111.4 111.4q21.5 19.5 42.9 0 19.6 -21.5 0 -43L316.4 322.3l82 -82.1 111.4 111.4q21.5 19.5 42.9 0 19.6 -21.5 0 -43L441.4 197.3l82 -82.1 111.4 111.4q21.5 19.5 42.9 0 19.6 -21.5 0 -43L566.4 72.3l89.9 -89.9q58.5 -56.6 142.5 -58.6 86 2 142.6 58.6T1000 125q-2 84 -58.6 142.6L503.9 705.1q-31.2 31.2 -76.2 31.2H253.9L80.1 910.2q-33.2 27.3 -66.4 0 -27.4 -33.2 0 -66.4L187.5 669.9z"/></svg>