<svg height="1000" width="1250" xmlns="http://www.w3.org/2000/svg"><path d="M76.2 -66.4Q39.1 -89.8 9.8 -58.6q-23.5 37.1 7.8 66.4l1156.2 906.3q37.1 23.4 66.4 -7.8 23.5 -37.2 -7.8 -66.5L939.5 611.3q31.2 -1.9 48.8 -25.4 17.6 -27.3 7.8 -56.6l-2 -5.9Q951.2 398.4 839.8 337.9L818.4 48.8H875q27.3 0 44.9 -17.5t17.6 -45 -17.6 -44.9T875 -76.2H375q-27.3 0 -44.9 17.6t-17.6 44.9 17.6 45T375 48.8h58.6l-13.7 156.3L76.2 -66.4zm558.6 677.7L345.7 384.8l289.1 226.5L345.7 384.8q-62.5 54.7 -89.8 138.6l-2 5.9q-9.8 29.3 7.8 56.6 19.6 25.4 50.8 25.4h322.3zm-72.3 62.5v187.5V673.8v187.5q0 27.4 17.6 45t44.9 17.5 44.9 -17.5 17.6 -45V673.8h-125z"/></svg>