<svg height="1000" width="1000" xmlns="http://www.w3.org/2000/svg"><path d="M611.3 859.4q39.1 -7.8 60.6 -39.1 21.5 -31.2 13.6 -70.3l-3.9 -23.4Q666 648.4 625 580.1h281.3q39 -2 66.4 -27.4Q998 525.4 1000 486.3q-2 -56.6 -50.8 -84 33.2 -27.3 35.2 -72.2 0 -35.2 -21.5 -60.6t-54.7 -31.2q13.7 -21.5 13.7 -48.8Q918 123 857.4 99.6q2 -9.8 2 -19.5Q857.4 41 832 13.7q-27.3 -25.4 -66.4 -27.4H576.2q-58.6 0 -105.5 31.3l-74.2 50.8q-82 56.6 -84 156.2v216.8q2 89.9 70.3 146.5l13.7 11.7q80.1 64.5 101.5 164.1l4 21.5q7.8 39 39 60.5t70.3 13.7zM62.5 673.8h125 -125 125q27.3 0 44.9 -17.5t17.6 -45V173.8q0 -27.3 -17.6 -44.9t-44.9 -17.6h-125q-27.3 0 -44.9 17.6T0 173.8v437.5q0 27.4 17.6 45t44.9 17.5z"/></svg>