<svg height="1000" width="1000" xmlns="http://www.w3.org/2000/svg"><path d="M611.3 -11.7q39.1 7.8 60.6 39 21.5 31.3 13.6 70.4l-3.9 23.4Q666 199.2 625 267.6h281.3q39 1.9 66.4 27.3 25.3 27.4 27.3 66.4 -2 56.7 -50.8 84 33.2 27.4 35.2 72.3 0 35.1 -21.5 60.5t-54.7 31.3q13.7 21.5 13.7 48.8Q918 724.6 857.4 748q2 9.8 2 19.6 -2 39 -27.4 66.4 -27.3 25.4 -66.4 27.3H576.2q-58.6 0 -105.5 -31.2l-74.2 -50.8q-82 -56.6 -84 -156.3V406.3q2 -89.9 70.3 -146.5L396.5 248Q476.6 183.6 498 84l4 -21.5Q509.8 23.4 541 2t70.3 -13.7zM62.5 298.8h125 -125 125q27.3 0 44.9 17.6t17.6 44.9v437.5q0 27.4 -17.6 45t-44.9 17.5h-125q-27.3 0 -44.9 -17.5T0 798.8V361.3Q0 334 17.6 316.4t44.9 -17.6z"/></svg>