<svg height="1000" width="1125" xmlns="http://www.w3.org/2000/svg"><path d="M125 48.8q-52.7 2 -87.9 37.1Q2 121.1 0 173.8v125q3.9 27.4 31.3 37.1 58.5 21.5 62.5 87.9 -4 66.4 -62.5 87.9Q3.9 521.5 0 548.8v125q2 52.8 37.1 87.9t87.9 37.1h875q52.7 -1.9 87.9 -37.1t37.1 -87.9v-125q-3.9 -27.3 -31.2 -37.1 -58.6 -21.5 -62.5 -87.9 3.9 -66.4 62.5 -87.9 27.3 -9.7 31.2 -37.1v-125q-2 -52.7 -37.1 -87.9T1000 48.8H125zm125 218.8v312.5V267.6v312.5q2 29.3 31.3 31.2h562.5Q873 609.4 875 580.1V267.6q-2 -29.3 -31.2 -31.3H281.3q-29.3 2 -31.3 31.3zm-62.5 -31.3q0 -27.3 17.6 -44.9 17.6 -17.6 44.9 -17.6h625q27.3 0 44.9 17.6t17.6 44.9v375q0 27.4 -17.6 45T875 673.8H250q-27.3 0 -44.9 -17.5t-17.6 -45v-375z"/></svg>