<svg height="1000" width="1125" xmlns="http://www.w3.org/2000/svg"><path d="M750 173.8q105.5 2 177.7 72.3 70.3 72.3 72.3 177.7 -2 105.5 -72.3 177.8Q855.5 671.9 750 673.8H375Q269.5 671.9 197.3 601.6 127 529.3 125 423.8q2 -105.4 72.3 -177.7Q269.5 175.8 375 173.8h375zm375 250q-3.9 -160.1 -109.4 -265.6Q910.2 52.7 750 48.8H375Q214.8 52.7 109.4 158.2T0 423.8Q3.9 584 109.4 689.5T375 798.8h375q160.2 -3.9 265.6 -109.3T1125 423.8zM375 611.3q50.8 0 93.8 -25.4 42.9 -25.4 68.3 -68.3 25.4 -44.9 25.4 -93.8t-25.4 -93.7q-25.4 -43 -68.3 -68.4T375 236.3t-93.7 25.4 -68.4 68.4q-25.4 44.9 -25.4 93.7t25.4 93.8q25.4 42.9 68.4 68.3t93.7 25.4z"/></svg>