<svg height="1000" width="875" xmlns="http://www.w3.org/2000/svg"><path d="M46.9 -76.2Q3.9 -72.3 0 -29.3q3.9 43 46.9 46.9h15.6v291l-11.7 7.8Q3.9 355.5 0 423.8q2 136.7 72.3 220.7 42.9 50.8 95.7 80.1l-39.1 117.2q-9.8 29.3 7.8 56.6 19.6 25.4 50.8 25.4h500q31.3 0 50.8 -25.4 17.6 -27.3 7.8 -56.6L709 724.6q50.8 -29.3 93.7 -80.1Q873 560.5 875 423.8q-2 -68.3 -50.8 -105.4 -5.8 -5.9 -11.7 -9.8v-291h15.6q43 -3.9 46.9 -46.9 -3.9 -43 -46.9 -46.9H46.9zm703.1 500q2 3.9 -7.8 11.7 -13.7 11.8 -56.7 25.4 -91.7 25.4 -248 25.4t-248 -25.4q-43 -13.6 -56.7 -25.4Q123 427.7 125 423.8q-2 -1.9 7.8 -11.7 13.7 -11.7 56.7 -25.4 91.8 -25.4 248 -25.4t248 25.4q43 13.7 56.7 25.4 9.8 9.8 7.8 11.7zm-109.4 250v2 -2 2 -2zM218.8 48.8h62.5 -62.5 62.5q29.2 2 31.2 31.3 -2 29.3 -31.2 31.2h-62.5q-29.3 -1.9 -31.3 -31.2 2 -29.3 31.3 -31.3z"/></svg>