<svg height="1000" width="1250" xmlns="http://www.w3.org/2000/svg"><path d="M76.2 -66.4Q39.1 -89.8 9.8 -58.6q-23.5 37.1 7.8 66.4l1156.2 906.3q37.1 23.4 66.4 -7.8 23.5 -37.2 -7.8 -66.5L1017.6 671.9q74.2 -15.6 121.1 -119.2t48.8 -253.9q-2 -160.1 -54.7 -265.6T1000 -76.2q-80.1 3.9 -132.8 109.4t-54.7 265.6q2 146.5 46.9 250L744.1 459Q750 384.8 750 298.8q-2 -97.6 23.4 -199.2Q800.8 0 867.2 -76.2H312.5q-74.2 3.9 -125 97.7L76.2 -66.4zm640.6 742.2L130.9 212.9l585.9 462.9L130.9 212.9q-5.9 41 -5.9 85.9 0 148.5 -13.7 252t-31.2 166Q66.4 775.4 41 830.1q-17.6 31.2 -1.9 62.5 19.5 29.3 54.7 31.2h464.8q33.2 0 62.5 -17.5T666 853.5q23.5 -50.8 50.8 -177.7zm345.7 -377q0 52.8 -17.6 87.9 -17.6 35.2 -44.9 37.1 -27.3 -1.9 -44.9 -37.1t-17.6 -87.9 17.6 -87.9 44.9 -37.1q27.3 2 44.9 37.1t17.6 87.9z"/></svg>