<svg height="1000" width="1250" xmlns="http://www.w3.org/2000/svg"><path d="M867.2 -76.2Q800.8 -2 773.4 99.6 748 201.2 750 298.8 748 529.3 718.8 666 691.4 800.8 666 853.5q-15.6 35.2 -44.9 52.8t-62.5 17.5H93.8Q58.6 921.9 39.1 892.6 23.4 861.3 41 830.1 66.4 775.4 80.1 716.8q17.6 -62.5 31.2 -166t13.7 -252q2 -160.1 54.7 -265.6T312.5 -76.2h554.7zm132.8 750Q919.9 669.9 867.2 564.5 814.5 459 812.5 298.8q2 -160.1 54.7 -265.6T1000 -76.2q80.1 3.9 132.8 109.4t54.7 265.6q-2 160.2 -54.7 265.7T1000 673.8zm0 -250q27.3 -1.9 44.9 -37.1 17.6 -35.1 17.6 -87.9t-17.6 -87.9T1000 173.8q-27.3 2 -44.9 37.1t-17.6 87.9 17.6 87.9 44.9 37.1zM281.3 330.1q-2 -29.3 -31.3 -31.3 -29.3 2 -31.2 31.3 1.9 29.3 31.2 31.2 29.3 -1.9 31.3 -31.2zm125 0q-2 -29.3 -31.3 -31.3 -29.3 2 -31.2 31.3 1.9 29.3 31.2 31.2 29.3 -1.9 31.3 -31.2zm93.7 31.2q29.3 -1.9 31.3 -31.2 -2 -29.3 -31.3 -31.3 -29.3 2 -31.2 31.3 1.9 29.3 31.2 31.2zm156.3 -31.2q-2 -29.3 -31.3 -31.3 -29.3 2 -31.2 31.3 1.9 29.3 31.2 31.2 29.3 -1.9 31.3 -31.2z"/></svg>