<svg height="1000" width="1125" xmlns="http://www.w3.org/2000/svg"><path d="M62.5 -76.2h375 -375 375q27.3 0 44.9 17.6t17.6 44.9v62.5H0v-62.5Q0 -41 17.6 -58.6t44.9 -17.6zM0 111.3h46.9H0h500V877q-3.9 42.9 -46.9 46.8Q410.2 919.9 406.3 877v-15.7H93.8V877q-4 42.9 -46.9 46.8Q3.9 919.9 0 877V111.3zm375 250q-29.3 2 -31.2 31.3v125q1.9 29.3 31.2 31.2 29.3 -1.9 31.3 -31.2v-125q-2 -29.3 -31.3 -31.3zM687.5 -76.2h375 -375 375q27.3 0 44.9 17.6t17.6 44.9v62.5H625v-62.5q0 -27.3 17.6 -44.9t44.9 -17.6zM625 111.3h46.9H625h500V877q-3.9 42.9 -46.9 46.8 -42.9 -3.9 -46.8 -46.8v-15.7H718.8V877q-4 42.9 -46.9 46.8Q628.9 919.9 625 877V111.3zm375 250q-29.3 2 -31.2 31.3v125q1.9 29.3 31.2 31.2 29.3 -1.9 31.3 -31.2v-125q-2 -29.3 -31.3 -31.3z"/></svg>