<svg height="1000" width="1000" xmlns="http://www.w3.org/2000/svg"><path d="M343.8 95.7v78.1V95.7v78.1h312.5V95.7Q654.3 82 640.6 80.1H359.4Q345.7 82 343.8 95.7zM250 173.8V95.7v78.1V95.7q2 -46.9 31.3 -78.1 31.2 -29.3 78.1 -31.3h281.2q46.9 2 78.2 31.3Q748 48.8 750 95.7v78.1h54.7q39.1 0 66.4 27.4l101.6 101.5q27.3 27.4 27.3 66.4v179.7H750v-62.5q0 -27.3 -17.6 -44.9t-44.9 -17.6 -44.9 17.6T625 486.3v62.5H375v-62.5q0 -27.3 -17.6 -44.9t-44.9 -17.6 -44.9 17.6T250 486.3v62.5H0V369.1q0 -39 27.3 -66.4L128.9 201.2q27.4 -27.4 66.4 -27.4H250zM0 736.3v-125 125 -125h250q0 27.4 17.6 45t44.9 17.5 44.9 -17.5 17.6 -45h250q0 27.4 17.6 45t44.9 17.5 44.9 -17.5 17.6 -45h250v125q-2 52.8 -37.1 87.9T875 861.3H125Q72.3 859.4 37.1 824.2T0 736.3z"/></svg>