<svg height="1000" width="875" xmlns="http://www.w3.org/2000/svg"><path d="M363.3 25.4Q312.5 -13.7 250 -13.7q-80.1 2 -132.8 54.7T62.5 173.8v11.7q0 46.9 21.5 87.9l44.9 91.8q13.7 27.4 19.5 54.7l70.4 402.4q9.7 35.1 44.9 39 37.1 -1.9 46.8 -35.1l56.7 -238.3q15.6 -50.8 70.3 -54.7 54.7 3.9 70.3 54.7l56.7 238.3q9.7 33.2 46.8 35.1 35.2 -3.9 45 -39l70.3 -402.4q5.8 -27.3 19.5 -54.7L791 273.4q21.5 -41 21.5 -87.9v-5.8q-2 -82 -56.6 -136.7T617.2 -13.7q-72.3 0 -127 46.9l-7.8 5.9 39.1 29.3q21.5 21.4 5.8 44.9 -19.5 21.5 -44.9 5.8L435.5 82 363.3 25.4z"/></svg>