<svg height="1000" width="1000" xmlns="http://www.w3.org/2000/svg"><path d="M0 80.1q2 39 27.3 66.4 27.4 25.4 66.5 27.3H125v125h125v-125h187.5v125h125v-125H750v125h125v-125h31.3q39 -1.9 66.4 -27.3Q998 119.1 1000 80.1V-50.8q-2 -23.4 -25.4 -25.4 -5.8 0 -9.8 2l-95.7 39Q812.5 -13.7 752 -13.7H248q-60.5 0 -117.1 -21.5l-95.7 -39q-3.9 -2 -9.8 -2Q2 -74.2 0 -50.8V80.1zm125 406.2v375 -375 375q0 27.4 17.6 45t44.9 17.5 44.9 -17.5 17.6 -45v-375h500v375q0 27.4 17.6 45t44.9 17.5 44.9 -17.5 17.6 -45v-375h62.5q27.3 0 44.9 -17.5t17.6 -45 -17.6 -44.9 -44.9 -17.6h-875q-27.3 0 -44.9 17.6T0 423.8t17.6 45 44.9 17.5H125z"/></svg>