<svg height="1000" width="875" xmlns="http://www.w3.org/2000/svg"><path d="M0 -13.7v27.4 -27.4 27.4q0 48.8 9.8 97.6h689.4Q709 91.8 724.6 74.2L798.8 0q13.7 -13.7 13.7 -31.3 -3.9 -41 -44.9 -44.9H62.5q-27.3 0 -44.9 17.6T0 -13.7zm687.5 187.5H27.3h660.2H27.3q35.2 105.5 113.3 187.5h664.1l-91.8 -123Q691.4 209 687.5 173.8zM246.1 443.4l228.5 134.7L246.1 443.4l228.5 134.7q23.4 13.7 43 33.2h351.5Q875 582 875 552.7q0 -68.3 -29.3 -128.9H214.8l31.3 19.6zm316.4 230.4q31.3 64.5 19.5 134.8l-11.7 70.3q-1.9 17.6 9.8 31.3 9.7 13.6 29.3 13.6 15.6 0 27.3 -11.7L789.1 759.8q39 -37.1 60.5 -86H562.5z"/></svg>