<svg height="1000" width="1125" xmlns="http://www.w3.org/2000/svg"><path d="M156.3 9.8Q125 85.9 125 173.8t31.3 164.1q9.7 25.4 0 46.9 -9.8 23.4 -33.3 35.1 -25.3 9.8 -48.8 0Q50.8 408.2 41 384.8 0 287.1 0 173.8T41 -37.1q9.8 -23.4 33.2 -33.2t48.8 -2q23.5 11.8 33.3 33.2 9.7 23.5 0 48.9zM1084 -37.1q41 97.6 41 210.9t-41 211q-9.8 23.4 -33.2 33.2t-48.8 1.9q-23.5 -11.7 -33.2 -33.2 -9.8 -23.4 0 -48.8Q1000 261.7 1000 173.8T968.8 9.8q-9.8 -25.4 0 -46.9 9.7 -23.4 33.2 -35.2 25.3 -9.7 48.8 0 23.4 11.8 33.2 35.2zM687.5 173.8q-3.9 72.3 -62.5 107.5v580q0 27.4 -17.6 45t-44.9 17.5 -44.9 -17.5 -17.6 -45v-580Q441.4 246.1 437.5 173.8q2 -52.7 37.1 -87.9t87.9 -37.1q52.7 2 87.9 37.1t37.1 87.9zM334 74.2q-21.5 44.9 -21.5 99.6t21.5 99.6q9.8 25.4 0 48.9t-33.2 33.2q-25.4 9.7 -46.9 1.9 -23.4 -9.7 -35.1 -33.2Q187.5 253.9 187.5 173.8T218.8 23.4Q230.5 0 253.9 -9.8q23.4 -7.8 46.9 2T334 25.4t0 48.8zM906.3 23.4q31.2 70.4 31.2 150.4t-31.2 150.4q-11.8 23.5 -35.2 33.2 -23.4 7.8 -46.9 -1.9T791 322.3t0 -48.9q21.5 -44.9 21.5 -99.6T791 74.2q-9.7 -25.4 0 -48.8t33.2 -33.2q25.4 -9.8 46.9 -2 23.4 9.8 35.2 33.2z"/></svg>