<svg height="1000" width="1000" xmlns="http://www.w3.org/2000/svg"><path d="M472.7 -70.3q27.3 -11.7 54.6 0L839.8 85.9q23.5 13.7 31.3 37.1t-2 46.9q-19.5 35.2 -56.6 35.2v156.2q0 27.4 -17.6 45T750 423.8h-9.8l62.5 375h134.8q27.3 0 44.9 17.6t17.6 44.9 -17.6 45 -44.9 17.5h-875q-27.3 0 -44.9 -17.5T0 861.3t17.6 -44.9 44.9 -17.6h134.8l62.5 -375H250q-27.3 0 -44.9 -17.5t-17.6 -45V205.1q-37.1 0 -56.6 -35.2 -9.8 -23.4 -2 -46.9t31.3 -37.1L472.7 -70.3zm142.5 869.1L500 703.1l115.2 95.7L500 703.1l-113.3 95.7h228.5zm-228.5 -375l-9.7 54.7 9.7 -54.7 -9.7 54.7L500 582 623 478.5l-9.7 -54.7H386.7zm-27.3 162.1l-21.5 130.9 21.5 -130.9 -21.5 130.9 89.8 -74.2 -68.3 -56.7zm214.8 56.7l87.9 74.2 -87.9 -74.2 87.9 74.2L640.6 585.9l-66.4 56.7zM343.8 173.8q-29.3 2 -31.3 31.3 2 29.3 31.3 31.2h312.5q29.2 -1.9 31.2 -31.2 -2 -29.3 -31.2 -31.3H343.8z"/></svg>