<svg height="1000" width="1125" xmlns="http://www.w3.org/2000/svg"><path d="M123 -72.3q-25.3 -7.8 -48.8 2Q50.8 -60.5 41 -37.1 0 60.5 0 173.8t41 211q9.8 23.4 33.2 33.2t48.8 1.9q23.5 -11.7 33.3 -33.2 9.7 -23.4 0 -48.8Q125 261.7 125 173.8t31.3 -164q9.7 -25.4 0 -46.9Q146.5 -60.5 123 -72.3zm879 0q-23.5 11.8 -33.2 35.2 -9.8 21.5 0 46.9 31.2 76.1 31.2 164t-31.2 164.1q-9.8 25.4 0 46.9 9.7 23.4 33.2 35.1 25.3 9.8 48.8 0 23.4 -11.7 33.2 -35.1 41 -97.7 41 -211t-41 -210.9q-9.8 -23.4 -33.2 -33.2t-48.8 -2zM664.1 246.1q23.4 -31.3 23.4 -72.3 -2 -52.7 -37.1 -87.9T562.5 48.8q-52.7 2 -87.9 37.1t-37.1 87.9q0 41 23.4 72.3L193.4 835.9q-9.8 23.5 -2 46.9 9.8 23.5 33.2 35.2t46.9 1.9q23.4 -7.8 35.1 -33.2l41.1 -87.9h429.6l41.1 87.9q11.7 23.5 35.1 33.2 23.5 7.8 46.9 -1.9 25.4 -11.7 33.2 -35.2 9.8 -23.4 -2 -46.9L664.1 246.1zm56.6 427.7H404.3h316.4H404.3l27.3 -62.5h261.8l27.3 62.5zM562.5 324.2l74.2 162.1L562.5 324.2l74.2 162.1H488.3l74.2 -162.1zM318.4 68.4Q332 27.3 294.9 5.9q-41 -13.7 -62.5 23.4 -29.3 68.4 -29.3 144.5t29.3 144.6q21.5 37.1 62.5 23.4 37.1 -21.5 23.5 -62.5Q296.9 230.5 296.9 173.8T318.4 68.4zM892.6 29.3Q871.1 -7.8 830.1 5.9 793 27.3 806.6 68.4q21.5 48.8 21.5 105.4t-21.5 105.5q-13.6 41 23.5 62.5 41 13.7 62.5 -23.4Q921.9 250 921.9 173.8T892.6 29.3z"/></svg>