<svg height="1000" width="1250" xmlns="http://www.w3.org/2000/svg"><path d="M187.5 48.8q2 -52.7 37.1 -87.9 35.2 -35.1 87.9 -37.1h207q39.1 0 70.3 21.5T636.7 2l93.8 234.3h207v-66.4q0 -72.2 33.2 -138.6l3.9 -9.8Q988.3 -2 1011.7 -9.8t46.9 2q23.4 13.7 31.2 37.1t-1.9 46.9l-5.9 9.7q-19.5 39.1 -19.5 84v66.4h109.4q33.2 0 54.7 23.5 23.4 21.5 23.4 54.7v87.8q-2 50.8 -44.9 80.1l-84 52.8q-41 -17.6 -89.8 -17.6 -119.2 3.9 -187.5 93.7H687.5q0 27.4 -17.6 45T625 673.8h-15.6l-11.7 27.4 11.7 11.7q17.6 19.5 17.6 43 0 25.4 -17.6 44.9l-44.9 44.9q-19.6 17.6 -43 17.6 -25.4 0 -44.9 -17.6L464.8 834l-27.3 11.7v15.6q0 27.4 -17.6 45T375 923.8h-62.5q-27.3 0 -44.9 -17.5t-17.6 -45v-15.6L222.7 834l-11.8 11.7q-19.5 17.6 -44.9 17.6 -23.4 0 -43 -17.6L78.1 800.8Q60.5 781.3 60.5 755.9q0 -23.5 17.6 -43l11.7 -11.7L78.1 673.8H62.5q-27.3 0 -44.9 -17.5T0 611.3v-62.5q0 -27.3 17.6 -44.9t44.9 -17.6h15.6L89.8 459 78.1 447.3q-17.6 -19.6 -17.6 -45 0 -23.4 17.6 -42.9L123 314.5q29.3 -25.4 64.5 -13.7v-252zm332 0h-207 207 -207v187.5h283.2L519.5 48.8zm-175.7 375q-87.9 2 -134.8 78.2 -43 78.1 0 156.2 46.9 76.2 134.8 78.1 87.8 -1.9 134.7 -78.1 43 -78.1 0 -156.2Q431.6 425.8 343.8 423.8zm687.5 375q42.9 -3.9 46.8 -46.8 -3.9 -43 -46.8 -46.9 -43 3.9 -46.9 46.9 3.9 42.9 46.9 46.8zm0 125Q959 921.9 910.2 873 861.3 824.2 859.4 752q3.9 -89.9 72.2 -140.7 43 -31.2 99.7 -31.2h15.6q66.4 7.8 111.3 54.7 43 48.8 44.9 117.2 -1.9 72.2 -50.8 121t-121 50.8z"/></svg>