<svg height="1000" width="1250" xmlns="http://www.w3.org/2000/svg"><path d="M675.8 136.7q-29.3 -33.2 -70.3 -21.5 -41 15.7 -43 58.6v500q0 27.4 17.6 45t44.9 17.5 44.9 -17.5 17.6 -45V361.3l168 224.6q19.5 25.4 50.8 25.4T957 585.9l168 -224.6v312.5q0 27.4 17.6 45t44.9 17.5 44.9 -17.5 17.6 -45v-500q-2 -42.9 -43 -58.6 -41 -11.7 -70.3 21.5L906.3 445.3 675.8 136.7zM0 173.8q0 27.4 17.6 45 17.6 17.5 44.9 17.5h125v437.5q0 27.4 17.6 45t44.9 17.5 44.9 -17.5 17.6 -45V236.3h125q27.3 0 44.9 -17.5t17.6 -45 -17.6 -44.9 -44.9 -17.6h-375q-27.3 0 -44.9 17.6T0 173.8z"/></svg>