<svg height="1000" width="625" xmlns="http://www.w3.org/2000/svg"><path d="M125 -76.2q-52.7 2 -87.9 37.1Q2 -3.9 0 48.8v562.5Q3.9 744.1 91.8 832t220.7 91.8Q445.3 919.9 533.2 832T625 611.3V48.8q-2 -52.7 -37.1 -87.9T500 -76.2H125zm187.5 812.5q-52.7 -1.9 -82 -46.8 -23.5 -46.9 0 -93.8 29.3 -44.9 82 -46.9 52.7 2 82 46.9 23.5 46.9 0 93.8 -29.3 44.9 -82 46.8zm93.8 -343.7q-2 52.7 -46.9 82 -46.9 23.4 -93.8 0 -44.9 -29.3 -46.8 -82 1.9 -52.8 46.8 -82.1 46.9 -23.4 93.8 0 44.9 29.3 46.9 82.1zM312.5 236.3q-52.7 -1.9 -82 -46.8 -23.5 -46.9 0 -93.8 29.3 -44.9 82 -46.9 52.7 2 82 46.9 23.5 46.9 0 93.8 -29.3 44.9 -82 46.8z"/></svg>