<svg height="1000" width="1250" xmlns="http://www.w3.org/2000/svg"><path d="M93.8 -13.7q-39.1 2 -66.5 27.4Q2 41 0 80.1v500q2 39 27.3 66.4 27.4 25.4 66.5 27.3H127q13.6 -82 72.2 -132.8 60.6 -52.7 144.6 -54.7 83.9 2 144.5 54.7 58.6 50.8 72.2 132.8h627q27.3 0 44.9 -17.5t17.6 -45 -17.6 -44.9 -44.9 -17.6h-125V80.1q-2 -39.1 -27.3 -66.4 -27.4 -25.4 -66.4 -27.4h-875zm62.5 125q29.2 2 31.2 31.3v255.8Q154.3 416 125 439.5V142.6q2 -29.3 31.3 -31.3zm187.5 250q-15.7 0 -31.3 2V142.6q2 -29.3 31.3 -31.3 29.2 2 31.2 31.3v220.7q-15.6 -2 -31.2 -2zM500 398.4V142.6v255.8V142.6q2 -29.3 31.3 -31.3 29.2 2 31.2 31.3v296.9Q533.2 416 500 398.4zM718.8 111.3q29.2 2 31.2 31.3v375q-2 29.3 -31.2 31.2 -29.3 -1.9 -31.3 -31.2v-375q2 -29.3 31.3 -31.3zm218.7 31.3v375 -375 375q-2 29.3 -31.2 31.2Q877 546.9 875 517.6v-375q2 -29.3 31.3 -31.3 29.2 2 31.2 31.3zM343.8 861.3q87.8 -1.9 134.7 -78.1 43 -78.1 0 -156.2Q431.6 550.8 343.8 548.8q-87.9 2 -134.8 78.2 -43 78.1 0 156.2 46.9 76.2 134.8 78.1zm0 -218.7q27.3 0 44.9 17.6 17.6 17.5 17.6 44.9T388.7 750t-44.9 17.6 -45 -17.6 -17.5 -44.9 17.5 -44.9 45 -17.6z"/></svg>