<svg height="1000" width="875" xmlns="http://www.w3.org/2000/svg"><path d="M187.5 -76.2q-80.1 2 -132.8 54.7Q2 31.3 0 111.3v500q2 72.3 44.9 123.1 44.9 50.8 113.3 62.5l-89.8 89.8q-9.8 11.7 -3.9 23.5 3.9 11.7 19.5 13.6h78.1q25.4 0 43 -17.5L312.5 798.8h250l107.4 107.5q17.6 17.5 43 17.5H791q15.6 -1.9 19.5 -13.6 5.9 -11.8 -3.9 -23.5l-89.8 -89.8q68.4 -11.7 113.3 -62.5Q873 683.6 875 611.3v-500q-2 -80 -54.7 -132.8T687.5 -76.2h-500zM125 111.3Q125 84 142.6 66.4q17.6 -17.6 44.9 -17.6h500q27.3 0 44.9 17.6t17.6 44.9v187.5q0 27.4 -17.6 45t-44.9 17.5h-500q-27.3 0 -44.9 -17.5t-17.6 -45V111.3zm312.5 375q52.7 2 82 46.9 23.5 46.9 0 93.8 -29.3 44.9 -82 46.8 -52.7 -1.9 -82 -46.8 -23.5 -46.9 0 -93.8 29.3 -44.9 82 -46.9z"/></svg>