<svg height="1000" width="875" xmlns="http://www.w3.org/2000/svg"><path d="M169.9 17.6q-37.1 0 -60.5 29.3L84 78.1q-31.3 31.3 -66.4 7.8Q-13.7 54.7 9.8 19.5l25.4 -31.2q52.7 -62.5 134.7 -64.5h535.2q82 2 134.7 64.5l25.4 31.2q23.5 37.1 -7.8 66.4Q820.3 109.4 791 78.1L767.6 46.9Q742.2 17.6 705.1 17.6H484.4v93.7h78.1q80.1 2 132.8 54.7T750 298.8v312.5q-3.9 91.8 -72.3 146.5l128.9 128.9q9.8 11.7 3.9 23.5 -3.9 11.7 -19.5 13.6h-78.1q-25.4 0 -43 -17.5L562.5 798.8h-250L205.1 906.3q-17.6 17.5 -43 17.5H84Q68.4 921.9 64.5 910.2q-5.9 -11.8 3.9 -23.5L197.3 757.8Q128.9 703.1 125 611.3V298.8q2 -80 54.7 -132.8t132.8 -54.7h78.1V17.6H169.9zm142.6 218.7q-27.3 0 -44.9 17.6Q250 271.5 250 298.8v62.5q0 27.4 17.6 45t44.9 17.5h250q27.3 0 44.9 -17.5t17.6 -45v-62.5q0 -27.3 -17.6 -44.9t-44.9 -17.6h-250zm62.5 375q0 -27.3 -17.6 -44.9 -17.6 -17.6 -44.9 -17.6t-44.9 17.6T250 611.3t17.6 45 44.9 17.5 44.9 -17.5 17.6 -45zm187.5 62.5q27.3 0 44.9 -17.5 17.6 -17.6 17.6 -45t-17.6 -44.9 -44.9 -17.6 -44.9 17.6T500 611.3t17.6 45 44.9 17.5z"/></svg>