<svg height="1000" width="875" xmlns="http://www.w3.org/2000/svg"><path d="M187.5 -76.2q-80.1 2 -132.8 54.7Q2 31.3 0 111.3v500q2 72.3 44.9 123.1 44.9 50.8 113.3 62.5l-89.8 89.8q-9.8 11.7 -3.9 23.5 3.9 11.7 19.5 13.6h78.1q25.4 0 43 -17.5L312.5 798.8h250l107.4 107.5q17.6 17.5 43 17.5H791q15.6 -1.9 19.5 -13.6 5.9 -11.8 -3.9 -23.5l-89.8 -89.8q68.4 -11.7 113.3 -62.5Q873 683.6 875 611.3v-500q-2 -80 -54.7 -132.8T687.5 -76.2h-500zm-62.5 250q0 -27.3 17.6 -44.9 17.6 -17.6 44.9 -17.6h156.3q27.3 0 44.9 17.6t17.6 44.9v187.5q0 27.4 -17.6 45t-44.9 17.5H187.5q-27.3 0 -44.9 -17.5t-17.6 -45V173.8zm406.3 -62.5h156.2H531.3h156.2q27.3 0 44.9 17.6t17.6 44.9v187.5q0 27.4 -17.6 45t-44.9 17.5H531.3q-27.4 0 -45 -17.5t-17.5 -45V173.8q0 -27.3 17.5 -44.9t45 -17.6zM125 611.3q0 -27.3 17.6 -44.9 17.6 -17.6 44.9 -17.6t44.9 17.6 17.6 44.9 -17.6 45 -44.9 17.5 -44.9 -17.5 -17.6 -45zm562.5 -62.5q27.3 0 44.9 17.6Q750 584 750 611.3t-17.6 45 -44.9 17.5 -44.9 -17.5 -17.6 -45 17.6 -44.9 44.9 -17.6z"/></svg>