<svg height="1000" width="1000" xmlns="http://www.w3.org/2000/svg"><path d="M218.8 -76.2q19.5 0 29.2 19.6 5.9 19.5 -7.8 33.2l-60.5 60.5 39.1 39.1 13.6 -13.7q33.2 -27.3 66.4 0 27.4 33.2 0 66.4l-13.6 13.7 29.3 29.3q80 -58.6 185.5 -60.6 105.5 2 185.5 60.6L820.3 37.1l-60.5 -60.5Q746.1 -37.1 752 -56.6q9.7 -17.6 29.3 -19.6h187.5q29.2 2 31.2 31.3v187.5q0 21.5 -19.5 29.3 -19.6 5.8 -33.2 -7.8l-60.6 -60.6L752 238.3q58.5 80.1 60.5 185.5 -2 119.2 -76.2 205.1 -74.2 84 -189.4 103.5v35.2h31.2q43 3.9 46.9 46.9 -3.9 42.9 -46.9 46.8h-31.2V877Q543 919.9 500 923.8 457 919.9 453.1 877v-15.7h-31.2q-43 -3.9 -46.9 -46.8 3.9 -43 46.9 -46.9h31.2v-35.2Q337.9 712.9 263.7 628.9 189.5 543 187.5 423.8q2 -105.4 60.5 -185.5L218.8 209l-13.7 13.7q-33.2 27.3 -66.4 0 -27.4 -33.2 0 -66.4l13.6 -13.7 -39 -39.1 -60.6 60.6q-13.6 13.6 -33.2 7.8Q2 162.1 0 142.6V-44.9q2 -29.3 31.3 -31.3h187.5zm468.7 500q0 -50.8 -25.4 -93.7 -25.4 -43 -68.3 -68.4 -45 -25.4 -93.8 -25.4t-93.7 25.4q-43 25.4 -68.4 68.4t-25.4 93.7 25.4 93.8 68.4 68.3q44.9 25.4 93.7 25.4t93.8 -25.4q42.9 -25.4 68.3 -68.3t25.4 -93.8z"/></svg>