<svg height="1000" width="875" xmlns="http://www.w3.org/2000/svg"><path d="M320.3 -76.2h234.4H320.3h234.4q39.1 2 56.6 35.2l13.7 27.3h187.5q27.3 0 44.9 17.6T875 48.8t-17.6 45 -44.9 17.5h-750q-27.3 0 -44.9 -17.5T0 48.8 17.6 3.9t44.9 -17.6H250L263.7 -41q17.6 -33.2 56.6 -35.2zm-257.8 250h750 -750 750v625q-2 52.8 -37.1 87.9t-87.9 37.1h-500q-52.7 -1.9 -87.9 -37.1T62.5 798.8v-625zm375 125q-19.5 0 -33.2 13.7L248 468.8q-27.3 33.2 0 66.4 33.3 27.3 66.5 0L390.6 459v261.7q3.9 43 46.9 46.9 43 -3.9 46.9 -46.9V459l76.1 76.2q33.3 27.3 66.5 0 27.3 -33.2 0 -66.4L470.7 312.5Q457 298.8 437.5 298.8z"/></svg>