<svg height="1000" width="875" xmlns="http://www.w3.org/2000/svg"><path d="M263.7 -41q17.6 -33.2 56.6 -35.2h234.4q39.1 2 56.6 35.2l13.7 27.3h187.5q27.3 0 44.9 17.6T875 48.8t-17.6 45 -44.9 17.5h-750q-27.3 0 -44.9 -17.5T0 48.8 17.6 3.9t44.9 -17.6H250L263.7 -41zM62.5 173.8h750 -750 750v625q-2 52.8 -37.1 87.9t-87.9 37.1h-500q-52.7 -1.9 -87.9 -37.1T62.5 798.8v-625zm187.5 125q-29.3 2 -31.2 31.3v437.5q1.9 29.3 31.2 31.2 29.3 -1.9 31.3 -31.2V330.1q-2 -29.3 -31.3 -31.3zm187.5 0q-29.3 2 -31.2 31.3v437.5q1.9 29.3 31.2 31.2 29.3 -1.9 31.3 -31.2V330.1q-2 -29.3 -31.3 -31.3zm187.5 0q-29.3 2 -31.2 31.3v437.5q1.9 29.3 31.2 31.2 29.3 -1.9 31.3 -31.2V330.1q-2 -29.3 -31.3 -31.3z"/></svg>