<svg height="1000" width="875" xmlns="http://www.w3.org/2000/svg"><path d="M412.1 -64.5l-291 318.4 291 -318.4 -291 318.4q-11.7 13.7 -11.7 31.3 3.9 41 44.9 44.9h48.8L60.5 472.7q-13.6 13.6 -13.6 31.2 3.9 41 44.9 44.9h64.5L9.8 724.6Q0 736.3 0 753.9q3.9 41 46.9 44.9H375v62.5q0 27.4 17.6 45t44.9 17.5 44.9 -17.5 17.6 -45v-62.5h330.1q41 -3.9 44.9 -44.9 0 -17.6 -9.8 -29.3L718.8 548.8h64.4q41 -3.9 44.9 -44.9 0 -17.6 -13.6 -31.2L671.9 330.1h48.8q41 -3.9 44.9 -44.9 0 -17.6 -11.7 -31.3l-291 -318.4q-9.8 -11.7 -25.4 -11.7t-25.4 11.7z"/></svg>