<svg height="1000" width="1000" xmlns="http://www.w3.org/2000/svg"><path d="M470.7 -66.4q29.3 17.6 29.3 52.7V127h173.8q13.7 -43 60.6 -46.9h171.9q39 1.9 66.4 27.3 25.3 27.4 27.3 66.4 -2 39.1 -27.3 66.4 -27.4 25.4 -66.4 27.4H734.4q-46.9 -3.9 -60.6 -46.9H500v140.6q0 35.2 -29.3 52.8t-60.5 3.9L35.2 230.5Q2 210.9 0 173.8q2 -37.1 35.2 -56.6l375 -187.5q31.2 -13.7 60.5 3.9zm91.8 490.2q0 -27.3 17.6 -44.9 17.6 -17.6 44.9 -17.6h312.5q27.3 0 44.9 17.6t17.6 44.9v125q0 27.4 -17.6 45t-44.9 17.5H625q-27.3 0 -44.9 -17.5t-17.6 -45v-125zm-500 250H250 62.5 250q27.3 0 44.9 17.6t17.6 44.9v125q0 27.4 -17.6 45T250 923.8H62.5q-27.3 0 -44.9 -17.5T0 861.3v-125Q0 709 17.6 691.4t44.9 -17.6zm375 0h500 -500 500q27.3 0 44.9 17.6t17.6 44.9v125q0 27.4 -17.6 45t-44.9 17.5h-500q-27.3 0 -44.9 -17.5t-17.6 -45v-125q0 -27.3 17.6 -44.9t44.9 -17.6z"/></svg>