<svg height="1000" width="1250" xmlns="http://www.w3.org/2000/svg"><path d="M93.8 -76.2q-39.1 2 -66.5 27.4Q2 -21.5 0 17.6v625q2 39 27.3 66.4 27.4 25.4 66.5 27.3H125q2 80.1 54.7 132.8t132.8 54.7q80.1 -1.9 132.8 -54.7T500 736.3h250q2 80.1 54.7 132.8t132.8 54.7q80.1 -1.9 132.8 -54.7T1125 736.3h62.5q27.3 0 44.9 -17.5t17.6 -45 -17.6 -44.9 -44.9 -17.6V386.7q0 -50.8 -37.1 -87.9L1000 148.4q-37.1 -37.1 -87.9 -37.1h-99.6V17.6q-2 -39.1 -27.3 -66.4 -27.4 -25.4 -66.4 -27.4h-625zm718.7 312.5h99.6 -99.6 99.6l150.4 150.4v37.1h-250V236.3zm-593.7 500q1.9 -52.7 46.8 -82 46.9 -23.4 93.8 0 44.9 29.3 46.9 82 -2 52.8 -46.9 82.1 -46.9 23.4 -93.8 0 -44.9 -29.3 -46.8 -82.1zm718.7 -93.7q52.7 1.9 82 46.9 23.5 46.8 0 93.7 -29.3 44.9 -82 46.9 -52.7 -2 -82 -46.9 -23.5 -46.9 0 -93.7 29.3 -45 82 -46.9z"/></svg>