<svg height="1000" width="1250" xmlns="http://www.w3.org/2000/svg"><path d="M187.5 -13.7q-52.7 2 -87.9 37.1Q64.5 58.6 62.5 111.3v62.5q-27.3 0 -44.9 17.6T0 236.3v187.5q0 27.4 17.6 45t44.9 17.5v62.5q-27.3 0 -44.9 17.6T0 611.3t17.6 45 44.9 17.5H125q2 80.1 54.7 132.8t132.8 54.7q80.1 -1.9 132.8 -54.7T500 673.8h250q2 80.1 54.7 132.8t132.8 54.7q80.1 -1.9 132.8 -54.7T1125 673.8h62.5q27.3 0 44.9 -17.5t17.6 -45 -17.6 -44.9 -44.9 -17.6v-62.5q-2 -52.7 -37.1 -87.9t-87.9 -37.1h-7.8q-2 -1.9 -2 -3.9v-1.9L949.2 123Q914.1 52.7 834 48.8H732.4Q697.3 -9.8 625 -13.7H187.5zM750 173.8h84 -84 84l84 187.5H750V173.8zm-531.2 500q1.9 -52.7 46.8 -82 46.9 -23.4 93.8 0 44.9 29.3 46.9 82 -2 52.8 -46.9 82.1 -46.9 23.4 -93.8 0 -44.9 -29.3 -46.8 -82.1zm718.7 -93.7q52.7 1.9 82 46.9 23.5 46.8 0 93.7 -29.3 44.9 -82 46.9 -52.7 -2 -82 -46.9 -23.5 -46.9 0 -93.7 29.3 -45 82 -46.9zM494.1 187.5l68.4 101.6L494.1 187.5l68.4 101.6v-84q2 -29.3 31.3 -31.3 29.2 2 31.2 31.3v187.5q-2 21.5 -21.5 29.3 -23.4 5.8 -35.1 -11.7L500 308.6v84q-2 29.3 -31.2 31.2 -29.3 -1.9 -31.3 -31.2V205.1q2 -21.5 21.5 -29.3 23.4 -5.9 35.1 11.7zM250 205.1v125 -125 125q2 29.3 31.3 31.2 29.2 -1.9 31.2 -31.2v-125q2 -29.3 31.3 -31.3 29.2 2 31.2 31.3v125q-2 39 -27.3 66.4 -27.4 25.4 -66.4 27.3 -39.1 -1.9 -66.5 -27.3 -25.3 -27.4 -27.3 -66.4v-125q2 -29.3 31.3 -31.3 29.2 2 31.2 31.3z"/></svg>