<svg height="1000" width="1250" xmlns="http://www.w3.org/2000/svg"><path d="M62.5 111.3q2 -52.7 37.1 -87.9 35.2 -35.1 87.9 -37.1H625q72.3 3.9 107.4 62.5H834q80.1 3.9 115.2 74.2l103.5 232.5q0 1.9 2 5.8h7.8q52.7 2 87.9 37.1t37.1 87.9v62.5q27.3 0 44.9 17.6t17.6 44.9 -17.6 45 -44.9 17.5H1125q-2 80.1 -54.7 132.8t-132.8 54.7q-80.1 -1.9 -132.8 -54.7T750 673.8H500q-2 80.1 -54.7 132.8t-132.8 54.7q-80.1 -1.9 -132.8 -54.7T125 673.8H62.5q-27.3 0 -44.9 -17.5T0 611.3t17.6 -44.9 44.9 -17.6v-62.5q-27.3 0 -44.9 -17.5T0 423.8V236.3Q0 209 17.6 191.4t44.9 -17.6v-62.5zm687.5 250h168H750h168L834 173.8h-84v187.5zM312.5 767.6q52.7 -2 82 -46.9 23.5 -46.9 0 -93.7 -29.3 -45 -82 -46.9 -52.7 1.9 -82 46.9 -23.5 46.8 0 93.7 29.3 44.9 82 46.9zm718.8 -93.8q-2 -52.7 -46.9 -82 -46.9 -23.4 -93.8 0 -44.9 29.3 -46.8 82 1.9 52.8 46.8 82.1 46.9 23.4 93.8 0 44.9 -29.3 46.9 -82.1z"/></svg>