<svg height="1000" width="1250" xmlns="http://www.w3.org/2000/svg"><path d="M125 -13.7q-52.7 2 -87.9 37.1Q2 58.6 0 111.3v593.8q2 66.4 44.9 111.3 44.9 43 111.4 44.9 80 -1.9 125 -62.5 44.9 60.6 125 62.5 66.4 -1.9 111.3 -44.9 42.9 -44.9 44.9 -111.3 0 -15.6 -3.9 -31.3h320.3q-3.9 15.7 -3.9 31.3 2 66.4 44.9 111.3 44.9 43 111.4 44.9 66.4 -1.9 111.3 -44.9 42.9 -44.9 44.9 -111.3 0 -15.6 -3.9 -31.3h3.9q27.3 0 44.9 -17.5t17.6 -45V435.5q0 -29.2 -17.6 -50.7L1117.2 246.1q-33.2 -39.1 -84 -41h-95.7v-93.8q-2 -52.7 -37.1 -87.9t-87.9 -37.1H125zm1017.6 437.5H937.5h205.1H937.5v-125h95.7q7.8 0 11.7 5.9l97.7 119.1zm-111.3 218.8q27.3 0 44.9 17.6 17.6 17.5 17.6 44.9t-17.6 44.9 -44.9 17.6 -45 -17.6 -17.5 -44.9 17.5 -44.9 45 -17.6zm-687.5 62.5q0 -27.4 17.5 -44.9 17.6 -17.6 45 -17.6t44.9 17.6 17.6 44.9T451.2 750t-44.9 17.6 -45 -17.6 -17.5 -44.9zM156.3 642.6q27.3 0 44.9 17.6 17.6 17.5 17.6 44.9T201.2 750t-44.9 17.6 -45 -17.6T93.8 705.1t17.5 -44.9 45 -17.6z"/></svg>