<svg height="1000" width="1000" xmlns="http://www.w3.org/2000/svg"><path d="M0 80.1Q2 13.7 44.9 -31.3q44.9 -42.9 111.4 -44.9h687.5q66.4 2 111.3 44.9 42.9 45 44.9 111.4v562.5q-2 80.1 -62.5 125v93.7q0 27.4 -17.6 45T875 923.8h-62.5q-27.3 0 -44.9 -17.5t-17.6 -45v-62.5H250v62.5q0 27.4 -17.6 45t-44.9 17.5H125q-27.3 0 -44.9 -17.5t-17.6 -45v-93.7Q2 722.7 0 642.6V80.1zm253.9 140.6l-35.1 140.6 35.1 -140.6 -35.1 140.6h562.5L746.1 220.7q-13.7 -44.9 -60.6 -46.9h-371q-46.9 2 -60.6 46.9zM250 548.8q0 -27.3 -17.6 -44.9 -17.6 -17.6 -44.9 -17.6t-44.9 17.6T125 548.8t17.6 45 44.9 17.5 44.9 -17.5 17.6 -45zm562.5 62.5q27.3 0 44.9 -17.5 17.6 -17.6 17.6 -45t-17.6 -44.9 -44.9 -17.6 -44.9 17.6T750 548.8t17.6 45 44.9 17.5z"/></svg>