<svg height="1000" width="1250" xmlns="http://www.w3.org/2000/svg"><path d="M1250 -76.2v781.3V-76.2v781.3q-2 93.7 -64.5 154.3 -60.5 62.5 -154.2 64.4 -91.8 -1.9 -152.4 -62.5Q816.4 800.8 812.5 710.9L93.8 906.3q-25.4 5.8 -46.9 -5.9Q25.4 886.7 17.6 861.3q-5.9 -25.4 5.8 -46.8Q37.1 793 62.5 785.2l625 -170V48.8q2 -52.7 37.1 -87.9t87.9 -37.1H1250zm-125 781.3q-2 -52.8 -46.9 -82.1 -46.8 -23.4 -93.7 0 -44.9 29.3 -46.9 82.1 2 52.7 46.9 82 46.9 23.4 93.7 0 44.9 -29.3 46.9 -82zM44.9 330.1q-5.8 -27.4 5.9 -48.8 13.7 -21.5 39 -27.4l89.9 -25.4 41 150.4q9.8 27.4 37.1 23.4l60.6 -17.5q27.3 -9.8 23.4 -37.1l-41 -150.4 89.8 -25.4q27.4 -5.9 48.9 5.8 21.4 13.7 29.3 39.1l80 300.8q5.9 25.4 -5.8 46.9 -13.7 23.4 -39.1 29.3l-300.8 82q-27.3 5.8 -48.8 -5.9 -21.5 -13.6 -27.3 -39L44.9 330.1z"/></svg>