<svg height="1000" width="1250" xmlns="http://www.w3.org/2000/svg"><path d="M720.7 111.3l148.4 187.5L720.7 111.3l148.4 187.5H562.5V111.3h158.2zM437.5 80.1v218.7V80.1v218.7H125q-27.3 0 -44.9 17.6t-17.6 44.9v125q-27.3 0 -44.9 17.6T0 548.8t17.6 45 44.9 17.5H127q-2 15.7 -2 31.3 2 93.7 64.5 154.3 60.5 62.5 154.3 64.4 93.7 -1.9 154.2 -64.4 62.5 -60.6 64.5 -154.3 0 -15.6 -2 -31.3h129q-2 15.7 -2 31.3 2 93.7 64.5 154.3 60.5 62.5 154.3 64.4 93.7 -1.9 154.2 -64.4Q1123 736.3 1125 642.6q0 -15.6 -2 -31.3h64.5q27.3 0 44.9 -17.5t17.6 -45 -17.6 -44.9 -44.9 -17.6v-125q0 -27.3 -17.6 -44.9T1125 298.8h-93.7L818.4 33.2q-39.1 -44.9 -97.7 -46.9H531.3q-39.1 2 -66.5 27.4Q439.5 41 437.5 80.1zm0 562.5q-2 52.7 -46.9 82 -46.8 23.4 -93.7 0Q252 695.3 250 642.6q2 -52.8 46.9 -82.1 46.9 -23.4 93.7 0 44.9 29.3 46.9 82.1zm562.5 0q-2 52.7 -46.9 82 -46.8 23.4 -93.7 0 -44.9 -29.3 -46.9 -82 2 -52.8 46.9 -82.1 46.9 -23.4 93.7 0 44.9 29.3 46.9 82.1z"/></svg>