<svg height="1000" width="1250" xmlns="http://www.w3.org/2000/svg"><path d="M0 17.6q2 -39.1 27.3 -66.4 27.4 -25.4 66.5 -27.4h625q39 2 66.4 27.4 25.3 27.3 27.3 66.4v93.7h99.6q50.8 0 87.9 37.1l150.4 150.4q37.1 37.1 37.1 87.9v224.6q27.3 0 44.9 17.6t17.6 44.9 -17.6 45 -44.9 17.5H1125q-2 80.1 -54.7 132.8t-132.8 54.7q-80.1 -1.9 -132.8 -54.7T750 736.3H500q-2 80.1 -54.7 132.8t-132.8 54.7q-80.1 -1.9 -132.8 -54.7T125 736.3H93.8Q54.7 734.4 27.3 709 2 681.6 0 642.6v-625zm812.5 406.2h250 -250 250v-37.1L912.1 236.3h-99.6v187.5zm-500 406.3q52.7 -2 82 -46.9 23.5 -46.9 0 -93.7 -29.3 -45 -82 -46.9 -52.7 1.9 -82 46.9 -23.5 46.8 0 93.7 29.3 44.9 82 46.9zm718.8 -93.8q-2 -52.7 -46.9 -82 -46.9 -23.4 -93.8 0 -44.9 29.3 -46.8 82 1.9 52.8 46.8 82.1 46.9 23.4 93.8 0 44.9 -29.3 46.9 -82.1zM343.8 80.1v93.7V80.1v93.7H250q-29.3 2 -31.2 31.3v62.5q1.9 29.3 31.2 31.2h93.8v93.8q1.9 29.3 31.2 31.2h62.5q29.3 -1.9 31.3 -31.2v-93.8h93.7q29.3 -1.9 31.3 -31.2v-62.5q-2 -29.3 -31.3 -31.3h-93.7V80.1q-2 -29.3 -31.3 -31.3H375q-29.3 2 -31.2 31.3z"/></svg>