<svg height="1000" width="1250" xmlns="http://www.w3.org/2000/svg"><path d="M562.5 48.8v125 -125 125h250l-93.7 -125H562.5zm255.9 -74.2l150.4 199.2L818.4 -25.4l150.4 199.2H1125q27.3 0 44.9 17.6t17.6 44.9v125q27.3 0 44.9 17.6t17.6 44.9 -17.6 45 -44.9 17.5q-43 -58.6 -107.4 -91.8T937.5 361.3t-142.6 33.2 -107.4 91.8h-125q-43 -58.6 -107.4 -91.8T312.5 361.3t-142.6 33.2T62.5 486.3q-27.3 0 -44.9 -17.5T0 423.8t17.6 -44.9 44.9 -17.6v-125q0 -27.3 17.6 -44.9T125 173.8h312.5V17.6q2 -39.1 27.3 -66.4 27.4 -25.4 66.5 -27.4h187.5q62.5 2 99.6 50.8zM296.9 423.8h31.2 -31.2 31.2q39.1 3.9 46.9 41 21.5 5.9 43 17.6 31.2 -21.5 60.5 3.9l21.5 21.5q25.4 29.3 3.9 60.6 11.7 21.4 17.6 42.9 37.1 7.8 41 46.9v31.3q-3.9 39 -41 46.8 -5.9 21.5 -17.6 41 21.5 33.2 -3.9 62.5l-21.5 21.5q-29.3 25.4 -60.5 3.9 -21.5 11.8 -43 17.6 -7.8 39.1 -46.9 41h-31.2q-39.1 -3.9 -46.9 -41Q228.5 877 209 865.2q-33.2 21.5 -62.5 -3.9L125 839.8q-25.4 -29.3 -3.9 -60.5 -11.7 -21.5 -17.6 -43 -37.1 -7.8 -41 -46.8v-31.3q3.9 -39.1 41 -46.9 5.9 -21.5 17.6 -42.9Q99.6 537.1 125 507.8l21.5 -21.5q29.3 -25.4 62.5 -3.9 19.5 -11.7 41 -17.6 7.8 -37.1 46.9 -41zm15.6 343.8q52.7 -2 82 -46.9 23.5 -46.9 0 -93.7 -29.3 -45 -82 -46.9 -52.7 1.9 -82 46.9 -23.5 46.8 0 93.7 29.3 44.9 82 46.9zM875 464.8q7.8 -37.1 46.9 -41h31.2q39.1 3.9 46.9 41 21.5 5.9 43 17.6 31.2 -21.5 60.5 3.9l21.5 21.5q25.4 29.3 3.9 60.6 11.7 21.4 17.6 42.9 37.1 7.8 41 46.9v31.3q-3.9 39 -41 46.8 -5.9 21.5 -17.6 41 21.5 33.2 -3.9 62.5l-21.5 21.5q-29.3 25.4 -60.5 3.9 -21.5 11.8 -43 17.6 -7.8 39.1 -46.9 41h-31.2q-39.1 -3.9 -46.9 -41Q853.5 877 834 865.2q-33.2 21.5 -62.5 -3.9L750 839.8q-25.4 -29.3 -3.9 -60.5 -11.7 -21.5 -17.6 -43 -39 -7.8 -41 -46.8v-31.3q3.9 -39.1 41 -46.9 5.9 -21.5 17.6 -42.9 -21.5 -31.3 3.9 -60.6l21.5 -21.5q29.3 -25.4 60.5 -3.9 21.5 -11.7 43 -17.6zm156.3 209q-2 -52.7 -46.9 -82 -46.9 -23.4 -93.8 0 -44.9 29.3 -46.8 82 1.9 52.8 46.8 82.1 46.9 23.4 93.8 0 44.9 -29.3 46.9 -82.1z"/></svg>