<svg height="1000" width="1250" xmlns="http://www.w3.org/2000/svg"><path d="M390.6 -76.2q-46.8 3.9 -76.1 60.6Q283.2 41 281.3 91.8v209L15.6 459Q0 468.8 0 486.3v125q0 15.7 11.7 25.4 13.7 7.8 29.3 3.9l240.3 -72.2v160.1l-97.7 78.1q-11.7 7.9 -11.7 23.5v62.5q0 15.6 11.7 25.4 13.7 9.7 29.3 3.9l177.7 -58.6 175.8 58.6q-3.9 -13.7 -3.9 -29.3v-64.5Q505.9 794.9 500 728.5V91.8Q498 41 468.8 -15.6q-31.3 -56.7 -78.2 -60.6zm171.9 343.8v437.5V267.6v437.5q3.9 64.4 62.5 87.9v84q3.9 42.9 46.9 46.8h31.2q43 -3.9 46.9 -46.8v-78.2h312.5V877q3.9 42.9 46.9 46.8h31.2q43 -3.9 46.9 -46.8v-84q58.6 -23.5 62.5 -87.9V267.6q-2 -39.1 -27.3 -66.4 -27.4 -25.4 -66.4 -27.4h-500q-39.1 2 -66.5 27.4 -25.3 27.3 -27.3 66.4zm156.3 154.3q11.7 -27.4 39 -29.3h296.9q27.3 1.9 39.1 29.3l31.2 95.7H687.5l31.3 -95.7zm390.6 189.4q42.9 3.9 46.9 46.9 -4 43 -46.9 46.9 -43 -3.9 -46.9 -46.9 3.9 -43 46.9 -46.9zm-453.1 46.9q3.9 -43 46.8 -46.9 43 3.9 46.9 46.9 -3.9 43 -46.9 46.9 -42.9 -3.9 -46.8 -46.9z"/></svg>