<svg height="1000" width="1000" xmlns="http://www.w3.org/2000/svg"><path d="M74.2 394.5L29.3 316.4l44.9 78.1L29.3 316.4Q2 263.7 39.1 218.8 99.6 148.4 218.8 85.9 335.9 21.5 500 17.6q164.1 3.9 281.3 68.3 119.1 62.5 179.6 132.9 37.1 44.9 9.8 97.6l-44.9 78.1q-27.4 41 -74.2 29.3L693.4 371.1q-41.1 -15.6 -43 -58.6V205.1q-150.4 -52.8 -300.8 0v107.4q-1.9 43 -43 58.6l-158.2 52.7q-46.8 11.7 -74.2 -29.3zM62.5 580.1q2 -29.3 31.3 -31.3h62.5q29.2 2 31.2 31.3v62.5q-2 29.3 -31.2 31.2H93.8Q64.5 671.9 62.5 642.6v-62.5zm0 187.5q2 -29.3 31.3 -31.3h62.5q29.2 2 31.2 31.3v62.5q-2 29.3 -31.2 31.2H93.8Q64.5 859.4 62.5 830.1v-62.5zM281.3 548.8h62.5 -62.5 62.5q29.2 2 31.2 31.3v62.5q-2 29.3 -31.2 31.2h-62.5Q252 671.9 250 642.6v-62.5q2 -29.3 31.3 -31.3zm156.2 31.3q2 -29.3 31.3 -31.3h62.5q29.2 2 31.2 31.3v62.5q-2 29.3 -31.2 31.2h-62.5q-29.3 -1.9 -31.3 -31.2v-62.5zm218.8 -31.3h62.5 -62.5 62.5q29.2 2 31.2 31.3v62.5q-2 29.3 -31.2 31.2h-62.5Q627 671.9 625 642.6v-62.5q2 -29.3 31.3 -31.3zm156.2 31.3q2 -29.3 31.3 -31.3h62.5q29.2 2 31.2 31.3v62.5q-2 29.3 -31.2 31.2h-62.5q-29.3 -1.9 -31.3 -31.2v-62.5zm31.3 156.2h62.5 -62.5 62.5q29.2 2 31.2 31.3v62.5q-2 29.3 -31.2 31.2h-62.5q-29.3 -1.9 -31.3 -31.2v-62.5q2 -29.3 31.3 -31.3zM250 767.6q2 -29.3 31.3 -31.3h437.5q29.2 2 31.2 31.3v62.5q-2 29.3 -31.2 31.2H281.3Q252 859.4 250 830.1v-62.5z"/></svg>