<svg height="1000" width="750" xmlns="http://www.w3.org/2000/svg"><path d="M187.5 -13.7q27.3 0 44.9 17.6Q250 21.5 250 48.8v68.4L482.4 50.8q25.4 -5.9 48.9 5.8 21.4 11.8 29.2 37.2 5.9 25.3 -5.8 48.8 -11.7 21.5 -37.1 29.3L250 248v56.7l232.4 -66.4q25.4 -5.9 48.9 5.8 21.4 11.8 29.2 37.2 5.9 25.3 -5.8 48.8 -11.7 21.5 -37.1 29.3L250 435.5v300.8h125Q476.6 734.4 546.9 668T625 498v-15.6q2 -25.4 21.5 -42.9 17.6 -15.7 44.9 -15.7 25.4 2 43 19.6 15.6 19.5 15.6 46.8v15.7Q738.3 658.2 632.8 757.8T375 861.3H187.5q-27.3 0 -44.9 -17.5t-17.6 -45V470.7l-44.9 13.7q-25.4 5.8 -48.8 -5.9Q9.8 466.8 2 441.4 -3.9 416 7.8 392.6q11.7 -21.5 37.1 -29.3L125 341.8v-58.6l-44.9 13.7Q54.7 302.7 31.3 291 9.8 279.3 2 253.9q-5.9 -25.4 5.8 -48.8 11.7 -21.5 37.1 -29.3L125 154.3V48.8q0 -27.3 17.6 -44.9t44.9 -17.6z"/></svg>