<svg height="1000" width="1125" xmlns="http://www.w3.org/2000/svg"><path d="M562.5 -76.2q27.3 0 44.9 17.6Q625 -41 625 -13.7v35.2q197.3 23.4 332 148.4 136.8 125 164.1 312.5 0 23.5 -17.6 31.3 -19.5 9.7 -37.1 -5.9 -21.5 -23.4 -56.6 -39 -35.2 -13.7 -72.3 -13.7 -58.6 1.9 -99.6 35.1 -41 35.2 -52.7 89.9 -7.9 29.3 -35.2 31.2 -27.3 -1.9 -35.2 -31.2 -11.7 -54.7 -52.7 -89.9 -41 -33.2 -99.6 -35.1 -58.6 1.9 -99.6 35.1 -41 35.2 -52.7 89.9 -7.9 29.3 -35.2 31.2 -27.3 -1.9 -35.2 -31.2 -11.7 -54.7 -52.7 -89.9 -41 -33.2 -99.6 -35.1 -37.1 0 -72.3 13.7 -35.1 15.6 -56.6 39Q41 523.4 21.5 515.6 3.9 505.9 3.9 482.4 31.3 294.9 168 169.9 302.7 44.9 500 21.5v-35.2q0 -27.3 17.6 -44.9t44.9 -17.6zm0 593.8q37.1 0 62.5 23.4v224.6Q623 832 578.1 877t-111.3 46.8q-46.9 0 -84 -23.4t-58.6 -64.5l-3.9 -9.7q-11.7 -23.5 -3.9 -46.9t31.3 -37.1q23.4 -9.8 46.8 -2t37.1 31.3l3.9 7.8q9.8 19.5 31.3 19.5Q498 794.9 500 765.6V541q25.4 -23.4 62.5 -23.4z"/></svg>