<svg height="1000" width="1125" xmlns="http://www.w3.org/2000/svg"><path d="M675.8 455.1l-117.2 -43 117.2 43 -117.2 -43L418 798.8H62.5q-27.3 0 -44.9 17.6T0 861.3t17.6 45 44.9 17.5h1000q27.3 0 44.9 -17.5t17.6 -45 -17.6 -44.9 -44.9 -17.6H550.8l125 -343.7zm236.3 0l-5.8 17.6 5.8 -17.6 -5.8 17.6 132.8 46.8q27.3 9.8 50.7 -3.9 23.5 -11.7 25.4 -41Q1125 357.4 1084 252T959 66.4q5.8 23.4 5.8 48.8V127q5.9 167.9 -52.7 328.1zm-9.8 -337.9Q900.4 66.4 871.1 25.4q-27.3 -39.1 -74.2 -58.6 -2 -2 -3.9 -2h-2Q742.2 -52.7 693.4 -41q-48.9 13.7 -84 50.8l-7.8 9.7Q496.1 136.7 443.4 283.2l-5.9 17.6 410.2 150.4 5.8 -17.6q54.7 -148.4 48.8 -304.7v-11.7zM209 144.5q-15.6 23.5 -5.9 48.9 9.8 25.4 37.1 35.1l138.7 50.8 5.9 -17.6Q441.4 103.5 554.7 -21.5l7.8 -9.8q17.6 -19.5 39.1 -35.1 -117.2 3.9 -220.7 58.6Q279.3 46.9 209 144.5z"/></svg>