<svg height="1000" width="875" xmlns="http://www.w3.org/2000/svg"><path d="M31.3 48.8q0 -27.3 17.5 -44.9 17.6 -17.6 45 -17.6h187.5q27.3 0 44.9 17.6t17.6 44.9 -17.6 45 -44.9 17.5H250v250q2 80.1 54.7 132.8t132.8 54.7q80.1 -1.9 132.8 -54.7T625 361.3v-250h-31.2q-27.4 0 -45 -17.5t-17.5 -45T548.8 3.9t45 -17.6h187.5q27.3 0 44.9 17.6t17.6 44.9 -17.6 45 -44.9 17.5H750v250Q746.1 494.1 658.2 582t-220.7 91.8Q304.7 669.9 216.8 582T125 361.3v-250H93.8q-27.4 0 -45 -17.5t-17.5 -45zM0 798.8q0 -27.3 17.6 -44.9 17.6 -17.6 44.9 -17.6h750q27.3 0 44.9 17.6t17.6 44.9 -17.6 45 -44.9 17.5h-750q-27.3 0 -44.9 -17.5T0 798.8z"/></svg>