<svg height="1000" width="1000" xmlns="http://www.w3.org/2000/svg"><path d="M0 423.8q2 -136.7 66.4 -250Q132.8 60.5 250 -9.8q119.1 -66.4 250 -66.4t250 66.4q117.2 70.3 183.6 183.6 64.4 113.3 66.4 250 -2 136.7 -66.4 250Q867.2 787.1 750 857.4q-119.1 66.4 -250 66.4T250 857.4Q132.8 787.1 66.4 673.8 2 560.5 0 423.8zM316.4 255.9q-41 -13.7 -62.5 25.4 -13.7 41 25.4 60.5l23.4 9.8q48.9 21.4 103.6 31.2v99.6q0 11.7 -4 23.5l-56.6 167.9q-9.8 43 31.3 60.6 41 9.7 58.5 -31.3l46.9 -142.6q5.9 -11.7 17.6 -11.7 13.7 0 17.6 11.7l46.9 142.6q17.5 41 60.5 31.3 39.1 -17.6 29.3 -60.6L597.7 505.9q-3.9 -11.8 -3.9 -23.5v-99.6q54.6 -9.8 105.4 -31.2l23.5 -9.8q37.1 -19.5 23.4 -60.5 -19.5 -39.1 -60.6 -25.4l-23.4 9.7Q584 298.8 500 298.8T337.9 265.6l-23.4 -9.7h1.9zM500 236.3q44.9 -1.9 68.4 -39 19.5 -39.1 0 -78.2Q544.9 82 500 80.1q-44.9 1.9 -68.4 39 -19.5 39.1 0 78.2 23.5 37.1 68.4 39z"/></svg>