<svg height="1000" width="875" xmlns="http://www.w3.org/2000/svg"><path d="M437.5 48.8q-66.4 2 -111.3 45 -43 44.9 -44.9 111.3v93.7H750q52.7 2 87.9 37.1t37.1 87.9v375q-2 52.8 -37.1 87.9T750 923.8H125Q72.3 921.9 37.1 886.7T0 798.8v-375q2 -52.7 37.1 -87.9T125 298.8h31.3v-93.7q3.9 -119.2 82 -199.2 80.1 -78.2 199.2 -82.1 85.9 2 152.3 44.9T691.4 84q11.7 25.4 2 48.8 -7.9 23.5 -31.3 35.2 -25.4 9.7 -48.8 1.9t-35.2 -31.2q-19.5 -41 -56.6 -64.5 -37.1 -25.4 -84 -25.4zm62.5 625q27.3 0 44.9 -17.5 17.6 -17.6 17.6 -45t-17.6 -44.9T500 548.8H375q-27.3 0 -44.9 17.6t-17.6 44.9 17.6 45 44.9 17.5h125z"/></svg>