<svg height="1000" width="1000" xmlns="http://www.w3.org/2000/svg"><path d="M544.9 -58.6Q525.4 -76.2 500 -76.2t-44.9 17.6l-125 125q-27.4 31.3 -13.7 68.4 17.6 37.1 58.6 39h62.5v187.5H250v-62.5q-2 -41 -39.1 -56.6t-68.3 11.7l-125 125Q0 398.4 0 423.8t17.6 45l125 125q31.2 27.3 68.3 13.6Q248 589.8 250 548.8v-62.5h187.5v187.5H375q-41 2 -58.6 39.1 -13.7 37.1 13.7 68.4l125 125q19.5 17.5 44.9 17.5t44.9 -17.5l125 -125q27.4 -31.3 13.7 -68.4Q666 675.8 625 673.8h-62.5V486.3H750v62.5q2 41 39.1 58.6 37.1 13.7 68.3 -13.6l125 -125q17.6 -19.6 17.6 -45t-17.6 -44.9l-125 -125q-31.2 -27.3 -68.3 -13.7Q752 257.8 750 298.8v62.5H562.5V173.8H625q41 -1.9 58.6 -39Q697.3 97.7 669.9 66.4l-125 -125z"/></svg>