<svg height="1000" width="1000" xmlns="http://www.w3.org/2000/svg"><path d="M562.5 136.7v474.6V136.7v474.6q0 27.4 -17.6 45T500 673.8t-44.9 -17.5 -17.6 -45V136.7L294.9 281.3q-19.5 17.5 -44.9 17.5t-44.9 -17.5q-17.6 -19.6 -17.6 -45t17.6 -44.9l250 -250q19.5 -17.6 44.9 -17.6t44.9 17.6l250 250q17.6 19.5 17.6 44.9t-17.6 45q-19.5 17.5 -44.9 17.5t-44.9 -17.5L562.5 136.7zM125 611.3h250H125h250q2 52.8 37.1 87.9t87.9 37.1q52.7 -1.9 87.9 -37.1T625 611.3h250q52.7 2 87.9 37.1t37.1 87.9v62.5q-2 52.8 -37.1 87.9T875 923.8H125Q72.3 921.9 37.1 886.7T0 798.8v-62.5q2 -52.7 37.1 -87.9T125 611.3zm718.8 203.2q42.9 -4 46.8 -46.9 -3.9 -43 -46.8 -46.9 -43 3.9 -46.9 46.9 3.9 42.9 46.9 46.9z"/></svg>