<svg height="1000" width="1250" xmlns="http://www.w3.org/2000/svg"><path d="M412.1 111.3Q410.2 41 349.6 3.9q-62.5 -35.2 -125 0Q164.1 41 162.1 111.3q2 70.3 62.5 107.5 62.5 35.1 125 0 60.6 -37.2 62.5 -107.5zM62.5 423.8q0 27.4 17.6 45 17.6 17.5 44.9 17.5h168q13.6 -58.6 52.7 -101.5 39.1 -45 93.8 -68.4Q412.1 298.8 375 298.8H187.5q-52.7 2 -87.9 37.1t-37.1 87.9zm902.3 62.5H1125 964.8 1125q27.3 0 44.9 -17.5t17.6 -45q-2 -52.7 -37.1 -87.9t-87.9 -37.1H875q-35.2 0 -62.5 17.6 56.6 21.5 95.7 66.4 41 44.9 56.6 103.5zM763.7 365.2q-19.6 -3.9 -41 -3.9H535.2q-25.4 0 -48.9 5.9 -93.7 27.3 -128.9 119.1 -9.7 29.3 -9.7 62.5 0 27.4 17.5 45t45 17.5h437.5q25.3 0 42.9 -17.5t19.6 -45q-2 -33.2 -11.8 -62.5Q863.3 392.6 763.7 365.2zm335.9 -253.9Q1097.7 41 1037.1 3.9q-62.5 -35.2 -125 0Q851.6 41 849.6 111.3q2 70.3 62.5 107.5 62.5 35.1 125 0 60.6 -37.2 62.5 -107.5zM628.9 298.8q87.9 -1.9 134.8 -78.1 41 -78.1 0 -156.2Q716.8 -11.7 628.9 -13.7q-89.8 2 -136.7 78.2 -41 78.1 0 156.2 46.9 76.2 136.7 78.1zM62.5 736.3q-27.3 0 -44.9 17.6Q0 771.5 0 798.8t17.6 45 44.9 17.5h1125q27.3 0 44.9 -17.5t17.6 -45 -17.6 -44.9 -44.9 -17.6H62.5z"/></svg>