<svg height="1000" width="1250" xmlns="http://www.w3.org/2000/svg"><path d="M187.5 173.8q0 -68.3 33.2 -125Q253.9 -7.8 312.5 -43q58.6 -33.2 125 -33.2t125 33.2q58.6 35.2 91.8 91.8t33.2 125 -33.2 125 -91.8 91.8q-58.6 33.2 -125 33.2t-125 -33.2q-58.6 -35.1 -91.8 -91.8t-33.2 -125zM0 865.2Q3.9 718.8 101.6 619.1q99.6 -97.6 246.1 -101.5h179.6q146.5 3.9 246.1 101.5 97.7 99.7 101.6 246.1 0 25.4 -17.6 41.1 -15.6 17.5 -41 17.5H58.6q-25.4 0 -41 -17.5Q0 890.6 0 865.2zM1220.7 269.5l-250 250 250 -250 -250 250q-33.2 27.4 -66.4 0l-125 -125q-27.3 -33.2 0 -66.4 33.2 -27.3 66.4 0l91.8 91.8 216.8 -216.8q33.2 -27.3 66.4 0 27.3 33.2 0 66.4z"/></svg>