<svg height="1000" width="1250" xmlns="http://www.w3.org/2000/svg"><path d="M437.5 423.8q68.4 0 125 -33.2 56.6 -33.2 91.8 -91.8 33.2 -58.6 33.2 -125t-33.2 -125Q619.1 -9.8 562.5 -43t-125 -33.2 -125 33.2 -91.8 91.8q-33.2 58.6 -33.2 125t33.2 125q35.2 58.6 91.8 91.8t125 33.2zm-89.8 93.8q-146.5 3.9 -246.1 101.5Q3.9 718.8 0 865.2q0 25.4 17.6 41.1 15.6 17.5 41 17.5h572.3q-9.8 -25.4 -3.9 -54.7L656.3 752q9.7 -33.2 33.2 -58.6l80 -78.2Q671.9 521.5 527.3 517.6H347.7zm851.5 -132.8q-25.4 -23.5 -54.7 -23.5 -31.2 0 -56.6 23.5l-56.6 56.6 138.6 138.7 56.7 -56.7Q1250 498 1250 466.8t-23.4 -54.7l-27.4 -27.3zM734.4 738.3q-11.7 11.7 -15.6 29.3l-29.3 117.2q-4 17.5 7.8 29.3t29.3 7.8l117.2 -29.3Q861.3 888.7 873 877l252 -252L986.3 486.3l-251.9 252z"/></svg>