<svg height="1000" width="1250" xmlns="http://www.w3.org/2000/svg"><path d="M76.2 -66.4Q39.1 -89.8 9.8 -58.6q-23.5 37.1 7.8 66.4l1156.2 906.3q37.1 23.4 66.4 -7.8 23.5 -37.2 -7.8 -66.5l-371.1 -291H1209q37.1 -3.9 41 -41 -2 -89.8 -60.5 -148.4T1041 298.8h-82q-46.9 0 -87.9 19.6 3.9 21.4 3.9 42.9 -2 89.9 -54.7 156.3l-48.8 -39.1q39 -48.8 41 -117.2 -2 -80 -54.7 -132.8T625 173.8q-93.7 3.9 -148.4 74.2l-80.1 -62.5q39 -42.9 41 -105.4 -2 -66.4 -44.9 -111.4Q347.7 -74.2 281.3 -76.2q-84 3.9 -129 70.3L76.2 -66.4zM209 298.8q-89.9 2 -148.5 60.6Q2 418 0 507.8q3.9 37.1 41 41h418Q398.4 494.1 380.9 410.2L238.3 298.8H209zm300.8 312.5q-109.4 2 -183.6 76.2Q252 761.7 250 871.1q3.9 48.8 52.7 52.7h644.6q33.2 -1.9 46.8 -29.3L634.8 611.3h-125zm490.2 -375q87.9 -1.9 134.8 -78.1 42.9 -78.1 0 -156.2Q1087.9 -74.2 1000 -76.2q-87.9 2 -134.8 78.2 -42.9 78.1 0 156.2 46.9 76.2 134.8 78.1z"/></svg>