<svg height="1000" width="1250" xmlns="http://www.w3.org/2000/svg"><path d="M281.3 236.3q87.8 -1.9 134.7 -78.1Q459 80.1 416 2 369.1 -74.2 281.3 -76.2q-87.9 2 -134.8 78.2 -43 78.1 0 156.2 46.9 76.2 134.8 78.1zm718.7 0q87.9 -1.9 134.8 -78.1 42.9 -78.1 0 -156.2Q1087.9 -74.2 1000 -76.2q-87.9 2 -134.8 78.2 -42.9 78.1 0 156.2 46.9 76.2 134.8 78.1zM0 507.8q3.9 37.1 41 41h418Q378.9 476.6 375 361.3q0 -21.5 3.9 -42.9 -41 -19.6 -87.9 -19.6h-82q-89.9 2 -148.5 60.6T0 507.8zm625 41q72.3 -1.9 123 -44.9 5.9 -11.7 15.7 -21.5 7.8 -9.7 17.6 -15.6 31.2 -46.9 31.2 -105.5 -2 -80 -54.7 -132.8T625 173.8q-80.1 2 -132.8 54.7t-54.7 132.8q2 80.1 54.7 132.8T625 548.8zM752 666q-31.3 -17.6 -39.1 -54.7H509.8q-109.4 2 -183.6 76.2T250 871.1q3.9 48.8 52.7 52.7h586q-5.9 -15.6 -5.9 -31.2v-5.9q-3.9 -1.9 -7.8 -5.8l-5.9 3.9q-25.3 13.6 -54.6 9.7t-50.8 -29.3Q750 849.6 738.3 832v-1.9l-3.9 -7.8q-11.7 -19.6 -17.6 -39.1 -11.7 -31.2 0 -58.6t37.1 -43l3.9 -3.9v-7.8l-3.9 -3.9H752zm289 -367.2h-82 82 -82q-46.9 0 -87.9 19.6 3.9 21.4 3.9 42.9 0 50.8 -19.5 95.7 7.8 2 13.6 5.9l5.9 3.9 7.8 -3.9V457q0 -31.2 17.6 -54.7 19.5 -23.4 52.7 -29.3 23.5 -3.9 46.9 -3.9t46.9 3.9q33.2 5.9 50.8 29.3 19.5 23.5 19.5 54.7v5.9l7.8 3.9 3.9 -3.9q27.4 -13.7 56.6 -9.8t50.8 29.3q7.8 7.8 13.7 17.6 -5.9 -85.9 -64.5 -142.6T1041 298.8zm179.7 320.3q19.5 -13.6 11.7 -35.1 -5.8 -15.6 -13.6 -31.3l-4 -7.8q-9.7 -15.6 -21.4 -27.3 -15.7 -17.6 -37.1 -5.9l-4 2q-29.3 15.6 -58.5 -2t-31.3 -48.8v-7.8q-2 -23.5 -23.4 -27.4 -19.6 -3.9 -39.1 -3.9t-39.1 3.9q-21.4 3.9 -23.4 27.4v7.8q-2 31.2 -31.2 48.8t-58.6 2l-5.9 -2q-19.5 -11.7 -37.1 5.9 -9.8 11.7 -19.5 27.3l-3.9 7.8L765.6 584q-5.8 21.5 13.7 35.1l5.9 3.9q27.3 17.6 27.3 50.8t-27.3 50.8l-5.9 3.9q-19.5 13.7 -13.7 35.2 5.9 15.6 15.7 31.2l3.9 7.8 19.5 27.4q15.6 17.6 37.1 5.8l5.9 -1.9q29.3 -15.6 58.6 1.9 29.2 15.7 31.2 48.9v5.8q0 23.5 23.4 29.3 19.6 3.9 39.1 3.9t39.1 -3.9q21.4 -5.8 23.4 -29.3v-5.8q2 -33.2 31.3 -48.9 29.2 -17.5 56.6 -1.9l5.9 1.9q21.4 11.8 37.1 -5.8 11.7 -13.7 19.5 -27.4l5.9 -7.8q7.8 -15.6 13.6 -31.2 7.8 -23.5 -11.7 -35.2l-5.9 -3.9q-27.3 -17.6 -27.3 -50.8t27.3 -52.7l5.9 -2zm-298.8 54.7q1.9 -44.9 39 -68.3 39.1 -19.6 78.2 0 37.1 23.4 39 68.3 -1.9 45 -39 68.4 -39.1 19.5 -78.2 0 -37.1 -23.4 -39 -68.4z"/></svg>