<svg height="1000" width="1250" xmlns="http://www.w3.org/2000/svg"><path d="M437.5 -76.2q68.4 0 125 33.2 56.6 33.2 91.8 91.8 33.2 58.6 33.2 125t-33.2 125q-35.2 58.6 -91.8 91.8t-125 33.2 -125 -33.2 -91.8 -91.8q-33.2 -58.6 -33.2 -125t33.2 -125Q255.9 -9.8 312.5 -43t125 -33.2zm-89.8 593.8h179.6H347.7h179.6q33.2 0 66.5 5.8 -2 58.6 42.9 87.9 -25.4 15.7 -37.1 45 -11.7 27.3 -1.9 58.5 11.7 39.1 31.2 74.3 21.5 35.1 48.8 64.4 23.5 25.4 54.7 27.4 29.3 3.9 56.7 -9.8v1.9q0 27.4 15.6 50.8H58.6q-25.4 0 -41 -17.5Q0 890.6 0 865.2 3.9 718.8 101.6 619.1q99.6 -97.6 246.1 -101.5zm503.9 -168q1.9 -21.5 21.4 -29.3 31.3 -5.8 64.5 -5.8t64.5 5.8q19.5 7.8 21.4 29.3v60.6q23.5 9.7 43 25.3l48.8 -29.2q19.6 -9.8 37.1 5.8 21.5 23.4 39.1 52.7 15.6 29.3 25.4 60.6 5.9 21.5 -13.7 33.2l-48.8 29.3q2 11.7 2 23.4t-2 23.5l48.8 27.3q19.6 13.7 13.7 35.2 -9.8 31.2 -25.4 60.5 -17.6 29.3 -39.1 52.7 -17.5 15.7 -37.1 4l-48.8 -27.4q-19.5 15.6 -43 25.4v58.6q-1.9 23.4 -21.4 29.3 -31.3 7.8 -64.5 7.8T873 900.4q-19.5 -5.9 -21.4 -29.3v-58.6q-23.5 -9.8 -43 -25.4l-48.8 27.4q-19.6 11.7 -37.1 -4 -21.5 -23.4 -39.1 -52.7Q668 728.5 658.2 697.3q-5.9 -21.5 13.7 -35.2l48.8 -27.3q-1.9 -11.8 -1.9 -23.5t1.9 -25.4l-48.8 -27.3q-19.6 -11.7 -13.7 -33.2 7.8 -31.3 25.4 -60.6t39.1 -52.7q15.6 -15.6 37.1 -5.8l46.8 29.2q21.5 -15.6 45 -25.3v-60.6zm179.7 261.7q0 -54.7 -45 -85.9 -48.8 -25.4 -97.6 0 -44.9 31.2 -44.9 85.9t44.9 84q48.8 27.4 97.6 0 45 -29.3 45 -84z"/></svg>