<svg height="1000" width="1250" xmlns="http://www.w3.org/2000/svg"><path d="M281.3 -76.2q87.8 2 134.7 78.2 43 78.1 0 156.2 -46.9 76.2 -134.7 78.1 -87.9 -1.9 -134.8 -78.1 -43 -78.1 0 -156.2 46.9 -76.2 134.8 -78.2zm718.7 0q87.9 2 134.8 78.2 42.9 78.1 0 156.2 -46.9 76.2 -134.8 78.1 -87.9 -1.9 -134.8 -78.1Q822.3 80.1 865.2 2q46.9 -76.2 134.8 -78.2zM0 507.8Q2 418 60.5 359.4 119.1 300.8 209 298.8h82q46.9 0 87.9 19.6 -3.9 21.4 -3.9 42.9 3.9 115.3 84 187.5H41Q3.9 544.9 0 507.8zm791 41q80.1 -72.2 84 -187.5 0 -21.5 -3.9 -42.9 41 -19.6 87.9 -19.6h82q89.9 2 148.5 60.6t60.5 148.4q-3.9 37.1 -41 41H791zM437.5 361.3q0 -50.8 25.4 -93.7 25.4 -43 68.4 -68.4 44.9 -25.4 93.7 -25.4t93.8 25.4q42.9 25.4 68.3 68.4t25.4 93.7 -25.4 93.8 -68.3 68.3q-45 25.4 -93.8 25.4t-93.7 -25.4q-43 -25.4 -68.4 -68.3t-25.4 -93.8zM250 871.1q2 -109.4 76.2 -183.6 74.2 -74.2 183.6 -76.2h230.4q109.4 2 183.6 76.2t76.2 183.6q-3.9 48.8 -52.7 52.7H302.7Q253.9 919.9 250 871.1z"/></svg>