<svg height="1000" width="1250" xmlns="http://www.w3.org/2000/svg"><path d="M437.5 423.8q68.4 0 125 -33.2 56.6 -33.2 91.8 -91.8 33.2 -58.6 33.2 -125t-33.2 -125Q619.1 -9.8 562.5 -43t-125 -33.2 -125 33.2 -91.8 91.8q-33.2 58.6 -33.2 125t33.2 125q35.2 58.6 91.8 91.8t125 33.2zm-89.8 93.8q-146.5 3.9 -246.1 101.5Q3.9 718.8 0 865.2q0 25.4 17.6 41.1 15.6 17.5 41 17.5h757.8q31.3 -1.9 48.8 -23.4L669.9 705.1Q625 660.2 625 595.7v-64.4q-46.9 -13.7 -97.7 -13.7H347.7zM750 361.3q-27.3 0 -44.9 17.6 -17.6 17.6 -17.6 44.9v162.1q0 50.8 37.1 87.9l209 209q29.3 27.4 66.4 27.4t66.4 -27.4L1209 740.2q27.3 -29.3 27.3 -66.4T1209 607.4l-209 -209q-37.1 -37.1 -87.9 -37.1H750zm46.9 156.3q3.9 -43 46.9 -46.9 42.9 3.9 46.8 46.9 -3.9 42.9 -46.8 46.9 -43 -4 -46.9 -46.9z"/></svg>