<svg height="1000" width="1250" xmlns="http://www.w3.org/2000/svg"><path d="M437.5 423.8q68.4 0 125 -33.2 56.6 -33.2 91.8 -91.8 33.2 -58.6 33.2 -125t-33.2 -125Q619.1 -9.8 562.5 -43t-125 -33.2 -125 33.2 -91.8 91.8q-33.2 58.6 -33.2 125t33.2 125q35.2 58.6 91.8 91.8t125 33.2zm-89.8 93.8q-146.5 3.9 -246.1 101.5Q3.9 718.8 0 865.2q0 25.4 17.6 41.1 15.6 17.5 41 17.5h709Q750 896.5 750 861.3V599.6q-93.7 -80.1 -222.7 -82H347.7zm683.6 -125q27.3 0 44.9 17.6 17.6 17.5 17.6 44.9v93.7h-125v-93.7q0 -27.4 17.5 -44.9t45 -17.6zM875 455.1v93.7 -93.7 93.7q-27.3 0 -44.9 17.6t-17.6 44.9v250q0 27.4 17.6 45t44.9 17.5h312.5q27.3 0 44.9 -17.5t17.6 -45v-250q0 -27.3 -17.6 -44.9t-44.9 -17.6v-93.7q-2 -66.4 -44.9 -111.3 -44.9 -43 -111.3 -45 -66.5 2 -111.4 45Q877 388.7 875 455.1z"/></svg>