<svg height="1000" width="1250" xmlns="http://www.w3.org/2000/svg"><path d="M437.5 -76.2q68.4 0 125 33.2 56.6 33.2 91.8 91.8 33.2 58.6 33.2 125t-33.2 125q-35.2 58.6 -91.8 91.8t-125 33.2 -125 -33.2 -91.8 -91.8q-33.2 -58.6 -33.2 -125t33.2 -125Q255.9 -9.8 312.5 -43t125 -33.2zm-89.8 593.8h179.6H347.7h179.6q60.6 0 115.3 19.5Q625 587.9 625 642.6q0 87.9 39.1 160.1 39 74.3 107.4 121.1H58.6q-25.4 0 -41 -17.5Q0 890.6 0 865.2 3.9 718.8 101.6 619.1q99.6 -97.6 246.1 -101.5zm339.8 125q0 -76.2 37.1 -140.6 37.1 -64.5 103.5 -103.6 66.4 -37.1 140.7 -37.1t140.6 37.1q66.4 39.1 103.5 103.6t37.1 140.6 -37.1 140.6 -103.5 103.5q-66.4 37.1 -140.6 37.1T828.1 886.7q-66.4 -39 -103.5 -103.5T687.5 642.6zM968.8 486.3q-29.3 2 -31.3 31.3v125q2 29.3 31.3 31.2h93.7q29.3 -1.9 31.3 -31.2 -2 -29.3 -31.3 -31.3H1000v-93.7q-2 -29.3 -31.2 -31.3z"/></svg>