<svg height="1000" width="1250" xmlns="http://www.w3.org/2000/svg"><path d="M187.5 173.8q0 -68.3 33.2 -125Q253.9 -7.8 312.5 -43q58.6 -33.2 125 -33.2t125 33.2q58.6 35.2 91.8 91.8t33.2 125 -33.2 125 -91.8 91.8q-58.6 33.2 -125 33.2t-125 -33.2q-58.6 -35.1 -91.8 -91.8t-33.2 -125zM0 865.2Q3.9 718.8 101.6 619.1q99.6 -97.6 246.1 -101.5h179.6q146.5 3.9 246.1 101.5 97.7 99.7 101.6 246.1 0 25.4 -17.6 41.1 -15.6 17.5 -41 17.5H58.6q-25.4 0 -41 -17.5Q0 890.6 0 865.2zm1189.5 58.6H921.9h267.6H921.9q15.6 -27.3 15.6 -62.5v-15.6q0 -89.8 -37.1 -166Q865.2 603.5 800.8 548.8h134.7q132.9 3.9 222.7 91.8 87.9 89.9 91.8 222.7 0 25.4 -17.6 43t-42.9 17.5zm-345.7 -500Q750 421.9 689.5 359.4 748 279.3 750 173.8q0 -80 -35.2 -144.5 54.7 -41 129 -43 93.7 2 154.2 64.5 62.5 60.5 64.5 154.3 -2 93.7 -64.5 154.3 -60.5 62.5 -154.2 64.4z"/></svg>