<svg height="1000" width="875" xmlns="http://www.w3.org/2000/svg"><path d="M724.6 111.3Q687.5 27.3 611.3 -23.4 535.2 -74.2 437.5 -76.2q-97.7 2 -173.8 52.8T150.4 111.3q-23.4 2 -39.1 19.6 -17.5 17.5 -17.5 42.9v125q0 25.4 17.5 43 15.7 17.6 39.1 19.5 37.1 84 113.3 134.8t173.8 52.7q97.7 -1.9 173.8 -52.7T724.6 361.3q23.4 -1.9 41 -19.5 15.7 -17.6 15.7 -43v-125q0 -25.4 -15.7 -42.9 -17.6 -17.6 -41 -19.6zm-68.3 93.8v31.2 -31.2 31.2q-2 80.1 -54.7 132.8t-132.8 54.7h-62.5q-80.1 -1.9 -132.9 -54.7T218.8 236.3v-31.2q1.9 -39.1 27.3 -66.4 27.3 -25.4 66.4 -27.4h250q39.1 2 66.4 27.4 25.4 27.3 27.4 66.4zm-287.2 37.1l-11.7 -41 11.7 41 -11.7 -41q-1.9 -11.7 -13.6 -11.7t-13.7 11.7l-11.7 41 -41.1 11.7q-11.7 2 -11.7 13.7t11.7 13.7l41.1 11.7 11.7 42.9q1.9 9.8 13.7 9.8t13.6 -9.8L369.1 293l43 -11.7q9.8 -2 9.8 -13.7t-9.8 -13.7l-43 -11.7zM220.7 543Q121.1 582 62.5 668 2 753.9 0 865.2q0 25.4 17.6 41.1 15.6 17.5 41 17.5H250v-125q0 -27.3 17.6 -44.9t44.9 -17.6h250q27.3 0 44.9 17.6t17.6 44.9v125h191.4q25.4 0 41 -17.5Q875 890.6 875 865.2 873 753.9 812.5 668 753.9 582 654.3 543q-93.8 66.4 -216.8 68.3Q314.5 609.4 220.7 543zm123.1 255.8q-29.3 2 -31.3 31.3v93.7H375v-93.7q-2 -29.3 -31.2 -31.3zm187.5 62.5q29.2 -1.9 31.2 -31.2 -2 -29.3 -31.2 -31.3 -29.3 2 -31.3 31.3 2 29.3 31.3 31.2z"/></svg>