<svg height="1000" width="875" xmlns="http://www.w3.org/2000/svg"><path d="M468.8 80.1h201.1H468.8h201.1Q646.5 21.5 599.6 -17.6L468.8 80.1zM543 -52.7Q494.1 -76.2 437.5 -76.2q-80.1 2 -140.6 43 -62.5 43 -91.8 113.3h160.1L543 -52.7zM437.5 423.8Q543 421.9 615.2 351.6q70.3 -72.3 72.3 -177.8 0 -15.6 -2 -31.2h-496q-2 15.6 -2 31.2 2 105.5 72.3 177.8 72.2 70.3 177.7 72.2zM242.2 533.2q-29.3 9.8 -54.7 23.4v367.2h289.1L355.5 720.7 242.2 533.2zm64.4 -13.7l91.8 154.3L306.6 519.5l91.8 154.3h132.9q66.4 2 111.3 45 42.9 44.9 44.9 111.3 0 52.7 -31.2 93.7h160.1q25.4 0 41 -17.5Q875 890.6 875 865.2 871.1 718.8 773.4 619.1 673.8 521.5 527.3 517.6H347.7q-19.6 0 -41.1 1.9zM0 865.2q0 25.4 17.6 41.1 15.6 17.5 41 17.5H125V597.7Q66.4 646.5 33.2 714.8 0 785.2 0 865.2zm625 -35.1Q623 791 597.7 763.7q-27.4 -25.4 -66.4 -27.4h-93.8l111.3 185.6Q582 916 603.5 890.6T625 830.1z"/></svg>