<svg height="1000" width="1250" xmlns="http://www.w3.org/2000/svg"><path d="M187.5 -76.2q-80.1 2 -132.8 54.7Q2 31.3 0 111.3v625q2 80.1 54.7 132.8t132.8 54.7h875q80.1 -1.9 132.8 -54.7T1250 736.3v-625q-2 -80 -54.7 -132.8t-132.8 -54.7h-875zM125 111.3Q125 84 142.6 66.4q17.6 -17.6 44.9 -17.6h875q27.3 0 44.9 17.6t17.6 44.9v625q0 27.4 -17.6 45t-44.9 17.5h-875q-27.3 0 -44.9 -17.5t-17.6 -45v-625zm312.5 156.3q-2 -52.8 -46.9 -82.1 -46.8 -23.4 -93.7 0Q252 214.8 250 267.6q2 52.7 46.9 82 46.9 23.4 93.7 0 44.9 -29.3 46.9 -82zm-250 259.7q3.9 48.9 52.7 52.8h109.4q11.7 -50.8 44.9 -87.9t82.1 -56.7q-21.5 -11.7 -48.9 -11.7H291q-43 2 -72.2 31.3t-31.3 72.2zm712.9 52.8h109.4H900.4h109.4q48.8 -3.9 52.7 -52.8 -2 -42.9 -31.2 -72.2T959 423.8H822.3q-27.4 0 -48.9 11.7 48.9 19.6 82.1 56.7t44.9 87.9zM726.6 488.3q-11.8 -2 -23.5 -2H546.9q-11.7 0 -23.5 2 -80 17.6 -109.3 91.8 -7.8 21.5 -7.8 46.9 3.9 42.9 46.8 46.8h343.8q42.9 -3.9 46.9 -46.8 0 -25.4 -7.9 -46.9Q806.6 505.9 726.6 488.3zM1000 267.6q-2 -52.8 -46.9 -82.1 -46.8 -23.4 -93.7 0 -44.9 29.3 -46.9 82.1 2 52.7 46.9 82 46.9 23.4 93.7 0 44.9 -29.3 46.9 -82zM625 423.8q70.3 -1.9 107.4 -62.5 35.2 -62.5 0 -125Q695.3 175.8 625 173.8q-70.3 2 -107.4 62.5 -35.2 62.5 0 125 37.1 60.6 107.4 62.5z"/></svg>