<svg height="1000" width="875" xmlns="http://www.w3.org/2000/svg"><path d="M437.5 423.8q68.4 0 125 -33.2 56.6 -33.2 91.8 -91.8 33.2 -58.6 33.2 -125t-33.2 -125Q619.1 -9.8 562.5 -43t-125 -33.2 -125 33.2 -91.8 91.8q-33.2 58.6 -33.2 125t33.2 125q35.2 58.6 91.8 91.8t125 33.2zM250 531.3q-111.3 35.1 -179.7 125Q2 744.1 0 865.2q0 25.4 17.6 41.1 15.6 17.5 41 17.5h757.8q25.4 0 41 -17.5Q875 890.6 875 865.2 873 744.1 804.7 656.3 736.3 566.4 625 531.3v99.6q41 11.7 66.4 42.9 27.4 33.2 27.4 78.2v78.1q-2 29.3 -31.3 31.2h-31.2Q627 859.4 625 830.1q2 -29.3 31.3 -31.3V752q0 -27.4 -17.6 -45t-44.9 -17.5 -45 17.5 -17.5 45v46.8q29.2 2 31.2 31.3 -2 29.3 -31.2 31.2H500q-29.3 -1.9 -31.2 -31.2V752q0 -45 27.3 -78.2 25.4 -31.2 66.4 -42.9V519.5q-17.6 -1.9 -35.2 -1.9H347.7q-17.6 0 -35.2 1.9v127q35.2 11.7 56.6 39 21.5 29.3 21.5 66.5 -1.9 46.8 -31.2 78.1 -31.3 29.3 -78.1 31.2 -46.9 -1.9 -78.2 -31.2Q173.8 798.8 171.9 752q0 -37.2 21.5 -66.5 21.4 -27.3 56.6 -39V531.3zm31.3 267.5q42.9 -3.9 46.8 -46.8 -3.9 -43 -46.8 -46.9 -43 3.9 -46.9 46.9 3.9 42.9 46.9 46.8z"/></svg>