<svg height="1000" width="875" xmlns="http://www.w3.org/2000/svg"><path d="M437.5 423.8Q351.6 421.9 289.1 375 224.6 326.2 199.2 250q-3.9 3.9 -5.8 7.8 -25.4 21.5 -54.7 31.3t-50.8 11.7q-27.4 -2 -27.4 -27.4 2 -23.4 11.8 -52.7Q82 193.4 103.5 168q17.6 -15.7 39.1 -25.4 -21.5 -9.8 -39.1 -27.4Q82 91.8 72.3 62.5T60.5 11.7q0 -27.3 27.4 -27.3 21.5 1.9 50.8 11.7t54.7 31.2Q207 43 214.8 58.6 248 -2 304.7 -39.1q58.6 -37.1 132.8 -37.1 105.5 2 177.7 72.3 70.3 72.3 72.3 177.7 -2 105.5 -72.3 177.8Q543 421.9 437.5 423.8zM0 865.2q2 -123 74.2 -212.9 70.3 -91.8 185.6 -123 17.5 -3.9 31.2 11.7l121.1 162.1q25.4 25.4 50.8 0L584 541q13.7 -15.6 31.2 -11.7 115.3 31.2 185.6 123Q873 742.2 875 865.2q0 25.4 -17.6 41.1 -15.6 17.5 -41 17.5H58.6q-25.4 0 -41 -17.5Q0 890.6 0 865.2zM312.5 111.3q-29.3 2 -31.2 31.3 1.9 29.3 31.2 31.2h250q29.3 -1.9 31.3 -31.2 -2 -29.3 -31.3 -31.3h-250z"/></svg>