<svg height="1000" width="1250" xmlns="http://www.w3.org/2000/svg"><path d="M93.8 17.6h171.8H93.8h171.8q43 -3.9 46.9 -46.9 -3.9 -43 -46.9 -46.9H62.5q-27.3 0 -44.9 17.6T0 -13.7v203.2q3.9 42.9 46.9 46.8 42.9 -3.9 46.9 -46.8V17.6zm250 343.7q52.7 -1.9 80 -46.8 25.4 -46.9 0 -93.8 -27.3 -44.9 -80 -46.9 -52.8 2 -82.1 46.9 -25.4 46.9 0 93.8 29.3 44.9 82.1 46.8zM291 423.8q-43 2 -72.2 31.3 -29.3 29.3 -31.3 72.2 3.9 48.9 52.7 52.8h109.4q11.7 -50.8 44.9 -87.9t82.1 -56.7q-21.5 -11.7 -48.9 -11.7H291zm718.8 156.3q48.8 -3.9 52.7 -52.8 -2 -42.9 -31.2 -72.2T959 423.8H822.3q-27.4 0 -48.9 11.7 48.9 19.6 82.1 56.7t44.9 87.9h109.4zm-173.9 0Q806.6 505.9 726.6 488.3q-11.8 -2 -23.5 -2H546.9q-11.7 0 -23.5 2 -80 17.6 -109.3 91.8 -7.8 21.5 -7.8 46.9 3.9 42.9 46.8 46.8h343.8q42.9 -3.9 46.9 -46.8 0 -25.4 -7.9 -46.9zm70.4 -218.8q52.7 -1.9 82 -46.8 23.4 -46.9 0 -93.8 -29.3 -44.9 -82 -46.9 -52.8 2 -82.1 46.9 -23.4 46.9 0 93.8 29.3 44.9 82.1 46.8zM750 298.8q-2 -70.3 -62.5 -107.4 -62.5 -35.1 -125 0Q502 228.5 500 298.8q2 70.3 62.5 107.5 62.5 35.1 125 0Q748 369.1 750 298.8zM984.4 17.6h171.9H984.4h171.9v171.9q3.9 42.9 46.8 46.8 43 -3.9 46.9 -46.8V-13.7q0 -27.3 -17.6 -44.9t-44.9 -17.6H984.4q-43 3.9 -46.9 46.9 3.9 43 46.9 46.9zM93.8 830.1V658.2v171.9V658.2q-4 -43 -46.9 -46.9Q3.9 615.2 0 658.2v203.1q0 27.4 17.6 45t44.9 17.5h203.1q43 -3.9 46.9 -46.8 -3.9 -43 -46.9 -46.9H93.8zm890.6 0q-43 3.9 -46.9 46.9 3.9 42.9 46.9 46.8h203.1q27.3 0 44.9 -17.5t17.6 -45V658.2q-3.9 -43 -46.9 -46.9 -42.9 3.9 -46.8 46.9v171.9H984.4z"/></svg>