<svg height="1000" width="1250" xmlns="http://www.w3.org/2000/svg"><path d="M80.1 -62.5q-33.2 -27.3 -66.4 0 -27.4 33.2 0 66.4l140.6 140.6q33.2 27.4 66.4 0 27.3 -33.2 0 -66.4L80.1 -62.5zm1089.8 0L1029.3 78.1l140.6 -140.6L1029.3 78.1q-27.3 33.2 0 66.4 33.2 27.4 66.4 0L1236.3 3.9q27.4 -33.2 0 -66.4 -33.2 -27.3 -66.4 0zM13.7 910.2q33.2 27.3 66.4 0L220.7 769.5q27.3 -33.2 0 -66.4 -33.2 -27.3 -66.4 0L13.7 843.8q-27.4 33.2 0 66.4zm1156.2 0q33.2 27.3 66.4 0 27.4 -33.2 0 -66.4L1095.7 703.1q-33.2 -27.3 -66.4 0 -27.3 33.2 0 66.4l140.6 140.7zM625 423.8q70.3 -1.9 107.4 -62.5 35.2 -62.5 0 -125Q695.3 175.8 625 173.8q-70.3 2 -107.4 62.5 -35.2 62.5 0 125 37.1 60.6 107.4 62.5zM414.1 580.1q-7.8 21.5 -7.8 46.9 3.9 42.9 46.8 46.8h343.8q42.9 -3.9 46.9 -46.8 0 -25.4 -7.9 -46.9l-3.9 -7.8q-31.2 -68.4 -105.4 -84 -11.8 -2 -23.5 -2H546.9q-11.7 0 -23.5 2 -1.9 0 -3.9 1.9 -78.1 17.6 -105.4 89.9zM343.8 361.3q52.7 -1.9 80 -46.8 25.4 -46.9 0 -93.8 -27.3 -44.9 -80 -46.9 -52.8 2 -82.1 46.9 -25.4 46.9 0 93.8 29.3 44.9 82.1 46.8zM291 423.8q-43 2 -72.2 31.3 -29.3 29.3 -31.3 72.2 3.9 48.9 52.7 52.8h109.4q11.7 -50.8 44.9 -87.9t82.1 -56.7q-21.5 -11.7 -48.9 -11.7H291zm718.8 156.3q48.8 -3.9 52.7 -52.8 -2 -42.9 -31.2 -72.2T959 423.8H822.3q-27.4 0 -48.9 11.7 48.9 19.6 82.1 56.7t44.9 87.9h109.4zM906.3 361.3q52.7 -1.9 82 -46.8 23.4 -46.9 0 -93.8 -29.3 -44.9 -82 -46.9 -52.8 2 -82.1 46.9 -23.4 46.9 0 93.8 29.3 44.9 82.1 46.8z"/></svg>