<svg height="1000" width="875" xmlns="http://www.w3.org/2000/svg"><path d="M187.5 173.8V60.5v113.3V60.5q2 -41 41 -58.5L416 -68.4q21.5 -7.8 43 0L646.5 2q39 17.5 41 58.5v207.1q-2 105.4 -72.3 177.7Q543 515.6 437.5 517.6 332 515.6 261.7 445.3 189.5 373 187.5 267.6v-93.8zm93.8 93.8q1.9 66.4 44.9 111.3 44.9 43 111.3 44.9 66.4 -1.9 111.3 -44.9 43 -44.9 45 -111.3v-31.3H281.3v31.3zm-62.5 296.9q33.2 -9.8 56.6 15.6l138.7 148.4q23.4 19.5 46.8 0L599.6 580.1q23.4 -25.4 56.7 -15.6 97.6 31.2 156.2 111.3Q873 755.9 875 863.3q0 25.4 -17.6 43t-42.9 17.5h-754q-25.3 0 -42.9 -17.5T0 863.3Q2 755.9 62.5 675.8q58.6 -80.1 156.3 -111.3zM406.3 17.6v31.2V17.6v31.2H375q-13.7 2 -15.6 15.7v31.2q1.9 13.7 15.6 15.6h31.3v31.3q1.9 13.7 15.6 15.6h31.2q13.7 -1.9 15.7 -15.6v-31.3H500q13.7 -1.9 15.6 -15.6V64.5Q513.7 50.8 500 48.8h-31.2V17.6Q466.8 3.9 453.1 2h-31.2q-13.7 1.9 -15.6 15.6z"/></svg>