<svg height="1000" width="875" xmlns="http://www.w3.org/2000/svg"><path d="M437.5 -44.9q-17.6 -2 -29.3 -11.7h-1.9q-13.7 -15.7 -62.5 -19.6 -45 2 -76.2 54.7Q234.4 29.3 214.8 97.7q-70.3 13.6 -111.3 33.2t-41 42.9q5.9 43 127 70.3 -2 11.8 -2 23.5 0 50.8 17.6 93.7H87.9q-23.4 2 -25.4 25.4 0 5.9 2 9.8l76.1 189.4Q76.2 634.8 39.1 707 0 779.3 0 865.2q0 25.4 17.6 41.1 15.6 17.5 41 17.5h757.8q25.4 0 41 -17.5Q875 890.6 875 865.2 875 779.3 835.9 707 798.8 634.8 734.4 585.9l76.1 -189.4q2 -3.9 2 -9.8 -2 -23.4 -25.4 -25.4H669.9q17.6 -42.9 17.6 -93.7 0 -11.7 -2 -23.5 121.1 -27.3 127 -70.3 0 -23.4 -41 -42.9T660.2 97.7Q640.6 29.3 607.4 -21.5q-31.2 -52.7 -76.1 -54.7 -48.9 3.9 -62.5 19.6h-2q-11.7 9.7 -29.3 11.7zm109.4 406.2h-23.5 23.5 -23.5q-52.7 -1.9 -72.2 -50.8 -3.9 -9.7 -13.7 -9.7t-13.7 9.7q-19.5 48.9 -70.3 50.8h-25.4q-33.2 0 -54.7 -23.4Q250 316.4 250 283.2v-27.3q84 11.7 187.5 11.7T625 255.9v27.3q0 33.2 -23.4 54.7 -21.5 23.4 -54.7 23.4zM375 548.8l31.3 62.5L375 548.8l31.3 62.5 -62.5 250L250 486.3l125 62.5zm250 -62.5l-93.7 375 93.7 -375 -93.7 375 -62.5 -250L500 548.8l125 -62.5z"/></svg>