<svg height="1000" width="875" xmlns="http://www.w3.org/2000/svg"><path d="M427.7 -74.2q9.8 -2 19.6 0L837.9 3.9Q873 11.7 875 48.8q-2 37.1 -37.1 46.9L687.5 125v111.3q-2 105.5 -72.3 177.8Q543 484.4 437.5 486.3 332 484.4 259.8 414.1 189.5 341.8 187.5 236.3V125L93.8 105.5v126.9L125 386.7q2 13.7 -7.8 25.4 -7.8 11.7 -23.4 11.7H31.3q-13.7 0 -23.5 -11.7T0 386.7L31.3 232.4V93.8Q2 82 0 48.8 2 11.7 37.1 3.9l390.6 -78.1zM218.8 564.5q33.2 -9.8 56.6 15.6l138.7 148.4q23.4 19.5 46.8 0L599.6 580.1q23.4 -25.4 56.7 -15.6 97.6 31.2 156.2 111.3Q873 755.9 875 863.3q0 25.4 -17.6 43t-42.9 17.5h-754q-25.3 0 -42.9 -17.5T0 863.3Q2 755.9 62.5 675.8q58.6 -80.1 156.3 -111.3z"/></svg>