<svg height="1000" width="1250" xmlns="http://www.w3.org/2000/svg"><path d="M437.5 423.8q68.4 0 125 -33.2 56.6 -33.2 91.8 -91.8 33.2 -58.6 33.2 -125t-33.2 -125Q619.1 -9.8 562.5 -43t-125 -33.2 -125 33.2 -91.8 91.8q-33.2 58.6 -33.2 125t33.2 125q35.2 58.6 91.8 91.8t125 33.2zm-89.8 93.8q-146.5 3.9 -246.1 101.5Q3.9 718.8 0 865.2q0 25.4 17.6 41.1 15.6 17.5 41 17.5h769.5Q716.8 837.9 673.8 730.5 628.9 621.1 627 531.3q-48.9 -13.7 -99.7 -13.7H347.7zM951.2 365.2L716.8 459l234.4 -93.8L716.8 459q-27.3 11.7 -29.3 43 -2 64.4 21.5 144.5 21.5 80.1 78.1 154.3 58.6 74.2 164.1 119.1 17.6 7.8 35.1 0Q1091.8 875 1150.4 800.8q56.6 -74.2 78.1 -154.3Q1252 566.4 1250 502q-2 -31.3 -29.3 -43L986.3 365.2q-17.5 -7.8 -35.1 0zm203.1 168q-3.9 78.1 -44.9 158.2 -43 82 -140.6 134.8V459l185.5 74.2z"/></svg>