<svg height="1000" width="1250" xmlns="http://www.w3.org/2000/svg"><path d="M0 -29.3q3.9 -43 46.9 -46.9h1156.2q43 3.9 46.9 46.9 -3.9 43 -46.9 46.9H46.9Q3.9 13.7 0 -29.3zM0 877q3.9 -43 46.9 -46.9h1156.2q43 3.9 46.9 46.9 -3.9 42.9 -46.9 46.8H46.9Q3.9 919.9 0 877zM162.1 236.3q2 -70.3 62.5 -107.4 62.5 -35.1 125 0 60.6 37.1 62.5 107.4 -1.9 70.3 -62.5 107.5 -62.5 35.1 -125 0Q164.1 306.6 162.1 236.3zM62.5 548.8q2 -52.7 37.1 -87.9 35.2 -35.1 87.9 -37.1H375q37.1 0 64.5 17.6 -54.7 23.4 -93.8 68.4Q308.6 552.7 293 611.3H125q-27.3 0 -44.9 -17.5t-17.6 -45zm902.3 62.5Q949.2 552.7 908.2 507.8q-39.1 -44.9 -95.7 -66.4 27.3 -17.6 62.5 -17.6h187.5q52.7 2 87.9 37.1t37.1 87.9q0 27.4 -17.6 45t-44.9 17.5H964.8zM763.7 490.2q99.6 27.4 134.7 121.1 9.8 29.3 11.8 62.5 -2 27.4 -19.6 45t-42.9 17.5H410.2q-27.4 0 -45 -17.5t-17.5 -45q0 -33.2 9.7 -62.5 35.2 -91.8 128.9 -119.1 23.5 -5.9 48.9 -5.9h187.5q21.4 0 41 3.9zm85.9 -253.9q2 -70.3 62.5 -107.4 62.5 -35.1 125 0 60.6 37.1 62.5 107.4 -1.9 70.3 -62.5 107.5 -62.5 35.1 -125 0Q851.6 306.6 849.6 236.3zm-220.7 -125q87.9 2 134.8 78.2 41 78.1 0 156.2 -46.9 76.2 -134.8 78.1 -89.8 -1.9 -136.7 -78.1 -41 -78.1 0 -156.2 46.9 -76.2 136.7 -78.2z"/></svg>