<svg height="1000" width="875" xmlns="http://www.w3.org/2000/svg"><path d="M187.5 173.8q0 68.4 33.2 125 33.2 56.7 91.8 91.8 58.6 33.2 125 33.2t125 -33.2q58.6 -35.1 91.8 -91.8t33.2 -125 -33.2 -125T562.5 -43q-58.6 -33.2 -125 -33.2t-125 33.2q-58.6 35.2 -91.8 91.8t-33.2 125zM373 564.5l35.2 60.5L373 564.5l35.2 60.5 -64.4 242.2L273.4 580.1q-9.7 -25.4 -35.1 -21.5Q132.8 585.9 68.4 668 2 752 0 863.3q0 25.4 17.6 43t42.9 17.5H558.6q-2 0 0 0h255.9q25.3 0 42.9 -17.5t17.6 -43Q873 752 806.6 668 742.2 585.9 636.7 558.6q-25.4 -3.9 -35.1 21.5l-70.3 287.1L466.8 625l37.1 -60.5q7.8 -15.7 0 -31.3 -9.8 -13.7 -27.3 -15.6h-78.2q-17.5 1.9 -27.3 15.6 -7.8 15.6 1.9 31.3z"/></svg>