<svg height="1000" width="875" xmlns="http://www.w3.org/2000/svg"><path d="M812.5 -76.2q-19.5 -1.9 -78.1 27.4Q673.8 -21.5 621.1 52.7q-54.7 76.2 -58.6 214.9v218.7q2 52.8 37.1 87.9t87.9 37.1H750v250q0 27.4 17.6 45t44.9 17.5 44.9 -17.5 17.6 -45v-875q0 -27.3 -17.6 -44.9t-44.9 -17.6zM125 -44.9q-2 -25.4 -27.3 -31.3 -27.4 0 -35.2 25.4L3.9 214.8Q0 232.4 0 252q2 68.3 44.9 115.2 44.9 48.8 111.4 56.6v437.5q0 27.4 17.5 45t45 17.5 44.9 -17.5 17.6 -45V423.8q66.4 -7.8 111.3 -56.6Q435.5 320.3 437.5 252q0 -19.6 -3.9 -37.2L375 -50.8q-7.8 -25.4 -35.2 -25.4 -25.3 5.9 -27.3 31.3v261.7q-2 17.6 -19.5 19.5 -15.7 -1.9 -19.6 -17.5L250 -46.9q-3.9 -27.3 -31.2 -29.3 -27.4 2 -31.3 29.3l-23.4 265.7q-3.9 15.6 -19.6 17.5Q127 234.4 125 216.8V-44.9zM218.8 252v-2 2z"/></svg>