<svg height="1000" width="1250" xmlns="http://www.w3.org/2000/svg"><path d="M125 127v171.8V127v171.8h187.5V111.3H140.6Q127 113.3 125 127zm941.4 171.8L908.2 111.3l158.2 187.5L908.2 111.3H750v187.5h316.4zm-441.4 0V111.3v187.5V111.3H437.5v187.5H625zm531.3 375H1125h31.3H1125q-2 80.1 -54.7 132.8t-132.8 54.7q-80.1 -1.9 -132.8 -54.7T750 673.8H500q-2 80.1 -54.7 132.8t-132.8 54.7q-80.1 -1.9 -132.8 -54.7T125 673.8H93.8Q54.7 671.9 27.3 646.5 2 619.1 0 580.1V127Q2 66.4 41 27.3t99.6 -41h767.6q58.6 2 95.7 45l216.8 257.8q29.3 33.2 29.3 80v211q-2 39 -27.3 66.4 -27.4 25.4 -66.4 27.3zm-125 0q-2 -52.7 -46.9 -82 -46.9 -23.4 -93.8 0 -44.9 29.3 -46.8 82 1.9 52.8 46.8 82.1 46.9 23.4 93.8 0 44.9 -29.3 46.9 -82.1zm-718.8 93.8q52.7 -2 82 -46.9 23.5 -46.9 0 -93.7 -29.3 -45 -82 -46.9 -52.7 1.9 -82 46.9 -23.5 46.8 0 93.7 29.3 44.9 82 46.9z"/></svg>