<svg height="1000" width="1125" xmlns="http://www.w3.org/2000/svg"><path d="M125 -76.2q-52.7 2 -87.9 37.1Q2 -3.9 0 48.8v687.5q2 52.8 37.1 87.9t87.9 37.1h31.3l31.2 62.5h125l31.3 -62.5h437.5l31.2 62.5h125l31.3 -62.5h31.2q52.7 -1.9 87.9 -37.1t37.1 -87.9V48.8q-2 -52.7 -37.1 -87.9T1000 -76.2H125zm312.5 625q87.9 -1.9 134.8 -78.1 42.9 -78.1 0 -156.2Q525.4 238.3 437.5 236.3q-87.9 2 -134.8 78.2 -42.9 78.1 0 156.2 46.9 76.2 134.8 78.1zm0 -468.7q84 0 156.3 41 72.2 43 115.2 115.2 41 74.2 41 156.3t-41 156.2q-43 72.3 -115.2 115.3 -72.3 41 -156.3 41t-156.2 -41Q209 621.1 166 548.8 125 474.6 125 392.6t41 -156.3q43 -72.2 115.3 -115.2 72.2 -41 156.2 -41zm500 275.4v224.6V355.5v224.6q-2 29.3 -31.2 31.2Q877 609.4 875 580.1V355.5Q816.4 332 812.5 267.6q2 -39.1 27.3 -66.4 27.4 -25.4 66.5 -27.4 39 2 66.4 27.4 25.3 27.3 27.3 66.4 -3.9 64.4 -62.5 87.9z"/></svg>