<svg height="1000" width="875" xmlns="http://www.w3.org/2000/svg"><path d="M718.8 80.1h62.5 -62.5 62.5v62.5h-62.5V80.1zm-31.3 -93.8q-27.3 0 -44.9 17.6Q625 21.5 625 48.8H250Q250 21.5 232.4 3.9t-44.9 -17.6h-125q-27.3 0 -44.9 17.6T0 48.8v125q0 27.4 17.6 45t44.9 17.5v375q-27.3 0 -44.9 17.6T0 673.8v125q0 27.4 17.6 45t44.9 17.5h125q27.3 0 44.9 -17.5t17.6 -45h375q0 27.4 17.6 45t44.9 17.5h125q27.3 0 44.9 -17.5t17.6 -45v-125q0 -27.3 -17.6 -44.9t-44.9 -17.6v-375q27.3 0 44.9 -17.5t17.6 -45v-125Q875 21.5 857.4 3.9t-44.9 -17.6h-125zm-500 250q27.3 0 44.9 -17.5 17.6 -17.6 17.6 -45h375q0 27.4 17.6 45t44.9 17.5v375q-27.3 0 -44.9 17.6T625 673.8H250q0 -27.3 -17.6 -44.9t-44.9 -17.6v-375zM93.8 705.1h62.5H93.8h62.5v62.5H93.8v-62.5zm625 62.5v-62.5 62.5 -62.5h62.5v62.5h-62.5zm-625 -625V80.1v62.5V80.1h62.5v62.5H93.8z"/></svg>