<svg height="1000" width="1250" xmlns="http://www.w3.org/2000/svg"><path d="M343.8 486.3q58.5 0 109.3 -29.3t80.1 -80 29.3 -109.4T533.2 158.2 453.1 78.1 343.8 48.8 234.4 78.1t-80.1 80.1T125 267.6 154.3 377t80.1 80 109.4 29.3zM687.5 267.6q-2 128.9 -80.1 220.7Q529.3 582 406.3 605.5v68.3h62.5q27.3 0 44.9 17.6t17.6 44.9 -17.6 45 -44.9 17.5h-62.5v62.5q0 27.4 -17.6 45t-44.9 17.5 -45 -17.5 -17.5 -45v-62.5h-62.5q-27.4 0 -45 -17.5t-17.5 -45 17.5 -44.9 45 -17.6h62.5v-68.3Q158.2 582 80.1 488.3 2 396.5 0 267.6 3.9 121.1 101.6 25.4q95.7 -97.7 242.2 -101.6 146.4 3.9 242.1 101.6 97.7 95.7 101.6 242.2zM531.3 628.9q56.6 -31.2 101.5 -76.2 60.6 56.7 148.5 58.6 93.7 -1.9 154.2 -64.4Q998 486.3 1000 392.6q-2 -93.8 -64.5 -154.3Q875 175.8 781.3 173.8q-21.5 0 -41.1 3.9Q726.6 115.2 693.4 60.5q42.9 -11.7 87.9 -11.7 109.3 2 195.3 60.6l39 -41L951.2 3.9q-21.5 -23.4 -9.8 -50.8t43 -29.3h218.7q43 3.9 46.9 46.9v218.8q-2 31.2 -29.3 42.9t-50.8 -9.7l-64.4 -64.5 -41 39.1q58.5 85.9 60.5 195.3 -3.9 146.5 -101.6 242.2 -95.7 97.6 -242.1 101.5 -152.4 -3.9 -250 -107.4z"/></svg>