<svg height="1000" width="1250" xmlns="http://www.w3.org/2000/svg"><path d="M375 486.3q58.6 0 109.4 -29.3 50.8 -29.3 80.1 -80t29.3 -109.4T564.5 158.2 484.4 78.1 375 48.8 265.6 78.1t-80.1 80.1 -29.2 109.4T185.5 377t80.1 80T375 486.3zM718.8 267.6q-2 128.9 -80.1 220.7Q560.5 582 437.5 605.5v68.3H500q27.3 0 44.9 17.6t17.6 44.9 -17.6 45T500 798.8h-62.5v62.5q0 27.4 -17.6 45T375 923.8t-44.9 -17.5 -17.6 -45v-62.5H250q-27.3 0 -44.9 -17.5t-17.6 -45 17.6 -44.9T250 673.8h62.5v-68.3Q189.5 582 111.3 488.3 33.2 396.5 31.3 267.6 35.2 121.1 132.8 25.4 228.5 -72.3 375 -76.2q146.5 3.9 242.2 101.6 97.6 95.7 101.6 242.2zm-46.9 277.3Q714.8 500 742.2 441.4q56.6 43 132.8 44.9 93.8 -1.9 154.3 -64.4 62.5 -60.6 64.5 -154.3 -2 -93.8 -64.5 -154.3Q968.8 50.8 875 48.8q-76.2 2 -132.8 45Q714.8 37.1 671.9 -9.8 759.8 -74.2 875 -76.2q146.5 3.9 242.2 101.6 97.6 95.7 101.6 242.2 -2 128.9 -80.1 220.7Q1060.5 582 937.5 605.5v68.3h62.5q27.3 0 44.9 17.6t17.6 44.9 -17.6 45 -44.9 17.5h-62.5v62.5q0 27.4 -17.6 45T875 923.8t-44.9 -17.5 -17.6 -45v-62.5H750q-27.3 0 -44.9 -17.5t-17.6 -45 17.6 -44.9T750 673.8h62.5v-68.3Q734.4 589.8 671.9 544.9z"/></svg>