<svg height="1000" width="750" xmlns="http://www.w3.org/2000/svg"><path d="M156.3 267.6q0 -58.6 29.2 -109.4 29.3 -50.8 80.1 -80.1T375 48.8t109.4 29.3 80.1 80.1 29.3 109.4T564.5 377t-80.1 80T375 486.3 265.6 457t-80.1 -80T156.3 267.6zm281.2 337.9Q560.5 582 638.7 488.3q78.1 -91.8 80.1 -220.7Q714.8 121.1 617.2 25.4 521.5 -72.3 375 -76.2 228.5 -72.3 132.8 25.4 35.2 121.1 31.3 267.6q1.9 128.9 80 220.7 78.2 93.7 201.2 117.2v68.3H250q-27.3 0 -44.9 17.6t-17.6 44.9 17.6 45 44.9 17.5h62.5v62.5q0 27.4 17.6 45t44.9 17.5 44.9 -17.5 17.6 -45v-62.5H500q27.3 0 44.9 -17.5t17.6 -45 -17.6 -44.9T500 673.8h-62.5v-68.3z"/></svg>