<svg height="1000" width="875" xmlns="http://www.w3.org/2000/svg"><path d="M294.9 60.5l109.4 326.2L294.9 60.5l109.4 326.2 -21.5 66.4Q375 476.6 375 502v328.1q0 42.9 21.5 78.1 -23.5 15.6 -52.7 15.6h-250Q54.7 921.9 27.3 896.5 2 869.1 0 830.1v-377q0 -29.3 15.6 -52.7l93.8 -140.6Q125 236.3 125 207V17.6q2 -39.1 27.3 -66.4 27.4 -25.4 66.5 -27.4h11.7q56.6 5.9 85.9 37.1 13.7 13.7 43 27.4Q388.7 0 437.5 2q48.8 -2 78.1 -13.7 29.3 -13.7 43 -27.4 29.3 -31.2 85.9 -37.1h11.8q39 2 66.4 27.4Q748 -21.5 750 17.6V209q0 27.3 15.6 50.8l93.8 140.6q15.6 23.4 15.6 52.7v377q-2 39 -27.3 66.4 -27.4 25.4 -66.4 27.3h-250q-39.1 -1.9 -66.5 -27.3 -25.3 -27.4 -27.3 -66.4V502q0 -15.7 5.9 -29.3L580.1 60.5Q529.3 91.8 437.5 95.7 345.7 91.8 294.9 60.5zm-107.4 754q44.9 -2 68.4 -39.1 19.5 -39.1 0 -78.1 -23.5 -37.1 -68.4 -39.1 -44.9 2 -68.4 39.1 -19.5 39 0 78.1 23.5 37.1 68.4 39.1zM125 423.8q-15.6 15.7 0 33.2l29.3 29.3L125 517.6q-15.6 15.6 0 33.2 15.6 13.7 33.2 0l29.3 -31.3 31.3 31.3q15.6 13.7 33.2 0 13.6 -17.6 0 -33.2l-31.3 -31.3L252 457q13.6 -17.5 0 -33.2 -17.6 -15.6 -33.2 0l-31.3 29.3 -29.3 -29.3q-17.6 -15.6 -33.2 0zm468.8 46.9v15.6 -15.6 78.1q1.9 29.3 31.2 31.3h78.1q43 -3.9 46.9 -46.9 -3.9 -43 -46.9 -46.9h-15.6v-15.6q-3.9 -43 -46.9 -46.9 -42.9 3.9 -46.8 46.9z"/></svg>