<svg height="1000" width="875" xmlns="http://www.w3.org/2000/svg"><path d="M404.3 386.7L294.9 60.5l109.4 326.2L294.9 60.5q50.8 31.3 142.6 35.2 91.8 -3.9 142.6 -35.2L443.4 472.7q-5.9 13.6 -5.9 29.3v328.1q2 39 27.3 66.4 27.4 25.4 66.5 27.3h250q39 -1.9 66.4 -27.3Q873 869.1 875 830.1v-377q0 -29.3 -15.6 -52.7L765.6 259.8Q750 236.3 750 207V17.6q-2 -39.1 -27.3 -66.4 -27.4 -25.4 -66.4 -27.4h-11.8q-56.6 5.9 -85.9 37.1 -13.7 13.7 -43 27.4Q486.3 0 437.5 2 388.7 0 359.4 -11.7q-29.3 -13.7 -43 -27.4 -29.3 -31.2 -85.9 -37.1h-11.7q-39.1 2 -66.5 27.4Q127 -21.5 125 17.6V209q0 27.3 -15.6 50.8L15.6 400.4Q0 423.8 0 453.1v377q2 39 27.3 66.4 27.4 25.4 66.5 27.3h250q29.2 0 52.7 -15.6Q375 873 375 830.1V502q0 -25.4 7.8 -48.9l21.5 -66.4zm273.4 234.4l93.8 93.7 -93.8 -93.7 93.8 93.7q19.5 21.5 0 43 -21.5 19.5 -43 0l-93.7 -93.7q-19.6 -21.5 0 -43 21.5 -19.5 42.9 0zm-574.2 93.7l93.8 -93.7 -93.8 93.7 93.8 -93.7q21.5 -19.5 42.9 0 19.6 21.5 0 43l-93.7 93.7q-21.5 19.5 -43 0 -19.5 -21.5 0 -43z"/></svg>