<svg height="1000" width="1000" xmlns="http://www.w3.org/2000/svg"><path d="M62.5 -13.7q-27.3 0 -44.9 17.6Q0 21.5 0 48.8t17.6 45 44.9 17.5v562.5q2 80.1 54.7 132.8T250 861.3q85.9 -1.9 140.6 -62.5 0 -42.9 31.3 -76.1v-2Q375 718.8 343.8 689.5q-29.3 -31.3 -31.3 -78.2 2 -46.8 31.3 -78.1Q375 503.9 421.9 502v-2q-31.3 -33.2 -31.3 -76.2 0 -44.9 31.3 -78.1L437.5 334V111.3q27.3 0 44.9 -17.5t17.6 -45T482.4 3.9t-44.9 -17.6h-375zm125 312.5V111.3v187.5V111.3h125v187.5h-125zm234.4 359.4q42.9 3.9 58.6 39.1 13.6 35.1 -13.7 68.3t0 66.4q33.2 27.4 66.4 0 33.2 -29.3 68.4 -13.6t39 58.6 46.9 46.8q43 -3.9 46.9 -46.8t39 -58.6q35.2 -13.7 68.4 13.6t66.4 0q27.3 -33.2 0 -66.4t-13.7 -68.3q15.7 -35.2 58.6 -39.1t46.9 -46.9q-3.9 -42.9 -46.9 -46.8t-58.6 -39.1Q880.9 490.2 908.2 457t0 -66.4q-33.2 -27.3 -66.4 0t-68.4 13.7q-35.1 -15.6 -39 -58.6t-46.9 -46.9q-43 3.9 -46.9 46.9t-39 58.6Q566.4 418 533.2 390.6t-66.4 0q-27.3 33.2 0 66.4 29.3 33.2 13.7 68.4t-58.6 39.1T375 611.3q3.9 43 46.9 46.9zM625 486.3q27.3 0 44.9 17.6 17.6 17.6 17.6 44.9t-17.6 45T625 611.3t-44.9 -17.5 -17.6 -45 17.6 -44.9T625 486.3zm78.1 187.5Q707 630.9 750 627q43 3.9 46.9 46.8 -3.9 43 -46.9 46.9 -43 -3.9 -46.9 -46.9z"/></svg>