<svg height="1000" width="1000" xmlns="http://www.w3.org/2000/svg"><path d="M0 48.8Q0 21.5 17.6 3.9q17.6 -17.6 44.9 -17.6H375q27.3 0 44.9 17.6t17.6 44.9 -17.6 45T375 111.3v593.8q-2 66.4 -44.9 111.3 -44.9 43 -111.3 44.9 -66.5 -1.9 -111.4 -44.9Q64.5 771.5 62.5 705.1V111.3q-27.3 0 -44.9 -17.5T0 48.8zm265.6 62.5h-93.7 93.7 -93.7v312.5h93.7V111.3zM562.5 48.8q0 -27.3 17.6 -44.9 17.6 -17.6 44.9 -17.6h312.5q27.3 0 44.9 17.6t17.6 44.9 -17.6 45 -44.9 17.5v593.8q-2 66.4 -44.9 111.3 -44.9 43 -111.3 44.9 -66.5 -1.9 -111.4 -44.9Q627 771.5 625 705.1V111.3q-27.3 0 -44.9 -17.5t-17.6 -45zm265.6 62.5h-93.7 93.7 -93.7v312.5h93.7V111.3z"/></svg>