<svg height="1000" width="1000" xmlns="http://www.w3.org/2000/svg"><path d="M0 48.8Q0 21.5 17.6 3.9q17.6 -17.6 44.9 -17.6h375q27.3 0 44.9 17.6T500 48.8t-17.6 45 -44.9 17.5v334Q377 531.3 375 642.6q0 74.2 29.3 138.7 -54.7 76.1 -154.3 80 -80.1 -1.9 -132.8 -54.7T62.5 673.8V111.3q-27.3 0 -44.9 -17.5T0 48.8zm187.5 62.5v187.5V111.3v187.5h125V111.3h-125zm250 531.3q0 -76.2 37.1 -140.6 37.1 -64.5 103.5 -103.6 66.4 -37.1 140.7 -37.1t140.6 37.1q66.4 39.1 103.5 103.6t37.1 140.6 -37.1 140.6T859.4 886.7Q793 923.8 718.8 923.8T578.1 886.7q-66.4 -39 -103.5 -103.5T437.5 642.6zm412.1 -84q-21.5 -19.5 -43 0L687.5 675.8l-56.6 -54.7q-21.5 -19.5 -43 0 -19.5 21.5 0 43l78.1 78.1q21.5 19.5 43 0L849.6 601.6q19.5 -21.5 0 -43z"/></svg>