<svg height="1000" width="1250" xmlns="http://www.w3.org/2000/svg"><path d="M76.2 -66.4Q39.1 -89.8 9.8 -58.6q-23.5 37.1 7.8 66.4l1156.2 906.3q37.1 23.4 66.4 -7.8 23.5 -37.2 -7.8 -66.5L1062.5 707l27.3 19.6q31.3 17.5 64.5 1.9 31.2 -17.6 33.2 -54.7v-500q-2 -37.1 -33.2 -54.7 -33.2 -17.5 -64.5 2l-187.5 125L875 265.6v294.9l-62.5 -48.8V173.8q-2 -52.7 -37.1 -87.9T687.5 48.8H222.7L76.2 -66.4zm718.7 804.7L62.5 162.1l732.4 576.2L62.5 162.1v511.7q2 52.8 37.1 87.9t87.9 37.1h500q72.3 -3.9 107.4 -60.5z"/></svg>