<svg height="1000" width="1250" xmlns="http://www.w3.org/2000/svg"><path d="M548.8 -33.2l48.9 -33.2 -48.9 33.2 48.9 -33.2q3.9 -3.9 7.8 -5.9 9.7 -3.9 19.5 -3.9t19.5 3.9q3.9 2 7.8 5.9l48.9 33.2q99.6 70.3 218.7 101.6L964.8 82q5.9 0 9.8 3.9 9.8 3.9 15.6 13.7 11.8 13.7 9.8 33.2 -2 9.8 -5.9 15.6 -3.9 9.8 -11.7 15.7 -13.6 9.7 -31.2 9.7h-13.7v109.4l11.7 9.8 11.7 7.8q60.6 50.8 136.8 76.2l56.6 17.5q3.9 2 9.8 3.9 7.8 5.9 13.6 13.7t7.8 19.5q2 7.9 0 15.7 0 7.8 -3.9 15.6 -5.8 7.8 -13.6 15.6 -7.8 5.9 -19.6 7.8h-85.9v128.9q62.5 68.4 150.4 91.8 35.1 9.8 37.1 45 -3.9 42.9 -46.9 46.8H1125v62.5q0 27.4 -17.6 45t-44.9 17.5 -44.9 -17.5 -17.6 -45v-62.5H687.5v62.5q0 27.4 -17.6 45T625 923.8t-44.9 -17.5 -17.6 -45v-62.5H250v62.5q0 27.4 -17.6 45t-44.9 17.5 -44.9 -17.5 -17.6 -45v-62.5H46.9Q3.9 794.9 0 752q2 -35.2 37.1 -45Q125 683.6 187.5 615.2V486.3h-85.9Q89.8 484.4 82 478.5q-7.8 -7.8 -13.6 -15.6 -3.9 -7.8 -5.9 -15.6v-15.7q2 -11.7 7.8 -19.5 7.8 -7.8 15.6 -13.7 3.9 -1.9 9.8 -3.9L152.3 377q74.3 -25.4 136.8 -76.2l9.7 -7.8 13.7 -9.8V173.8h-15.6q-15.6 0 -29.3 -9.7 -7.8 -5.9 -13.7 -15.7L250 132.8q-2 -19.5 9.8 -33.2 5.8 -9.8 15.6 -13.7 3.9 -3.9 9.8 -3.9l44.9 -13.6Q449.2 37.1 548.8 -33.2zm263.7 207H625h187.5 -375v125h375v-125zm-500 312.5v125 -125 125h625v-125h-625z"/></svg>