<svg height="1000" width="1250" xmlns="http://www.w3.org/2000/svg"><path d="M76.2 -66.4Q39.1 -89.8 9.8 -58.6q-23.5 37.1 7.8 66.4l1156.2 906.3q37.1 23.4 66.4 -7.8 23.5 -37.2 -7.8 -66.5L931.6 603.5q-3.9 -44.9 27.4 -80.1 29.3 -35.1 82 -37.1h21.5q27.3 0 44.9 -17.5t17.6 -45 -17.6 -44.9 -44.9 -17.6H1041Q964.8 355.5 939.5 293q-25.4 -60.6 23.4 -119.2l15.6 -15.6q17.6 -19.5 17.6 -43 0 -25.4 -17.6 -44.9Q959 52.7 933.6 52.7q-23.4 0 -43 17.6L875 85.9q-58.6 48.9 -119.1 23.5Q693.4 84 687.5 9.8v-23.5q0 -27.3 -17.6 -44.9T625 -76.2t-44.9 17.6 -17.6 44.9V9.8q-5.9 74.2 -68.4 99.6Q433.6 134.8 375 85.9L359.4 70.3q-19.6 -17.6 -43 -17.6 -25.4 0 -44.9 17.6 -5.9 3.9 -7.8 9.8L76.2 -66.4zm441.4 345.7q19.5 -11.7 44.9 -11.7 39.1 1.9 66.4 27.3 25.4 27.4 27.4 66.4 0 13.7 -4 25.4L517.6 279.3zm267.6 451.2L283.2 334l502 396.5L283.2 334q-29.3 25.4 -72.3 27.3h-23.4q-27.3 0 -44.9 17.6T125 423.8t17.6 45 44.9 17.5h23.4q74.3 5.9 99.6 68.4 25.4 60.5 -23.4 119.1l-15.6 15.7q-17.6 19.5 -17.6 42.9 0 25.4 17.6 44.9 19.5 17.6 44.9 17.6 23.4 0 43 -17.6L375 761.7q58.6 -48.8 119.1 -23.4 62.5 25.4 68.4 101.5v21.5q0 27.4 17.6 45t44.9 17.5 44.9 -17.5 17.6 -45v-21.5q2 -46.8 29.3 -76.1 29.3 -29.3 68.4 -33.2z"/></svg>