<svg height="1000" width="1000" xmlns="http://www.w3.org/2000/svg"><path d="M562.5 -13.7q0 -27.3 -17.6 -44.9Q527.3 -76.2 500 -76.2t-44.9 17.6 -17.6 44.9V9.8q-5.9 74.2 -68.4 99.6Q308.6 134.8 250 85.9L234.4 70.3q-19.6 -17.6 -43 -17.6 -25.4 0 -44.9 17.6 -17.6 19.5 -17.6 44.9 0 23.5 17.6 43l15.6 17.6q48.8 56.6 23.4 117.2 -25.3 62.5 -99.6 68.3H62.5q-27.3 0 -44.9 17.6T0 423.8t17.6 45 44.9 17.5h23.4q74.3 5.9 99.6 68.4 25.4 60.5 -23.4 119.1l-15.6 15.7q-17.6 19.5 -17.6 42.9 0 25.4 17.6 44.9 19.5 17.6 44.9 17.6 23.4 0 43 -17.6L252 761.7q56.6 -48.8 119.1 -23.4 60.5 25.4 66.4 99.6v23.4q0 27.4 17.6 45t44.9 17.5 44.9 -17.5 17.6 -45v-23.4q5.9 -74.2 68.4 -99.6T750 761.7l15.6 15.6q19.6 17.6 44.9 17.6 23.5 0 43 -17.6Q873 757.8 873 732.4q0 -23.4 -19.5 -42.9l-15.6 -15.7Q789.1 615.2 814.5 554.7 839.8 492.2 916 486.3h21.5q27.3 0 44.9 -17.5t17.6 -45 -17.6 -44.9 -44.9 -17.6H916Q839.8 355.5 814.5 293q-25.4 -60.6 23.4 -119.2l15.6 -15.6q19.5 -19.5 19.5 -43 0 -25.4 -19.5 -44.9Q834 52.7 810.5 52.7q-25.3 0 -44.9 17.6L750 85.9q-58.6 48.9 -119.1 23.5Q568.4 84 562.5 9.8v-23.5zm-218.7 375q1.9 -52.7 46.8 -82 46.9 -23.4 93.8 0 44.9 29.3 46.9 82 -2 52.8 -46.9 82.1 -46.9 23.4 -93.8 0 -44.9 -29.3 -46.8 -82.1zm250 109.4q42.9 3.9 46.8 46.9 -3.9 42.9 -46.8 46.9 -43 -4 -46.9 -46.9 3.9 -43 46.9 -46.9z"/></svg>