<svg height="1000" width="1000" xmlns="http://www.w3.org/2000/svg"><path d="M375 -29.3q3.9 -43 46.9 -46.9h156.2q43 3.9 46.9 46.9 -3.9 43 -46.9 46.9h-31.2V84q91.8 11.7 160.1 66.4l46.9 -46.9L732.4 82q-27.3 -33.2 0 -66.4 33.2 -27.3 66.4 0L908.2 125q27.3 33.2 0 66.4 -33.2 27.4 -66.4 0l-21.5 -21.5 -46.9 46.9q54.7 70.3 66.4 160.2h66.5v-31.3q3.9 -43 46.8 -46.9 43 3.9 46.9 46.9V502q-3.9 42.9 -46.9 46.8Q910.2 544.9 906.3 502v-31.3h-66.5q-13.6 91.8 -66.4 160.2l46.9 46.8 21.5 -21.4q33.2 -27.4 66.4 0 27.3 33.2 0 66.4L798.8 832q-33.2 27.4 -66.4 0 -27.3 -33.2 0 -66.4l21.5 -21.5L707 697.3Q636.7 752 546.9 763.7v66.4h31.2q43 3.9 46.9 46.9 -3.9 42.9 -46.9 46.8H421.9Q378.9 919.9 375 877q3.9 -43 46.9 -46.9h31.2v-66.4Q361.3 750 293 697.3l-46.9 46.8 21.5 21.5q27.3 33.2 0 66.4 -33.2 27.4 -66.4 0L91.8 722.7q-27.3 -33.2 0 -66.4 33.2 -27.4 66.4 0l21.5 21.4 46.9 -46.8Q171.9 562.5 160.2 470.7H93.8V502q-4 42.9 -46.9 46.8Q3.9 544.9 0 502V345.7q3.9 -43 46.9 -46.9 42.9 3.9 46.9 46.9V377h66.4q11.7 -91.8 66.4 -160.2l-46.9 -46.9 -21.5 21.5q-33.2 27.4 -66.4 0 -27.3 -33.2 0 -66.4L201.2 15.6q33.2 -27.3 66.4 0 27.3 33.2 0 66.4l-21.5 21.5 46.9 46.9Q363.3 95.7 453.1 84V17.6h-31.2q-43 -3.9 -46.9 -46.9zm93.8 390.6q-2 -52.7 -46.9 -82 -46.9 -23.4 -93.8 0 -44.9 29.3 -46.8 82 1.9 52.8 46.8 82.1 46.9 23.4 93.8 0 44.9 -29.3 46.9 -82.1zm125 203.2q42.9 -4 46.8 -46.9 -3.9 -43 -46.8 -46.9 -43 3.9 -46.9 46.9 3.9 42.9 46.9 46.9z"/></svg>