<svg height="1000" width="1250" xmlns="http://www.w3.org/2000/svg"><path d="M76.2 -66.4Q39.1 -89.8 9.8 -58.6q-23.5 37.1 7.8 66.4l1156.2 906.3q37.1 23.4 66.4 -7.8 23.5 -37.2 -7.8 -66.5L921.9 597.7q33.2 -58.6 42.9 -127h66.5V502q3.9 42.9 46.8 46.8 43 -3.9 46.9 -46.8V345.7q-3.9 -43 -46.9 -46.9 -42.9 3.9 -46.8 46.9V377h-66.5Q953.1 285.2 898.4 216.8l46.9 -46.9 21.5 21.5q33.2 27.4 66.4 0 27.3 -33.2 0 -66.4L923.8 15.6q-33.2 -27.3 -66.4 0 -27.3 33.2 0 66.4l21.5 21.5L832 150.4Q763.7 95.7 671.9 84V17.6h31.2q43 -3.9 46.9 -46.9 -3.9 -43 -46.9 -46.9H546.9q-43 3.9 -46.9 46.9 3.9 43 46.9 46.9h31.2V84Q486.3 95.7 418 150.4l-46.9 -46.9L392.6 82q27.3 -33.2 0 -66.4 -33.2 -27.3 -66.4 0l-64.5 64.5L76.2 -66.4zM291 341.8q-3.9 17.6 -5.8 35.2h-66.4v-31.3q-4 -43 -46.9 -46.9 -43 3.9 -46.9 46.9V502q3.9 42.9 46.9 46.8 42.9 -3.9 46.9 -46.8v-31.3h66.4q11.7 91.8 66.4 160.2l-46.9 46.8 -21.5 -21.4q-33.2 -27.4 -66.4 0 -27.3 33.2 0 66.4L326.2 832q33.2 27.4 66.4 0 27.3 -33.2 0 -66.4l-21.5 -21.5L418 697.3q70.3 54.7 160.1 66.4v66.4h-31.2Q503.9 834 500 877q3.9 42.9 46.9 46.8h156.2q43 -3.9 46.9 -46.8 -3.9 -43 -46.9 -46.9h-31.2v-66.4q60.5 -7.8 111.3 -35.2L291 341.8z"/></svg>