<svg height="1000" width="1250" xmlns="http://www.w3.org/2000/svg"><path d="M375 -76.2q43 3.9 46.9 46.9V-2q3.9 52.8 48.8 70.4 43 19.5 84 -15.7l19.5 -19.5q33.2 -27.3 66.4 0 27.4 33.2 0 66.4l-19.5 19.5q-35.2 41.1 -15.6 84Q623 248 677.7 252h25.4q43 3.9 46.9 46.8 -3.9 43 -46.9 46.9h-25.4q-54.7 3.9 -72.2 48.8 -19.6 43 15.6 84l19.5 19.5q27.4 33.3 0 66.5 -33.2 27.3 -66.4 0l-19.5 -19.6q-41 -35.1 -84 -15.6 -44.9 17.6 -48.8 72.3V627Q418 669.9 375 673.8 332 669.9 328.1 627v-25.4q-3.9 -54.7 -48.8 -72.3 -43 -19.5 -84 15.6l-19.5 19.6q-33.2 27.3 -66.4 0Q82 531.3 109.4 498l19.5 -19.5q35.2 -41 15.6 -84Q127 349.6 74.2 345.7H46.9Q3.9 341.8 0 298.8 3.9 255.9 46.9 252h27.3q52.8 -4 70.3 -48.9 19.6 -42.9 -15.6 -84L109.4 99.6Q82 66.4 109.4 33.2q33.2 -27.3 66.4 0l19.5 19.5q41 35.2 84 15.7Q324.2 50.8 328.1 -2v-27.3q3.9 -43 46.9 -46.9zm93.8 437.5Q498 359.4 500 330.1q-2 -29.3 -31.2 -31.3 -29.3 2 -31.3 31.3 2 29.3 31.3 31.2zM375 236.3q0 -27.3 -17.6 -44.9 -17.6 -17.6 -44.9 -17.6t-44.9 17.6T250 236.3t17.6 45 44.9 17.5 44.9 -17.5 17.6 -45zm625 156.3q3.9 48.8 44.9 66.4 41 17.6 78.1 -15.6 23.5 -17.6 45 0 17.5 23.4 0 44.9 -33.2 37.1 -15.7 78.1t66.5 44.9q29.2 2 31.2 31.3 -2 29.3 -31.2 31.2 -48.9 3.9 -66.5 45t15.7 78.1q17.5 23.4 0 44.9 -21.5 17.6 -45 0 -37.1 -33.2 -78.1 -15.6t-44.9 66.4q-2 29.3 -31.2 31.2 -29.3 -1.9 -31.3 -31.2 -3.9 -48.8 -44.9 -66.4t-78.1 15.6q-23.5 17.6 -45 0 -17.5 -23.4 0 -44.9 33.2 -37.1 15.7 -78.1t-66.4 -45q-29.3 -1.9 -31.3 -31.2 2 -29.3 31.3 -31.3 48.8 -3.9 66.4 -44.9t-15.7 -78.1q-17.5 -23.5 0 -44.9 23.5 -17.6 45 0 37.1 33.2 78.1 15.6t44.9 -66.4q2 -29.3 31.3 -31.3 29.2 2 31.2 31.3zm0 218.7q0 -27.3 -17.6 -44.9 -17.6 -17.6 -44.9 -17.6t-44.9 17.6T875 611.3t17.6 45 44.9 17.5 44.9 -17.5 17.6 -45z"/></svg>