<svg height="1000" width="1250" xmlns="http://www.w3.org/2000/svg"><path d="M281.3 548.8q-87.9 -1.9 -134.8 -78.1 -43 -78.1 0 -156.2 46.9 -76.2 134.8 -78.2 87.8 2 134.7 78.2 43 78.1 0 156.2 -46.9 76.2 -134.7 78.1zm234.3 0q44.9 -68.3 46.9 -156.2 -3.9 -119.2 -82 -199.2Q400.4 115.2 281.3 111.3 162.1 115.2 82 193.4 3.9 273.4 0 392.6q3.9 119.1 82 199.2 80.1 78.1 199.3 82h687.5q119.1 -3.9 199.2 -82 78.1 -80.1 82 -199.2 -3.9 -119.2 -82 -199.2 -80.1 -78.2 -199.2 -82.1 -119.2 3.9 -199.3 82.1 -78.1 80 -82 199.2 2 87.9 46.9 156.2H515.6zM968.8 236.3q87.8 2 134.7 78.2 43 78.1 0 156.2 -46.9 76.2 -134.7 78.1Q880.9 546.9 834 470.7q-43 -78.1 0 -156.2 46.9 -76.2 134.8 -78.2z"/></svg>