<svg height="1000" width="1000" xmlns="http://www.w3.org/2000/svg"><path d="M312.5 205.1q-52.7 -2 -87.9 -37.1Q189.5 132.8 187.5 80.1q2 -52.8 37.1 -87.9t87.9 -37.1q46.9 0 80.1 29.3Q429.7 -72.3 500 -76.2q70.3 3.9 107.4 60.6 33.2 -29.3 80.1 -29.3 52.7 1.9 87.9 37.1t37.1 87.9q-2 52.7 -37.1 87.9t-87.9 37.1q-43 0 -76.2 -25.4l-62.5 93.7q-17.5 25.4 -48.8 25.4t-48.8 -25.4l-62.5 -93.7q-33.2 25.4 -76.2 25.4zm-31.2 406.2L375 564.5l-93.7 46.8L375 564.5q31.3 -15.7 64.5 -15.7 60.5 0 103.5 43l62.5 62.5q19.5 19.5 46.8 19.5 35.2 0 54.7 -29.3l19.6 -29.3L611.3 486.3Q582 455.1 541 455.1h-82q-41 0 -70.3 31.2L271.5 617.2l9.8 -5.9zm37.1 -187.5Q375 363.3 459 361.3h82q84 2 140.6 62.5l293 330.1q25.4 29.3 25.4 68.4 0 42.9 -29.3 72.2t-72.3 29.3H101.6q-43 -1.9 -72.3 -29.3Q2 865.2 0 822.3q0 -39.1 25.4 -68.4l293 -330.1z"/></svg>