<svg height="1000" width="1000" xmlns="http://www.w3.org/2000/svg"><path d="M1000 445.3q-78.1 27.4 -158.2 31.3 11.7 -156.3 -41 -295Q746.1 44.9 640.6 -56.6q158.2 48.8 257.8 177.7Q996.1 250 1000 423.8v21.5zm-7.8 68.4q-17.6 93.7 -66.4 173.8Q779.3 757.8 619.1 748 457 736.3 316.4 638.7 386.7 531.3 500 460.9q119.1 62.5 244.1 74.3 127 13.6 248.1 -21.5zM531.3 406.3q-4 -134.8 -56.7 -250Q421.9 41 332 -46.9q78.2 -29.3 168 -29.3h15.6q134.8 89.9 205.1 236.4 72.3 144.5 58.6 314.4 -128.9 -5.8 -248 -68.3zM269.5 -19.5Q330.1 33.2 375 101.6 232.4 169.9 140.6 285.2T13.7 543Q0 486.3 0 423.8 2 277.3 74.2 160.2 148.4 44.9 269.5 -19.5zm136.8 175.8q56.6 115.2 62.5 250Q355.5 476.6 281.3 580.1T175.8 804.7Q105.5 744.1 58.6 660.2 70.3 498 160.2 363.3 250 230.5 406.3 156.3zM500 923.8Q349.6 921.9 230.5 845.7 248 765.6 285.2 693.4q126.9 87.9 273.4 111.3 146.5 21.5 287.1 -19.5 -68.4 64.4 -156.2 101.5T500 923.8z"/></svg>