<svg height="1000" width="1250" xmlns="http://www.w3.org/2000/svg"><path d="M1043 -11.7q95.7 78.1 150.4 189.4Q1248 291 1250 423.8q-2 132.8 -56.6 246.1Q1138.7 781.3 1043 861.3q-37.1 23.5 -66.4 -7.8 -23.5 -35.1 5.8 -66.4 80.1 -64.4 127 -158.2t46.9 -205.1 -46.9 -205T982.4 60.5Q953.1 29.3 976.6 -5.9q29.3 -31.2 66.4 -7.8v2zM923.8 132.8q64.5 52.7 101.6 127 37.1 76.1 37.1 164t-37.1 164.1q-37.1 74.2 -101.6 126.9 -35.1 23.5 -66.4 -5.8 -23.4 -37.1 7.8 -66.4 99.6 -82.1 103.6 -218.8 -4 -136.7 -103.6 -218.7Q834 175.8 857.4 138.7q31.3 -29.3 66.4 -5.9zM806.6 279.3Q871.1 332 875 423.8q-3.9 91.8 -68.4 146.5 -37.1 23.5 -66.4 -7.8 -23.4 -35.2 5.9 -66.4 33.2 -27.3 35.2 -72.3 -2 -44.9 -35.2 -72.2 -29.3 -31.3 -5.9 -66.4 29.3 -31.3 66.4 -7.9v2zM587.9 -7.8Q623 9.8 625 48.8v750q-2 39.1 -37.1 56.7 -37.1 15.6 -66.4 -9.8L257.8 611.3H125Q72.3 609.4 37.1 574.2T0 486.3v-125q2 -52.7 37.1 -87.9T125 236.3h132.8L521.5 2q29.3 -25.4 66.4 -9.8z"/></svg>