<svg height="1000" width="1250" xmlns="http://www.w3.org/2000/svg"><path d="M1125 48.8H125h1000H125q-52.7 2 -87.9 37.1T0 173.8v500q2 52.8 37.1 87.9t87.9 37.1h234.4q76.1 -1.9 113.3 -68.3l62.5 -125q29.3 -54.7 89.8 -56.7 60.5 2 89.8 56.7l62.5 125q37.2 66.4 111.4 68.3H1125q52.7 -1.9 87.9 -37.1t37.1 -87.9v-500q-2 -52.7 -37.1 -87.9T1125 48.8zM187.5 392.6q2 -70.3 62.5 -107.4 62.5 -35.2 125 0 60.5 37.1 62.5 107.4 -2 70.3 -62.5 107.4 -62.5 35.2 -125 0Q189.5 462.9 187.5 392.6zm750 -125q70.3 1.9 107.4 62.5 35.2 62.5 0 125 -37.1 60.5 -107.4 62.5 -70.3 -2 -107.4 -62.5 -35.2 -62.5 0 -125 37.1 -60.6 107.4 -62.5z"/></svg>