<svg height="1000" width="750" xmlns="http://www.w3.org/2000/svg"><path d="M218.8 -29.3q-4 -43 -46.9 -46.9 -43 3.9 -46.9 46.9v140.6H93.8q-39.1 2 -66.5 27.4Q2 166 0 205.1v304.7q0 39 27.3 66.4l7.9 7.8q27.3 27.3 27.3 66.4v179.7q2 39 27.3 66.4 27.4 25.4 66.5 27.3h437.5q39 -1.9 66.4 -27.3 25.3 -27.4 27.3 -66.4V650.4q0 -39.1 27.3 -66.4l7.9 -7.8Q750 548.8 750 509.8V205.1Q748 166 722.7 138.7q-27.4 -25.4 -66.4 -27.4H625Q625 84 607.4 66.4T562.5 48.8t-44.9 17.6T500 111.3h-62.5q0 -27.3 -17.6 -44.9T375 48.8t-44.9 17.6 -17.6 44.9h-93.7V-29.3zm0 265.6h312.5H218.8h312.5q29.2 2 31.2 31.3 -2 29.3 -31.2 31.2H218.8q-29.3 -1.9 -31.3 -31.2 2 -29.3 31.3 -31.3zm0 125h312.5H218.8h312.5q29.2 2 31.2 31.3 -2 29.3 -31.2 31.2H218.8q-29.3 -1.9 -31.3 -31.2 2 -29.3 31.3 -31.3zm0 125h312.5H218.8h312.5q29.2 2 31.2 31.3 -2 29.3 -31.2 31.2H218.8q-29.3 -1.9 -31.3 -31.2 2 -29.3 31.3 -31.3z"/></svg>