<svg height="1000" width="1000" xmlns="http://www.w3.org/2000/svg"><path d="M906.3 -64.5q33.2 -25.3 64.4 2l15.6 15.6q27.4 31.3 2 64.5l-168 187.5q-7.8 7.8 -7.8 21.5v41q-2 29.3 -31.2 31.2H750q-13.7 0 -23.4 9.8L197.3 902.3q-19.6 21.5 -48.9 21.5 -27.3 0 -46.8 -19.5l-82.1 -82Q0 802.7 0 775.4q0 -29.3 21.5 -48.8L240.2 533.2q9.8 -9.8 9.8 -23.4v-54.7q2 -27.4 31.3 -31.3h68.3q11.7 0 19.5 -7.8L906.3 -64.5zm-62.5 550.8q11.7 0 15.6 11.7l29.3 101.6 99.6 27.4q11.7 3.9 11.7 15.6t-11.7 15.6l-99.6 29.3 -29.3 99.6q-3.9 11.7 -15.6 11.7t-15.7 -11.7l-27.3 -99.6L699.2 658.2q-11.7 -3.9 -11.7 -15.6T699.2 627l101.6 -27.4L828.1 498q3.9 -11.7 15.7 -11.7zM171.9 60.5l29.3 101.6L171.9 60.5l29.3 101.6 99.6 27.4q11.7 3.9 11.7 15.6t-11.7 15.6L201.2 250l-29.3 99.6q-3.9 11.7 -15.6 11.7t-15.7 -11.7L113.3 250 11.7 220.7Q0 216.8 0 205.1t11.7 -15.6l101.6 -27.4L140.6 60.5q3.9 -11.7 15.7 -11.7t15.6 11.7zM406.3 -76.2q11.7 0 15.6 11.7l13.6 52.8L488.3 2Q500 5.9 500 17.6t-11.7 15.6l-52.8 13.7 -13.6 52.7q-3.9 11.7 -15.6 11.7T390.6 99.6L377 46.9 324.2 33.2Q312.5 29.3 312.5 17.6T324.2 2L377 -11.7l13.6 -52.8q3.9 -11.7 15.7 -11.7z"/></svg>