<svg height="1000" width="1125" xmlns="http://www.w3.org/2000/svg"><path d="M459 7.8l-74.2 27.4L459 7.8l-74.2 27.4Q375 39.1 375 48.8t9.8 13.7L459 89.8l27.3 74.3q3.9 9.7 13.7 9.7t13.7 -9.7L541 89.8l74.2 -27.3Q625 58.6 625 48.8t-9.8 -13.6L541 7.8l-27.3 -74.2q-3.9 -9.8 -13.7 -9.8t-13.7 9.8L459 7.8zM89.8 695.3q-27.3 29.3 -27.3 66.4 0 37.1 27.3 66.4l68.4 68.4q27.3 27.3 66.4 27.3 37.1 0 66.4 -27.3l744.2 -744.2q27.3 -29.3 27.3 -66.4 0 -39 -27.3 -66.4l-68.4 -68.3q-27.3 -27.4 -66.4 -27.4 -37.1 0 -66.4 27.4L89.8 695.3zM947.3 85.9L742.2 291 947.3 85.9 742.2 291l-46.9 -46.9 205.1 -205 46.9 46.8zM15.6 152.3Q0 158.2 0 173.8t15.6 21.5l109.4 41 41 111.4q5.9 13.6 21.5 13.6T209 347.7l41 -111.4 111.3 -41Q375 189.5 375 173.8t-13.7 -21.5L250 111.3 209 2q-5.9 -15.7 -21.5 -15.7T166 2l-41 109.3 -109.4 41zm687.5 500q-15.6 5.9 -15.6 21.5t15.6 21.5l109.4 41 41 111.4q5.9 13.6 21.5 13.6t21.5 -13.6l41 -111.4 111.3 -41q13.7 -5.8 13.7 -21.5t-13.7 -21.5l-111.3 -41L896.5 502Q890.6 486.3 875 486.3T853.5 502l-41 109.3 -109.4 41z"/></svg>