<svg height="1000" width="1250" xmlns="http://www.w3.org/2000/svg"><path d="M0 877V257.8 877 257.8q0 -39 21.5 -70.3Q43 158.2 78.1 142.6l523.5 -209q23.4 -9.8 46.8 0l523.5 209q35.1 15.6 56.6 44.9 21.5 31.3 21.5 70.3V877q-3.9 42.9 -46.9 46.8h-93.7q-43 -3.9 -46.9 -46.8V361.3q0 -27.3 -17.6 -44.9T1000 298.8H250q-27.3 0 -44.9 17.6t-17.6 44.9V877q-3.9 42.9 -46.9 46.8H46.9Q3.9 919.9 0 877zm953.1 46.8H296.9h656.2H296.9Q253.9 919.9 250 877V767.6h750V877q-3.9 42.9 -46.9 46.8zM250 705.1v-125 125 -125h750v125H250zm0 -187.5V361.3v156.3V361.3h750v156.3H250z"/></svg>