<svg height="1000" width="1125" xmlns="http://www.w3.org/2000/svg"><path d="M250 173.8q2 -80 54.7 -132.8 52.7 -52.7 132.8 -54.7 72.3 2 123 46.9T623 150.4l2 15.6q2 27.4 -13.7 46.9t-41 23.4q-27.3 2 -46.9 -13.6T500 181.6L498 166q-9.7 -50.8 -60.5 -54.7 -27.3 0 -44.9 17.6T375 173.8v187.5h375V173.8q2 -80 54.7 -132.8t132.8 -54.7q72.3 2 123 46.9t62.5 117.2l2 15.6q2 27.4 -13.7 46.9t-41 23.4q-27.3 2 -46.9 -13.6T1000 181.6L998 166q-9.7 -50.8 -60.5 -54.7 -27.3 0 -44.9 17.6T875 173.8v455.1q-2 0 -2 2l-7.8 3.9q-56.6 39 -115.2 39V486.3H375v187.5q-58.6 0 -115.2 -39 -3.9 -3.9 -9.8 -5.9V173.8zm349.6 511.7Q668 734.4 750 736.3q82 -3.9 150.4 -50.8 41 -25.3 78.1 4 43 35.1 97.7 48.8 25.4 5.8 39 27.3t7.8 46.9 -27.3 39.1 -46.9 7.8Q974.6 839.8 935.5 810.5 847.7 859.4 750 861.3q-95.7 -5.8 -156.2 -37.1 -17.6 -7.8 -31.3 -15.6 -13.7 7.8 -31.2 15.6Q470.7 855.5 375 861.3q-97.7 -1.9 -183.6 -50.8 -41 29.3 -115.2 48.9 -25.4 5.8 -46.9 -7.8T2 812.5t7.8 -46.9 39 -27.3q54.7 -13.7 97.7 -48.8 37.1 -27.4 78.1 -4Q293 732.4 375 736.3q84 -1.9 152.3 -50.8 35.2 -23.4 72.3 0z"/></svg>