<svg height="1000" width="1125" xmlns="http://www.w3.org/2000/svg"><path d="M527.3 60.5q35.2 -23.4 72.3 0Q668 109.4 750 111.3q82 -3.9 150.4 -50.8 41 -25.3 78.1 4 43 35.1 97.7 48.8 25.4 5.8 39 27.3t7.8 46.9 -27.3 39.1 -46.9 7.8Q974.6 214.8 935.5 185.5 847.7 234.4 750 236.3q-95.7 -5.8 -156.2 -37.1 -17.6 -7.8 -31.3 -15.6 -13.7 7.8 -31.2 15.6Q470.7 230.5 375 236.3q-97.7 -1.9 -183.6 -50.8 -41 29.3 -115.2 48.9 -25.4 5.8 -46.9 -7.8T2 187.5t7.8 -46.9 39 -27.3q54.7 -13.7 97.7 -48.8 37.1 -29.3 78.1 -4Q293 107.4 375 111.3q84 -1.9 152.3 -50.8zM599.6 623Q668 671.9 750 673.8q82 -3.9 150.4 -50.8 41 -25.3 78.1 4 43 35.1 97.7 48.8 25.4 5.8 39 27.3t7.8 46.9 -27.3 39.1 -46.9 7.8Q974.6 777.3 935.5 748 847.7 796.9 750 798.8 654.3 793 593.8 761.7q-17.6 -7.8 -31.3 -15.6 -13.7 7.8 -31.2 15.6Q470.7 793 375 798.8 277.3 796.9 191.4 748q-41 29.3 -115.2 48.9 -25.4 5.8 -46.9 -7.8T2 750t7.8 -46.9 39 -27.3q54.7 -13.7 97.7 -48.8 37.1 -27.4 78.1 -4Q293 669.9 375 673.8q84 -1.9 152.3 -50.8 35.2 -23.4 72.3 0zm0 -281.2Q668 390.6 750 392.6q82 -3.9 150.4 -50.8 41 -25.4 78.1 3.9 43 35.2 97.7 48.8 25.4 5.9 39 27.4t7.8 46.9 -27.3 39 -46.9 7.8Q974.6 496.1 935.5 466.8 847.7 515.6 750 517.6q-95.7 -5.9 -156.2 -37.1 -17.6 -7.8 -31.3 -15.7 -13.7 7.9 -31.2 15.7Q470.7 511.7 375 517.6q-97.7 -2 -183.6 -50.8 -41 29.3 -115.2 48.8 -25.4 5.9 -46.9 -7.8T2 468.8t7.8 -46.9 39 -27.4q54.7 -13.6 97.7 -48.8 37.1 -29.3 78.1 -3.9Q293 388.7 375 392.6q84 -2 152.3 -50.8 35.2 -23.4 72.3 0z"/></svg>