<svg height="1000" width="1250" xmlns="http://www.w3.org/2000/svg"><path d="M726.6 25.4q-3.9 64.4 -58.6 91.8l207 181.6 203.1 -41q-15.6 -23.4 -15.6 -52.7 2 -39.1 27.3 -66.4 27.4 -25.4 66.5 -27.4 39 2 66.4 27.4 25.3 27.3 27.3 66.4 0 39 -27.3 64.4 -25.4 27.4 -62.5 29.3L939.5 787.1q-35.2 70.3 -113.3 74.2H423.8q-78.1 -3.9 -113.3 -74.2L89.8 298.8Q52.7 296.9 27.3 269.5 0 244.1 0 205.1 2 166 27.3 138.7q27.4 -25.4 66.5 -27.4 39 2 66.4 27.4 25.3 27.3 27.3 66.4 0 29.3 -15.6 52.7l203.1 41L582 117.2Q527.3 89.8 523.4 25.4q2 -43 29.3 -72.3Q582 -74.2 625 -76.2q43 2 72.3 29.3 29.3 29.3 29.3 72.3z"/></svg>