<svg height="1000" width="1000" xmlns="http://www.w3.org/2000/svg"><path d="M437.5 111.3q0 -27.3 17.6 -44.9Q472.7 48.8 500 48.8t44.9 17.6 17.6 44.9 -17.6 45T500 173.8t-44.9 -17.5 -17.6 -45zm240.2 62.5q9.8 -29.3 9.8 -62.5 -2 -80 -54.7 -132.8T500 -76.2q-80.1 2 -132.8 54.7t-54.7 132.8q0 33.2 11.7 62.5h-89.8q-33.2 0 -58.6 19.6 -23.5 19.5 -33.2 50.7L2 806.6q-9.8 45 17.5 82.1 29.3 35.1 74.3 35.1h812.5q44.9 0 74.2 -35.1 27.3 -37.1 17.5 -82.1L857.4 244.1q-9.7 -31.2 -33.2 -50.7 -25.4 -19.6 -58.6 -19.6h-87.9z"/></svg>