<svg height="1000" width="1000" xmlns="http://www.w3.org/2000/svg"><path d="M250 267.6q0 -68.4 33.2 -125Q316.4 85.9 375 50.8 433.6 17.6 500 17.6t125 33.2q58.6 35.1 91.8 91.8t33.2 125 -33.2 125T625 484.4q-58.6 33.2 -125 33.2T375 484.4q-58.6 -35.2 -91.8 -91.8T250 267.6zM765.6 48.8Q716.8 -9.8 648.4 -43 580.1 -76.2 500 -76.2T351.6 -43 234.4 48.8H125q-52.7 2 -87.9 37.1T0 173.8v625q2 52.8 37.1 87.9t87.9 37.1h750q52.7 -1.9 87.9 -37.1t37.1 -87.9v-625q-2 -52.7 -37.1 -87.9T875 48.8H765.6zM578.1 361.3q0 -31.2 -21.5 -52.7L623 154.3q7.9 -27.3 -17.5 -41 -27.4 -7.8 -41 17.6L500 283.2q-33.2 2 -54.7 23.4 -23.4 21.5 -23.4 54.7t23.4 54.7q21.5 23.5 54.7 23.5T554.7 416q23.4 -21.5 23.4 -54.7z"/></svg>