<svg height="1000" width="1250" xmlns="http://www.w3.org/2000/svg"><path d="M986.3 3.9q27.4 -33.2 0 -66.4 -33.2 -27.3 -66.4 0L748 109.4q-27.3 33.2 0 66.4 33.3 27.3 66.5 0L986.3 3.9zM597.7 -23.4q-23.5 -17.6 -45 0L531.3 0q-56.7 56.6 -56.7 132.8 0 74.2 56.7 130.9l19.5 21.5 -60.6 58.6q-9.7 -82.1 -70.3 -146.5l-21.5 -21.5q-23.4 -17.6 -44.9 0L332 197.3q-54.7 58.6 -54.7 132.8 0 76.2 54.7 132.8l19.6 21.5L293 543q-9.8 -82.1 -72.3 -146.5L199.2 375q-21.5 -17.6 -44.9 0l-21.5 21.5Q78.1 455.1 78.1 529.3q0 76.2 54.7 132.8l19.5 21.5L17.6 816.4Q0 835.9 0 861.3t17.6 45q19.5 17.5 44.9 17.5t44.9 -17.5L242.2 771.5l23.4 23.4q56.7 54.7 132.8 54.7 74.3 0 132.9 -54.7l21.4 -21.5q17.6 -23.4 0 -44.9L531.3 707Q464.8 642.6 378.9 634.8l60.6 -62.5 25.3 23.4q70.4 66.4 160.2 52.7v-5.8q2 -97.7 48.8 -175.8Q627 441.4 576.2 435.5L638.7 373l23.4 23.5q17.6 17.6 39.1 31.2 84 -103.5 220.7 -125Q908.2 291 896.5 281.3l89.8 -89.9q27.4 -33.2 0 -66.4 -33.2 -27.3 -66.4 0L804.7 242.2q-62.5 -13.7 -123.1 3.9 19.6 -64.5 3.9 -128.9L798.8 3.9q27.4 -33.2 0 -66.4 -33.2 -27.3 -66.4 0l-89.8 89.8Q632.8 11.7 619.1 0l-21.4 -23.4zm371.1 947.2q76.1 0 140.6 -37.1 64.4 -37.1 103.5 -103.5Q1250 716.8 1250 642.6T1212.9 502q-39.1 -66.5 -103.5 -103.6T968.8 361.3t-140.7 37.1T724.6 502q-37.1 66.4 -37.1 140.6t37.1 140.6q39.1 66.4 103.5 103.5t140.7 37.1zm0 -187.5q42.9 3.9 46.8 46.9 -3.9 43 -46.8 46.9 -43 -3.9 -46.9 -46.9 3.9 -43 46.9 -46.9zm0 -281.2q29.2 1.9 31.2 31.2v156.3q-2 29.3 -31.2 31.2 -29.3 -1.9 -31.3 -31.2V486.3q2 -29.3 31.3 -31.2z"/></svg>