<svg height="1000" width="875" xmlns="http://www.w3.org/2000/svg"><path d="M625 17.6q2 -52.8 46.9 -82.1 46.9 -23.4 93.7 0 44.9 29.3 46.9 82.1 -2 52.7 -46.9 82 -46.8 23.4 -93.7 0Q627 70.3 625 17.6zM400.4 160.2q-17.6 -5.9 -33.2 3.9l-80.1 60.5q-21.5 15.6 -46.9 11.7 -23.4 -3.9 -41 -25.4Q185.5 189.5 187.5 166q3.9 -25.4 25.4 -41L293 64.5Q367.2 11.7 453.1 46.9l175.8 84q43 21.4 52.7 66.4 7.9 42.9 -23.4 80l-74.2 84h191.4q44.9 2 72.3 35.2 25.3 31.2 19.5 76.2L810.5 748q-5.8 27.4 -25.3 41.1 -21.5 13.6 -46.9 7.8 -27.4 -5.9 -41 -25.4Q683.6 750 689.5 724.6l46.8 -238.3H599.6q25.4 58.6 25.4 125Q621.1 744.1 533.2 832t-220.7 91.8Q179.7 919.9 91.8 832T0 611.3Q3.9 478.5 91.8 390.6t220.7 -91.8q33.2 0 62.5 5.9L482.4 199.2l-82 -39zm-87.9 638.6q50.8 0 93.8 -25.4 42.9 -25.4 68.3 -68.3Q500 660.2 500 611.3t-25.4 -93.7q-25.4 -43 -68.3 -68.4t-93.8 -25.4 -93.7 25.4 -68.4 68.4Q125 562.5 125 611.3t25.4 93.8q25.4 42.9 68.4 68.3t93.7 25.4z"/></svg>