<svg height="1000" width="1000" xmlns="http://www.w3.org/2000/svg"><path d="M375 111.3q52.7 -1.9 82 -46.8 23.5 -46.9 0 -93.8 -29.3 -44.9 -82 -46.9 -52.7 2 -82 46.9 -23.5 46.9 0 93.8 29.3 44.9 82 46.8zm-138.7 295q37.1 -17.6 27.4 -60.6 -19.6 -39.1 -60.6 -27.3Q111.3 353.5 56.6 431.6T0 611.3Q3.9 744.1 91.8 832t220.7 91.8q89.8 -1.9 162.1 -44.9Q546.9 834 587.9 757.8q17.6 -39 -19.5 -62.5 -39.1 -17.6 -62.5 19.5 -29.3 52.8 -80.1 84Q377 830.1 312.5 830.1q-93.7 -2 -154.3 -64.5Q95.7 705.1 93.8 611.3q1.9 -70.3 39 -125 39.1 -54.7 103.5 -80zM507.8 267.6L503.9 248l3.9 19.6L503.9 248q-7.8 -33.2 -33.2 -52.7 -23.4 -21.5 -58.6 -21.5 -44.9 2 -72.3 33.2 -25.3 33.2 -19.5 78.2l44.9 226.5q9.8 43 45 70.3 33.2 27.4 78.1 29.3h197.2q19.6 0 29.3 19.6l70.4 189.4q9.7 23.5 31.2 35.2 21.5 9.7 46.9 1.9L957 826.2q25.4 -7.8 37.1 -31.3 9.8 -21.5 2 -46.9t-31.3 -37.1Q943.4 701.2 918 709l-37.1 11.7L832 587.9Q812.5 541 773.4 513.7t-87.9 -27.4H550.8l-17.6 -93.7h123.1q27.3 0 44.9 -17.6t17.6 -44.9 -17.6 -44.9 -44.9 -17.6H507.8z"/></svg>