<svg height="1000" width="1250" xmlns="http://www.w3.org/2000/svg"><path d="M105.5 320.3Q207 222.7 339.8 168 472.7 111.3 625 111.3T910.2 168q132.8 54.7 234.3 152.3 19.6 17.6 45 17.6 23.4 0 42.9 -19.5 17.6 -19.6 17.6 -45t-19.5 -42.9Q1111.3 115.2 957 50.8 802.7 -11.7 625 -13.7q-177.7 2 -332 64.5Q138.7 115.2 19.5 230.5 0 248 0 273.4t17.6 45q19.5 19.5 42.9 19.5 25.4 0 45 -17.6zM625 423.8q169.9 3.9 289.1 109.4 21.4 17.6 44.9 15.6 25.4 -1.9 43 -21.5t15.6 -44.9q0 -25.4 -19.6 -42.9Q921.9 373 828.1 335.9 732.4 298.8 625 298.8t-203.1 37.1q-93.8 37.1 -168 103.6 -19.5 17.5 -21.5 42.9t15.6 44.9 43 21.5q23.5 2 44.9 -15.6Q455.1 427.7 625 423.8zm125 312.5Q748 666 687.5 628.9q-62.5 -35.1 -125 0Q502 666 500 736.3q2 70.3 62.5 107.5 62.5 35.1 125 0Q748 806.6 750 736.3z"/></svg>