<svg height="1000" width="1000" xmlns="http://www.w3.org/2000/svg"><path d="M843.8 48.8H406.3h437.5H406.3Q377 50.8 375 80.1v31.2H250V80.1q2 -66.4 44.9 -111.4 44.9 -42.9 111.4 -44.9h437.5q66.4 2 111.3 44.9 42.9 45 44.9 111.4v437.5q-2 66.4 -44.9 111.3 -44.9 43 -111.3 44.9h-31.3v-125h31.3Q873 546.9 875 517.6V80.1Q873 50.8 843.8 48.8zM0 298.8q2 -52.7 37.1 -87.9Q72.3 175.8 125 173.8h500q52.7 2 87.9 37.1t37.1 87.9v500q-2 52.8 -37.1 87.9T625 923.8H125Q72.3 921.9 37.1 886.7T0 798.8v-500zm125 62.5q0 27.4 17.6 45 17.6 17.5 44.9 17.5h375q27.3 0 44.9 -17.5t17.6 -45 -17.6 -44.9 -44.9 -17.6h-375q-27.3 0 -44.9 17.6T125 361.3z"/></svg>