<svg height="1000" width="1000" xmlns="http://www.w3.org/2000/svg"><path d="M562.5 -13.7q0 27.4 17.6 45 17.6 17.5 44.9 17.5h62.5q27.3 0 44.9 17.6t17.6 44.9 -17.6 45 -44.9 17.5h-625q-27.3 0 -44.9 17.6T0 236.3t17.6 45 44.9 17.5h625q80.1 -1.9 132.8 -54.7T875 111.3q-2 -80 -54.7 -132.8T687.5 -76.2H625q-27.3 0 -44.9 17.6t-17.6 44.9zm125 687.5q0 27.4 17.6 45 17.6 17.5 44.9 17.5h62.5q80.1 -1.9 132.8 -54.7T1000 548.8q-2 -80 -54.7 -132.8T812.5 361.3h-750q-27.3 0 -44.9 17.6T0 423.8t17.6 45 44.9 17.5h750q27.3 0 44.9 17.6t17.6 44.9 -17.6 45 -44.9 17.5H750q-27.3 0 -44.9 17.6t-17.6 44.9zM250 923.8h62.5H250h62.5q80.1 -1.9 132.8 -54.7T500 736.3q-2 -80 -54.7 -132.8T312.5 548.8h-250q-27.3 0 -44.9 17.6T0 611.3t17.6 45 44.9 17.5h250q27.3 0 44.9 17.6t17.6 44.9 -17.6 45 -44.9 17.5H250q-27.3 0 -44.9 17.6t-17.6 44.9 17.6 45 44.9 17.5z"/></svg>