<svg height="1000" width="625" xmlns="http://www.w3.org/2000/svg"><path d="M125 -76.2q-25.4 0 -43 15.7 -17.5 17.5 -19.5 41l-27.3 330Q29.3 418 89.8 498q58.6 82.1 160.2 105.5v195.3h-93.7q-27.4 0 -45 17.6t-17.5 44.9 17.5 45 45 17.5h312.5q27.3 0 44.9 -17.5t17.6 -45 -17.6 -44.9 -44.9 -17.6H375V603.5Q476.6 580.1 535.2 498q60.5 -80 54.6 -187.5l-27.3 -330q-2 -23.5 -19.5 -41 -17.6 -15.7 -43 -15.7H125zm35.2 396.5L181.6 48.8l-21.4 271.5L181.6 48.8h261.8l21.4 271.5q4 68.4 -39 117.2 -44.9 46.9 -113.3 48.8 -68.4 -1.9 -113.3 -48.8 -42.9 -48.8 -39 -117.2z"/></svg>