<svg height="1000" width="1000" xmlns="http://www.w3.org/2000/svg"><path d="M767.6 -58.6q19.5 -17.6 44.9 -17.6t44.9 17.6l125 125q17.6 19.5 17.6 44.9t-17.6 45q-19.5 17.5 -42.9 17.5 -23.5 2 -43 -13.6l-17.6 17.5 -95.7 95.7q-25.4 29.3 -15.6 70.4 13.7 60.5 -3.9 121Q748 525.4 701.2 572.3L384.8 886.7q-37.1 37.1 -87.9 37.1 -48.9 0 -87.9 -37.1L37.1 714.8Q0 677.7 0 627q0 -48.9 37.1 -87.9L351.6 222.7q48.8 -46.9 109.3 -62.5t121.1 -2q39.1 7.8 68.4 -17.6l95.7 -95.7 19.5 -17.6Q750 7.8 750 -15.6t17.6 -43zM193.4 601.6l128.9 128.9L193.4 601.6l128.9 128.9q21.5 17.5 42.9 0L556.6 539.1q17.6 -21.5 0 -43L427.7 367.2q-21.4 -17.6 -42.9 0L193.4 558.6q-17.6 21.5 0 43z"/></svg>