<svg height="1000" width="1000" xmlns="http://www.w3.org/2000/svg"><path d="M121.1 29.3Q113.3 3.9 89.8 -7.8 68.4 -17.6 43 -9.8T5.9 21.5Q-3.9 43 3.9 68.4l97.7 292.9H62.5q-27.3 0 -44.9 17.6T0 423.8t17.6 45 44.9 17.5h80.1l111.3 332.1q15.6 42.9 60.6 42.9 44.9 -3.9 58.5 -46.8l82.1 -328.2h89.8L627 814.5q13.6 42.9 58.5 46.8 45 0 60.6 -42.9L857.4 486.3h80.1q27.3 0 44.9 -17.5t17.6 -45 -17.6 -44.9 -44.9 -17.6h-39.1L996.1 68.4q7.8 -25.4 -2 -46.9Q982.4 -2 957 -9.8t-46.8 2Q886.7 3.9 878.9 29.3l-111.3 332h-125L560.5 33.2Q546.9 -11.7 500 -13.7q-46.9 2 -60.5 46.9l-82.1 328.1h-125L121.1 29.3zm152.3 457h52.8 -52.8 52.8l-21.5 89.9 -31.3 -89.9zm212.9 -125L500 306.6l-13.7 54.7L500 306.6l13.7 54.7h-27.4zm187.5 125h52.8 -52.8 52.8l-31.3 89.9 -21.5 -89.9z"/></svg>