<svg height="1000" width="1000" xmlns="http://www.w3.org/2000/svg"><path d="M500 111.3q2 -80 54.7 -132.8 52.7 -52.7 132.8 -54.7h74.2q74.2 2 125 50.8 48.8 50.8 50.8 125V658.2q-2 113.3 -78.1 187.5 -74.2 76.2 -187.5 78.1Q558.6 921.9 484.4 845.7 408.2 771.5 406.3 658.2V502q0 -33.2 -23.5 -54.7 -21.5 -23.5 -54.7 -23.5t-54.7 23.5Q250 468.8 250 502v328.1q-2 39 -27.3 66.4 -27.4 25.4 -66.4 27.3 -39.1 -1.9 -66.5 -27.3Q64.5 869.1 62.5 830.1V502q2 -113.3 78.1 -187.5 74.2 -76.2 187.5 -78.2 113.3 2 187.5 78.2 76.2 74.2 78.2 187.5v156.2q0 33.2 23.4 54.7 21.5 23.4 54.7 23.4t54.7 -23.4Q750 691.4 750 658.2V298.8h-62.5q-80.1 -1.9 -132.8 -54.7T500 111.3zM781.3 95.7q-4 -43 -46.9 -46.9 -43 3.9 -46.9 46.9 3.9 43 46.9 46.9 42.9 -3.9 46.9 -46.9z"/></svg>