<svg height="1000" width="1000" xmlns="http://www.w3.org/2000/svg"><path d="M687.5 548.8Q820.3 544.9 908.2 457q87.9 -87.9 91.8 -220.7 0 -44.9 -11.7 -85.9 -5.9 -15.6 -21.5 -19.5 -13.7 -2 -25.4 9.7L791 289.1q-9.7 9.7 -23.4 9.7H656.3Q627 296.9 625 267.6V156.3q0 -13.7 9.8 -23.5L785.2 -17.6q9.7 -11.7 7.8 -25.4 -3.9 -15.6 -19.6 -21.5 -41 -11.7 -85.9 -11.7 -132.8 3.9 -220.7 91.8T375 236.3q0 56.7 19.5 107.5L39.1 697.3Q0 736.3 0 791q2 56.7 39.1 93.8t93.7 39q54.7 0 93.8 -39L582 531.3q48.9 17.5 105.5 17.5zM156.3 720.7q42.9 3.9 46.8 46.9 -3.9 42.9 -46.8 46.9 -43 -4 -46.9 -46.9 3.9 -43 46.9 -46.9z"/></svg>