<svg height="1000" width="1000" xmlns="http://www.w3.org/2000/svg"><path d="M0 48.8Q0 21.5 17.6 3.9q17.6 -17.6 44.9 -17.6h875q27.3 0 44.9 17.6t17.6 44.9 -17.6 45 -44.9 17.5v625q27.3 0 44.9 17.6t17.6 44.9 -17.6 45 -44.9 17.5h-875q-27.3 0 -44.9 -17.5T0 798.8t17.6 -44.9 44.9 -17.6v-625q-27.3 0 -44.9 -17.5T0 48.8zm500 62.5q-29.3 2 -31.2 31.3v62.5H312.5q-29.3 1.9 -31.2 31.2 1.9 29.3 31.2 31.3h156.3v93.7H250q-29.3 2 -31.2 31.3 1.9 29.3 31.2 31.2h218.8v138.7l-99.7 -39.1q-15.6 -5.8 -31.2 -5.8H334q-35.2 0 -58.6 25.4Q250 566.4 250 601.6q0 29.3 17.6 50.7l35.1 45q31.3 37.1 80.1 39h234.4q48.8 -1.9 80.1 -39l35.1 -45Q750 630.9 750 601.6q0 -35.2 -25.4 -58.6Q701.2 517.6 666 517.6h-3.9q-15.6 0 -31.2 5.8l-99.6 39.1V423.8H750q29.3 -1.9 31.3 -31.2 -2 -29.3 -31.3 -31.3H531.3v-93.7h156.2q29.3 -2 31.3 -31.3 -2 -29.3 -31.3 -31.2H531.3v-62.5q-2 -29.3 -31.3 -31.3zm-93.7 500q29.2 2 31.2 31.3 -2 29.3 -31.2 31.2Q377 671.9 375 642.6q2 -29.3 31.3 -31.3zm156.2 31.3q2 -29.3 31.3 -31.3 29.2 2 31.2 31.3 -2 29.3 -31.2 31.2 -29.3 -1.9 -31.3 -31.2z"/></svg>