<svg height="1000" width="1250" xmlns="http://www.w3.org/2000/svg"><path d="M62.5 -13.7q-27.3 0 -44.9 17.6Q0 21.5 0 48.8t17.6 45 44.9 17.5h1125q27.3 0 44.9 -17.5t17.6 -45T1232.4 3.9t-44.9 -17.6H62.5zm0 750q-27.3 0 -44.9 17.6Q0 771.5 0 798.8t17.6 45 44.9 17.5h1125q27.3 0 44.9 -17.5t17.6 -45 -17.6 -44.9 -44.9 -17.6H62.5zM13.7 250q-27.4 33.2 0 66.4l107.4 107.4L13.7 531.3q-27.4 33.2 0 66.4 33.2 27.3 66.4 0L187.5 490.2l107.4 107.5q33.2 27.3 66.4 0 27.4 -33.2 0 -66.4L253.9 423.8 361.3 316.4q27.4 -33.2 0 -66.4 -33.2 -27.3 -66.4 0L187.5 357.4 80.1 250q-33.2 -27.3 -66.4 0zm503.9 0q-33.2 -27.3 -66.4 0 -27.4 33.2 0 66.4l107.4 107.4L451.2 531.3q-27.4 33.2 0 66.4 33.2 27.3 66.4 0L625 490.2l107.4 107.5q33.2 27.3 66.4 0 27.4 -33.2 0 -66.4L691.4 423.8 798.8 316.4q27.4 -33.2 0 -66.4 -33.2 -27.3 -66.4 0L625 357.4 517.6 250zm371.1 0q-27.4 33.2 0 66.4l107.4 107.4L888.7 531.3q-27.4 33.2 0 66.4 33.2 27.3 66.4 0l107.4 -107.5 107.4 107.5q33.2 27.3 66.4 0 27.4 -33.2 0 -66.4L1128.9 423.8l107.4 -107.4q27.4 -33.2 0 -66.4 -33.2 -27.3 -66.4 0l-107.4 107.4L955.1 250q-33.2 -27.3 -66.4 0z"/></svg>