<svg height="1000" width="625" xmlns="http://www.w3.org/2000/svg"><path d="M115.2 13.7Q99.6 -7.8 74.2 -11.7q-23.4 -5.9 -46.9 7.8Q5.9 11.7 2 37.1 -3.9 60.5 9.8 84l185.5 277.3H93.8q-27.4 0 -45 17.6t-17.5 44.9 17.5 45 45 17.5H250v62.5H93.8q-27.4 0 -45 17.6t-17.5 44.9 17.5 45 45 17.5H250v125q0 27.4 17.6 45t44.9 17.5 44.9 -17.5 17.6 -45v-125h156.3q27.3 0 44.9 -17.5t17.6 -45 -17.6 -44.9 -44.9 -17.6H375v-62.5h156.3q27.3 0 44.9 -17.5t17.6 -45 -17.6 -44.9 -44.9 -17.6H429.7L615.2 84Q628.9 60.5 623 37.1q-3.9 -25.4 -25.3 -41 -23.5 -13.7 -46.9 -7.8 -25.4 3.9 -41 25.4L312.5 310.5 115.2 13.7z"/></svg>