<svg height="1000" width="1000" xmlns="http://www.w3.org/2000/svg"><path d="M500 48.8q80.1 2 132.8 54.7 52.7 52.8 54.7 132.8 -2 80.1 -54.7 132.8T500 423.8t-132.8 54.7 -54.7 132.8q2 80.1 54.7 132.8T500 798.8Q339.8 794.9 234.4 689.5T125 423.8q3.9 -160.1 109.4 -265.6T500 48.8zm0 875q136.7 -1.9 250 -66.4Q863.3 791 933.6 673.8q66.4 -119.1 66.4 -250t-66.4 -250Q863.3 56.6 750 -9.8 636.7 -74.2 500 -76.2q-136.7 2 -250 66.4Q136.7 56.6 66.4 173.8 0 293 0 423.8t66.4 250Q136.7 791 250 857.4q113.3 64.5 250 66.4zm62.5 -687.5q0 -27.3 -17.6 -44.9Q527.3 173.8 500 173.8t-44.9 17.6 -17.6 44.9 17.6 45 44.9 17.5 44.9 -17.5 17.6 -45zm-125 375q0 -27.3 17.6 -44.9 17.6 -17.6 44.9 -17.6t44.9 17.6 17.6 44.9 -17.6 45T500 673.8t-44.9 -17.5 -17.6 -45z"/></svg>